<?xml version="1.0" encoding="utf-8"?>
<!-- Generator: Adobe Illustrator 22.0.0, SVG Export Plug-In . SVG Version: 6.00 Build 0)  -->
<svg version="1.1" id="Capa_1" xmlns="http://www.w3.org/2000/svg" xmlns:xlink="http://www.w3.org/1999/xlink" x="0px" y="0px"
	 viewBox="0 0 641.7 51" style="enable-background:new 0 0 641.7 51;" xml:space="preserve">
<style type="text/css">
	.st0{fill:#FFCA03;}
	.st1{font-family:'AkzidenzGroteskBE-XBd';}
	.st2{font-size:41.6449px;}
	.st3{fill:#FFFFFF;}
	.st4{font-family:'AkzidenzGroteskBE-Bold';}
	.st5{fill-rule:evenodd;clip-rule:evenodd;fill:#158AA7;}
	.st6{fill-rule:evenodd;clip-rule:evenodd;fill:#009497;}
	.st7{fill-rule:evenodd;clip-rule:evenodd;fill:#FFFFFF;}
</style>
<g>
	<text transform="matrix(1 0 0 1 174.1307 35.543)"><tspan x="0" y="0" class="st0 st1 st2">99.89 % </tspan><tspan x="154.5" y="0" class="st3 st1 st2"> </tspan><tspan x="165.7" y="0" class="st3 st4 st2">Bioequivalente</tspan></text>
	<g>
		<path class="st5" d="M1.3,39h9.1l1.5-10.1h4.8c5.3,0,9.2-4.3,10.3-11.1c1.2-8.3-2.6-12.3-8.7-12.3H6.3L1.3,39z M14,14.6h0.9
			c1.5,0,3.4,0.1,3,2.8c-0.4,2.7-2.3,3.1-3.9,3.1h-0.9L14,14.6z"/>
		<polygon class="st5" points="24.3,39 42.2,39 43.9,28.2 35.7,28.2 39.3,5.5 29.5,5.5 		"/>
		<path class="st5" d="M62.2,5.5l-2.8,18.7c-0.4,2.6-0.8,4.9-3.3,4.9s-2.2-2.3-1.8-4.9L57,5.5h-9.4l-3,19.8
			c-1.5,9.8,2.6,14.2,9.9,14.2c7.3,0,12.7-4.4,14.2-14.2l3-19.8H62.2z"/>
		<path class="st5" d="M67.5,39H77l1.7-10.8h0.2L81.4,39h11.2l-4.1-10.9c-0.4-1-0.9-1.5-1.3-2l0-0.3c3.8-1.5,5.8-3.6,6.6-8.7
			c1.3-8.4-3.3-11.6-9.4-11.6H72.7L67.5,39z M80.8,14.6h0.7c1.7,0,3.1,0.3,2.7,2.9c-0.4,2.5-2,2.8-3.6,2.8h-0.7L80.8,14.6z"/>
		<path class="st6" d="M110.5,5.5H99.8L82.9,45h10.3L97,34.8h7.4l0.2,4.2h10.3L110.5,5.5z M108.9,23.3c-1.5,1.3-4.5,3.4-5.9,3.4
			l-1,1.4l-1,0.5c0,0-0.2,1.3-0.4,1.5c-0.2,0.2-0.7,0.3-0.8,0.4c-0.1,0.1-0.4,0.3-0.5,0.1c-0.1-0.2-0.3-1,0.1-1.4
			c0.4-0.4,0.9-0.6,0.9-0.6s0.9-2.2,1.1-2.3c0,0-1.4-0.1-1.9-0.6c-0.5-0.5-1.8-1.7-2.2-2.7c-0.4-0.9-1.1-2.9-1.1-2.9
			s2.2,2.5,4.4,2.2c0,0,0.6,0.8,1.3,1c0.6,0.3,1,0.8,1.1,1c0,0,1.3-1.4,1.5-1.6c0.2-0.2,0.6-0.6,0.8-0.1c0.2,0.5-0.2,0.8-0.4,0.8
			c0,0-0.5,0.9-0.1,0.8c0.4-0.1,0.9-0.4,1.1-0.5c0.2-0.1,1.3-1.4,1.8-1.8c0.6-0.3,3.6-3.1,3.7-3C111.4,19.4,111.1,21.3,108.9,23.3z"
			/>
		<polygon class="st6" points="113.4,39 123.2,39 128.4,5.5 118.6,5.5 		"/>
		<path class="st6" d="M125.2,39h9.2l1.6-10.8h0.2l2.5,10.8h10.8l-4-10.9c-0.4-1-0.9-1.5-1.3-2l0-0.3c3.7-1.5,5.6-3.6,6.3-8.7
			c1.3-8.4-3.2-11.6-9-11.6h-11.3L125.2,39z M138.1,14.6h0.7c1.6,0,3,0.3,2.6,2.9c-0.4,2.5-2,2.8-3.5,2.8h-0.7L138.1,14.6z"/>
		<g>
			<path class="st7" d="M0,49.4V44h1l1.2,3.8c0.1,0.4,0.2,0.6,0.2,0.8c0.1-0.2,0.1-0.5,0.3-0.9L4,44h0.9v5.4H4.2v-4.5l-1.5,4.5H2.1
				l-1.5-4.6v4.6H0z"/>
			<path class="st7" d="M5.8,46.8c0-0.9,0.2-1.6,0.7-2.1c0.5-0.5,1-0.8,1.8-0.8c0.5,0,0.9,0.1,1.3,0.4c0.4,0.2,0.7,0.6,0.9,1
				c0.2,0.4,0.3,0.9,0.3,1.4c0,0.5-0.1,1-0.3,1.5c-0.2,0.4-0.5,0.8-0.9,1c-0.4,0.2-0.8,0.3-1.2,0.3c-0.5,0-0.9-0.1-1.3-0.4
				c-0.4-0.2-0.7-0.6-0.9-1C5.9,47.7,5.8,47.2,5.8,46.8z M6.5,46.8c0,0.6,0.2,1.2,0.5,1.5c0.3,0.4,0.7,0.6,1.2,0.6
				c0.5,0,0.9-0.2,1.3-0.6c0.3-0.4,0.5-0.9,0.5-1.6c0-0.4-0.1-0.8-0.2-1.1c-0.1-0.3-0.3-0.6-0.6-0.8c-0.3-0.2-0.6-0.3-0.9-0.3
				c-0.5,0-0.9,0.2-1.2,0.5C6.6,45.4,6.5,46,6.5,46.8z"/>
			<polygon class="st7" points="11.5,49.4 11.5,44 12.2,44 14.9,48.2 14.9,44 15.5,44 15.5,49.4 14.9,49.4 12.2,45.1 12.2,49.4 			
				"/>
			<polygon class="st7" points="18,49.4 18,44.6 16.3,44.6 16.3,44 20.4,44 20.4,44.6 18.7,44.6 18.7,49.4 			"/>
			<polygon class="st7" points="21.1,49.4 21.1,44 24.8,44 24.8,44.6 21.7,44.6 21.7,46.3 24.6,46.3 24.6,46.9 21.7,46.9 21.7,48.7 
				24.9,48.7 24.9,49.4 			"/>
			<polygon class="st7" points="25.8,49.4 25.8,44 26.5,44 26.5,48.7 29,48.7 29,49.4 			"/>
			<path class="st7" d="M33.1,44h0.7v3.1c0,0.5-0.1,1-0.2,1.3c-0.1,0.3-0.3,0.6-0.6,0.8c-0.3,0.2-0.7,0.3-1.2,0.3
				c-0.5,0-0.9-0.1-1.2-0.3c-0.3-0.2-0.5-0.4-0.7-0.8c-0.1-0.3-0.2-0.8-0.2-1.4V44h0.7v3.1c0,0.5,0,0.8,0.1,1
				c0.1,0.2,0.2,0.4,0.4,0.5c0.2,0.1,0.4,0.2,0.7,0.2c0.5,0,0.9-0.1,1.1-0.4c0.2-0.2,0.3-0.7,0.3-1.4V44z"/>
			<polygon class="st7" points="34.9,49.4 34.9,44 35.6,44 35.6,46.7 38.1,44 39.1,44 36.9,46.2 39.1,49.4 38.3,49.4 36.4,46.7 
				35.6,47.5 35.6,49.4 			"/>
			<path class="st7" d="M39.1,49.4l2-5.4h0.7l2.1,5.4h-0.8l-0.6-1.6h-2.1l-0.6,1.6H39.1z M40.6,47.2h1.7l-0.5-1.5
				c-0.2-0.5-0.3-0.8-0.4-1.1c-0.1,0.3-0.2,0.7-0.3,1L40.6,47.2z"/>
			<path class="st7" d="M44.2,47.6l0.6-0.1c0,0.3,0.1,0.5,0.2,0.7c0.1,0.2,0.3,0.3,0.5,0.4c0.2,0.1,0.5,0.2,0.8,0.2
				c0.3,0,0.5,0,0.7-0.1c0.2-0.1,0.3-0.2,0.4-0.3c0.1-0.1,0.1-0.3,0.1-0.5c0-0.2,0-0.3-0.1-0.4c-0.1-0.1-0.2-0.2-0.5-0.3
				c-0.1-0.1-0.4-0.1-0.9-0.3c-0.5-0.1-0.8-0.2-1-0.3c-0.2-0.1-0.4-0.3-0.5-0.5c-0.1-0.2-0.2-0.4-0.2-0.7c0-0.3,0.1-0.5,0.2-0.8
				c0.1-0.2,0.4-0.4,0.6-0.5c0.3-0.1,0.6-0.2,0.9-0.2c0.4,0,0.7,0.1,1,0.2c0.3,0.1,0.5,0.3,0.7,0.6c0.2,0.2,0.2,0.5,0.3,0.8
				l-0.6,0.1c0-0.3-0.2-0.6-0.4-0.8c-0.2-0.2-0.5-0.3-0.9-0.3c-0.4,0-0.7,0.1-0.9,0.2c-0.2,0.2-0.3,0.3-0.3,0.6
				c0,0.2,0.1,0.4,0.2,0.5c0.1,0.1,0.5,0.3,1,0.4c0.6,0.1,0.9,0.2,1.1,0.3c0.3,0.1,0.5,0.3,0.7,0.6c0.1,0.2,0.2,0.5,0.2,0.8
				c0,0.3-0.1,0.6-0.2,0.8c-0.2,0.3-0.4,0.4-0.7,0.6c-0.3,0.1-0.6,0.2-1,0.2c-0.5,0-0.9-0.1-1.2-0.2c-0.3-0.1-0.6-0.4-0.7-0.6
				C44.3,48.3,44.3,48,44.2,47.6z"/>
			<polygon class="st7" points="50.5,49.4 50.5,44.6 48.9,44.6 48.9,44 52.9,44 52.9,44.6 51.2,44.6 51.2,49.4 			"/>
			<path class="st7" d="M55.3,48l0.7-0.1c0,0.3,0.2,0.6,0.3,0.8c0.2,0.2,0.4,0.3,0.6,0.3c0.3,0,0.6-0.1,0.8-0.4
				c0.2-0.2,0.3-0.6,0.3-1c0-0.4-0.1-0.7-0.3-0.9c-0.2-0.2-0.5-0.3-0.8-0.3c-0.2,0-0.4,0-0.5,0.1c-0.2,0.1-0.3,0.2-0.4,0.4l-0.6-0.1
				l0.5-2.8h2.5v0.6h-2l-0.3,1.4c0.3-0.2,0.6-0.3,1-0.3c0.4,0,0.8,0.2,1.1,0.5s0.5,0.7,0.5,1.3c0,0.5-0.1,0.9-0.4,1.3
				c-0.3,0.4-0.8,0.7-1.3,0.7c-0.5,0-0.8-0.1-1.1-0.4C55.5,48.8,55.4,48.4,55.3,48z"/>
			<rect x="59.2" y="47.1" class="st7" width="1.9" height="0.7"/>
			<path class="st7" d="M64,49.4h-0.6v-4.2c-0.2,0.2-0.4,0.3-0.6,0.5c-0.2,0.2-0.5,0.3-0.7,0.3v-0.6c0.4-0.2,0.7-0.4,0.9-0.6
				c0.3-0.2,0.4-0.5,0.6-0.7H64V49.4z"/>
			<path class="st7" d="M65.7,46.7c0-0.6,0.1-1.1,0.2-1.5c0.1-0.4,0.3-0.7,0.6-0.9c0.2-0.2,0.6-0.3,0.9-0.3c0.3,0,0.5,0.1,0.7,0.2
				c0.2,0.1,0.4,0.3,0.5,0.5c0.1,0.2,0.2,0.5,0.3,0.8c0.1,0.3,0.1,0.7,0.1,1.3c0,0.6-0.1,1.1-0.2,1.5c-0.1,0.4-0.3,0.7-0.6,0.9
				c-0.2,0.2-0.6,0.3-0.9,0.3c-0.5,0-0.9-0.2-1.2-0.6C65.8,48.5,65.7,47.7,65.7,46.7z M66.3,46.7c0,0.9,0.1,1.5,0.3,1.8
				c0.2,0.3,0.4,0.4,0.7,0.4c0.3,0,0.5-0.1,0.7-0.4c0.2-0.3,0.3-0.9,0.3-1.8c0-0.9-0.1-1.5-0.3-1.8c-0.2-0.3-0.4-0.4-0.7-0.4
				c-0.3,0-0.5,0.1-0.7,0.4C66.4,45.2,66.3,45.8,66.3,46.7z"/>
			<path class="st7" d="M71.8,49.4v-3.9h0.6V46c0.1-0.2,0.3-0.3,0.5-0.5c0.2-0.1,0.4-0.2,0.7-0.2c0.3,0,0.5,0.1,0.7,0.2
				c0.2,0.1,0.3,0.3,0.4,0.5c0.3-0.5,0.7-0.7,1.1-0.7c0.4,0,0.6,0.1,0.8,0.3c0.2,0.2,0.3,0.5,0.3,1v2.7h-0.6v-2.5
				c0-0.3,0-0.5-0.1-0.6c0-0.1-0.1-0.2-0.2-0.3C75.8,46,75.7,46,75.5,46c-0.3,0-0.5,0.1-0.6,0.3c-0.2,0.2-0.3,0.5-0.3,0.9v2.3H74
				v-2.5c0-0.3-0.1-0.5-0.2-0.7C73.7,46,73.6,46,73.3,46c-0.2,0-0.3,0-0.5,0.1c-0.1,0.1-0.3,0.2-0.3,0.4c-0.1,0.2-0.1,0.5-0.1,0.8v2
				H71.8z"/>
			<path class="st7" d="M77.6,49.7l0.6,0.1c0,0.2,0.1,0.3,0.2,0.4c0.2,0.1,0.4,0.2,0.6,0.2c0.3,0,0.5-0.1,0.7-0.2
				c0.2-0.1,0.3-0.3,0.3-0.5c0-0.1,0-0.4,0-0.8c-0.3,0.3-0.6,0.5-1,0.5c-0.5,0-0.9-0.2-1.2-0.6c-0.3-0.4-0.4-0.9-0.4-1.4
				c0-0.4,0.1-0.7,0.2-1c0.1-0.3,0.3-0.6,0.6-0.7c0.2-0.2,0.5-0.3,0.9-0.3c0.4,0,0.8,0.2,1.1,0.6v-0.5h0.6v3.4c0,0.6-0.1,1-0.2,1.3
				c-0.1,0.3-0.3,0.5-0.6,0.6c-0.3,0.1-0.6,0.2-0.9,0.2c-0.4,0-0.8-0.1-1.1-0.3C77.7,50.4,77.6,50.1,77.6,49.7z M78.1,47.4
				c0,0.5,0.1,0.9,0.3,1.1c0.2,0.2,0.4,0.4,0.7,0.4c0.3,0,0.5-0.1,0.7-0.3c0.2-0.2,0.3-0.6,0.3-1.1c0-0.5-0.1-0.8-0.3-1.1
				c-0.2-0.2-0.4-0.4-0.7-0.4c-0.3,0-0.5,0.1-0.7,0.4C78.2,46.5,78.1,46.9,78.1,47.4z"/>
		</g>
	</g>
</g>
</svg>
