<?xml version="1.0" encoding="utf-8"?>
<!-- Generator: Adobe Illustrator 22.0.0, SVG Export Plug-In . SVG Version: 6.00 Build 0)  -->
<svg version="1.1" id="Capa_1" xmlns="http://www.w3.org/2000/svg" xmlns:xlink="http://www.w3.org/1999/xlink" x="0px" y="0px"
	 viewBox="0 0 771.7 362.3" style="enable-background:new 0 0 771.7 362.3;" xml:space="preserve">
<style type="text/css">
	.st0{fill:none;stroke:#CFD8DC;stroke-width:1.2256;stroke-linecap:round;stroke-linejoin:round;stroke-miterlimit:10;}
	.st1{fill:none;stroke:#12FBF4;stroke-width:0.6128;stroke-miterlimit:10;}
	.st2{fill:#FFFFFF;stroke:#12FBF4;stroke-width:0.6128;stroke-miterlimit:10;}
	.st3{fill:#7D7F7F;}
	.st4{fill:#455A64;}
	.st5{fill:none;stroke:#1556F8;stroke-width:0.6128;stroke-miterlimit:10;}
	.st6{fill:#FFFFFF;stroke:#1556F8;stroke-width:0.6128;stroke-miterlimit:10;}
	.st7{fill:#FFFFFF;stroke:#16A6F6;stroke-width:0.4702;stroke-miterlimit:10;}
	.st8{fill:none;stroke:#16A6F6;stroke-width:0.6128;stroke-miterlimit:10;}
	.st9{fill:url(#SVGID_1_);}
	.st10{fill:#FFFFFF;stroke:#16A6F6;stroke-width:1.4666;stroke-miterlimit:10;}
	.st11{fill:#FFFFFF;stroke:#1556F8;stroke-width:1.4666;stroke-miterlimit:10;}
	.st12{fill:#FFFFFF;stroke:#12FBF4;stroke-width:1.4666;stroke-miterlimit:10;}
</style>
<g>
	<g>
		<rect x="107" y="13.2" class="st0" width="379.5" height="272.4"/>
		<line class="st0" x1="107" y1="54.8" x2="486.4" y2="54.8"/>
		<line class="st0" x1="107" y1="94.4" x2="486.4" y2="94.4"/>
		<line class="st0" x1="107" y1="133.9" x2="486.4" y2="133.9"/>
		<line class="st0" x1="107" y1="173.4" x2="486.4" y2="173.4"/>
		<line class="st0" x1="107" y1="212.9" x2="486.4" y2="212.9"/>
		<line class="st0" x1="107" y1="252.4" x2="486.4" y2="252.4"/>
	</g>
	<g>
		<polyline class="st1" points="111.6,252.4 138,228.9 145.8,227 153.9,230.5 170.2,229.2 180.7,231.6 201.5,229.3 215.2,205.1 
			229.7,198.6 239.7,203.4 255,207.4 269.8,216.4 291.5,218.2 309.9,246.4 322.4,248.1 336.1,243.4 356.7,210.9 362.5,179 
			369.6,92.4 377.2,66.6 391.4,161.4 399,178.7 406.1,186.4 419.6,181.3 436.5,188.9 450.1,202.7 458.9,201.2 482.4,240.7 		"/>
		<g>
			<polygon class="st2" points="111.3,249.7 109.5,252.8 113.1,252.8 			"/>
			<polygon class="st2" points="118.6,244 116.8,247.1 120.3,247.1 			"/>
			<polygon class="st2" points="128.3,235 126.6,238 130.1,238 			"/>
			<polygon class="st2" points="137,227.6 135.2,230.7 138.7,230.7 			"/>
			<polygon class="st2" points="145.5,225.1 143.7,228.2 147.2,228.2 			"/>
			<polygon class="st2" points="153.9,228.8 152.1,231.8 155.6,231.8 			"/>
			<polygon class="st2" points="161.8,228 160,231.1 163.5,231.1 			"/>
			<polygon class="st2" points="169.8,227.6 168,230.7 171.5,230.7 			"/>
			<polygon class="st2" points="179.9,229.5 178.1,232.6 181.7,232.6 			"/>
			<polygon class="st2" points="186.6,229.2 184.8,232.2 188.4,232.2 			"/>
			<polygon class="st2" points="194.2,228 192.4,231.1 196,231.1 			"/>
			<polygon class="st2" points="201.4,227.3 199.6,230.3 203.2,230.3 			"/>
		</g>
		<polygon class="st2" points="241.6,203.2 239.8,206.3 243.3,206.3 		"/>
		<polygon class="st2" points="256.4,206.6 254.6,209.7 258.2,209.7 		"/>
		<polygon class="st2" points="269.6,215.1 267.9,218.1 271.4,218.1 		"/>
		<polygon class="st2" points="291.3,216.6 289.5,219.7 293,219.7 		"/>
		<polygon class="st2" points="304.1,236.5 302.3,239.6 305.9,239.6 		"/>
		<polygon class="st2" points="309.9,244 308.1,247.1 311.7,247.1 		"/>
		<polygon class="st2" points="323,246.5 321.2,249.6 324.7,249.6 		"/>
		<polygon class="st2" points="328.9,243.5 327.1,246.5 330.7,246.5 		"/>
		<polygon class="st2" points="335.3,241.2 333.6,244.2 337.1,244.2 		"/>
		<polygon class="st2" points="340.8,233.9 339,236.9 342.5,236.9 		"/>
		<polygon class="st2" points="347.7,223 345.9,226 349.5,226 		"/>
		<polygon class="st2" points="361.2,183.3 359.5,186.4 363,186.4 		"/>
		<polygon class="st2" points="391.8,158.8 390.1,161.8 393.6,161.8 		"/>
		<polygon class="st2" points="384.3,112.3 382.6,115.4 386.1,115.4 		"/>
		<polygon class="st2" points="369.4,90.8 367.7,93.9 371.2,93.9 		"/>
		<polygon class="st2" points="377.1,64 375.3,67 378.9,67 		"/>
		<polygon class="st2" points="398.6,176.6 396.9,179.6 400.4,179.6 		"/>
		<polygon class="st2" points="405.9,184.8 404.2,187.9 407.7,187.9 		"/>
		<polygon class="st2" points="419.6,179.6 417.8,182.7 421.3,182.7 		"/>
		<polygon class="st2" points="443.2,193 441.5,196 445,196 		"/>
		<polygon class="st2" points="450.3,200.5 448.6,203.5 452.1,203.5 		"/>
		<polygon class="st2" points="458.4,199.1 456.7,202.2 460.2,202.2 		"/>
		<polygon class="st2" points="466,211.6 464.3,214.7 467.8,214.7 		"/>
		<polygon class="st2" points="472.7,223 471,226 474.5,226 		"/>
		<polygon class="st2" points="482,238.2 480.2,241.3 483.7,241.3 		"/>
		<polygon class="st2" points="436.3,187.1 434.6,190.1 438.1,190.1 		"/>
		<polygon class="st2" points="428.8,183.3 427,186.4 430.5,186.4 		"/>
	</g>
	<g>
		<path class="st3" d="M59.4,18.2c0,0.6-0.2,1.2-0.6,1.6s-0.9,0.8-1.7,1v0c1.7,0.2,2.5,1,2.5,2.4c0,0.9-0.4,1.7-1.1,2.2
			c-0.7,0.5-1.8,0.8-3.1,0.8c-0.5,0-1,0-1.5-0.1s-1-0.2-1.5-0.4v-2.3c0.4,0.2,0.9,0.4,1.3,0.5c0.5,0.1,0.9,0.2,1.3,0.2
			c0.6,0,1-0.1,1.3-0.3c0.3-0.2,0.4-0.4,0.4-0.8c0-0.3-0.1-0.5-0.2-0.6c-0.1-0.1-0.4-0.3-0.7-0.3c-0.3-0.1-0.7-0.1-1.2-0.1H54v-2
			h0.6c1.4,0,2.1-0.4,2.1-1.1c0-0.3-0.1-0.5-0.3-0.6c-0.2-0.1-0.5-0.2-0.8-0.2c-0.6,0-1.3,0.2-2,0.6l-1.1-1.8
			c0.5-0.4,1.1-0.6,1.6-0.8c0.6-0.2,1.2-0.2,1.9-0.2c1,0,1.9,0.2,2.5,0.6S59.4,17.5,59.4,18.2z"/>
		<path class="st3" d="M60.8,24.9c0-0.4,0.1-0.7,0.4-1c0.2-0.2,0.6-0.3,1.1-0.3c0.5,0,0.8,0.1,1,0.3c0.2,0.2,0.4,0.6,0.4,1
			c0,0.4-0.1,0.7-0.4,1s-0.6,0.3-1,0.3c-0.5,0-0.8-0.1-1.1-0.3S60.8,25.3,60.8,24.9z"/>
		<path class="st3" d="M68.9,19.5c0.6,0,1.1,0.1,1.6,0.4s0.8,0.6,1.1,1.1c0.3,0.5,0.4,1.1,0.4,1.7c0,1.1-0.3,2-1,2.6
			c-0.7,0.6-1.7,0.9-3.1,0.9c-1.2,0-2.1-0.2-2.9-0.5v-2.2c0.4,0.2,0.9,0.3,1.4,0.5c0.5,0.1,0.9,0.2,1.3,0.2c0.5,0,0.9-0.1,1.2-0.3
			c0.3-0.2,0.4-0.5,0.4-0.9c0-0.4-0.1-0.7-0.4-0.9s-0.7-0.3-1.3-0.3c-0.4,0-0.9,0.1-1.4,0.2l-1-0.5l0.4-5.3h5.7v2.3h-3.4l-0.1,1.3
			c0.4-0.1,0.6-0.1,0.8-0.1S68.7,19.5,68.9,19.5z"/>
	</g>
	<g>
		<path class="st3" d="M59.7,98.2h-7.3v-1.8l2.5-2.5c0.7-0.7,1.2-1.2,1.4-1.5s0.4-0.5,0.5-0.7c0.1-0.2,0.1-0.4,0.1-0.6
			c0-0.3-0.1-0.5-0.3-0.6c-0.2-0.2-0.4-0.2-0.7-0.2c-0.3,0-0.6,0.1-1,0.3c-0.3,0.2-0.7,0.4-1.1,0.8l-1.5-1.7c0.5-0.5,1-0.8,1.3-1
			c0.4-0.2,0.7-0.4,1.2-0.5c0.4-0.1,0.9-0.2,1.4-0.2c0.7,0,1.2,0.1,1.7,0.3s0.9,0.6,1.2,1c0.3,0.4,0.4,0.9,0.4,1.4
			c0,0.4,0,0.8-0.1,1.1s-0.3,0.7-0.5,1c-0.2,0.3-0.5,0.7-0.8,1s-1.1,1-2.2,2v0.1h3.8V98.2z"/>
		<path class="st3" d="M60.8,97c0-0.4,0.1-0.7,0.4-1c0.2-0.2,0.6-0.3,1.1-0.3c0.5,0,0.8,0.1,1,0.3c0.2,0.2,0.4,0.6,0.4,1
			c0,0.4-0.1,0.7-0.4,1s-0.6,0.3-1,0.3c-0.5,0-0.8-0.1-1.1-0.3S60.8,97.5,60.8,97z"/>
		<path class="st3" d="M68.9,91.6c0.6,0,1.1,0.1,1.6,0.4s0.8,0.6,1.1,1.1c0.3,0.5,0.4,1.1,0.4,1.7c0,1.1-0.3,2-1,2.6
			c-0.7,0.6-1.7,0.9-3.1,0.9c-1.2,0-2.1-0.2-2.9-0.5v-2.2c0.4,0.2,0.9,0.3,1.4,0.5c0.5,0.1,0.9,0.2,1.3,0.2c0.5,0,0.9-0.1,1.2-0.3
			c0.3-0.2,0.4-0.5,0.4-0.9c0-0.4-0.1-0.7-0.4-0.9s-0.7-0.3-1.3-0.3c-0.4,0-0.9,0.1-1.4,0.2l-1-0.5l0.4-5.3h5.7v2.3h-3.4l-0.1,1.3
			c0.4-0.1,0.6-0.1,0.8-0.1S68.7,91.6,68.9,91.6z"/>
	</g>
	<g>
		<path class="st3" d="M58.5,175.8h-2.8v-5.3c0-0.6,0-1.2,0-1.8c-0.2,0.2-0.4,0.4-0.6,0.6l-1.1,0.9l-1.4-1.7l3.5-2.8h2.5V175.8z"/>
		<path class="st3" d="M60.8,174.7c0-0.4,0.1-0.7,0.4-1c0.2-0.2,0.6-0.3,1.1-0.3c0.5,0,0.8,0.1,1,0.3c0.2,0.2,0.4,0.6,0.4,1
			c0,0.4-0.1,0.7-0.4,1s-0.6,0.3-1,0.3c-0.5,0-0.8-0.1-1.1-0.3S60.8,175.1,60.8,174.7z"/>
		<path class="st3" d="M68.9,169.2c0.6,0,1.1,0.1,1.6,0.4s0.8,0.6,1.1,1.1c0.3,0.5,0.4,1.1,0.4,1.7c0,1.1-0.3,2-1,2.6
			c-0.7,0.6-1.7,0.9-3.1,0.9c-1.2,0-2.1-0.2-2.9-0.5v-2.2c0.4,0.2,0.9,0.3,1.4,0.5c0.5,0.1,0.9,0.2,1.3,0.2c0.5,0,0.9-0.1,1.2-0.3
			c0.3-0.2,0.4-0.5,0.4-0.9c0-0.4-0.1-0.7-0.4-0.9s-0.7-0.3-1.3-0.3c-0.4,0-0.9,0.1-1.4,0.2l-1-0.5l0.4-5.3h5.7v2.3h-3.4l-0.1,1.3
			c0.4-0.1,0.6-0.1,0.8-0.1S68.7,169.2,68.9,169.2z"/>
	</g>
	<g>
		<path class="st3" d="M59.7,249.6c0,1.8-0.3,3.1-0.9,3.9c-0.6,0.8-1.5,1.2-2.7,1.2c-1.2,0-2.1-0.4-2.7-1.3
			c-0.6-0.9-0.9-2.2-0.9-3.9c0-1.8,0.3-3.1,0.9-3.9c0.6-0.8,1.5-1.3,2.7-1.3c1.2,0,2.1,0.4,2.7,1.3
			C59.4,246.6,59.7,247.9,59.7,249.6z M55.2,249.6c0,1.1,0.1,1.9,0.2,2.3c0.1,0.4,0.4,0.6,0.7,0.6c0.3,0,0.6-0.2,0.7-0.7
			s0.2-1.2,0.2-2.3c0-1.1-0.1-1.9-0.2-2.3c-0.1-0.4-0.4-0.7-0.7-0.7s-0.6,0.2-0.7,0.6C55.2,247.7,55.2,248.5,55.2,249.6z"/>
		<path class="st3" d="M60.8,253.5c0-0.4,0.1-0.7,0.4-1c0.2-0.2,0.6-0.3,1.1-0.3c0.5,0,0.8,0.1,1,0.3c0.2,0.2,0.4,0.6,0.4,1
			c0,0.4-0.1,0.7-0.4,1s-0.6,0.3-1,0.3c-0.5,0-0.8-0.1-1.1-0.3S60.8,253.9,60.8,253.5z"/>
		<path class="st3" d="M68.9,248.1c0.6,0,1.1,0.1,1.6,0.4s0.8,0.6,1.1,1.1c0.3,0.5,0.4,1.1,0.4,1.7c0,1.1-0.3,2-1,2.6
			c-0.7,0.6-1.7,0.9-3.1,0.9c-1.2,0-2.1-0.2-2.9-0.5V252c0.4,0.2,0.9,0.3,1.4,0.5c0.5,0.1,0.9,0.2,1.3,0.2c0.5,0,0.9-0.1,1.2-0.3
			c0.3-0.2,0.4-0.5,0.4-0.9c0-0.4-0.1-0.7-0.4-0.9s-0.7-0.3-1.3-0.3c-0.4,0-0.9,0.1-1.4,0.2l-1-0.5l0.4-5.3h5.7v2.3h-3.4l-0.1,1.3
			c0.4-0.1,0.6-0.1,0.8-0.1S68.7,248.1,68.9,248.1z"/>
	</g>
	<g>
		<path class="st3" d="M110.7,306.4c-0.5,0-1,0-1.4-0.1v-2.1c0.1,0,0.3,0.1,0.5,0.1c0.2,0,0.3,0.1,0.5,0.1c0.5,0,0.8-0.1,1-0.4
			c0.2-0.3,0.3-0.7,0.3-1.4v-9.3h2.7v9.1c0,1.4-0.3,2.4-0.9,3.1C112.8,306.1,111.9,306.4,110.7,306.4z"/>
		<path class="st3" d="M121.4,303.3l-0.5-1h-0.1c-0.4,0.4-0.7,0.8-1.1,0.9s-0.9,0.2-1.5,0.2c-0.7,0-1.3-0.2-1.7-0.7
			s-0.6-1.1-0.6-1.9c0-0.8,0.3-1.4,0.9-1.9c0.6-0.4,1.4-0.6,2.5-0.7l1.3,0v-0.1c0-0.6-0.3-1-1-1c-0.6,0-1.3,0.2-2.2,0.6l-0.8-1.8
			c0.9-0.5,2.1-0.7,3.4-0.7c1,0,1.8,0.2,2.3,0.7c0.5,0.5,0.8,1.2,0.8,2.1v5.1H121.4z M119.4,301.5c0.3,0,0.6-0.1,0.8-0.3
			c0.2-0.2,0.3-0.5,0.3-0.8v-0.6l-0.6,0c-0.9,0-1.3,0.4-1.3,1C118.6,301.3,118.9,301.5,119.4,301.5z"/>
		<path class="st3" d="M130,303.3V299c0-0.5-0.1-0.9-0.2-1.2c-0.1-0.3-0.4-0.4-0.7-0.4c-0.5,0-0.8,0.2-1,0.5s-0.3,1-0.3,1.9v3.4
			h-2.7v-7.8h2l0.3,1h0.2c0.2-0.4,0.5-0.6,1-0.8s0.9-0.3,1.4-0.3c0.9,0,1.5,0.2,2,0.8c0.5,0.5,0.7,1.2,0.7,2.1v5.1H130z"/>
	</g>
	<g>
		<path class="st3" d="M147.8,303.3h-2.7v-10.1h5.9v2.2h-3.3v1.9h3v2.2h-3V303.3z"/>
		<path class="st3" d="M156.3,303.4c-1.3,0-2.3-0.3-3-1s-1.1-1.7-1.1-2.9c0-1.3,0.3-2.3,1-3s1.6-1.1,2.8-1.1c1.2,0,2.1,0.3,2.7,0.9
			c0.6,0.6,1,1.5,1,2.6v1.2h-4.8c0,0.4,0.2,0.8,0.5,1c0.3,0.2,0.7,0.4,1.2,0.4c0.5,0,0.9,0,1.3-0.1c0.4-0.1,0.8-0.2,1.3-0.5v1.9
			c-0.4,0.2-0.9,0.4-1.3,0.4C157.5,303.4,156.9,303.4,156.3,303.4z M156.1,297.2c-0.3,0-0.6,0.1-0.8,0.3c-0.2,0.2-0.3,0.5-0.4,0.9
			h2.3c0-0.4-0.1-0.7-0.3-0.9S156.5,297.2,156.1,297.2z"/>
		<path class="st3" d="M166,295.3c0.8,0,1.5,0.4,2,1.1c0.5,0.7,0.7,1.7,0.7,3c0,1.3-0.3,2.3-0.8,3c-0.5,0.7-1.2,1.1-2.1,1.1
			c-0.3,0-0.5,0-0.8-0.1c-0.2-0.1-0.4-0.1-0.6-0.3c-0.2-0.1-0.4-0.3-0.6-0.6h-0.2l-0.4,0.8h-2.1v-10.7h2.7v2.4c0,0.3,0,0.8-0.1,1.5
			h0.1c0.3-0.4,0.6-0.7,0.9-0.9S165.6,295.3,166,295.3z M165,297.4c-0.4,0-0.7,0.1-0.8,0.4c-0.2,0.3-0.3,0.7-0.3,1.2v0.4
			c0,0.6,0.1,1.1,0.3,1.4c0.2,0.3,0.5,0.4,0.9,0.4c0.3,0,0.6-0.2,0.7-0.5c0.2-0.3,0.3-0.8,0.3-1.4C166,298.1,165.7,297.4,165,297.4z
			"/>
	</g>
	<g>
		<path class="st3" d="M183.6,303.3l-2.1-7.2h-0.1c0.1,1.2,0.1,2.2,0.1,2.9v4.4h-2.4v-10.1h3.6l2.1,7.1h0.1l2.1-7.1h3.6v10.1h-2.5
			v-4.4c0-0.2,0-0.5,0-0.8c0-0.3,0-1,0.1-2.1h-0.1l-2,7.2H183.6z"/>
		<path class="st3" d="M197.8,303.3l-0.5-1h-0.1c-0.4,0.4-0.7,0.8-1.1,0.9s-0.9,0.2-1.5,0.2c-0.7,0-1.3-0.2-1.7-0.7
			s-0.6-1.1-0.6-1.9c0-0.8,0.3-1.4,0.9-1.9c0.6-0.4,1.4-0.6,2.5-0.7l1.3,0v-0.1c0-0.6-0.3-1-1-1c-0.6,0-1.3,0.2-2.2,0.6l-0.8-1.8
			c0.9-0.5,2.1-0.7,3.4-0.7c1,0,1.8,0.2,2.3,0.7c0.5,0.5,0.8,1.2,0.8,2.1v5.1H197.8z M195.8,301.5c0.3,0,0.6-0.1,0.8-0.3
			c0.2-0.2,0.3-0.5,0.3-0.8v-0.6l-0.6,0c-0.9,0-1.3,0.4-1.3,1C195,301.3,195.3,301.5,195.8,301.5z"/>
		<path class="st3" d="M206.2,295.3c0.2,0,0.5,0,0.7,0.1l0.2,0l-0.2,2.5c-0.2-0.1-0.5-0.1-0.9-0.1c-0.6,0-1,0.1-1.3,0.4
			c-0.3,0.3-0.4,0.7-0.4,1.2v3.8h-2.7v-7.8h2l0.4,1.2h0.1c0.2-0.4,0.5-0.7,0.9-1C205.4,295.5,205.8,295.3,206.2,295.3z"/>
	</g>
	<g>
		<path class="st3" d="M221.9,303.3l-0.5-1.9h-3.3l-0.5,1.9h-3l3.3-10.1h3.6l3.3,10.1H221.9z M220.8,299.2l-0.4-1.7
			c-0.1-0.4-0.2-0.8-0.4-1.4c-0.1-0.6-0.2-1-0.3-1.3c0,0.2-0.1,0.6-0.2,1.2c-0.1,0.5-0.4,1.6-0.8,3.2H220.8z"/>
		<path class="st3" d="M230.5,303.4c-0.4,0-0.7-0.1-1.1-0.2c-0.3-0.1-0.6-0.4-0.9-0.7h-0.1c0.1,0.5,0.1,0.9,0.1,1v3.1h-2.7v-11.2
			h2.2l0.4,1h0.1c0.5-0.8,1.2-1.1,2.1-1.1c0.9,0,1.5,0.4,2,1.1s0.7,1.7,0.7,2.9c0,1.3-0.3,2.2-0.8,3
			C232,303,231.4,303.4,230.5,303.4z M229.6,297.4c-0.4,0-0.7,0.1-0.8,0.4s-0.2,0.7-0.3,1.3v0.2c0,0.7,0.1,1.2,0.3,1.5
			s0.5,0.4,0.8,0.4c0.3,0,0.6-0.1,0.8-0.4c0.2-0.3,0.2-0.8,0.2-1.5c0-0.7-0.1-1.2-0.2-1.4C230.2,297.6,229.9,297.4,229.6,297.4z"/>
		<path class="st3" d="M239.6,295.3c0.2,0,0.5,0,0.7,0.1l0.2,0l-0.2,2.5c-0.2-0.1-0.5-0.1-0.9-0.1c-0.6,0-1,0.1-1.3,0.4
			c-0.3,0.3-0.4,0.7-0.4,1.2v3.8h-2.7v-7.8h2l0.4,1.2h0.1c0.2-0.4,0.5-0.7,0.9-1C238.8,295.5,239.2,295.3,239.6,295.3z"/>
	</g>
	<g>
		<path class="st3" d="M254.1,303.3l-2.1-7.2H252c0.1,1.2,0.1,2.2,0.1,2.9v4.4h-2.4v-10.1h3.6l2.1,7.1h0.1l2.1-7.1h3.6v10.1h-2.5
			v-4.4c0-0.2,0-0.5,0-0.8c0-0.3,0-1,0.1-2.1h-0.1l-2,7.2H254.1z"/>
		<path class="st3" d="M268.3,303.3l-0.5-1h-0.1c-0.4,0.4-0.7,0.8-1.1,0.9s-0.9,0.2-1.5,0.2c-0.7,0-1.3-0.2-1.7-0.7
			s-0.6-1.1-0.6-1.9c0-0.8,0.3-1.4,0.9-1.9c0.6-0.4,1.4-0.6,2.5-0.7l1.3,0v-0.1c0-0.6-0.3-1-1-1c-0.6,0-1.3,0.2-2.2,0.6l-0.8-1.8
			c0.9-0.5,2.1-0.7,3.4-0.7c1,0,1.8,0.2,2.3,0.7c0.5,0.5,0.8,1.2,0.8,2.1v5.1H268.3z M266.3,301.5c0.3,0,0.6-0.1,0.8-0.3
			c0.2-0.2,0.3-0.5,0.3-0.8v-0.6l-0.6,0c-0.9,0-1.3,0.4-1.3,1C265.5,301.3,265.8,301.5,266.3,301.5z"/>
		<path class="st3" d="M271,295.5h2.8l1.3,4.5c0.1,0.2,0.1,0.5,0.1,0.8h0.1c0-0.3,0.1-0.6,0.2-0.8l1.4-4.5h2.7l-3.1,8.3
			c-0.4,1.1-0.9,1.8-1.5,2.2c-0.6,0.4-1.3,0.7-2.3,0.7c-0.4,0-0.7,0-1.1-0.1v-2.1c0.2,0.1,0.5,0.1,0.8,0.1c0.2,0,0.4,0,0.6-0.1
			s0.3-0.2,0.5-0.4c0.1-0.2,0.3-0.4,0.4-0.8L271,295.5z"/>
	</g>
	<g>
		<path class="st3" d="M288.6,306.4c-0.5,0-1,0-1.4-0.1v-2.1c0.1,0,0.3,0.1,0.5,0.1c0.2,0,0.3,0.1,0.5,0.1c0.5,0,0.8-0.1,1-0.4
			c0.2-0.3,0.3-0.7,0.3-1.4v-9.3h2.7v9.1c0,1.4-0.3,2.4-0.9,3.1C290.7,306.1,289.8,306.4,288.6,306.4z"/>
		<path class="st3" d="M299.1,303.3V299c0-0.5-0.1-0.9-0.2-1.2c-0.1-0.3-0.4-0.4-0.7-0.4c-0.5,0-0.8,0.2-1,0.5s-0.3,1-0.3,1.9v3.4
			h-2.7v-7.8h2l0.3,1h0.2c0.2-0.4,0.5-0.6,1-0.8s0.9-0.3,1.4-0.3c0.9,0,1.5,0.2,2,0.8c0.5,0.5,0.7,1.2,0.7,2.1v5.1H299.1z"/>
	</g>
	<g>
		<path class="st3" d="M312.2,306.4c-0.5,0-1,0-1.4-0.1v-2.1c0.1,0,0.3,0.1,0.5,0.1c0.2,0,0.3,0.1,0.5,0.1c0.5,0,0.8-0.1,1-0.4
			c0.2-0.3,0.3-0.7,0.3-1.4v-9.3h2.7v9.1c0,1.4-0.3,2.4-0.9,3.1C314.3,306.1,313.4,306.4,312.2,306.4z"/>
		<path class="st3" d="M323.4,303.3l-0.3-1h-0.2c-0.2,0.4-0.5,0.6-0.9,0.8c-0.4,0.2-0.9,0.3-1.4,0.3c-0.9,0-1.5-0.2-2-0.7
			c-0.5-0.5-0.7-1.2-0.7-2.1v-5.1h2.7v4.3c0,0.5,0.1,0.9,0.2,1.2c0.1,0.3,0.4,0.4,0.7,0.4c0.5,0,0.8-0.2,1-0.5s0.3-1,0.3-1.8v-3.4
			h2.7v7.8H323.4z"/>
		<path class="st3" d="M329.9,303.3h-2.7v-10.7h2.7V303.3z"/>
	</g>
	<g>
		<path class="st3" d="M416.6,298.2c0,1.7-0.4,3-1.2,3.9c-0.8,0.9-2,1.3-3.6,1.3c-1.6,0-2.8-0.4-3.6-1.3s-1.3-2.2-1.3-3.9
			c0-1.7,0.4-3,1.3-3.8c0.8-0.9,2.1-1.3,3.7-1.3c1.6,0,2.8,0.4,3.6,1.3C416.2,295.2,416.6,296.5,416.6,298.2z M409.7,298.2
			c0,1.9,0.7,2.9,2,2.9c0.7,0,1.2-0.2,1.5-0.7c0.3-0.5,0.5-1.2,0.5-2.2c0-1-0.2-1.7-0.5-2.2c-0.3-0.5-0.8-0.7-1.5-0.7
			C410.4,295.3,409.7,296.3,409.7,298.2z"/>
		<path class="st3" d="M421.8,303.4c-1.3,0-2.2-0.3-2.9-1c-0.7-0.7-1-1.7-1-3c0-1.3,0.4-2.3,1.1-3c0.7-0.7,1.7-1.1,3-1.1
			c0.9,0,1.8,0.2,2.6,0.6l-0.8,2c-0.3-0.1-0.6-0.3-0.9-0.3s-0.6-0.1-0.9-0.1c-0.4,0-0.8,0.2-1,0.5c-0.2,0.3-0.4,0.8-0.4,1.4
			c0,1.2,0.5,1.9,1.4,1.9c0.8,0,1.5-0.2,2.3-0.7v2.1C423.7,303.2,422.8,303.4,421.8,303.4z"/>
		<path class="st3" d="M429.7,301.3c0.4,0,0.8-0.1,1.3-0.3v2c-0.4,0.2-0.7,0.3-1,0.3s-0.7,0.1-1.2,0.1c-0.9,0-1.6-0.2-2-0.7
			s-0.6-1.1-0.6-2v-3.2h-0.9v-1.1l1.2-0.8l0.7-1.6h1.8v1.6h1.9v2H429v3C429,301,429.2,301.3,429.7,301.3z"/>
	</g>
	<g>
		<path class="st3" d="M449.1,303.3h-3.6l-3.7-7.1h-0.1c0.1,1.1,0.1,2,0.1,2.6v4.5h-2.4v-10.1h3.6l3.7,7h0c-0.1-1-0.1-1.8-0.1-2.4
			v-4.5h2.4V303.3z"/>
		<path class="st3" d="M458.6,299.4c0,1.3-0.3,2.3-1,3c-0.7,0.7-1.6,1.1-2.9,1.1c-1.2,0-2.1-0.4-2.8-1.1c-0.7-0.7-1-1.7-1-3
			c0-1.3,0.3-2.3,1-3c0.7-0.7,1.6-1.1,2.9-1.1c0.8,0,1.4,0.2,2,0.5c0.6,0.3,1,0.8,1.4,1.4C458.4,297.8,458.6,298.5,458.6,299.4z
			 M453.5,299.4c0,0.7,0.1,1.2,0.3,1.5s0.5,0.5,0.9,0.5c0.4,0,0.7-0.2,0.9-0.5c0.2-0.4,0.3-0.9,0.3-1.5c0-0.7-0.1-1.2-0.3-1.5
			c-0.2-0.3-0.5-0.5-0.9-0.5c-0.4,0-0.7,0.2-0.9,0.5S453.5,298.7,453.5,299.4z"/>
		<path class="st3" d="M462.1,303.3l-3-7.8h2.8l1.3,4.6c0,0,0,0.1,0,0.1c0,0.1,0,0.1,0,0.2c0,0.1,0,0.2,0,0.2c0,0.1,0,0.2,0,0.2h0
			c0-0.2,0-0.5,0.1-0.8l1.4-4.6h2.8l-3,7.8H462.1z"/>
	</g>
	<g>
		<path class="st3" d="M487.1,298c0,1.7-0.5,3-1.4,3.9c-0.9,0.9-2.2,1.4-3.9,1.4h-3.3v-10.1h3.5c1.6,0,2.9,0.4,3.7,1.2
			C486.7,295.3,487.1,296.5,487.1,298z M484.3,298.1c0-0.9-0.2-1.6-0.5-2.1c-0.4-0.4-0.9-0.7-1.7-0.7h-0.8v5.6h0.6
			c0.8,0,1.4-0.2,1.8-0.7S484.3,299.1,484.3,298.1z"/>
		<path class="st3" d="M492.5,303.4c-1.3,0-2.3-0.3-3-1s-1.1-1.7-1.1-2.9c0-1.3,0.3-2.3,1-3s1.6-1.1,2.8-1.1c1.2,0,2.1,0.3,2.7,0.9
			c0.6,0.6,1,1.5,1,2.6v1.2h-4.8c0,0.4,0.2,0.8,0.5,1c0.3,0.2,0.7,0.4,1.2,0.4c0.5,0,0.9,0,1.3-0.1c0.4-0.1,0.8-0.2,1.3-0.5v1.9
			c-0.4,0.2-0.9,0.4-1.3,0.4C493.7,303.4,493.1,303.4,492.5,303.4z M492.4,297.2c-0.3,0-0.6,0.1-0.8,0.3c-0.2,0.2-0.3,0.5-0.4,0.9
			h2.3c0-0.4-0.1-0.7-0.3-0.9S492.7,297.2,492.4,297.2z"/>
		<path class="st3" d="M501,303.4c-1.3,0-2.2-0.3-2.9-1c-0.7-0.7-1-1.7-1-3c0-1.3,0.4-2.3,1.1-3c0.7-0.7,1.7-1.1,3-1.1
			c0.9,0,1.8,0.2,2.6,0.6l-0.8,2c-0.3-0.1-0.6-0.3-0.9-0.3s-0.6-0.1-0.9-0.1c-0.4,0-0.8,0.2-1,0.5c-0.2,0.3-0.4,0.8-0.4,1.4
			c0,1.2,0.5,1.9,1.4,1.9c0.8,0,1.5-0.2,2.3-0.7v2.1C502.8,303.2,502,303.4,501,303.4z"/>
	</g>
	<g>
		<path class="st3" d="M381.3,300.2c0,0.6-0.2,1.2-0.5,1.7c-0.3,0.5-0.8,0.9-1.4,1.1s-1.3,0.4-2.1,0.4c-0.7,0-1.2,0-1.7-0.1
			c-0.5-0.1-0.9-0.3-1.4-0.5v-2.4c0.5,0.3,1.1,0.5,1.6,0.6c0.6,0.1,1.1,0.2,1.5,0.2c0.4,0,0.7-0.1,0.9-0.2s0.3-0.3,0.3-0.5
			c0-0.1,0-0.3-0.1-0.4c-0.1-0.1-0.2-0.2-0.4-0.3c-0.2-0.1-0.6-0.3-1.3-0.6c-0.7-0.3-1.1-0.6-1.5-0.9c-0.3-0.3-0.6-0.6-0.7-1
			s-0.2-0.8-0.2-1.3c0-0.9,0.3-1.6,1-2.2c0.7-0.5,1.6-0.8,2.8-0.8c1,0,2.1,0.2,3.2,0.7l-0.8,2.1c-0.9-0.4-1.8-0.6-2.4-0.6
			c-0.4,0-0.6,0.1-0.8,0.2c-0.2,0.1-0.2,0.3-0.2,0.5c0,0.2,0.1,0.4,0.3,0.5s0.8,0.4,1.7,0.9c0.9,0.4,1.5,0.8,1.8,1.3
			S381.3,299.5,381.3,300.2z"/>
		<path class="st3" d="M386.5,303.4c-1.3,0-2.3-0.3-3-1s-1.1-1.7-1.1-2.9c0-1.3,0.3-2.3,1-3s1.6-1.1,2.8-1.1c1.2,0,2.1,0.3,2.7,0.9
			c0.6,0.6,1,1.5,1,2.6v1.2h-4.8c0,0.4,0.2,0.8,0.5,1c0.3,0.2,0.7,0.4,1.2,0.4c0.5,0,0.9,0,1.3-0.1c0.4-0.1,0.8-0.2,1.3-0.5v1.9
			c-0.4,0.2-0.9,0.4-1.3,0.4C387.7,303.4,387.1,303.4,386.5,303.4z M386.3,297.2c-0.3,0-0.6,0.1-0.8,0.3c-0.2,0.2-0.3,0.5-0.4,0.9
			h2.3c0-0.4-0.1-0.7-0.3-0.9S386.7,297.2,386.3,297.2z"/>
		<path class="st3" d="M396.1,303.4c-0.4,0-0.7-0.1-1.1-0.2c-0.3-0.1-0.6-0.4-0.9-0.7H394c0.1,0.5,0.1,0.9,0.1,1v3.1h-2.7v-11.2h2.2
			l0.4,1h0.1c0.5-0.8,1.2-1.1,2.1-1.1c0.9,0,1.5,0.4,2,1.1s0.7,1.7,0.7,2.9c0,1.3-0.3,2.2-0.8,3C397.7,303,397,303.4,396.1,303.4z
			 M395.2,297.4c-0.4,0-0.7,0.1-0.8,0.4s-0.2,0.7-0.3,1.3v0.2c0,0.7,0.1,1.2,0.3,1.5s0.5,0.4,0.8,0.4c0.3,0,0.6-0.1,0.8-0.4
			c0.2-0.3,0.2-0.8,0.2-1.5c0-0.7-0.1-1.2-0.2-1.4C395.8,297.6,395.6,297.4,395.2,297.4z"/>
	</g>
	<g>
		<path class="st3" d="M345.9,303.3l-0.5-1.9h-3.3l-0.5,1.9h-3l3.3-10.1h3.6l3.3,10.1H345.9z M344.8,299.2l-0.4-1.7
			c-0.1-0.4-0.2-0.8-0.4-1.4c-0.1-0.6-0.2-1-0.3-1.3c0,0.2-0.1,0.6-0.2,1.2c-0.1,0.5-0.4,1.6-0.8,3.2H344.8z"/>
		<path class="st3" d="M355.3,303.3l-0.3-1h-0.2c-0.2,0.4-0.5,0.6-0.9,0.8c-0.4,0.2-0.9,0.3-1.4,0.3c-0.9,0-1.5-0.2-2-0.7
			c-0.5-0.5-0.7-1.2-0.7-2.1v-5.1h2.7v4.3c0,0.5,0.1,0.9,0.2,1.2c0.1,0.3,0.4,0.4,0.7,0.4c0.5,0,0.8-0.2,1-0.5s0.3-1,0.3-1.8v-3.4
			h2.7v7.8H355.3z"/>
		<path class="st3" d="M366.6,295.5v1.3l-1.1,0.4c0.1,0.3,0.2,0.6,0.2,0.9c0,0.8-0.3,1.5-0.9,2c-0.6,0.5-1.5,0.7-2.6,0.7
			c-0.3,0-0.5,0-0.7-0.1c-0.1,0.1-0.1,0.2-0.1,0.3c0,0.1,0.1,0.2,0.3,0.3s0.5,0.1,0.8,0.1h1.3c1.7,0,2.6,0.7,2.6,2.2
			c0,0.9-0.4,1.7-1.2,2.2s-1.9,0.8-3.4,0.8c-1.1,0-2-0.2-2.6-0.6s-0.9-0.9-0.9-1.6c0-0.9,0.6-1.5,1.7-1.8c-0.2-0.1-0.4-0.3-0.6-0.5
			s-0.3-0.4-0.3-0.7c0-0.2,0.1-0.5,0.2-0.6s0.4-0.4,0.8-0.7c-0.4-0.2-0.7-0.5-1-0.8s-0.3-0.8-0.3-1.4c0-0.8,0.3-1.5,0.9-2
			s1.4-0.7,2.5-0.7c0.1,0,0.4,0,0.7,0s0.6,0.1,0.8,0.1H366.6z M360.7,304.2c0,0.2,0.1,0.4,0.4,0.5c0.2,0.1,0.6,0.2,1,0.2
			c0.7,0,1.2-0.1,1.6-0.2c0.4-0.2,0.6-0.4,0.6-0.6c0-0.2-0.1-0.4-0.4-0.4s-0.6-0.1-1-0.1h-1.1c-0.3,0-0.5,0.1-0.7,0.2
			C360.8,303.9,360.7,304,360.7,304.2z M361.5,298c0,0.8,0.3,1.2,0.8,1.2c0.3,0,0.5-0.1,0.6-0.3c0.1-0.2,0.2-0.5,0.2-0.9
			c0-0.8-0.3-1.2-0.8-1.2C361.8,296.8,361.5,297.2,361.5,298z"/>
	</g>
	<g>
		<g>
			<path class="st4" d="M35.7,212.8l-6.9,2.4v0c1-0.1,2-0.1,2.9-0.1h4v1.2h-8.3v-1.9l6.6-2.3v0l-6.6-2.4v-1.9h8.3v1.3h-4.1
				c-0.4,0-1,0-1.6,0c-0.7,0-1.1,0-1.2-0.1v0l6.9,2.5V212.8z"/>
			<path class="st4" d="M35.7,201.3l-0.8,0.2v0.1c0.3,0.2,0.5,0.5,0.7,0.8c0.2,0.3,0.2,0.7,0.2,1.2c0,0.8-0.2,1.3-0.6,1.7
				s-1,0.6-1.7,0.6h-4.1v-1.3h3.9c0.5,0,0.8-0.1,1.1-0.3c0.2-0.2,0.4-0.5,0.4-0.9c0-0.6-0.2-1-0.5-1.2c-0.3-0.3-0.9-0.4-1.7-0.4
				h-3.1v-1.3h6.3V201.3z"/>
			<path class="st4" d="M35.7,197v1.3h-8.8V197H35.7z"/>
			<path class="st4" d="M34.7,192.8c0-0.3-0.1-0.7-0.2-1h1c0.1,0.1,0.1,0.3,0.2,0.6c0,0.2,0.1,0.5,0.1,0.7c0,1.3-0.7,1.9-2,1.9h-3.4
				v0.9h-0.6l-0.5-0.9l-1.3-0.5v-0.8h1.4v-1.8h1v1.8h3.4c0.3,0,0.6-0.1,0.7-0.2C34.6,193.2,34.7,193,34.7,192.8z"/>
			<path class="st4" d="M27.7,190.6c-0.2,0-0.4-0.1-0.6-0.2c-0.1-0.1-0.2-0.3-0.2-0.6c0-0.2,0.1-0.4,0.2-0.5s0.3-0.2,0.6-0.2
				c0.2,0,0.4,0.1,0.5,0.2c0.1,0.1,0.2,0.3,0.2,0.5c0,0.2-0.1,0.4-0.2,0.6C28.1,190.6,27.9,190.6,27.7,190.6z M35.7,189.2v1.3h-6.3
				v-1.3H35.7z"/>
			<path class="st4" d="M35.8,184.1c0,0.8-0.3,1.4-0.9,1.9v0.1c0.5-0.1,0.9-0.1,1-0.1h2.6v1.3h-9.1v-1.1c0.1,0,0.4-0.1,0.8-0.2V186
				c-0.6-0.4-1-1-1-1.9c0-0.8,0.3-1.4,0.9-1.8s1.4-0.7,2.4-0.7s1.8,0.2,2.4,0.7S35.8,183.3,35.8,184.1z M30.3,184.4
				c0,0.5,0.2,0.9,0.5,1.2c0.3,0.2,0.8,0.4,1.5,0.4h0.2c0.8,0,1.3-0.1,1.7-0.4c0.3-0.2,0.5-0.6,0.5-1.2c0-0.5-0.2-0.8-0.6-1.1
				c-0.4-0.2-0.9-0.4-1.6-0.4c-0.7,0-1.2,0.1-1.6,0.4C30.5,183.6,30.3,183.9,30.3,184.4z"/>
			<path class="st4" d="M35.7,178.7v1.3h-8.8v-1.3H35.7z"/>
			<path class="st4" d="M32.5,171.2c1,0,1.8,0.3,2.4,0.8s0.9,1.3,0.9,2.2c0,0.6-0.1,1.1-0.4,1.6s-0.6,0.8-1.1,1
				c-0.5,0.2-1.1,0.4-1.7,0.4c-1,0-1.8-0.3-2.4-0.8c-0.6-0.5-0.9-1.3-0.9-2.2c0-0.9,0.3-1.6,0.9-2.2
				C30.7,171.5,31.5,171.2,32.5,171.2z M32.5,175.8c1.5,0,2.2-0.5,2.2-1.6c0-1.1-0.7-1.6-2.2-1.6c-1.4,0-2.2,0.5-2.2,1.6
				c0,0.6,0.2,1,0.6,1.2S31.8,175.8,32.5,175.8z"/>
			<path class="st4" d="M33.9,165.5c0.6,0,1.1,0.2,1.4,0.7s0.5,1.1,0.5,1.9c0,0.8-0.1,1.5-0.4,2h-1.2c0.3-0.7,0.5-1.4,0.5-2.1
				c0-0.8-0.2-1.2-0.7-1.2c-0.2,0-0.3,0-0.4,0.1c-0.1,0.1-0.2,0.2-0.3,0.4c-0.1,0.2-0.2,0.5-0.4,0.9c-0.3,0.7-0.6,1.2-0.8,1.5
				c-0.3,0.3-0.6,0.4-1.1,0.4c-0.5,0-1-0.2-1.3-0.7c-0.3-0.4-0.4-1-0.4-1.8c0-0.7,0.1-1.4,0.4-2.1l1,0.4c-0.3,0.7-0.4,1.2-0.4,1.7
				c0,0.7,0.2,1.1,0.6,1.1c0.2,0,0.4-0.1,0.5-0.3c0.1-0.2,0.3-0.6,0.6-1.2c0.2-0.5,0.4-0.9,0.6-1.1c0.2-0.2,0.4-0.4,0.6-0.5
				C33.3,165.5,33.6,165.5,33.9,165.5z"/>
			<path class="st4" d="M35.8,158.9c0,0.8-0.3,1.4-0.9,1.8s-1.4,0.7-2.4,0.7c-1,0-1.8-0.2-2.4-0.7s-0.9-1.1-0.9-1.9
				c0-0.8,0.3-1.5,0.9-1.9v-0.1c-0.5,0.1-0.8,0.1-1.1,0.1h-2.3v-1.3h8.8v1l-0.8,0.2v0.1C35.5,157.4,35.8,158,35.8,158.9z
				 M34.7,158.5c0-0.5-0.2-1-0.5-1.2s-0.8-0.4-1.5-0.4h-0.2c-0.8,0-1.4,0.1-1.7,0.4c-0.3,0.3-0.5,0.7-0.5,1.2c0,0.5,0.2,0.8,0.6,1.1
				c0.4,0.3,0.9,0.4,1.6,0.4c0.7,0,1.2-0.1,1.6-0.4C34.5,159.4,34.7,159,34.7,158.5z"/>
			<path class="st4" d="M35.8,151c0,1-0.3,1.7-0.9,2.3s-1.4,0.8-2.4,0.8c-1,0-1.8-0.3-2.4-0.8s-0.9-1.2-0.9-2.1c0-0.8,0.3-1.5,0.8-2
				s1.2-0.7,2.1-0.7h0.7v4.2c0.6,0,1.1-0.2,1.4-0.5s0.5-0.7,0.5-1.3c0-0.4,0-0.7-0.1-1c-0.1-0.3-0.2-0.7-0.3-1h1.1
				c0.2,0.3,0.3,0.7,0.3,1C35.7,150.2,35.8,150.6,35.8,151z M30.3,151.2c0,0.4,0.1,0.8,0.4,1c0.3,0.3,0.7,0.4,1.2,0.5v-2.9
				c-0.5,0-0.9,0.1-1.2,0.4C30.4,150.5,30.3,150.8,30.3,151.2z"/>
			<path class="st4" d="M35.7,142.7v1.3h-8.8v-1.3H35.7z"/>
			<path class="st4" d="M35.7,136.8l-0.9,0.3v0c0.4,0.3,0.6,0.6,0.8,0.9c0.1,0.3,0.2,0.7,0.2,1.2c0,0.6-0.2,1.1-0.5,1.4
				c-0.3,0.3-0.8,0.5-1.4,0.5c-0.6,0-1.1-0.2-1.5-0.7c-0.3-0.5-0.5-1.2-0.5-2.2l0-1.1h-0.3c-0.4,0-0.7,0.1-0.9,0.3s-0.3,0.5-0.3,0.9
				c0,0.3,0,0.6,0.1,0.9c0.1,0.3,0.2,0.6,0.3,0.9l-1,0.4c-0.2-0.3-0.3-0.7-0.4-1.1c-0.1-0.4-0.1-0.8-0.1-1.1c0-0.8,0.2-1.4,0.5-1.8
				s0.9-0.6,1.6-0.6h4.2V136.8z M34.7,138.8c0-0.5-0.1-0.9-0.4-1.2c-0.3-0.3-0.7-0.4-1.1-0.4h-0.5l0,0.8c0,0.6,0.1,1.1,0.3,1.4
				s0.5,0.4,0.9,0.4c0.3,0,0.5-0.1,0.7-0.3C34.7,139.4,34.7,139.1,34.7,138.8z"/>
			<path class="st4" d="M35.7,127.2l-6.9,2.4v0c1-0.1,2-0.1,2.9-0.1h4v1.2h-8.3v-1.9l6.6-2.3v0l-6.6-2.4v-1.9h8.3v1.3h-4.1
				c-0.4,0-1,0-1.6,0c-0.7,0-1.1,0-1.2-0.1v0l6.9,2.5V127.2z"/>
			<path class="st4" d="M35.8,117.5c0,1-0.3,1.7-0.9,2.3s-1.4,0.8-2.4,0.8c-1,0-1.8-0.3-2.4-0.8s-0.9-1.2-0.9-2.1
				c0-0.8,0.3-1.5,0.8-2s1.2-0.7,2.1-0.7h0.7v4.2c0.6,0,1.1-0.2,1.4-0.5s0.5-0.7,0.5-1.3c0-0.4,0-0.7-0.1-1c-0.1-0.3-0.2-0.7-0.3-1
				h1.1c0.2,0.3,0.3,0.7,0.3,1C35.7,116.7,35.8,117.1,35.8,117.5z M30.3,117.7c0,0.4,0.1,0.8,0.4,1c0.3,0.3,0.7,0.4,1.2,0.5v-2.9
				c-0.5,0-0.9,0.1-1.2,0.4C30.4,117,30.3,117.3,30.3,117.7z"/>
			<path class="st4" d="M35.8,111.4c0,0.8-0.3,1.4-0.9,1.8s-1.4,0.7-2.4,0.7c-1,0-1.8-0.2-2.4-0.7s-0.9-1.1-0.9-1.9
				c0-0.8,0.3-1.5,0.9-1.9v-0.1c-0.5,0.1-0.8,0.1-1.1,0.1h-2.3v-1.3h8.8v1l-0.8,0.2v0.1C35.5,109.9,35.8,110.6,35.8,111.4z
				 M34.7,111c0-0.5-0.2-1-0.5-1.2s-0.8-0.4-1.5-0.4h-0.2c-0.8,0-1.4,0.1-1.7,0.4c-0.3,0.3-0.5,0.7-0.5,1.2c0,0.5,0.2,0.8,0.6,1.1
				c0.4,0.3,0.9,0.4,1.6,0.4c0.7,0,1.2-0.1,1.6-0.4C34.5,111.9,34.7,111.5,34.7,111z"/>
			<path class="st4" d="M27.7,106.3c-0.2,0-0.4-0.1-0.6-0.2c-0.1-0.1-0.2-0.3-0.2-0.6c0-0.2,0.1-0.4,0.2-0.5s0.3-0.2,0.6-0.2
				c0.2,0,0.4,0.1,0.5,0.2c0.1,0.1,0.2,0.3,0.2,0.5c0,0.2-0.1,0.4-0.2,0.6C28.1,106.3,27.9,106.3,27.7,106.3z M35.7,104.9v1.3h-6.3
				v-1.3H35.7z"/>
			<path class="st4" d="M35.7,99.1l-0.9,0.3v0c0.4,0.3,0.6,0.6,0.8,0.9c0.1,0.3,0.2,0.7,0.2,1.2c0,0.6-0.2,1.1-0.5,1.4
				c-0.3,0.3-0.8,0.5-1.4,0.5c-0.6,0-1.1-0.2-1.5-0.7c-0.3-0.5-0.5-1.2-0.5-2.2l0-1.1h-0.3c-0.4,0-0.7,0.1-0.9,0.3s-0.3,0.5-0.3,0.9
				c0,0.3,0,0.6,0.1,0.9c0.1,0.3,0.2,0.6,0.3,0.9l-1,0.4c-0.2-0.3-0.3-0.7-0.4-1.1c-0.1-0.4-0.1-0.8-0.1-1.1c0-0.8,0.2-1.4,0.5-1.8
				s0.9-0.6,1.6-0.6h4.2V99.1z M34.7,101.1c0-0.5-0.1-0.9-0.4-1.2c-0.3-0.3-0.7-0.4-1.1-0.4h-0.5l0,0.8c0,0.6,0.1,1.1,0.3,1.4
				s0.5,0.4,0.9,0.4c0.3,0,0.5-0.1,0.7-0.3C34.7,101.7,34.7,101.4,34.7,101.1z"/>
		</g>
	</g>
	<g>
		<g>
			<path class="st4" d="M583.7,133.2h-7.4v-1.3l2.8-2.8c0.8-0.8,1.4-1.4,1.6-1.8c0.3-0.4,0.5-0.7,0.6-1s0.2-0.6,0.2-1
				c0-0.5-0.1-0.9-0.4-1.2c-0.3-0.3-0.7-0.4-1.2-0.4c-0.4,0-0.8,0.1-1.2,0.2c-0.4,0.2-0.8,0.4-1.3,0.8l-0.9-1.2
				c0.6-0.5,1.2-0.9,1.8-1.1c0.6-0.2,1.2-0.3,1.8-0.3c1,0,1.8,0.3,2.4,0.8c0.6,0.5,0.9,1.2,0.9,2.1c0,0.5-0.1,1-0.3,1.4
				c-0.2,0.4-0.4,0.9-0.8,1.4c-0.4,0.5-1,1.1-1.8,1.9l-1.9,1.8v0.1h5.2V133.2z"/>
			<path class="st4" d="M594.7,133.2l-0.3-1.1h-0.1c-0.4,0.5-0.8,0.8-1.2,1c-0.4,0.2-0.9,0.3-1.5,0.3c-0.8,0-1.4-0.2-1.9-0.7
				c-0.5-0.4-0.7-1.1-0.7-1.9c0-0.8,0.3-1.5,0.9-1.9c0.6-0.4,1.6-0.7,2.9-0.7l1.4,0v-0.4c0-0.5-0.1-0.9-0.4-1.2
				c-0.2-0.3-0.6-0.4-1.1-0.4c-0.4,0-0.8,0.1-1.2,0.2s-0.8,0.3-1.1,0.4l-0.6-1.2c0.4-0.2,0.9-0.4,1.5-0.5c0.5-0.1,1-0.2,1.5-0.2
				c1,0,1.8,0.2,2.4,0.7s0.8,1.2,0.8,2.1v5.5H594.7z M592.1,132c0.6,0,1.1-0.2,1.5-0.5s0.6-0.9,0.6-1.5v-0.7l-1.1,0
				c-0.8,0-1.4,0.2-1.8,0.4s-0.6,0.6-0.6,1.1c0,0.4,0.1,0.7,0.3,0.9C591.3,131.9,591.6,132,592.1,132z"/>
			<path class="st4" d="M609.5,130.8H608v2.4h-1.7v-2.4h-5v-1.3l5-7.2h1.7v7.1h1.5V130.8z M606.3,129.4v-2.7c0-1,0-1.8,0.1-2.4h-0.1
				c-0.1,0.3-0.4,0.7-0.7,1.2l-2.7,3.9H606.3z"/>
			<path class="st4" d="M620.1,133.2l-0.3-1.1h-0.1c-0.4,0.5-0.8,0.8-1.2,1c-0.4,0.2-0.9,0.3-1.5,0.3c-0.8,0-1.4-0.2-1.9-0.7
				c-0.5-0.4-0.7-1.1-0.7-1.9c0-0.8,0.3-1.5,0.9-1.9c0.6-0.4,1.6-0.7,2.9-0.7l1.4,0v-0.4c0-0.5-0.1-0.9-0.4-1.2
				c-0.2-0.3-0.6-0.4-1.1-0.4c-0.4,0-0.8,0.1-1.2,0.2s-0.8,0.3-1.1,0.4l-0.6-1.2c0.4-0.2,0.9-0.4,1.5-0.5c0.5-0.1,1-0.2,1.5-0.2
				c1,0,1.8,0.2,2.4,0.7s0.8,1.2,0.8,2.1v5.5H620.1z M617.5,132c0.6,0,1.1-0.2,1.5-0.5s0.6-0.9,0.6-1.5v-0.7l-1.1,0
				c-0.8,0-1.4,0.2-1.8,0.4s-0.6,0.6-0.6,1.1c0,0.4,0.1,0.7,0.3,0.9C616.7,131.9,617.1,132,617.5,132z"/>
			<path class="st4" d="M631,133.2h-1.8v-5.1c0-0.6-0.1-1.1-0.4-1.4c-0.3-0.3-0.7-0.5-1.2-0.5c-0.7,0-1.3,0.2-1.6,0.7
				c-0.3,0.4-0.5,1.2-0.5,2.2v4.1h-1.7V125h1.4l0.2,1.1h0.1c0.2-0.4,0.6-0.7,1.1-0.9c0.5-0.2,1-0.3,1.5-0.3c2,0,3,1,3,3V133.2z
				 M628.6,124c-0.2,0-0.4,0-0.6-0.1c-0.2-0.1-0.4-0.2-0.6-0.3c-0.2-0.1-0.4-0.2-0.6-0.3c-0.2-0.1-0.4-0.1-0.5-0.1
				c-0.4,0-0.7,0.3-0.8,0.9h-0.9c0.1-0.7,0.3-1.2,0.6-1.6c0.3-0.4,0.7-0.5,1.2-0.5c0.2,0,0.4,0,0.6,0.1c0.2,0.1,0.4,0.2,0.6,0.3
				s0.4,0.2,0.6,0.3c0.2,0.1,0.4,0.1,0.5,0.1c0.4,0,0.7-0.3,0.8-0.9h0.9c-0.1,0.7-0.2,1.2-0.6,1.6C629.5,123.8,629.1,124,628.6,124z
				"/>
			<path class="st4" d="M640.8,129.1c0,1.3-0.3,2.4-1,3.1c-0.7,0.8-1.6,1.1-2.9,1.1c-0.8,0-1.4-0.2-2-0.5c-0.6-0.3-1-0.8-1.4-1.5
				s-0.5-1.4-0.5-2.3c0-1.3,0.3-2.4,1-3.1c0.7-0.7,1.6-1.1,2.9-1.1c1.2,0,2.1,0.4,2.8,1.1C640.4,126.7,640.8,127.8,640.8,129.1z
				 M634.8,129.1c0,1.9,0.7,2.8,2.1,2.8c1.4,0,2.1-0.9,2.1-2.8c0-1.9-0.7-2.8-2.1-2.8c-0.7,0-1.3,0.2-1.6,0.7
				C634.9,127.5,634.8,128.2,634.8,129.1z"/>
			<path class="st4" d="M648.3,130.8c0,0.8-0.3,1.4-0.9,1.8s-1.4,0.6-2.5,0.6c-1.1,0-2-0.2-2.6-0.5v-1.5c1,0.4,1.9,0.7,2.7,0.7
				c1.1,0,1.6-0.3,1.6-1c0-0.2-0.1-0.4-0.2-0.5s-0.3-0.3-0.6-0.4c-0.3-0.1-0.7-0.3-1.1-0.5c-0.9-0.4-1.6-0.7-1.9-1.1
				c-0.3-0.4-0.5-0.8-0.5-1.4c0-0.7,0.3-1.3,0.9-1.6c0.6-0.4,1.3-0.6,2.3-0.6c1,0,1.9,0.2,2.7,0.6l-0.6,1.3
				c-0.9-0.4-1.6-0.5-2.2-0.5c-0.9,0-1.4,0.3-1.4,0.8c0,0.3,0.1,0.5,0.4,0.7s0.8,0.4,1.6,0.7c0.7,0.3,1.2,0.5,1.5,0.7
				c0.3,0.2,0.5,0.5,0.7,0.8C648.2,130.1,648.3,130.5,648.3,130.8z"/>
		</g>
	</g>
	<g>
		<g>
			<path class="st4" d="M579.3,155.2c1.1,0,2,0.3,2.6,0.9s1,1.4,1,2.4c0,1.2-0.4,2.1-1.1,2.7c-0.7,0.7-1.8,1-3.1,1
				c-1.2,0-2.2-0.2-2.9-0.6V160c0.4,0.2,0.9,0.4,1.4,0.5c0.5,0.1,1,0.2,1.5,0.2c0.8,0,1.4-0.2,1.8-0.5c0.4-0.4,0.6-0.9,0.6-1.5
				c0-1.3-0.8-1.9-2.5-1.9c-0.2,0-0.5,0-0.9,0.1s-0.6,0.1-0.9,0.2l-0.8-0.5l0.4-5.3h5.7v1.6H578l-0.2,2.7c0.2,0,0.4-0.1,0.6-0.1
				C578.6,155.3,579,155.2,579.3,155.2z"/>
			<path class="st4" d="M594,162l-0.3-1.1h-0.1c-0.4,0.5-0.8,0.8-1.2,1c-0.4,0.2-0.9,0.3-1.5,0.3c-0.8,0-1.4-0.2-1.9-0.7
				c-0.5-0.4-0.7-1.1-0.7-1.9c0-0.8,0.3-1.5,0.9-1.9c0.6-0.4,1.6-0.7,2.9-0.7l1.4,0v-0.4c0-0.5-0.1-0.9-0.4-1.2
				c-0.2-0.3-0.6-0.4-1.1-0.4c-0.4,0-0.8,0.1-1.2,0.2s-0.8,0.3-1.1,0.4l-0.6-1.2c0.4-0.2,0.9-0.4,1.5-0.5c0.5-0.1,1-0.2,1.5-0.2
				c1,0,1.8,0.2,2.4,0.7s0.8,1.2,0.8,2.1v5.5H594z M591.4,160.8c0.6,0,1.1-0.2,1.5-0.5s0.6-0.9,0.6-1.5v-0.7l-1.1,0
				c-0.8,0-1.4,0.2-1.8,0.4s-0.6,0.6-0.6,1.1c0,0.4,0.1,0.7,0.3,0.9C590.6,160.7,591,160.8,591.4,160.8z"/>
			<path class="st4" d="M606.2,162h-1.7v-7c0-0.8,0-1.5,0.1-2c-0.1,0.1-0.3,0.3-0.4,0.4c-0.2,0.1-0.7,0.6-1.7,1.4l-0.9-1.1l3.2-2.5
				h1.5V162z"/>
			<path class="st4" d="M613.4,155.2c1.1,0,2,0.3,2.6,0.9s1,1.4,1,2.4c0,1.2-0.4,2.1-1.1,2.7c-0.7,0.7-1.8,1-3.1,1
				c-1.2,0-2.2-0.2-2.9-0.6V160c0.4,0.2,0.9,0.4,1.4,0.5c0.5,0.1,1,0.2,1.5,0.2c0.8,0,1.4-0.2,1.8-0.5c0.4-0.4,0.6-0.9,0.6-1.5
				c0-1.3-0.8-1.9-2.5-1.9c-0.2,0-0.5,0-0.9,0.1s-0.6,0.1-0.9,0.2l-0.8-0.5l0.4-5.3h5.7v1.6h-4.1l-0.2,2.7c0.2,0,0.4-0.1,0.6-0.1
				C612.8,155.3,613.1,155.2,613.4,155.2z"/>
			<path class="st4" d="M628.1,162l-0.3-1.1h-0.1c-0.4,0.5-0.8,0.8-1.2,1c-0.4,0.2-0.9,0.3-1.5,0.3c-0.8,0-1.4-0.2-1.9-0.7
				c-0.5-0.4-0.7-1.1-0.7-1.9c0-0.8,0.3-1.5,0.9-1.9c0.6-0.4,1.6-0.7,2.9-0.7l1.4,0v-0.4c0-0.5-0.1-0.9-0.4-1.2
				c-0.2-0.3-0.6-0.4-1.1-0.4c-0.4,0-0.8,0.1-1.2,0.2s-0.8,0.3-1.1,0.4l-0.6-1.2c0.4-0.2,0.9-0.4,1.5-0.5c0.5-0.1,1-0.2,1.5-0.2
				c1,0,1.8,0.2,2.4,0.7s0.8,1.2,0.8,2.1v5.5H628.1z M625.5,160.8c0.6,0,1.1-0.2,1.5-0.5s0.6-0.9,0.6-1.5v-0.7l-1.1,0
				c-0.8,0-1.4,0.2-1.8,0.4s-0.6,0.6-0.6,1.1c0,0.4,0.1,0.7,0.3,0.9C624.8,160.7,625.1,160.8,625.5,160.8z"/>
			<path class="st4" d="M639.1,162h-1.8V157c0-0.6-0.1-1.1-0.4-1.4c-0.3-0.3-0.7-0.5-1.2-0.5c-0.7,0-1.3,0.2-1.6,0.7
				c-0.3,0.4-0.5,1.2-0.5,2.2v4.1h-1.7v-8.2h1.4l0.2,1.1h0.1c0.2-0.4,0.6-0.7,1.1-0.9c0.5-0.2,1-0.3,1.5-0.3c2,0,3,1,3,3V162z
				 M636.6,152.8c-0.2,0-0.4,0-0.6-0.1c-0.2-0.1-0.4-0.2-0.6-0.3c-0.2-0.1-0.4-0.2-0.6-0.3c-0.2-0.1-0.4-0.1-0.5-0.1
				c-0.4,0-0.7,0.3-0.8,0.9h-0.9c0.1-0.7,0.3-1.2,0.6-1.6c0.3-0.4,0.7-0.5,1.2-0.5c0.2,0,0.4,0,0.6,0.1c0.2,0.1,0.4,0.2,0.6,0.3
				s0.4,0.2,0.6,0.3c0.2,0.1,0.4,0.1,0.5,0.1c0.4,0,0.7-0.3,0.8-0.9h0.9c-0.1,0.7-0.2,1.2-0.6,1.6
				C637.5,152.6,637.1,152.8,636.6,152.8z"/>
			<path class="st4" d="M648.8,157.9c0,1.3-0.3,2.4-1,3.1c-0.7,0.8-1.6,1.1-2.9,1.1c-0.8,0-1.4-0.2-2-0.5c-0.6-0.3-1-0.8-1.4-1.5
				s-0.5-1.4-0.5-2.3c0-1.3,0.3-2.4,1-3.1c0.7-0.7,1.6-1.1,2.9-1.1c1.2,0,2.1,0.4,2.8,1.1C648.4,155.6,648.8,156.6,648.8,157.9z
				 M642.8,157.9c0,1.9,0.7,2.8,2.1,2.8c1.4,0,2.1-0.9,2.1-2.8c0-1.9-0.7-2.8-2.1-2.8c-0.7,0-1.3,0.2-1.6,0.7
				C643,156.3,642.8,157,642.8,157.9z"/>
			<path class="st4" d="M656.3,159.7c0,0.8-0.3,1.4-0.9,1.8s-1.4,0.6-2.5,0.6c-1.1,0-2-0.2-2.6-0.5v-1.5c1,0.4,1.9,0.7,2.7,0.7
				c1.1,0,1.6-0.3,1.6-1c0-0.2-0.1-0.4-0.2-0.5s-0.3-0.3-0.6-0.4c-0.3-0.1-0.7-0.3-1.1-0.5c-0.9-0.4-1.6-0.7-1.9-1.1
				c-0.3-0.4-0.5-0.8-0.5-1.4c0-0.7,0.3-1.3,0.9-1.6c0.6-0.4,1.3-0.6,2.3-0.6c1,0,1.9,0.2,2.7,0.6l-0.6,1.3
				c-0.9-0.4-1.6-0.5-2.2-0.5c-0.9,0-1.4,0.3-1.4,0.8c0,0.3,0.1,0.5,0.4,0.7s0.8,0.4,1.6,0.7c0.7,0.3,1.2,0.5,1.5,0.7
				c0.3,0.2,0.5,0.5,0.7,0.8C656.2,158.9,656.3,159.3,656.3,159.7z"/>
		</g>
	</g>
	<g>
		<g>
			<path class="st4" d="M576.4,190.8h-1.7v-7c0-0.8,0-1.5,0.1-2c-0.1,0.1-0.3,0.3-0.4,0.4c-0.2,0.1-0.7,0.6-1.7,1.4l-0.9-1.1
				l3.2-2.5h1.5V190.8z"/>
			<path class="st4" d="M580,186.2c0-4.3,1.7-6.4,5.2-6.4c0.5,0,1,0,1.4,0.1v1.5c-0.4-0.1-0.8-0.2-1.3-0.2c-1.2,0-2,0.3-2.6,0.9
				c-0.6,0.6-0.9,1.6-1,3h0.1c0.2-0.4,0.6-0.7,1-0.9c0.4-0.2,0.9-0.3,1.5-0.3c1,0,1.8,0.3,2.3,0.9c0.5,0.6,0.8,1.4,0.8,2.5
				c0,1.1-0.3,2-1,2.7c-0.6,0.7-1.5,1-2.6,1c-0.8,0-1.5-0.2-2-0.6c-0.6-0.4-1-0.9-1.3-1.6C580.2,188.1,580,187.2,580,186.2z
				 M583.8,189.5c0.6,0,1.1-0.2,1.4-0.6c0.3-0.4,0.5-0.9,0.5-1.7c0-0.6-0.2-1.1-0.5-1.5c-0.3-0.4-0.8-0.5-1.4-0.5
				c-0.4,0-0.7,0.1-1,0.2s-0.6,0.4-0.8,0.7c-0.2,0.3-0.3,0.6-0.3,0.9c0,0.7,0.2,1.3,0.6,1.8C582.7,189.3,583.2,189.5,583.8,189.5z"
				/>
			<path class="st4" d="M598.3,190.8l-0.3-1.1h-0.1c-0.4,0.5-0.8,0.8-1.2,1c-0.4,0.2-0.9,0.3-1.5,0.3c-0.8,0-1.4-0.2-1.9-0.7
				c-0.5-0.4-0.7-1.1-0.7-1.9c0-0.8,0.3-1.5,0.9-1.9c0.6-0.4,1.6-0.7,2.9-0.7l1.4,0v-0.4c0-0.5-0.1-0.9-0.4-1.2
				c-0.2-0.3-0.6-0.4-1.1-0.4c-0.4,0-0.8,0.1-1.2,0.2s-0.8,0.3-1.1,0.4l-0.6-1.2c0.4-0.2,0.9-0.4,1.5-0.5c0.5-0.1,1-0.2,1.5-0.2
				c1,0,1.8,0.2,2.4,0.7s0.8,1.2,0.8,2.1v5.5H598.3z M595.7,189.7c0.6,0,1.1-0.2,1.5-0.5s0.6-0.9,0.6-1.5v-0.7l-1.1,0
				c-0.8,0-1.4,0.2-1.8,0.4s-0.6,0.6-0.6,1.1c0,0.4,0.1,0.7,0.3,0.9C595,189.6,595.3,189.7,595.7,189.7z"/>
			<path class="st4" d="M613.2,188.5h-1.5v2.4H610v-2.4h-5v-1.3l5-7.2h1.7v7.1h1.5V188.5z M610,187v-2.7c0-1,0-1.8,0.1-2.4H610
				c-0.1,0.3-0.4,0.7-0.7,1.2l-2.7,3.9H610z"/>
			<path class="st4" d="M621.5,184.6c0,2.1-0.4,3.7-1.3,4.8c-0.9,1.1-2.2,1.6-3.9,1.6c-0.7,0-1.1,0-1.4-0.1v-1.5
				c0.4,0.1,0.9,0.2,1.3,0.2c1.2,0,2.1-0.3,2.6-1s0.9-1.6,1-3h-0.1c-0.3,0.4-0.6,0.8-1.1,1s-0.9,0.3-1.5,0.3c-1,0-1.7-0.3-2.3-0.9
				c-0.5-0.6-0.8-1.4-0.8-2.5c0-1.1,0.3-2,1-2.7c0.6-0.7,1.5-1,2.6-1c0.8,0,1.4,0.2,2,0.6s1,0.9,1.3,1.6
				C621.3,182.8,621.5,183.6,621.5,184.6z M617.7,181.3c-0.6,0-1.1,0.2-1.4,0.6c-0.3,0.4-0.5,0.9-0.5,1.7c0,0.6,0.1,1.1,0.4,1.5
				c0.3,0.4,0.8,0.5,1.4,0.5c0.6,0,1.1-0.2,1.5-0.5c0.4-0.4,0.6-0.8,0.6-1.2c0-0.4-0.1-0.9-0.3-1.2c-0.2-0.4-0.4-0.7-0.7-0.9
				C618.4,181.4,618.1,181.3,617.7,181.3z"/>
			<path class="st4" d="M632.5,190.8l-0.3-1.1h-0.1c-0.4,0.5-0.8,0.8-1.2,1c-0.4,0.2-0.9,0.3-1.5,0.3c-0.8,0-1.4-0.2-1.9-0.7
				c-0.5-0.4-0.7-1.1-0.7-1.9c0-0.8,0.3-1.5,0.9-1.9c0.6-0.4,1.6-0.7,2.9-0.7l1.4,0v-0.4c0-0.5-0.1-0.9-0.4-1.2
				c-0.2-0.3-0.6-0.4-1.1-0.4c-0.4,0-0.8,0.1-1.2,0.2s-0.8,0.3-1.1,0.4l-0.6-1.2c0.4-0.2,0.9-0.4,1.5-0.5c0.5-0.1,1-0.2,1.5-0.2
				c1,0,1.8,0.2,2.4,0.7s0.8,1.2,0.8,2.1v5.5H632.5z M629.9,189.7c0.6,0,1.1-0.2,1.5-0.5s0.6-0.9,0.6-1.5v-0.7l-1.1,0
				c-0.8,0-1.4,0.2-1.8,0.4s-0.6,0.6-0.6,1.1c0,0.4,0.1,0.7,0.3,0.9C629.1,189.6,629.4,189.7,629.9,189.7z"/>
			<path class="st4" d="M643.4,190.8h-1.8v-5.1c0-0.6-0.1-1.1-0.4-1.4c-0.3-0.3-0.7-0.5-1.2-0.5c-0.7,0-1.3,0.2-1.6,0.7
				c-0.3,0.4-0.5,1.2-0.5,2.2v4.1h-1.7v-8.2h1.4l0.2,1.1h0.1c0.2-0.4,0.6-0.7,1.1-0.9c0.5-0.2,1-0.3,1.5-0.3c2,0,3,1,3,3V190.8z
				 M640.9,181.6c-0.2,0-0.4,0-0.6-0.1c-0.2-0.1-0.4-0.2-0.6-0.3c-0.2-0.1-0.4-0.2-0.6-0.3c-0.2-0.1-0.4-0.1-0.5-0.1
				c-0.4,0-0.7,0.3-0.8,0.9h-0.9c0.1-0.7,0.3-1.2,0.6-1.6c0.3-0.4,0.7-0.5,1.2-0.5c0.2,0,0.4,0,0.6,0.1c0.2,0.1,0.4,0.2,0.6,0.3
				s0.4,0.2,0.6,0.3c0.2,0.1,0.4,0.1,0.5,0.1c0.4,0,0.7-0.3,0.8-0.9h0.9c-0.1,0.7-0.2,1.2-0.6,1.6
				C641.9,181.4,641.4,181.6,640.9,181.6z"/>
			<path class="st4" d="M653.1,186.7c0,1.3-0.3,2.4-1,3.1c-0.7,0.8-1.6,1.1-2.9,1.1c-0.8,0-1.4-0.2-2-0.5c-0.6-0.3-1-0.8-1.4-1.5
				s-0.5-1.4-0.5-2.3c0-1.3,0.3-2.4,1-3.1c0.7-0.7,1.6-1.1,2.9-1.1c1.2,0,2.1,0.4,2.8,1.1C652.8,184.4,653.1,185.4,653.1,186.7z
				 M647.1,186.7c0,1.9,0.7,2.8,2.1,2.8c1.4,0,2.1-0.9,2.1-2.8c0-1.9-0.7-2.8-2.1-2.8c-0.7,0-1.3,0.2-1.6,0.7
				C647.3,185.1,647.1,185.8,647.1,186.7z"/>
			<path class="st4" d="M660.7,188.5c0,0.8-0.3,1.4-0.9,1.8s-1.4,0.6-2.5,0.6c-1.1,0-2-0.2-2.6-0.5V189c1,0.4,1.9,0.7,2.7,0.7
				c1.1,0,1.6-0.3,1.6-1c0-0.2-0.1-0.4-0.2-0.5s-0.3-0.3-0.6-0.4c-0.3-0.1-0.7-0.3-1.1-0.5c-0.9-0.4-1.6-0.7-1.9-1.1
				c-0.3-0.4-0.5-0.8-0.5-1.4c0-0.7,0.3-1.3,0.9-1.6c0.6-0.4,1.3-0.6,2.3-0.6c1,0,1.9,0.2,2.7,0.6l-0.6,1.3
				c-0.9-0.4-1.6-0.5-2.2-0.5c-0.9,0-1.4,0.3-1.4,0.8c0,0.3,0.1,0.5,0.4,0.7s0.8,0.4,1.6,0.7c0.7,0.3,1.2,0.5,1.5,0.7
				c0.3,0.2,0.5,0.5,0.7,0.8C660.6,187.8,660.7,188.1,660.7,188.5z"/>
		</g>
	</g>
	<g>
		<g>
			<path class="st4" d="M549.6,16.1c-1.1,0-1.9,0.4-2.5,1.1c-0.6,0.8-0.9,1.8-0.9,3.1c0,1.4,0.3,2.4,0.9,3.2
				c0.6,0.7,1.4,1.1,2.5,1.1c0.5,0,0.9,0,1.4-0.1c0.5-0.1,0.9-0.2,1.4-0.4v1.6c-0.9,0.3-1.9,0.5-3,0.5c-1.7,0-2.9-0.5-3.8-1.5
				c-0.9-1-1.3-2.4-1.3-4.3c0-1.2,0.2-2.2,0.6-3.1s1.1-1.6,1.9-2s1.8-0.7,2.9-0.7c1.2,0,2.2,0.2,3.2,0.7l-0.7,1.5
				c-0.4-0.2-0.8-0.3-1.2-0.5C550.5,16.2,550,16.1,549.6,16.1z"/>
			<path class="st4" d="M554.5,15.2c0-0.3,0.1-0.6,0.3-0.8c0.2-0.2,0.4-0.3,0.8-0.3c0.3,0,0.6,0.1,0.7,0.3s0.3,0.4,0.3,0.8
				c0,0.3-0.1,0.6-0.3,0.7c-0.2,0.2-0.4,0.3-0.7,0.3c-0.3,0-0.6-0.1-0.8-0.3C554.6,15.8,554.5,15.5,554.5,15.2z M556.4,26.1h-1.8
				v-8.6h1.8V26.1z"/>
			<path class="st4" d="M562.5,26.2c-1.3,0-2.3-0.4-3-1.1c-0.7-0.8-1-1.8-1-3.3c0-1.4,0.4-2.6,1.1-3.3c0.7-0.8,1.7-1.2,3.1-1.2
				c0.9,0,1.7,0.2,2.4,0.5l-0.6,1.5c-0.8-0.3-1.4-0.4-1.9-0.4c-1.5,0-2.2,1-2.2,3c0,1,0.2,1.7,0.6,2.2c0.4,0.5,0.9,0.7,1.6,0.7
				c0.8,0,1.6-0.2,2.3-0.6v1.6c-0.3,0.2-0.7,0.3-1,0.4C563.5,26.2,563,26.2,562.5,26.2z"/>
			<path class="st4" d="M568.7,26.1h-1.8V14h1.8V26.1z"/>
			<path class="st4" d="M578.9,21.8c0,1.4-0.4,2.5-1.1,3.3s-1.7,1.2-3,1.2c-0.8,0-1.5-0.2-2.1-0.5c-0.6-0.4-1.1-0.9-1.4-1.6
				c-0.3-0.7-0.5-1.5-0.5-2.4c0-1.4,0.4-2.5,1.1-3.3c0.7-0.8,1.7-1.2,3-1.2c1.2,0,2.2,0.4,2.9,1.2C578.6,19.3,578.9,20.4,578.9,21.8
				z M572.7,21.8c0,2,0.7,3,2.2,3c1.4,0,2.2-1,2.2-3c0-2-0.7-2.9-2.2-2.9c-0.8,0-1.3,0.3-1.7,0.8C572.9,20.1,572.7,20.8,572.7,21.8z
				"/>
			<path class="st4" d="M586.8,23.6c0,0.8-0.3,1.5-0.9,1.9c-0.6,0.4-1.5,0.7-2.6,0.7c-1.1,0-2.1-0.2-2.8-0.5v-1.6
				c1,0.5,1.9,0.7,2.8,0.7c1.1,0,1.7-0.3,1.7-1c0-0.2-0.1-0.4-0.2-0.5c-0.1-0.1-0.3-0.3-0.6-0.5s-0.7-0.3-1.2-0.5
				c-1-0.4-1.7-0.8-2-1.1c-0.3-0.4-0.5-0.9-0.5-1.5c0-0.7,0.3-1.3,0.9-1.7c0.6-0.4,1.4-0.6,2.4-0.6c1,0,2,0.2,2.9,0.6l-0.6,1.4
				c-0.9-0.4-1.7-0.6-2.3-0.6c-1,0-1.4,0.3-1.4,0.8c0,0.3,0.1,0.5,0.4,0.7c0.3,0.2,0.8,0.4,1.6,0.8c0.7,0.3,1.2,0.5,1.5,0.8
				c0.3,0.2,0.6,0.5,0.7,0.8C586.7,22.8,586.8,23.2,586.8,23.6z"/>
			<path class="st4" d="M598.3,26.1l-0.4-1.2h-0.1c-0.4,0.5-0.8,0.9-1.2,1.1s-1,0.3-1.6,0.3c-0.8,0-1.5-0.2-2-0.7s-0.7-1.1-0.7-1.9
				c0-0.9,0.3-1.6,1-2c0.7-0.5,1.7-0.7,3-0.7l1.5,0v-0.5c0-0.5-0.1-1-0.4-1.2s-0.7-0.4-1.2-0.4c-0.4,0-0.9,0.1-1.3,0.2
				c-0.4,0.1-0.8,0.3-1.2,0.5l-0.6-1.3c0.5-0.2,1-0.4,1.5-0.6c0.6-0.1,1.1-0.2,1.6-0.2c1.1,0,1.9,0.2,2.5,0.7s0.8,1.2,0.8,2.2v5.8
				H598.3z M595.5,24.8c0.7,0,1.2-0.2,1.6-0.6s0.6-0.9,0.6-1.6V22l-1.1,0c-0.9,0-1.5,0.2-1.9,0.4c-0.4,0.3-0.6,0.6-0.6,1.2
				c0,0.4,0.1,0.7,0.3,0.9S595.1,24.8,595.5,24.8z"/>
			<path class="st4" d="M609.7,26.1h-1.8v-5.3c0-0.7-0.1-1.2-0.4-1.5c-0.3-0.3-0.7-0.5-1.3-0.5c-0.8,0-1.3,0.2-1.7,0.7
				c-0.4,0.5-0.5,1.2-0.5,2.3v4.3h-1.8v-8.6h1.4l0.3,1.1h0.1c0.3-0.4,0.6-0.7,1.1-0.9c0.5-0.2,1-0.3,1.6-0.3c2.1,0,3.1,1,3.1,3.1
				V26.1z"/>
			<path class="st4" d="M618.2,26.1l-0.3-1.1h-0.1c-0.3,0.4-0.6,0.7-1.1,0.9c-0.5,0.2-1,0.3-1.6,0.3c-1,0-1.8-0.3-2.3-0.8
				s-0.8-1.3-0.8-2.3v-5.6h1.8v5.3c0,0.7,0.1,1.1,0.4,1.5s0.7,0.5,1.3,0.5c0.8,0,1.3-0.2,1.7-0.7c0.4-0.5,0.5-1.2,0.5-2.3v-4.3h1.8
				v8.6H618.2z"/>
			<path class="st4" d="M627.6,26.1l-0.4-1.2h-0.1c-0.4,0.5-0.8,0.9-1.2,1.1s-1,0.3-1.6,0.3c-0.8,0-1.5-0.2-2-0.7s-0.7-1.1-0.7-1.9
				c0-0.9,0.3-1.6,1-2c0.7-0.5,1.7-0.7,3-0.7l1.5,0v-0.5c0-0.5-0.1-1-0.4-1.2s-0.7-0.4-1.2-0.4c-0.4,0-0.9,0.1-1.3,0.2
				c-0.4,0.1-0.8,0.3-1.2,0.5l-0.6-1.3c0.5-0.2,1-0.4,1.5-0.6c0.6-0.1,1.1-0.2,1.6-0.2c1.1,0,1.9,0.2,2.5,0.7s0.8,1.2,0.8,2.2v5.8
				H627.6z M624.9,24.8c0.7,0,1.2-0.2,1.6-0.6s0.6-0.9,0.6-1.6V22l-1.1,0c-0.9,0-1.5,0.2-1.9,0.4c-0.4,0.3-0.6,0.6-0.6,1.2
				c0,0.4,0.1,0.7,0.3,0.9S624.5,24.8,624.9,24.8z"/>
			<path class="st4" d="M633.3,26.1h-1.8V14h1.8V26.1z"/>
			<path class="st4" d="M639.7,26.2c-1.3,0-2.4-0.4-3.1-1.2s-1.1-1.8-1.1-3.2c0-1.4,0.3-2.5,1-3.3c0.7-0.8,1.7-1.2,2.9-1.2
				c1.1,0,2,0.3,2.7,1c0.7,0.7,1,1.6,1,2.8v1h-5.7c0,0.8,0.3,1.5,0.7,1.9s1,0.7,1.8,0.7c0.5,0,1,0,1.4-0.1s0.9-0.3,1.4-0.5v1.5
				c-0.4,0.2-0.9,0.4-1.3,0.5C640.8,26.2,640.2,26.2,639.7,26.2z M639.3,18.7c-0.6,0-1,0.2-1.4,0.6s-0.6,0.9-0.6,1.6h3.9
				c0-0.7-0.2-1.2-0.5-1.6C640.4,18.9,639.9,18.7,639.3,18.7z"/>
			<path class="st4" d="M650.8,23.6c0,0.8-0.3,1.5-0.9,1.9c-0.6,0.4-1.5,0.7-2.6,0.7c-1.1,0-2.1-0.2-2.8-0.5v-1.6
				c1,0.5,1.9,0.7,2.8,0.7c1.1,0,1.7-0.3,1.7-1c0-0.2-0.1-0.4-0.2-0.5c-0.1-0.1-0.3-0.3-0.6-0.5s-0.7-0.3-1.2-0.5
				c-1-0.4-1.7-0.8-2-1.1c-0.3-0.4-0.5-0.9-0.5-1.5c0-0.7,0.3-1.3,0.9-1.7c0.6-0.4,1.4-0.6,2.4-0.6c1,0,2,0.2,2.9,0.6l-0.6,1.4
				c-0.9-0.4-1.7-0.6-2.3-0.6c-1,0-1.4,0.3-1.4,0.8c0,0.3,0.1,0.5,0.4,0.7c0.3,0.2,0.8,0.4,1.6,0.8c0.7,0.3,1.2,0.5,1.5,0.8
				c0.3,0.2,0.6,0.5,0.7,0.8C650.7,22.8,650.8,23.2,650.8,23.6z"/>
			<path class="st4" d="M659.8,26.2c-1.1,0-1.9-0.4-2.5-1.2s-0.9-1.9-0.9-3.3c0-1.4,0.3-2.5,0.9-3.3s1.4-1.2,2.5-1.2
				c1.1,0,2,0.4,2.6,1.2h0.1c-0.1-0.6-0.1-1.1-0.1-1.5V14h1.8v12.1h-1.4l-0.3-1.1h-0.1C661.8,25.8,660.9,26.2,659.8,26.2z
				 M660.3,24.7c0.7,0,1.3-0.2,1.6-0.6c0.3-0.4,0.5-1.1,0.5-2.1v-0.3c0-1.1-0.2-1.8-0.5-2.3s-0.9-0.7-1.7-0.7
				c-0.6,0-1.1,0.3-1.5,0.8c-0.3,0.5-0.5,1.3-0.5,2.2c0,1,0.2,1.7,0.5,2.2S659.6,24.7,660.3,24.7z"/>
			<path class="st4" d="M670.5,26.2c-1.3,0-2.4-0.4-3.1-1.2s-1.1-1.8-1.1-3.2c0-1.4,0.3-2.5,1-3.3c0.7-0.8,1.7-1.2,2.9-1.2
				c1.1,0,2,0.3,2.7,1c0.7,0.7,1,1.6,1,2.8v1h-5.7c0,0.8,0.3,1.5,0.7,1.9s1,0.7,1.8,0.7c0.5,0,1,0,1.4-0.1s0.9-0.3,1.4-0.5v1.5
				c-0.4,0.2-0.9,0.4-1.3,0.5C671.7,26.2,671.1,26.2,670.5,26.2z M670.2,18.7c-0.6,0-1,0.2-1.4,0.6s-0.6,0.9-0.6,1.6h3.9
				c0-0.7-0.2-1.2-0.5-1.6C671.2,18.9,670.8,18.7,670.2,18.7z"/>
			<path class="st4" d="M557.8,43.2H556v-5.1h-5.2v5.1h-1.9V31.9h1.9v4.6h5.2v-4.6h1.9V43.2z"/>
			<path class="st4" d="M568.2,38.9c0,1.4-0.4,2.5-1.1,3.3s-1.7,1.2-3,1.2c-0.8,0-1.5-0.2-2.1-0.5c-0.6-0.4-1.1-0.9-1.4-1.6
				c-0.3-0.7-0.5-1.5-0.5-2.4c0-1.4,0.4-2.5,1.1-3.3c0.7-0.8,1.7-1.2,3-1.2c1.2,0,2.2,0.4,2.9,1.2C567.9,36.5,568.2,37.6,568.2,38.9
				z M562,38.9c0,2,0.7,3,2.2,3c1.4,0,2.2-1,2.2-3c0-2-0.7-2.9-2.2-2.9c-0.8,0-1.3,0.3-1.7,0.8C562.1,37.2,562,38,562,38.9z"/>
			<path class="st4" d="M576.1,40.8c0,0.8-0.3,1.5-0.9,1.9c-0.6,0.4-1.5,0.7-2.6,0.7c-1.1,0-2.1-0.2-2.8-0.5v-1.6
				c1,0.5,1.9,0.7,2.8,0.7c1.1,0,1.7-0.3,1.7-1c0-0.2-0.1-0.4-0.2-0.5c-0.1-0.1-0.3-0.3-0.6-0.5s-0.7-0.3-1.2-0.5
				c-1-0.4-1.7-0.8-2-1.1c-0.3-0.4-0.5-0.9-0.5-1.5c0-0.7,0.3-1.3,0.9-1.7c0.6-0.4,1.4-0.6,2.4-0.6c1,0,2,0.2,2.9,0.6l-0.6,1.4
				c-0.9-0.4-1.7-0.6-2.3-0.6c-1,0-1.4,0.3-1.4,0.8c0,0.3,0.1,0.5,0.4,0.7c0.3,0.2,0.8,0.4,1.6,0.8c0.7,0.3,1.2,0.5,1.5,0.8
				c0.3,0.2,0.6,0.5,0.7,0.8C576,40,576.1,40.4,576.1,40.8z"/>
			<path class="st4" d="M582.4,43.4c-1.1,0-1.9-0.4-2.5-1.2h-0.1c0.1,0.7,0.1,1.2,0.1,1.3V47H578V34.6h1.5c0,0.2,0.1,0.5,0.3,1.1
				h0.1c0.6-0.9,1.4-1.3,2.6-1.3c1.1,0,1.9,0.4,2.5,1.2c0.6,0.8,0.9,1.9,0.9,3.3c0,1.4-0.3,2.5-0.9,3.3
				C584.3,43,583.5,43.4,582.4,43.4z M581.9,36c-0.7,0-1.3,0.2-1.6,0.6c-0.3,0.4-0.5,1.1-0.5,2v0.3c0,1,0.2,1.8,0.5,2.3
				s0.9,0.7,1.6,0.7c0.6,0,1.1-0.3,1.5-0.8c0.3-0.5,0.5-1.3,0.5-2.2c0-1-0.2-1.7-0.5-2.2C583.1,36.2,582.6,36,581.9,36z"/>
			<path class="st4" d="M587.8,32.4c0-0.3,0.1-0.6,0.3-0.8c0.2-0.2,0.4-0.3,0.8-0.3c0.3,0,0.6,0.1,0.7,0.3s0.3,0.4,0.3,0.8
				c0,0.3-0.1,0.6-0.3,0.7c-0.2,0.2-0.4,0.3-0.7,0.3c-0.3,0-0.6-0.1-0.8-0.3C587.9,32.9,587.8,32.7,587.8,32.4z M589.8,43.2h-1.8
				v-8.6h1.8V43.2z"/>
			<path class="st4" d="M595.6,41.9c0.4,0,0.9-0.1,1.3-0.2v1.4c-0.2,0.1-0.5,0.2-0.8,0.2c-0.3,0.1-0.6,0.1-1,0.1
				c-1.7,0-2.6-0.9-2.6-2.7V36h-1.2v-0.8l1.3-0.7l0.6-1.8h1.1v1.9h2.4V36h-2.4v4.6c0,0.4,0.1,0.8,0.3,1
				C594.9,41.8,595.2,41.9,595.6,41.9z"/>
			<path class="st4" d="M604,43.2l-0.4-1.2h-0.1c-0.4,0.5-0.8,0.9-1.2,1.1s-1,0.3-1.6,0.3c-0.8,0-1.5-0.2-2-0.7s-0.7-1.1-0.7-1.9
				c0-0.9,0.3-1.6,1-2c0.7-0.5,1.7-0.7,3-0.7l1.5,0v-0.5c0-0.5-0.1-1-0.4-1.2s-0.7-0.4-1.2-0.4c-0.4,0-0.9,0.1-1.3,0.2
				c-0.4,0.1-0.8,0.3-1.2,0.5l-0.6-1.3c0.5-0.2,1-0.4,1.5-0.6c0.6-0.1,1.1-0.2,1.6-0.2c1.1,0,1.9,0.2,2.5,0.7s0.8,1.2,0.8,2.2v5.8
				H604z M601.3,42c0.7,0,1.2-0.2,1.6-0.6s0.6-0.9,0.6-1.6v-0.7l-1.1,0c-0.9,0-1.5,0.2-1.9,0.4c-0.4,0.3-0.6,0.6-0.6,1.2
				c0,0.4,0.1,0.7,0.3,0.9S600.8,42,601.3,42z"/>
			<path class="st4" d="M609.6,43.2h-1.8V31.2h1.8V43.2z"/>
			<path class="st4" d="M612.1,32.4c0-0.3,0.1-0.6,0.3-0.8c0.2-0.2,0.4-0.3,0.8-0.3c0.3,0,0.6,0.1,0.7,0.3s0.3,0.4,0.3,0.8
				c0,0.3-0.1,0.6-0.3,0.7c-0.2,0.2-0.4,0.3-0.7,0.3c-0.3,0-0.6-0.1-0.8-0.3C612.2,32.9,612.1,32.7,612.1,32.4z M614.1,43.2h-1.8
				v-8.6h1.8V43.2z"/>
			<path class="st4" d="M622.4,43.2h-6.5v-1.1l4.3-6.1h-4.1v-1.4h6.1v1.3l-4.2,5.9h4.4V43.2z"/>
			<path class="st4" d="M629.6,43.2l-0.4-1.2h-0.1c-0.4,0.5-0.8,0.9-1.2,1.1s-1,0.3-1.6,0.3c-0.8,0-1.5-0.2-2-0.7s-0.7-1.1-0.7-1.9
				c0-0.9,0.3-1.6,1-2c0.7-0.5,1.7-0.7,3-0.7l1.5,0v-0.5c0-0.5-0.1-1-0.4-1.2s-0.7-0.4-1.2-0.4c-0.4,0-0.9,0.1-1.3,0.2
				c-0.4,0.1-0.8,0.3-1.2,0.5l-0.6-1.3c0.5-0.2,1-0.4,1.5-0.6c0.6-0.1,1.1-0.2,1.6-0.2c1.1,0,1.9,0.2,2.5,0.7s0.8,1.2,0.8,2.2v5.8
				H629.6z M626.9,42c0.7,0,1.2-0.2,1.6-0.6s0.6-0.9,0.6-1.6v-0.7l-1.1,0c-0.9,0-1.5,0.2-1.9,0.4c-0.4,0.3-0.6,0.6-0.6,1.2
				c0,0.4,0.1,0.7,0.3,0.9S626.5,42,626.9,42z"/>
			<path class="st4" d="M636.9,43.4c-1.3,0-2.3-0.4-3-1.1c-0.7-0.8-1-1.8-1-3.3c0-1.4,0.4-2.6,1.1-3.3c0.7-0.8,1.7-1.2,3.1-1.2
				c0.9,0,1.7,0.2,2.4,0.5l-0.6,1.5c-0.8-0.3-1.4-0.4-1.9-0.4c-1.5,0-2.2,1-2.2,3c0,1,0.2,1.7,0.6,2.2c0.4,0.5,0.9,0.7,1.6,0.7
				c0.8,0,1.6-0.2,2.3-0.6v1.6c-0.3,0.2-0.7,0.3-1,0.4C637.9,43.3,637.5,43.4,636.9,43.4z"/>
			<path class="st4" d="M641.2,32.4c0-0.3,0.1-0.6,0.3-0.8c0.2-0.2,0.4-0.3,0.8-0.3c0.3,0,0.6,0.1,0.7,0.3s0.3,0.4,0.3,0.8
				c0,0.3-0.1,0.6-0.3,0.7c-0.2,0.2-0.4,0.3-0.7,0.3c-0.3,0-0.6-0.1-0.8-0.3C641.3,32.9,641.2,32.7,641.2,32.4z M643.2,43.2h-1.8
				v-8.6h1.8V43.2z"/>
			<path class="st4" d="M653.4,38.9c0,1.4-0.4,2.5-1.1,3.3s-1.7,1.2-3,1.2c-0.8,0-1.5-0.2-2.1-0.5c-0.6-0.4-1.1-0.9-1.4-1.6
				c-0.3-0.7-0.5-1.5-0.5-2.4c0-1.4,0.4-2.5,1.1-3.3c0.7-0.8,1.7-1.2,3-1.2c1.2,0,2.2,0.4,2.9,1.2C653,36.5,653.4,37.6,653.4,38.9z
				 M647.1,38.9c0,2,0.7,3,2.2,3c1.4,0,2.2-1,2.2-3c0-2-0.7-2.9-2.2-2.9c-0.8,0-1.3,0.3-1.7,0.8C647.3,37.2,647.1,38,647.1,38.9z
				 M648.1,33.6v-0.2c0.3-0.4,0.6-0.8,0.9-1.2c0.3-0.4,0.6-0.8,0.7-1.1h2.1v0.2c-0.3,0.3-0.7,0.7-1.2,1.2c-0.5,0.5-1,0.9-1.4,1.2
				H648.1z"/>
			<path class="st4" d="M663,43.2h-1.8v-5.3c0-0.7-0.1-1.2-0.4-1.5c-0.3-0.3-0.7-0.5-1.3-0.5c-0.8,0-1.3,0.2-1.7,0.7
				c-0.4,0.5-0.5,1.2-0.5,2.3v4.3h-1.8v-8.6h1.4l0.3,1.1h0.1c0.3-0.4,0.6-0.7,1.1-0.9c0.5-0.2,1-0.3,1.6-0.3c2.1,0,3.1,1,3.1,3.1
				V43.2z"/>
			<path class="st4" d="M674,43.4c-1.1,0-1.9-0.4-2.5-1.2h-0.1c0.1,0.7,0.1,1.2,0.1,1.3V47h-1.8V34.6h1.5c0,0.2,0.1,0.5,0.3,1.1h0.1
				c0.6-0.9,1.4-1.3,2.6-1.3c1.1,0,1.9,0.4,2.5,1.2c0.6,0.8,0.9,1.9,0.9,3.3c0,1.4-0.3,2.5-0.9,3.3C675.9,43,675.1,43.4,674,43.4z
				 M673.6,36c-0.7,0-1.3,0.2-1.6,0.6c-0.3,0.4-0.5,1.1-0.5,2v0.3c0,1,0.2,1.8,0.5,2.3s0.9,0.7,1.6,0.7c0.6,0,1.1-0.3,1.5-0.8
				c0.3-0.5,0.5-1.3,0.5-2.2c0-1-0.2-1.7-0.5-2.2C674.7,36.2,674.2,36,673.6,36z"/>
			<path class="st4" d="M687.2,38.9c0,1.4-0.4,2.5-1.1,3.3s-1.7,1.2-3,1.2c-0.8,0-1.5-0.2-2.1-0.5c-0.6-0.4-1.1-0.9-1.4-1.6
				c-0.3-0.7-0.5-1.5-0.5-2.4c0-1.4,0.4-2.5,1.1-3.3c0.7-0.8,1.7-1.2,3-1.2c1.2,0,2.2,0.4,2.9,1.2C686.8,36.5,687.2,37.6,687.2,38.9
				z M680.9,38.9c0,2,0.7,3,2.2,3c1.4,0,2.2-1,2.2-3c0-2-0.7-2.9-2.2-2.9c-0.8,0-1.3,0.3-1.7,0.8C681.1,37.2,680.9,38,680.9,38.9z"
				/>
			<path class="st4" d="M693.6,34.5c0.4,0,0.7,0,0.9,0.1l-0.2,1.7c-0.3-0.1-0.5-0.1-0.8-0.1c-0.7,0-1.3,0.2-1.8,0.7
				c-0.5,0.5-0.7,1.1-0.7,1.9v4.5h-1.8v-8.6h1.4l0.2,1.5h0.1c0.3-0.5,0.7-0.9,1.1-1.2C692.6,34.6,693.1,34.5,693.6,34.5z"/>
			<path class="st4" d="M705.6,43.2l-0.4-1.2h-0.1c-0.4,0.5-0.8,0.9-1.2,1.1s-1,0.3-1.6,0.3c-0.8,0-1.5-0.2-2-0.7s-0.7-1.1-0.7-1.9
				c0-0.9,0.3-1.6,1-2c0.7-0.5,1.7-0.7,3-0.7l1.5,0v-0.5c0-0.5-0.1-1-0.4-1.2s-0.7-0.4-1.2-0.4c-0.4,0-0.9,0.1-1.3,0.2
				c-0.4,0.1-0.8,0.3-1.2,0.5l-0.6-1.3c0.5-0.2,1-0.4,1.5-0.6c0.6-0.1,1.1-0.2,1.6-0.2c1.1,0,1.9,0.2,2.5,0.7s0.8,1.2,0.8,2.2v5.8
				H705.6z M702.9,42c0.7,0,1.2-0.2,1.6-0.6s0.6-0.9,0.6-1.6v-0.7l-1.1,0c-0.9,0-1.5,0.2-1.9,0.4c-0.4,0.3-0.6,0.6-0.6,1.2
				c0,0.4,0.1,0.7,0.3,0.9S702.4,42,702.9,42z"/>
			<path class="st4" d="M715.2,40.8c0,0.8-0.3,1.5-0.9,1.9c-0.6,0.4-1.5,0.7-2.6,0.7c-1.1,0-2.1-0.2-2.8-0.5v-1.6
				c1,0.5,1.9,0.7,2.8,0.7c1.1,0,1.7-0.3,1.7-1c0-0.2-0.1-0.4-0.2-0.5c-0.1-0.1-0.3-0.3-0.6-0.5s-0.7-0.3-1.2-0.5
				c-1-0.4-1.7-0.8-2-1.1c-0.3-0.4-0.5-0.9-0.5-1.5c0-0.7,0.3-1.3,0.9-1.7c0.6-0.4,1.4-0.6,2.4-0.6c1,0,2,0.2,2.9,0.6l-0.6,1.4
				c-0.9-0.4-1.7-0.6-2.3-0.6c-1,0-1.4,0.3-1.4,0.8c0,0.3,0.1,0.5,0.4,0.7c0.3,0.2,0.8,0.4,1.6,0.8c0.7,0.3,1.2,0.5,1.5,0.8
				c0.3,0.2,0.6,0.5,0.7,0.8C715.1,40,715.2,40.4,715.2,40.8z"/>
			<path class="st4" d="M724.4,43.2h-1.8v-5.3c0-0.7-0.1-1.1-0.4-1.5c-0.2-0.3-0.6-0.5-1.2-0.5c-0.7,0-1.2,0.2-1.5,0.7
				c-0.3,0.5-0.5,1.2-0.5,2.3v4.3h-1.8v-8.6h1.4l0.3,1.1h0.1c0.2-0.4,0.6-0.7,1-0.9c0.5-0.2,1-0.3,1.5-0.3c1.3,0,2.2,0.4,2.6,1.3
				h0.1c0.3-0.4,0.6-0.8,1.1-1c0.5-0.2,1-0.4,1.6-0.4c1,0,1.8,0.3,2.2,0.8s0.7,1.3,0.7,2.4v5.6H728v-5.3c0-0.7-0.1-1.1-0.4-1.5
				c-0.3-0.3-0.6-0.5-1.2-0.5c-0.7,0-1.2,0.2-1.6,0.7c-0.3,0.4-0.5,1.1-0.5,2V43.2z"/>
			<path class="st4" d="M737.7,43.2l-0.4-1.2h-0.1c-0.4,0.5-0.8,0.9-1.2,1.1s-1,0.3-1.6,0.3c-0.8,0-1.5-0.2-2-0.7s-0.7-1.1-0.7-1.9
				c0-0.9,0.3-1.6,1-2c0.7-0.5,1.7-0.7,3-0.7l1.5,0v-0.5c0-0.5-0.1-1-0.4-1.2s-0.7-0.4-1.2-0.4c-0.4,0-0.9,0.1-1.3,0.2
				c-0.4,0.1-0.8,0.3-1.2,0.5l-0.6-1.3c0.5-0.2,1-0.4,1.5-0.6c0.6-0.1,1.1-0.2,1.6-0.2c1.1,0,1.9,0.2,2.5,0.7s0.8,1.2,0.8,2.2v5.8
				H737.7z M735,42c0.7,0,1.2-0.2,1.6-0.6s0.6-0.9,0.6-1.6v-0.7l-1.1,0c-0.9,0-1.5,0.2-1.9,0.4c-0.4,0.3-0.6,0.6-0.6,1.2
				c0,0.4,0.1,0.7,0.3,0.9S734.5,42,735,42z"/>
			<path class="st4" d="M549.6,50.5c-1.1,0-1.9,0.4-2.5,1.1c-0.6,0.8-0.9,1.8-0.9,3.1c0,1.4,0.3,2.4,0.9,3.2
				c0.6,0.7,1.4,1.1,2.5,1.1c0.5,0,0.9,0,1.4-0.1c0.5-0.1,0.9-0.2,1.4-0.4V60c-0.9,0.3-1.9,0.5-3,0.5c-1.7,0-2.9-0.5-3.8-1.5
				c-0.9-1-1.3-2.4-1.3-4.3c0-1.2,0.2-2.2,0.6-3.1s1.1-1.6,1.9-2s1.8-0.7,2.9-0.7c1.2,0,2.2,0.2,3.2,0.7l-0.7,1.5
				c-0.4-0.2-0.8-0.3-1.2-0.5C550.5,50.5,550,50.5,549.6,50.5z"/>
			<path class="st4" d="M560,60.4l-0.4-1.2h-0.1c-0.4,0.5-0.8,0.9-1.2,1.1s-1,0.3-1.6,0.3c-0.8,0-1.5-0.2-2-0.7s-0.7-1.1-0.7-1.9
				c0-0.9,0.3-1.6,1-2c0.7-0.5,1.7-0.7,3-0.7l1.5,0v-0.5c0-0.5-0.1-1-0.4-1.2s-0.7-0.4-1.2-0.4c-0.4,0-0.9,0.1-1.3,0.2
				c-0.4,0.1-0.8,0.3-1.2,0.5l-0.6-1.3c0.5-0.2,1-0.4,1.5-0.6c0.6-0.1,1.1-0.2,1.6-0.2c1.1,0,1.9,0.2,2.5,0.7s0.8,1.2,0.8,2.2v5.8
				H560z M557.3,59.1c0.7,0,1.2-0.2,1.6-0.6s0.6-0.9,0.6-1.6v-0.7l-1.1,0c-0.9,0-1.5,0.2-1.9,0.4c-0.4,0.3-0.6,0.6-0.6,1.2
				c0,0.4,0.1,0.7,0.3,0.9S556.8,59.1,557.3,59.1z"/>
			<path class="st4" d="M571.4,60.4h-1.8v-5.3c0-0.7-0.1-1.2-0.4-1.5c-0.3-0.3-0.7-0.5-1.3-0.5c-0.8,0-1.3,0.2-1.7,0.7
				c-0.4,0.5-0.5,1.2-0.5,2.3v4.3h-1.8v-8.6h1.4l0.3,1.1h0.1c0.3-0.4,0.6-0.7,1.1-0.9c0.5-0.2,1-0.3,1.6-0.3c2.1,0,3.1,1,3.1,3.1
				V60.4z"/>
			<path class="st4" d="M579.3,60.4l-0.4-1.2h-0.1c-0.4,0.5-0.8,0.9-1.2,1.1s-1,0.3-1.6,0.3c-0.8,0-1.5-0.2-2-0.7s-0.7-1.1-0.7-1.9
				c0-0.9,0.3-1.6,1-2c0.7-0.5,1.7-0.7,3-0.7l1.5,0v-0.5c0-0.5-0.1-1-0.4-1.2s-0.7-0.4-1.2-0.4c-0.4,0-0.9,0.1-1.3,0.2
				c-0.4,0.1-0.8,0.3-1.2,0.5l-0.6-1.3c0.5-0.2,1-0.4,1.5-0.6c0.6-0.1,1.1-0.2,1.6-0.2c1.1,0,1.9,0.2,2.5,0.7s0.8,1.2,0.8,2.2v5.8
				H579.3z M576.6,59.1c0.7,0,1.2-0.2,1.6-0.6s0.6-0.9,0.6-1.6v-0.7l-1.1,0c-0.9,0-1.5,0.2-1.9,0.4c-0.4,0.3-0.6,0.6-0.6,1.2
				c0,0.4,0.1,0.7,0.3,0.9S576.1,59.1,576.6,59.1z"/>
			<path class="st4" d="M586,60.5c-1.1,0-1.9-0.4-2.5-1.2s-0.9-1.9-0.9-3.3c0-1.4,0.3-2.5,0.9-3.3s1.4-1.2,2.5-1.2
				c1.1,0,2,0.4,2.6,1.2h0.1c-0.1-0.6-0.1-1.1-0.1-1.5v-3.1h1.8v12.1H589l-0.3-1.1h-0.1C588,60.1,587.1,60.5,586,60.5z M586.5,59.1
				c0.7,0,1.3-0.2,1.6-0.6c0.3-0.4,0.5-1.1,0.5-2.1v-0.3c0-1.1-0.2-1.8-0.5-2.3s-0.9-0.7-1.7-0.7c-0.6,0-1.1,0.3-1.5,0.8
				c-0.3,0.5-0.5,1.3-0.5,2.2c0,1,0.2,1.7,0.5,2.2S585.8,59.1,586.5,59.1z"/>
			<path class="st4" d="M598.4,60.4l-0.4-1.2H598c-0.4,0.5-0.8,0.9-1.2,1.1s-1,0.3-1.6,0.3c-0.8,0-1.5-0.2-2-0.7s-0.7-1.1-0.7-1.9
				c0-0.9,0.3-1.6,1-2c0.7-0.5,1.7-0.7,3-0.7l1.5,0v-0.5c0-0.5-0.1-1-0.4-1.2s-0.7-0.4-1.2-0.4c-0.4,0-0.9,0.1-1.3,0.2
				c-0.4,0.1-0.8,0.3-1.2,0.5l-0.6-1.3c0.5-0.2,1-0.4,1.5-0.6c0.6-0.1,1.1-0.2,1.6-0.2c1.1,0,1.9,0.2,2.5,0.7s0.8,1.2,0.8,2.2v5.8
				H598.4z M595.7,59.1c0.7,0,1.2-0.2,1.6-0.6s0.6-0.9,0.6-1.6v-0.7l-1.1,0c-0.9,0-1.5,0.2-1.9,0.4c-0.4,0.3-0.6,0.6-0.6,1.2
				c0,0.4,0.1,0.7,0.3,0.9S595.2,59.1,595.7,59.1z"/>
			<path class="st4" d="M611.1,60.4h-1.8v-7.3c0-0.9,0-1.6,0.1-2.1c-0.1,0.1-0.3,0.3-0.4,0.4c-0.2,0.1-0.8,0.6-1.7,1.4l-0.9-1.2
				l3.3-2.6h1.5V60.4z"/>
			<path class="st4" d="M622.5,53.9c0,2.2-0.4,3.9-1.3,5c-0.9,1.1-2.3,1.7-4.1,1.7c-0.7,0-1.2,0-1.5-0.1v-1.5
				c0.5,0.1,0.9,0.2,1.4,0.2c1.2,0,2.1-0.3,2.8-1c0.6-0.7,0.9-1.7,1-3.1h-0.1c-0.3,0.5-0.7,0.8-1.1,1c-0.4,0.2-0.9,0.3-1.5,0.3
				c-1,0-1.8-0.3-2.4-0.9c-0.6-0.6-0.9-1.5-0.9-2.6c0-1.2,0.3-2.1,1-2.8s1.6-1.1,2.7-1.1c0.8,0,1.5,0.2,2.1,0.6
				c0.6,0.4,1.1,1,1.4,1.7C622.3,51.9,622.5,52.8,622.5,53.9z M618.5,50.4c-0.6,0-1.1,0.2-1.5,0.6c-0.3,0.4-0.5,1-0.5,1.7
				c0,0.6,0.2,1.2,0.5,1.5c0.3,0.4,0.8,0.6,1.4,0.6c0.6,0,1.1-0.2,1.6-0.6c0.4-0.4,0.6-0.8,0.6-1.3c0-0.5-0.1-0.9-0.3-1.3
				c-0.2-0.4-0.4-0.7-0.7-0.9S618.9,50.4,618.5,50.4z"/>
			<path class="st4" d="M631.5,53.9c0,2.2-0.4,3.9-1.3,5c-0.9,1.1-2.3,1.7-4.1,1.7c-0.7,0-1.2,0-1.5-0.1v-1.5
				c0.5,0.1,0.9,0.2,1.4,0.2c1.2,0,2.1-0.3,2.8-1c0.6-0.7,0.9-1.7,1-3.1h-0.1c-0.3,0.5-0.7,0.8-1.1,1c-0.4,0.2-0.9,0.3-1.5,0.3
				c-1,0-1.8-0.3-2.4-0.9c-0.6-0.6-0.9-1.5-0.9-2.6c0-1.2,0.3-2.1,1-2.8s1.6-1.1,2.7-1.1c0.8,0,1.5,0.2,2.1,0.6
				c0.6,0.4,1.1,1,1.4,1.7C631.4,51.9,631.5,52.8,631.5,53.9z M627.6,50.4c-0.6,0-1.1,0.2-1.5,0.6c-0.3,0.4-0.5,1-0.5,1.7
				c0,0.6,0.2,1.2,0.5,1.5c0.3,0.4,0.8,0.6,1.4,0.6c0.6,0,1.1-0.2,1.6-0.6c0.4-0.4,0.6-0.8,0.6-1.3c0-0.5-0.1-0.9-0.3-1.3
				c-0.2-0.4-0.4-0.7-0.7-0.9S628,50.4,627.6,50.4z"/>
			<path class="st4" d="M640.6,54.7c0,2-0.3,3.4-1,4.4c-0.6,1-1.6,1.4-2.9,1.4c-1.3,0-2.2-0.5-2.9-1.5s-1-2.4-1-4.3
				c0-2,0.3-3.5,0.9-4.4c0.6-0.9,1.6-1.4,2.9-1.4c1.3,0,2.2,0.5,2.9,1.5C640.3,51.3,640.6,52.8,640.6,54.7z M634.8,54.7
				c0,1.5,0.2,2.6,0.5,3.3c0.3,0.7,0.8,1,1.5,1c0.7,0,1.2-0.3,1.5-1c0.3-0.7,0.5-1.8,0.5-3.3c0-1.5-0.2-2.6-0.5-3.3s-0.8-1-1.5-1
				c-0.7,0-1.2,0.3-1.5,1C634.9,52.1,634.8,53.2,634.8,54.7z"/>
			<path class="st4" d="M641.9,56.9v-1.6h4v1.6H641.9z"/>
			<path class="st4" d="M654.8,60.4h-7.7V59l2.9-2.9c0.9-0.9,1.4-1.5,1.7-1.9c0.3-0.4,0.5-0.7,0.6-1c0.1-0.3,0.2-0.7,0.2-1
				c0-0.5-0.2-0.9-0.5-1.2c-0.3-0.3-0.7-0.4-1.3-0.4c-0.4,0-0.9,0.1-1.3,0.2c-0.4,0.2-0.9,0.5-1.4,0.9l-1-1.2
				c0.6-0.5,1.2-0.9,1.8-1.1c0.6-0.2,1.2-0.3,1.9-0.3c1.1,0,1.9,0.3,2.5,0.8s1,1.3,1,2.2c0,0.5-0.1,1-0.3,1.5s-0.5,0.9-0.8,1.4
				s-1,1.1-1.9,2l-2,1.9v0.1h5.4V60.4z"/>
			<path class="st4" d="M663.9,54.7c0,2-0.3,3.4-1,4.4c-0.6,1-1.6,1.4-2.9,1.4c-1.3,0-2.2-0.5-2.9-1.5s-1-2.4-1-4.3
				c0-2,0.3-3.5,0.9-4.4c0.6-0.9,1.6-1.4,2.9-1.4c1.3,0,2.2,0.5,2.9,1.5C663.5,51.3,663.9,52.8,663.9,54.7z M658,54.7
				c0,1.5,0.2,2.6,0.5,3.3c0.3,0.7,0.8,1,1.5,1c0.7,0,1.2-0.3,1.5-1c0.3-0.7,0.5-1.8,0.5-3.3c0-1.5-0.2-2.6-0.5-3.3s-0.8-1-1.5-1
				c-0.7,0-1.2,0.3-1.5,1C658.2,52.1,658,53.2,658,54.7z"/>
			<path class="st4" d="M672.9,54.7c0,2-0.3,3.4-1,4.4c-0.6,1-1.6,1.4-2.9,1.4c-1.3,0-2.2-0.5-2.9-1.5s-1-2.4-1-4.3
				c0-2,0.3-3.5,0.9-4.4c0.6-0.9,1.6-1.4,2.9-1.4c1.3,0,2.2,0.5,2.9,1.5C672.6,51.3,672.9,52.8,672.9,54.7z M667.1,54.7
				c0,1.5,0.2,2.6,0.5,3.3c0.3,0.7,0.8,1,1.5,1c0.7,0,1.2-0.3,1.5-1c0.3-0.7,0.5-1.8,0.5-3.3c0-1.5-0.2-2.6-0.5-3.3s-0.8-1-1.5-1
				c-0.7,0-1.2,0.3-1.5,1C667.2,52.1,667.1,53.2,667.1,54.7z"/>
			<path class="st4" d="M681.6,51.6c0,0.7-0.2,1.3-0.6,1.8s-1,0.8-1.8,1v0.1c0.9,0.1,1.6,0.4,2,0.8c0.5,0.5,0.7,1.1,0.7,1.8
				c0,1.1-0.4,1.9-1.2,2.5c-0.8,0.6-1.9,0.9-3.3,0.9c-1.3,0-2.3-0.2-3.2-0.6v-1.6c0.5,0.2,1,0.4,1.5,0.6c0.5,0.1,1.1,0.2,1.6,0.2
				c0.9,0,1.5-0.2,2-0.5c0.4-0.3,0.7-0.8,0.7-1.5c0-0.6-0.2-1-0.7-1.3s-1.2-0.4-2.3-0.4h-1v-1.5h1c1.8,0,2.7-0.6,2.7-1.9
				c0-0.5-0.2-0.9-0.5-1.1s-0.8-0.4-1.4-0.4c-0.4,0-0.8,0.1-1.2,0.2c-0.4,0.1-0.9,0.4-1.4,0.7l-0.9-1.3c1-0.8,2.2-1.1,3.6-1.1
				c1.1,0,2,0.2,2.7,0.7C681.2,50.1,681.6,50.8,681.6,51.6z"/>
			<path class="st4" d="M544.1,76.6c0-1.8,0.3-3.6,0.8-5.2s1.3-3,2.3-4.2h2.6c-1,1.3-1.7,2.8-2.2,4.4s-0.8,3.3-0.8,5
				c0,1.7,0.3,3.4,0.8,4.9c0.5,1.6,1.2,3,2.2,4.3h-2.6c-1-1.2-1.8-2.6-2.3-4.1C544.4,80.1,544.1,78.4,544.1,76.6z"/>
			<path class="st4" d="M562,82.4h-10.7v-2.2l3.8-3.9c1.1-1.2,1.9-2,2.2-2.4c0.3-0.4,0.6-0.9,0.8-1.2c0.2-0.4,0.2-0.8,0.2-1.2
				c0-0.6-0.2-1.1-0.5-1.4c-0.3-0.3-0.8-0.4-1.4-0.4c-0.6,0-1.2,0.1-1.7,0.4s-1.1,0.7-1.7,1.2l-1.8-2.1c0.8-0.6,1.4-1.1,1.9-1.4
				c0.5-0.3,1-0.5,1.6-0.6c0.6-0.1,1.2-0.2,2-0.2c1,0,1.8,0.2,2.5,0.5s1.3,0.8,1.7,1.5c0.4,0.6,0.6,1.3,0.6,2.1c0,0.7-0.1,1.4-0.4,2
				s-0.6,1.2-1.1,1.9c-0.5,0.6-1.4,1.6-2.7,2.8l-2,1.8v0.1h6.6V82.4z"/>
			<path class="st4" d="M569.1,72.7c1.5,0,2.6,0.4,3.5,1.2c0.9,0.8,1.3,2,1.3,3.4c0,1.7-0.5,3-1.6,3.9c-1.1,0.9-2.6,1.4-4.5,1.4
				c-1.7,0-3.1-0.3-4.1-0.8V79c0.5,0.3,1.2,0.5,1.9,0.7s1.4,0.3,2.1,0.3c2,0,3-0.8,3-2.4c0-1.5-1-2.3-3.1-2.3c-0.4,0-0.8,0-1.2,0.1
				s-0.8,0.2-1.1,0.2L564,75l0.6-7.8h8.3v2.7h-5.4l-0.3,3l0.4-0.1C567.9,72.7,568.5,72.7,569.1,72.7z"/>
			<path class="st4" d="M575.6,76c0-3,0.6-5.3,1.9-6.7c1.3-1.5,3.2-2.2,5.7-2.2c0.9,0,1.6,0.1,2,0.2v2.6c-0.6-0.1-1.2-0.2-1.8-0.2
				c-1.1,0-2,0.2-2.7,0.5c-0.7,0.3-1.2,0.8-1.6,1.5c-0.3,0.7-0.6,1.6-0.6,2.8h0.1c0.7-1.2,1.8-1.8,3.3-1.8c1.4,0,2.4,0.4,3.2,1.3
				c0.8,0.9,1.2,2,1.2,3.5c0,1.6-0.5,2.9-1.4,3.9c-0.9,1-2.2,1.4-3.8,1.4c-1.1,0-2.1-0.3-2.9-0.8c-0.8-0.5-1.5-1.3-1.9-2.3
				C575.9,78.6,575.6,77.4,575.6,76z M581.1,80.1c0.7,0,1.2-0.2,1.6-0.7c0.4-0.5,0.6-1.1,0.6-2c0-0.7-0.2-1.3-0.5-1.8
				c-0.3-0.4-0.9-0.6-1.6-0.6c-0.7,0-1.2,0.2-1.7,0.6c-0.5,0.4-0.7,0.9-0.7,1.5c0,0.8,0.2,1.5,0.7,2.1
				C579.9,79.8,580.5,80.1,581.1,80.1z"/>
			<path class="st4" d="M591.9,80.2c-0.4,1.4-1,3.1-1.8,5h-2.3c0.5-1.8,0.8-3.6,1.1-5.2h2.9L591.9,80.2z"/>
			<path class="st4" d="M599.4,67c1.5,0,2.6,0.3,3.5,1c0.9,0.7,1.3,1.6,1.3,2.7c0,0.8-0.2,1.5-0.6,2.1s-1.1,1.2-2.1,1.6
				c1.1,0.6,2,1.2,2.5,1.9s0.7,1.4,0.7,2.2c0,1.3-0.5,2.3-1.5,3s-2.3,1.1-3.9,1.1c-1.7,0-3-0.4-3.9-1.1c-1-0.7-1.4-1.7-1.4-3
				c0-0.9,0.2-1.6,0.7-2.3c0.5-0.7,1.2-1.3,2.2-1.8c-0.9-0.5-1.5-1.1-1.9-1.8c-0.4-0.6-0.6-1.3-0.6-2.1c0-1.1,0.5-2,1.4-2.7
				C596.8,67.3,597.9,67,599.4,67z M597,78.4c0,0.6,0.2,1.1,0.6,1.4c0.4,0.3,1,0.5,1.7,0.5c0.8,0,1.4-0.2,1.8-0.5
				c0.4-0.3,0.6-0.8,0.6-1.4c0-0.5-0.2-0.9-0.6-1.3c-0.4-0.4-1-0.8-1.9-1.3C597.8,76.5,597,77.3,597,78.4z M599.4,69.3
				c-0.5,0-1,0.1-1.3,0.4c-0.3,0.3-0.5,0.7-0.5,1.1c0,0.4,0.1,0.8,0.4,1.1s0.8,0.7,1.5,1c0.7-0.3,1.2-0.6,1.4-1s0.4-0.7,0.4-1.2
				c0-0.5-0.2-0.9-0.5-1.1S599.9,69.3,599.4,69.3z"/>
			<path class="st4" d="M617.3,79.3h-1.8v3.2h-3.2v-3.2h-6.5V77l6.7-9.8h3v9.6h1.8V79.3z M612.4,76.8v-2.6c0-0.4,0-1.1,0.1-1.9
				c0-0.8,0.1-1.3,0.1-1.4h-0.1c-0.3,0.6-0.6,1.1-0.9,1.7l-2.8,4.2H612.4z"/>
			<path class="st4" d="M628.6,70.6c0,1-0.3,1.8-0.9,2.4c-0.6,0.7-1.4,1.1-2.4,1.4v0.1c1.2,0.2,2.2,0.5,2.8,1.1c0.6,0.6,1,1.4,1,2.4
				c0,1.5-0.5,2.6-1.6,3.4c-1.1,0.8-2.6,1.2-4.6,1.2c-1.7,0-3.1-0.3-4.4-0.8v-2.7c0.6,0.3,1.2,0.5,2,0.7s1.4,0.3,2.1,0.3
				c1.1,0,1.8-0.2,2.4-0.5s0.8-0.9,0.8-1.7c0-0.7-0.3-1.2-0.9-1.5s-1.5-0.4-2.8-0.4h-1.2v-2.5h1.2c1.2,0,2-0.2,2.6-0.5
				s0.8-0.8,0.8-1.6c0-1.2-0.7-1.7-2.2-1.7c-0.5,0-1,0.1-1.5,0.2c-0.5,0.2-1.1,0.5-1.7,0.9l-1.5-2.2c1.4-1,3-1.5,5-1.5
				c1.6,0,2.8,0.3,3.7,1C628.1,68.6,628.6,69.5,628.6,70.6z"/>
			<path class="st4" d="M643.5,82.6c-1.4,0-2.4-0.5-3.2-1.5h-0.2c0.1,1,0.2,1.5,0.2,1.7v4.7h-3.2V70.8h2.6l0.4,1.5h0.1
				c0.7-1.2,1.8-1.7,3.3-1.7c1.4,0,2.5,0.5,3.2,1.6c0.8,1.1,1.2,2.5,1.2,4.4c0,1.2-0.2,2.3-0.5,3.2s-0.9,1.6-1.6,2.1
				C645.2,82.4,644.4,82.6,643.5,82.6z M642.6,73.1c-0.8,0-1.4,0.2-1.7,0.7c-0.4,0.5-0.5,1.3-0.6,2.4v0.3c0,1.3,0.2,2.1,0.6,2.7
				c0.4,0.5,1,0.8,1.8,0.8c1.4,0,2.1-1.2,2.1-3.5c0-1.1-0.2-2-0.5-2.6C643.9,73.4,643.3,73.1,642.6,73.1z"/>
			<path class="st4" d="M658,82.4l-0.6-1.6h-0.1c-0.5,0.7-1.1,1.1-1.7,1.4c-0.6,0.3-1.3,0.4-2.2,0.4c-1.1,0-2-0.3-2.6-1
				s-1-1.6-1-2.7c0-1.2,0.4-2.2,1.3-2.7c0.9-0.6,2.2-0.9,3.9-1l2-0.1v-0.5c0-1.2-0.6-1.8-1.8-1.8c-0.9,0-2,0.3-3.3,0.8l-1.1-2.1
				c1.3-0.7,2.8-1.1,4.5-1.1c1.6,0,2.8,0.3,3.6,1c0.8,0.7,1.3,1.7,1.3,3.1v7.8H658z M657.1,77l-1.2,0c-0.9,0-1.6,0.2-2.1,0.5
				c-0.5,0.3-0.7,0.8-0.7,1.4c0,0.9,0.5,1.3,1.5,1.3c0.7,0,1.3-0.2,1.8-0.6c0.4-0.4,0.7-1,0.7-1.7V77z"/>
			<path class="st4" d="M668.3,82.6c-3.6,0-5.4-2-5.4-6c0-2,0.5-3.5,1.5-4.5c1-1,2.4-1.6,4.2-1.6c1.3,0,2.6,0.3,3.6,0.8l-0.9,2.5
				c-0.5-0.2-1-0.4-1.4-0.5c-0.4-0.1-0.9-0.2-1.3-0.2c-1.7,0-2.5,1.2-2.5,3.5c0,2.3,0.8,3.4,2.5,3.4c0.6,0,1.2-0.1,1.7-0.2
				s1-0.4,1.6-0.8v2.7c-0.5,0.3-1,0.6-1.6,0.7C669.7,82.6,669.1,82.6,668.3,82.6z"/>
			<path class="st4" d="M674.4,67.8c0-1,0.6-1.6,1.7-1.6s1.7,0.5,1.7,1.6c0,0.5-0.1,0.9-0.4,1.2c-0.3,0.3-0.7,0.4-1.3,0.4
				C674.9,69.3,674.4,68.8,674.4,67.8z M677.7,82.4h-3.2V70.8h3.2V82.4z"/>
			<path class="st4" d="M686.3,82.6c-1.9,0-3.3-0.5-4.4-1.6c-1.1-1-1.6-2.5-1.6-4.4c0-2,0.5-3.5,1.5-4.5c1-1.1,2.3-1.6,4.1-1.6
				c1.6,0,2.9,0.5,3.8,1.4c0.9,0.9,1.4,2.2,1.4,3.9v1.5h-7.5c0,0.9,0.3,1.6,0.8,2.1c0.5,0.5,1.2,0.8,2.1,0.8c0.7,0,1.4-0.1,2-0.2
				c0.6-0.1,1.3-0.4,2-0.7v2.5c-0.6,0.3-1.2,0.5-1.8,0.6C688,82.6,687.2,82.6,686.3,82.6z M685.9,72.8c-0.7,0-1.2,0.2-1.6,0.6
				c-0.4,0.4-0.6,1-0.7,1.8h4.5c0-0.8-0.2-1.4-0.6-1.8S686.5,72.8,685.9,72.8z"/>
			<path class="st4" d="M704.4,82.4h-3.2v-6.8c0-0.8-0.1-1.5-0.4-1.9c-0.3-0.4-0.8-0.6-1.4-0.6c-0.9,0-1.5,0.3-1.9,0.9
				s-0.6,1.6-0.6,3v5.5h-3.2V70.8h2.4l0.4,1.5h0.2c0.4-0.6,0.8-1,1.5-1.3c0.6-0.3,1.3-0.4,2.1-0.4c1.4,0,2.4,0.4,3.1,1.1
				c0.7,0.7,1.1,1.8,1.1,3.2V82.4z"/>
			<path class="st4" d="M712.6,80.1c0.6,0,1.2-0.1,2-0.4v2.4c-0.8,0.4-1.8,0.5-2.9,0.5c-1.3,0-2.2-0.3-2.8-1
				c-0.6-0.6-0.9-1.6-0.9-2.9v-5.6h-1.5v-1.3l1.8-1.1l0.9-2.5h2v2.5h3.3v2.4h-3.3v5.6c0,0.5,0.1,0.8,0.4,1
				C711.8,80,712.2,80.1,712.6,80.1z"/>
			<path class="st4" d="M722.2,82.6c-1.9,0-3.3-0.5-4.4-1.6c-1.1-1-1.6-2.5-1.6-4.4c0-2,0.5-3.5,1.5-4.5c1-1.1,2.3-1.6,4.1-1.6
				c1.6,0,2.9,0.5,3.8,1.4c0.9,0.9,1.4,2.2,1.4,3.9v1.5h-7.5c0,0.9,0.3,1.6,0.8,2.1c0.5,0.5,1.2,0.8,2.1,0.8c0.7,0,1.4-0.1,2-0.2
				c0.6-0.1,1.3-0.4,2-0.7v2.5c-0.6,0.3-1.2,0.5-1.8,0.6C723.9,82.6,723.2,82.6,722.2,82.6z M721.8,72.8c-0.7,0-1.2,0.2-1.6,0.6
				c-0.4,0.4-0.6,1-0.7,1.8h4.5c0-0.8-0.2-1.4-0.6-1.8S722.5,72.8,721.8,72.8z"/>
			<path class="st4" d="M737.7,79c0,1.2-0.4,2.1-1.2,2.7c-0.8,0.6-2.1,0.9-3.7,0.9c-0.8,0-1.6-0.1-2.2-0.2c-0.6-0.1-1.2-0.3-1.7-0.5
				v-2.6c0.6,0.3,1.3,0.5,2,0.7c0.7,0.2,1.4,0.3,2,0.3c1.2,0,1.7-0.3,1.7-1c0-0.3-0.1-0.5-0.2-0.6c-0.2-0.2-0.4-0.3-0.8-0.5
				c-0.4-0.2-0.9-0.4-1.5-0.7c-0.9-0.4-1.6-0.7-2-1c-0.4-0.3-0.7-0.7-0.9-1.1c-0.2-0.4-0.3-0.9-0.3-1.5c0-1,0.4-1.8,1.2-2.4
				c0.8-0.6,1.9-0.9,3.4-0.9c1.4,0,2.8,0.3,4.1,0.9l-1,2.3c-0.6-0.2-1.1-0.5-1.6-0.6s-1-0.2-1.6-0.2c-0.9,0-1.4,0.3-1.4,0.8
				c0,0.3,0.2,0.5,0.5,0.7c0.3,0.2,1,0.5,2,0.9c0.9,0.4,1.6,0.7,2,1c0.4,0.3,0.7,0.7,0.9,1.1C737.6,77.9,737.7,78.4,737.7,79z"/>
			<path class="st4" d="M744.9,76.6c0,1.8-0.3,3.5-0.8,5.1c-0.5,1.6-1.3,3-2.3,4.1h-2.6c0.9-1.3,1.7-2.7,2.2-4.3
				c0.5-1.6,0.8-3.2,0.8-5c0-1.7-0.2-3.3-0.8-5s-1.2-3.1-2.2-4.4h2.6c1,1.2,1.8,2.6,2.3,4.2C744.7,73,744.9,74.8,744.9,76.6z"/>
		</g>
	</g>
	<g>
		<path class="st3" d="M71,50c0,0.6-0.2,1.2-0.6,1.6s-0.9,0.8-1.7,1v0c1.7,0.2,2.5,1,2.5,2.4c0,0.9-0.4,1.7-1.1,2.2
			c-0.7,0.5-1.8,0.8-3.1,0.8c-0.5,0-1,0-1.5-0.1s-1-0.2-1.5-0.4v-2.3c0.4,0.2,0.9,0.4,1.3,0.5c0.5,0.1,0.9,0.2,1.3,0.2
			c0.6,0,1-0.1,1.3-0.3c0.3-0.2,0.4-0.4,0.4-0.8c0-0.3-0.1-0.5-0.2-0.6c-0.1-0.1-0.4-0.3-0.7-0.3c-0.3-0.1-0.7-0.1-1.2-0.1h-0.6v-2
			h0.6c1.4,0,2.1-0.4,2.1-1.1c0-0.3-0.1-0.5-0.3-0.6c-0.2-0.1-0.5-0.2-0.8-0.2c-0.6,0-1.3,0.2-2,0.6l-1.1-1.8
			c0.5-0.4,1.1-0.6,1.6-0.8c0.6-0.2,1.2-0.2,1.9-0.2c1,0,1.9,0.2,2.5,0.6S71,49.3,71,50z"/>
	</g>
	<g>
		<path class="st3" d="M71.3,138H64v-1.8l2.5-2.5c0.7-0.7,1.2-1.2,1.4-1.5s0.4-0.5,0.5-0.7c0.1-0.2,0.1-0.4,0.1-0.6
			c0-0.3-0.1-0.5-0.3-0.6c-0.2-0.2-0.4-0.2-0.7-0.2c-0.3,0-0.6,0.1-1,0.3c-0.3,0.2-0.7,0.4-1.1,0.8l-1.5-1.7c0.5-0.5,1-0.8,1.3-1
			c0.4-0.2,0.7-0.4,1.2-0.5c0.4-0.1,0.9-0.2,1.4-0.2c0.7,0,1.2,0.1,1.7,0.3s0.9,0.6,1.2,1c0.3,0.4,0.4,0.9,0.4,1.4
			c0,0.4,0,0.8-0.1,1.1s-0.3,0.7-0.5,1c-0.2,0.3-0.5,0.7-0.8,1s-1.1,1-2.2,2v0.1h3.8V138z"/>
	</g>
	<g>
		<path class="st3" d="M70.1,215.6h-2.8v-5.3c0-0.6,0-1.2,0-1.8c-0.2,0.2-0.4,0.4-0.6,0.6l-1.1,0.9l-1.4-1.7l3.5-2.8h2.5V215.6z"/>
	</g>
	<g>
		<path class="st3" d="M71.3,282.9c0,1.8-0.3,3.1-0.9,3.9c-0.6,0.8-1.5,1.2-2.7,1.2c-1.2,0-2.1-0.4-2.7-1.3
			c-0.6-0.9-0.9-2.2-0.9-3.9c0-1.8,0.3-3.1,0.9-3.9c0.6-0.8,1.5-1.3,2.7-1.3c1.2,0,2.1,0.4,2.7,1.3C71,279.9,71.3,281.2,71.3,282.9z
			 M66.8,282.9c0,1.1,0.1,1.9,0.2,2.3c0.1,0.4,0.4,0.6,0.7,0.6c0.3,0,0.6-0.2,0.7-0.7s0.2-1.2,0.2-2.3c0-1.1-0.1-1.9-0.2-2.3
			c-0.1-0.4-0.4-0.7-0.7-0.7s-0.6,0.2-0.7,0.6C66.8,281,66.8,281.8,66.8,282.9z"/>
	</g>
	<g>
		<polyline class="st5" points="107,237.7 116.5,237.7 135.8,218.7 145.4,218.7 154.4,212.9 162.5,216.9 176.8,219 194.3,220.6 
			202,221.9 216.1,203 225.1,194.6 234.1,196.1 251.2,203.7 264.9,210.8 294,215.6 310.6,240.4 328.9,250.2 343.3,242 357.6,215.6 
			363.2,199.3 368.7,147.9 376.5,105.9 383.3,133.9 388.8,160.4 406.2,184.7 413.1,179 420.2,187.5 433.2,188.7 442.9,199.1 
			448.9,195.4 474.4,217.3 483.4,217.3 		"/>
		<circle class="st6" cx="109.1" cy="238.1" r="2.2"/>
		<circle class="st6" cx="117.5" cy="237" r="2.2"/>
		<circle class="st6" cx="128" cy="226.6" r="2.2"/>
		<circle class="st6" cx="136.6" cy="219.3" r="2.2"/>
		<circle class="st6" cx="145.1" cy="219.3" r="2.2"/>
		<circle class="st6" cx="154.3" cy="213.5" r="2.2"/>
		<circle class="st6" cx="160.9" cy="216.1" r="2.2"/>
		<circle class="st6" cx="169.4" cy="217.2" r="2.2"/>
		<circle class="st6" cx="178.6" cy="219.3" r="2.2"/>
		<circle class="st6" cx="186.6" cy="220.6" r="2.2"/>
		<circle class="st6" cx="193.4" cy="220.6" r="2.2"/>
		<circle class="st6" cx="201" cy="221.5" r="2.2"/>
		<circle class="st6" cx="209.5" cy="212.9" r="2.2"/>
		<circle class="st6" cx="218.1" cy="200.3" r="2.2"/>
		<circle class="st6" cx="225.3" cy="195.4" r="2.2"/>
		<circle class="st6" cx="233.4" cy="196" r="2.2"/>
		<circle class="st6" cx="240.9" cy="198.1" r="2.2"/>
		<circle class="st6" cx="249.5" cy="201.9" r="2.2"/>
		<circle class="st6" cx="256.4" cy="205.4" r="2.2"/>
		<circle class="st6" cx="262.5" cy="209.7" r="2.2"/>
		<circle class="st6" cx="269.6" cy="210.3" r="2.2"/>
		<circle class="st6" cx="277.8" cy="212.9" r="2.2"/>
		<circle class="st6" cx="284.3" cy="213.5" r="2.2"/>
		<circle class="st6" cx="293" cy="215.1" r="2.2"/>
		<circle class="st6" cx="303.7" cy="231.4" r="2.2"/>
		<circle class="st6" cx="309.9" cy="239.1" r="2.2"/>
		<circle class="st6" cx="316.9" cy="243.4" r="2.2"/>
		<circle class="st6" cx="328.9" cy="250.2" r="2.2"/>
		<circle class="st6" cx="335.3" cy="247" r="2.2"/>
		<circle class="st6" cx="342.5" cy="242.7" r="2.2"/>
		<circle class="st6" cx="348.6" cy="232.7" r="2.2"/>
		<circle class="st6" cx="356" cy="219.1" r="2.2"/>
		<circle class="st6" cx="368.6" cy="148.8" r="2.2"/>
		<circle class="st6" cx="376.2" cy="105.9" r="2.2"/>
		<circle class="st6" cx="382.6" cy="131" r="2.2"/>
		<circle class="st6" cx="412.9" cy="180.2" r="2.2"/>
		<circle class="st6" cx="420" cy="188" r="2.2"/>
		<circle class="st6" cx="442.6" cy="199.1" r="2.2"/>
		<circle class="st6" cx="449.9" cy="195.6" r="2.2"/>
		<circle class="st6" cx="458" cy="204.2" r="2.2"/>
		<circle class="st6" cx="474.5" cy="217.1" r="2.2"/>
		<circle class="st6" cx="482.9" cy="217.1" r="2.2"/>
	</g>
	<rect x="207.7" y="209.4" class="st7" width="3.6" height="2.7"/>
	<polyline class="st8" points="109.3,193 119.6,217.8 129.5,221.6 138.3,215.6 148.2,211.7 162.5,208.8 171.1,210.1 179,207.3 
		195.4,212.9 202.8,211.1 210,211.1 222.8,200.5 234.2,199.4 242.5,205.4 249.7,203.1 257.5,210 274.2,214.7 293.2,219 304.5,223.6 
		310.2,227.5 316.6,227.5 322.3,231.4 328.6,228.5 334.8,225.9 342.3,227 348.2,218.1 356.3,217.9 363.9,202.6 371.1,186.1 
		376.5,166.9 383.6,162.5 390.6,175.1 397.8,188.2 406.2,197 413.9,200.5 420.3,200.6 428.4,205.5 436.6,203.4 443,206.5 
		450.8,209.5 458.3,205.4 466.6,208 473.6,207.8 480.8,181.6 	"/>
	<rect x="297" y="219.9" class="st7" width="3.6" height="2.7"/>
	<rect x="302.7" y="222.7" class="st7" width="3.6" height="2.7"/>
	<rect x="308.1" y="226" class="st7" width="3.6" height="2.7"/>
	<rect x="314.8" y="226" class="st7" width="3.6" height="2.7"/>
	<rect x="320.4" y="230.1" class="st7" width="3.6" height="2.7"/>
	<rect x="327.4" y="227.4" class="st7" width="3.6" height="2.7"/>
	<rect x="333.5" y="224.6" class="st7" width="3.6" height="2.7"/>
	<rect x="340.7" y="225.2" class="st7" width="3.6" height="2.7"/>
	<rect x="346.5" y="217" class="st7" width="3.6" height="2.7"/>
	<rect x="361.2" y="203.5" class="st7" width="3.6" height="2.7"/>
	<rect x="368.6" y="185.7" class="st7" width="3.6" height="2.7"/>
	<rect x="374.6" y="166" class="st7" width="3.6" height="2.7"/>
	<rect x="381.4" y="161.7" class="st7" width="3.6" height="2.7"/>
	<rect x="388.3" y="173.4" class="st7" width="3.6" height="2.7"/>
	<rect x="395.9" y="186.5" class="st7" width="3.6" height="2.7"/>
	<rect x="404.1" y="195" class="st7" width="3.6" height="2.7"/>
	<rect x="411.8" y="199.1" class="st7" width="3.6" height="2.7"/>
	<rect x="418.1" y="199.1" class="st7" width="3.6" height="2.7"/>
	<rect x="426.1" y="204.2" class="st7" width="3.6" height="2.7"/>
	<rect x="434.5" y="202.2" class="st7" width="3.6" height="2.7"/>
	<rect x="441.4" y="205" class="st7" width="3.6" height="2.7"/>
	<rect x="449.2" y="207.7" class="st7" width="3.6" height="2.7"/>
	<rect x="464.9" y="206.3" class="st7" width="3.6" height="2.7"/>
	<rect x="471.8" y="206.3" class="st7" width="3.6" height="2.7"/>
	<rect x="478.9" y="180.2" class="st7" width="3.6" height="2.7"/>
	<g>
		<rect x="108" y="192.6" class="st7" width="3.6" height="2.7"/>
		<rect x="117.5" y="215.8" class="st7" width="3.6" height="2.7"/>
		<rect x="126.5" y="220.1" class="st7" width="3.6" height="2.7"/>
		<rect x="135.2" y="214.3" class="st7" width="3.6" height="2.7"/>
		<rect x="143.3" y="211.6" class="st7" width="3.6" height="2.7"/>
		<rect x="150.6" y="209.4" class="st7" width="3.6" height="2.7"/>
		<rect x="160" y="208" class="st7" width="3.6" height="2.7"/>
		<rect x="169.4" y="208.3" class="st7" width="3.6" height="2.7"/>
		<rect x="176.7" y="206.2" class="st7" width="3.6" height="2.7"/>
		<rect x="184.8" y="208.3" class="st7" width="3.6" height="2.7"/>
		<rect x="193.4" y="211.6" class="st7" width="3.6" height="2.7"/>
		<rect x="200.4" y="209.7" class="st7" width="3.6" height="2.7"/>
		<rect x="221.3" y="198.9" class="st7" width="3.6" height="2.7"/>
		<rect x="231.5" y="198.1" class="st7" width="3.6" height="2.7"/>
		<rect x="240.9" y="204" class="st7" width="3.6" height="2.7"/>
		<rect x="255.4" y="208" class="st7" width="3.6" height="2.7"/>
		<rect x="282.4" y="215.9" class="st7" width="3.6" height="2.7"/>
	</g>
	<linearGradient id="SVGID_1_" gradientUnits="userSpaceOnUse" x1="291.3997" y1="352.458" x2="291.3997" y2="329.2804">
		<stop  offset="0" style="stop-color:#E6E7E8"/>
		<stop  offset="0.1005" style="stop-color:#EAEBEC"/>
		<stop  offset="0.4311" style="stop-color:#F3F3F3"/>
		<stop  offset="1" style="stop-color:#F5F5F5"/>
	</linearGradient>
	<rect x="63.6" y="319.1" class="st9" width="455.7" height="30.6"/>
	<g>
		<g>
			<path class="st3" d="M78.1,342c-0.3,0-0.6,0-0.8-0.1V341c0.2,0.1,0.5,0.1,0.8,0.1c0.3,0,0.6-0.1,0.8-0.3c0.2-0.2,0.3-0.5,0.3-0.9
				v-7.7h0.9v7.6c0,0.7-0.2,1.2-0.5,1.6C79.2,341.8,78.8,342,78.1,342z"/>
			<path class="st3" d="M87,337c0,0.9-0.2,1.7-0.7,2.2s-1.1,0.8-2,0.8c-0.5,0-1-0.1-1.4-0.4c-0.4-0.2-0.7-0.6-0.9-1
				c-0.2-0.5-0.3-1-0.3-1.6c0-0.9,0.2-1.7,0.7-2.2c0.5-0.5,1.1-0.8,2-0.8c0.8,0,1.5,0.3,1.9,0.8C86.8,335.4,87,336.1,87,337z
				 M82.6,337c0,0.7,0.1,1.3,0.4,1.7c0.3,0.4,0.7,0.6,1.3,0.6c0.6,0,1-0.2,1.3-0.6s0.4-0.9,0.4-1.7c0-0.7-0.1-1.3-0.4-1.7
				c-0.3-0.4-0.7-0.6-1.3-0.6c-0.6,0-1,0.2-1.3,0.6C82.7,335.7,82.6,336.3,82.6,337z"/>
			<path class="st3" d="M92.5,339.9v-3.7c0-0.5-0.1-0.8-0.3-1.1c-0.2-0.2-0.5-0.3-1-0.3c-0.6,0-1.1,0.2-1.3,0.5
				c-0.3,0.3-0.4,0.9-0.4,1.6v3h-0.9v-8.2h0.9v2.5c0,0.3,0,0.5,0,0.7h0.1c0.2-0.3,0.4-0.5,0.7-0.7c0.3-0.2,0.7-0.2,1.1-0.2
				c0.7,0,1.2,0.2,1.6,0.5c0.4,0.3,0.5,0.9,0.5,1.6v3.8H92.5z"/>
			<path class="st3" d="M99.1,339.9v-3.7c0-0.5-0.1-0.8-0.3-1.1c-0.2-0.2-0.5-0.3-1-0.3c-0.6,0-1,0.2-1.3,0.5s-0.4,0.9-0.4,1.6v3
				h-0.9v-5.8h0.7l0.1,0.8h0c0.2-0.3,0.4-0.5,0.8-0.7c0.3-0.2,0.7-0.2,1.1-0.2c0.7,0,1.2,0.2,1.6,0.5s0.5,0.9,0.5,1.6v3.8H99.1z"/>
			<path class="st3" d="M105.5,338.3c0,0.5-0.2,1-0.6,1.2s-1,0.4-1.7,0.4c-0.8,0-1.4-0.1-1.8-0.4v-0.8c0.3,0.1,0.6,0.3,0.9,0.3
				s0.6,0.1,0.9,0.1c0.5,0,0.8-0.1,1.1-0.2c0.2-0.1,0.4-0.4,0.4-0.7c0-0.2-0.1-0.4-0.3-0.6c-0.2-0.2-0.6-0.3-1.1-0.6
				c-0.5-0.2-0.9-0.4-1.1-0.5s-0.4-0.3-0.5-0.5c-0.1-0.2-0.2-0.4-0.2-0.7c0-0.5,0.2-0.8,0.6-1.1s0.9-0.4,1.6-0.4
				c0.6,0,1.2,0.1,1.8,0.4l-0.3,0.7c-0.6-0.2-1.1-0.4-1.6-0.4c-0.4,0-0.7,0.1-0.9,0.2c-0.2,0.1-0.3,0.3-0.3,0.5c0,0.2,0,0.3,0.1,0.4
				c0.1,0.1,0.2,0.2,0.4,0.3s0.5,0.2,1,0.4c0.7,0.2,1.1,0.5,1.4,0.8C105.4,337.6,105.5,338,105.5,338.3z"/>
			<path class="st3" d="M108.8,339.3c0.2,0,0.3,0,0.4,0c0.1,0,0.3,0,0.3-0.1v0.7c-0.1,0-0.2,0.1-0.4,0.1s-0.4,0-0.5,0
				c-1.1,0-1.7-0.6-1.7-1.8v-3.4h-0.8v-0.4l0.8-0.4l0.4-1.2h0.5v1.3h1.7v0.7h-1.7v3.4c0,0.3,0.1,0.6,0.2,0.8
				C108.3,339.2,108.5,339.3,108.8,339.3z"/>
			<path class="st3" d="M115.7,337c0,0.9-0.2,1.7-0.7,2.2s-1.1,0.8-2,0.8c-0.5,0-1-0.1-1.4-0.4c-0.4-0.2-0.7-0.6-0.9-1
				c-0.2-0.5-0.3-1-0.3-1.6c0-0.9,0.2-1.7,0.7-2.2c0.5-0.5,1.1-0.8,2-0.8c0.8,0,1.5,0.3,1.9,0.8C115.5,335.4,115.7,336.1,115.7,337z
				 M111.3,337c0,0.7,0.1,1.3,0.4,1.7c0.3,0.4,0.7,0.6,1.3,0.6c0.6,0,1-0.2,1.3-0.6s0.4-0.9,0.4-1.7c0-0.7-0.1-1.3-0.4-1.7
				c-0.3-0.4-0.7-0.6-1.3-0.6c-0.6,0-1,0.2-1.3,0.6C111.5,335.7,111.3,336.3,111.3,337z"/>
			<path class="st3" d="M121.2,339.9v-3.7c0-0.5-0.1-0.8-0.3-1.1c-0.2-0.2-0.5-0.3-1-0.3c-0.6,0-1,0.2-1.3,0.5s-0.4,0.9-0.4,1.6v3
				h-0.9v-5.8h0.7l0.1,0.8h0c0.2-0.3,0.4-0.5,0.8-0.7c0.3-0.2,0.7-0.2,1.1-0.2c0.7,0,1.2,0.2,1.6,0.5s0.5,0.9,0.5,1.6v3.8H121.2z"/>
			<path class="st3" d="M132.9,339.9h-1l-4.2-6.5h0c0.1,0.8,0.1,1.5,0.1,2.1v4.4h-0.8v-7.7h1l4.2,6.4h0c0-0.1,0-0.4,0-0.9
				c0-0.5,0-0.9,0-1.1v-4.4h0.8V339.9z"/>
			<path class="st3" d="M141.7,339.9h-0.9l-1.6-5.2c-0.1-0.2-0.2-0.5-0.2-0.9c-0.1-0.3-0.1-0.6-0.1-0.6c-0.1,0.5-0.2,1-0.4,1.5
				l-1.5,5.1h-0.9l-2.1-7.7h0.9l1.2,4.8c0.2,0.7,0.3,1.3,0.4,1.8c0.1-0.6,0.2-1.3,0.4-1.9l1.4-4.7h1l1.5,4.7
				c0.2,0.5,0.3,1.2,0.4,1.8c0.1-0.5,0.2-1.1,0.4-1.8l1.2-4.8h0.9L141.7,339.9z"/>
			<path class="st3" d="M145.8,338.7l0.1,0.1c-0.1,0.4-0.2,0.8-0.4,1.2c-0.2,0.5-0.4,0.9-0.5,1.3h-0.7c0.1-0.4,0.2-0.8,0.3-1.4
				s0.2-1,0.2-1.3H145.8z"/>
			<path class="st3" d="M149.3,342c-0.3,0-0.6,0-0.8-0.1V341c0.2,0.1,0.5,0.1,0.8,0.1c0.3,0,0.6-0.1,0.8-0.3
				c0.2-0.2,0.3-0.5,0.3-0.9v-7.7h0.9v7.6c0,0.7-0.2,1.2-0.5,1.6C150.4,341.8,150,342,149.3,342z"/>
			<path class="st3" d="M158.2,337c0,0.9-0.2,1.7-0.7,2.2s-1.1,0.8-2,0.8c-0.5,0-1-0.1-1.4-0.4c-0.4-0.2-0.7-0.6-0.9-1
				c-0.2-0.5-0.3-1-0.3-1.6c0-0.9,0.2-1.7,0.7-2.2c0.5-0.5,1.1-0.8,2-0.8c0.8,0,1.5,0.3,1.9,0.8C157.9,335.4,158.2,336.1,158.2,337z
				 M153.8,337c0,0.7,0.1,1.3,0.4,1.7c0.3,0.4,0.7,0.6,1.3,0.6c0.6,0,1-0.2,1.3-0.6s0.4-0.9,0.4-1.7c0-0.7-0.1-1.3-0.4-1.7
				c-0.3-0.4-0.7-0.6-1.3-0.6c-0.6,0-1,0.2-1.3,0.6C153.9,335.7,153.8,336.3,153.8,337z"/>
			<path class="st3" d="M163.7,339.9v-3.7c0-0.5-0.1-0.8-0.3-1.1c-0.2-0.2-0.5-0.3-1-0.3c-0.6,0-1.1,0.2-1.3,0.5
				c-0.3,0.3-0.4,0.9-0.4,1.6v3h-0.9v-8.2h0.9v2.5c0,0.3,0,0.5,0,0.7h0.1c0.2-0.3,0.4-0.5,0.7-0.7c0.3-0.2,0.7-0.2,1.1-0.2
				c0.7,0,1.2,0.2,1.6,0.5c0.4,0.3,0.5,0.9,0.5,1.6v3.8H163.7z"/>
			<path class="st3" d="M170.3,339.9v-3.7c0-0.5-0.1-0.8-0.3-1.1c-0.2-0.2-0.5-0.3-1-0.3c-0.6,0-1,0.2-1.3,0.5s-0.4,0.9-0.4,1.6v3
				h-0.9v-5.8h0.7l0.1,0.8h0c0.2-0.3,0.4-0.5,0.8-0.7c0.3-0.2,0.7-0.2,1.1-0.2c0.7,0,1.2,0.2,1.6,0.5s0.5,0.9,0.5,1.6v3.8H170.3z"/>
			<path class="st3" d="M176.7,338.3c0,0.5-0.2,1-0.6,1.2s-1,0.4-1.7,0.4c-0.8,0-1.4-0.1-1.8-0.4v-0.8c0.3,0.1,0.6,0.3,0.9,0.3
				s0.6,0.1,0.9,0.1c0.5,0,0.8-0.1,1.1-0.2c0.2-0.1,0.4-0.4,0.4-0.7c0-0.2-0.1-0.4-0.3-0.6c-0.2-0.2-0.6-0.3-1.1-0.6
				c-0.5-0.2-0.9-0.4-1.1-0.5s-0.4-0.3-0.5-0.5c-0.1-0.2-0.2-0.4-0.2-0.7c0-0.5,0.2-0.8,0.6-1.1s0.9-0.4,1.6-0.4
				c0.6,0,1.2,0.1,1.8,0.4l-0.3,0.7c-0.6-0.2-1.1-0.4-1.6-0.4c-0.4,0-0.7,0.1-0.9,0.2c-0.2,0.1-0.3,0.3-0.3,0.5c0,0.2,0,0.3,0.1,0.4
				c0.1,0.1,0.2,0.2,0.4,0.3s0.5,0.2,1,0.4c0.7,0.2,1.1,0.5,1.4,0.8C176.6,337.6,176.7,338,176.7,338.3z"/>
			<path class="st3" d="M180,339.3c0.2,0,0.3,0,0.4,0c0.1,0,0.3,0,0.3-0.1v0.7c-0.1,0-0.2,0.1-0.4,0.1s-0.4,0-0.5,0
				c-1.1,0-1.7-0.6-1.7-1.8v-3.4h-0.8v-0.4l0.8-0.4l0.4-1.2h0.5v1.3h1.7v0.7h-1.7v3.4c0,0.3,0.1,0.6,0.2,0.8
				C179.5,339.2,179.7,339.3,180,339.3z"/>
			<path class="st3" d="M186.9,337c0,0.9-0.2,1.7-0.7,2.2s-1.1,0.8-2,0.8c-0.5,0-1-0.1-1.4-0.4c-0.4-0.2-0.7-0.6-0.9-1
				c-0.2-0.5-0.3-1-0.3-1.6c0-0.9,0.2-1.7,0.7-2.2c0.5-0.5,1.1-0.8,2-0.8c0.8,0,1.5,0.3,1.9,0.8C186.7,335.4,186.9,336.1,186.9,337z
				 M182.5,337c0,0.7,0.1,1.3,0.4,1.7c0.3,0.4,0.7,0.6,1.3,0.6c0.6,0,1-0.2,1.3-0.6s0.4-0.9,0.4-1.7c0-0.7-0.1-1.3-0.4-1.7
				c-0.3-0.4-0.7-0.6-1.3-0.6c-0.6,0-1,0.2-1.3,0.6C182.7,335.7,182.5,336.3,182.5,337z"/>
			<path class="st3" d="M192.4,339.9v-3.7c0-0.5-0.1-0.8-0.3-1.1c-0.2-0.2-0.5-0.3-1-0.3c-0.6,0-1,0.2-1.3,0.5s-0.4,0.9-0.4,1.6v3
				h-0.9v-5.8h0.7l0.1,0.8h0c0.2-0.3,0.4-0.5,0.8-0.7c0.3-0.2,0.7-0.2,1.1-0.2c0.7,0,1.2,0.2,1.6,0.5s0.5,0.9,0.5,1.6v3.8H192.4z"/>
			<path class="st3" d="M202.4,337.9c0,0.7-0.2,1.2-0.7,1.6s-1.2,0.6-2,0.6c-0.9,0-1.6-0.1-2.1-0.4v-0.9c0.3,0.1,0.7,0.2,1,0.3
				c0.4,0.1,0.7,0.1,1.1,0.1c0.6,0,1-0.1,1.4-0.3c0.3-0.2,0.5-0.5,0.5-0.9c0-0.3-0.1-0.5-0.2-0.7c-0.1-0.2-0.3-0.3-0.5-0.5
				c-0.3-0.1-0.6-0.3-1.1-0.5c-0.7-0.3-1.2-0.6-1.5-0.9s-0.5-0.8-0.5-1.4c0-0.6,0.2-1.1,0.7-1.4s1-0.5,1.8-0.5
				c0.8,0,1.5,0.1,2.1,0.4l-0.3,0.8c-0.6-0.3-1.3-0.4-1.9-0.4c-0.5,0-0.8,0.1-1.1,0.3c-0.3,0.2-0.4,0.5-0.4,0.8c0,0.3,0,0.5,0.1,0.7
				s0.3,0.3,0.5,0.5c0.2,0.1,0.6,0.3,1.1,0.5c0.8,0.3,1.4,0.6,1.7,0.9C202.2,336.9,202.4,337.3,202.4,337.9z"/>
			<path class="st3" d="M204,339.9v-7.7h0.9v6.9h3.4v0.8H204z"/>
			<path class="st3" d="M210.4,338.7l0.1,0.1c-0.1,0.4-0.2,0.8-0.4,1.2c-0.2,0.5-0.4,0.9-0.5,1.3h-0.7c0.1-0.4,0.2-0.8,0.3-1.4
				s0.2-1,0.2-1.3H210.4z"/>
			<path class="st3" d="M221,339.9h-1l-4.2-6.5h0c0.1,0.8,0.1,1.5,0.1,2.1v4.4H215v-7.7h1l4.2,6.4h0c0-0.1,0-0.4,0-0.9
				c0-0.5,0-0.9,0-1.1v-4.4h0.8V339.9z"/>
			<path class="st3" d="M228,337c0,0.9-0.2,1.7-0.7,2.2s-1.1,0.8-2,0.8c-0.5,0-1-0.1-1.4-0.4c-0.4-0.2-0.7-0.6-0.9-1
				c-0.2-0.5-0.3-1-0.3-1.6c0-0.9,0.2-1.7,0.7-2.2c0.5-0.5,1.1-0.8,2-0.8c0.8,0,1.5,0.3,1.9,0.8C227.8,335.4,228,336.1,228,337z
				 M223.6,337c0,0.7,0.1,1.3,0.4,1.7c0.3,0.4,0.7,0.6,1.3,0.6c0.6,0,1-0.2,1.3-0.6s0.4-0.9,0.4-1.7c0-0.7-0.1-1.3-0.4-1.7
				c-0.3-0.4-0.7-0.6-1.3-0.6c-0.6,0-1,0.2-1.3,0.6C223.8,335.7,223.6,336.3,223.6,337z"/>
			<path class="st3" d="M232.2,334c0.3,0,0.5,0,0.7,0.1l-0.1,0.8c-0.2-0.1-0.5-0.1-0.6-0.1c-0.5,0-0.9,0.2-1.2,0.6
				c-0.3,0.4-0.5,0.9-0.5,1.4v3.1h-0.9v-5.8h0.7l0.1,1.1h0c0.2-0.4,0.5-0.7,0.8-0.9S231.8,334,232.2,334z"/>
			<path class="st3" d="M241.3,339.9v-3.8c0-0.5-0.1-0.8-0.3-1c-0.2-0.2-0.5-0.3-0.9-0.3c-0.5,0-0.9,0.2-1.2,0.5
				c-0.3,0.3-0.4,0.8-0.4,1.4v3.2h-0.9v-3.8c0-0.5-0.1-0.8-0.3-1c-0.2-0.2-0.5-0.3-0.9-0.3c-0.5,0-1,0.2-1.2,0.5
				c-0.3,0.3-0.4,0.9-0.4,1.6v3H234v-5.8h0.7l0.1,0.8h0c0.2-0.3,0.4-0.5,0.7-0.7s0.6-0.2,1-0.2c0.9,0,1.5,0.3,1.8,1h0
				c0.2-0.3,0.4-0.5,0.7-0.7s0.7-0.3,1.1-0.3c0.7,0,1.1,0.2,1.5,0.5s0.5,0.9,0.5,1.6v3.8H241.3z"/>
			<path class="st3" d="M247.6,339.9l-0.2-0.8h0c-0.3,0.4-0.6,0.6-0.9,0.7s-0.6,0.2-1.1,0.2c-0.6,0-1-0.1-1.3-0.4
				c-0.3-0.3-0.5-0.7-0.5-1.3c0-1.2,0.9-1.8,2.8-1.8l1,0v-0.4c0-0.5-0.1-0.8-0.3-1c-0.2-0.2-0.5-0.3-0.9-0.3c-0.5,0-1,0.1-1.6,0.4
				l-0.3-0.7c0.3-0.2,0.6-0.3,0.9-0.4c0.3-0.1,0.7-0.1,1-0.1c0.7,0,1.2,0.2,1.5,0.5c0.3,0.3,0.5,0.8,0.5,1.5v3.9H247.6z
				 M245.6,339.3c0.5,0,1-0.1,1.3-0.4c0.3-0.3,0.5-0.7,0.5-1.3v-0.5l-0.9,0c-0.7,0-1.2,0.1-1.5,0.3s-0.5,0.5-0.5,0.9
				c0,0.3,0.1,0.6,0.3,0.7C245,339.2,245.2,339.3,245.6,339.3z"/>
			<path class="st3" d="M254,339.9v-3.7c0-0.5-0.1-0.8-0.3-1.1c-0.2-0.2-0.5-0.3-1-0.3c-0.6,0-1,0.2-1.3,0.5s-0.4,0.9-0.4,1.6v3H250
				v-5.8h0.7l0.1,0.8h0c0.2-0.3,0.4-0.5,0.8-0.7c0.3-0.2,0.7-0.2,1.1-0.2c0.7,0,1.2,0.2,1.6,0.5s0.5,0.9,0.5,1.6v3.8H254z"/>
			<path class="st3" d="M263,335.9h2.6v3.8c-0.4,0.1-0.8,0.2-1.2,0.3c-0.4,0.1-0.9,0.1-1.5,0.1c-1.2,0-2.1-0.3-2.7-1
				c-0.7-0.7-1-1.7-1-2.9c0-0.8,0.2-1.5,0.5-2.1c0.3-0.6,0.8-1.1,1.4-1.4s1.3-0.5,2.1-0.5c0.8,0,1.6,0.2,2.3,0.5l-0.3,0.8
				c-0.7-0.3-1.4-0.4-2-0.4c-0.9,0-1.7,0.3-2.2,0.8c-0.5,0.6-0.8,1.3-0.8,2.3c0,1,0.3,1.8,0.8,2.4c0.5,0.5,1.3,0.8,2.2,0.8
				c0.5,0,1.1-0.1,1.6-0.2v-2.4H263V335.9z"/>
			<path class="st3" d="M270,334c0.3,0,0.5,0,0.7,0.1l-0.1,0.8c-0.2-0.1-0.5-0.1-0.6-0.1c-0.5,0-0.9,0.2-1.2,0.6
				c-0.3,0.4-0.5,0.9-0.5,1.4v3.1h-0.9v-5.8h0.7l0.1,1.1h0c0.2-0.4,0.5-0.7,0.8-0.9S269.6,334,270,334z"/>
			<path class="st3" d="M272.6,338.7l0.1,0.1c-0.1,0.4-0.2,0.8-0.4,1.2c-0.2,0.5-0.4,0.9-0.5,1.3h-0.7c0.1-0.4,0.2-0.8,0.3-1.4
				s0.2-1,0.2-1.3H272.6z"/>
			<path class="st3" d="M279.6,340c-0.9,0-1.5-0.3-2-0.8s-0.7-1.2-0.7-2.2c0-0.9,0.2-1.7,0.7-2.2c0.5-0.5,1.1-0.8,1.8-0.8
				c0.7,0,1.3,0.2,1.7,0.7s0.6,1.1,0.6,1.9v0.6h-4c0,0.7,0.2,1.2,0.5,1.5c0.3,0.4,0.8,0.5,1.4,0.5c0.6,0,1.2-0.1,1.8-0.4v0.8
				c-0.3,0.1-0.6,0.2-0.9,0.3C280.3,340,280,340,279.6,340z M279.4,334.8c-0.5,0-0.8,0.2-1.1,0.5c-0.3,0.3-0.4,0.7-0.5,1.3h3
				c0-0.6-0.1-1-0.4-1.3C280.2,334.9,279.8,334.8,279.4,334.8z"/>
			<path class="st3" d="M286.8,339.9l-0.2-0.8h0c-0.3,0.4-0.6,0.6-0.9,0.7s-0.6,0.2-1.1,0.2c-0.6,0-1-0.1-1.3-0.4
				c-0.3-0.3-0.5-0.7-0.5-1.3c0-1.2,0.9-1.8,2.8-1.8l1,0v-0.4c0-0.5-0.1-0.8-0.3-1c-0.2-0.2-0.5-0.3-0.9-0.3c-0.5,0-1,0.1-1.6,0.4
				l-0.3-0.7c0.3-0.2,0.6-0.3,0.9-0.4c0.3-0.1,0.7-0.1,1-0.1c0.7,0,1.2,0.2,1.5,0.5c0.3,0.3,0.5,0.8,0.5,1.5v3.9H286.8z
				 M284.8,339.3c0.5,0,1-0.1,1.3-0.4c0.3-0.3,0.5-0.7,0.5-1.3v-0.5l-0.9,0c-0.7,0-1.2,0.1-1.5,0.3s-0.5,0.5-0.5,0.9
				c0,0.3,0.1,0.6,0.3,0.7C284.2,339.2,284.5,339.3,284.8,339.3z"/>
			<path class="st3" d="M290.1,339.9h-0.9v-8.2h0.9V339.9z"/>
			<path class="st3" d="M291.9,339.4c0-0.2,0.1-0.4,0.2-0.5c0.1-0.1,0.3-0.2,0.5-0.2c0.2,0,0.4,0.1,0.5,0.2c0.1,0.1,0.2,0.3,0.2,0.5
				c0,0.2-0.1,0.4-0.2,0.5s-0.3,0.2-0.5,0.2c-0.2,0-0.3-0.1-0.4-0.2C291.9,339.8,291.9,339.6,291.9,339.4z"/>
			<path class="st3" d="M296.7,342c-0.3,0-0.6,0-0.8-0.1V341c0.2,0.1,0.5,0.1,0.8,0.1c0.3,0,0.6-0.1,0.8-0.3
				c0.2-0.2,0.3-0.5,0.3-0.9v-7.7h0.9v7.6c0,0.7-0.2,1.2-0.5,1.6C297.8,341.8,297.3,342,296.7,342z"/>
			<path class="st3" d="M308.3,339.9l-1-2.5h-3.1l-0.9,2.5h-0.9l3-7.7h0.8l3,7.7H308.3z M307.1,336.7l-0.9-2.4
				c-0.1-0.3-0.2-0.7-0.4-1.1c-0.1,0.3-0.2,0.7-0.3,1.1l-0.9,2.4H307.1z"/>
			<path class="st3" d="M311.1,339.9h-0.9v-8.2h0.9V339.9z"/>
			<path class="st3" d="M313.8,339.9h-0.9v-8.2h0.9V339.9z"/>
			<path class="st3" d="M318.1,340c-0.9,0-1.5-0.3-2-0.8s-0.7-1.2-0.7-2.2c0-0.9,0.2-1.7,0.7-2.2c0.5-0.5,1.1-0.8,1.8-0.8
				c0.7,0,1.3,0.2,1.7,0.7s0.6,1.1,0.6,1.9v0.6h-4c0,0.7,0.2,1.2,0.5,1.5c0.3,0.4,0.8,0.5,1.4,0.5c0.6,0,1.2-0.1,1.8-0.4v0.8
				c-0.3,0.1-0.6,0.2-0.9,0.3C318.8,340,318.5,340,318.1,340z M317.9,334.8c-0.5,0-0.8,0.2-1.1,0.5c-0.3,0.3-0.4,0.7-0.5,1.3h3
				c0-0.6-0.1-1-0.4-1.3C318.7,334.9,318.3,334.8,317.9,334.8z"/>
			<path class="st3" d="M324.3,334c0.3,0,0.5,0,0.7,0.1l-0.1,0.8c-0.2-0.1-0.5-0.1-0.6-0.1c-0.5,0-0.9,0.2-1.2,0.6
				c-0.3,0.4-0.5,0.9-0.5,1.4v3.1h-0.9v-5.8h0.7l0.1,1.1h0c0.2-0.4,0.5-0.7,0.8-0.9S324,334,324.3,334z"/>
			<path class="st3" d="M330.8,334.1v0.6l-1.1,0.1c0.1,0.1,0.2,0.3,0.3,0.5c0.1,0.2,0.1,0.4,0.1,0.7c0,0.6-0.2,1-0.6,1.4
				c-0.4,0.3-0.9,0.5-1.6,0.5c-0.2,0-0.3,0-0.5,0c-0.4,0.2-0.6,0.4-0.6,0.7c0,0.2,0.1,0.3,0.2,0.4c0.1,0.1,0.4,0.1,0.7,0.1h1
				c0.6,0,1.1,0.1,1.4,0.4c0.3,0.3,0.5,0.6,0.5,1.2c0,0.6-0.3,1.1-0.8,1.5c-0.5,0.3-1.3,0.5-2.2,0.5c-0.8,0-1.3-0.1-1.7-0.4
				c-0.4-0.3-0.6-0.7-0.6-1.2c0-0.4,0.1-0.7,0.3-0.9c0.2-0.3,0.5-0.4,0.9-0.5c-0.1-0.1-0.3-0.2-0.4-0.3c-0.1-0.1-0.2-0.3-0.2-0.5
				c0-0.2,0.1-0.4,0.2-0.6c0.1-0.2,0.3-0.3,0.5-0.5c-0.3-0.1-0.5-0.3-0.7-0.6c-0.2-0.3-0.3-0.6-0.3-1c0-0.6,0.2-1.1,0.6-1.5
				s0.9-0.5,1.6-0.5c0.3,0,0.6,0,0.8,0.1H330.8z M326.2,340.9c0,0.3,0.1,0.5,0.4,0.7c0.3,0.2,0.6,0.2,1.1,0.2c0.7,0,1.3-0.1,1.6-0.3
				s0.5-0.5,0.5-0.9c0-0.3-0.1-0.5-0.3-0.7c-0.2-0.1-0.6-0.2-1.1-0.2h-1c-0.4,0-0.7,0.1-0.9,0.3
				C326.3,340.3,326.2,340.5,326.2,340.9z M326.7,336c0,0.4,0.1,0.7,0.3,0.9c0.2,0.2,0.5,0.3,1,0.3c0.9,0,1.3-0.4,1.3-1.2
				c0-0.9-0.4-1.3-1.3-1.3c-0.4,0-0.7,0.1-0.9,0.3S326.7,335.6,326.7,336z"/>
			<path class="st3" d="M331.1,334.1h0.9l1.3,3.3c0.3,0.8,0.5,1.3,0.5,1.6h0c0-0.2,0.1-0.5,0.3-0.9c0.1-0.4,0.6-1.8,1.4-4h0.9
				l-2.5,6.6c-0.2,0.7-0.5,1.1-0.9,1.4c-0.3,0.3-0.7,0.4-1.2,0.4c-0.3,0-0.5,0-0.8-0.1v-0.7c0.2,0,0.4,0.1,0.6,0.1
				c0.6,0,1-0.3,1.3-1l0.3-0.8L331.1,334.1z"/>
			<path class="st3" d="M343.7,332.9c-0.8,0-1.5,0.3-2,0.8c-0.5,0.6-0.7,1.3-0.7,2.3c0,1,0.2,1.8,0.7,2.3c0.5,0.6,1.1,0.8,2,0.8
				c0.5,0,1.2-0.1,1.8-0.3v0.8c-0.5,0.2-1.2,0.3-2,0.3c-1.1,0-2-0.3-2.6-1c-0.6-0.7-0.9-1.7-0.9-2.9c0-0.8,0.1-1.5,0.4-2.1
				c0.3-0.6,0.7-1.1,1.3-1.4s1.2-0.5,2-0.5c0.8,0,1.5,0.1,2.1,0.4l-0.4,0.8C344.9,333,344.3,332.9,343.7,332.9z"/>
			<path class="st3" d="M348,339.9h-0.9v-8.2h0.9V339.9z"/>
			<path class="st3" d="M349.8,332.6c0-0.2,0-0.3,0.1-0.4c0.1-0.1,0.2-0.1,0.4-0.1c0.1,0,0.3,0,0.4,0.1c0.1,0.1,0.2,0.2,0.2,0.4
				s-0.1,0.3-0.2,0.4c-0.1,0.1-0.2,0.1-0.4,0.1c-0.1,0-0.3,0-0.4-0.1S349.8,332.8,349.8,332.6z M350.7,339.9h-0.9v-5.8h0.9V339.9z"
				/>
			<path class="st3" d="M356.5,339.9v-3.7c0-0.5-0.1-0.8-0.3-1.1c-0.2-0.2-0.5-0.3-1-0.3c-0.6,0-1,0.2-1.3,0.5s-0.4,0.9-0.4,1.6v3
				h-0.9v-5.8h0.7l0.1,0.8h0c0.2-0.3,0.4-0.5,0.8-0.7c0.3-0.2,0.7-0.2,1.1-0.2c0.7,0,1.2,0.2,1.6,0.5s0.5,0.9,0.5,1.6v3.8H356.5z"/>
			<path class="st3" d="M362.1,339.9v-7.7h0.9v7.7H362.1z"/>
			<path class="st3" d="M372.4,339.9v-3.8c0-0.5-0.1-0.8-0.3-1c-0.2-0.2-0.5-0.3-0.9-0.3c-0.5,0-0.9,0.2-1.2,0.5
				c-0.3,0.3-0.4,0.8-0.4,1.4v3.2h-0.9v-3.8c0-0.5-0.1-0.8-0.3-1c-0.2-0.2-0.5-0.3-0.9-0.3c-0.5,0-1,0.2-1.2,0.5
				c-0.3,0.3-0.4,0.9-0.4,1.6v3H365v-5.8h0.7l0.1,0.8h0c0.2-0.3,0.4-0.5,0.7-0.7s0.6-0.2,1-0.2c0.9,0,1.5,0.3,1.8,1h0
				c0.2-0.3,0.4-0.5,0.7-0.7s0.7-0.3,1.1-0.3c0.7,0,1.1,0.2,1.5,0.5s0.5,0.9,0.5,1.6v3.8H372.4z"/>
			<path class="st3" d="M382.4,339.9v-3.8c0-0.5-0.1-0.8-0.3-1c-0.2-0.2-0.5-0.3-0.9-0.3c-0.5,0-0.9,0.2-1.2,0.5
				c-0.3,0.3-0.4,0.8-0.4,1.4v3.2h-0.9v-3.8c0-0.5-0.1-0.8-0.3-1c-0.2-0.2-0.5-0.3-0.9-0.3c-0.5,0-1,0.2-1.2,0.5
				c-0.3,0.3-0.4,0.9-0.4,1.6v3h-0.9v-5.8h0.7l0.1,0.8h0c0.2-0.3,0.4-0.5,0.7-0.7s0.6-0.2,1-0.2c0.9,0,1.5,0.3,1.8,1h0
				c0.2-0.3,0.4-0.5,0.7-0.7s0.7-0.3,1.1-0.3c0.7,0,1.1,0.2,1.5,0.5s0.5,0.9,0.5,1.6v3.8H382.4z"/>
			<path class="st3" d="M385.9,334.1v3.8c0,0.5,0.1,0.8,0.3,1.1c0.2,0.2,0.6,0.3,1,0.3c0.6,0,1-0.2,1.3-0.5c0.3-0.3,0.4-0.9,0.4-1.6
				v-3h0.9v5.8h-0.7l-0.1-0.8h0c-0.2,0.3-0.4,0.5-0.7,0.7s-0.7,0.2-1.1,0.2c-0.7,0-1.2-0.2-1.6-0.5s-0.5-0.9-0.5-1.6v-3.8H385.9z"/>
			<path class="st3" d="M395.7,339.9v-3.7c0-0.5-0.1-0.8-0.3-1.1c-0.2-0.2-0.5-0.3-1-0.3c-0.6,0-1,0.2-1.3,0.5s-0.4,0.9-0.4,1.6v3
				h-0.9v-5.8h0.7l0.1,0.8h0c0.2-0.3,0.4-0.5,0.8-0.7c0.3-0.2,0.7-0.2,1.1-0.2c0.7,0,1.2,0.2,1.6,0.5s0.5,0.9,0.5,1.6v3.8H395.7z"/>
			<path class="st3" d="M403.3,337c0,0.9-0.2,1.7-0.7,2.2s-1.1,0.8-2,0.8c-0.5,0-1-0.1-1.4-0.4c-0.4-0.2-0.7-0.6-0.9-1
				c-0.2-0.5-0.3-1-0.3-1.6c0-0.9,0.2-1.7,0.7-2.2c0.5-0.5,1.1-0.8,2-0.8c0.8,0,1.5,0.3,1.9,0.8C403.1,335.4,403.3,336.1,403.3,337z
				 M398.9,337c0,0.7,0.1,1.3,0.4,1.7c0.3,0.4,0.7,0.6,1.3,0.6c0.6,0,1-0.2,1.3-0.6s0.4-0.9,0.4-1.7c0-0.7-0.1-1.3-0.4-1.7
				c-0.3-0.4-0.7-0.6-1.3-0.6c-0.6,0-1,0.2-1.3,0.6C399.1,335.7,398.9,336.3,398.9,337z"/>
			<path class="st3" d="M405.8,339.9h-0.9v-8.2h0.9V339.9z"/>
			<path class="st3" d="M407.5,339.4c0-0.2,0.1-0.4,0.2-0.5c0.1-0.1,0.3-0.2,0.5-0.2c0.2,0,0.4,0.1,0.5,0.2c0.1,0.1,0.2,0.3,0.2,0.5
				c0,0.2-0.1,0.4-0.2,0.5s-0.3,0.2-0.5,0.2c-0.2,0-0.3-0.1-0.4-0.2C407.5,339.8,407.5,339.6,407.5,339.4z"/>
			<path class="st3" d="M418,339.9h-5.1v-0.8l2-2c0.6-0.6,1-1.1,1.2-1.3c0.2-0.3,0.3-0.5,0.4-0.8c0.1-0.3,0.1-0.5,0.1-0.8
				c0-0.4-0.1-0.7-0.4-1c-0.2-0.2-0.6-0.4-1-0.4c-0.3,0-0.6,0.1-0.9,0.2c-0.3,0.1-0.6,0.3-1,0.6L413,333c0.7-0.6,1.5-0.9,2.3-0.9
				c0.7,0,1.3,0.2,1.7,0.6c0.4,0.4,0.6,0.9,0.6,1.5c0,0.5-0.1,1-0.4,1.5s-0.8,1.1-1.5,1.8l-1.7,1.7v0h4V339.9z"/>
			<path class="st3" d="M424.2,336.1c0,1.3-0.2,2.3-0.6,3s-1.1,1-1.9,1c-0.8,0-1.5-0.3-1.9-1c-0.4-0.7-0.6-1.7-0.6-3
				c0-1.3,0.2-2.3,0.6-3c0.4-0.7,1.1-1,1.9-1c0.8,0,1.5,0.3,1.9,1C424,333.8,424.2,334.8,424.2,336.1z M420,336.1
				c0,1.1,0.1,1.9,0.4,2.5s0.7,0.8,1.3,0.8c0.6,0,1-0.3,1.3-0.8c0.3-0.5,0.4-1.3,0.4-2.4c0-1.1-0.1-1.9-0.4-2.4
				c-0.3-0.5-0.7-0.8-1.3-0.8c-0.6,0-1,0.3-1.3,0.8C420.1,334.1,420,334.9,420,336.1z"/>
			<path class="st3" d="M430.4,336.1c0,1.3-0.2,2.3-0.6,3s-1.1,1-1.9,1c-0.8,0-1.5-0.3-1.9-1c-0.4-0.7-0.6-1.7-0.6-3
				c0-1.3,0.2-2.3,0.6-3c0.4-0.7,1.1-1,1.9-1c0.8,0,1.5,0.3,1.9,1C430.1,333.8,430.4,334.8,430.4,336.1z M426.1,336.1
				c0,1.1,0.1,1.9,0.4,2.5s0.7,0.8,1.3,0.8c0.6,0,1-0.3,1.3-0.8c0.3-0.5,0.4-1.3,0.4-2.4c0-1.1-0.1-1.9-0.4-2.4
				c-0.3-0.5-0.7-0.8-1.3-0.8c-0.6,0-1,0.3-1.3,0.8C426.3,334.1,426.1,334.9,426.1,336.1z"/>
			<path class="st3" d="M431.5,336.6c0-1.5,0.3-2.6,0.9-3.4s1.5-1.1,2.6-1.1c0.4,0,0.7,0,0.9,0.1v0.8c-0.3-0.1-0.6-0.1-0.9-0.1
				c-0.8,0-1.5,0.3-1.9,0.8c-0.4,0.5-0.7,1.3-0.7,2.4h0.1c0.4-0.6,1-0.9,1.8-0.9c0.7,0,1.2,0.2,1.6,0.6c0.4,0.4,0.6,1,0.6,1.7
				c0,0.8-0.2,1.4-0.7,1.9c-0.4,0.5-1,0.7-1.8,0.7c-0.8,0-1.4-0.3-1.9-0.9S431.5,337.7,431.5,336.6z M434.1,339.3
				c0.5,0,0.9-0.2,1.2-0.5c0.3-0.3,0.4-0.8,0.4-1.4c0-0.5-0.1-0.9-0.4-1.2s-0.6-0.4-1.1-0.4c-0.3,0-0.6,0.1-0.9,0.2
				c-0.3,0.1-0.5,0.3-0.6,0.5s-0.2,0.5-0.2,0.7c0,0.4,0.1,0.7,0.2,1c0.1,0.3,0.3,0.6,0.6,0.7S433.8,339.3,434.1,339.3z"/>
			<path class="st3" d="M438.9,338.7l0.1,0.1c-0.1,0.4-0.2,0.8-0.4,1.2c-0.2,0.5-0.4,0.9-0.5,1.3h-0.7c0.1-0.4,0.2-0.8,0.3-1.4
				s0.2-1,0.2-1.3H438.9z M437.8,334.7c0-0.5,0.2-0.7,0.6-0.7c0.4,0,0.6,0.2,0.6,0.7c0,0.2-0.1,0.4-0.2,0.5
				c-0.1,0.1-0.3,0.2-0.5,0.2c-0.2,0-0.4-0.1-0.5-0.2C437.9,335.1,437.8,334.9,437.8,334.7z"/>
			<path class="st3" d="M443.7,339.9h-0.9v-5.5c0-0.5,0-0.9,0-1.3c-0.1,0.1-0.2,0.2-0.2,0.2c-0.1,0.1-0.5,0.4-1.3,1l-0.5-0.6l2-1.6
				h0.7V339.9z"/>
			<path class="st3" d="M449.9,339.9H449v-5.5c0-0.5,0-0.9,0-1.3c-0.1,0.1-0.2,0.2-0.2,0.2c-0.1,0.1-0.5,0.4-1.3,1l-0.5-0.6l2-1.6
				h0.7V339.9z"/>
			<path class="st3" d="M453.8,339.9l3.2-6.9h-4.2v-0.8h5.1v0.7l-3.2,7H453.8z"/>
			<path class="st3" d="M462.1,334.7c0-0.5,0.2-0.7,0.6-0.7c0.4,0,0.6,0.2,0.6,0.7c0,0.2-0.1,0.4-0.2,0.5s-0.3,0.2-0.5,0.2
				c-0.2,0-0.3-0.1-0.4-0.2C462.1,335.1,462.1,335,462.1,334.7z M462.1,339.4c0-0.2,0.1-0.4,0.2-0.5c0.1-0.1,0.3-0.2,0.5-0.2
				c0.2,0,0.4,0.1,0.5,0.2c0.1,0.1,0.2,0.3,0.2,0.5c0,0.2-0.1,0.4-0.2,0.5s-0.3,0.2-0.5,0.2c-0.2,0-0.3-0.1-0.4-0.2
				C462.1,339.8,462.1,339.6,462.1,339.4z"/>
			<path class="st3" d="M469.9,335.2c0.8,0,1.5,0.2,1.9,0.6c0.5,0.4,0.7,1,0.7,1.7c0,0.8-0.3,1.4-0.8,1.9c-0.5,0.5-1.2,0.7-2.1,0.7
				c-0.9,0-1.5-0.1-2-0.4v-0.8c0.2,0.2,0.6,0.3,0.9,0.4c0.4,0.1,0.7,0.1,1.1,0.1c0.6,0,1.1-0.1,1.4-0.4c0.3-0.3,0.5-0.7,0.5-1.3
				c0-1.1-0.7-1.6-2-1.6c-0.3,0-0.8,0.1-1.3,0.2l-0.5-0.3l0.3-3.6h3.8v0.8h-3.1l-0.2,2.3C469.1,335.3,469.5,335.2,469.9,335.2z"/>
			<path class="st3" d="M476.1,335.2c0.8,0,1.5,0.2,1.9,0.6c0.5,0.4,0.7,1,0.7,1.7c0,0.8-0.3,1.4-0.8,1.9c-0.5,0.5-1.2,0.7-2.1,0.7
				c-0.9,0-1.5-0.1-2-0.4v-0.8c0.2,0.2,0.6,0.3,0.9,0.4c0.4,0.1,0.7,0.1,1.1,0.1c0.6,0,1.1-0.1,1.4-0.4c0.3-0.3,0.5-0.7,0.5-1.3
				c0-1.1-0.7-1.6-2-1.6c-0.3,0-0.8,0.1-1.3,0.2l-0.5-0.3l0.3-3.6h3.8v0.8h-3.1l-0.2,2.3C475.3,335.3,475.7,335.2,476.1,335.2z"/>
			<path class="st3" d="M480.8,339.9l3.2-6.9h-4.2v-0.8h5.1v0.7l-3.2,7H480.8z"/>
			<path class="st3" d="M485.9,337.4v-0.8h2.6v0.8H485.9z"/>
			<path class="st3" d="M491.9,335.2c0.8,0,1.5,0.2,1.9,0.6c0.5,0.4,0.7,1,0.7,1.7c0,0.8-0.3,1.4-0.8,1.9c-0.5,0.5-1.2,0.7-2.1,0.7
				c-0.9,0-1.5-0.1-2-0.4v-0.8c0.2,0.2,0.6,0.3,0.9,0.4c0.4,0.1,0.7,0.1,1.1,0.1c0.6,0,1.1-0.1,1.4-0.4c0.3-0.3,0.5-0.7,0.5-1.3
				c0-1.1-0.7-1.6-2-1.6c-0.3,0-0.8,0.1-1.3,0.2l-0.5-0.3l0.3-3.6h3.8v0.8h-3.1l-0.2,2.3C491.1,335.3,491.5,335.2,491.9,335.2z"/>
			<path class="st3" d="M495.8,336.6c0-1.5,0.3-2.6,0.9-3.4s1.5-1.1,2.6-1.1c0.4,0,0.7,0,0.9,0.1v0.8c-0.3-0.1-0.6-0.1-0.9-0.1
				c-0.8,0-1.5,0.3-1.9,0.8c-0.4,0.5-0.7,1.3-0.7,2.4h0.1c0.4-0.6,1-0.9,1.8-0.9c0.7,0,1.2,0.2,1.6,0.6c0.4,0.4,0.6,1,0.6,1.7
				c0,0.8-0.2,1.4-0.7,1.9c-0.4,0.5-1,0.7-1.8,0.7c-0.8,0-1.4-0.3-1.9-0.9S495.8,337.7,495.8,336.6z M498.3,339.3
				c0.5,0,0.9-0.2,1.2-0.5c0.3-0.3,0.4-0.8,0.4-1.4c0-0.5-0.1-0.9-0.4-1.2s-0.6-0.4-1.1-0.4c-0.3,0-0.6,0.1-0.9,0.2
				c-0.3,0.1-0.5,0.3-0.6,0.5s-0.2,0.5-0.2,0.7c0,0.4,0.1,0.7,0.2,1c0.1,0.3,0.3,0.6,0.6,0.7S498,339.3,498.3,339.3z"/>
			<path class="st3" d="M506.9,339.9h-5.1v-0.8l2-2c0.6-0.6,1-1.1,1.2-1.3c0.2-0.3,0.3-0.5,0.4-0.8c0.1-0.3,0.1-0.5,0.1-0.8
				c0-0.4-0.1-0.7-0.4-1c-0.2-0.2-0.6-0.4-1-0.4c-0.3,0-0.6,0.1-0.9,0.2c-0.3,0.1-0.6,0.3-1,0.6l-0.5-0.6c0.7-0.6,1.5-0.9,2.3-0.9
				c0.7,0,1.3,0.2,1.7,0.6c0.4,0.4,0.6,0.9,0.6,1.5c0,0.5-0.1,1-0.4,1.5s-0.8,1.1-1.5,1.8l-1.7,1.7v0h4V339.9z"/>
		</g>
	</g>
	
		<rect x="547" y="122" transform="matrix(-1 -1.224647e-16 1.224647e-16 -1 1108.9833 255.2234)" class="st10" width="14.9" height="11.2"/>
	<circle class="st11" cx="555.2" cy="186" r="6.7"/>
	<polygon class="st12" points="554,148.3 546.1,162 561.9,162 	"/>
</g>
</svg>
