<?xml version="1.0" encoding="utf-8"?>
<!-- Generator: Adobe Illustrator 22.0.0, SVG Export Plug-In . SVG Version: 6.00 Build 0)  -->
<svg version="1.1" id="Capa_1" xmlns="http://www.w3.org/2000/svg" xmlns:xlink="http://www.w3.org/1999/xlink" x="0px" y="0px"
	 viewBox="0 0 840.7 542.1" style="enable-background:new 0 0 840.7 542.1;" xml:space="preserve">
<style type="text/css">
	.st0{fill:#FFFFFF;}
	.st1{fill:none;stroke:#CFD8DC;stroke-width:1.5338;stroke-linecap:round;stroke-linejoin:round;stroke-miterlimit:10;}
	.st2{fill:none;stroke:#12FBF4;stroke-width:0.7669;stroke-miterlimit:10;}
	.st3{fill:#FFFFFF;stroke:#12FBF4;stroke-width:0.7669;stroke-miterlimit:10;}
	.st4{fill:#7D7F7F;}
	.st5{fill:#455A64;}
	.st6{fill:none;stroke:#1556F8;stroke-width:0.7669;stroke-miterlimit:10;}
	.st7{fill:#FFFFFF;stroke:#1556F8;stroke-width:0.7669;stroke-miterlimit:10;}
	.st8{fill:#FFFFFF;stroke:#16A6F6;stroke-width:0.5884;stroke-miterlimit:10;}
	.st9{fill:none;stroke:#16A6F6;stroke-width:0.7669;stroke-miterlimit:10;}
	.st10{fill:url(#SVGID_1_);}
	.st11{fill:none;stroke:#16A6F6;stroke-width:2.4687;stroke-miterlimit:10;}
	.st12{fill:none;stroke:#1556F8;stroke-width:2.4687;stroke-miterlimit:10;}
	.st13{fill:none;stroke:#12FBF4;stroke-width:2.4687;stroke-miterlimit:10;}
</style>
<g>
	<path class="st0" d="M596.2,489.4H36.5c-12.2,0-22.1-9.9-22.1-22.1V95.4c0-12.2,9.9-22.1,22.1-22.1h559.6
		c12.2,0,22.1,9.9,22.1,22.1v371.9C618.3,479.5,608.4,489.4,596.2,489.4z"/>
	<g>
		<rect x="105.1" y="106.6" class="st1" width="474.9" height="340.9"/>
		<line class="st1" x1="105.1" y1="158.7" x2="580" y2="158.7"/>
		<line class="st1" x1="105.1" y1="208.1" x2="580" y2="208.1"/>
		<line class="st1" x1="105.1" y1="257.6" x2="580" y2="257.6"/>
		<line class="st1" x1="105.1" y1="307" x2="580" y2="307"/>
		<line class="st1" x1="105.1" y1="356.5" x2="580" y2="356.5"/>
		<line class="st1" x1="105.1" y1="405.9" x2="580" y2="405.9"/>
	</g>
	<g>
		<polyline class="st2" points="110.9,405.9 144,376.5 153.7,374.1 163.8,378.5 184.2,376.8 197.3,379.8 223.4,377 240.6,346.7 
			258.6,338.6 271.2,344.5 290.4,349.6 308.9,360.9 336,363.1 359,398.5 374.6,400.6 391.8,394.7 417.6,354 424.9,314.1 
			433.7,205.6 443.2,173.4 461.1,292.1 470.5,313.6 479.4,323.4 496.4,317 517.5,326.5 534.5,343.7 545.5,341.9 574.9,391.3 		"/>
		<g>
			<polygon class="st3" points="110.5,402.5 108.3,406.3 112.7,406.3 			"/>
			<polygon class="st3" points="119.6,395.5 117.4,399.3 121.8,399.3 			"/>
			<polygon class="st3" points="131.8,384.1 129.6,387.9 134,387.9 			"/>
			<polygon class="st3" points="142.6,374.9 140.4,378.7 144.8,378.7 			"/>
			<polygon class="st3" points="153.3,371.7 151.1,375.6 155.5,375.6 			"/>
			<polygon class="st3" points="163.8,376.4 161.6,380.2 166,380.2 			"/>
			<polygon class="st3" points="173.7,375.4 171.5,379.2 175.9,379.2 			"/>
			<polygon class="st3" points="183.7,374.9 181.5,378.7 185.9,378.7 			"/>
			<polygon class="st3" points="196.4,377.3 194.1,381.1 198.6,381.1 			"/>
			<polygon class="st3" points="204.7,376.8 202.5,380.6 206.9,380.6 			"/>
			<polygon class="st3" points="214.3,375.4 212.1,379.2 216.5,379.2 			"/>
			<polygon class="st3" points="223.3,374.4 221,378.3 225.5,378.3 			"/>
		</g>
		<polygon class="st3" points="273.5,344.4 271.3,348.2 275.7,348.2 		"/>
		<polygon class="st3" points="292.1,348.6 289.9,352.5 294.3,352.5 		"/>
		<polygon class="st3" points="308.7,359.2 306.5,363 310.9,363 		"/>
		<polygon class="st3" points="335.7,361.1 333.5,364.9 337.9,364.9 		"/>
		<polygon class="st3" points="351.8,386 349.6,389.8 354,389.8 		"/>
		<polygon class="st3" points="359,395.5 356.8,399.3 361.2,399.3 		"/>
		<polygon class="st3" points="375.4,398.6 373.2,402.4 377.6,402.4 		"/>
		<polygon class="st3" points="382.8,394.8 380.6,398.6 385,398.6 		"/>
		<polygon class="st3" points="390.9,391.9 388.7,395.7 393.1,395.7 		"/>
		<polygon class="st3" points="397.7,382.7 395.5,386.6 399.9,386.6 		"/>
		<polygon class="st3" points="406.3,369.1 404.1,372.9 408.5,372.9 		"/>
		<polygon class="st3" points="423.3,319.4 421.1,323.3 425.5,323.3 		"/>
		<polygon class="st3" points="461.6,288.7 459.4,292.6 463.8,292.6 		"/>
		<polygon class="st3" points="452.2,230.6 450,234.5 454.4,234.5 		"/>
		<polygon class="st3" points="433.5,203.7 431.3,207.5 435.7,207.5 		"/>
		<polygon class="st3" points="443.1,170.1 440.9,174 445.4,174 		"/>
		<polygon class="st3" points="470.1,311 467.9,314.8 472.3,314.8 		"/>
		<polygon class="st3" points="479.2,321.3 477,325.2 481.4,325.2 		"/>
		<polygon class="st3" points="496.3,314.8 494.1,318.6 498.5,318.6 		"/>
		<polygon class="st3" points="525.9,331.5 523.7,335.3 528.1,335.3 		"/>
		<polygon class="st3" points="534.8,340.9 532.6,344.8 537,344.8 		"/>
		<polygon class="st3" points="544.9,339.2 542.7,343.1 547.1,343.1 		"/>
		<polygon class="st3" points="554.4,354.9 552.2,358.7 556.6,358.7 		"/>
		<polygon class="st3" points="562.8,369.1 560.6,372.9 565,372.9 		"/>
		<polygon class="st3" points="574.4,388.2 572.2,392 576.6,392 		"/>
		<polygon class="st3" points="517.3,324.2 515.1,328 519.5,328 		"/>
		<polygon class="st3" points="507.8,319.4 505.6,323.3 510,323.3 		"/>
	</g>
	<g>
		<path class="st4" d="M80.4,112.8c0,0.8-0.2,1.5-0.7,2c-0.5,0.6-1.2,1-2.1,1.2v0.1c2.1,0.3,3.2,1.3,3.2,3c0,1.2-0.5,2.1-1.4,2.8
			s-2.2,1-3.9,1c-0.7,0-1.3,0-1.9-0.1s-1.2-0.3-1.9-0.5v-2.8c0.6,0.3,1.1,0.5,1.7,0.6c0.6,0.1,1.1,0.2,1.6,0.2
			c0.7,0,1.3-0.1,1.6-0.3c0.3-0.2,0.5-0.5,0.5-1c0-0.3-0.1-0.6-0.3-0.8c-0.2-0.2-0.5-0.3-0.9-0.4c-0.4-0.1-0.9-0.1-1.6-0.1h-0.8
			v-2.6h0.8c1.7,0,2.6-0.4,2.6-1.3c0-0.3-0.1-0.6-0.4-0.7c-0.3-0.2-0.6-0.2-1-0.2c-0.8,0-1.6,0.3-2.5,0.8l-1.4-2.3
			c0.7-0.5,1.3-0.8,2-1c0.7-0.2,1.5-0.3,2.4-0.3c1.3,0,2.3,0.3,3.1,0.8C80.1,111.2,80.4,111.9,80.4,112.8z"/>
		<path class="st4" d="M82.3,121.2c0-0.5,0.2-0.9,0.5-1.2s0.8-0.4,1.4-0.4c0.6,0,1,0.1,1.3,0.4s0.5,0.7,0.5,1.2
			c0,0.5-0.2,0.9-0.5,1.2c-0.3,0.3-0.7,0.4-1.3,0.4c-0.6,0-1-0.1-1.3-0.4C82.4,122.2,82.3,121.7,82.3,121.2z"/>
		<path class="st4" d="M92.3,114.4c0.7,0,1.4,0.2,2,0.5c0.6,0.3,1,0.8,1.4,1.4c0.3,0.6,0.5,1.3,0.5,2.1c0,1.4-0.4,2.5-1.3,3.2
			c-0.8,0.8-2.1,1.1-3.8,1.1c-1.5,0-2.7-0.2-3.6-0.7v-2.8c0.5,0.2,1.1,0.4,1.7,0.6c0.6,0.1,1.2,0.2,1.6,0.2c0.6,0,1.1-0.1,1.5-0.4
			s0.5-0.7,0.5-1.2c0-0.5-0.2-0.9-0.5-1.1c-0.3-0.3-0.9-0.4-1.6-0.4c-0.5,0-1.1,0.1-1.7,0.3l-1.2-0.6l0.5-6.6h7.2v2.8H91l-0.2,1.7
			c0.4-0.1,0.8-0.1,1-0.1C92,114.4,92.2,114.4,92.3,114.4z"/>
	</g>
	<g>
		<path class="st4" d="M80.8,212.9h-9.1v-2.2l3.1-3.1c0.9-0.9,1.5-1.5,1.7-1.9c0.3-0.3,0.5-0.6,0.6-0.9c0.1-0.2,0.2-0.5,0.2-0.8
			c0-0.3-0.1-0.6-0.3-0.8S76.4,203,76,203c-0.4,0-0.8,0.1-1.2,0.3c-0.4,0.2-0.9,0.6-1.4,1l-1.9-2.2c0.6-0.6,1.2-1,1.6-1.2
			c0.4-0.2,0.9-0.4,1.4-0.6c0.5-0.1,1.1-0.2,1.8-0.2c0.8,0,1.5,0.1,2.2,0.4c0.6,0.3,1.1,0.7,1.5,1.2c0.4,0.5,0.5,1.1,0.5,1.8
			c0,0.5-0.1,1-0.2,1.4c-0.1,0.4-0.3,0.8-0.6,1.2c-0.3,0.4-0.6,0.8-1,1.3c-0.4,0.4-1.3,1.3-2.7,2.5v0.1h4.8V212.9z"/>
		<path class="st4" d="M82.3,211.5c0-0.5,0.2-0.9,0.5-1.2s0.8-0.4,1.4-0.4c0.6,0,1,0.1,1.3,0.4s0.5,0.7,0.5,1.2
			c0,0.5-0.2,0.9-0.5,1.2c-0.3,0.3-0.7,0.4-1.3,0.4c-0.6,0-1-0.1-1.3-0.4C82.4,212.4,82.3,212,82.3,211.5z"/>
		<path class="st4" d="M92.3,204.7c0.7,0,1.4,0.2,2,0.5c0.6,0.3,1,0.8,1.4,1.4c0.3,0.6,0.5,1.3,0.5,2.1c0,1.4-0.4,2.5-1.3,3.2
			c-0.8,0.8-2.1,1.1-3.8,1.1c-1.5,0-2.7-0.2-3.6-0.7v-2.8c0.5,0.2,1.1,0.4,1.7,0.6c0.6,0.1,1.2,0.2,1.6,0.2c0.6,0,1.1-0.1,1.5-0.4
			s0.5-0.7,0.5-1.2c0-0.5-0.2-0.9-0.5-1.1c-0.3-0.3-0.9-0.4-1.6-0.4c-0.5,0-1.1,0.1-1.7,0.3l-1.2-0.6l0.5-6.6h7.2v2.8H91l-0.2,1.7
			c0.4-0.1,0.8-0.1,1-0.1C92,204.7,92.2,204.7,92.3,204.7z"/>
	</g>
	<g>
		<path class="st4" d="M79.3,310.1h-3.5v-6.7c0-0.8,0-1.6,0.1-2.2c-0.2,0.3-0.5,0.5-0.8,0.8l-1.4,1.2l-1.8-2.2l4.3-3.5h3.1V310.1z"
			/>
		<path class="st4" d="M82.3,308.6c0-0.5,0.2-0.9,0.5-1.2s0.8-0.4,1.4-0.4c0.6,0,1,0.1,1.3,0.4s0.5,0.7,0.5,1.2
			c0,0.5-0.2,0.9-0.5,1.2c-0.3,0.3-0.7,0.4-1.3,0.4c-0.6,0-1-0.1-1.3-0.4C82.4,309.5,82.3,309.1,82.3,308.6z"/>
		<path class="st4" d="M92.3,301.8c0.7,0,1.4,0.2,2,0.5c0.6,0.3,1,0.8,1.4,1.4c0.3,0.6,0.5,1.3,0.5,2.1c0,1.4-0.4,2.5-1.3,3.2
			c-0.8,0.8-2.1,1.1-3.8,1.1c-1.5,0-2.7-0.2-3.6-0.7v-2.8c0.5,0.2,1.1,0.4,1.7,0.6s1.2,0.2,1.6,0.2c0.6,0,1.1-0.1,1.5-0.4
			c0.3-0.3,0.5-0.7,0.5-1.2c0-0.5-0.2-0.9-0.5-1.1c-0.3-0.3-0.9-0.4-1.6-0.4c-0.5,0-1.1,0.1-1.7,0.3l-1.2-0.6l0.5-6.6h7.2v2.8H91
			l-0.2,1.7c0.4-0.1,0.8-0.1,1-0.1S92.2,301.8,92.3,301.8z"/>
	</g>
	<g>
		<path class="st4" d="M80.9,402.4c0,2.2-0.4,3.9-1.1,4.9c-0.7,1-1.9,1.6-3.4,1.6c-1.5,0-2.6-0.5-3.4-1.6s-1.1-2.7-1.1-4.8
			c0-2.2,0.4-3.9,1.1-4.9s1.9-1.6,3.4-1.6c1.5,0,2.6,0.5,3.4,1.6S80.9,400.3,80.9,402.4z M75.2,402.4c0,1.4,0.1,2.4,0.3,2.9
			c0.2,0.5,0.5,0.8,0.9,0.8c0.4,0,0.7-0.3,0.9-0.8c0.2-0.6,0.3-1.5,0.3-2.9c0-1.4-0.1-2.4-0.3-2.9c-0.2-0.6-0.5-0.8-0.9-0.8
			s-0.7,0.3-0.9,0.8C75.3,400,75.2,401,75.2,402.4z"/>
		<path class="st4" d="M82.3,407.3c0-0.5,0.2-0.9,0.5-1.2s0.8-0.4,1.4-0.4c0.6,0,1,0.1,1.3,0.4s0.5,0.7,0.5,1.2
			c0,0.5-0.2,0.9-0.5,1.2c-0.3,0.3-0.7,0.4-1.3,0.4c-0.6,0-1-0.1-1.3-0.4C82.4,408.2,82.3,407.8,82.3,407.3z"/>
		<path class="st4" d="M92.3,400.5c0.7,0,1.4,0.2,2,0.5c0.6,0.3,1,0.8,1.4,1.4c0.3,0.6,0.5,1.3,0.5,2.1c0,1.4-0.4,2.5-1.3,3.2
			c-0.8,0.8-2.1,1.1-3.8,1.1c-1.5,0-2.7-0.2-3.6-0.7v-2.8c0.5,0.2,1.1,0.4,1.7,0.6s1.2,0.2,1.6,0.2c0.6,0,1.1-0.1,1.5-0.4
			c0.3-0.3,0.5-0.7,0.5-1.2c0-0.5-0.2-0.9-0.5-1.1c-0.3-0.3-0.9-0.4-1.6-0.4c-0.5,0-1.1,0.1-1.7,0.3l-1.2-0.6l0.5-6.6h7.2v2.8H91
			l-0.2,1.7c0.4-0.1,0.8-0.1,1-0.1S92.2,400.5,92.3,400.5z"/>
	</g>
	<g>
		<path class="st4" d="M109.7,473.5c-0.6,0-1.2-0.1-1.8-0.2v-2.6c0.2,0,0.4,0.1,0.6,0.1s0.4,0.1,0.7,0.1c0.6,0,1-0.2,1.2-0.5
			s0.4-0.9,0.4-1.7V457h3.4v11.4c0,1.7-0.4,3-1.1,3.9C112.4,473.1,111.2,473.5,109.7,473.5z"/>
		<path class="st4" d="M123.1,469.6l-0.6-1.3h-0.1c-0.5,0.6-0.9,0.9-1.4,1.2s-1.1,0.3-1.8,0.3c-0.9,0-1.6-0.3-2.2-0.8
			c-0.5-0.6-0.8-1.3-0.8-2.3c0-1,0.4-1.8,1.1-2.3c0.7-0.5,1.8-0.8,3.1-0.9l1.6-0.1v-0.1c0-0.8-0.4-1.2-1.2-1.2
			c-0.7,0-1.6,0.2-2.7,0.7l-1-2.2c1.1-0.6,2.6-0.9,4.3-0.9c1.3,0,2.2,0.3,2.9,0.9c0.7,0.6,1,1.5,1,2.6v6.4H123.1z M120.6,467.4
			c0.4,0,0.8-0.1,1-0.4c0.3-0.3,0.4-0.6,0.4-1v-0.8l-0.8,0c-1.1,0-1.7,0.4-1.7,1.2C119.7,467.1,120,467.4,120.6,467.4z"/>
		<path class="st4" d="M133.9,469.6v-5.3c0-0.6-0.1-1.1-0.3-1.5c-0.2-0.3-0.5-0.5-0.9-0.5c-0.6,0-1,0.2-1.2,0.7
			c-0.3,0.5-0.4,1.2-0.4,2.3v4.3h-3.4v-9.8h2.5l0.4,1.2h0.2c0.3-0.5,0.7-0.8,1.2-1c0.5-0.2,1.1-0.3,1.8-0.3c1.1,0,1.9,0.3,2.5,0.9
			s0.9,1.5,0.9,2.6v6.3H133.9z"/>
	</g>
	<g>
		<path class="st4" d="M156.2,469.6h-3.4V457h7.4v2.7h-4.1v2.4h3.8v2.7h-3.8V469.6z"/>
		<path class="st4" d="M166.8,469.7c-1.6,0-2.9-0.4-3.8-1.3c-0.9-0.9-1.3-2.1-1.3-3.7c0-1.6,0.4-2.9,1.2-3.8c0.8-0.9,2-1.3,3.6-1.3
			c1.5,0,2.6,0.4,3.4,1.2s1.2,1.9,1.2,3.3v1.5h-6c0,0.5,0.2,1,0.6,1.3c0.4,0.3,0.9,0.5,1.5,0.5c0.6,0,1.1-0.1,1.6-0.2
			c0.5-0.1,1-0.3,1.6-0.6v2.4c-0.5,0.3-1.1,0.5-1.6,0.6C168.3,469.7,167.6,469.7,166.8,469.7z M166.6,461.9c-0.4,0-0.7,0.1-1,0.4
			c-0.3,0.2-0.4,0.6-0.5,1.2h2.9c0-0.5-0.1-0.8-0.4-1.1C167.4,462.1,167.1,461.9,166.6,461.9z"/>
		<path class="st4" d="M179,459.6c1.1,0,1.9,0.4,2.5,1.3c0.6,0.9,0.9,2.1,0.9,3.7c0,1.6-0.3,2.8-0.9,3.7c-0.6,0.9-1.5,1.3-2.6,1.3
			c-0.4,0-0.7,0-1-0.1c-0.3-0.1-0.5-0.2-0.8-0.3c-0.2-0.1-0.5-0.4-0.8-0.7h-0.2l-0.5,1H173v-13.4h3.4v3c0,0.4,0,1-0.1,1.9h0.1
			c0.3-0.5,0.7-0.9,1.1-1.1C177.9,459.7,178.4,459.6,179,459.6z M177.8,462.3c-0.5,0-0.8,0.2-1,0.5c-0.2,0.3-0.3,0.8-0.3,1.5v0.5
			c0,0.8,0.1,1.4,0.3,1.7s0.6,0.5,1.1,0.5c0.4,0,0.7-0.2,0.9-0.6c0.2-0.4,0.3-1,0.3-1.8C179,463.1,178.6,462.3,177.8,462.3z"/>
	</g>
	<g>
		<path class="st4" d="M201,469.6l-2.6-9.1h-0.1c0.1,1.5,0.2,2.7,0.2,3.6v5.5h-3V457h4.5l2.6,8.9h0.1l2.6-8.9h4.5v12.6h-3.1V464
			c0-0.3,0-0.6,0-1s0-1.2,0.1-2.6h-0.1l-2.5,9.1H201z"/>
		<path class="st4" d="M218.7,469.6l-0.6-1.3H218c-0.5,0.6-0.9,0.9-1.4,1.2s-1.1,0.3-1.8,0.3c-0.9,0-1.6-0.3-2.2-0.8
			c-0.5-0.6-0.8-1.3-0.8-2.3c0-1,0.4-1.8,1.1-2.3c0.7-0.5,1.8-0.8,3.1-0.9l1.6-0.1v-0.1c0-0.8-0.4-1.2-1.2-1.2
			c-0.7,0-1.6,0.2-2.7,0.7l-1-2.2c1.1-0.6,2.6-0.9,4.3-0.9c1.3,0,2.2,0.3,2.9,0.9c0.7,0.6,1,1.5,1,2.6v6.4H218.7z M216.2,467.4
			c0.4,0,0.8-0.1,1-0.4c0.3-0.3,0.4-0.6,0.4-1v-0.8l-0.8,0c-1.1,0-1.7,0.4-1.7,1.2C215.3,467.1,215.6,467.4,216.2,467.4z"/>
		<path class="st4" d="M229.3,459.6c0.3,0,0.6,0,0.8,0.1l0.2,0l-0.3,3.2c-0.3-0.1-0.7-0.1-1.1-0.1c-0.7,0-1.3,0.2-1.6,0.5
			s-0.5,0.8-0.5,1.5v4.8h-3.4v-9.8h2.5l0.5,1.6h0.2c0.3-0.5,0.7-0.9,1.2-1.3C228.2,459.8,228.7,459.6,229.3,459.6z"/>
	</g>
	<g>
		<path class="st4" d="M248.9,469.6l-0.6-2.4h-4.1l-0.6,2.4h-3.7l4.1-12.6h4.5l4.2,12.6H248.9z M247.6,464.4l-0.5-2.1
			c-0.1-0.5-0.3-1.1-0.5-1.8c-0.2-0.7-0.3-1.3-0.4-1.6c-0.1,0.3-0.2,0.8-0.3,1.4c-0.2,0.7-0.5,2-1,4H247.6z"/>
		<path class="st4" d="M259.7,469.7c-0.5,0-0.9-0.1-1.3-0.2s-0.8-0.5-1.2-0.9H257c0.1,0.7,0.2,1.1,0.2,1.3v3.9h-3.4v-14h2.7l0.5,1.2
			h0.2c0.6-0.9,1.5-1.4,2.6-1.4c1.1,0,1.9,0.4,2.5,1.3c0.6,0.9,0.9,2.1,0.9,3.7c0,1.6-0.3,2.8-1,3.7S260.8,469.7,259.7,469.7z
			 M258.5,462.3c-0.5,0-0.8,0.2-1,0.5c-0.2,0.4-0.3,0.9-0.3,1.6v0.3c0,0.8,0.1,1.4,0.3,1.8c0.2,0.4,0.6,0.6,1.1,0.6
			c0.4,0,0.7-0.2,0.9-0.6c0.2-0.4,0.3-1,0.3-1.8c0-0.8-0.1-1.4-0.3-1.8S259,462.3,258.5,462.3z"/>
		<path class="st4" d="M271,459.6c0.3,0,0.6,0,0.8,0.1l0.2,0l-0.3,3.2c-0.3-0.1-0.7-0.1-1.1-0.1c-0.7,0-1.3,0.2-1.6,0.5
			s-0.5,0.8-0.5,1.5v4.8h-3.4v-9.8h2.5l0.5,1.6h0.2c0.3-0.5,0.7-0.9,1.2-1.3C270,459.8,270.5,459.6,271,459.6z"/>
	</g>
	<g>
		<path class="st4" d="M289.2,469.6l-2.6-9.1h-0.1c0.1,1.5,0.2,2.7,0.2,3.6v5.5h-3V457h4.5l2.6,8.9h0.1l2.6-8.9h4.5v12.6H295V464
			c0-0.3,0-0.6,0-1s0-1.2,0.1-2.6H295l-2.5,9.1H289.2z"/>
		<path class="st4" d="M307,469.6l-0.6-1.3h-0.1c-0.5,0.6-0.9,0.9-1.4,1.2s-1.1,0.3-1.8,0.3c-0.9,0-1.6-0.3-2.2-0.8
			c-0.5-0.6-0.8-1.3-0.8-2.3c0-1,0.4-1.8,1.1-2.3c0.7-0.5,1.8-0.8,3.1-0.9l1.6-0.1v-0.1c0-0.8-0.4-1.2-1.2-1.2
			c-0.7,0-1.6,0.2-2.7,0.7l-1-2.2c1.1-0.6,2.6-0.9,4.3-0.9c1.3,0,2.2,0.3,2.9,0.9c0.7,0.6,1,1.5,1,2.6v6.4H307z M304.5,467.4
			c0.4,0,0.8-0.1,1-0.4c0.3-0.3,0.4-0.6,0.4-1v-0.8l-0.8,0c-1.1,0-1.7,0.4-1.7,1.2C303.5,467.1,303.8,467.4,304.5,467.4z"/>
		<path class="st4" d="M310.4,459.8h3.5l1.7,5.6c0.1,0.3,0.1,0.6,0.2,1.1h0.1c0-0.4,0.1-0.7,0.2-1l1.7-5.6h3.4l-3.9,10.4
			c-0.5,1.3-1.1,2.3-1.8,2.8c-0.7,0.5-1.7,0.8-2.8,0.8c-0.4,0-0.9,0-1.4-0.1V471c0.3,0.1,0.7,0.1,1,0.1c0.3,0,0.6-0.1,0.8-0.2
			c0.2-0.1,0.4-0.3,0.6-0.5c0.2-0.2,0.3-0.6,0.5-1L310.4,459.8z"/>
	</g>
	<g>
		<path class="st4" d="M332.4,473.5c-0.6,0-1.2-0.1-1.8-0.2v-2.6c0.2,0,0.4,0.1,0.6,0.1s0.4,0.1,0.7,0.1c0.6,0,1-0.2,1.2-0.5
			s0.4-0.9,0.4-1.7V457h3.4v11.4c0,1.7-0.4,3-1.1,3.9C335,473.1,333.9,473.5,332.4,473.5z"/>
		<path class="st4" d="M345.5,469.6v-5.3c0-0.6-0.1-1.1-0.3-1.5c-0.2-0.3-0.5-0.5-0.9-0.5c-0.6,0-1,0.2-1.2,0.7
			c-0.3,0.5-0.4,1.2-0.4,2.3v4.3h-3.4v-9.8h2.5l0.4,1.2h0.2c0.3-0.5,0.7-0.8,1.2-1c0.5-0.2,1.1-0.3,1.8-0.3c1.1,0,1.9,0.3,2.5,0.9
			s0.9,1.5,0.9,2.6v6.3H345.5z"/>
	</g>
	<g>
		<path class="st4" d="M361.9,473.5c-0.6,0-1.2-0.1-1.8-0.2v-2.6c0.2,0,0.4,0.1,0.6,0.1s0.4,0.1,0.7,0.1c0.6,0,1-0.2,1.2-0.5
			s0.4-0.9,0.4-1.7V457h3.4v11.4c0,1.7-0.4,3-1.1,3.9C364.6,473.1,363.4,473.5,361.9,473.5z"/>
		<path class="st4" d="M375.9,469.6l-0.4-1.2h-0.2c-0.3,0.4-0.7,0.8-1.2,1s-1.1,0.4-1.8,0.4c-1.1,0-1.9-0.3-2.5-0.9
			c-0.6-0.6-0.9-1.5-0.9-2.6v-6.4h3.4v5.3c0,0.6,0.1,1.1,0.3,1.4c0.2,0.3,0.5,0.5,0.9,0.5c0.6,0,1-0.2,1.2-0.7
			c0.2-0.5,0.4-1.2,0.4-2.3v-4.3h3.4v9.8H375.9z"/>
		<path class="st4" d="M384.1,469.6h-3.4v-13.4h3.4V469.6z"/>
	</g>
	<g>
		<path class="st4" d="M492.6,463.3c0,2.1-0.5,3.7-1.6,4.8s-2.6,1.7-4.6,1.7c-2,0-3.5-0.6-4.5-1.7c-1.1-1.1-1.6-2.7-1.6-4.8
			c0-2.1,0.5-3.7,1.6-4.8s2.6-1.7,4.6-1.7c2,0,3.5,0.5,4.6,1.6S492.6,461.1,492.6,463.3z M484,463.3c0,2.4,0.8,3.7,2.5,3.7
			c0.9,0,1.5-0.3,1.9-0.9c0.4-0.6,0.6-1.5,0.6-2.8c0-1.3-0.2-2.2-0.6-2.8c-0.4-0.6-1.1-0.9-1.9-0.9C484.8,459.6,484,460.8,484,463.3
			z"/>
		<path class="st4" d="M499.1,469.7c-1.6,0-2.8-0.4-3.6-1.3c-0.8-0.9-1.2-2.1-1.2-3.7c0-1.6,0.4-2.9,1.3-3.8
			c0.9-0.9,2.2-1.3,3.8-1.3c1.1,0,2.2,0.2,3.2,0.7l-1,2.5c-0.4-0.2-0.8-0.3-1.1-0.4s-0.7-0.2-1.1-0.2c-0.5,0-1,0.2-1.3,0.6
			c-0.3,0.4-0.4,1-0.4,1.8c0,1.6,0.6,2.3,1.7,2.3c1,0,1.9-0.3,2.8-0.9v2.7C501.4,469.5,500.4,469.7,499.1,469.7z"/>
		<path class="st4" d="M509,467.1c0.5,0,1-0.1,1.6-0.3v2.5c-0.5,0.2-0.9,0.3-1.3,0.4c-0.4,0.1-0.9,0.1-1.4,0.1
			c-1.1,0-1.9-0.3-2.4-0.8c-0.5-0.6-0.7-1.4-0.7-2.6v-4h-1.2V461l1.5-1.1l0.9-2h2.2v2h2.4v2.5h-2.4v3.8
			C508.1,466.8,508.4,467.1,509,467.1z"/>
	</g>
	<g>
		<path class="st4" d="M533.3,469.6h-4.5l-4.6-8.9h-0.1c0.1,1.4,0.2,2.5,0.2,3.2v5.7h-3V457h4.4l4.6,8.8h0.1
			c-0.1-1.3-0.1-2.3-0.1-3.1V457h3V469.6z"/>
		<path class="st4" d="M545.1,464.7c0,1.6-0.4,2.8-1.3,3.7s-2.1,1.3-3.6,1.3c-1.5,0-2.7-0.5-3.5-1.4c-0.9-0.9-1.3-2.1-1.3-3.7
			c0-1.6,0.4-2.8,1.3-3.7c0.9-0.9,2.1-1.3,3.6-1.3c1,0,1.8,0.2,2.5,0.6c0.7,0.4,1.3,1,1.7,1.8S545.1,463.6,545.1,464.7z
			 M538.8,464.7c0,0.8,0.1,1.5,0.3,1.9c0.2,0.4,0.6,0.7,1.1,0.7c0.5,0,0.9-0.2,1.1-0.7c0.2-0.4,0.3-1.1,0.3-1.9
			c0-0.8-0.1-1.5-0.3-1.9c-0.2-0.4-0.6-0.6-1.1-0.6c-0.5,0-0.9,0.2-1.1,0.6C538.9,463.2,538.8,463.8,538.8,464.7z"/>
		<path class="st4" d="M549.6,469.6l-3.7-9.8h3.5l1.7,5.8c0,0,0,0.1,0,0.1c0,0.1,0,0.2,0.1,0.2c0,0.1,0,0.2,0,0.3c0,0.1,0,0.2,0,0.3
			h0.1c0-0.3,0.1-0.6,0.2-1l1.7-5.8h3.5l-3.7,9.8H549.6z"/>
	</g>
	<g>
		<path class="st4" d="M580.8,463c0,2.1-0.6,3.7-1.7,4.9s-2.8,1.7-4.9,1.7h-4.1V457h4.4c2,0,3.6,0.5,4.7,1.6
			C580.2,459.6,580.8,461.1,580.8,463z M577.3,463.1c0-1.2-0.2-2-0.7-2.6c-0.5-0.6-1.1-0.8-2.1-0.8h-1v7.1h0.8c1,0,1.8-0.3,2.3-0.9
			C577,465.3,577.3,464.4,577.3,463.1z"/>
		<path class="st4" d="M587.6,469.7c-1.6,0-2.9-0.4-3.8-1.3c-0.9-0.9-1.3-2.1-1.3-3.7c0-1.6,0.4-2.9,1.2-3.8c0.8-0.9,2-1.3,3.6-1.3
			c1.5,0,2.6,0.4,3.4,1.2c0.8,0.8,1.2,1.9,1.2,3.3v1.5h-6c0,0.5,0.2,1,0.6,1.3c0.4,0.3,0.9,0.5,1.5,0.5c0.6,0,1.1-0.1,1.6-0.2
			c0.5-0.1,1-0.3,1.6-0.6v2.4c-0.5,0.3-1.1,0.5-1.6,0.6C589,469.7,588.3,469.7,587.6,469.7z M587.4,461.9c-0.4,0-0.7,0.1-1,0.4
			c-0.3,0.2-0.4,0.6-0.5,1.2h2.9c0-0.5-0.1-0.8-0.4-1.1C588.1,462.1,587.8,461.9,587.4,461.9z"/>
		<path class="st4" d="M598.2,469.7c-1.6,0-2.8-0.4-3.6-1.3c-0.8-0.9-1.2-2.1-1.2-3.7c0-1.6,0.4-2.9,1.3-3.8
			c0.9-0.9,2.2-1.3,3.8-1.3c1.1,0,2.2,0.2,3.2,0.7l-1,2.5c-0.4-0.2-0.8-0.3-1.1-0.4s-0.7-0.2-1.1-0.2c-0.5,0-1,0.2-1.3,0.6
			c-0.3,0.4-0.4,1-0.4,1.8c0,1.6,0.6,2.3,1.7,2.3c1,0,1.9-0.3,2.8-0.9v2.7C600.5,469.5,599.4,469.7,598.2,469.7z"/>
	</g>
	<g>
		<path class="st4" d="M448.4,465.7c0,0.8-0.2,1.5-0.6,2.1c-0.4,0.6-1,1.1-1.7,1.4s-1.6,0.5-2.6,0.5c-0.8,0-1.5-0.1-2.1-0.2
			c-0.6-0.1-1.2-0.3-1.8-0.6v-3c0.6,0.3,1.3,0.6,2,0.8c0.7,0.2,1.3,0.3,1.9,0.3c0.5,0,0.9-0.1,1.1-0.3c0.2-0.2,0.4-0.4,0.4-0.7
			c0-0.2,0-0.3-0.1-0.5s-0.2-0.3-0.5-0.4s-0.8-0.4-1.7-0.8c-0.8-0.4-1.4-0.7-1.8-1.1c-0.4-0.4-0.7-0.8-0.9-1.2
			c-0.2-0.5-0.3-1-0.3-1.6c0-1.2,0.4-2.1,1.3-2.7c0.8-0.6,2-1,3.5-1c1.3,0,2.6,0.3,4,0.9l-1,2.6c-1.2-0.5-2.2-0.8-3-0.8
			c-0.4,0-0.8,0.1-1,0.2s-0.3,0.3-0.3,0.6c0,0.2,0.1,0.5,0.4,0.7c0.3,0.2,0.9,0.6,2.1,1.1c1.1,0.5,1.8,1,2.3,1.6
			C448.2,464.2,448.4,464.9,448.4,465.7z"/>
		<path class="st4" d="M454.9,469.7c-1.6,0-2.9-0.4-3.8-1.3c-0.9-0.9-1.3-2.1-1.3-3.7c0-1.6,0.4-2.9,1.2-3.8c0.8-0.9,2-1.3,3.6-1.3
			c1.5,0,2.6,0.4,3.4,1.2c0.8,0.8,1.2,1.9,1.2,3.3v1.5h-6c0,0.5,0.2,1,0.6,1.3c0.4,0.3,0.9,0.5,1.5,0.5c0.6,0,1.1-0.1,1.6-0.2
			c0.5-0.1,1-0.3,1.6-0.6v2.4c-0.5,0.3-1.1,0.5-1.6,0.6C456.3,469.7,455.7,469.7,454.9,469.7z M454.7,461.9c-0.4,0-0.7,0.1-1,0.4
			c-0.3,0.2-0.4,0.6-0.5,1.2h2.9c0-0.5-0.1-0.8-0.4-1.1C455.5,462.1,455.1,461.9,454.7,461.9z"/>
		<path class="st4" d="M466.9,469.7c-0.5,0-0.9-0.1-1.3-0.2c-0.4-0.2-0.8-0.5-1.2-0.9h-0.2c0.1,0.7,0.2,1.1,0.2,1.3v3.9h-3.4v-14
			h2.7l0.5,1.2h0.2c0.6-0.9,1.5-1.4,2.6-1.4c1.1,0,1.9,0.4,2.5,1.3s0.9,2.1,0.9,3.7c0,1.6-0.3,2.8-1,3.7
			C468.9,469.3,468,469.7,466.9,469.7z M465.8,462.3c-0.5,0-0.8,0.2-1,0.5c-0.2,0.4-0.3,0.9-0.3,1.6v0.3c0,0.8,0.1,1.4,0.3,1.8
			s0.6,0.6,1.1,0.6c0.4,0,0.7-0.2,0.9-0.6c0.2-0.4,0.3-1,0.3-1.8c0-0.8-0.1-1.4-0.3-1.8S466.3,462.3,465.8,462.3z"/>
	</g>
	<g>
		<path class="st4" d="M404.1,469.6l-0.6-2.4h-4.1l-0.6,2.4H395l4.1-12.6h4.5l4.2,12.6H404.1z M402.7,464.4l-0.5-2.1
			c-0.1-0.5-0.3-1.1-0.5-1.8c-0.2-0.7-0.3-1.3-0.4-1.6c-0.1,0.3-0.2,0.8-0.3,1.4c-0.2,0.7-0.5,2-1,4H402.7z"/>
		<path class="st4" d="M415.9,469.6l-0.4-1.2h-0.2c-0.3,0.4-0.7,0.8-1.2,1s-1.1,0.4-1.8,0.4c-1.1,0-1.9-0.3-2.5-0.9
			c-0.6-0.6-0.9-1.5-0.9-2.6v-6.4h3.4v5.3c0,0.6,0.1,1.1,0.3,1.4c0.2,0.3,0.5,0.5,0.9,0.5c0.6,0,1-0.2,1.2-0.7
			c0.2-0.5,0.4-1.2,0.4-2.3v-4.3h3.4v9.8H415.9z"/>
		<path class="st4" d="M430,459.8v1.6l-1.3,0.5c0.2,0.3,0.3,0.7,0.3,1.2c0,1.1-0.4,1.9-1.1,2.4c-0.7,0.6-1.8,0.9-3.3,0.9
			c-0.4,0-0.6,0-0.9-0.1c-0.1,0.1-0.1,0.3-0.1,0.4c0,0.2,0.1,0.3,0.4,0.4c0.3,0.1,0.6,0.1,1.1,0.1h1.6c2.2,0,3.3,0.9,3.3,2.8
			c0,1.2-0.5,2.1-1.5,2.8c-1,0.7-2.4,1-4.3,1c-1.4,0-2.5-0.2-3.2-0.7c-0.8-0.5-1.1-1.1-1.1-2c0-1.2,0.7-1.9,2.2-2.3
			c-0.3-0.1-0.6-0.3-0.8-0.6s-0.3-0.6-0.3-0.8c0-0.3,0.1-0.6,0.2-0.8c0.2-0.2,0.5-0.5,1-0.8c-0.5-0.2-0.9-0.6-1.2-1
			s-0.4-1.1-0.4-1.7c0-1.1,0.4-1.9,1.1-2.5s1.8-0.9,3.1-0.9c0.2,0,0.5,0,0.9,0.1s0.8,0.1,1,0.1H430z M422.6,470.8
			c0,0.3,0.1,0.5,0.4,0.7c0.3,0.2,0.7,0.3,1.2,0.3c0.8,0,1.5-0.1,2-0.3s0.7-0.5,0.7-0.8c0-0.3-0.1-0.4-0.4-0.5
			c-0.3-0.1-0.7-0.2-1.3-0.2h-1.3c-0.4,0-0.7,0.1-0.9,0.3C422.7,470.3,422.6,470.5,422.6,470.8z M423.7,463c0,1,0.3,1.5,1,1.5
			c0.3,0,0.6-0.1,0.7-0.4c0.2-0.2,0.3-0.6,0.3-1.1c0-1-0.3-1.5-1-1.5C424,461.5,423.7,462,423.7,463z"/>
	</g>
	<g>
		<g>
			<path class="st5" d="M50.8,356.3l-8.7,3v0.1c1.3-0.1,2.5-0.1,3.6-0.1h5.1v1.5H40.4v-2.4l8.3-2.9v0l-8.3-3v-2.4h10.4v1.6h-5.1
				c-0.5,0-1.2,0-2,0c-0.8,0-1.3,0-1.5-0.1v0.1l8.7,3.1V356.3z"/>
			<path class="st5" d="M50.8,342l-1,0.2v0.1c0.4,0.2,0.7,0.6,0.9,1c0.2,0.4,0.3,0.9,0.3,1.5c0,1-0.2,1.7-0.7,2.1
				c-0.5,0.5-1.2,0.7-2.2,0.7h-5.1v-1.7h4.9c0.6,0,1.1-0.1,1.4-0.4c0.3-0.2,0.5-0.6,0.5-1.2c0-0.7-0.2-1.2-0.6-1.5
				c-0.4-0.3-1.1-0.5-2.1-0.5h-3.9v-1.7h7.9V342z"/>
			<path class="st5" d="M50.8,336.6v1.7H39.7v-1.7H50.8z"/>
			<path class="st5" d="M49.6,331.3c0-0.4-0.1-0.8-0.2-1.2h1.3c0.1,0.2,0.1,0.4,0.2,0.7c0.1,0.3,0.1,0.6,0.1,0.9
				c0,1.6-0.8,2.4-2.5,2.4h-4.2v1.1h-0.7l-0.6-1.2l-1.7-0.6v-1h1.8v-2.2h1.3v2.2h4.2c0.4,0,0.7-0.1,0.9-0.3
				C49.5,331.9,49.6,331.6,49.6,331.3z"/>
			<path class="st5" d="M40.8,328.6c-0.3,0-0.5-0.1-0.7-0.2c-0.2-0.2-0.2-0.4-0.2-0.7c0-0.3,0.1-0.5,0.2-0.7
				c0.2-0.2,0.4-0.2,0.7-0.2c0.3,0,0.5,0.1,0.7,0.2s0.2,0.4,0.2,0.7c0,0.3-0.1,0.5-0.2,0.7C41.3,328.5,41.1,328.6,40.8,328.6z
				 M50.8,326.8v1.7h-7.9v-1.7H50.8z"/>
			<path class="st5" d="M50.9,320.4c0,1-0.4,1.8-1.1,2.3v0.1c0.7-0.1,1.1-0.1,1.2-0.1h3.2v1.7H42.9v-1.4c0.1,0,0.5-0.1,1.1-0.2v-0.1
				c-0.8-0.5-1.2-1.3-1.2-2.3c0-1,0.4-1.7,1.1-2.3c0.7-0.5,1.7-0.8,3-0.8c1.3,0,2.3,0.3,3,0.8C50.5,318.7,50.9,319.5,50.9,320.4z
				 M44.1,320.8c0,0.7,0.2,1.1,0.6,1.5c0.4,0.3,1,0.5,1.9,0.5h0.2c1,0,1.7-0.2,2.1-0.5s0.6-0.8,0.6-1.5c0-0.6-0.2-1-0.7-1.3
				c-0.5-0.3-1.2-0.5-2-0.5c-0.9,0-1.5,0.2-2,0.5C44.3,319.8,44.1,320.2,44.1,320.8z"/>
			<path class="st5" d="M50.8,313.7v1.7H39.7v-1.7H50.8z"/>
			<path class="st5" d="M46.8,304.3c1.3,0,2.3,0.3,3,1c0.7,0.7,1.1,1.6,1.1,2.8c0,0.7-0.2,1.4-0.5,1.9c-0.3,0.6-0.8,1-1.4,1.3
				c-0.6,0.3-1.3,0.5-2.2,0.5c-1.3,0-2.3-0.3-3-1c-0.7-0.7-1.1-1.6-1.1-2.8c0-1.1,0.4-2,1.1-2.7S45.6,304.3,46.8,304.3z M46.8,310
				c1.8,0,2.7-0.7,2.7-2c0-1.3-0.9-2-2.7-2c-1.8,0-2.7,0.7-2.7,2c0,0.7,0.2,1.2,0.7,1.5S45.9,310,46.8,310z"/>
			<path class="st5" d="M48.5,297.1c0.8,0,1.4,0.3,1.8,0.8c0.4,0.6,0.6,1.4,0.6,2.4c0,1-0.2,1.9-0.5,2.5H49c0.4-0.9,0.6-1.8,0.6-2.6
				c0-1-0.3-1.5-0.9-1.5c-0.2,0-0.4,0.1-0.5,0.2c-0.1,0.1-0.3,0.3-0.4,0.6c-0.1,0.3-0.3,0.6-0.5,1.1c-0.4,0.9-0.7,1.5-1.1,1.8
				c-0.4,0.3-0.8,0.5-1.4,0.5c-0.7,0-1.2-0.3-1.6-0.8c-0.4-0.5-0.6-1.3-0.6-2.2c0-0.9,0.2-1.8,0.6-2.6l1.3,0.5
				c-0.4,0.8-0.5,1.6-0.5,2.1c0,0.9,0.3,1.3,0.8,1.3c0.2,0,0.5-0.1,0.6-0.3c0.2-0.2,0.4-0.7,0.7-1.5c0.3-0.7,0.5-1.1,0.7-1.4
				c0.2-0.3,0.4-0.5,0.7-0.7C47.8,297.2,48.1,297.1,48.5,297.1z"/>
			<path class="st5" d="M50.9,288.9c0,1-0.4,1.7-1.1,2.3c-0.7,0.5-1.7,0.8-3,0.8c-1.3,0-2.3-0.3-3-0.8c-0.7-0.6-1.1-1.3-1.1-2.3
				c0-1,0.4-1.8,1.1-2.4v-0.1c-0.6,0.1-1,0.1-1.3,0.1h-2.9v-1.7h11.1v1.3l-1,0.3v0.1C50.5,287,50.9,287.8,50.9,288.9z M49.6,288.4
				c0-0.7-0.2-1.2-0.6-1.5c-0.4-0.3-1-0.5-1.9-0.5h-0.2c-1,0-1.7,0.2-2.1,0.5c-0.4,0.3-0.6,0.8-0.6,1.5c0,0.6,0.2,1,0.7,1.4
				c0.5,0.3,1.2,0.5,2,0.5c0.9,0,1.5-0.2,2-0.5C49.3,289.5,49.6,289,49.6,288.4z"/>
			<path class="st5" d="M50.9,279c0,1.2-0.4,2.2-1.1,2.9c-0.7,0.7-1.7,1-2.9,1c-1.3,0-2.3-0.3-3-1c-0.7-0.6-1.1-1.5-1.1-2.6
				c0-1,0.3-1.9,0.9-2.5c0.6-0.6,1.5-0.9,2.6-0.9h0.9v5.2c0.8,0,1.4-0.2,1.8-0.6s0.6-0.9,0.6-1.6c0-0.5,0-0.9-0.1-1.3
				c-0.1-0.4-0.2-0.8-0.4-1.3h1.4c0.2,0.4,0.3,0.8,0.4,1.2C50.9,278,50.9,278.5,50.9,279z M44,279.3c0,0.5,0.2,1,0.5,1.3
				c0.3,0.3,0.8,0.5,1.5,0.6v-3.6c-0.6,0-1.1,0.2-1.5,0.5S44,278.8,44,279.3z"/>
			<path class="st5" d="M50.8,268.6v1.7H39.7v-1.7H50.8z"/>
			<path class="st5" d="M50.8,261.3l-1.1,0.3v0.1c0.5,0.4,0.8,0.8,1,1.1c0.2,0.4,0.3,0.9,0.3,1.5c0,0.8-0.2,1.4-0.6,1.8
				c-0.4,0.4-1,0.7-1.8,0.7c-0.8,0-1.4-0.3-1.8-0.9c-0.4-0.6-0.6-1.5-0.7-2.8l0-1.4h-0.4c-0.5,0-0.9,0.1-1.1,0.4s-0.4,0.6-0.4,1.1
				c0,0.4,0.1,0.8,0.2,1.2s0.3,0.7,0.4,1.1l-1.2,0.5c-0.2-0.4-0.4-0.9-0.5-1.4c-0.1-0.5-0.2-1-0.2-1.4c0-1,0.2-1.8,0.7-2.3
				c0.4-0.5,1.1-0.8,2.1-0.8h5.3V261.3z M49.6,263.8c0-0.6-0.2-1.1-0.5-1.5c-0.3-0.4-0.8-0.6-1.4-0.6H47l0,1c0,0.8,0.2,1.4,0.4,1.7
				c0.2,0.4,0.6,0.5,1.1,0.5c0.4,0,0.6-0.1,0.8-0.3C49.5,264.5,49.6,264.2,49.6,263.8z"/>
			<path class="st5" d="M50.8,249.3l-8.7,3v0.1c1.3-0.1,2.5-0.1,3.6-0.1h5.1v1.5H40.4v-2.4l8.3-2.9v0l-8.3-3v-2.4h10.4v1.6h-5.1
				c-0.5,0-1.2,0-2,0c-0.8,0-1.3,0-1.5-0.1v0.1l8.7,3.1V249.3z"/>
			<path class="st5" d="M50.9,237.1c0,1.2-0.4,2.2-1.1,2.9c-0.7,0.7-1.7,1-2.9,1c-1.3,0-2.3-0.3-3-1c-0.7-0.6-1.1-1.5-1.1-2.6
				c0-1,0.3-1.9,0.9-2.5c0.6-0.6,1.5-0.9,2.6-0.9h0.9v5.2c0.8,0,1.4-0.2,1.8-0.6c0.4-0.4,0.6-0.9,0.6-1.6c0-0.5,0-0.9-0.1-1.3
				c-0.1-0.4-0.2-0.8-0.4-1.3h1.4c0.2,0.4,0.3,0.8,0.4,1.2C50.9,236.1,50.9,236.5,50.9,237.1z M44,237.4c0,0.5,0.2,1,0.5,1.3
				c0.3,0.3,0.8,0.5,1.5,0.6v-3.6c-0.6,0-1.1,0.2-1.5,0.5C44.2,236.4,44,236.8,44,237.4z"/>
			<path class="st5" d="M50.9,229.5c0,1-0.4,1.7-1.1,2.3c-0.7,0.6-1.7,0.8-3,0.8c-1.3,0-2.3-0.3-3-0.8c-0.7-0.6-1.1-1.3-1.1-2.3
				c0-1,0.4-1.8,1.1-2.4V227c-0.6,0.1-1,0.1-1.3,0.1h-2.9v-1.7h11.1v1.3l-1,0.3v0.1C50.5,227.6,50.9,228.4,50.9,229.5z M49.6,229
				c0-0.7-0.2-1.2-0.6-1.5c-0.4-0.3-1-0.5-1.9-0.5h-0.2c-1,0-1.7,0.2-2.1,0.5c-0.4,0.3-0.6,0.8-0.6,1.5c0,0.6,0.2,1,0.7,1.4
				c0.5,0.3,1.2,0.5,2,0.5c0.9,0,1.5-0.2,2-0.5C49.3,230.1,49.6,229.6,49.6,229z"/>
			<path class="st5" d="M40.8,223.1c-0.3,0-0.5-0.1-0.7-0.2c-0.2-0.2-0.2-0.4-0.2-0.7c0-0.3,0.1-0.5,0.2-0.7
				c0.2-0.2,0.4-0.2,0.7-0.2c0.3,0,0.5,0.1,0.7,0.2s0.2,0.4,0.2,0.7c0,0.3-0.1,0.5-0.2,0.7S41.1,223.1,40.8,223.1z M50.8,221.4v1.7
				h-7.9v-1.7H50.8z"/>
			<path class="st5" d="M50.8,214l-1.1,0.3v0.1c0.5,0.4,0.8,0.8,1,1.1c0.2,0.4,0.3,0.9,0.3,1.5c0,0.8-0.2,1.4-0.6,1.8
				c-0.4,0.4-1,0.7-1.8,0.7c-0.8,0-1.4-0.3-1.8-0.9c-0.4-0.6-0.6-1.5-0.7-2.8l0-1.4h-0.4c-0.5,0-0.9,0.1-1.1,0.4S44,215.5,44,216
				c0,0.4,0.1,0.8,0.2,1.2s0.3,0.7,0.4,1.1l-1.2,0.5c-0.2-0.4-0.4-0.9-0.5-1.4c-0.1-0.5-0.2-1-0.2-1.4c0-1,0.2-1.8,0.7-2.3
				c0.4-0.5,1.1-0.8,2.1-0.8h5.3V214z M49.6,216.5c0-0.6-0.2-1.1-0.5-1.5c-0.3-0.4-0.8-0.6-1.4-0.6H47l0,1c0,0.8,0.2,1.4,0.4,1.7
				c0.2,0.4,0.6,0.5,1.1,0.5c0.4,0,0.6-0.1,0.8-0.3C49.5,217.3,49.6,217,49.6,216.5z"/>
		</g>
	</g>
	<g>
		<g>
			<path class="st5" d="M8,3.4c-1.6,0-2.8,0.6-3.8,1.7C3.4,6.2,2.9,7.8,2.9,9.7c0,2.1,0.4,3.7,1.3,4.7s2.1,1.6,3.8,1.6
				c0.7,0,1.4-0.1,2.1-0.2s1.4-0.3,2.1-0.6v2.4c-1.3,0.5-2.8,0.8-4.5,0.8c-2.5,0-4.4-0.8-5.7-2.3s-2-3.7-2-6.5C0,8,0.3,6.4,1,5.1
				c0.6-1.3,1.6-2.3,2.8-3C5,1.3,6.4,1,8.1,1c1.7,0,3.3,0.4,4.8,1.1l-1,2.3c-0.6-0.3-1.2-0.5-1.8-0.7C9.4,3.5,8.7,3.4,8,3.4z"/>
			<path class="st5" d="M15.4,2c0-0.5,0.1-0.9,0.4-1.1s0.6-0.4,1.1-0.4c0.5,0,0.9,0.1,1.1,0.4s0.4,0.6,0.4,1.1
				c0,0.5-0.1,0.8-0.4,1.1S17.4,3.5,17,3.5c-0.5,0-0.9-0.1-1.1-0.4S15.4,2.4,15.4,2z M18.3,18.2h-2.7V5.4h2.7V18.2z"/>
			<path class="st5" d="M27.4,18.4c-1.9,0-3.4-0.6-4.4-1.7c-1-1.1-1.5-2.8-1.5-4.9c0-2.2,0.5-3.8,1.6-5c1.1-1.2,2.6-1.7,4.6-1.7
				c1.4,0,2.6,0.3,3.7,0.8l-0.8,2.2c-1.2-0.4-2.1-0.7-2.9-0.7c-2.2,0-3.3,1.5-3.3,4.4c0,1.4,0.3,2.5,0.8,3.2
				c0.6,0.7,1.4,1.1,2.4,1.1c1.2,0,2.4-0.3,3.4-0.9v2.4c-0.5,0.3-1,0.5-1.6,0.6S28.2,18.4,27.4,18.4z"/>
			<path class="st5" d="M36.7,18.2H34v-18h2.7V18.2z"/>
			<path class="st5" d="M52,11.8c0,2.1-0.5,3.7-1.6,4.9c-1.1,1.2-2.6,1.8-4.5,1.8c-1.2,0-2.3-0.3-3.2-0.8c-0.9-0.5-1.6-1.3-2.1-2.3
				c-0.5-1-0.7-2.2-0.7-3.5c0-2.1,0.5-3.7,1.6-4.9s2.6-1.8,4.5-1.8c1.9,0,3.3,0.6,4.4,1.8S52,9.7,52,11.8z M42.6,11.8
				c0,3,1.1,4.4,3.3,4.4c2.2,0,3.2-1.5,3.2-4.4c0-2.9-1.1-4.4-3.3-4.4c-1.1,0-2,0.4-2.5,1.1C42.9,9.3,42.6,10.3,42.6,11.8z"/>
			<path class="st5" d="M63.7,14.5c0,1.3-0.5,2.2-1.4,2.9c-0.9,0.7-2.2,1-3.9,1c-1.7,0-3.1-0.3-4.1-0.8v-2.4c1.5,0.7,2.9,1,4.2,1
				c1.7,0,2.5-0.5,2.5-1.5c0-0.3-0.1-0.6-0.3-0.8c-0.2-0.2-0.5-0.4-0.9-0.7c-0.4-0.2-1-0.5-1.8-0.8c-1.5-0.6-2.5-1.1-3-1.7
				s-0.8-1.3-0.8-2.2c0-1.1,0.4-1.9,1.3-2.6s2.1-0.9,3.6-0.9c1.5,0,2.9,0.3,4.3,0.9l-0.9,2.1c-1.4-0.6-2.5-0.9-3.5-0.9
				c-1.4,0-2.2,0.4-2.2,1.2c0,0.4,0.2,0.7,0.6,1s1.2,0.7,2.5,1.1c1.1,0.4,1.8,0.8,2.3,1.1c0.5,0.3,0.8,0.7,1.1,1.2
				S63.7,13.9,63.7,14.5z"/>
			<path class="st5" d="M80.8,18.2l-0.5-1.8h-0.1c-0.6,0.8-1.2,1.3-1.9,1.6c-0.6,0.3-1.4,0.4-2.4,0.4c-1.3,0-2.2-0.3-2.9-1
				s-1.1-1.6-1.1-2.9c0-1.3,0.5-2.3,1.5-3s2.5-1,4.5-1.1l2.2-0.1V9.7c0-0.8-0.2-1.4-0.6-1.8c-0.4-0.4-1-0.6-1.8-0.6
				c-0.7,0-1.3,0.1-1.9,0.3c-0.6,0.2-1.2,0.4-1.7,0.7l-0.9-1.9c0.7-0.4,1.5-0.6,2.3-0.8c0.8-0.2,1.6-0.3,2.3-0.3
				c1.6,0,2.9,0.4,3.7,1.1s1.2,1.8,1.2,3.4v8.6H80.8z M76.8,16.3c1,0,1.8-0.3,2.4-0.8c0.6-0.6,0.9-1.3,0.9-2.3v-1.1l-1.6,0.1
				c-1.3,0-2.2,0.3-2.8,0.6s-0.9,1-0.9,1.8c0,0.6,0.2,1,0.5,1.3S76.1,16.3,76.8,16.3z"/>
			<path class="st5" d="M97.9,18.2h-2.7v-7.9c0-1-0.2-1.7-0.6-2.2s-1-0.7-1.9-0.7c-1.2,0-2,0.3-2.5,1c-0.5,0.7-0.8,1.8-0.8,3.4v6.4
				h-2.7V5.4h2.1L89.1,7h0.1c0.4-0.6,0.9-1.1,1.6-1.4c0.7-0.3,1.5-0.5,2.4-0.5c3.1,0,4.6,1.6,4.6,4.7V18.2z"/>
			<path class="st5" d="M110.7,18.2l-0.4-1.7h-0.1c-0.4,0.6-0.9,1.1-1.6,1.4c-0.7,0.3-1.5,0.5-2.4,0.5c-1.6,0-2.7-0.4-3.5-1.2
				c-0.8-0.8-1.1-1.9-1.1-3.5V5.4h2.7v7.9c0,1,0.2,1.7,0.6,2.2s1,0.7,1.9,0.7c1.1,0,2-0.3,2.5-1c0.5-0.7,0.8-1.8,0.8-3.4V5.4h2.7
				v12.8H110.7z"/>
			<path class="st5" d="M124.7,18.2l-0.5-1.8h-0.1c-0.6,0.8-1.2,1.3-1.9,1.6c-0.6,0.3-1.4,0.4-2.4,0.4c-1.3,0-2.2-0.3-2.9-1
				s-1.1-1.6-1.1-2.9c0-1.3,0.5-2.3,1.5-3s2.5-1,4.5-1.1l2.2-0.1V9.7c0-0.8-0.2-1.4-0.6-1.8c-0.4-0.4-1-0.6-1.8-0.6
				c-0.7,0-1.3,0.1-1.9,0.3c-0.6,0.2-1.2,0.4-1.7,0.7l-0.9-1.9c0.7-0.4,1.5-0.6,2.3-0.8c0.8-0.2,1.6-0.3,2.3-0.3
				c1.6,0,2.9,0.4,3.7,1.1s1.2,1.8,1.2,3.4v8.6H124.7z M120.7,16.3c1,0,1.8-0.3,2.4-0.8c0.6-0.6,0.9-1.3,0.9-2.3v-1.1l-1.6,0.1
				c-1.3,0-2.2,0.3-2.8,0.6s-0.9,1-0.9,1.8c0,0.6,0.2,1,0.5,1.3S120,16.3,120.7,16.3z"/>
			<path class="st5" d="M133.2,18.2h-2.7v-18h2.7V18.2z"/>
			<path class="st5" d="M142.7,18.4c-2,0-3.6-0.6-4.7-1.7c-1.1-1.2-1.7-2.8-1.7-4.8c0-2.1,0.5-3.7,1.6-4.9c1-1.2,2.5-1.8,4.3-1.8
				c1.7,0,3,0.5,4,1.5c1,1,1.5,2.4,1.5,4.2v1.5h-8.5c0,1.2,0.4,2.2,1,2.9c0.6,0.7,1.5,1,2.7,1c0.8,0,1.5-0.1,2.1-0.2
				c0.7-0.1,1.4-0.4,2.1-0.7v2.2c-0.7,0.3-1.3,0.5-2,0.7C144.3,18.4,143.6,18.4,142.7,18.4z M142.2,7.2c-0.9,0-1.6,0.3-2.1,0.8
				c-0.5,0.5-0.8,1.3-0.9,2.4h5.8c0-1.1-0.3-1.9-0.8-2.4C143.7,7.5,143.1,7.2,142.2,7.2z"/>
			<path class="st5" d="M159.4,14.5c0,1.3-0.5,2.2-1.4,2.9c-0.9,0.7-2.2,1-3.9,1c-1.7,0-3.1-0.3-4.1-0.8v-2.4c1.5,0.7,2.9,1,4.2,1
				c1.7,0,2.5-0.5,2.5-1.5c0-0.3-0.1-0.6-0.3-0.8c-0.2-0.2-0.5-0.4-0.9-0.7c-0.4-0.2-1-0.5-1.8-0.8c-1.5-0.6-2.5-1.1-3-1.7
				S150,9.5,150,8.6c0-1.1,0.4-1.9,1.3-2.6s2.1-0.9,3.6-0.9c1.5,0,2.9,0.3,4.3,0.9l-0.9,2.1c-1.4-0.6-2.5-0.9-3.5-0.9
				c-1.4,0-2.2,0.4-2.2,1.2c0,0.4,0.2,0.7,0.6,1s1.2,0.7,2.5,1.1c1.1,0.4,1.8,0.8,2.3,1.1c0.5,0.3,0.8,0.7,1.1,1.2
				S159.4,13.9,159.4,14.5z"/>
			<path class="st5" d="M172.8,18.4c-1.6,0-2.8-0.6-3.7-1.7s-1.3-2.8-1.3-4.9c0-2.1,0.5-3.7,1.4-4.9c0.9-1.2,2.2-1.8,3.8-1.8
				c1.7,0,3,0.6,3.8,1.9h0.1c-0.1-0.9-0.2-1.6-0.2-2.2V0.2h2.7v18h-2.1l-0.5-1.7h-0.1C175.8,17.8,174.5,18.4,172.8,18.4z
				 M173.6,16.2c1.1,0,1.9-0.3,2.4-0.9c0.5-0.6,0.8-1.7,0.8-3.1v-0.4c0-1.6-0.3-2.8-0.8-3.4c-0.5-0.7-1.3-1-2.5-1
				c-1,0-1.7,0.4-2.2,1.2c-0.5,0.8-0.8,1.9-0.8,3.3c0,1.4,0.3,2.5,0.8,3.3S172.5,16.2,173.6,16.2z"/>
			<path class="st5" d="M188.9,18.4c-2,0-3.6-0.6-4.7-1.7c-1.1-1.2-1.7-2.8-1.7-4.8c0-2.1,0.5-3.7,1.6-4.9c1-1.2,2.5-1.8,4.3-1.8
				c1.7,0,3,0.5,4,1.5c1,1,1.5,2.4,1.5,4.2v1.5h-8.5c0,1.2,0.4,2.2,1,2.9c0.6,0.7,1.5,1,2.7,1c0.8,0,1.5-0.1,2.1-0.2
				c0.7-0.1,1.4-0.4,2.1-0.7v2.2c-0.7,0.3-1.3,0.5-2,0.7C190.5,18.4,189.8,18.4,188.9,18.4z M188.4,7.2c-0.9,0-1.6,0.3-2.1,0.8
				c-0.5,0.5-0.8,1.3-0.9,2.4h5.8c0-1.1-0.3-1.9-0.8-2.4C189.9,7.5,189.3,7.2,188.4,7.2z"/>
			<path class="st5" d="M216.8,18.2H214v-7.6h-7.8v7.6h-2.8V1.2h2.8v6.9h7.8V1.2h2.8V18.2z"/>
			<path class="st5" d="M232.3,11.8c0,2.1-0.5,3.7-1.6,4.9c-1.1,1.2-2.6,1.8-4.5,1.8c-1.2,0-2.3-0.3-3.2-0.8
				c-0.9-0.5-1.6-1.3-2.1-2.3c-0.5-1-0.7-2.2-0.7-3.5c0-2.1,0.5-3.7,1.6-4.9s2.6-1.8,4.5-1.8c1.9,0,3.3,0.6,4.4,1.8
				S232.3,9.7,232.3,11.8z M223,11.8c0,3,1.1,4.4,3.3,4.4c2.2,0,3.2-1.5,3.2-4.4c0-2.9-1.1-4.4-3.3-4.4c-1.1,0-2,0.4-2.5,1.1
				C223.3,9.3,223,10.3,223,11.8z"/>
			<path class="st5" d="M244.1,14.5c0,1.3-0.5,2.2-1.4,2.9c-0.9,0.7-2.2,1-3.9,1c-1.7,0-3.1-0.3-4.1-0.8v-2.4c1.5,0.7,2.9,1,4.2,1
				c1.7,0,2.5-0.5,2.5-1.5c0-0.3-0.1-0.6-0.3-0.8c-0.2-0.2-0.5-0.4-0.9-0.7c-0.4-0.2-1-0.5-1.8-0.8c-1.5-0.6-2.5-1.1-3-1.7
				s-0.8-1.3-0.8-2.2c0-1.1,0.4-1.9,1.3-2.6s2.1-0.9,3.6-0.9c1.5,0,2.9,0.3,4.3,0.9L243,8.1c-1.4-0.6-2.5-0.9-3.5-0.9
				c-1.4,0-2.2,0.4-2.2,1.2c0,0.4,0.2,0.7,0.6,1s1.2,0.7,2.5,1.1c1.1,0.4,1.8,0.8,2.3,1.1c0.5,0.3,0.8,0.7,1.1,1.2
				S244.1,13.9,244.1,14.5z"/>
			<path class="st5" d="M253.5,18.4c-1.6,0-2.9-0.6-3.8-1.8h-0.2c0.1,1.1,0.2,1.7,0.2,2v5.3H247V5.4h2.2c0.1,0.2,0.2,0.8,0.4,1.7
				h0.1c0.8-1.3,2.1-1.9,3.8-1.9c1.6,0,2.8,0.6,3.7,1.7s1.3,2.8,1.3,4.9c0,2.1-0.5,3.7-1.4,4.9C256.4,17.8,255.1,18.4,253.5,18.4z
				 M252.9,7.4c-1.1,0-1.9,0.3-2.4,1c-0.5,0.6-0.7,1.6-0.7,3v0.4c0,1.6,0.2,2.7,0.7,3.4c0.5,0.7,1.3,1,2.4,1c0.9,0,1.7-0.4,2.2-1.2
				c0.5-0.8,0.8-1.9,0.8-3.3c0-1.4-0.3-2.5-0.8-3.3C254.6,7.7,253.8,7.4,252.9,7.4z"/>
			<path class="st5" d="M261.6,2c0-0.5,0.1-0.9,0.4-1.1s0.6-0.4,1.1-0.4c0.5,0,0.9,0.1,1.1,0.4s0.4,0.6,0.4,1.1
				c0,0.5-0.1,0.8-0.4,1.1s-0.6,0.4-1.1,0.4c-0.5,0-0.9-0.1-1.1-0.4S261.6,2.4,261.6,2z M264.5,18.2h-2.7V5.4h2.7V18.2z"/>
			<path class="st5" d="M273.2,16.2c0.7,0,1.3-0.1,2-0.3V18c-0.3,0.1-0.7,0.2-1.2,0.3c-0.5,0.1-1,0.1-1.5,0.1
				c-2.6,0-3.9-1.4-3.9-4.1V7.4h-1.8V6.2l1.9-1l0.9-2.7h1.7v2.9h3.7v2.1h-3.7v6.9c0,0.7,0.2,1.1,0.5,1.5
				C272.2,16.1,272.7,16.2,273.2,16.2z"/>
			<path class="st5" d="M285.8,18.2l-0.5-1.8h-0.1c-0.6,0.8-1.2,1.3-1.9,1.6c-0.6,0.3-1.4,0.4-2.4,0.4c-1.3,0-2.2-0.3-2.9-1
				s-1.1-1.6-1.1-2.9c0-1.3,0.5-2.3,1.5-3s2.5-1,4.5-1.1l2.2-0.1V9.7c0-0.8-0.2-1.4-0.6-1.8c-0.4-0.4-1-0.6-1.8-0.6
				c-0.7,0-1.3,0.1-1.9,0.3c-0.6,0.2-1.2,0.4-1.7,0.7l-0.9-1.9c0.7-0.4,1.5-0.6,2.3-0.8c0.8-0.2,1.6-0.3,2.3-0.3
				c1.6,0,2.9,0.4,3.7,1.1s1.2,1.8,1.2,3.4v8.6H285.8z M281.7,16.3c1,0,1.8-0.3,2.4-0.8c0.6-0.6,0.9-1.3,0.9-2.3v-1.1l-1.6,0.1
				c-1.3,0-2.2,0.3-2.8,0.6s-0.9,1-0.9,1.8c0,0.6,0.2,1,0.5,1.3S281,16.3,281.7,16.3z"/>
			<path class="st5" d="M294.3,18.2h-2.7v-18h2.7V18.2z"/>
			<path class="st5" d="M298,2c0-0.5,0.1-0.9,0.4-1.1s0.6-0.4,1.1-0.4c0.5,0,0.9,0.1,1.1,0.4S301,1.5,301,2c0,0.5-0.1,0.8-0.4,1.1
				s-0.6,0.4-1.1,0.4c-0.5,0-0.9-0.1-1.1-0.4S298,2.4,298,2z M300.9,18.2h-2.7V5.4h2.7V18.2z"/>
			<path class="st5" d="M313.3,18.2h-9.7v-1.7l6.5-9.1H304V5.4h9.1v1.9l-6.3,8.8h6.5V18.2z"/>
			<path class="st5" d="M324.1,18.2l-0.5-1.8h-0.1c-0.6,0.8-1.2,1.3-1.9,1.6c-0.6,0.3-1.4,0.4-2.4,0.4c-1.3,0-2.2-0.3-2.9-1
				s-1.1-1.6-1.1-2.9c0-1.3,0.5-2.3,1.5-3s2.5-1,4.5-1.1l2.2-0.1V9.7c0-0.8-0.2-1.4-0.6-1.8c-0.4-0.4-1-0.6-1.8-0.6
				c-0.7,0-1.3,0.1-1.9,0.3c-0.6,0.2-1.2,0.4-1.7,0.7l-0.9-1.9c0.7-0.4,1.5-0.6,2.3-0.8c0.8-0.2,1.6-0.3,2.3-0.3
				c1.6,0,2.9,0.4,3.7,1.1s1.2,1.8,1.2,3.4v8.6H324.1z M320.1,16.3c1,0,1.8-0.3,2.4-0.8c0.6-0.6,0.9-1.3,0.9-2.3v-1.1l-1.6,0.1
				c-1.3,0-2.2,0.3-2.8,0.6s-0.9,1-0.9,1.8c0,0.6,0.2,1,0.5,1.3S319.4,16.3,320.1,16.3z"/>
			<path class="st5" d="M335.1,18.4c-1.9,0-3.4-0.6-4.4-1.7c-1-1.1-1.5-2.8-1.5-4.9c0-2.2,0.5-3.8,1.6-5c1.1-1.2,2.6-1.7,4.6-1.7
				c1.4,0,2.6,0.3,3.7,0.8l-0.8,2.2c-1.2-0.4-2.1-0.7-2.9-0.7c-2.2,0-3.3,1.5-3.3,4.4c0,1.4,0.3,2.5,0.8,3.2
				c0.6,0.7,1.4,1.1,2.4,1.1c1.2,0,2.4-0.3,3.4-0.9v2.4c-0.5,0.3-1,0.5-1.6,0.6S335.8,18.4,335.1,18.4z"/>
			<path class="st5" d="M341.5,2c0-0.5,0.1-0.9,0.4-1.1s0.6-0.4,1.1-0.4c0.5,0,0.9,0.1,1.1,0.4s0.4,0.6,0.4,1.1
				c0,0.5-0.1,0.8-0.4,1.1s-0.6,0.4-1.1,0.4c-0.5,0-0.9-0.1-1.1-0.4S341.5,2.4,341.5,2z M344.4,18.2h-2.7V5.4h2.7V18.2z"/>
			<path class="st5" d="M359.6,11.8c0,2.1-0.5,3.7-1.6,4.9c-1.1,1.2-2.6,1.8-4.5,1.8c-1.2,0-2.3-0.3-3.2-0.8
				c-0.9-0.5-1.6-1.3-2.1-2.3c-0.5-1-0.7-2.2-0.7-3.5c0-2.1,0.5-3.7,1.6-4.9s2.6-1.8,4.5-1.8c1.9,0,3.3,0.6,4.4,1.8
				S359.6,9.7,359.6,11.8z M350.3,11.8c0,3,1.1,4.4,3.3,4.4c2.2,0,3.2-1.5,3.2-4.4c0-2.9-1.1-4.4-3.3-4.4c-1.1,0-2,0.4-2.5,1.1
				C350.6,9.3,350.3,10.3,350.3,11.8z M351.8,3.8V3.5c0.4-0.5,0.9-1.1,1.4-1.8c0.5-0.7,0.8-1.2,1.1-1.7h3.2v0.2
				c-0.4,0.5-1,1.1-1.8,1.8c-0.8,0.7-1.5,1.3-2,1.7H351.8z"/>
			<path class="st5" d="M374,18.2h-2.7v-7.9c0-1-0.2-1.7-0.6-2.2s-1-0.7-1.9-0.7c-1.2,0-2,0.3-2.5,1c-0.5,0.7-0.8,1.8-0.8,3.4v6.4
				h-2.7V5.4h2.1l0.4,1.7h0.1c0.4-0.6,0.9-1.1,1.6-1.4c0.7-0.3,1.5-0.5,2.4-0.5c3.1,0,4.6,1.6,4.6,4.7V18.2z"/>
			<path class="st5" d="M390.5,18.4c-1.6,0-2.9-0.6-3.8-1.8h-0.2c0.1,1.1,0.2,1.7,0.2,2v5.3H384V5.4h2.2c0.1,0.2,0.2,0.8,0.4,1.7
				h0.1c0.8-1.3,2.1-1.9,3.8-1.9c1.6,0,2.8,0.6,3.7,1.7s1.3,2.8,1.3,4.9c0,2.1-0.5,3.7-1.4,4.9C393.3,17.8,392.1,18.4,390.5,18.4z
				 M389.8,7.4c-1.1,0-1.9,0.3-2.4,1c-0.5,0.6-0.7,1.6-0.7,3v0.4c0,1.6,0.2,2.7,0.7,3.4c0.5,0.7,1.3,1,2.4,1c0.9,0,1.7-0.4,2.2-1.2
				c0.5-0.8,0.8-1.9,0.8-3.3c0-1.4-0.3-2.5-0.8-3.3C391.6,7.7,390.8,7.4,389.8,7.4z"/>
			<path class="st5" d="M410.2,11.8c0,2.1-0.5,3.7-1.6,4.9c-1.1,1.2-2.6,1.8-4.5,1.8c-1.2,0-2.3-0.3-3.2-0.8
				c-0.9-0.5-1.6-1.3-2.1-2.3c-0.5-1-0.7-2.2-0.7-3.5c0-2.1,0.5-3.7,1.6-4.9s2.6-1.8,4.5-1.8c1.9,0,3.3,0.6,4.4,1.8
				S410.2,9.7,410.2,11.8z M400.8,11.8c0,3,1.1,4.4,3.3,4.4c2.2,0,3.2-1.5,3.2-4.4c0-2.9-1.1-4.4-3.3-4.4c-1.1,0-2,0.4-2.5,1.1
				C401.1,9.3,400.8,10.3,400.8,11.8z"/>
			<path class="st5" d="M419.8,5.1c0.5,0,1,0,1.4,0.1l-0.3,2.5c-0.4-0.1-0.8-0.1-1.2-0.1c-1.1,0-2,0.4-2.6,1.1c-0.7,0.7-1,1.6-1,2.8
				v6.7h-2.7V5.4h2.1l0.4,2.3h0.1c0.4-0.8,1-1.4,1.7-1.8C418.3,5.4,419,5.1,419.8,5.1z"/>
			<path class="st5" d="M437.7,18.2l-0.5-1.8h-0.1c-0.6,0.8-1.2,1.3-1.9,1.6c-0.6,0.3-1.4,0.4-2.4,0.4c-1.3,0-2.2-0.3-3-1
				s-1.1-1.6-1.1-2.9c0-1.3,0.5-2.3,1.5-3c1-0.7,2.5-1,4.5-1.1l2.2-0.1V9.7c0-0.8-0.2-1.4-0.6-1.8c-0.4-0.4-1-0.6-1.8-0.6
				c-0.7,0-1.3,0.1-1.9,0.3c-0.6,0.2-1.2,0.4-1.7,0.7l-0.9-1.9c0.7-0.4,1.5-0.6,2.3-0.8c0.8-0.2,1.6-0.3,2.3-0.3
				c1.6,0,2.9,0.4,3.7,1.1c0.8,0.7,1.2,1.8,1.2,3.4v8.6H437.7z M433.6,16.3c1,0,1.8-0.3,2.4-0.8c0.6-0.6,0.9-1.3,0.9-2.3v-1.1
				l-1.6,0.1c-1.3,0-2.2,0.3-2.8,0.6c-0.6,0.4-0.9,1-0.9,1.8c0,0.6,0.2,1,0.5,1.3C432.5,16.2,433,16.3,433.6,16.3z"/>
			<path class="st5" d="M452.1,14.5c0,1.3-0.5,2.2-1.4,2.9c-0.9,0.7-2.2,1-3.9,1c-1.7,0-3.1-0.3-4.1-0.8v-2.4c1.5,0.7,2.9,1,4.2,1
				c1.7,0,2.5-0.5,2.5-1.5c0-0.3-0.1-0.6-0.3-0.8c-0.2-0.2-0.5-0.4-0.9-0.7c-0.4-0.2-1-0.5-1.8-0.8c-1.5-0.6-2.5-1.1-3-1.7
				s-0.8-1.3-0.8-2.2c0-1.1,0.4-1.9,1.3-2.6s2.1-0.9,3.6-0.9c1.5,0,2.9,0.3,4.3,0.9L451,8.1c-1.4-0.6-2.5-0.9-3.5-0.9
				c-1.4,0-2.2,0.4-2.2,1.2c0,0.4,0.2,0.7,0.6,1c0.4,0.3,1.2,0.7,2.5,1.1c1.1,0.4,1.8,0.8,2.3,1.1c0.5,0.3,0.8,0.7,1.1,1.2
				C452,13.4,452.1,13.9,452.1,14.5z"/>
			<path class="st5" d="M465.8,18.2h-2.7v-7.9c0-1-0.2-1.7-0.6-2.2c-0.4-0.5-1-0.7-1.7-0.7c-1.1,0-1.8,0.3-2.3,1
				c-0.5,0.7-0.7,1.8-0.7,3.4v6.4H455V5.4h2.1l0.4,1.7h0.1c0.4-0.6,0.9-1.1,1.5-1.4c0.7-0.3,1.4-0.5,2.2-0.5c2,0,3.3,0.7,3.9,2h0.2
				c0.4-0.6,0.9-1.1,1.6-1.5c0.7-0.4,1.5-0.5,2.4-0.5c1.5,0,2.6,0.4,3.3,1.2c0.7,0.8,1,2,1,3.5v8.4h-2.7v-7.9c0-1-0.2-1.7-0.6-2.2
				s-1-0.7-1.7-0.7c-1.1,0-1.8,0.3-2.3,1c-0.5,0.7-0.7,1.7-0.7,3V18.2z"/>
			<path class="st5" d="M485.7,18.2l-0.5-1.8h-0.1c-0.6,0.8-1.2,1.3-1.9,1.6c-0.6,0.3-1.4,0.4-2.4,0.4c-1.3,0-2.2-0.3-3-1
				s-1.1-1.6-1.1-2.9c0-1.3,0.5-2.3,1.5-3c1-0.7,2.5-1,4.5-1.1l2.2-0.1V9.7c0-0.8-0.2-1.4-0.6-1.8c-0.4-0.4-1-0.6-1.8-0.6
				c-0.7,0-1.3,0.1-1.9,0.3c-0.6,0.2-1.2,0.4-1.7,0.7l-0.9-1.9c0.7-0.4,1.5-0.6,2.3-0.8c0.8-0.2,1.6-0.3,2.3-0.3
				c1.6,0,2.9,0.4,3.7,1.1c0.8,0.7,1.2,1.8,1.2,3.4v8.6H485.7z M481.7,16.3c1,0,1.8-0.3,2.4-0.8c0.6-0.6,0.9-1.3,0.9-2.3v-1.1
				l-1.6,0.1c-1.3,0-2.2,0.3-2.8,0.6c-0.6,0.4-0.9,1-0.9,1.8c0,0.6,0.2,1,0.5,1.3C480.5,16.2,481,16.3,481.7,16.3z"/>
			<path class="st5" d="M505.1,3.4c-1.6,0-2.8,0.6-3.8,1.7c-0.9,1.1-1.4,2.7-1.4,4.7c0,2.1,0.4,3.7,1.3,4.7s2.1,1.6,3.8,1.6
				c0.7,0,1.4-0.1,2.1-0.2s1.4-0.3,2.1-0.6v2.4c-1.3,0.5-2.8,0.8-4.5,0.8c-2.5,0-4.4-0.8-5.7-2.3s-2-3.7-2-6.5c0-1.8,0.3-3.3,1-4.6
				c0.6-1.3,1.6-2.3,2.8-3c1.2-0.7,2.7-1.1,4.3-1.1c1.7,0,3.3,0.4,4.8,1.1l-1,2.3c-0.6-0.3-1.2-0.5-1.8-0.7
				C506.5,3.5,505.8,3.4,505.1,3.4z"/>
			<path class="st5" d="M520.7,18.2l-0.5-1.8h-0.1c-0.6,0.8-1.2,1.3-1.9,1.6c-0.6,0.3-1.4,0.4-2.4,0.4c-1.3,0-2.2-0.3-3-1
				s-1.1-1.6-1.1-2.9c0-1.3,0.5-2.3,1.5-3c1-0.7,2.5-1,4.5-1.1l2.2-0.1V9.7c0-0.8-0.2-1.4-0.6-1.8c-0.4-0.4-1-0.6-1.8-0.6
				c-0.7,0-1.3,0.1-1.9,0.3c-0.6,0.2-1.2,0.4-1.7,0.7l-0.9-1.9c0.7-0.4,1.5-0.6,2.3-0.8c0.8-0.2,1.6-0.3,2.3-0.3
				c1.6,0,2.9,0.4,3.7,1.1c0.8,0.7,1.2,1.8,1.2,3.4v8.6H520.7z M516.7,16.3c1,0,1.8-0.3,2.4-0.8c0.6-0.6,0.9-1.3,0.9-2.3v-1.1
				l-1.6,0.1c-1.3,0-2.2,0.3-2.8,0.6c-0.6,0.4-0.9,1-0.9,1.8c0,0.6,0.2,1,0.5,1.3C515.5,16.2,516,16.3,516.7,16.3z"/>
			<path class="st5" d="M537.7,18.2H535v-7.9c0-1-0.2-1.7-0.6-2.2c-0.4-0.5-1-0.7-1.9-0.7c-1.2,0-2,0.3-2.5,1
				c-0.5,0.7-0.8,1.8-0.8,3.4v6.4h-2.7V5.4h2.1L529,7h0.1c0.4-0.6,0.9-1.1,1.6-1.4c0.7-0.3,1.5-0.5,2.4-0.5c3.1,0,4.6,1.6,4.6,4.7
				V18.2z"/>
			<path class="st5" d="M549.5,18.2l-0.5-1.8h-0.1c-0.6,0.8-1.2,1.3-1.9,1.6c-0.6,0.3-1.4,0.4-2.4,0.4c-1.3,0-2.2-0.3-3-1
				s-1.1-1.6-1.1-2.9c0-1.3,0.5-2.3,1.5-3c1-0.7,2.5-1,4.5-1.1l2.2-0.1V9.7c0-0.8-0.2-1.4-0.6-1.8c-0.4-0.4-1-0.6-1.8-0.6
				c-0.7,0-1.3,0.1-1.9,0.3c-0.6,0.2-1.2,0.4-1.7,0.7l-0.9-1.9c0.7-0.4,1.5-0.6,2.3-0.8c0.8-0.2,1.6-0.3,2.3-0.3
				c1.6,0,2.9,0.4,3.7,1.1c0.8,0.7,1.2,1.8,1.2,3.4v8.6H549.5z M545.5,16.3c1,0,1.8-0.3,2.4-0.8c0.6-0.6,0.9-1.3,0.9-2.3v-1.1
				l-1.6,0.1c-1.3,0-2.2,0.3-2.8,0.6c-0.6,0.4-0.9,1-0.9,1.8c0,0.6,0.2,1,0.5,1.3C544.3,16.2,544.8,16.3,545.5,16.3z"/>
			<path class="st5" d="M559.6,18.4c-1.6,0-2.8-0.6-3.7-1.7c-0.9-1.2-1.3-2.8-1.3-4.9c0-2.1,0.5-3.7,1.4-4.9
				c0.9-1.2,2.2-1.8,3.8-1.8c1.7,0,3,0.6,3.8,1.9h0.1c-0.1-0.9-0.2-1.6-0.2-2.2V0.2h2.7v18h-2.1l-0.5-1.7h-0.1
				C562.6,17.8,561.3,18.4,559.6,18.4z M560.4,16.2c1.1,0,1.9-0.3,2.4-0.9c0.5-0.6,0.8-1.7,0.8-3.1v-0.4c0-1.6-0.3-2.8-0.8-3.4
				c-0.5-0.7-1.3-1-2.5-1c-1,0-1.7,0.4-2.2,1.2c-0.5,0.8-0.8,1.9-0.8,3.3c0,1.4,0.3,2.5,0.8,3.3C558.6,15.8,559.3,16.2,560.4,16.2z"
				/>
			<path class="st5" d="M578.1,18.2l-0.5-1.8h-0.1c-0.6,0.8-1.2,1.3-1.9,1.6c-0.6,0.3-1.4,0.4-2.4,0.4c-1.3,0-2.2-0.3-3-1
				s-1.1-1.6-1.1-2.9c0-1.3,0.5-2.3,1.5-3c1-0.7,2.5-1,4.5-1.1l2.2-0.1V9.7c0-0.8-0.2-1.4-0.6-1.8c-0.4-0.4-1-0.6-1.8-0.6
				c-0.7,0-1.3,0.1-1.9,0.3c-0.6,0.2-1.2,0.4-1.7,0.7l-0.9-1.9c0.7-0.4,1.5-0.6,2.3-0.8c0.8-0.2,1.6-0.3,2.3-0.3
				c1.6,0,2.9,0.4,3.7,1.1c0.8,0.7,1.2,1.8,1.2,3.4v8.6H578.1z M574.1,16.3c1,0,1.8-0.3,2.4-0.8c0.6-0.6,0.9-1.3,0.9-2.3v-1.1
				l-1.6,0.1c-1.3,0-2.2,0.3-2.8,0.6c-0.6,0.4-0.9,1-0.9,1.8c0,0.6,0.2,1,0.5,1.3C572.9,16.2,573.4,16.3,574.1,16.3z"/>
			<path class="st5" d="M597.1,18.2h-2.7V7.2c0-1.3,0-2.3,0.1-3.1c-0.2,0.2-0.4,0.4-0.7,0.6s-1.1,0.9-2.6,2.1l-1.4-1.7l5-3.9h2.3
				V18.2z"/>
			<path class="st5" d="M614.1,8.5c0,3.3-0.7,5.8-2,7.5c-1.3,1.6-3.4,2.5-6.1,2.5c-1,0-1.8-0.1-2.2-0.2v-2.3
				c0.7,0.2,1.4,0.3,2.1,0.3c1.8,0,3.2-0.5,4.1-1.5c0.9-1,1.4-2.5,1.5-4.7h-0.1c-0.5,0.7-1,1.2-1.7,1.5c-0.6,0.3-1.4,0.5-2.3,0.5
				c-1.5,0-2.7-0.5-3.5-1.4c-0.9-0.9-1.3-2.2-1.3-3.8c0-1.8,0.5-3.2,1.5-4.2c1-1,2.3-1.6,4.1-1.6c1.2,0,2.3,0.3,3.2,0.9
				c0.9,0.6,1.6,1.4,2.1,2.6C613.9,5.6,614.1,6.9,614.1,8.5z M608.2,3.3c-0.9,0-1.7,0.3-2.2,0.9s-0.8,1.5-0.8,2.6
				c0,1,0.2,1.7,0.7,2.3c0.5,0.6,1.2,0.8,2.1,0.8c0.9,0,1.7-0.3,2.3-0.8c0.6-0.5,0.9-1.2,0.9-1.9c0-0.7-0.1-1.3-0.4-1.9
				c-0.3-0.6-0.6-1.1-1.1-1.4S608.8,3.3,608.2,3.3z"/>
			<path class="st5" d="M627.7,8.5c0,3.3-0.7,5.8-2,7.5c-1.3,1.6-3.4,2.5-6.1,2.5c-1,0-1.8-0.1-2.2-0.2v-2.3
				c0.7,0.2,1.4,0.3,2.1,0.3c1.8,0,3.2-0.5,4.1-1.5c0.9-1,1.4-2.5,1.5-4.7h-0.1c-0.5,0.7-1,1.2-1.7,1.5c-0.6,0.3-1.4,0.5-2.3,0.5
				c-1.5,0-2.7-0.5-3.5-1.4c-0.9-0.9-1.3-2.2-1.3-3.8c0-1.8,0.5-3.2,1.5-4.2c1-1,2.3-1.6,4.1-1.6c1.2,0,2.3,0.3,3.2,0.9
				c0.9,0.6,1.6,1.4,2.1,2.6C627.4,5.6,627.7,6.9,627.7,8.5z M621.8,3.3c-0.9,0-1.7,0.3-2.2,0.9s-0.8,1.5-0.8,2.6
				c0,1,0.2,1.7,0.7,2.3c0.5,0.6,1.2,0.8,2.1,0.8c0.9,0,1.7-0.3,2.3-0.8c0.6-0.5,0.9-1.2,0.9-1.9c0-0.7-0.1-1.3-0.4-1.9
				c-0.3-0.6-0.6-1.1-1.1-1.4S622.4,3.3,621.8,3.3z"/>
			<path class="st5" d="M641.3,9.7c0,2.9-0.5,5.1-1.4,6.6c-0.9,1.4-2.4,2.1-4.3,2.1c-1.9,0-3.3-0.7-4.3-2.2s-1.5-3.6-1.5-6.5
				c0-3,0.5-5.2,1.4-6.6c0.9-1.4,2.4-2.1,4.3-2.1c1.9,0,3.3,0.7,4.3,2.2C640.8,4.7,641.3,6.9,641.3,9.7z M632.5,9.7
				c0,2.3,0.2,4,0.7,4.9c0.5,1,1.2,1.5,2.3,1.5c1,0,1.8-0.5,2.3-1.5c0.5-1,0.7-2.6,0.7-4.9c0-2.3-0.2-3.9-0.7-4.9
				c-0.5-1-1.2-1.5-2.3-1.5c-1,0-1.8,0.5-2.3,1.5C632.7,5.7,632.5,7.4,632.5,9.7z"/>
			<path class="st5" d="M643.1,13v-2.3h6V13H643.1z"/>
			<path class="st5" d="M662.4,18.2H651v-2.1l4.4-4.4c1.3-1.3,2.1-2.3,2.6-2.8c0.4-0.6,0.7-1.1,0.9-1.6c0.2-0.5,0.3-1,0.3-1.6
				c0-0.8-0.2-1.4-0.7-1.8s-1.1-0.7-1.9-0.7c-0.6,0-1.3,0.1-1.9,0.4c-0.6,0.2-1.3,0.7-2.1,1.3l-1.5-1.8c0.9-0.8,1.9-1.4,2.7-1.7
				c0.9-0.3,1.8-0.5,2.8-0.5c1.6,0,2.8,0.4,3.8,1.2c1,0.8,1.4,1.9,1.4,3.3c0,0.8-0.1,1.5-0.4,2.2c-0.3,0.7-0.7,1.4-1.3,2.1
				c-0.6,0.7-1.5,1.7-2.8,3l-2.9,2.9v0.1h8V18.2z"/>
			<path class="st5" d="M676,9.7c0,2.9-0.5,5.1-1.4,6.6c-0.9,1.4-2.4,2.1-4.3,2.1c-1.9,0-3.3-0.7-4.3-2.2s-1.5-3.6-1.5-6.5
				c0-3,0.5-5.2,1.4-6.6c0.9-1.4,2.4-2.1,4.3-2.1c1.9,0,3.3,0.7,4.3,2.2C675.5,4.7,676,6.9,676,9.7z M667.2,9.7c0,2.3,0.2,4,0.7,4.9
				c0.5,1,1.2,1.5,2.3,1.5c1,0,1.8-0.5,2.3-1.5c0.5-1,0.7-2.6,0.7-4.9c0-2.3-0.2-3.9-0.7-4.9c-0.5-1-1.2-1.5-2.3-1.5
				c-1,0-1.8,0.5-2.3,1.5C667.5,5.7,667.2,7.4,667.2,9.7z"/>
			<path class="st5" d="M689.5,9.7c0,2.9-0.5,5.1-1.4,6.6c-0.9,1.4-2.4,2.1-4.3,2.1c-1.9,0-3.3-0.7-4.3-2.2s-1.5-3.6-1.5-6.5
				c0-3,0.5-5.2,1.4-6.6c0.9-1.4,2.4-2.1,4.3-2.1c1.9,0,3.3,0.7,4.3,2.2C689.1,4.7,689.5,6.9,689.5,9.7z M680.8,9.7
				c0,2.3,0.2,4,0.7,4.9c0.5,1,1.2,1.5,2.3,1.5c1,0,1.8-0.5,2.3-1.5c0.5-1,0.7-2.6,0.7-4.9c0-2.3-0.2-3.9-0.7-4.9
				c-0.5-1-1.2-1.5-2.3-1.5c-1,0-1.8,0.5-2.3,1.5C681,5.7,680.8,7.4,680.8,9.7z"/>
			<path class="st5" d="M702.5,5.1c0,1.1-0.3,2-0.9,2.7c-0.6,0.7-1.5,1.2-2.6,1.4v0.1c1.4,0.2,2.4,0.6,3.1,1.3c0.7,0.7,1,1.6,1,2.7
				c0,1.6-0.6,2.9-1.7,3.8s-2.8,1.3-4.9,1.3c-1.9,0-3.5-0.3-4.8-0.9v-2.4c0.7,0.4,1.5,0.6,2.3,0.8c0.8,0.2,1.6,0.3,2.3,0.3
				c1.3,0,2.3-0.2,2.9-0.7c0.6-0.5,1-1.2,1-2.3c0-0.9-0.4-1.6-1.1-2c-0.7-0.4-1.8-0.6-3.4-0.6h-1.5V8.4h1.5c2.7,0,4.1-0.9,4.1-2.8
				c0-0.7-0.2-1.3-0.7-1.7s-1.2-0.6-2.1-0.6c-0.6,0-1.3,0.1-1.9,0.3c-0.6,0.2-1.3,0.5-2.1,1.1l-1.3-1.9C693.2,1.6,695,1,697,1
				c1.7,0,3,0.4,4,1.1C702,2.8,702.5,3.8,702.5,5.1z"/>
			<path class="st5" d="M201.3,42.4c0-2.8,0.4-5.3,1.2-7.7c0.8-2.4,2-4.5,3.5-6.3h3.9c-1.5,2-2.6,4.2-3.3,6.6s-1.1,4.9-1.1,7.4
				c0,2.5,0.4,5,1.1,7.4c0.8,2.4,1.9,4.5,3.3,6.4H206c-1.5-1.8-2.7-3.8-3.5-6.2C201.7,47.7,201.3,45.1,201.3,42.4z"/>
			<path class="st5" d="M228,51.2h-15.9v-3.4l5.7-5.8c1.7-1.7,2.8-2.9,3.3-3.6c0.5-0.7,0.9-1.3,1.1-1.9c0.2-0.6,0.3-1.2,0.3-1.8
				c0-0.9-0.3-1.6-0.8-2c-0.5-0.4-1.2-0.7-2-0.7c-0.9,0-1.7,0.2-2.6,0.6c-0.8,0.4-1.7,1-2.6,1.7l-2.6-3.1c1.1-1,2.1-1.6,2.8-2
				s1.5-0.7,2.4-0.9c0.9-0.2,1.9-0.3,2.9-0.3c1.4,0,2.7,0.3,3.8,0.8s1.9,1.2,2.5,2.2c0.6,0.9,0.9,2,0.9,3.2c0,1.1-0.2,2-0.6,3
				c-0.4,0.9-0.9,1.9-1.7,2.8c-0.8,1-2.1,2.3-4.1,4.1l-2.9,2.8v0.2h9.9V51.2z"/>
			<path class="st5" d="M238.6,36.6c2.2,0,4,0.6,5.3,1.9c1.3,1.2,2,2.9,2,5.1c0,2.5-0.8,4.5-2.4,5.9c-1.6,1.4-3.8,2.1-6.7,2.1
				c-2.5,0-4.6-0.4-6.1-1.2v-4.2c0.8,0.4,1.8,0.8,2.9,1.1c1.1,0.3,2.1,0.4,3.1,0.4c2.9,0,4.4-1.2,4.4-3.6c0-2.3-1.5-3.4-4.6-3.4
				c-0.6,0-1.2,0.1-1.8,0.2c-0.7,0.1-1.2,0.2-1.6,0.4l-1.9-1l0.9-11.6h12.4v4.1h-8.1l-0.4,4.5l0.5-0.1
				C236.9,36.7,237.7,36.6,238.6,36.6z"/>
			<path class="st5" d="M248.4,41.5c0-4.5,1-7.9,2.9-10.1c1.9-2.2,4.8-3.3,8.6-3.3c1.3,0,2.3,0.1,3.1,0.2v3.9
				c-0.9-0.2-1.8-0.3-2.7-0.3c-1.7,0-3,0.2-4,0.7s-1.8,1.2-2.3,2.2c-0.5,1-0.8,2.4-0.9,4.2h0.2c1-1.8,2.7-2.7,4.9-2.7
				c2,0,3.6,0.6,4.8,1.9c1.2,1.3,1.7,3,1.7,5.3c0,2.4-0.7,4.4-2.1,5.8c-1.4,1.4-3.3,2.1-5.7,2.1c-1.7,0-3.2-0.4-4.4-1.2
				s-2.2-1.9-2.9-3.4C248.7,45.4,248.4,43.6,248.4,41.5z M256.6,47.6c1,0,1.8-0.3,2.4-1c0.6-0.7,0.8-1.7,0.8-3c0-1.1-0.3-2-0.8-2.6
				c-0.5-0.6-1.3-1-2.3-1c-1,0-1.8,0.3-2.5,1c-0.7,0.6-1,1.4-1,2.2c0,1.2,0.3,2.3,1,3.1C254.8,47.2,255.6,47.6,256.6,47.6z"/>
			<path class="st5" d="M272.7,47.8c-0.5,2.1-1.5,4.6-2.7,7.5h-3.4c0.7-2.8,1.2-5.4,1.6-7.8h4.4L272.7,47.8z"/>
			<path class="st5" d="M283.9,28.1c2.2,0,3.9,0.5,5.3,1.5c1.3,1,2,2.3,2,4c0,1.2-0.3,2.2-1,3.1s-1.7,1.7-3.1,2.4
				c1.7,0.9,2.9,1.9,3.7,2.9c0.7,1,1.1,2.1,1.1,3.3c0,1.9-0.7,3.4-2.2,4.5c-1.5,1.1-3.4,1.7-5.8,1.7c-2.5,0-4.5-0.5-5.9-1.6
				c-1.4-1.1-2.1-2.6-2.1-4.5c0-1.3,0.3-2.5,1-3.5c0.7-1,1.8-1.9,3.3-2.7c-1.3-0.8-2.2-1.7-2.8-2.6c-0.6-0.9-0.9-2-0.9-3.1
				c0-1.6,0.7-3,2-4S281.7,28.1,283.9,28.1z M280.3,45.1c0,0.9,0.3,1.6,0.9,2.1c0.6,0.5,1.5,0.7,2.6,0.7c1.2,0,2.1-0.3,2.7-0.8
				c0.6-0.5,0.9-1.2,0.9-2c0-0.7-0.3-1.3-0.9-2c-0.6-0.6-1.5-1.3-2.9-1.9C281.5,42.3,280.3,43.5,280.3,45.1z M283.9,31.6
				c-0.8,0-1.5,0.2-2,0.6c-0.5,0.4-0.8,1-0.8,1.7c0,0.6,0.2,1.2,0.6,1.7c0.4,0.5,1.1,1,2.2,1.5c1-0.5,1.7-1,2.1-1.5
				c0.4-0.5,0.6-1.1,0.6-1.7c0-0.7-0.3-1.3-0.8-1.7C285.3,31.8,284.7,31.6,283.9,31.6z"/>
			<path class="st5" d="M310.7,46.4H308v4.7h-4.7v-4.7h-9.7v-3.4l10-14.7h4.4v14.3h2.7V46.4z M303.3,42.7v-3.9c0-0.6,0-1.6,0.1-2.8
				c0.1-1.2,0.1-1.9,0.1-2.1h-0.1c-0.4,0.9-0.8,1.7-1.4,2.5l-4.2,6.3H303.3z"/>
			<path class="st5" d="M327.6,33.5c0,1.4-0.4,2.6-1.3,3.6c-0.9,1-2.1,1.7-3.6,2.1v0.1c1.8,0.2,3.2,0.8,4.2,1.7
				c0.9,0.9,1.4,2.1,1.4,3.6c0,2.2-0.8,3.9-2.4,5.1s-3.9,1.8-6.8,1.8c-2.5,0-4.7-0.4-6.6-1.2v-4.1c0.9,0.4,1.9,0.8,2.9,1.1
				s2.1,0.4,3.2,0.4c1.6,0,2.8-0.3,3.5-0.8c0.8-0.5,1.1-1.4,1.1-2.6c0-1.1-0.4-1.8-1.3-2.3c-0.9-0.4-2.3-0.7-4.2-0.7H316v-3.7h1.8
				c1.8,0,3.1-0.2,3.9-0.7c0.8-0.5,1.2-1.3,1.2-2.4c0-1.7-1.1-2.6-3.2-2.6c-0.7,0-1.5,0.1-2.3,0.4c-0.8,0.2-1.6,0.7-2.6,1.3
				l-2.2-3.3c2.1-1.5,4.6-2.2,7.4-2.2c2.4,0,4.2,0.5,5.6,1.4C326.9,30.4,327.6,31.8,327.6,33.5z"/>
			<path class="st5" d="M349.8,51.5c-2,0-3.7-0.7-4.8-2.2h-0.2c0.2,1.5,0.2,2.3,0.2,2.5v7.1h-4.8V33.7h3.9l0.7,2.3h0.2
				c1.1-1.7,2.8-2.6,4.9-2.6c2.1,0,3.7,0.8,4.8,2.4s1.7,3.8,1.7,6.6c0,1.9-0.3,3.5-0.8,4.9s-1.3,2.4-2.3,3.1
				C352.4,51.1,351.2,51.5,349.8,51.5z M348.4,37.2c-1.2,0-2,0.4-2.6,1.1s-0.8,1.9-0.8,3.6v0.5c0,1.9,0.3,3.2,0.8,4s1.4,1.2,2.6,1.2
				c2.1,0,3.2-1.8,3.2-5.3c0-1.7-0.3-3-0.8-3.9S349.5,37.2,348.4,37.2z"/>
			<path class="st5" d="M371.5,51.2l-0.9-2.4h-0.1c-0.8,1-1.6,1.7-2.5,2.1c-0.8,0.4-2,0.6-3.3,0.6c-1.7,0-3-0.5-4-1.4
				c-1-1-1.4-2.3-1.4-4.1c0-1.9,0.6-3.2,1.9-4.1c1.3-0.9,3.2-1.4,5.9-1.5l3-0.1v-0.8c0-1.8-0.9-2.7-2.7-2.7c-1.4,0-3,0.4-4.9,1.3
				l-1.6-3.2c2-1,4.2-1.6,6.7-1.6c2.3,0,4.1,0.5,5.4,1.5s1.9,2.6,1.9,4.6v11.6H371.5z M370.1,43.1l-1.8,0.1c-1.4,0-2.4,0.3-3.1,0.7
				c-0.7,0.5-1,1.2-1,2.1c0,1.3,0.8,2,2.3,2c1.1,0,2-0.3,2.6-1c0.7-0.6,1-1.5,1-2.5V43.1z"/>
			<path class="st5" d="M386.8,51.5c-5.4,0-8.1-3-8.1-8.9c0-3,0.7-5.2,2.2-6.8c1.5-1.6,3.6-2.3,6.3-2.3c2,0,3.8,0.4,5.4,1.2
				l-1.4,3.7c-0.7-0.3-1.4-0.5-2.1-0.7c-0.6-0.2-1.3-0.3-1.9-0.3c-2.5,0-3.7,1.8-3.7,5.3c0,3.4,1.2,5.1,3.7,5.1
				c0.9,0,1.8-0.1,2.5-0.4c0.8-0.2,1.6-0.6,2.3-1.1v4.1c-0.8,0.5-1.5,0.8-2.3,1S388,51.5,386.8,51.5z"/>
			<path class="st5" d="M396,29.2c0-1.5,0.9-2.3,2.6-2.3c1.7,0,2.6,0.8,2.6,2.3c0,0.7-0.2,1.3-0.6,1.7s-1.1,0.6-1.9,0.6
				C396.8,31.6,396,30.8,396,29.2z M400.9,51.2h-4.8V33.7h4.8V51.2z"/>
			<path class="st5" d="M413.8,51.5c-2.8,0-5-0.8-6.6-2.3c-1.6-1.5-2.4-3.7-2.4-6.6c0-2.9,0.7-5.2,2.2-6.8c1.5-1.6,3.5-2.4,6.1-2.4
				c2.5,0,4.4,0.7,5.8,2.1c1.4,1.4,2.1,3.3,2.1,5.8v2.3h-11.2c0.1,1.4,0.5,2.4,1.2,3.2c0.7,0.8,1.8,1.1,3.2,1.1c1,0,2-0.1,3-0.3
				c0.9-0.2,1.9-0.6,2.9-1v3.7c-0.8,0.4-1.7,0.7-2.7,0.9C416.3,51.4,415.2,51.5,413.8,51.5z M413.1,36.8c-1,0-1.8,0.3-2.4,1
				c-0.6,0.6-0.9,1.5-1,2.7h6.7c0-1.2-0.3-2.1-0.9-2.7C415,37.1,414.2,36.8,413.1,36.8z"/>
			<path class="st5" d="M440.9,51.2h-4.8V41c0-1.3-0.2-2.2-0.7-2.8c-0.4-0.6-1.2-0.9-2.1-0.9c-1.3,0-2.3,0.4-2.9,1.3
				c-0.6,0.9-0.9,2.4-0.9,4.4v8.2h-4.8V33.7h3.6l0.6,2.2h0.3c0.5-0.8,1.3-1.5,2.2-1.9c0.9-0.4,2-0.6,3.2-0.6c2,0,3.6,0.5,4.6,1.6
				c1.1,1.1,1.6,2.7,1.6,4.7V51.2z"/>
			<path class="st5" d="M453.1,47.7c0.8,0,1.8-0.2,3-0.5v3.5c-1.2,0.5-2.6,0.8-4.4,0.8c-1.9,0-3.3-0.5-4.2-1.4
				c-0.9-1-1.3-2.4-1.3-4.3v-8.4H444v-2l2.6-1.6L448,30h3v3.7h4.9v3.6h-4.9v8.4c0,0.7,0.2,1.2,0.6,1.5S452.5,47.7,453.1,47.7z"/>
			<path class="st5" d="M467.5,51.5c-2.8,0-5-0.8-6.6-2.3c-1.6-1.5-2.4-3.7-2.4-6.6c0-2.9,0.7-5.2,2.2-6.8c1.5-1.6,3.5-2.4,6.1-2.4
				c2.5,0,4.4,0.7,5.8,2.1c1.4,1.4,2.1,3.3,2.1,5.8v2.3h-11.2c0.1,1.4,0.5,2.4,1.2,3.2c0.7,0.8,1.8,1.1,3.2,1.1c1,0,2-0.1,3-0.3
				c0.9-0.2,1.9-0.6,2.9-1v3.7c-0.8,0.4-1.7,0.7-2.7,0.9C470.1,51.4,468.9,51.5,467.5,51.5z M466.9,36.8c-1,0-1.8,0.3-2.4,1
				c-0.6,0.6-0.9,1.5-1,2.7h6.7c0-1.2-0.3-2.1-0.9-2.7C468.7,37.1,467.9,36.8,466.9,36.8z"/>
			<path class="st5" d="M490.7,46c0,1.8-0.6,3.2-1.9,4.1c-1.2,0.9-3.1,1.4-5.6,1.4c-1.3,0-2.3-0.1-3.2-0.3c-0.9-0.2-1.7-0.4-2.5-0.8
				v-3.9c0.9,0.4,1.9,0.8,3,1c1.1,0.3,2.1,0.4,2.9,0.4c1.7,0,2.6-0.5,2.6-1.5c0-0.4-0.1-0.7-0.3-0.9c-0.2-0.2-0.6-0.5-1.2-0.8
				s-1.3-0.6-2.2-1c-1.3-0.6-2.3-1.1-3-1.6c-0.6-0.5-1.1-1-1.4-1.6c-0.3-0.6-0.4-1.4-0.4-2.3c0-1.5,0.6-2.7,1.8-3.6
				c1.2-0.8,2.9-1.3,5.1-1.3c2.1,0,4.1,0.5,6.1,1.4l-1.4,3.4c-0.9-0.4-1.7-0.7-2.4-0.9s-1.5-0.4-2.3-0.4c-1.4,0-2.1,0.4-2.1,1.1
				c0,0.4,0.2,0.8,0.7,1.1c0.5,0.3,1.4,0.8,3,1.4c1.4,0.6,2.4,1.1,3,1.5c0.6,0.5,1.1,1,1.4,1.7S490.7,45.1,490.7,46z"/>
			<path class="st5" d="M501.5,42.4c0,2.7-0.4,5.3-1.2,7.6c-0.8,2.4-2,4.4-3.5,6.2h-3.9c1.4-1.9,2.5-4.1,3.3-6.4
				c0.8-2.4,1.2-4.8,1.2-7.4c0-2.5-0.4-5-1.1-7.4c-0.7-2.4-1.9-4.6-3.3-6.6h3.9c1.5,1.8,2.7,3.9,3.5,6.3
				C501.1,37.1,501.5,39.7,501.5,42.4z"/>
		</g>
	</g>
	<g>
		<path class="st4" d="M94.9,152.7c0,0.8-0.2,1.5-0.7,2c-0.5,0.6-1.2,1-2.1,1.2v0.1c2.1,0.3,3.2,1.3,3.2,3c0,1.2-0.5,2.1-1.4,2.8
			s-2.2,1-3.9,1c-0.7,0-1.3,0-1.9-0.1s-1.2-0.3-1.9-0.5v-2.8c0.6,0.3,1.1,0.5,1.7,0.6c0.6,0.1,1.1,0.2,1.6,0.2
			c0.7,0,1.3-0.1,1.6-0.3c0.3-0.2,0.5-0.5,0.5-1c0-0.3-0.1-0.6-0.3-0.8c-0.2-0.2-0.5-0.3-0.9-0.4c-0.4-0.1-0.9-0.1-1.6-0.1h-0.8
			v-2.6h0.8c1.7,0,2.6-0.4,2.6-1.3c0-0.3-0.1-0.6-0.4-0.7c-0.3-0.2-0.6-0.2-1-0.2c-0.8,0-1.6,0.3-2.5,0.8l-1.4-2.3
			c0.7-0.5,1.3-0.8,2-1c0.7-0.2,1.5-0.3,2.4-0.3c1.3,0,2.3,0.3,3.1,0.8C94.6,151.1,94.9,151.8,94.9,152.7z"/>
	</g>
	<g>
		<path class="st4" d="M95.4,262.7h-9.1v-2.2l3.1-3.1c0.9-0.9,1.5-1.5,1.7-1.9c0.3-0.3,0.5-0.6,0.6-0.9c0.1-0.2,0.2-0.5,0.2-0.8
			c0-0.3-0.1-0.6-0.3-0.8s-0.5-0.3-0.9-0.3c-0.4,0-0.8,0.1-1.2,0.3c-0.4,0.2-0.9,0.6-1.4,1l-1.9-2.2c0.6-0.6,1.2-1,1.6-1.2
			c0.4-0.2,0.9-0.4,1.4-0.6c0.5-0.1,1.1-0.2,1.8-0.2c0.8,0,1.5,0.1,2.2,0.4c0.6,0.3,1.1,0.7,1.5,1.2c0.4,0.5,0.5,1.1,0.5,1.8
			c0,0.5-0.1,1-0.2,1.4c-0.1,0.4-0.3,0.8-0.6,1.2c-0.3,0.4-0.6,0.8-1,1.3c-0.4,0.4-1.3,1.3-2.7,2.5v0.1h4.8V262.7z"/>
	</g>
	<g>
		<path class="st4" d="M93.8,359.9h-3.5v-6.7c0-0.8,0-1.6,0.1-2.2c-0.2,0.3-0.5,0.5-0.8,0.8l-1.4,1.2l-1.8-2.2l4.3-3.5h3.1V359.9z"
			/>
	</g>
	<g>
		<path class="st4" d="M95.4,444.1c0,2.2-0.4,3.9-1.1,4.9c-0.7,1-1.9,1.6-3.4,1.6c-1.5,0-2.6-0.5-3.4-1.6s-1.1-2.7-1.1-4.8
			c0-2.2,0.4-3.9,1.1-4.9s1.9-1.6,3.4-1.6c1.5,0,2.6,0.5,3.4,1.6S95.4,441.9,95.4,444.1z M89.7,444.1c0,1.4,0.1,2.4,0.3,2.9
			c0.2,0.5,0.5,0.8,0.9,0.8c0.4,0,0.7-0.3,0.9-0.8c0.2-0.6,0.3-1.5,0.3-2.9c0-1.4-0.1-2.4-0.3-2.9c-0.2-0.6-0.5-0.8-0.9-0.8
			s-0.7,0.3-0.9,0.8C89.8,441.7,89.7,442.7,89.7,444.1z"/>
	</g>
	<g>
		<polyline class="st6" points="105.1,387.5 117.1,387.5 141.1,363.7 153.2,363.7 164.5,356.5 174.6,361.5 192.5,364.2 214.3,366.2 
			224,367.7 241.7,344.1 252.9,333.5 264.2,335.5 285.6,345 302.8,353.8 339.1,359.9 359.9,390.8 382.8,403.2 400.9,392.8 
			418.7,359.9 425.8,339.5 432.6,275.1 442.3,222.6 450.9,257.6 457.8,290.7 479.6,321.2 488.2,314.1 497,324.7 513.3,326.2 
			525.5,339.2 533,334.6 564.9,362 576.2,362 		"/>
		<circle class="st7" cx="107.8" cy="388" r="2.7"/>
		<circle class="st7" cx="118.3" cy="386.6" r="2.7"/>
		<circle class="st7" cx="131.4" cy="373.6" r="2.7"/>
		<circle class="st7" cx="142.1" cy="364.5" r="2.7"/>
		<circle class="st7" cx="152.8" cy="364.5" r="2.7"/>
		<circle class="st7" cx="164.3" cy="357.2" r="2.7"/>
		<circle class="st7" cx="172.6" cy="360.4" r="2.7"/>
		<circle class="st7" cx="183.2" cy="361.8" r="2.7"/>
		<circle class="st7" cx="194.7" cy="364.5" r="2.7"/>
		<circle class="st7" cx="204.7" cy="366.1" r="2.7"/>
		<circle class="st7" cx="213.3" cy="366.1" r="2.7"/>
		<circle class="st7" cx="222.8" cy="367.2" r="2.7"/>
		<circle class="st7" cx="233.4" cy="356.5" r="2.7"/>
		<circle class="st7" cx="244.1" cy="340.7" r="2.7"/>
		<circle class="st7" cx="253.1" cy="334.5" r="2.7"/>
		<circle class="st7" cx="263.3" cy="335.3" r="2.7"/>
		<circle class="st7" cx="272.7" cy="338" r="2.7"/>
		<circle class="st7" cx="283.5" cy="342.8" r="2.7"/>
		<circle class="st7" cx="292.1" cy="347.1" r="2.7"/>
		<circle class="st7" cx="299.8" cy="352.5" r="2.7"/>
		<circle class="st7" cx="308.7" cy="353.2" r="2.7"/>
		<circle class="st7" cx="318.9" cy="356.5" r="2.7"/>
		<circle class="st7" cx="327" cy="357.2" r="2.7"/>
		<circle class="st7" cx="337.9" cy="359.2" r="2.7"/>
		<circle class="st7" cx="351.3" cy="379.7" r="2.7"/>
		<circle class="st7" cx="359" cy="389.3" r="2.7"/>
		<circle class="st7" cx="367.9" cy="394.7" r="2.7"/>
		<circle class="st7" cx="382.8" cy="403.2" r="2.7"/>
		<circle class="st7" cx="390.9" cy="399.2" r="2.7"/>
		<circle class="st7" cx="399.9" cy="393.8" r="2.7"/>
		<circle class="st7" cx="407.5" cy="381.3" r="2.7"/>
		<circle class="st7" cx="416.8" cy="364.3" r="2.7"/>
		<circle class="st7" cx="432.5" cy="276.2" r="2.7"/>
		<circle class="st7" cx="442" cy="222.6" r="2.7"/>
		<circle class="st7" cx="450.1" cy="254" r="2.7"/>
		<circle class="st7" cx="487.9" cy="315.6" r="2.7"/>
		<circle class="st7" cx="496.8" cy="325.3" r="2.7"/>
		<circle class="st7" cx="525.1" cy="339.2" r="2.7"/>
		<circle class="st7" cx="534.2" cy="334.8" r="2.7"/>
		<circle class="st7" cx="544.4" cy="345.6" r="2.7"/>
		<circle class="st7" cx="565" cy="361.8" r="2.7"/>
		<circle class="st7" cx="575.6" cy="361.8" r="2.7"/>
	</g>
	<rect x="231.1" y="352.1" class="st8" width="4.6" height="3.4"/>
	<polyline class="st9" points="108,331.5 120.9,362.6 133.3,367.4 144.3,359.9 156.7,354.9 174.6,351.3 185.3,353 195.3,349.5 
		215.8,356.5 225,354.2 234.1,354.3 250.1,340.9 264.3,339.6 274.6,347.1 283.7,344.2 293.4,352.8 314.3,358.8 338.1,364.1 
		352.3,369.9 359.4,374.7 367.4,374.7 374.5,379.7 382.4,376 390.3,372.8 399.6,374.1 406.9,363 417.1,362.7 426.7,343.6 
		435.7,322.9 442.4,299 451.2,293.4 460,309.1 469.1,325.6 479.6,336.5 489.2,340.9 497.2,341.1 507.4,347.3 517.6,344.6 
		525.6,348.4 535.4,352.3 544.8,347.1 555.1,350.3 564,350.1 572.9,317.3 	"/>
	<rect x="342.9" y="365.3" class="st8" width="4.6" height="3.4"/>
	<rect x="350.1" y="368.7" class="st8" width="4.6" height="3.4"/>
	<rect x="356.8" y="372.9" class="st8" width="4.6" height="3.4"/>
	<rect x="365.2" y="372.9" class="st8" width="4.6" height="3.4"/>
	<rect x="372.2" y="378" class="st8" width="4.6" height="3.4"/>
	<rect x="381" y="374.6" class="st8" width="4.6" height="3.4"/>
	<rect x="388.6" y="371.2" class="st8" width="4.6" height="3.4"/>
	<rect x="397.6" y="371.9" class="st8" width="4.6" height="3.4"/>
	<rect x="404.8" y="361.6" class="st8" width="4.6" height="3.4"/>
	<rect x="423.2" y="344.8" class="st8" width="4.6" height="3.4"/>
	<rect x="432.5" y="322.5" class="st8" width="4.6" height="3.4"/>
	<rect x="440.1" y="297.8" class="st8" width="4.6" height="3.4"/>
	<rect x="448.5" y="292.4" class="st8" width="4.6" height="3.4"/>
	<rect x="457.1" y="307" class="st8" width="4.6" height="3.4"/>
	<rect x="466.7" y="323.5" class="st8" width="4.6" height="3.4"/>
	<rect x="476.9" y="334.1" class="st8" width="4.6" height="3.4"/>
	<rect x="486.6" y="339.2" class="st8" width="4.6" height="3.4"/>
	<rect x="494.5" y="339.2" class="st8" width="4.6" height="3.4"/>
	<rect x="504.5" y="345.6" class="st8" width="4.6" height="3.4"/>
	<rect x="515" y="343.1" class="st8" width="4.6" height="3.4"/>
	<rect x="523.6" y="346.6" class="st8" width="4.6" height="3.4"/>
	<rect x="533.3" y="350" class="st8" width="4.6" height="3.4"/>
	<rect x="553.1" y="348.3" class="st8" width="4.6" height="3.4"/>
	<rect x="561.6" y="348.3" class="st8" width="4.6" height="3.4"/>
	<rect x="570.6" y="315.6" class="st8" width="4.6" height="3.4"/>
	<g>
		<rect x="106.3" y="331.1" class="st8" width="4.6" height="3.4"/>
		<rect x="118.3" y="360.1" class="st8" width="4.6" height="3.4"/>
		<rect x="129.5" y="365.5" class="st8" width="4.6" height="3.4"/>
		<rect x="140.4" y="358.2" class="st8" width="4.6" height="3.4"/>
		<rect x="150.5" y="354.8" class="st8" width="4.6" height="3.4"/>
		<rect x="159.7" y="352.1" class="st8" width="4.6" height="3.4"/>
		<rect x="171.4" y="350.4" class="st8" width="4.6" height="3.4"/>
		<rect x="183.2" y="350.8" class="st8" width="4.6" height="3.4"/>
		<rect x="192.4" y="348.1" class="st8" width="4.6" height="3.4"/>
		<rect x="202.5" y="350.8" class="st8" width="4.6" height="3.4"/>
		<rect x="213.3" y="354.8" class="st8" width="4.6" height="3.4"/>
		<rect x="222" y="352.5" class="st8" width="4.6" height="3.4"/>
		<rect x="248.2" y="339" class="st8" width="4.6" height="3.4"/>
		<rect x="261" y="338" class="st8" width="4.6" height="3.4"/>
		<rect x="272.7" y="345.4" class="st8" width="4.6" height="3.4"/>
		<rect x="290.8" y="350.4" class="st8" width="4.6" height="3.4"/>
		<rect x="324.7" y="360.2" class="st8" width="4.6" height="3.4"/>
	</g>
	<linearGradient id="SVGID_1_" gradientUnits="userSpaceOnUse" x1="317.5568" y1="545.7642" x2="317.5568" y2="515.175">
		<stop  offset="0" style="stop-color:#E6E7E8"/>
		<stop  offset="0.1005" style="stop-color:#EAEBEC"/>
		<stop  offset="0.4311" style="stop-color:#F3F3F3"/>
		<stop  offset="1" style="stop-color:#F5F5F5"/>
	</linearGradient>
	<path class="st10" d="M606.1,542.1H29c-6.7,0-12.2-5.4-12.2-12.2v-16c0-6.7,5.4-12.2,12.2-12.2h577.1c6.7,0,12.2,5.4,12.2,12.2v16
		C618.3,536.6,612.8,542.1,606.1,542.1z"/>
	<g>
		<g>
			<path class="st4" d="M36.1,531.9c-0.4,0-0.8-0.1-1-0.2v-1c0.3,0.1,0.7,0.1,1,0.1c0.5,0,0.8-0.1,1-0.4c0.2-0.3,0.4-0.7,0.4-1.2
				v-10.2h1.2v10.1c0,0.9-0.2,1.6-0.7,2C37.6,531.7,36.9,531.9,36.1,531.9z"/>
			<path class="st4" d="M47.8,525.4c0,1.2-0.3,2.2-0.9,2.9s-1.5,1-2.6,1c-0.7,0-1.3-0.2-1.8-0.5s-0.9-0.8-1.2-1.4
				c-0.3-0.6-0.4-1.3-0.4-2.1c0-1.2,0.3-2.2,0.9-2.9c0.6-0.7,1.5-1,2.6-1c1.1,0,1.9,0.4,2.5,1.1C47.5,523.2,47.8,524.2,47.8,525.4z
				 M42,525.4c0,1,0.2,1.7,0.6,2.2c0.4,0.5,1,0.8,1.7,0.8c0.8,0,1.3-0.3,1.7-0.8c0.4-0.5,0.6-1.3,0.6-2.2c0-1-0.2-1.7-0.6-2.2
				c-0.4-0.5-1-0.8-1.7-0.8c-0.8,0-1.3,0.2-1.7,0.7C42.2,523.7,42,524.4,42,525.4z"/>
			<path class="st4" d="M55,529.2v-4.9c0-0.6-0.1-1.1-0.4-1.4c-0.3-0.3-0.7-0.5-1.3-0.5c-0.8,0-1.4,0.2-1.8,0.7
				c-0.4,0.4-0.6,1.2-0.6,2.1v4h-1.2v-10.8H51v3.3c0,0.4,0,0.7-0.1,1H51c0.2-0.4,0.6-0.7,1-0.9c0.4-0.2,0.9-0.3,1.4-0.3
				c0.9,0,1.6,0.2,2.1,0.7c0.5,0.4,0.7,1.1,0.7,2.1v5H55z"/>
			<path class="st4" d="M63.8,529.2v-4.9c0-0.6-0.1-1.1-0.4-1.4c-0.3-0.3-0.7-0.5-1.3-0.5c-0.8,0-1.4,0.2-1.8,0.6
				c-0.4,0.4-0.6,1.1-0.6,2.1v4h-1.2v-7.6h0.9l0.2,1h0.1c0.2-0.4,0.6-0.7,1-0.9c0.4-0.2,0.9-0.3,1.4-0.3c0.9,0,1.6,0.2,2.1,0.7
				c0.5,0.4,0.7,1.2,0.7,2.1v5H63.8z"/>
			<path class="st4" d="M72.2,527.1c0,0.7-0.3,1.3-0.8,1.6s-1.3,0.6-2.2,0.6c-1,0-1.8-0.2-2.4-0.5v-1.1c0.4,0.2,0.8,0.3,1.2,0.4
				c0.4,0.1,0.8,0.2,1.2,0.2c0.6,0,1.1-0.1,1.4-0.3c0.3-0.2,0.5-0.5,0.5-0.9c0-0.3-0.1-0.6-0.4-0.8c-0.3-0.2-0.8-0.5-1.5-0.7
				c-0.7-0.3-1.2-0.5-1.5-0.7c-0.3-0.2-0.5-0.4-0.7-0.7s-0.2-0.5-0.2-0.9c0-0.6,0.3-1.1,0.8-1.5s1.2-0.5,2.1-0.5
				c0.8,0,1.6,0.2,2.4,0.5l-0.4,0.9c-0.8-0.3-1.5-0.5-2.1-0.5c-0.5,0-1,0.1-1.2,0.3c-0.3,0.2-0.4,0.4-0.4,0.7c0,0.2,0.1,0.4,0.2,0.5
				s0.3,0.3,0.5,0.4c0.2,0.1,0.7,0.3,1.3,0.6c0.9,0.3,1.5,0.7,1.8,1C72.1,526.2,72.2,526.6,72.2,527.1z"/>
			<path class="st4" d="M76.6,528.4c0.2,0,0.4,0,0.6,0c0.2,0,0.3-0.1,0.5-0.1v0.9c-0.1,0.1-0.3,0.1-0.6,0.1s-0.5,0.1-0.7,0.1
				c-1.5,0-2.2-0.8-2.2-2.3v-4.5h-1.1v-0.6l1.1-0.5l0.5-1.6h0.7v1.8h2.2v0.9h-2.2v4.5c0,0.5,0.1,0.8,0.3,1.1
				C75.9,528.3,76.2,528.4,76.6,528.4z"/>
			<path class="st4" d="M85.7,525.4c0,1.2-0.3,2.2-0.9,2.9s-1.5,1-2.6,1c-0.7,0-1.3-0.2-1.8-0.5s-0.9-0.8-1.2-1.4
				c-0.3-0.6-0.4-1.3-0.4-2.1c0-1.2,0.3-2.2,0.9-2.9c0.6-0.7,1.5-1,2.6-1c1.1,0,1.9,0.4,2.5,1.1C85.4,523.2,85.7,524.2,85.7,525.4z
				 M79.9,525.4c0,1,0.2,1.7,0.6,2.2c0.4,0.5,1,0.8,1.7,0.8c0.8,0,1.3-0.3,1.7-0.8c0.4-0.5,0.6-1.3,0.6-2.2c0-1-0.2-1.7-0.6-2.2
				c-0.4-0.5-1-0.8-1.7-0.8c-0.8,0-1.3,0.2-1.7,0.7C80.1,523.7,79.9,524.4,79.9,525.4z"/>
			<path class="st4" d="M93,529.2v-4.9c0-0.6-0.1-1.1-0.4-1.4c-0.3-0.3-0.7-0.5-1.3-0.5c-0.8,0-1.4,0.2-1.8,0.6
				c-0.4,0.4-0.6,1.1-0.6,2.1v4h-1.2v-7.6h0.9l0.2,1h0.1c0.2-0.4,0.6-0.7,1-0.9c0.4-0.2,0.9-0.3,1.4-0.3c0.9,0,1.6,0.2,2.1,0.7
				c0.5,0.4,0.7,1.2,0.7,2.1v5H93z"/>
			<path class="st4" d="M108.3,529.2H107l-5.6-8.5h-0.1c0.1,1,0.1,1.9,0.1,2.8v5.8h-1.1v-10.2h1.3l5.5,8.5h0.1c0-0.1,0-0.5-0.1-1.2
				s0-1.2,0-1.5v-5.8h1.1V529.2z"/>
			<path class="st4" d="M120,529.2h-1.2l-2.1-6.8c-0.1-0.3-0.2-0.7-0.3-1.1c-0.1-0.5-0.2-0.7-0.2-0.8c-0.1,0.6-0.3,1.3-0.5,2l-2,6.8
				h-1.2l-2.7-10.2h1.3l1.6,6.3c0.2,0.9,0.4,1.7,0.5,2.4c0.1-0.8,0.3-1.7,0.6-2.5l1.8-6.2h1.3l1.9,6.2c0.2,0.7,0.4,1.5,0.6,2.4
				c0.1-0.7,0.3-1.5,0.5-2.4l1.6-6.3h1.3L120,529.2z"/>
			<path class="st4" d="M125.4,527.6l0.1,0.2c-0.1,0.5-0.3,1-0.5,1.6c-0.2,0.6-0.5,1.2-0.7,1.7h-0.9c0.1-0.5,0.3-1.1,0.4-1.8
				s0.3-1.3,0.3-1.7H125.4z"/>
			<path class="st4" d="M130,531.9c-0.4,0-0.8-0.1-1-0.2v-1c0.3,0.1,0.7,0.1,1,0.1c0.5,0,0.8-0.1,1-0.4c0.2-0.3,0.4-0.7,0.4-1.2
				v-10.2h1.2v10.1c0,0.9-0.2,1.6-0.7,2C131.5,531.7,130.9,531.9,130,531.9z"/>
			<path class="st4" d="M141.7,525.4c0,1.2-0.3,2.2-0.9,2.9s-1.5,1-2.6,1c-0.7,0-1.3-0.2-1.8-0.5s-0.9-0.8-1.2-1.4
				c-0.3-0.6-0.4-1.3-0.4-2.1c0-1.2,0.3-2.2,0.9-2.9c0.6-0.7,1.5-1,2.6-1c1.1,0,1.9,0.4,2.5,1.1
				C141.4,523.2,141.7,524.2,141.7,525.4z M135.9,525.4c0,1,0.2,1.7,0.6,2.2c0.4,0.5,1,0.8,1.7,0.8c0.8,0,1.3-0.3,1.7-0.8
				c0.4-0.5,0.6-1.3,0.6-2.2c0-1-0.2-1.7-0.6-2.2c-0.4-0.5-1-0.8-1.7-0.8c-0.8,0-1.3,0.2-1.7,0.7
				C136.1,523.7,135.9,524.4,135.9,525.4z"/>
			<path class="st4" d="M149,529.2v-4.9c0-0.6-0.1-1.1-0.4-1.4c-0.3-0.3-0.7-0.5-1.3-0.5c-0.8,0-1.4,0.2-1.8,0.7
				c-0.4,0.4-0.6,1.2-0.6,2.1v4h-1.2v-10.8h1.2v3.3c0,0.4,0,0.7-0.1,1h0.1c0.2-0.4,0.6-0.7,1-0.9c0.4-0.2,0.9-0.3,1.4-0.3
				c0.9,0,1.6,0.2,2.1,0.7c0.5,0.4,0.7,1.1,0.7,2.1v5H149z"/>
			<path class="st4" d="M157.7,529.2v-4.9c0-0.6-0.1-1.1-0.4-1.4c-0.3-0.3-0.7-0.5-1.3-0.5c-0.8,0-1.4,0.2-1.8,0.6
				c-0.4,0.4-0.6,1.1-0.6,2.1v4h-1.2v-7.6h0.9l0.2,1h0.1c0.2-0.4,0.6-0.7,1-0.9c0.4-0.2,0.9-0.3,1.4-0.3c0.9,0,1.6,0.2,2.1,0.7
				c0.5,0.4,0.7,1.2,0.7,2.1v5H157.7z"/>
			<path class="st4" d="M166.2,527.1c0,0.7-0.3,1.3-0.8,1.6s-1.3,0.6-2.2,0.6c-1,0-1.8-0.2-2.4-0.5v-1.1c0.4,0.2,0.8,0.3,1.2,0.4
				c0.4,0.1,0.8,0.2,1.2,0.2c0.6,0,1.1-0.1,1.4-0.3c0.3-0.2,0.5-0.5,0.5-0.9c0-0.3-0.1-0.6-0.4-0.8c-0.3-0.2-0.8-0.5-1.5-0.7
				c-0.7-0.3-1.2-0.5-1.5-0.7c-0.3-0.2-0.5-0.4-0.7-0.7s-0.2-0.5-0.2-0.9c0-0.6,0.3-1.1,0.8-1.5s1.2-0.5,2.1-0.5
				c0.8,0,1.6,0.2,2.4,0.5l-0.4,0.9c-0.8-0.3-1.5-0.5-2.1-0.5c-0.5,0-1,0.1-1.2,0.3c-0.3,0.2-0.4,0.4-0.4,0.7c0,0.2,0.1,0.4,0.2,0.5
				s0.3,0.3,0.5,0.4c0.2,0.1,0.7,0.3,1.3,0.6c0.9,0.3,1.5,0.7,1.8,1C166,526.2,166.2,526.6,166.2,527.1z"/>
			<path class="st4" d="M170.5,528.4c0.2,0,0.4,0,0.6,0c0.2,0,0.3-0.1,0.5-0.1v0.9c-0.1,0.1-0.3,0.1-0.6,0.1s-0.5,0.1-0.7,0.1
				c-1.5,0-2.2-0.8-2.2-2.3v-4.5h-1.1v-0.6l1.1-0.5l0.5-1.6h0.7v1.8h2.2v0.9h-2.2v4.5c0,0.5,0.1,0.8,0.3,1.1
				C169.8,528.3,170.1,528.4,170.5,528.4z"/>
			<path class="st4" d="M179.7,525.4c0,1.2-0.3,2.2-0.9,2.9s-1.5,1-2.6,1c-0.7,0-1.3-0.2-1.8-0.5s-0.9-0.8-1.2-1.4
				c-0.3-0.6-0.4-1.3-0.4-2.1c0-1.2,0.3-2.2,0.9-2.9c0.6-0.7,1.5-1,2.6-1c1.1,0,1.9,0.4,2.5,1.1
				C179.4,523.2,179.7,524.2,179.7,525.4z M173.9,525.4c0,1,0.2,1.7,0.6,2.2c0.4,0.5,1,0.8,1.7,0.8c0.8,0,1.3-0.3,1.7-0.8
				c0.4-0.5,0.6-1.3,0.6-2.2c0-1-0.2-1.7-0.6-2.2c-0.4-0.5-1-0.8-1.7-0.8c-0.8,0-1.3,0.2-1.7,0.7
				C174.1,523.7,173.9,524.4,173.9,525.4z"/>
			<path class="st4" d="M186.9,529.2v-4.9c0-0.6-0.1-1.1-0.4-1.4c-0.3-0.3-0.7-0.5-1.3-0.5c-0.8,0-1.4,0.2-1.8,0.6
				c-0.4,0.4-0.6,1.1-0.6,2.1v4h-1.2v-7.6h0.9l0.2,1h0.1c0.2-0.4,0.6-0.7,1-0.9c0.4-0.2,0.9-0.3,1.4-0.3c0.9,0,1.6,0.2,2.1,0.7
				c0.5,0.4,0.7,1.2,0.7,2.1v5H186.9z"/>
			<path class="st4" d="M200.1,526.5c0,0.9-0.3,1.6-1,2.1c-0.6,0.5-1.5,0.8-2.6,0.8c-1.2,0-2.1-0.2-2.8-0.5v-1.1
				c0.4,0.2,0.9,0.3,1.4,0.4c0.5,0.1,1,0.2,1.5,0.2c0.8,0,1.4-0.2,1.8-0.4c0.4-0.3,0.6-0.7,0.6-1.2c0-0.4-0.1-0.6-0.2-0.9
				c-0.1-0.2-0.4-0.4-0.7-0.6c-0.3-0.2-0.8-0.4-1.5-0.6c-0.9-0.3-1.6-0.7-2-1.2s-0.6-1.1-0.6-1.8c0-0.8,0.3-1.4,0.9-1.9
				s1.4-0.7,2.3-0.7c1,0,1.9,0.2,2.8,0.6l-0.4,1c-0.8-0.4-1.7-0.5-2.5-0.5c-0.6,0-1.1,0.1-1.5,0.4c-0.4,0.3-0.5,0.6-0.5,1.1
				c0,0.4,0.1,0.6,0.2,0.9c0.1,0.2,0.3,0.4,0.7,0.6s0.8,0.4,1.4,0.6c1.1,0.4,1.8,0.8,2.2,1.2C199.9,525.3,200.1,525.8,200.1,526.5z"
				/>
			<path class="st4" d="M202.2,529.2v-10.2h1.2v9.1h4.5v1.1H202.2z"/>
			<path class="st4" d="M210.6,527.6l0.1,0.2c-0.1,0.5-0.3,1-0.5,1.6c-0.2,0.6-0.5,1.2-0.7,1.7h-0.9c0.1-0.5,0.3-1.1,0.4-1.8
				s0.3-1.3,0.3-1.7H210.6z"/>
			<path class="st4" d="M224.7,529.2h-1.4l-5.6-8.5h-0.1c0.1,1,0.1,1.9,0.1,2.8v5.8h-1.1v-10.2h1.3l5.5,8.5h0.1c0-0.1,0-0.5-0.1-1.2
				s0-1.2,0-1.5v-5.8h1.1V529.2z"/>
			<path class="st4" d="M233.9,525.4c0,1.2-0.3,2.2-0.9,2.9s-1.5,1-2.6,1c-0.7,0-1.3-0.2-1.8-0.5s-0.9-0.8-1.2-1.4
				c-0.3-0.6-0.4-1.3-0.4-2.1c0-1.2,0.3-2.2,0.9-2.9c0.6-0.7,1.5-1,2.6-1c1.1,0,1.9,0.4,2.5,1.1
				C233.6,523.2,233.9,524.2,233.9,525.4z M228.1,525.4c0,1,0.2,1.7,0.6,2.2c0.4,0.5,1,0.8,1.7,0.8c0.8,0,1.3-0.3,1.7-0.8
				c0.4-0.5,0.6-1.3,0.6-2.2c0-1-0.2-1.7-0.6-2.2c-0.4-0.5-1-0.8-1.7-0.8c-0.8,0-1.3,0.2-1.7,0.7
				C228.3,523.7,228.1,524.4,228.1,525.4z"/>
			<path class="st4" d="M239.4,521.5c0.3,0,0.6,0,0.9,0.1l-0.2,1.1c-0.3-0.1-0.6-0.1-0.8-0.1c-0.6,0-1.1,0.3-1.6,0.8
				s-0.7,1.1-0.7,1.9v4.1h-1.2v-7.6h1l0.1,1.4h0.1c0.3-0.5,0.6-0.9,1-1.1C238.5,521.6,238.9,521.5,239.4,521.5z"/>
			<path class="st4" d="M251.5,529.2v-5c0-0.6-0.1-1.1-0.4-1.4c-0.3-0.3-0.7-0.5-1.2-0.5c-0.7,0-1.3,0.2-1.6,0.6s-0.5,1-0.5,1.9v4.3
				h-1.2v-5c0-0.6-0.1-1.1-0.4-1.4c-0.3-0.3-0.7-0.5-1.2-0.5c-0.7,0-1.3,0.2-1.6,0.7s-0.5,1.1-0.5,2.1v4h-1.2v-7.6h0.9l0.2,1h0.1
				c0.2-0.4,0.5-0.7,0.9-0.9c0.4-0.2,0.8-0.3,1.3-0.3c1.2,0,2,0.4,2.3,1.3h0.1c0.2-0.4,0.6-0.7,1-0.9c0.4-0.2,0.9-0.3,1.5-0.3
				c0.9,0,1.5,0.2,1.9,0.7c0.4,0.4,0.6,1.2,0.6,2.1v5H251.5z"/>
			<path class="st4" d="M259.7,529.2l-0.2-1.1h-0.1c-0.4,0.5-0.8,0.8-1.1,1c-0.4,0.2-0.9,0.3-1.4,0.3c-0.8,0-1.3-0.2-1.8-0.6
				c-0.4-0.4-0.6-0.9-0.6-1.7c0-1.5,1.2-2.3,3.7-2.4l1.3,0v-0.5c0-0.6-0.1-1-0.4-1.3c-0.3-0.3-0.7-0.4-1.2-0.4
				c-0.6,0-1.4,0.2-2.2,0.6l-0.4-0.9c0.4-0.2,0.8-0.4,1.2-0.5c0.4-0.1,0.9-0.2,1.3-0.2c0.9,0,1.6,0.2,2,0.6s0.7,1.1,0.7,1.9v5.2
				H259.7z M257.1,528.4c0.7,0,1.3-0.2,1.7-0.6s0.6-0.9,0.6-1.7v-0.7l-1.2,0c-0.9,0-1.6,0.2-2,0.4c-0.4,0.3-0.6,0.6-0.6,1.2
				c0,0.4,0.1,0.7,0.4,1S256.6,528.4,257.1,528.4z"/>
			<path class="st4" d="M268.2,529.2v-4.9c0-0.6-0.1-1.1-0.4-1.4c-0.3-0.3-0.7-0.5-1.3-0.5c-0.8,0-1.4,0.2-1.8,0.6
				c-0.4,0.4-0.6,1.1-0.6,2.1v4h-1.2v-7.6h0.9l0.2,1h0.1c0.2-0.4,0.6-0.7,1-0.9c0.4-0.2,0.9-0.3,1.4-0.3c0.9,0,1.6,0.2,2.1,0.7
				c0.5,0.4,0.7,1.2,0.7,2.1v5H268.2z"/>
			<path class="st4" d="M280,523.9h3.5v4.9c-0.5,0.2-1.1,0.3-1.6,0.4c-0.6,0.1-1.2,0.1-1.9,0.1c-1.5,0-2.7-0.5-3.6-1.4
				s-1.3-2.2-1.3-3.9c0-1.1,0.2-2,0.6-2.8c0.4-0.8,1-1.4,1.8-1.8c0.8-0.4,1.7-0.6,2.8-0.6c1.1,0,2.1,0.2,3,0.6l-0.5,1
				c-0.9-0.4-1.8-0.6-2.7-0.6c-1.2,0-2.2,0.4-2.9,1.1c-0.7,0.7-1,1.8-1,3.1c0,1.4,0.3,2.4,1,3.1c0.7,0.7,1.7,1.1,3,1.1
				c0.7,0,1.4-0.1,2.1-0.2V525H280V523.9z"/>
			<path class="st4" d="M289.3,521.5c0.3,0,0.6,0,0.9,0.1l-0.2,1.1c-0.3-0.1-0.6-0.1-0.8-0.1c-0.6,0-1.1,0.3-1.6,0.8
				s-0.7,1.1-0.7,1.9v4.1h-1.2v-7.6h1l0.1,1.4h0.1c0.3-0.5,0.6-0.9,1-1.1C288.3,521.6,288.8,521.5,289.3,521.5z"/>
			<path class="st4" d="M292.8,527.6l0.1,0.2c-0.1,0.5-0.3,1-0.5,1.6c-0.2,0.6-0.5,1.2-0.7,1.7h-0.9c0.1-0.5,0.3-1.1,0.4-1.8
				s0.3-1.3,0.3-1.7H292.8z"/>
			<path class="st4" d="M302,529.4c-1.1,0-2-0.3-2.7-1s-1-1.6-1-2.9c0-1.2,0.3-2.2,0.9-2.9c0.6-0.7,1.4-1.1,2.4-1.1
				c1,0,1.7,0.3,2.3,0.9c0.6,0.6,0.8,1.5,0.8,2.5v0.7h-5.3c0,0.9,0.2,1.6,0.7,2c0.4,0.5,1,0.7,1.8,0.7c0.8,0,1.6-0.2,2.4-0.5v1
				c-0.4,0.2-0.8,0.3-1.2,0.4S302.5,529.4,302,529.4z M301.7,522.4c-0.6,0-1.1,0.2-1.5,0.6c-0.4,0.4-0.6,1-0.6,1.7h4
				c0-0.7-0.2-1.3-0.5-1.7C302.8,522.6,302.3,522.4,301.7,522.4z"/>
			<path class="st4" d="M311.5,529.2l-0.2-1.1h-0.1c-0.4,0.5-0.8,0.8-1.1,1c-0.4,0.2-0.9,0.3-1.4,0.3c-0.8,0-1.3-0.2-1.8-0.6
				c-0.4-0.4-0.6-0.9-0.6-1.7c0-1.5,1.2-2.3,3.7-2.4l1.3,0v-0.5c0-0.6-0.1-1-0.4-1.3c-0.3-0.3-0.7-0.4-1.2-0.4
				c-0.6,0-1.4,0.2-2.2,0.6l-0.4-0.9c0.4-0.2,0.8-0.4,1.2-0.5c0.4-0.1,0.9-0.2,1.3-0.2c0.9,0,1.6,0.2,2,0.6s0.7,1.1,0.7,1.9v5.2
				H311.5z M308.9,528.4c0.7,0,1.3-0.2,1.7-0.6s0.6-0.9,0.6-1.7v-0.7l-1.2,0c-0.9,0-1.6,0.2-2,0.4c-0.4,0.3-0.6,0.6-0.6,1.2
				c0,0.4,0.1,0.7,0.4,1S308.4,528.4,308.9,528.4z"/>
			<path class="st4" d="M315.9,529.2h-1.2v-10.8h1.2V529.2z"/>
			<path class="st4" d="M318.2,528.5c0-0.3,0.1-0.5,0.2-0.7c0.1-0.2,0.3-0.2,0.6-0.2c0.3,0,0.5,0.1,0.6,0.2s0.2,0.4,0.2,0.7
				c0,0.3-0.1,0.5-0.2,0.7c-0.2,0.2-0.4,0.2-0.6,0.2c-0.2,0-0.4-0.1-0.6-0.2C318.2,529.1,318.2,528.8,318.2,528.5z"/>
			<path class="st4" d="M324.5,531.9c-0.4,0-0.8-0.1-1-0.2v-1c0.3,0.1,0.7,0.1,1,0.1c0.5,0,0.8-0.1,1-0.4c0.2-0.3,0.4-0.7,0.4-1.2
				v-10.2h1.2v10.1c0,0.9-0.2,1.6-0.7,2C326,531.7,325.3,531.9,324.5,531.9z"/>
			<path class="st4" d="M339.9,529.2l-1.3-3.2h-4.1l-1.3,3.2h-1.2l4-10.2h1l4,10.2H339.9z M338.3,524.9l-1.2-3.2
				c-0.2-0.4-0.3-0.9-0.5-1.5c-0.1,0.4-0.2,0.9-0.4,1.5l-1.2,3.2H338.3z"/>
			<path class="st4" d="M343.5,529.2h-1.2v-10.8h1.2V529.2z"/>
			<path class="st4" d="M347.1,529.2H346v-10.8h1.2V529.2z"/>
			<path class="st4" d="M352.8,529.4c-1.1,0-2-0.3-2.7-1s-1-1.6-1-2.9c0-1.2,0.3-2.2,0.9-2.9c0.6-0.7,1.4-1.1,2.4-1.1
				c1,0,1.7,0.3,2.3,0.9c0.6,0.6,0.8,1.5,0.8,2.5v0.7h-5.3c0,0.9,0.2,1.6,0.7,2c0.4,0.5,1,0.7,1.8,0.7c0.8,0,1.6-0.2,2.4-0.5v1
				c-0.4,0.2-0.8,0.3-1.2,0.4S353.3,529.4,352.8,529.4z M352.5,522.4c-0.6,0-1.1,0.2-1.5,0.6c-0.4,0.4-0.6,1-0.6,1.7h4
				c0-0.7-0.2-1.3-0.5-1.7C353.5,522.6,353.1,522.4,352.5,522.4z"/>
			<path class="st4" d="M361,521.5c0.3,0,0.6,0,0.9,0.1l-0.2,1.1c-0.3-0.1-0.6-0.1-0.8-0.1c-0.6,0-1.1,0.3-1.6,0.8s-0.7,1.1-0.7,1.9
				v4.1h-1.2v-7.6h1l0.1,1.4h0.1c0.3-0.5,0.6-0.9,1-1.1C360.1,521.6,360.6,521.5,361,521.5z"/>
			<path class="st4" d="M369.6,521.6v0.7l-1.4,0.2c0.1,0.2,0.2,0.4,0.3,0.6c0.1,0.3,0.2,0.6,0.2,0.9c0,0.7-0.3,1.3-0.8,1.8
				c-0.5,0.4-1.2,0.7-2.1,0.7c-0.2,0-0.4,0-0.6-0.1c-0.5,0.3-0.7,0.6-0.7,1c0,0.2,0.1,0.4,0.3,0.5c0.2,0.1,0.5,0.1,0.9,0.1h1.4
				c0.8,0,1.5,0.2,1.9,0.5c0.4,0.3,0.7,0.9,0.7,1.5c0,0.8-0.3,1.5-1,1.9c-0.7,0.4-1.7,0.7-3,0.7c-1,0-1.8-0.2-2.3-0.6
				c-0.5-0.4-0.8-0.9-0.8-1.6c0-0.5,0.1-0.9,0.4-1.2c0.3-0.3,0.7-0.6,1.3-0.7c-0.2-0.1-0.4-0.2-0.5-0.4s-0.2-0.4-0.2-0.6
				c0-0.3,0.1-0.5,0.2-0.7s0.4-0.4,0.7-0.6c-0.4-0.2-0.7-0.4-1-0.8c-0.2-0.4-0.4-0.8-0.4-1.3c0-0.8,0.3-1.5,0.8-1.9
				c0.5-0.5,1.2-0.7,2.1-0.7c0.4,0,0.8,0,1.1,0.1H369.6z M363.5,530.5c0,0.4,0.2,0.7,0.5,0.9c0.3,0.2,0.8,0.3,1.5,0.3
				c1,0,1.7-0.1,2.2-0.4c0.5-0.3,0.7-0.7,0.7-1.2c0-0.4-0.1-0.7-0.4-0.9s-0.7-0.2-1.4-0.2h-1.4c-0.5,0-0.9,0.1-1.2,0.4
				C363.7,529.7,363.5,530,363.5,530.5z M364.2,524c0,0.5,0.2,0.9,0.5,1.2c0.3,0.3,0.7,0.4,1.3,0.4c1.1,0,1.7-0.5,1.7-1.6
				c0-1.1-0.6-1.7-1.7-1.7c-0.5,0-1,0.1-1.3,0.4C364.3,523,364.2,523.5,364.2,524z"/>
			<path class="st4" d="M370,521.6h1.2l1.7,4.4c0.4,1,0.6,1.7,0.7,2.2h0.1c0.1-0.2,0.2-0.6,0.4-1.2s0.8-2.3,1.9-5.3h1.2l-3.3,8.7
				c-0.3,0.9-0.7,1.5-1.1,1.8c-0.4,0.4-1,0.5-1.6,0.5c-0.4,0-0.7,0-1-0.1v-0.9c0.3,0.1,0.5,0.1,0.9,0.1c0.8,0,1.4-0.4,1.7-1.3
				l0.4-1.1L370,521.6z"/>
			<path class="st4" d="M386.6,520c-1.1,0-2,0.4-2.6,1.1c-0.6,0.7-1,1.8-1,3.1c0,1.3,0.3,2.4,0.9,3.1c0.6,0.7,1.5,1.1,2.7,1.1
				c0.7,0,1.5-0.1,2.4-0.4v1c-0.7,0.3-1.6,0.4-2.6,0.4c-1.5,0-2.7-0.5-3.5-1.4c-0.8-0.9-1.2-2.2-1.2-3.9c0-1,0.2-2,0.6-2.8
				s1-1.4,1.7-1.8c0.7-0.4,1.6-0.6,2.6-0.6c1.1,0,2,0.2,2.8,0.6l-0.5,1C388.1,520.1,387.4,520,386.6,520z"/>
			<path class="st4" d="M392.2,529.2h-1.2v-10.8h1.2V529.2z"/>
			<path class="st4" d="M394.6,519.5c0-0.3,0.1-0.5,0.2-0.6s0.3-0.2,0.5-0.2c0.2,0,0.3,0.1,0.5,0.2c0.1,0.1,0.2,0.3,0.2,0.6
				c0,0.3-0.1,0.5-0.2,0.6c-0.1,0.1-0.3,0.2-0.5,0.2c-0.2,0-0.4-0.1-0.5-0.2C394.6,520,394.6,519.8,394.6,519.5z M395.8,529.2h-1.2
				v-7.6h1.2V529.2z"/>
			<path class="st4" d="M403.5,529.2v-4.9c0-0.6-0.1-1.1-0.4-1.4c-0.3-0.3-0.7-0.5-1.3-0.5c-0.8,0-1.4,0.2-1.8,0.6
				c-0.4,0.4-0.6,1.1-0.6,2.1v4h-1.2v-7.6h0.9l0.2,1h0.1c0.2-0.4,0.6-0.7,1-0.9c0.4-0.2,0.9-0.3,1.4-0.3c0.9,0,1.6,0.2,2.1,0.7
				c0.5,0.4,0.7,1.2,0.7,2.1v5H403.5z"/>
			<path class="st4" d="M410.9,529.2v-10.2h1.2v10.2H410.9z"/>
			<path class="st4" d="M424.4,529.2v-5c0-0.6-0.1-1.1-0.4-1.4c-0.3-0.3-0.7-0.5-1.2-0.5c-0.7,0-1.2,0.2-1.6,0.6
				c-0.3,0.4-0.5,1-0.5,1.9v4.3h-1.2v-5c0-0.6-0.1-1.1-0.4-1.4c-0.3-0.3-0.7-0.5-1.2-0.5c-0.7,0-1.3,0.2-1.6,0.7s-0.5,1.1-0.5,2.1v4
				h-1.2v-7.6h0.9l0.2,1h0.1c0.2-0.4,0.5-0.7,0.9-0.9c0.4-0.2,0.8-0.3,1.3-0.3c1.2,0,2,0.4,2.3,1.3h0.1c0.2-0.4,0.6-0.7,1-0.9
				c0.4-0.2,0.9-0.3,1.5-0.3c0.9,0,1.5,0.2,1.9,0.7c0.4,0.4,0.6,1.2,0.6,2.1v5H424.4z"/>
			<path class="st4" d="M437.7,529.2v-5c0-0.6-0.1-1.1-0.4-1.4c-0.3-0.3-0.7-0.5-1.2-0.5c-0.7,0-1.2,0.2-1.6,0.6s-0.5,1-0.5,1.9v4.3
				h-1.2v-5c0-0.6-0.1-1.1-0.4-1.4c-0.3-0.3-0.7-0.5-1.2-0.5c-0.7,0-1.3,0.2-1.6,0.7c-0.3,0.4-0.5,1.1-0.5,2.1v4H428v-7.6h0.9l0.2,1
				h0.1c0.2-0.4,0.5-0.7,0.9-0.9c0.4-0.2,0.8-0.3,1.3-0.3c1.2,0,2,0.4,2.3,1.3h0.1c0.2-0.4,0.6-0.7,1-0.9c0.4-0.2,0.9-0.3,1.5-0.3
				c0.9,0,1.5,0.2,1.9,0.7c0.4,0.4,0.6,1.2,0.6,2.1v5H437.7z"/>
			<path class="st4" d="M442.3,521.6v4.9c0,0.6,0.1,1.1,0.4,1.4c0.3,0.3,0.7,0.5,1.3,0.5c0.8,0,1.4-0.2,1.8-0.7s0.6-1.1,0.6-2.1v-4
				h1.2v7.6h-1l-0.2-1h-0.1c-0.2,0.4-0.6,0.7-1,0.9c-0.4,0.2-0.9,0.3-1.4,0.3c-0.9,0-1.6-0.2-2.1-0.7c-0.5-0.4-0.7-1.1-0.7-2.1v-5
				H442.3z"/>
			<path class="st4" d="M455.2,529.2v-4.9c0-0.6-0.1-1.1-0.4-1.4c-0.3-0.3-0.7-0.5-1.3-0.5c-0.8,0-1.4,0.2-1.8,0.6
				c-0.4,0.4-0.6,1.1-0.6,2.1v4H450v-7.6h0.9l0.2,1h0.1c0.2-0.4,0.6-0.7,1-0.9s0.9-0.3,1.4-0.3c0.9,0,1.6,0.2,2.1,0.7
				c0.5,0.4,0.7,1.2,0.7,2.1v5H455.2z"/>
			<path class="st4" d="M465.3,525.4c0,1.2-0.3,2.2-0.9,2.9c-0.6,0.7-1.5,1-2.6,1c-0.7,0-1.3-0.2-1.8-0.5s-0.9-0.8-1.2-1.4
				c-0.3-0.6-0.4-1.3-0.4-2.1c0-1.2,0.3-2.2,0.9-2.9c0.6-0.7,1.5-1,2.6-1c1.1,0,1.9,0.4,2.5,1.1S465.3,524.2,465.3,525.4z
				 M459.5,525.4c0,1,0.2,1.7,0.6,2.2s1,0.8,1.7,0.8c0.8,0,1.3-0.3,1.7-0.8c0.4-0.5,0.6-1.3,0.6-2.2c0-1-0.2-1.7-0.6-2.2
				c-0.4-0.5-1-0.8-1.7-0.8c-0.8,0-1.3,0.2-1.7,0.7C459.7,523.7,459.5,524.4,459.5,525.4z"/>
			<path class="st4" d="M468.5,529.2h-1.2v-10.8h1.2V529.2z"/>
			<path class="st4" d="M470.8,528.5c0-0.3,0.1-0.5,0.2-0.7s0.3-0.2,0.6-0.2c0.3,0,0.5,0.1,0.6,0.2c0.2,0.2,0.2,0.4,0.2,0.7
				c0,0.3-0.1,0.5-0.2,0.7c-0.2,0.2-0.4,0.2-0.6,0.2c-0.2,0-0.4-0.1-0.6-0.2C470.8,529.1,470.8,528.8,470.8,528.5z"/>
			<path class="st4" d="M484.6,529.2h-6.7v-1l2.7-2.7c0.8-0.8,1.4-1.4,1.6-1.8s0.5-0.7,0.6-1s0.2-0.7,0.2-1.1c0-0.5-0.2-1-0.5-1.3
				c-0.3-0.3-0.8-0.5-1.4-0.5c-0.4,0-0.8,0.1-1.2,0.2c-0.4,0.1-0.8,0.4-1.3,0.8l-0.6-0.8c0.9-0.8,2-1.2,3.1-1.2c1,0,1.7,0.2,2.2,0.7
				s0.8,1.1,0.8,2c0,0.6-0.2,1.3-0.5,1.9c-0.4,0.6-1,1.4-2,2.4l-2.2,2.2v0.1h5.2V529.2z"/>
			<path class="st4" d="M492.8,524.1c0,1.8-0.3,3.1-0.8,3.9c-0.6,0.9-1.4,1.3-2.5,1.3c-1.1,0-1.9-0.4-2.5-1.3
				c-0.6-0.9-0.9-2.2-0.9-3.9c0-1.8,0.3-3.1,0.8-3.9c0.6-0.9,1.4-1.3,2.5-1.3c1.1,0,1.9,0.4,2.5,1.3S492.8,522.4,492.8,524.1z
				 M487.2,524.1c0,1.5,0.2,2.6,0.5,3.2c0.3,0.7,0.9,1,1.7,1c0.8,0,1.3-0.3,1.7-1s0.5-1.8,0.5-3.2c0-1.5-0.2-2.5-0.5-3.2
				s-0.9-1-1.7-1c-0.8,0-1.3,0.3-1.7,1S487.2,522.6,487.2,524.1z"/>
			<path class="st4" d="M500.9,524.1c0,1.8-0.3,3.1-0.8,3.9c-0.6,0.9-1.4,1.3-2.5,1.3c-1.1,0-1.9-0.4-2.5-1.3
				c-0.6-0.9-0.9-2.2-0.9-3.9c0-1.8,0.3-3.1,0.8-3.9c0.6-0.9,1.4-1.3,2.5-1.3c1.1,0,1.9,0.4,2.5,1.3S500.9,522.4,500.9,524.1z
				 M495.4,524.1c0,1.5,0.2,2.6,0.5,3.2c0.3,0.7,0.9,1,1.7,1c0.8,0,1.3-0.3,1.7-1s0.5-1.8,0.5-3.2c0-1.5-0.2-2.5-0.5-3.2
				s-0.9-1-1.7-1c-0.8,0-1.3,0.3-1.7,1S495.4,522.6,495.4,524.1z"/>
			<path class="st4" d="M502.5,524.9c0-2,0.4-3.5,1.2-4.5c0.8-1,1.9-1.5,3.4-1.5c0.5,0,0.9,0,1.2,0.1v1c-0.4-0.1-0.8-0.2-1.2-0.2
				c-1.1,0-1.9,0.3-2.5,1s-0.9,1.7-0.9,3.2h0.1c0.5-0.8,1.3-1.2,2.4-1.2c0.9,0,1.6,0.3,2.2,0.8c0.5,0.6,0.8,1.3,0.8,2.2
				c0,1.1-0.3,1.9-0.9,2.5c-0.6,0.6-1.4,0.9-2.3,0.9c-1.1,0-1.9-0.4-2.5-1.2C502.8,527.4,502.5,526.3,502.5,524.9z M505.9,528.4
				c0.7,0,1.2-0.2,1.5-0.6c0.4-0.4,0.5-1,0.5-1.8c0-0.7-0.2-1.2-0.5-1.6c-0.3-0.4-0.8-0.6-1.5-0.6c-0.4,0-0.8,0.1-1.1,0.3
				c-0.3,0.2-0.6,0.4-0.8,0.7c-0.2,0.3-0.3,0.6-0.3,0.9c0,0.5,0.1,0.9,0.3,1.3s0.4,0.7,0.8,1C505.1,528.3,505.5,528.4,505.9,528.4z"
				/>
			<path class="st4" d="M512.2,527.6l0.1,0.2c-0.1,0.5-0.3,1-0.5,1.6c-0.2,0.6-0.5,1.2-0.7,1.7h-0.9c0.1-0.5,0.3-1.1,0.4-1.8
				s0.3-1.3,0.3-1.7H512.2z M510.8,522.3c0-0.6,0.3-0.9,0.8-0.9c0.6,0,0.9,0.3,0.9,0.9c0,0.3-0.1,0.5-0.2,0.7
				c-0.2,0.2-0.4,0.2-0.6,0.2c-0.3,0-0.5-0.1-0.6-0.2C510.9,522.9,510.8,522.6,510.8,522.3z"/>
			<path class="st4" d="M518.6,529.2h-1.1V522c0-0.6,0-1.2,0.1-1.7c-0.1,0.1-0.2,0.2-0.3,0.3c-0.1,0.1-0.7,0.6-1.7,1.4l-0.6-0.8
				l2.7-2.1h1V529.2z"/>
			<path class="st4" d="M526.7,529.2h-1.1V522c0-0.6,0-1.2,0.1-1.7c-0.1,0.1-0.2,0.2-0.3,0.3c-0.1,0.1-0.7,0.6-1.7,1.4l-0.6-0.8
				l2.7-2.1h1V529.2z"/>
			<path class="st4" d="M531.9,529.2l4.2-9.1h-5.5v-1.1h6.8v0.9l-4.2,9.2H531.9z"/>
			<path class="st4" d="M542.8,522.3c0-0.6,0.3-0.9,0.8-0.9c0.6,0,0.9,0.3,0.9,0.9c0,0.3-0.1,0.5-0.2,0.7c-0.2,0.2-0.4,0.2-0.6,0.2
				c-0.2,0-0.4-0.1-0.6-0.2C542.9,522.9,542.8,522.7,542.8,522.3z M542.8,528.5c0-0.3,0.1-0.5,0.2-0.7s0.3-0.2,0.6-0.2
				c0.3,0,0.5,0.1,0.6,0.2c0.2,0.2,0.2,0.4,0.2,0.7c0,0.3-0.1,0.5-0.2,0.7c-0.2,0.2-0.4,0.2-0.6,0.2c-0.2,0-0.4-0.1-0.6-0.2
				C542.9,529.1,542.8,528.8,542.8,528.5z"/>
			<path class="st4" d="M553.1,523c1.1,0,1.9,0.3,2.5,0.8c0.6,0.5,0.9,1.3,0.9,2.2c0,1.1-0.3,1.9-1,2.5c-0.7,0.6-1.6,0.9-2.8,0.9
				c-1.1,0-2-0.2-2.6-0.6v-1.1c0.3,0.2,0.7,0.4,1.2,0.5c0.5,0.1,1,0.2,1.4,0.2c0.8,0,1.5-0.2,1.9-0.6c0.5-0.4,0.7-0.9,0.7-1.7
				c0-1.4-0.9-2.1-2.6-2.1c-0.4,0-1,0.1-1.8,0.2l-0.6-0.4l0.4-4.8h5.1v1.1h-4.1l-0.3,3.1C552.1,523.1,552.6,523,553.1,523z"/>
			<path class="st4" d="M561.3,523c1.1,0,1.9,0.3,2.5,0.8c0.6,0.5,0.9,1.3,0.9,2.2c0,1.1-0.3,1.9-1,2.5c-0.7,0.6-1.6,0.9-2.8,0.9
				c-1.1,0-2-0.2-2.6-0.6v-1.1c0.3,0.2,0.7,0.4,1.2,0.5c0.5,0.1,1,0.2,1.4,0.2c0.8,0,1.5-0.2,1.9-0.6c0.5-0.4,0.7-0.9,0.7-1.7
				c0-1.4-0.9-2.1-2.6-2.1c-0.4,0-1,0.1-1.8,0.2l-0.6-0.4l0.4-4.8h5.1v1.1h-4.1l-0.3,3.1C560.2,523.1,560.8,523,561.3,523z"/>
			<path class="st4" d="M567.5,529.2l4.2-9.1h-5.5v-1.1h6.8v0.9l-4.2,9.2H567.5z"/>
			<path class="st4" d="M574.3,525.9v-1.1h3.4v1.1H574.3z"/>
			<path class="st4" d="M582.2,523c1.1,0,1.9,0.3,2.5,0.8c0.6,0.5,0.9,1.3,0.9,2.2c0,1.1-0.3,1.9-1,2.5c-0.7,0.6-1.6,0.9-2.8,0.9
				c-1.1,0-2-0.2-2.6-0.6v-1.1c0.3,0.2,0.7,0.4,1.2,0.5c0.5,0.1,1,0.2,1.4,0.2c0.8,0,1.5-0.2,1.9-0.6c0.5-0.4,0.7-0.9,0.7-1.7
				c0-1.4-0.9-2.1-2.6-2.1c-0.4,0-1,0.1-1.8,0.2l-0.6-0.4l0.4-4.8h5.1v1.1h-4.1l-0.3,3.1C581.1,523.1,581.6,523,582.2,523z"/>
			<path class="st4" d="M587.3,524.9c0-2,0.4-3.5,1.2-4.5c0.8-1,1.9-1.5,3.4-1.5c0.5,0,0.9,0,1.2,0.1v1c-0.4-0.1-0.8-0.2-1.2-0.2
				c-1.1,0-1.9,0.3-2.5,1s-0.9,1.7-0.9,3.2h0.1c0.5-0.8,1.3-1.2,2.4-1.2c0.9,0,1.6,0.3,2.2,0.8c0.5,0.6,0.8,1.3,0.8,2.2
				c0,1.1-0.3,1.9-0.9,2.5c-0.6,0.6-1.4,0.9-2.3,0.9c-1.1,0-1.9-0.4-2.5-1.2C587.6,527.4,587.3,526.3,587.3,524.9z M590.7,528.4
				c0.7,0,1.2-0.2,1.5-0.6c0.4-0.4,0.5-1,0.5-1.8c0-0.7-0.2-1.2-0.5-1.6c-0.3-0.4-0.8-0.6-1.5-0.6c-0.4,0-0.8,0.1-1.1,0.3
				c-0.3,0.2-0.6,0.4-0.8,0.7c-0.2,0.3-0.3,0.6-0.3,0.9c0,0.5,0.1,0.9,0.3,1.3s0.4,0.7,0.8,1C589.8,528.3,590.2,528.4,590.7,528.4z"
				/>
			<path class="st4" d="M602,529.2h-6.7v-1l2.7-2.7c0.8-0.8,1.4-1.4,1.6-1.8s0.5-0.7,0.6-1s0.2-0.7,0.2-1.1c0-0.5-0.2-1-0.5-1.3
				c-0.3-0.3-0.8-0.5-1.4-0.5c-0.4,0-0.8,0.1-1.2,0.2c-0.4,0.1-0.8,0.4-1.3,0.8l-0.6-0.8c0.9-0.8,2-1.2,3.1-1.2c1,0,1.7,0.2,2.2,0.7
				s0.8,1.1,0.8,2c0,0.6-0.2,1.3-0.5,1.9c-0.4,0.6-1,1.4-2,2.4l-2.2,2.2v0.1h5.2V529.2z"/>
		</g>
	</g>
	<g>
		<g>
			<g>
				<path class="st5" d="M711.1,222.1h-12.4v-2.2l4.7-4.7c1.4-1.4,2.3-2.4,2.8-3c0.5-0.6,0.8-1.2,1-1.7c0.2-0.5,0.3-1.1,0.3-1.7
					c0-0.8-0.2-1.5-0.7-2s-1.2-0.7-2.1-0.7c-0.7,0-1.4,0.1-2,0.4c-0.7,0.3-1.4,0.7-2.3,1.4l-1.6-1.9c1-0.9,2-1.5,3-1.8
					c1-0.4,2-0.5,3.1-0.5c1.7,0,3.1,0.4,4.1,1.3s1.5,2.1,1.5,3.6c0,0.8-0.1,1.6-0.4,2.4c-0.3,0.7-0.8,1.5-1.4,2.3s-1.6,1.9-3.1,3.2
					l-3.2,3.1v0.1h8.7V222.1z"/>
				<path class="st5" d="M729.6,222.1l-0.6-1.9h-0.1c-0.7,0.8-1.3,1.4-2,1.7s-1.5,0.5-2.6,0.5c-1.4,0-2.4-0.4-3.2-1.1
					s-1.1-1.8-1.1-3.1c0-1.4,0.5-2.5,1.6-3.2c1.1-0.7,2.7-1.1,4.8-1.2l2.4-0.1v-0.7c0-0.9-0.2-1.5-0.6-2s-1.1-0.7-1.9-0.7
					c-0.7,0-1.4,0.1-2,0.3c-0.7,0.2-1.3,0.5-1.9,0.7l-1-2.1c0.8-0.4,1.6-0.7,2.5-0.9c0.9-0.2,1.7-0.3,2.5-0.3c1.8,0,3.1,0.4,4,1.2
					c0.9,0.8,1.3,2,1.3,3.6v9.3H729.6z M725.2,220.1c1.1,0,1.9-0.3,2.6-0.9c0.6-0.6,1-1.4,1-2.5v-1.2l-1.8,0.1
					c-1.4,0.1-2.4,0.3-3,0.7c-0.6,0.4-0.9,1-0.9,1.9c0,0.6,0.2,1.1,0.6,1.4C724,219.9,724.5,220.1,725.2,220.1z"/>
				<path class="st5" d="M754.6,218.1h-2.5v4h-2.9v-4h-8.4v-2.3l8.4-12.1h2.9v11.9h2.5V218.1z M749.2,215.7v-4.6c0-1.6,0-3,0.1-4
					h-0.1c-0.2,0.6-0.6,1.2-1.1,2l-4.5,6.6H749.2z"/>
				<path class="st5" d="M772.4,222.1l-0.6-1.9h-0.1c-0.7,0.8-1.3,1.4-2,1.7s-1.5,0.5-2.6,0.5c-1.4,0-2.4-0.4-3.2-1.1
					s-1.1-1.8-1.1-3.1c0-1.4,0.5-2.5,1.6-3.2c1.1-0.7,2.7-1.1,4.8-1.2l2.4-0.1v-0.7c0-0.9-0.2-1.5-0.6-2s-1.1-0.7-1.9-0.7
					c-0.7,0-1.4,0.1-2,0.3c-0.7,0.2-1.3,0.5-1.9,0.7l-1-2.1c0.8-0.4,1.6-0.7,2.5-0.9c0.9-0.2,1.7-0.3,2.5-0.3c1.8,0,3.1,0.4,4,1.2
					c0.9,0.8,1.3,2,1.3,3.6v9.3H772.4z M768.1,220.1c1.1,0,1.9-0.3,2.6-0.9c0.6-0.6,1-1.4,1-2.5v-1.2l-1.8,0.1
					c-1.4,0.1-2.4,0.3-3,0.7c-0.6,0.4-0.9,1-0.9,1.9c0,0.6,0.2,1.1,0.6,1.4C766.8,219.9,767.3,220.1,768.1,220.1z"/>
				<path class="st5" d="M790.8,222.1h-3v-8.5c0-1.1-0.2-1.9-0.6-2.4s-1.1-0.8-2-0.8c-1.2,0-2.2,0.4-2.7,1.1c-0.6,0.7-0.9,2-0.9,3.7
					v6.9h-2.9v-13.8h2.3l0.4,1.8h0.2c0.4-0.7,1-1.2,1.8-1.5s1.6-0.5,2.6-0.5c3.3,0,5,1.7,5,5.1V222.1z M786.7,206.6
					c-0.4,0-0.7-0.1-1-0.2s-0.7-0.3-1-0.5c-0.3-0.2-0.6-0.3-1-0.5s-0.6-0.2-0.9-0.2c-0.7,0-1.1,0.5-1.4,1.4h-1.5
					c0.1-1.2,0.4-2,1-2.7c0.5-0.6,1.2-0.9,2.1-0.9c0.4,0,0.7,0.1,1.1,0.2c0.3,0.1,0.7,0.3,1,0.5c0.3,0.2,0.6,0.3,0.9,0.5
					s0.6,0.2,0.9,0.2c0.7,0,1.1-0.5,1.3-1.4h1.6c-0.1,1.1-0.4,2-1,2.6C788.3,206.2,787.5,206.6,786.7,206.6z"/>
				<path class="st5" d="M807.2,215.1c0,2.3-0.6,4-1.7,5.3c-1.2,1.3-2.8,1.9-4.8,1.9c-1.3,0-2.4-0.3-3.4-0.9c-1-0.6-1.8-1.4-2.3-2.5
					c-0.5-1.1-0.8-2.4-0.8-3.8c0-2.2,0.6-4,1.7-5.3c1.2-1.3,2.8-1.9,4.9-1.9c2,0,3.6,0.6,4.8,1.9S807.2,213,807.2,215.1z
					 M797.1,215.1c0,3.2,1.2,4.8,3.5,4.8c2.3,0,3.5-1.6,3.5-4.8c0-3.2-1.2-4.7-3.5-4.7c-1.2,0-2.1,0.4-2.7,1.2
					C797.4,212.5,797.1,213.6,797.1,215.1z"/>
				<path class="st5" d="M819.9,218.2c0,1.4-0.5,2.4-1.5,3.1c-1,0.7-2.4,1.1-4.2,1.1c-1.8,0-3.3-0.3-4.4-0.8V219
					c1.6,0.8,3.1,1.1,4.5,1.1c1.8,0,2.7-0.5,2.7-1.6c0-0.4-0.1-0.6-0.3-0.9c-0.2-0.2-0.5-0.5-1-0.7c-0.5-0.2-1.1-0.5-1.9-0.9
					c-1.6-0.6-2.7-1.2-3.2-1.9c-0.6-0.6-0.8-1.4-0.8-2.4c0-1.2,0.5-2.1,1.4-2.8c1-0.7,2.3-1,3.9-1c1.6,0,3.2,0.3,4.6,1l-1,2.2
					c-1.5-0.6-2.7-0.9-3.8-0.9c-1.6,0-2.3,0.4-2.3,1.3c0,0.4,0.2,0.8,0.6,1.1c0.4,0.3,1.3,0.7,2.6,1.2c1.1,0.4,2,0.8,2.5,1.2
					c0.5,0.4,0.9,0.8,1.2,1.3C819.8,216.9,819.9,217.5,819.9,218.2z"/>
			</g>
		</g>
		<g>
			<g>
				<path class="st5" d="M703.8,259.2c1.8,0,3.3,0.5,4.4,1.5c1.1,1,1.6,2.3,1.6,4c0,2-0.6,3.5-1.8,4.6s-3,1.6-5.2,1.6
					c-2,0-3.7-0.3-4.8-1v-2.7c0.7,0.4,1.5,0.7,2.3,0.9c0.9,0.2,1.7,0.3,2.4,0.3c1.3,0,2.3-0.3,3-0.9c0.7-0.6,1-1.5,1-2.6
					c0-2.2-1.4-3.3-4.2-3.3c-0.4,0-0.9,0-1.5,0.1c-0.6,0.1-1.1,0.2-1.5,0.3l-1.3-0.8l0.7-8.9h9.5v2.6h-6.9l-0.4,4.5
					c0.3,0,0.6-0.1,1.1-0.2C702.7,259.2,703.2,259.2,703.8,259.2z"/>
				<path class="st5" d="M728.5,270.6l-0.6-1.9h-0.1c-0.7,0.8-1.3,1.4-2,1.7s-1.5,0.5-2.6,0.5c-1.4,0-2.4-0.4-3.2-1.1
					s-1.1-1.8-1.1-3.1c0-1.4,0.5-2.5,1.6-3.2c1.1-0.7,2.7-1.1,4.8-1.2l2.4-0.1v-0.7c0-0.9-0.2-1.5-0.6-2s-1.1-0.7-1.9-0.7
					c-0.7,0-1.4,0.1-2,0.3c-0.7,0.2-1.3,0.5-1.9,0.7l-1-2.1c0.8-0.4,1.6-0.7,2.5-0.9c0.9-0.2,1.7-0.3,2.5-0.3c1.8,0,3.1,0.4,4,1.2
					c0.9,0.8,1.3,2,1.3,3.6v9.3H728.5z M724.1,268.6c1.1,0,1.9-0.3,2.6-0.9c0.6-0.6,1-1.4,1-2.5V264l-1.8,0.1
					c-1.4,0.1-2.4,0.3-3,0.7c-0.6,0.4-0.9,1-0.9,1.9c0,0.6,0.2,1.1,0.6,1.4C722.8,268.5,723.4,268.6,724.1,268.6z"/>
				<path class="st5" d="M749,270.6h-2.9v-11.8c0-1.4,0-2.5,0.1-3.4c-0.2,0.2-0.4,0.4-0.7,0.7c-0.3,0.2-1.2,1-2.8,2.3l-1.5-1.9
					l5.4-4.2h2.5V270.6z"/>
				<path class="st5" d="M761.2,259.2c1.8,0,3.3,0.5,4.4,1.5c1.1,1,1.6,2.3,1.6,4c0,2-0.6,3.5-1.8,4.6s-3,1.6-5.2,1.6
					c-2,0-3.7-0.3-4.8-1v-2.7c0.7,0.4,1.5,0.7,2.3,0.9c0.9,0.2,1.7,0.3,2.4,0.3c1.3,0,2.3-0.3,3-0.9c0.7-0.6,1-1.5,1-2.6
					c0-2.2-1.4-3.3-4.2-3.3c-0.4,0-0.9,0-1.5,0.1c-0.6,0.1-1.1,0.2-1.5,0.3l-1.3-0.8l0.7-8.9h9.5v2.6H759l-0.4,4.5
					c0.3,0,0.6-0.1,1.1-0.2C760.1,259.2,760.6,259.2,761.2,259.2z"/>
				<path class="st5" d="M786,270.6l-0.6-1.9h-0.1c-0.7,0.8-1.3,1.4-2,1.7s-1.5,0.5-2.6,0.5c-1.4,0-2.4-0.4-3.2-1.1
					s-1.1-1.8-1.1-3.1c0-1.4,0.5-2.5,1.6-3.2c1.1-0.7,2.7-1.1,4.8-1.2l2.4-0.1v-0.7c0-0.9-0.2-1.5-0.6-2s-1.1-0.7-1.9-0.7
					c-0.7,0-1.4,0.1-2,0.3c-0.7,0.2-1.3,0.5-1.9,0.7l-1-2.1c0.8-0.4,1.6-0.7,2.5-0.9c0.9-0.2,1.7-0.3,2.5-0.3c1.8,0,3.1,0.4,4,1.2
					c0.9,0.8,1.3,2,1.3,3.6v9.3H786z M781.6,268.6c1.1,0,1.9-0.3,2.6-0.9c0.6-0.6,1-1.4,1-2.5V264l-1.8,0.1c-1.4,0.1-2.4,0.3-3,0.7
					c-0.6,0.4-0.9,1-0.9,1.9c0,0.6,0.2,1.1,0.6,1.4C780.3,268.5,780.8,268.6,781.6,268.6z"/>
				<path class="st5" d="M804.3,270.6h-3v-8.5c0-1.1-0.2-1.9-0.6-2.4s-1.1-0.8-2-0.8c-1.2,0-2.2,0.4-2.7,1.1c-0.6,0.7-0.9,2-0.9,3.7
					v6.9h-2.9v-13.8h2.3l0.4,1.8h0.2c0.4-0.7,1-1.2,1.8-1.5s1.6-0.5,2.6-0.5c3.3,0,5,1.7,5,5.1V270.6z M800.2,255.1
					c-0.4,0-0.7-0.1-1-0.2s-0.7-0.3-1-0.5c-0.3-0.2-0.6-0.3-1-0.5s-0.6-0.2-0.9-0.2c-0.7,0-1.1,0.5-1.4,1.4h-1.5
					c0.1-1.2,0.4-2,1-2.7c0.5-0.6,1.2-0.9,2.1-0.9c0.4,0,0.7,0.1,1.1,0.2c0.3,0.1,0.7,0.3,1,0.5c0.3,0.2,0.6,0.3,0.9,0.5
					s0.6,0.2,0.9,0.2c0.7,0,1.1-0.5,1.3-1.4h1.6c-0.1,1.1-0.4,2-1,2.6C801.8,254.8,801.1,255.1,800.2,255.1z"/>
				<path class="st5" d="M820.7,263.7c0,2.3-0.6,4-1.7,5.3c-1.2,1.3-2.8,1.9-4.8,1.9c-1.3,0-2.4-0.3-3.4-0.9c-1-0.6-1.8-1.4-2.3-2.5
					c-0.5-1.1-0.8-2.4-0.8-3.8c0-2.2,0.6-4,1.7-5.3c1.2-1.3,2.8-1.9,4.9-1.9c2,0,3.6,0.6,4.8,1.9S820.7,261.5,820.7,263.7z
					 M810.6,263.7c0,3.2,1.2,4.8,3.5,4.8c2.3,0,3.5-1.6,3.5-4.8c0-3.2-1.2-4.7-3.5-4.7c-1.2,0-2.1,0.4-2.7,1.2
					C810.9,261,810.6,262.2,810.6,263.7z"/>
				<path class="st5" d="M833.4,266.7c0,1.4-0.5,2.4-1.5,3.1c-1,0.7-2.4,1.1-4.2,1.1c-1.8,0-3.3-0.3-4.4-0.8v-2.5
					c1.6,0.8,3.1,1.1,4.5,1.1c1.8,0,2.7-0.5,2.7-1.6c0-0.4-0.1-0.6-0.3-0.9c-0.2-0.2-0.5-0.5-1-0.7c-0.5-0.2-1.1-0.5-1.9-0.9
					c-1.6-0.6-2.7-1.2-3.2-1.9c-0.6-0.6-0.8-1.4-0.8-2.4c0-1.2,0.5-2.1,1.4-2.8c1-0.7,2.3-1,3.9-1c1.6,0,3.2,0.3,4.6,1l-1,2.2
					c-1.5-0.6-2.7-0.9-3.8-0.9c-1.6,0-2.3,0.4-2.3,1.3c0,0.4,0.2,0.8,0.6,1.1c0.4,0.3,1.3,0.7,2.6,1.2c1.1,0.4,2,0.8,2.5,1.2
					c0.5,0.4,0.9,0.8,1.2,1.3C833.3,265.5,833.4,266,833.4,266.7z"/>
			</g>
		</g>
		<g>
			<g>
				<path class="st5" d="M698.9,319.1H696v-11.8c0-1.4,0-2.5,0.1-3.4c-0.2,0.2-0.4,0.4-0.7,0.7c-0.3,0.2-1.2,1-2.8,2.3l-1.5-1.9
					l5.4-4.2h2.5V319.1z"/>
				<path class="st5" d="M704.9,311.3c0-7.2,2.9-10.7,8.7-10.7c0.9,0,1.7,0.1,2.3,0.2v2.5c-0.6-0.2-1.4-0.3-2.2-0.3
					c-2,0-3.4,0.5-4.4,1.6c-1,1.1-1.5,2.7-1.6,5.1h0.2c0.4-0.7,0.9-1.2,1.7-1.6c0.7-0.4,1.5-0.6,2.5-0.6c1.7,0,3,0.5,3.9,1.5
					c0.9,1,1.4,2.4,1.4,4.1c0,1.9-0.5,3.4-1.6,4.5c-1.1,1.1-2.5,1.7-4.4,1.7c-1.3,0-2.4-0.3-3.4-0.9c-1-0.6-1.7-1.5-2.2-2.8
					S704.9,313,704.9,311.3z M711.3,317c1,0,1.8-0.3,2.3-1c0.5-0.7,0.8-1.6,0.8-2.8c0-1.1-0.3-1.9-0.8-2.5c-0.5-0.6-1.3-0.9-2.3-0.9
					c-0.6,0-1.2,0.1-1.8,0.4s-1,0.6-1.3,1.1s-0.5,1-0.5,1.4c0,1.2,0.3,2.2,1,3C709.5,316.6,710.3,317,711.3,317z"/>
				<path class="st5" d="M735.8,319.1l-0.6-1.9h-0.1c-0.7,0.8-1.3,1.4-2,1.7c-0.7,0.3-1.5,0.5-2.6,0.5c-1.4,0-2.4-0.4-3.2-1.1
					c-0.8-0.7-1.1-1.8-1.1-3.1c0-1.4,0.5-2.5,1.6-3.2c1.1-0.7,2.7-1.1,4.8-1.2l2.4-0.1v-0.7c0-0.9-0.2-1.5-0.6-2
					c-0.4-0.4-1.1-0.7-1.9-0.7c-0.7,0-1.4,0.1-2,0.3c-0.7,0.2-1.3,0.5-1.9,0.7l-1-2.1c0.8-0.4,1.6-0.7,2.5-0.9
					c0.9-0.2,1.7-0.3,2.5-0.3c1.8,0,3.1,0.4,4,1.2c0.9,0.8,1.3,2,1.3,3.6v9.3H735.8z M731.4,317.1c1.1,0,1.9-0.3,2.6-0.9
					c0.6-0.6,1-1.4,1-2.5v-1.2l-1.8,0.1c-1.4,0-2.4,0.3-3,0.7c-0.6,0.4-0.9,1-0.9,1.9c0,0.6,0.2,1.1,0.6,1.4
					S730.7,317.1,731.4,317.1z"/>
				<path class="st5" d="M760.8,315.1h-2.5v4h-2.9v-4h-8.4v-2.3l8.4-12.1h2.9v11.9h2.5V315.1z M755.4,312.7v-4.6c0-1.6,0-3,0.1-4
					h-0.1c-0.2,0.6-0.6,1.2-1.1,2l-4.5,6.6H755.4z"/>
				<path class="st5" d="M774.7,308.6c0,3.6-0.7,6.3-2.2,8.1s-3.6,2.7-6.6,2.7c-1.1,0-1.9-0.1-2.4-0.2v-2.5c0.7,0.2,1.5,0.3,2.2,0.3
					c2,0,3.5-0.5,4.4-1.6c1-1.1,1.5-2.7,1.6-5h-0.2c-0.5,0.8-1.1,1.3-1.8,1.6c-0.7,0.3-1.5,0.5-2.4,0.5c-1.6,0-2.9-0.5-3.8-1.5
					c-0.9-1-1.4-2.4-1.4-4.2c0-1.9,0.5-3.4,1.6-4.6s2.5-1.7,4.4-1.7c1.3,0,2.4,0.3,3.4,1c1,0.6,1.7,1.6,2.2,2.8
					C774.5,305.5,774.7,307,774.7,308.6z M768.3,303c-1,0-1.8,0.3-2.3,1c-0.5,0.7-0.8,1.6-0.8,2.8c0,1,0.3,1.9,0.8,2.5
					s1.3,0.9,2.3,0.9c1,0,1.8-0.3,2.5-0.9s1-1.3,1-2.1c0-0.7-0.1-1.4-0.4-2.1c-0.3-0.6-0.7-1.2-1.2-1.5
					C769.6,303.2,769,303,768.3,303z"/>
				<path class="st5" d="M793.3,319.1l-0.6-1.9h-0.1c-0.7,0.8-1.3,1.4-2,1.7c-0.7,0.3-1.5,0.5-2.6,0.5c-1.4,0-2.4-0.4-3.2-1.1
					c-0.8-0.7-1.1-1.8-1.1-3.1c0-1.4,0.5-2.5,1.6-3.2c1.1-0.7,2.7-1.1,4.8-1.2l2.4-0.1v-0.7c0-0.9-0.2-1.5-0.6-2
					c-0.4-0.4-1.1-0.7-1.9-0.7c-0.7,0-1.4,0.1-2,0.3c-0.7,0.2-1.3,0.5-1.9,0.7l-1-2.1c0.8-0.4,1.6-0.7,2.5-0.9
					c0.9-0.2,1.7-0.3,2.5-0.3c1.8,0,3.1,0.4,4,1.2c0.9,0.8,1.3,2,1.3,3.6v9.3H793.3z M788.9,317.1c1.1,0,1.9-0.3,2.6-0.9
					c0.6-0.6,1-1.4,1-2.5v-1.2l-1.8,0.1c-1.4,0-2.4,0.3-3,0.7c-0.6,0.4-0.9,1-0.9,1.9c0,0.6,0.2,1.1,0.6,1.4
					S788.2,317.1,788.9,317.1z"/>
				<path class="st5" d="M811.7,319.1h-3v-8.5c0-1.1-0.2-1.9-0.6-2.4c-0.4-0.5-1.1-0.8-2-0.8c-1.2,0-2.2,0.4-2.7,1.1
					c-0.6,0.7-0.9,2-0.9,3.7v6.9h-2.9v-13.8h2.3l0.4,1.8h0.2c0.4-0.7,1-1.2,1.8-1.5c0.8-0.4,1.6-0.5,2.6-0.5c3.3,0,5,1.7,5,5.1
					V319.1z M807.5,303.6c-0.4,0-0.7-0.1-1-0.2c-0.3-0.1-0.7-0.3-1-0.5c-0.3-0.2-0.6-0.3-1-0.5c-0.3-0.1-0.6-0.2-0.9-0.2
					c-0.7,0-1.1,0.5-1.4,1.4h-1.5c0.1-1.2,0.4-2,1-2.7s1.2-0.9,2.1-0.9c0.4,0,0.7,0.1,1.1,0.2c0.3,0.1,0.7,0.3,1,0.5
					c0.3,0.2,0.6,0.3,0.9,0.5c0.3,0.1,0.6,0.2,0.9,0.2c0.7,0,1.1-0.5,1.3-1.4h1.6c-0.1,1.1-0.4,2-1,2.6
					C809.1,303.3,808.4,303.6,807.5,303.6z"/>
				<path class="st5" d="M828,312.2c0,2.3-0.6,4-1.7,5.3s-2.8,1.9-4.8,1.9c-1.3,0-2.4-0.3-3.4-0.9s-1.8-1.4-2.3-2.5
					c-0.5-1.1-0.8-2.4-0.8-3.8c0-2.2,0.6-4,1.7-5.3c1.2-1.3,2.8-1.9,4.9-1.9c2,0,3.6,0.6,4.8,1.9C827.4,308.3,828,310,828,312.2z
					 M818,312.2c0,3.2,1.2,4.8,3.5,4.8c2.3,0,3.5-1.6,3.5-4.8c0-3.2-1.2-4.7-3.5-4.7c-1.2,0-2.1,0.4-2.7,1.2
					C818.2,309.5,818,310.7,818,312.2z"/>
				<path class="st5" d="M840.7,315.2c0,1.4-0.5,2.4-1.5,3.1c-1,0.7-2.4,1.1-4.2,1.1c-1.8,0-3.3-0.3-4.4-0.8V316
					c1.6,0.8,3.1,1.1,4.5,1.1c1.8,0,2.7-0.5,2.7-1.6c0-0.4-0.1-0.6-0.3-0.9s-0.5-0.5-1-0.7c-0.5-0.3-1.1-0.5-1.9-0.9
					c-1.6-0.6-2.7-1.2-3.2-1.9c-0.6-0.6-0.8-1.4-0.8-2.4c0-1.2,0.5-2.1,1.4-2.8c1-0.7,2.3-1,3.9-1c1.6,0,3.2,0.3,4.6,1l-1,2.2
					c-1.5-0.6-2.7-0.9-3.8-0.9c-1.6,0-2.3,0.4-2.3,1.3c0,0.4,0.2,0.8,0.6,1.1c0.4,0.3,1.3,0.7,2.6,1.2c1.1,0.4,2,0.8,2.5,1.2
					c0.5,0.4,0.9,0.8,1.2,1.3C840.6,314,840.7,314.5,840.7,315.2z"/>
			</g>
		</g>
		
			<rect x="649.5" y="203.3" transform="matrix(-1 -1.224647e-16 1.224647e-16 -1 1324.0061 425.4066)" class="st11" width="25.1" height="18.8"/>
		<circle class="st12" cx="663.3" cy="310.9" r="11.3"/>
		<polygon class="st13" points="661.2,247.6 647.9,270.6 674.5,270.6 		"/>
	</g>
</g>
</svg>
