<?xml version="1.0" encoding="utf-8"?>
<!-- Generator: Adobe Illustrator 22.0.0, SVG Export Plug-In . SVG Version: 6.00 Build 0)  -->
<svg version="1.1" id="Capa_1" xmlns="http://www.w3.org/2000/svg" xmlns:xlink="http://www.w3.org/1999/xlink" x="0px" y="0px"
	 viewBox="0 0 256 260" style="enable-background:new 0 0 256 260;" xml:space="preserve">
<style type="text/css">
	.st0{fill:#00ABD7;}
</style>
<g>
	<g>
		<path class="st0" d="M239.3,237.3c0,2.2-0.6,4.3-1.8,6c-3,4.3-8.4,5.1-12.2,1.7L136,166.5l-89.2,78.6c-3.8,3.4-9.2,2.6-12.1-1.7
			c-3-4.3-2.2-10.5,1.5-13.9l94.5-83.3c3.1-2.8,7.5-2.8,10.6,0l94.5,83.3C238.1,231.4,239.3,234.3,239.3,237.3z"/>
	</g>
	<g>
		<path class="st0" d="M239.3,173.6c0,2.2-0.6,4.3-1.8,6c-3,4.3-8.4,5.1-12.2,1.7L136,102.9l-89.2,78.6c-3.8,3.4-9.2,2.6-12.1-1.7
			c-3-4.3-2.2-10.5,1.5-13.9l94.5-83.3c3.1-2.8,7.5-2.8,10.6,0l94.5,83.3C238.1,167.7,239.3,170.7,239.3,173.6z"/>
	</g>
</g>
<g>
	<path class="st0" d="M17.2,20.8H32c11.3,0,13.6,10.3,13.6,17.1c0,7.7-2.8,18.8-13.9,18.8H17.2V20.8z M24.1,50.5h6.8
		c5.7,0,7.6-6.2,7.6-12.1c0-10.6-4.7-11.5-7.7-11.5h-6.7C24.1,26.9,24.1,50.5,24.1,50.5z"/>
	<path class="st0" d="M75.5,27.1H57.7v7.6H74V41H57.7v9.3h18.6v6.4H50.9V20.8h24.6V27.1z"/>
	<path class="st0" d="M86.9,45.6c0,2,1,5.8,7.1,5.8c3.3,0,7-0.9,7-4.7c0-2.8-2.5-3.6-6.1-4.5l-3.6-0.9c-5.4-1.4-10.6-2.7-10.6-10.6
		c0-4,2-11.1,12.9-11.1c10.3,0,13,7.2,13.1,11.6H100c-0.2-1.6-0.7-5.4-6.9-5.4c-2.7,0-5.8,1.1-5.8,4.3c0,2.8,2.1,3.4,3.5,3.8
		l8.2,2.2c4.6,1.2,8.8,3.2,8.8,9.7c0,10.8-10.3,11.8-13.2,11.8c-12.2,0-14.3-7.6-14.3-12C80.3,45.6,86.9,45.6,86.9,45.6z"/>
	<path class="st0" d="M120,50.2h16.6v6.5H113V20.8h7V50.2z"/>
	<path class="st0" d="M148,56.7h-7V20.8h7V56.7z"/>
	<path class="st0" d="M178.3,56.7h-26.2v-6.4l17.3-23.2h-16.8v-6.4h25.6v5.9l-17.5,23.7h17.6L178.3,56.7L178.3,56.7z"/>
	<path class="st0" d="M187.7,56.7h-7.4l11.9-35.9h8.1l11.8,35.9h-7.6l-2.1-7.4H190L187.7,56.7z M191.9,43.1h8.5l-4.2-14.2h-0.1
		L191.9,43.1z"/>
	<path class="st0" d="M216.6,20.8h16.9c8.9,0,10.5,7.1,10.5,10.2c0,4-1.9,7.4-5.2,8.6c2.8,1.3,4.2,2.4,4.2,9.1c0,5.3,0,6.6,1.5,7.2
		v1h-7.7c-0.5-1.7-0.7-3.6-0.7-7.3c0-4.9-0.3-6.8-5.5-6.8h-7.2v14.1h-6.9L216.6,20.8L216.6,20.8z M231.7,36.6c3.6,0,5.4-1.4,5.4-4.9
		c0-1.9-0.8-4.7-4.9-4.7h-8.7v9.6H231.7z"/>
</g>
</svg>
