<?xml version="1.0" encoding="utf-8"?>
<!-- Generator: Adobe Illustrator 22.0.0, SVG Export Plug-In . SVG Version: 6.00 Build 0)  -->
<svg version="1.1" id="Capa_1" xmlns="http://www.w3.org/2000/svg" xmlns:xlink="http://www.w3.org/1999/xlink" x="0px" y="0px"
	 viewBox="0 0 525.9 300.7" style="enable-background:new 0 0 525.9 300.7;" xml:space="preserve">
<style type="text/css">
	.st0{fill:#FFBE3A;}
	.st1{fill:#032D54;}
	.st2{fill:#134E8C;}
	.st3{fill:none;stroke:#FFFFFF;stroke-miterlimit:10;}
	.st4{fill:#FFFFFF;}
</style>
<path class="st0" d="M443.8,191h-53.3v-84h53.3c14.4,0,26.1,11.7,26.1,26.1V165C469.9,179.3,458.2,191,443.8,191z"/>
<g>
	<rect x="434" y="156.4" class="st1" width="10.5" height="2.1"/>
	<rect x="434" y="160.5" class="st1" width="10.5" height="2.1"/>
	<path class="st1" d="M456,133.4l-1.7,1.7l6.9,6.7h-12.5c-0.6-4.8-4.6-8.3-9.4-8.3s-8.8,3.6-9.4,8.3h-12.5l6.7-6.7l-1.4-1.7
		l-9.4,9.4l9.4,9.4l1.7-1.7l-6.9-6.7H430v26.4h18.8v-26.4h12.5l-6.7,6.7l1.7,1.7l9.4-9.4L456,133.4z M446.7,168.1H432v-25.3
		c0-4,3.3-7.3,7.3-7.3s7.3,3.3,7.3,7.3L446.7,168.1L446.7,168.1z"/>
	<path class="st1" d="M439.2,137.6c-2.9,0-5.2,2.3-5.2,5.2v7.3h10.5v-7.3C444.5,139.8,442.2,137.6,439.2,137.6L439.2,137.6z
		 M442.3,148H436v-5.2c0-1.7,1.4-3.2,3.2-3.2c1.7,0,3.2,1.5,3.2,3.2L442.3,148L442.3,148z"/>
</g>
<path class="st2" d="M74.5,13.5h300.8c18.7,0,33.9,15.2,33.9,33.9v200.9c0,18.7-15.2,33.9-33.9,33.9H74.5V13.5z"/>
<g>
	<line class="st3" x1="131.9" y1="62.6" x2="339.2" y2="62.6"/>
	<path class="st4" d="M131.7,35.3h6.4c4.2,0,6.9,0.1,9.2,2.2c2,1.9,2.6,4.7,2.6,7.4c0,4.1-1.5,8.1-5.3,9.3c-1.5,0.5-3.2,0.5-5.1,0.5
		h-7.9V35.3H131.7z M137.8,39.9v10.5h2.2c0.9,0,1.7-0.1,2.5-0.9c0.9-0.9,1.4-2.6,1.4-4.3c0-1.1-0.2-2.1-0.5-2.9
		c-0.7-2.2-2.4-2.2-3.5-2.4L137.8,39.9L137.8,39.9L137.8,39.9z"/>
	<path class="st4" d="M172.5,44.8c0,5-2.9,10.7-10.3,10.7c-7.7,0-10-6-10-10.4c0-5.6,3.3-10.5,10.2-10.5
		C169.9,34.5,172.5,40.1,172.5,44.8z M158.2,45.1c0,3.5,1.4,5.5,4.2,5.5c2.4,0,4.1-2,4.1-5.7c0-1-0.1-1.9-0.4-2.6
		c-0.9-2.7-3.2-2.9-3.7-2.9C160.2,39.5,158.2,41,158.2,45.1z"/>
	<path class="st4" d="M178.1,48.1c0.5,0.9,1,1.6,2.6,2.1c0.7,0.2,1.7,0.5,2.6,0.5c0.5,0,2.9,0,2.9-1.5c0-0.1,0-0.9-1-1.2
		c-0.6-0.2-4.1-0.9-5-1.1c-1.7-0.5-5.1-1.6-5.1-5.7c0-0.9,0.2-1.7,0.5-2.5c1.2-2.9,4.5-4,7.8-4c2.2,0,4.1,0.5,5.7,1.2
		c1.4,0.7,2.1,1.5,2.7,2.2l-3.7,3.2c-0.2-0.4-0.6-0.9-1.5-1.2c-1.1-0.5-2.6-0.7-3.5-0.7c-1,0-2.1,0.2-2.1,1.2s1,1.2,2.6,1.5
		c4.2,0.7,8.4,1.5,8.4,6.4c0,2.1-0.9,3.5-1.7,4.5c-2.4,2.5-6.2,2.5-7.2,2.5c-1.4,0-3-0.1-4.3-0.6c-3-0.9-4.3-2.6-5.2-3.7L178.1,48.1
		z"/>
	<path class="st4" d="M194.8,35.3h6v19.6h-6V35.3z"/>
	<path class="st4" d="M219.8,35.3v4.3h-9v3.5h8.4v4.2h-8.4v7.6h-6V35.3H219.8z"/>
	<path class="st4" d="M222.2,35.3h6v19.6h-6V35.3z"/>
	<path class="st4" d="M250,49.8c-0.5,1-1,1.9-1.9,2.7c-2,2-4.6,2.9-7.3,2.9c-6.7,0-9.8-5.3-9.8-10.3c0-5.3,3.3-10.7,9.8-10.7
		c2.9,0,5.6,1.1,7.6,3.2c0.7,0.9,1.2,1.5,1.6,2.4l-5,2.6c-0.5-1.1-1.4-3.2-4-3.2c-1.4,0-2.1,0.6-2.6,1.1c-1.4,1.4-1.4,3.6-1.4,4.5
		c0,3,1,5.7,4,5.7c2.7,0,3.6-2.6,3.8-3.2L250,49.8z"/>
	<path class="st4" d="M257.2,35.3h6.8l7.1,19.6h-6.4l-0.9-2.7h-6.6l-0.9,2.7h-6.4L257.2,35.3z M260.5,40.9l-2.1,6.9h4.1L260.5,40.9z
		"/>
	<path class="st4" d="M290,49.8c-0.5,1-1,1.9-1.9,2.7c-2,2-4.6,2.9-7.3,2.9c-6.7,0-9.8-5.3-9.8-10.3c0-5.3,3.3-10.7,9.8-10.7
		c2.9,0,5.6,1.1,7.6,3.2c0.7,0.9,1.2,1.5,1.6,2.4l-5,2.6c-0.5-1.1-1.4-3.2-4-3.2c-1.4,0-2.1,0.6-2.6,1.1c-1.4,1.4-1.4,3.6-1.4,4.5
		c0,3,1,5.7,4,5.7c2.7,0,3.6-2.6,3.8-3.2L290,49.8z"/>
	<path class="st4" d="M292.4,35.3h6v19.6h-6V35.3z"/>
	<path class="st4" d="M320.6,44.8c0,5-2.9,10.7-10.3,10.7c-7.7,0-10-6-10-10.4c0-5.6,3.3-10.5,10.2-10.5
		C317.9,34.5,320.6,40.1,320.6,44.8z M306.4,45.1c0,3.5,1.4,5.5,4.2,5.5c2.4,0,4.1-2,4.1-5.7c0-1-0.1-1.9-0.4-2.6
		c-0.9-2.7-3.2-2.9-3.7-2.9C308.2,39.5,306.4,41,306.4,45.1z M309.8,30.6h5.8l-4,3.3h-3.7L309.8,30.6z"/>
	<path class="st4" d="M322.6,35.3h6.3l4.2,7.4c1,2,1.4,2.6,2.4,4.8c-0.1-1.9-0.2-2.4-0.2-4.6v-7.7h5.6v19.6h-6.4l-3.8-6.8
		c-1.1-2-1.4-2.6-2.6-5.2c0.1,1.7,0.1,2.2,0.2,4v7.9h-5.6L322.6,35.3L322.6,35.3z"/>
</g>
<rect x="131.6" y="137.2" class="st4" width="10.4" height="10.8"/>
<rect x="131.6" y="177.3" class="st4" width="10.4" height="10.8"/>
<rect x="131.6" y="218.6" class="st4" width="10.4" height="10.8"/>
<path class="st4" d="M152.6,134.9h2.7l2.3,12.6h-2.3l-0.3-2h-2.1l-0.3,2h-2.3L152.6,134.9z M153.2,143.5h1.5L154,138L153.2,143.5z"
	/>
<path class="st4" d="M162.4,134.9h2.1v12.6h-2.1v-0.9c-0.3,0.4-0.8,1.1-1.8,1.1c-0.9,0-1.5-0.4-1.8-1c-0.2-0.4-0.2-1-0.2-2v-4.2
	c0-0.7,0.1-1,0.2-1.3c0.4-0.8,1.2-1.1,1.8-1.1c0.9,0,1.4,0.6,1.9,0.9L162.4,134.9L162.4,134.9z M160.6,144.8c0,0.4,0,1,0.8,1
	c0.9,0,0.9-0.8,0.9-1.1v-3.9c0-0.3,0-1-0.9-1c-0.8,0-0.8,0.7-0.8,1.1V144.8z"/>
<path class="st4" d="M166,138.4h2.1v6.5c0,0.4,0,1.1,0.8,1.1c0.8,0,0.8-0.8,0.8-1.2v-6.4h2.1v9.1h-2.1v-0.8c-0.4,0.3-1,0.9-2,0.9
	c-0.6,0-1.5-0.2-1.7-1.4c0-0.3,0-0.4,0-1V138.4L166,138.4z"/>
<path class="st4" d="M173.4,134.9h2.1v12.6h-2.1V134.9z"/>
<path class="st4" d="M177.7,135.1h2.1v3.3h1.2v1.4h-1.3v5.2c0,0.6,0.1,1,1,1c0.1,0,0.2,0,0.3,0v1.5c-0.1,0-0.4,0.1-1.1,0.1
	c-2,0-2.3-0.8-2.3-1.9v-6h-1.1v-1.4h1.1v-3.3H177.7z"/>
<path class="st4" d="M181.9,140.8c0-1.1,0.3-2.7,2.9-2.7c0.7,0,1.4,0.1,1.9,0.6c0.8,0.6,0.9,1.3,0.9,2v4.4c0,1.7-1,2.5-2.9,2.5
	c-2.8,0-2.8-2.1-2.8-2.8V140.8z M184,145.2c0,0.2,0,1,0.8,1c0.8,0,0.8-0.7,0.8-1v-4.6c0-0.6-0.1-1.1-0.7-1.1c-0.8,0-0.8,0.7-0.8,1.1
	L184,145.2L184,145.2z"/>
<path class="st4" d="M188.7,144.2h2c0,1.3,0,1.9,0.9,1.9c0.4,0,0.8-0.2,0.8-1c0-0.6,0-0.8-0.7-1.2l-1.8-1.2
	c-0.1-0.1-0.4-0.4-0.6-0.6c-0.2-0.2-0.6-0.7-0.6-1.7c0-1.9,1.2-2.3,2.8-2.3c1.9,0,2.5,0.8,2.5,2.1v1h-1.9c0-1,0-1.7-0.8-1.7
	c-0.3,0-0.8,0-0.8,0.8c0,0.2,0,0.6,0.6,1l2,1.3c0.1,0.1,0.6,0.4,0.6,0.6c0.2,0.3,0.3,0.9,0.3,1.4c0,1.1,0,2.8-2.8,2.8
	c-2.3,0-2.8-1.1-2.8-2.4L188.7,144.2L188.7,144.2z"/>
<path class="st4" d="M199.5,138.4h2.1l1.2,5.9l0.9-5.9h2.1l-2.1,9.7c-0.4,1.9-0.9,2.5-2.5,2.5c-0.4,0-0.6,0-1.4-0.1l0.3-1.7
	c0.4,0.1,0.8,0.1,0.9,0.1c0.9,0,1-1.4,1-1.4L199.5,138.4z"/>
<path class="st4" d="M210.9,141.1c0-1.3,0-1.8,0.6-2.3c0.4-0.4,1.2-0.7,2.3-0.7c0.4,0,1.1,0,1.7,0.3c1,0.4,1.1,1.2,1.1,1.7v5.1
	c0,1.3,0,1.9,0.4,2.2h-2.2c-0.1-0.2-0.2-0.4-0.2-0.8c-0.4,0.6-0.9,1-1.9,1c-1.8,0-1.8-1.7-1.8-2.5c0-1.7,0-2.1,1.4-2.8l2.2-1.1
	c0-0.9,0-0.9,0-1c0-0.2-0.1-0.6-0.8-0.6c-0.8,0-0.8,0.4-0.8,1.5h-2.1L210.9,141.1L210.9,141.1z M214.3,142.9l-1,0.7
	c-0.4,0.3-0.4,0.6-0.4,1.5c0,0.7,0.1,1,0.6,1c0.2,0,0.6-0.1,1-0.6v-2.7H214.3z"/>
<path class="st4" d="M221.7,134.9h2.1v12.6h-2.1v-0.9c-0.3,0.4-0.8,1.1-1.8,1.1c-0.9,0-1.5-0.4-1.8-1c-0.2-0.4-0.2-1-0.2-2v-4.2
	c0-0.7,0.1-1,0.2-1.3c0.4-0.8,1.2-1.1,1.8-1.1c0.9,0,1.4,0.6,1.9,0.9L221.7,134.9L221.7,134.9z M220.1,144.8c0,0.4,0,1,0.8,1
	c0.9,0,0.9-0.8,0.9-1.1v-3.9c0-0.3,0-1-0.9-1c-0.8,0-0.8,0.7-0.8,1.1V144.8z"/>
<path class="st4" d="M225.4,140.8c0-1.1,0.3-2.7,2.9-2.7c0.7,0,1.4,0.1,1.9,0.6c0.8,0.6,0.9,1.3,0.9,2v4.4c0,1.7-1,2.5-2.9,2.5
	c-2.8,0-2.8-2.1-2.8-2.8V140.8z M227.5,145.2c0,0.2,0,1,0.8,1c0.8,0,0.8-0.7,0.8-1v-4.6c0-0.6-0.1-1.1-0.7-1.1
	c-0.8,0-0.8,0.7-0.8,1.1L227.5,145.2L227.5,145.2z"/>
<path class="st4" d="M232.4,134.9h2.1v12.6h-2.1V134.9z"/>
<path class="st4" d="M238.2,144.9c0,0.4,0,1.1,0.8,1.1c0.2,0,0.4-0.1,0.6-0.2c0.1-0.2,0.2-0.3,0.2-1.2h2.1v0.8c0,2-1.4,2.4-2.8,2.4
	c-2.1,0-2.9-1.1-2.9-2.9v-4c0-1.1,0.4-1.8,1-2.2c0.6-0.3,1.3-0.6,1.9-0.6c0.9,0,1.7,0.2,2.2,0.8c0.6,0.6,0.7,1.3,0.7,1.8v2.5h-3.7
	L238.2,144.9L238.2,144.9z M238.2,141.9h1.5v-1.1c0-0.2,0-0.9-0.8-0.9c-0.6,0-0.8,0.3-0.8,0.9V141.9z"/>
<path class="st4" d="M243,144.2h2c0,1.3,0,1.9,0.9,1.9c0.4,0,0.8-0.2,0.8-1c0-0.6,0-0.8-0.7-1.2l-1.8-1.2c-0.1-0.1-0.4-0.4-0.6-0.6
	c-0.2-0.2-0.6-0.7-0.6-1.7c0-1.9,1.2-2.3,2.8-2.3c1.9,0,2.5,0.8,2.5,2.1v1h-1.9c0-1,0-1.7-0.8-1.7c-0.3,0-0.8,0-0.8,0.8
	c0,0.2,0,0.6,0.6,1l2,1.3c0.1,0.1,0.6,0.4,0.6,0.6c0.2,0.3,0.3,0.9,0.3,1.4c0,1.1,0,2.8-2.8,2.8c-2.3,0-2.8-1.1-2.8-2.4L243,144.2
	L243,144.2z"/>
<path class="st4" d="M253.6,141.8v-1.1c0-0.3,0-1-0.8-1c-0.9,0-0.9,0.8-0.9,1.2v4c0,0.4,0,1.2,0.9,1.2c0.8,0,0.8-0.8,0.8-1.2v-1h2.1
	v1c0,1.9-1,2.8-2.9,2.8c-0.4,0-1.4,0-2.1-0.7c-0.7-0.6-0.8-1.3-0.8-2v-4.1c0-0.7,0.1-1.3,0.6-1.8c0.6-0.8,1.5-1,2.4-1
	c0.8,0,1.7,0.2,2.1,0.7c0.6,0.4,0.8,1,0.8,1.9v1.1L253.6,141.8L253.6,141.8z"/>
<path class="st4" d="M259,144.9c0,0.4,0,1.1,0.8,1.1c0.2,0,0.4-0.1,0.6-0.2c0.1-0.2,0.2-0.3,0.2-1.2h2.1v0.8c0,2-1.4,2.4-2.8,2.4
	c-2.1,0-2.9-1.1-2.9-2.9v-4c0-1.1,0.4-1.8,1-2.2c0.6-0.3,1.3-0.6,1.9-0.6c0.9,0,1.7,0.2,2.2,0.8s0.7,1.3,0.7,1.8v2.5H259L259,144.9
	L259,144.9z M259,141.9h1.5v-1.1c0-0.2,0-0.9-0.8-0.9c-0.6,0-0.8,0.3-0.8,0.9V141.9L259,141.9z"/>
<path class="st4" d="M264,138.4h2.1v0.7c0.4-0.4,0.9-0.9,1.9-0.9c0.7,0,1.1,0.2,1.4,0.6c0.4,0.4,0.4,1,0.4,1.5v7.1h-2.1v-6.6
	c0-0.6,0-1.1-0.8-1.1c-0.9,0-0.9,0.8-0.9,1.2v6.5H264V138.4L264,138.4z"/>
<path class="st4" d="M272,135.1h2.1v3.3h1.2v1.4H274v5.2c0,0.6,0.1,1,1,1c0.1,0,0.2,0,0.3,0v1.5c-0.1,0-0.4,0.1-1.1,0.1
	c-2,0-2.3-0.8-2.3-1.9v-6h-1.1v-1.4h1.1v-3.3H272z"/>
<path class="st4" d="M278.3,144.9c0,0.4,0,1.1,0.8,1.1c0.2,0,0.4-0.1,0.6-0.2c0.1-0.2,0.2-0.3,0.2-1.2h2.1v0.8c0,2-1.4,2.4-2.8,2.4
	c-2.1,0-2.9-1.1-2.9-2.9v-4c0-1.1,0.4-1.8,1-2.2c0.6-0.3,1.3-0.6,1.9-0.6c0.9,0,1.7,0.2,2.2,0.8c0.6,0.6,0.7,1.3,0.7,1.8v2.5h-3.7
	v1.7L278.3,144.9L278.3,144.9z M278.3,141.9h1.5v-1.1c0-0.2,0-0.9-0.8-0.9c-0.6,0-0.8,0.3-0.8,0.9L278.3,141.9L278.3,141.9z"/>
<path class="st4" d="M283,144.2h2c0,1.3,0,1.9,0.9,1.9c0.4,0,0.8-0.2,0.8-1c0-0.6,0-0.8-0.7-1.2l-1.8-1.2c-0.1-0.1-0.4-0.4-0.6-0.6
	c-0.2-0.2-0.6-0.7-0.6-1.7c0-1.9,1.2-2.3,2.8-2.3c1.9,0,2.5,0.8,2.5,2.1v1h-1.8c0-1,0-1.7-0.8-1.7c-0.3,0-0.8,0-0.8,0.8
	c0,0.2,0,0.6,0.6,1l2,1.3c0.1,0.1,0.6,0.4,0.6,0.6c0.2,0.3,0.3,0.9,0.3,1.4c0,1.1,0,2.8-2.8,2.8c-2.3,0-2.8-1.1-2.8-2.4L283,144.2
	L283,144.2z"/>
<path class="st4" d="M298.2,134.9h2.1v12.6h-2.1v-0.9c-0.3,0.4-0.8,1.1-1.8,1.1c-0.9,0-1.5-0.4-1.8-1c-0.2-0.4-0.2-1-0.2-2v-4.2
	c0-0.7,0.1-1,0.2-1.3c0.4-0.8,1.2-1.1,1.8-1.1c0.9,0,1.4,0.6,1.9,0.9v-4.1C298.3,134.9,298.2,134.9,298.2,134.9z M296.4,144.8
	c0,0.4,0,1,0.8,1c0.9,0,0.9-0.8,0.9-1.1v-3.9c0-0.3,0-1-0.9-1c-0.8,0-0.8,0.7-0.8,1.1V144.8z"/>
<path class="st4" d="M303.9,144.9c0,0.4,0,1.1,0.8,1.1c0.2,0,0.4-0.1,0.6-0.2c0.1-0.2,0.2-0.3,0.2-1.2h2.1v0.8c0,2-1.4,2.4-2.8,2.4
	c-2.1,0-2.9-1.1-2.9-2.9v-4c0-1.1,0.4-1.8,1-2.2c0.6-0.3,1.3-0.6,1.9-0.6c0.9,0,1.7,0.2,2.2,0.8c0.6,0.6,0.7,1.3,0.7,1.8v2.5H304
	v1.7L303.9,144.9L303.9,144.9z M304,141.9h1.5v-1.1c0-0.2,0-0.9-0.8-0.9c-0.6,0-0.8,0.3-0.8,0.9L304,141.9L304,141.9z"/>
<path class="st4" d="M313.5,137.5c0.2,0,0.8-0.2,1.4-0.8c0.4-0.3,0.7-0.7,1-1.1h1.4v11.8h-2.1v-9.1c-0.2,0.2-0.7,0.6-1.8,0.8
	L313.5,137.5L313.5,137.5z"/>
<path class="st4" d="M320.6,135.6h5.5v1.8h-3.9v2.4c0.4-0.3,0.9-0.7,1.8-0.7c0.8,0,1.3,0.3,1.5,0.6c0.7,0.6,0.7,1.3,0.7,2v3
	c0,1-0.1,2.9-3,2.9c-0.4,0-1.5-0.1-2.2-0.6c-0.8-0.6-0.9-1.5-0.9-2v-1.2h2v1.2c0,0.2,0,1,0.9,1c0.3,0,1-0.1,1-1.1V142
	c0-0.6,0-1.3-0.9-1.3c-0.7,0-1,0.4-1.1,1.2h-1.7L320.6,135.6z"/>
<path class="st4" d="M332,141.1c0-1.3,0-1.8,0.6-2.3c0.4-0.4,1.2-0.7,2.3-0.7c0.4,0,1.1,0,1.7,0.3c1,0.4,1.1,1.2,1.1,1.7v5.1
	c0,1.3,0,1.9,0.4,2.2h-2.2c-0.1-0.2-0.2-0.4-0.2-0.8c-0.4,0.6-0.9,1-1.9,1c-1.8,0-1.8-1.7-1.8-2.5c0-1.7,0-2.1,1.4-2.8l2.2-1.1
	c0-0.9,0-0.9,0-1c0-0.2-0.1-0.6-0.8-0.6c-0.8,0-0.8,0.4-0.8,1.5H332L332,141.1L332,141.1z M335.3,142.9l-1,0.7
	c-0.4,0.3-0.4,0.6-0.4,1.5c0,0.7,0.1,1,0.6,1c0.2,0,0.6-0.1,1-0.6v-2.7H335.3z"/>
<path class="st4" d="M339.1,138.4h2.1v0.7c0.4-0.4,0.9-0.9,1.9-0.9c0.7,0,1.1,0.2,1.4,0.6c0.4,0.4,0.4,1,0.4,1.5v7.1h-2.1v-6.6
	c0-0.6,0-1.1-0.8-1.1c-0.9,0-0.9,0.8-0.9,1.2v6.5h-2.1V138.4z M339.1,137.3c0-0.6,0-1.2,0.6-1.8c0.2-0.2,0.7-0.6,1.2-0.6
	c0.4,0,0.7,0.1,1.5,0.4c0.7,0.2,0.7,0.3,0.9,0.3c0.4,0,0.6-0.4,0.6-0.8h1.1c0,0.8-0.1,2.2-1.5,2.2c-0.4,0-0.8-0.1-1.7-0.6
	c-0.6-0.2-0.7-0.3-0.9-0.3c-0.6,0-0.7,0.4-0.8,0.8h-1V137.3z"/>
<path class="st4" d="M346.4,140.8c0-1.1,0.3-2.7,2.9-2.7c0.7,0,1.4,0.1,1.9,0.6c0.8,0.6,0.9,1.3,0.9,2v4.4c0,1.7-1,2.5-2.9,2.5
	c-2.8,0-2.8-2.1-2.8-2.8V140.8z M348.5,145.2c0,0.2,0,1,0.8,1s0.8-0.7,0.8-1v-4.6c0-0.6-0.1-1.1-0.7-1.1c-0.8,0-0.8,0.7-0.8,1.1v4.6
	H348.5z"/>
<path class="st4" d="M353.2,144.2h2c0,1.3,0,1.9,0.9,1.9c0.4,0,0.8-0.2,0.8-1c0-0.6,0-0.8-0.7-1.2l-1.8-1.2
	c-0.1-0.1-0.4-0.4-0.6-0.6c-0.2-0.2-0.6-0.7-0.6-1.7c0-1.9,1.2-2.3,2.8-2.3c1.9,0,2.5,0.8,2.5,2.1v1h-1.9c0-1,0-1.7-0.8-1.7
	c-0.3,0-0.8,0-0.8,0.8c0,0.2,0,0.6,0.6,1l2,1.3c0.1,0.1,0.6,0.4,0.6,0.6c0.2,0.3,0.3,0.9,0.3,1.4c0,1.1,0,2.8-2.8,2.8
	c-2.3,0-2.8-1.1-2.8-2.4v-0.8H353.2z"/>
<path class="st4" d="M360.8,138.4h2.1v2.3h-2.1V138.4z M360.8,145.1h2.1v2.3h-2.1V145.1z"/>
<path class="st4" d="M157,155.3v8.5c0,1.5,0,2.2-0.3,2.8c-0.6,1.3-2.1,1.4-2.8,1.4c-1.3,0-2.3-0.4-2.8-1.3c-0.2-0.6-0.3-0.9-0.3-2.8
	v-8.6h1.5v9.2c0,1.1,0,2.2,1.5,2.2c1.3,0,1.4-1,1.4-1.5s0-0.6,0-1.5v-8.3H157z"/>
<path class="st4" d="M163.7,167.9h-1.4v-5.8c0-1.3,0-2.1-1-2.1c-1.2,0-1.2,1.2-1.2,2.2v5.8h-1.4v-8.9h1.3v0.8c0.2-0.3,0.8-1,1.9-1
	c1.9,0,1.9,1.5,1.9,2.8L163.7,167.9L163.7,167.9z"/>
<path class="st4" d="M170,166c0,1.4,0,1.5,0.4,1.9h-1.8v-1.1c-0.2,0.4-0.7,1.2-1.9,1.2c-0.4,0-0.8-0.1-1.1-0.2
	c-0.9-0.6-0.9-1.3-0.9-2c0-1.4,0.6-1.9,1.5-2.5c1.3-0.9,1.5-1,2.2-1.7c0-0.8,0-1.5-1.1-1.5c-1.1,0-1.1,0.8-1.1,1.3
	c0,0.2,0,0.4,0,0.7H165c0-0.3,0-1.3,0.1-1.8c0.4-1.3,2-1.3,2.3-1.3c0.7,0,1.3,0.1,1.8,0.7c0.6,0.6,0.6,1,0.6,2.2v4.2L170,166
	L170,166z M168.6,162.8c-0.4,0.4-0.4,0.4-1.2,1c-0.7,0.6-1.1,0.9-1.1,1.9c0,0.4,0,1.3,1,1.3c0.2,0,0.6-0.1,0.8-0.2
	c0.6-0.4,0.6-1,0.6-1.7L168.6,162.8L168.6,162.8z"/>
<path class="st4" d="M178.8,160.1h-1.3v5.6c0,0.6,0,1.1,0.8,1.1c0.2,0,0.3,0,0.6-0.1v1.1c-0.2,0-0.4,0.1-0.8,0.1
	c-1.2,0-1.7-0.4-1.8-0.9c-0.2-0.4-0.2-0.6-0.2-2.2v-5h-1.1v-1.1h1.1v-2.4h1.4v2.4h1.3V160.1z"/>
<path class="st4" d="M184.6,166c0,1.4,0,1.5,0.4,1.9h-1.8v-1.1c-0.2,0.4-0.7,1.2-1.9,1.2c-0.4,0-0.8-0.1-1.1-0.2
	c-0.9-0.6-0.9-1.3-0.9-2c0-1.4,0.6-1.9,1.5-2.5c1.3-0.9,1.5-1,2.2-1.7c0-0.8,0-1.5-1.1-1.5c-1.1,0-1.1,0.8-1.1,1.3
	c0,0.2,0,0.4,0,0.7h-1.3c0-0.3,0-1.3,0.1-1.8c0.4-1.3,2-1.3,2.3-1.3c0.7,0,1.3,0.1,1.8,0.7c0.6,0.6,0.6,1,0.6,2.2v4.2L184.6,166
	L184.6,166z M183.2,162.8c-0.4,0.4-0.4,0.4-1.2,1c-0.7,0.6-1.1,0.9-1.1,1.9c0,0.4,0,1.3,1,1.3c0.2,0,0.6-0.1,0.8-0.2
	c0.6-0.4,0.6-1,0.6-1.7L183.2,162.8L183.2,162.8z"/>
<path class="st4" d="M187.5,167.9h-1.3v-12.6h1.4v4.4c0.2-0.3,0.8-0.9,1.8-0.9s1.5,0.6,1.8,1c0.3,0.7,0.3,1.9,0.3,2.7
	c0,1,0,3.1-0.1,4c-0.2,1.3-1.3,1.7-2,1.7c-1,0-1.5-0.6-1.8-1v0.8H187.5z M187.6,164.5c0,0.9,0,1,0,1.3c0.1,1.1,1,1.2,1.3,1.2
	c0.9,0,1-0.8,1-1.1c0-0.6,0-1.4,0-2.4c0-2.4,0-3.5-1.1-3.5c-0.4,0-1,0.2-1.2,1c-0.1,0.2-0.1,0.4-0.1,1.5v2H187.6z"/>
<path class="st4" d="M194.4,167.9h-1.4v-12.6h1.4V167.9z"/>
<path class="st4" d="M200.8,165.2c0,0.6,0,1-0.1,1.5c-0.6,1.4-1.9,1.4-2.3,1.4c-0.6,0-1.8-0.1-2.3-1.3c-0.1-0.4-0.2-0.6-0.2-4.2
	c0-1.9,0.1-3.7,2.4-3.7c0.6,0,2.2,0,2.5,2c0.1,0.4,0.1,0.7,0.1,3h-3.5c0,0.7,0,1.5,0,1.9s0.1,1.2,1.1,1.2s1.1-0.9,1.1-1.8
	L200.8,165.2L200.8,165.2z M199.5,162.6v-1.1c0-0.4,0-1.5-1.1-1.5c-0.8,0-1,0.4-1,0.8c-0.1,0.3-0.1,0.7-0.1,1.9H199.5z"/>
<path class="st4" d="M205.3,160.1H204v5.6c0,0.6,0,1.1,0.8,1.1c0.2,0,0.3,0,0.6-0.1v1.1c-0.2,0-0.4,0.1-0.8,0.1
	c-1.2,0-1.7-0.4-1.8-0.9c-0.2-0.4-0.2-0.6-0.2-2.2v-5h-1.1v-1.1h1.1v-2.4h1.4v2.4h1.3V160.1z"/>
<path class="st4" d="M211.2,166c0,1.4,0,1.5,0.4,1.9h-1.8v-1.1c-0.2,0.4-0.7,1.2-1.9,1.2c-0.4,0-0.8-0.1-1.1-0.2
	c-0.9-0.6-0.9-1.3-0.9-2c0-1.4,0.6-1.9,1.5-2.5c1.3-0.9,1.5-1,2.2-1.7c0-0.8,0-1.5-1.1-1.5c-1.1,0-1.1,0.8-1.1,1.3
	c0,0.2,0,0.4,0,0.7h-1.3c0-0.3,0-1.3,0.1-1.8c0.4-1.3,2-1.3,2.3-1.3c0.7,0,1.3,0.1,1.8,0.7c0.6,0.6,0.6,1,0.6,2.2v4.2L211.2,166
	L211.2,166z M209.8,162.8c-0.4,0.4-0.4,0.4-1.2,1c-0.7,0.6-1.1,0.9-1.1,1.9c0,0.4,0,1.3,1,1.3c0.2,0,0.6-0.1,0.8-0.2
	c0.6-0.4,0.6-1,0.6-1.7L209.8,162.8L209.8,162.8z"/>
<path class="st4" d="M221.9,167.9h-1.3v-1c-0.2,0.3-0.7,1.1-1.9,1.1c-0.2,0-0.3,0-0.6-0.1c-1.4-0.3-1.5-1.9-1.5-4.5
	c0-0.9,0-2.5,0.2-3.2c0.2-0.9,0.9-1.4,1.9-1.4c1,0,1.4,0.6,1.7,0.9v-4.4h1.4L221.9,167.9L221.9,167.9z M219.3,160
	c-1.1,0-1.1,1.1-1.1,1.8c0,1,0,1,0,2.4c0,0.4,0,0.9,0,1.4c0,0.3,0.1,1.3,1.1,1.3c1.2,0,1.2-1.2,1.2-3.4
	C220.6,161.4,220.6,160,219.3,160z"/>
<path class="st4" d="M228.4,165.2c0,0.6,0,1-0.1,1.5c-0.6,1.4-1.9,1.4-2.3,1.4c-0.6,0-1.8-0.1-2.3-1.3c-0.1-0.4-0.2-0.6-0.2-4.2
	c0-1.9,0.1-3.7,2.4-3.7c0.6,0,2.2,0,2.5,2c0.1,0.4,0.1,0.7,0.1,3h-3.5c0,0.7,0,1.5,0,1.9s0.1,1.2,1.1,1.2s1.1-0.9,1.1-1.8
	L228.4,165.2L228.4,165.2z M227,162.6v-1.1c0-0.4,0-1.5-1.1-1.5c-0.8,0-1,0.4-1,0.8c-0.1,0.3-0.1,0.7-0.1,1.9H227z"/>
<path class="st4" d="M237.4,167.9h-1.5v-9.9h-2.1v-1.2c1,0,2.3,0,2.3-1.5h1.3L237.4,167.9L237.4,167.9z"/>
<path class="st4" d="M244.7,165.7c-0.1,0.6-0.2,2.4-2.7,2.4c-1.1,0-2.3-0.3-2.7-1.7c-0.1-0.6-0.2-1-0.2-4.9c0-3.9,0-4.2,0.2-4.9
	c0.6-1.4,2.1-1.5,2.5-1.5c0.6,0,2,0.1,2.5,1.5c0.3,0.7,0.3,1,0.3,4.9C244.8,162.4,244.8,165.1,244.7,165.7z M243.3,159.6
	c0-2.1,0-3-1.2-3s-1.2,1-1.3,1.8c0,1,0,1.2,0,4c0,0.7,0,2.1,0,2.5c0,0.9,0,1.8,1.2,1.8s1.2-0.9,1.2-1.9c0-0.3,0-1.1,0-3.1
	L243.3,159.6L243.3,159.6z"/>
<path class="st4" d="M259,167.9h-1.4v-5.9c0-0.8,0-1.1-0.1-1.4c-0.1-0.4-0.4-0.8-1-0.8c-1.1,0-1.1,1.2-1.1,2.1v5.9h-1.4V162
	c0-1.2,0-2.1-1.1-2.1s-1.1,1.1-1.1,2.1v5.8h-1.5v-8.9h1.3v0.9c0.2-0.3,0.8-1,1.9-1c1.1,0,1.5,0.7,1.8,1c0.3-0.3,0.8-1,1.9-1
	c0.2,0,0.9,0,1.4,0.6c0.6,0.6,0.6,1.2,0.6,2.7V167.9z"/>
<path class="st4" d="M265.8,159.1v8.4c0,1.1,0,1.5-0.1,2c-0.4,1.2-1.9,1.4-2.7,1.4c-1,0-2.4-0.4-2.4-2.3h1.3c0,0.3,0,1.1,1.2,1.1
	c1.2,0,1.2-1,1.2-1.8v-1c-0.4,0.7-1.1,1-1.8,1s-1.4-0.2-1.8-1.2c-0.2-0.7-0.2-1.3-0.2-3.5c0-1.5,0-2.2,0.1-2.8
	c0.1-0.3,0.4-1.7,2-1.7c1.1,0,1.5,0.7,1.8,1V159h1.3L265.8,159.1L265.8,159.1z M264.3,161.4c0-0.9-0.4-1.4-1.2-1.4
	c-1.2,0-1.2,1.3-1.2,2.7c0,0.9,0,2.4,0,3.1s0.3,1.2,1.1,1.2c0.7,0,1.1-0.4,1.2-1.1c0.1-0.4,0.1-1.7,0.1-2.2
	C264.3,163.6,264.3,161.6,264.3,161.4z"/>
<path class="st4" d="M268.8,167.9h-1.5v-2.1h1.5V167.9z"/>
<path class="st4" d="M150.9,175.8h4.6c2.1,0,2.1,1.7,2.1,2.9v1.7c0,2-0.2,2.9-2.5,2.9h-2v5.2h-2.3v-12.6L150.9,175.8L150.9,175.8z
	 M153.3,181.3h1.1c0.9,0,1-0.1,1-1.1v-1.3c0-0.9,0-1.3-1-1.3h-1.1V181.3z"/>
<path class="st4" d="M158.7,182.1c0-1.3,0-1.8,0.6-2.3c0.4-0.4,1.2-0.7,2.3-0.7c0.4,0,1.1,0,1.7,0.3c1,0.4,1.1,1.2,1.1,1.7v5.1
	c0,1.3,0,1.9,0.4,2.2h-2.2c-0.1-0.2-0.2-0.4-0.2-0.8c-0.4,0.6-0.9,1-1.9,1c-1.8,0-1.8-1.7-1.8-2.5c0-1.7,0-2.1,1.4-2.8l2.2-1.1
	c0-0.9,0-0.9,0-1c0-0.2-0.1-0.6-0.8-0.6c-0.8,0-0.8,0.4-0.8,1.5L158.7,182.1L158.7,182.1z M162.2,183.8l-1,0.7
	c-0.4,0.3-0.4,0.6-0.4,1.5c0,0.7,0.1,1,0.6,1c0.2,0,0.6-0.1,1-0.6v-2.7H162.2z"/>
<path class="st4" d="M169.5,182.8v-1.1c0-0.3,0-1-0.8-1c-0.9,0-0.9,0.8-0.9,1.2v4c0,0.4,0,1.2,0.9,1.2c0.8,0,0.8-0.8,0.8-1.2v-1h2.1
	v1c0,1.9-1,2.8-2.9,2.8c-0.4,0-1.4,0-2.1-0.7c-0.7-0.6-0.8-1.3-0.8-2v-4.1c0-0.7,0.1-1.3,0.6-1.8c0.6-0.8,1.5-1,2.4-1
	c0.8,0,1.7,0.2,2.1,0.7c0.6,0.4,0.8,1,0.8,1.9v1.1H169.5z"/>
<path class="st4" d="M172.9,175.8h2.1v2.1h-2.1V175.8z M172.9,179.2h2.1v9.1h-2.1V179.2z"/>
<path class="st4" d="M178.6,185.8c0,0.4,0,1.1,0.8,1.1c0.2,0,0.4-0.1,0.6-0.2c0.1-0.2,0.2-0.3,0.2-1.2h2.1v0.8c0,2-1.4,2.4-2.8,2.4
	c-2.1,0-2.9-1.1-2.9-2.9v-3.9c0-1.1,0.4-1.8,1-2.2c0.6-0.3,1.3-0.6,1.9-0.6c0.9,0,1.7,0.2,2.2,0.8c0.6,0.6,0.7,1.3,0.7,1.8v2.5h-3.7
	L178.6,185.8L178.6,185.8z M178.6,182.8h1.5v-1.1c0-0.2,0-0.9-0.8-0.9c-0.6,0-0.8,0.3-0.8,0.9V182.8z"/>
<path class="st4" d="M183.6,179.2h2.1v0.7c0.4-0.4,0.9-0.9,1.9-0.9c0.7,0,1.1,0.2,1.4,0.6c0.4,0.4,0.4,1,0.4,1.5v7.1h-2.1v-6.6
	c0-0.6,0-1.1-0.8-1.1c-0.9,0-0.9,0.8-0.9,1.2v6.5h-2.1V179.2z"/>
<path class="st4" d="M191.6,176h2.1v3.3h1.2v1.4h-1.2v5.2c0,0.6,0.1,1,1,1c0.1,0,0.2,0,0.3,0v1.5c-0.1,0-0.4,0.1-1.1,0.1
	c-2,0-2.3-0.8-2.3-1.9v-5.9h-1.1v-1.4h1.1L191.6,176L191.6,176z"/>
<path class="st4" d="M197.9,185.8c0,0.4,0,1.1,0.8,1.1c0.2,0,0.4-0.1,0.6-0.2c0.1-0.2,0.2-0.3,0.2-1.2h2.1v0.8c0,2-1.4,2.4-2.8,2.4
	c-2.1,0-2.9-1.1-2.9-2.9v-3.9c0-1.1,0.4-1.8,1-2.2c0.6-0.3,1.3-0.6,1.9-0.6c0.9,0,1.7,0.2,2.2,0.8s0.7,1.3,0.7,1.8v2.5H198
	L197.9,185.8L197.9,185.8z M197.9,182.8h1.5v-1.1c0-0.2,0-0.9-0.8-0.9c-0.6,0-0.8,0.3-0.8,0.9V182.8z"/>
<path class="st4" d="M202.7,185.2h2c0,1.3,0,1.9,0.9,1.9c0.4,0,0.8-0.2,0.8-1c0-0.6,0-0.8-0.7-1.2l-1.8-1.2
	c-0.1-0.1-0.4-0.4-0.6-0.6c-0.2-0.2-0.6-0.7-0.6-1.7c0-1.9,1.2-2.3,2.8-2.3c1.9,0,2.5,0.8,2.5,2.1v1h-1.9c0-1,0-1.7-0.8-1.7
	c-0.3,0-0.8,0-0.8,0.8c0,0.2,0,0.6,0.6,1l2,1.3c0.1,0.1,0.6,0.4,0.6,0.6c0.2,0.3,0.3,0.9,0.3,1.4c0,1.1,0,2.8-2.8,2.8
	c-2.3,0-2.8-1.1-2.8-2.4L202.7,185.2L202.7,185.2z"/>
<path class="st4" d="M214.2,175.8h4.6c2.1,0,2.1,1.7,2.1,2.9v1.7c0,2-0.2,2.9-2.5,2.9h-2v5.2h-2.3v-12.6L214.2,175.8L214.2,175.8z
	 M216.6,181.3h1.1c0.9,0,1-0.1,1-1.1v-1.3c0-0.9,0-1.3-1-1.3h-1.1V181.3z"/>
<path class="st4" d="M224.1,185.8c0,0.4,0,1.1,0.8,1.1c0.2,0,0.4-0.1,0.6-0.2c0.1-0.2,0.2-0.3,0.2-1.2h2.1v0.8c0,2-1.4,2.4-2.8,2.4
	c-2.1,0-2.9-1.1-2.9-2.9v-3.9c0-1.1,0.4-1.8,1-2.2c0.6-0.3,1.3-0.6,1.9-0.6c0.9,0,1.7,0.2,2.2,0.8s0.7,1.3,0.7,1.8v2.5h-3.7
	L224.1,185.8L224.1,185.8z M224.1,182.8h1.5v-1.1c0-0.2,0-0.9-0.8-0.9c-0.6,0-0.8,0.3-0.8,0.9V182.8z"/>
<path class="st4" d="M232.9,175.8h2.1v12.6h-2.1v-0.9c-0.3,0.4-0.8,1.1-1.8,1.1c-0.9,0-1.5-0.4-1.8-1c-0.2-0.4-0.2-1-0.2-2v-4.2
	c0-0.7,0.1-1,0.2-1.3c0.4-0.8,1.2-1.1,1.8-1.1c0.9,0,1.4,0.6,1.9,0.9L232.9,175.8L232.9,175.8z M231.2,185.8c0,0.4,0,1,0.8,1
	c0.9,0,0.9-0.8,0.9-1.1v-3.9c0-0.3,0-1-0.9-1c-0.8,0-0.8,0.7-0.8,1.1V185.8z"/>
<path class="st4" d="M236.7,175.8h2.1v2.1h-2.1V175.8z M236.7,179.2h2.1v9.1h-2.1V179.2z"/>
<path class="st4" d="M240.3,182.1c0-1.3,0-1.8,0.6-2.3c0.4-0.4,1.2-0.7,2.3-0.7c0.4,0,1.1,0,1.7,0.3c1,0.4,1.1,1.2,1.1,1.7v5.1
	c0,1.3,0,1.9,0.4,2.2h-2.2c-0.1-0.2-0.2-0.4-0.2-0.8c-0.4,0.6-0.9,1-1.9,1c-1.8,0-1.8-1.7-1.8-2.5c0-1.7,0-2.1,1.4-2.8l2.2-1.1
	c0-0.9,0-0.9,0-1c0-0.2-0.1-0.6-0.8-0.6c-0.8,0-0.8,0.4-0.8,1.5L240.3,182.1L240.3,182.1z M243.1,175.5h2.8c-1,1-1.2,1.2-2.2,2.4
	H242L243.1,175.5z M243.7,183.8l-1,0.7c-0.4,0.3-0.4,0.6-0.4,1.5c0,0.7,0.1,1,0.6,1c0.2,0,0.6-0.1,1-0.6v-2.7H243.7z"/>
<path class="st4" d="M247.8,176h2.1v3.3h1.2v1.4h-1.3v5.2c0,0.6,0.1,1,1,1c0.1,0,0.2,0,0.3,0v1.5c-0.1,0-0.4,0.1-1.1,0.1
	c-2,0-2.3-0.8-2.3-1.9v-5.9h-1.1v-1.4h1.1V176L247.8,176L247.8,176z"/>
<path class="st4" d="M252.2,179.2h2.1v1.1c0.3-0.7,0.9-1.3,2.1-1.3v2.1c-0.1,0-0.3-0.1-0.7-0.1c-1.3,0-1.3,1.2-1.3,2v5.3h-2.1
	L252.2,179.2L252.2,179.2z"/>
<path class="st4" d="M257.2,175.8h2.1v2.1h-2.1V175.8z M257.2,179.2h2.1v9.1h-2.1V179.2z"/>
<path class="st4" d="M264.6,182.8v-1.1c0-0.3,0-1-0.8-1c-0.9,0-0.9,0.8-0.9,1.2v4c0,0.4,0,1.2,0.9,1.2c0.8,0,0.8-0.8,0.8-1.2v-1h2.1
	v1c0,1.9-1,2.8-2.9,2.8c-0.4,0-1.4,0-2.1-0.7c-0.7-0.6-0.8-1.3-0.8-2v-4.1c0-0.7,0.1-1.3,0.6-1.8c0.6-0.8,1.5-1,2.4-1
	c0.8,0,1.7,0.2,2.1,0.7c0.6,0.4,0.8,1,0.8,1.9v1.1H264.6z"/>
<path class="st4" d="M267.9,181.8c0-1.1,0.3-2.7,2.9-2.7c0.7,0,1.4,0.1,1.9,0.6c0.8,0.6,0.9,1.3,0.9,2v4.4c0,1.7-1,2.5-2.9,2.5
	c-2.8,0-2.8-2.1-2.8-2.8L267.9,181.8L267.9,181.8z M270,186.2c0,0.2,0,1,0.8,1s0.8-0.7,0.8-1v-4.6c0-0.6-0.1-1.1-0.7-1.1
	c-0.8,0-0.8,0.7-0.8,1.1v4.6H270z"/>
<path class="st4" d="M274.7,185.2h2c0,1.3,0,1.9,0.9,1.9c0.4,0,0.8-0.2,0.8-1c0-0.6,0-0.8-0.7-1.2l-1.8-1.2
	c-0.1-0.1-0.4-0.4-0.6-0.6c-0.2-0.2-0.6-0.7-0.6-1.7c0-1.9,1.2-2.3,2.8-2.3c1.9,0,2.5,0.8,2.5,2.1v1h-1.9c0-1,0-1.7-0.8-1.7
	c-0.3,0-0.8,0-0.8,0.8c0,0.2,0,0.6,0.6,1l2,1.3c0.1,0.1,0.6,0.4,0.6,0.6c0.2,0.3,0.3,0.9,0.3,1.4c0,1.1,0,2.8-2.8,2.8
	c-2.3,0-2.8-1.1-2.8-2.4v-0.8H274.7z"/>
<path class="st4" d="M289.9,175.8h2.1v12.6h-2.1v-0.9c-0.3,0.4-0.8,1.1-1.8,1.1c-0.9,0-1.5-0.4-1.8-1c-0.2-0.4-0.2-1-0.2-2v-4.2
	c0-0.7,0.1-1,0.2-1.3c0.4-0.8,1.2-1.1,1.8-1.1c0.9,0,1.4,0.6,1.9,0.9v-4.1H289.9z M288.2,185.8c0,0.4,0,1,0.8,1
	c0.9,0,0.9-0.8,0.9-1.1v-3.9c0-0.3,0-1-0.9-1c-0.8,0-0.8,0.7-0.8,1.1V185.8z"/>
<path class="st4" d="M295.7,185.8c0,0.4,0,1.1,0.8,1.1c0.2,0,0.4-0.1,0.6-0.2c0.1-0.2,0.2-0.3,0.2-1.2h2.1v0.8c0,2-1.4,2.4-2.8,2.4
	c-2.1,0-2.9-1.1-2.9-2.9v-3.9c0-1.1,0.4-1.8,1-2.2c0.6-0.3,1.3-0.6,1.9-0.6c0.9,0,1.7,0.2,2.2,0.8s0.7,1.3,0.7,1.8v2.5h-3.7v1.5
	H295.7z M295.7,182.8h1.5v-1.1c0-0.2,0-0.9-0.8-0.9c-0.6,0-0.8,0.3-0.8,0.9L295.7,182.8L295.7,182.8z"/>
<path class="st4" d="M308.8,179.7c0-1.2,0-1.8-0.9-1.8c-1,0-1,0.8-1,1.2v2.3c0.3-0.3,0.9-0.8,1.9-0.8c2.1,0,2.1,1.9,2.1,2.3v2.8
	c0,0.7,0,2.8-3,2.8c-0.7,0-1.4-0.1-2-0.6c-1-0.7-1-1.7-1-2.2V179c0-2.1,1.7-2.5,3.1-2.5c0.6,0,1.2,0.1,1.8,0.4c1,0.6,1,1.3,1,2.9h-2
	L308.8,179.7L308.8,179.7z M307,185.5c0,0.6,0,1.3,1,1.3c0.9,0,0.9-0.8,0.9-1.1v-2.1c0-0.6,0-1.3-0.9-1.3c-1,0-1,0.9-1,1.2V185.5z"
	/>
<path class="st4" d="M316.6,182.1c0-1.3,0-1.8,0.6-2.3c0.4-0.4,1.2-0.7,2.3-0.7c0.4,0,1.1,0,1.7,0.3c1,0.4,1.1,1.2,1.1,1.7v5.1
	c0,1.3,0,1.9,0.4,2.2h-2.2c-0.1-0.2-0.2-0.4-0.2-0.8c-0.4,0.6-0.9,1-1.9,1c-1.8,0-1.8-1.7-1.8-2.5c0-1.7,0-2.1,1.4-2.8l2.2-1.1
	c0-0.9,0-0.9,0-1c0-0.2-0.1-0.6-0.8-0.6c-0.8,0-0.8,0.4-0.8,1.5L316.6,182.1L316.6,182.1z M320,183.8l-1,0.7
	c-0.4,0.3-0.4,0.6-0.4,1.5c0,0.7,0.1,1,0.6,1c0.2,0,0.6-0.1,1-0.6v-2.7H320z"/>
<path class="st4" d="M328.2,178.4c0.2,0,0.8-0.2,1.4-0.8c0.4-0.3,0.7-0.7,1-1.1h1.4v11.8H330v-9.1c-0.2,0.2-0.7,0.6-1.8,0.8
	L328.2,178.4L328.2,178.4z"/>
<path class="st4" d="M336.4,176.5h2.4v8h0.7v1.7h-0.7v2.2H337v-2.2h-3.7v-1.7L336.4,176.5z M337,184.5l0.1-5.9l-2,5.9H337z"/>
<path class="st4" d="M345.3,182.1c0-1.3,0-1.8,0.6-2.3c0.4-0.4,1.2-0.7,2.3-0.7c0.4,0,1.1,0,1.7,0.3c1,0.4,1.1,1.2,1.1,1.7v5.1
	c0,1.3,0,1.9,0.4,2.2h-2.2c-0.1-0.2-0.2-0.4-0.2-0.8c-0.4,0.6-0.9,1-1.9,1c-1.8,0-1.8-1.7-1.8-2.5c0-1.7,0-2.1,1.4-2.8l2.2-1.1
	c0-0.9,0-0.9,0-1c0-0.2-0.1-0.6-0.8-0.6c-0.8,0-0.8,0.4-0.8,1.5L345.3,182.1L345.3,182.1z M348.6,183.8l-1,0.7
	c-0.4,0.3-0.4,0.6-0.4,1.5c0,0.7,0.1,1,0.6,1c0.2,0,0.6-0.1,1-0.6v-2.7H348.6z"/>
<path class="st4" d="M352.3,179.2h2.1v0.7c0.4-0.4,0.9-0.9,1.9-0.9c0.7,0,1.1,0.2,1.4,0.6c0.4,0.4,0.4,1,0.4,1.5v7.1h-2.1v-6.6
	c0-0.6,0-1.1-0.8-1.1c-0.9,0-0.9,0.8-0.9,1.2v6.5h-2.1V179.2z M352.3,178.1c0-0.6,0-1.2,0.6-1.8c0.2-0.2,0.7-0.6,1.2-0.6
	c0.4,0,0.7,0.1,1.5,0.4c0.7,0.2,0.7,0.3,0.9,0.3c0.4,0,0.6-0.4,0.6-0.8h1.1c0,0.8-0.1,2.2-1.5,2.2c-0.4,0-0.8-0.1-1.7-0.6
	c-0.6-0.2-0.7-0.3-0.9-0.3c-0.6,0-0.7,0.4-0.8,0.8h-1V178.1z"/>
<path class="st4" d="M359.6,181.8c0-1.1,0.3-2.7,2.9-2.7c0.7,0,1.4,0.1,1.9,0.6c0.8,0.6,0.9,1.3,0.9,2v4.4c0,1.7-1,2.5-2.9,2.5
	c-2.8,0-2.8-2.1-2.8-2.8V181.8z M361.7,186.2c0,0.2,0,1,0.8,1c0.8,0,0.8-0.7,0.8-1v-4.6c0-0.6-0.1-1.1-0.7-1.1
	c-0.8,0-0.8,0.7-0.8,1.1v4.6H361.7z"/>
<path class="st4" d="M366.5,185.2h2c0,1.3,0,1.9,0.9,1.9c0.4,0,0.8-0.2,0.8-1c0-0.6,0-0.8-0.7-1.2l-1.8-1.2
	c-0.1-0.1-0.4-0.4-0.6-0.6c-0.2-0.2-0.6-0.7-0.6-1.7c0-1.9,1.2-2.3,2.8-2.3c1.9,0,2.5,0.8,2.5,2.1v1h-1.9c0-1,0-1.7-0.8-1.7
	c-0.3,0-0.8,0-0.8,0.8c0,0.2,0,0.6,0.6,1l2,1.3c0.1,0.1,0.6,0.4,0.6,0.6c0.2,0.3,0.3,0.9,0.3,1.4c0,1.1,0,2.8-2.8,2.8
	c-2.3,0-2.8-1.1-2.8-2.4v-0.8H366.5z"/>
<path class="st4" d="M374,179.2h2.1v2.3H374V179.2z M374,186.1h2.1v2.3H374V186.1z"/>
<path class="st4" d="M157,196.3v8.5c0,1.5,0,2.2-0.3,2.8c-0.6,1.3-2.1,1.4-2.8,1.4c-1.3,0-2.3-0.4-2.8-1.3c-0.2-0.6-0.3-0.9-0.3-2.8
	v-8.6h1.5v9.2c0,1.1,0,2.2,1.5,2.2c1.3,0,1.4-1,1.4-1.5s0-0.6,0-1.5v-8.3H157z"/>
<path class="st4" d="M163.7,208.9h-1.4v-5.8c0-1.3,0-2.1-1-2.1c-1.2,0-1.2,1.2-1.2,2.2v5.8h-1.4v-8.9h1.3v0.8c0.2-0.3,0.8-1,1.9-1
	c1.9,0,1.9,1.5,1.9,2.8L163.7,208.9L163.7,208.9z"/>
<path class="st4" d="M170,207c0,1.4,0,1.5,0.4,1.9h-1.8v-1.1c-0.2,0.4-0.7,1.2-1.9,1.2c-0.4,0-0.8-0.1-1.1-0.2
	c-0.9-0.6-0.9-1.3-0.9-2c0-1.4,0.6-1.9,1.5-2.5c1.3-0.9,1.5-1,2.2-1.7c0-0.8,0-1.5-1.1-1.5c-1.1,0-1.1,0.8-1.1,1.3
	c0,0.2,0,0.4,0,0.7H165c0-0.3,0-1.3,0.1-1.8c0.4-1.3,2-1.3,2.3-1.3c0.7,0,1.3,0.1,1.8,0.7c0.6,0.6,0.6,1,0.6,2.2v4.2L170,207
	L170,207z M168.6,203.8c-0.4,0.4-0.4,0.4-1.2,1c-0.7,0.6-1.1,0.9-1.1,1.9c0,0.4,0,1.3,1,1.3c0.2,0,0.6-0.1,0.8-0.2
	c0.6-0.4,0.6-1,0.6-1.7L168.6,203.8L168.6,203.8z"/>
<path class="st4" d="M178.8,201h-1.3v5.6c0,0.6,0,1.1,0.8,1.1c0.2,0,0.3,0,0.6-0.1v1.1c-0.2,0-0.4,0.1-0.8,0.1
	c-1.2,0-1.7-0.4-1.8-0.9c-0.2-0.4-0.2-0.6-0.2-2.2v-5h-1.1v-1.1h1.1v-2.4h1.4v2.4h1.3V201z"/>
<path class="st4" d="M184.6,207c0,1.4,0,1.5,0.4,1.9h-1.8v-1.1c-0.2,0.4-0.7,1.2-1.9,1.2c-0.4,0-0.8-0.1-1.1-0.2
	c-0.9-0.6-0.9-1.3-0.9-2c0-1.4,0.6-1.9,1.5-2.5c1.3-0.9,1.5-1,2.2-1.7c0-0.8,0-1.5-1.1-1.5c-1.1,0-1.1,0.8-1.1,1.3
	c0,0.2,0,0.4,0,0.7h-1.3c0-0.3,0-1.3,0.1-1.8c0.4-1.3,2-1.3,2.3-1.3c0.7,0,1.3,0.1,1.8,0.7c0.6,0.6,0.6,1,0.6,2.2v4.2L184.6,207
	L184.6,207z M183.2,203.8c-0.4,0.4-0.4,0.4-1.2,1c-0.7,0.6-1.1,0.9-1.1,1.9c0,0.4,0,1.3,1,1.3c0.2,0,0.6-0.1,0.8-0.2
	c0.6-0.4,0.6-1,0.6-1.7L183.2,203.8L183.2,203.8z"/>
<path class="st4" d="M187.5,208.9h-1.3v-12.6h1.4v4.4c0.2-0.3,0.8-0.9,1.8-0.9s1.5,0.6,1.8,1c0.3,0.7,0.3,1.9,0.3,2.7
	c0,1,0,3.1-0.1,4c-0.2,1.3-1.3,1.7-2,1.7c-1,0-1.5-0.6-1.8-1v0.8H187.5z M187.6,205.3c0,0.9,0,1,0,1.3c0.1,1.1,1,1.2,1.3,1.2
	c0.9,0,1-0.8,1-1.1c0-0.6,0-1.4,0-2.4c0-2.4,0-3.5-1.1-3.5c-0.4,0-1,0.2-1.2,1c-0.1,0.2-0.1,0.4-0.1,1.5v2H187.6z"/>
<path class="st4" d="M194.4,208.9h-1.4v-12.6h1.4V208.9z"/>
<path class="st4" d="M200.8,206.1c0,0.6,0,1-0.1,1.5c-0.6,1.4-1.9,1.4-2.3,1.4c-0.6,0-1.8-0.1-2.3-1.3c-0.1-0.4-0.2-0.6-0.2-4.2
	c0-1.9,0.1-3.7,2.4-3.7c0.6,0,2.2,0,2.5,2c0.1,0.4,0.1,0.7,0.1,3h-3.5c0,0.7,0,1.5,0,1.9s0.1,1.2,1.1,1.2s1.1-0.9,1.1-1.8
	L200.8,206.1L200.8,206.1z M199.5,203.5v-1.1c0-0.4,0-1.5-1.1-1.5c-0.8,0-1,0.4-1,0.8c-0.1,0.3-0.1,0.7-0.1,1.9H199.5z"/>
<path class="st4" d="M205.3,201H204v5.6c0,0.6,0,1.1,0.8,1.1c0.2,0,0.3,0,0.6-0.1v1.1c-0.2,0-0.4,0.1-0.8,0.1
	c-1.2,0-1.7-0.4-1.8-0.9c-0.2-0.4-0.2-0.6-0.2-2.2v-5h-1.1v-1.1h1.1v-2.4h1.4v2.4h1.3V201z"/>
<path class="st4" d="M211.2,207c0,1.4,0,1.5,0.4,1.9h-1.8v-1.1c-0.2,0.4-0.7,1.2-1.9,1.2c-0.4,0-0.8-0.1-1.1-0.2
	c-0.9-0.6-0.9-1.3-0.9-2c0-1.4,0.6-1.9,1.5-2.5c1.3-0.9,1.5-1,2.2-1.7c0-0.8,0-1.5-1.1-1.5c-1.1,0-1.1,0.8-1.1,1.3
	c0,0.2,0,0.4,0,0.7h-1.3c0-0.3,0-1.3,0.1-1.8c0.4-1.3,2-1.3,2.3-1.3c0.7,0,1.3,0.1,1.8,0.7c0.6,0.6,0.6,1,0.6,2.2v4.2L211.2,207
	L211.2,207z M209.8,203.8c-0.4,0.4-0.4,0.4-1.2,1c-0.7,0.6-1.1,0.9-1.1,1.9c0,0.4,0,1.3,1,1.3c0.2,0,0.6-0.1,0.8-0.2
	c0.6-0.4,0.6-1,0.6-1.7L209.8,203.8L209.8,203.8z"/>
<path class="st4" d="M225.7,208.9h-1.4V203c0-0.8,0-1.1-0.1-1.4c-0.1-0.4-0.4-0.8-1-0.8c-1.1,0-1.1,1.2-1.1,2.1v5.9h-1.4v-5.9
	c0-1.2,0-2.1-1.1-2.1s-1.1,1.1-1.1,2.1v5.8H217v-8.9h1.3v0.9c0.2-0.3,0.8-1,1.9-1s1.5,0.7,1.8,1c0.3-0.3,0.8-1,1.9-1
	c0.2,0,0.9,0,1.4,0.6c0.6,0.6,0.6,1.2,0.6,2.7L225.7,208.9L225.7,208.9z"/>
<path class="st4" d="M231.9,207c0,1.4,0,1.5,0.4,1.9h-1.8v-1.1c-0.2,0.4-0.7,1.2-1.9,1.2c-0.4,0-0.8-0.1-1.1-0.2
	c-0.9-0.6-0.9-1.3-0.9-2c0-1.4,0.6-1.9,1.5-2.5c1.3-0.9,1.5-1,2.2-1.7c0-0.8,0-1.5-1.1-1.5c-1.1,0-1.1,0.8-1.1,1.3
	c0,0.2,0,0.4,0,0.7h-1.3c0-0.3,0-1.3,0.1-1.8c0.4-1.3,2-1.3,2.3-1.3c0.7,0,1.3,0.1,1.8,0.7c0.6,0.6,0.6,1,0.6,2.2v4.2L231.9,207
	L231.9,207z M230.6,203.8c-0.4,0.4-0.4,0.4-1.2,1c-0.7,0.6-1.1,0.9-1.1,1.9c0,0.4,0,1.3,1,1.3c0.2,0,0.6-0.1,0.8-0.2
	c0.6-0.4,0.6-1,0.6-1.7L230.6,203.8L230.6,203.8z"/>
<path class="st4" d="M234.6,204.2c-0.7-0.6-1.2-1.1-1.2-2.2c0-1.9,1.2-2.3,2.3-2.3c0.8,0,1.3,0.2,1.7,0.6c0.6,0.6,0.6,1.4,0.6,2.2
	h-1.2c0-0.7,0-0.9-0.1-1.2c-0.2-0.4-0.7-0.4-0.8-0.4c-0.6,0-1,0.3-1,1c0,0.6,0.4,1,1.1,1.5l1,0.9c0.6,0.4,1.2,1,1.2,2.3
	c0,0.8-0.3,1.5-1,2c-0.4,0.3-1,0.4-1.7,0.4c-0.4,0-1.7,0-2.1-1.1c-0.2-0.4-0.2-1.1-0.2-2.1h1.3c0,0.6,0,1.2,0.1,1.4
	c0.1,0.3,0.6,0.7,1,0.7c0.6,0,1-0.3,1-1.1c0-0.7-0.2-1-0.9-1.5L234.6,204.2z"/>
<path class="st4" d="M242.2,201h-1.3v5.6c0,0.6,0,1.1,0.8,1.1c0.2,0,0.3,0,0.6-0.1v1.1c-0.2,0-0.4,0.1-0.8,0.1
	c-1.2,0-1.7-0.4-1.8-0.9c-0.2-0.4-0.2-0.6-0.2-2.2v-5h-1.1v-1.1h1.1v-2.4h1.4v2.4h1.3V201z"/>
<path class="st4" d="M244.6,198.4h-1.4v-1.9h1.4V198.4z M244.6,208.9h-1.4v-9h1.4V208.9z"/>
<path class="st4" d="M251,205.6c0,1.7,0,3.4-2.5,3.4c-1.1,0-2-0.4-2.2-1.4c-0.2-0.6-0.2-1.5-0.2-3c0-3.2,0.1-4.9,2.7-4.9
	c2.4,0,2.4,1.7,2.4,3.4h-1.3c0-1.5,0-2.3-1.1-2.3c-1.1,0-1.1,0.8-1.1,3.2c0,0.3,0,1.7,0,2.4c0,0.4,0,1.3,1.1,1.3
	c1.1,0,1.1-0.9,1.1-2.3h1.2V205.6z"/>
<path class="st4" d="M257.1,207c0,1.4,0,1.5,0.4,1.9h-1.8v-1.1c-0.2,0.4-0.7,1.2-1.9,1.2c-0.4,0-0.8-0.1-1.1-0.2
	c-0.9-0.6-0.9-1.3-0.9-2c0-1.4,0.6-1.9,1.5-2.5c1.3-0.9,1.5-1,2.2-1.7c0-0.8,0-1.5-1.1-1.5c-1.1,0-1.1,0.8-1.1,1.3
	c0,0.2,0,0.4,0,0.7h-1.1c0-0.3,0-1.3,0.1-1.8c0.4-1.3,2-1.3,2.3-1.3c0.7,0,1.3,0.1,1.8,0.7c0.6,0.6,0.6,1,0.6,2.2V207L257.1,207z
	 M255.8,203.8c-0.4,0.4-0.4,0.4-1.2,1c-0.7,0.6-1.1,0.9-1.1,1.9c0,0.4,0,1.3,1,1.3c0.2,0,0.6-0.1,0.8-0.2c0.6-0.4,0.6-1,0.6-1.7
	L255.8,203.8L255.8,203.8z"/>
<path class="st4" d="M260.1,208.9h-1.3v-12.6h1.4v4.4c0.2-0.3,0.8-0.9,1.8-0.9s1.5,0.6,1.8,1c0.3,0.7,0.3,1.9,0.3,2.7
	c0,1,0,3.1-0.1,4c-0.2,1.3-1.3,1.7-2,1.7c-1,0-1.5-0.6-1.8-1L260.1,208.9L260.1,208.9z M260.1,205.3c0,0.9,0,1,0,1.3
	c0.1,1.1,1,1.2,1.3,1.2c0.9,0,1-0.8,1-1.1c0-0.6,0-1.4,0-2.4c0-2.4,0-3.5-1.1-3.5c-0.4,0-1,0.2-1.2,1c-0.1,0.2-0.1,0.4-0.1,1.5v2
	H260.1z"/>
<path class="st4" d="M266.9,208.9h-1.4v-12.6h1.4V208.9z"/>
<path class="st4" d="M273.3,206.1c0,0.6,0,1-0.1,1.5c-0.6,1.4-1.9,1.4-2.3,1.4c-0.6,0-1.8-0.1-2.3-1.3c-0.1-0.4-0.2-0.6-0.2-4.2
	c0-1.9,0.1-3.7,2.4-3.7c0.6,0,2.2,0,2.5,2c0.1,0.4,0.1,0.7,0.1,3h-3.5c0,0.7,0,1.5,0,1.9s0.1,1.2,1.1,1.2s1.1-0.9,1.1-1.8
	L273.3,206.1L273.3,206.1z M272,203.5v-1.1c0-0.4,0-1.5-1.1-1.5c-0.8,0-1,0.4-1,0.8c-0.1,0.3-0.1,0.7-0.1,1.9H272z"/>
<path class="st4" d="M283.9,208.9h-1.3v-1c-0.2,0.3-0.7,1.1-1.9,1.1c-0.2,0-0.3,0-0.6-0.1c-1.4-0.3-1.5-1.9-1.5-4.5
	c0-0.9,0-2.5,0.2-3.2c0.2-0.9,0.9-1.4,1.9-1.4c1,0,1.4,0.6,1.7,0.9v-4.4h1.4v12.7H283.9z M281.3,200.9c-1.1,0-1.1,1.1-1.1,1.8
	c0,1,0,1,0,2.4c0,0.4,0,0.9,0,1.4c0,0.3,0.1,1.3,1.1,1.3c1.2,0,1.2-1.2,1.2-3.4C282.6,202.2,282.6,200.9,281.3,200.9z"/>
<path class="st4" d="M290.3,206.1c0,0.6,0,1-0.1,1.5c-0.6,1.4-1.9,1.4-2.3,1.4c-0.6,0-1.8-0.1-2.3-1.3c-0.1-0.4-0.2-0.6-0.2-4.2
	c0-1.9,0.1-3.7,2.4-3.7c0.6,0,2.2,0,2.5,2c0.1,0.4,0.1,0.7,0.1,3h-3.5c0,0.7,0,1.5,0,1.9s0.1,1.2,1.1,1.2s1.1-0.9,1.1-1.8
	L290.3,206.1L290.3,206.1z M289,203.5v-1.1c0-0.4,0-1.5-1.1-1.5c-0.8,0-1,0.4-1,0.8c-0.1,0.3-0.1,0.7-0.1,1.9H289z"/>
<path class="st4" d="M301.1,196.3v1.3h-3.4l-0.1,3.1c0.4-0.4,1.1-0.6,1.5-0.6c1.1,0,1.5,0.7,1.8,0.9c0.1,0.2,0.4,0.7,0.4,2.4
	c0,0.7,0,2.5,0,3c-0.1,1.4-1.1,2.4-2.8,2.4c-2.7,0-2.7-2.3-2.7-3.1c0-0.3,0-0.4,0-0.7h1.4c0,1.3,0,2.4,1.2,2.4
	c1.1,0,1.2-0.9,1.2-1.1c0-0.3,0-2.7,0-2.8c0-1,0-2.1-1.2-2.1c-1,0-1,0.9-1.1,1.4H296l0.2-6.8L301.1,196.3L301.1,196.3z"/>
<path class="st4" d="M315.5,208.9H314V203c0-0.8,0-1.1-0.1-1.4c-0.1-0.4-0.4-0.8-1-0.8c-1.1,0-1.1,1.2-1.1,2.1v5.9h-1.4v-5.9
	c0-1.2,0-2.1-1.1-2.1c-1.1,0-1.1,1.1-1.1,2.1v5.8h-1.5v-8.9h1.3v0.9c0.2-0.3,0.8-1,1.9-1s1.5,0.7,1.8,1c0.3-0.3,0.8-1,1.9-1
	c0.2,0,0.9,0,1.4,0.6c0.6,0.6,0.6,1.2,0.6,2.7L315.5,208.9L315.5,208.9z"/>
<path class="st4" d="M322.1,199.9v8.4c0,1.1,0,1.5-0.1,2c-0.4,1.2-1.9,1.4-2.7,1.4c-1,0-2.4-0.4-2.4-2.3h1.3c0,0.3,0,1.1,1.2,1.1
	c1.2,0,1.2-1,1.2-1.8v-1c-0.4,0.7-1.1,1-1.8,1s-1.4-0.2-1.8-1.2c-0.2-0.7-0.2-1.3-0.2-3.5c0-1.5,0-2.2,0.1-2.8
	c0.1-0.3,0.4-1.7,2-1.7c1.1,0,1.5,0.7,1.8,1v-0.8h1.3V199.9z M320.7,202.2c0-0.9-0.4-1.4-1.2-1.4c-1.2,0-1.2,1.3-1.2,2.7
	c0,0.9,0,2.4,0,3.1c0,0.7,0.3,1.2,1.1,1.2c0.7,0,1.1-0.4,1.2-1.1c0.1-0.4,0.1-1.7,0.1-2.2C320.8,204.5,320.7,202.5,320.7,202.2z"/>
<path class="st4" d="M325.1,208.9h-1.5v-2.1h1.5V208.9z"/>
<path class="st4" d="M150.9,216.7h4.6c2.1,0,2.1,1.7,2.1,2.9v1.7c0,2-0.2,2.9-2.5,2.9h-2v5.2h-2.3v-12.6L150.9,216.7L150.9,216.7z
	 M153.3,222.3h1.1c0.9,0,1-0.1,1-1.1v-1.3c0-0.9,0-1.3-1-1.3h-1.1V222.3z"/>
<path class="st4" d="M158.7,222.9c0-1.3,0-1.8,0.6-2.3c0.4-0.4,1.2-0.7,2.3-0.7c0.4,0,1.1,0,1.7,0.3c1,0.4,1.1,1.2,1.1,1.7v5.1
	c0,1.3,0,1.9,0.4,2.2h-2.2c-0.1-0.2-0.2-0.4-0.2-0.8c-0.4,0.6-0.9,1-1.9,1c-1.8,0-1.8-1.7-1.8-2.5c0-1.7,0-2.1,1.4-2.8l2.2-1.1
	c0-0.9,0-0.9,0-1c0-0.2-0.1-0.6-0.8-0.6c-0.8,0-0.8,0.4-0.8,1.5L158.7,222.9L158.7,222.9z M162.2,224.7l-1,0.7
	c-0.4,0.3-0.4,0.6-0.4,1.5c0,0.7,0.1,1,0.6,1c0.2,0,0.6-0.1,1-0.6v-2.7H162.2z"/>
<path class="st4" d="M169.5,223.6v-1.1c0-0.3,0-1-0.8-1c-0.9,0-0.9,0.8-0.9,1.2v4c0,0.4,0,1.2,0.9,1.2c0.8,0,0.8-0.8,0.8-1.2v-1h2.1
	v1c0,1.9-1,2.8-2.9,2.8c-0.4,0-1.4,0-2.1-0.7c-0.7-0.6-0.8-1.3-0.8-2v-4c0-0.7,0.1-1.3,0.6-1.8c0.6-0.8,1.5-1,2.4-1
	c0.8,0,1.7,0.2,2.1,0.7c0.6,0.4,0.8,1,0.8,1.9v1.1h-2.2L169.5,223.6L169.5,223.6z"/>
<path class="st4" d="M172.9,216.7h2.1v2.1h-2.1V216.7z M172.9,220.2h2.1v9.1h-2.1V220.2z"/>
<path class="st4" d="M178.6,226.7c0,0.4,0,1.1,0.8,1.1c0.2,0,0.4-0.1,0.6-0.2c0.1-0.2,0.2-0.3,0.2-1.2h2.1v0.8c0,2-1.4,2.4-2.8,2.4
	c-2.1,0-2.9-1.1-2.9-2.9v-3.9c0-1.1,0.4-1.8,1-2.2c0.6-0.3,1.3-0.6,1.9-0.6c0.9,0,1.7,0.2,2.2,0.8c0.6,0.6,0.7,1.3,0.7,1.8v2.5h-3.7
	L178.6,226.7L178.6,226.7z M178.6,223.7h1.5v-1.1c0-0.2,0-0.9-0.8-0.9c-0.6,0-0.8,0.3-0.8,0.9V223.7z"/>
<path class="st4" d="M183.6,220.2h2.1v0.7c0.4-0.4,0.9-0.9,1.9-0.9c0.7,0,1.1,0.2,1.4,0.6c0.4,0.4,0.4,1,0.4,1.5v7.1h-2.1v-6.6
	c0-0.6,0-1.1-0.8-1.1c-0.9,0-0.9,0.8-0.9,1.2v6.5h-2.1V220.2z"/>
<path class="st4" d="M191.6,216.9h2.1v3.3h1.2v1.4h-1.2v5.2c0,0.6,0.1,1,1,1c0.1,0,0.2,0,0.3,0v1.5c-0.1,0-0.4,0.1-1.1,0.1
	c-2,0-2.3-0.8-2.3-1.9v-5.9h-1.1v-1.4h1.1L191.6,216.9L191.6,216.9z"/>
<path class="st4" d="M197.9,226.7c0,0.4,0,1.1,0.8,1.1c0.2,0,0.4-0.1,0.6-0.2c0.1-0.2,0.2-0.3,0.2-1.2h2.1v0.8c0,2-1.4,2.4-2.8,2.4
	c-2.1,0-2.9-1.1-2.9-2.9v-3.9c0-1.1,0.4-1.8,1-2.2c0.6-0.3,1.3-0.6,1.9-0.6c0.9,0,1.7,0.2,2.2,0.8c0.6,0.6,0.7,1.3,0.7,1.8v2.5H198
	L197.9,226.7L197.9,226.7z M197.9,223.7h1.5v-1.1c0-0.2,0-0.9-0.8-0.9c-0.6,0-0.8,0.3-0.8,0.9V223.7z"/>
<path class="st4" d="M202.7,226h2c0,1.3,0,1.9,0.9,1.9c0.4,0,0.8-0.2,0.8-1c0-0.6,0-0.8-0.7-1.2l-1.8-1.2c-0.1-0.1-0.4-0.4-0.6-0.6
	c-0.2-0.2-0.6-0.7-0.6-1.7c0-1.9,1.2-2.3,2.8-2.3c1.9,0,2.5,0.8,2.5,2.1v1h-1.9c0-1,0-1.7-0.8-1.7c-0.3,0-0.8,0-0.8,0.8
	c0,0.2,0,0.6,0.6,1l2,1.3c0.1,0.1,0.6,0.4,0.6,0.6c0.2,0.3,0.3,0.9,0.3,1.4c0,1.1,0,2.8-2.8,2.8c-2.3,0-2.8-1.1-2.8-2.4L202.7,226
	L202.7,226z"/>
<path class="st4" d="M214.2,216.7h4.6c2.1,0,2.1,1.7,2.1,2.9v1.7c0,2-0.2,2.9-2.5,2.9h-2v5.2h-2.3v-12.6L214.2,216.7L214.2,216.7z
	 M216.6,222.3h1.1c0.9,0,1-0.1,1-1.1v-1.3c0-0.9,0-1.3-1-1.3h-1.1V222.3z"/>
<path class="st4" d="M224.1,226.7c0,0.4,0,1.1,0.8,1.1c0.2,0,0.4-0.1,0.6-0.2c0.1-0.2,0.2-0.3,0.2-1.2h2.1v0.8c0,2-1.4,2.4-2.8,2.4
	c-2.1,0-2.9-1.1-2.9-2.9v-3.9c0-1.1,0.4-1.8,1-2.2c0.6-0.3,1.3-0.6,1.9-0.6c0.9,0,1.7,0.2,2.2,0.8c0.6,0.6,0.7,1.3,0.7,1.8v2.5h-3.7
	L224.1,226.7L224.1,226.7z M224.1,223.7h1.5v-1.1c0-0.2,0-0.9-0.8-0.9c-0.6,0-0.8,0.3-0.8,0.9V223.7z"/>
<path class="st4" d="M232.9,216.7h2.1v12.6h-2.1v-0.9c-0.3,0.4-0.8,1.1-1.8,1.1c-0.9,0-1.5-0.4-1.8-1c-0.2-0.4-0.2-1-0.2-2v-4.2
	c0-0.7,0.1-1,0.2-1.3c0.4-0.8,1.2-1.1,1.8-1.1c0.9,0,1.4,0.6,1.9,0.9L232.9,216.7L232.9,216.7z M231.2,226.7c0,0.4,0,1,0.8,1
	c0.9,0,0.9-0.8,0.9-1.1v-3.9c0-0.3,0-1-0.9-1c-0.8,0-0.8,0.7-0.8,1.1V226.7z"/>
<path class="st4" d="M236.7,216.7h2.1v2.1h-2.1V216.7z M236.7,220.2h2.1v9.1h-2.1V220.2z"/>
<path class="st4" d="M240.3,222.9c0-1.3,0-1.8,0.6-2.3c0.4-0.4,1.2-0.7,2.3-0.7c0.4,0,1.1,0,1.7,0.3c1,0.4,1.1,1.2,1.1,1.7v5.1
	c0,1.3,0,1.9,0.4,2.2h-2.2c-0.1-0.2-0.2-0.4-0.2-0.8c-0.4,0.6-0.9,1-1.9,1c-1.8,0-1.8-1.7-1.8-2.5c0-1.7,0-2.1,1.4-2.8l2.2-1.1
	c0-0.9,0-0.9,0-1c0-0.2-0.1-0.6-0.8-0.6c-0.8,0-0.8,0.4-0.8,1.5L240.3,222.9L240.3,222.9z M243.1,216.4h2.8c-1,1-1.2,1.2-2.2,2.4
	H242L243.1,216.4z M243.7,224.7l-1,0.7c-0.4,0.3-0.4,0.6-0.4,1.5c0,0.7,0.1,1,0.6,1c0.2,0,0.6-0.1,1-0.6v-2.7H243.7z"/>
<path class="st4" d="M247.8,216.9h2.1v3.3h1.2v1.4h-1.3v5.2c0,0.6,0.1,1,1,1c0.1,0,0.2,0,0.3,0v1.5c-0.1,0-0.4,0.1-1.1,0.1
	c-2,0-2.3-0.8-2.3-1.9v-5.9h-1.1v-1.4h1.1v-3.4L247.8,216.9L247.8,216.9z"/>
<path class="st4" d="M252.2,220.2h2.1v1.1c0.3-0.7,0.9-1.3,2.1-1.3v2.1c-0.1,0-0.3-0.1-0.7-0.1c-1.3,0-1.3,1.2-1.3,2v5.3h-2.1
	L252.2,220.2L252.2,220.2z"/>
<path class="st4" d="M257.2,216.7h2.1v2.1h-2.1V216.7z M257.2,220.2h2.1v9.1h-2.1V220.2z"/>
<path class="st4" d="M264.6,223.6v-1.1c0-0.3,0-1-0.8-1c-0.9,0-0.9,0.8-0.9,1.2v4c0,0.4,0,1.2,0.9,1.2c0.8,0,0.8-0.8,0.8-1.2v-1h2.1
	v1c0,1.9-1,2.8-2.9,2.8c-0.4,0-1.4,0-2.1-0.7c-0.7-0.6-0.8-1.3-0.8-2v-4c0-0.7,0.1-1.3,0.6-1.8c0.6-0.8,1.5-1,2.4-1
	c0.8,0,1.7,0.2,2.1,0.7c0.6,0.4,0.8,1,0.8,1.9v1.1h-2.2L264.6,223.6L264.6,223.6z"/>
<path class="st4" d="M267.9,222.6c0-1.1,0.3-2.7,2.9-2.7c0.7,0,1.4,0.1,1.9,0.6c0.8,0.6,0.9,1.3,0.9,2v4.4c0,1.7-1,2.5-2.9,2.5
	c-2.8,0-2.8-2.1-2.8-2.8L267.9,222.6L267.9,222.6z M270,227c0,0.2,0,1,0.8,1s0.8-0.7,0.8-1v-4.6c0-0.6-0.1-1.1-0.7-1.1
	c-0.8,0-0.8,0.7-0.8,1.1v4.6H270z"/>
<path class="st4" d="M274.7,226h2c0,1.3,0,1.9,0.9,1.9c0.4,0,0.8-0.2,0.8-1c0-0.6,0-0.8-0.7-1.2l-1.8-1.2c-0.1-0.1-0.4-0.4-0.6-0.6
	c-0.2-0.2-0.6-0.7-0.6-1.7c0-1.9,1.2-2.3,2.8-2.3c1.9,0,2.5,0.8,2.5,2.1v1h-1.9c0-1,0-1.7-0.8-1.7c-0.3,0-0.8,0-0.8,0.8
	c0,0.2,0,0.6,0.6,1l2,1.3c0.1,0.1,0.6,0.4,0.6,0.6c0.2,0.3,0.3,0.9,0.3,1.4c0,1.1,0,2.8-2.8,2.8c-2.3,0-2.8-1.1-2.8-2.4V226
	L274.7,226L274.7,226z"/>
<path class="st4" d="M289.9,216.7h2.1v12.6h-2.1v-0.9c-0.3,0.4-0.8,1.1-1.8,1.1c-0.9,0-1.5-0.4-1.8-1c-0.2-0.4-0.2-1-0.2-2v-4.2
	c0-0.7,0.1-1,0.2-1.3c0.4-0.8,1.2-1.1,1.8-1.1c0.9,0,1.4,0.6,1.9,0.9v-4.1H289.9z M288.2,226.7c0,0.4,0,1,0.8,1
	c0.9,0,0.9-0.8,0.9-1.1v-3.9c0-0.3,0-1-0.9-1c-0.8,0-0.8,0.7-0.8,1.1V226.7z"/>
<path class="st4" d="M295.7,226.7c0,0.4,0,1.1,0.8,1.1c0.2,0,0.4-0.1,0.6-0.2c0.1-0.2,0.2-0.3,0.2-1.2h2.1v0.8c0,2-1.4,2.4-2.8,2.4
	c-2.1,0-2.9-1.1-2.9-2.9v-3.9c0-1.1,0.4-1.8,1-2.2c0.6-0.3,1.3-0.6,1.9-0.6c0.9,0,1.7,0.2,2.2,0.8c0.6,0.6,0.7,1.3,0.7,1.8v2.5h-3.7
	v1.5H295.7z M295.7,223.7h1.5v-1.1c0-0.2,0-0.9-0.8-0.9c-0.6,0-0.8,0.3-0.8,0.9L295.7,223.7L295.7,223.7z"/>
<path class="st4" d="M307,221.4h-2V220c0-0.6,0-1.4,0.8-2.1c0.7-0.6,1.7-0.7,2.1-0.7c1.3,0,2.5,0.4,2.9,1.7c0,0.1,0.1,0.8,0.1,1.2
	v1.2c0,1.2-0.3,1.7-1.7,3.1c-1.9,1.9-2,2.1-2.1,3h4v1.8h-6.2c0-3.1,1-4.1,2.2-5.3c1.8-1.8,1.9-1.9,1.9-2.8v-1.3c0-0.3,0-1-0.9-1
	c-0.9,0-1,0.7-1,1.1v1.5L307,221.4L307,221.4z"/>
<path class="st4" d="M316.6,222.9c0-1.3,0-1.8,0.6-2.3c0.4-0.4,1.2-0.7,2.3-0.7c0.4,0,1.1,0,1.7,0.3c1,0.4,1.1,1.2,1.1,1.7v5.1
	c0,1.3,0,1.9,0.4,2.2h-2.2c-0.1-0.2-0.2-0.4-0.2-0.8c-0.4,0.6-0.9,1-1.9,1c-1.8,0-1.8-1.7-1.8-2.5c0-1.7,0-2.1,1.4-2.8l2.2-1.1
	c0-0.9,0-0.9,0-1c0-0.2-0.1-0.6-0.8-0.6c-0.8,0-0.8,0.4-0.8,1.5L316.6,222.9L316.6,222.9z M320,224.7l-1,0.7
	c-0.4,0.3-0.4,0.6-0.4,1.5c0,0.7,0.1,1,0.6,1c0.2,0,0.6-0.1,1-0.6v-2.7H320z"/>
<path class="st4" d="M328.2,217.4h5.5v1.8h-3.9v2.4c0.4-0.3,0.9-0.7,1.8-0.7c0.8,0,1.3,0.3,1.5,0.6c0.7,0.6,0.7,1.3,0.7,2v3
	c0,1-0.1,2.9-3,2.9c-0.4,0-1.5-0.1-2.2-0.6c-0.8-0.6-0.9-1.5-0.9-2v-1.2h2v1.2c0,0.2,0,1,0.9,1c0.3,0,1-0.1,1-1.1v-2.8
	c0-0.6,0-1.3-0.9-1.3c-0.7,0-1,0.4-1.1,1.2H328L328.2,217.4z"/>
<path class="st4" d="M339.6,222.9c0-1.3,0-1.8,0.6-2.3c0.4-0.4,1.2-0.7,2.3-0.7c0.4,0,1.1,0,1.7,0.3c1,0.4,1.1,1.2,1.1,1.7v5.1
	c0,1.3,0,1.9,0.4,2.2h-2.2c-0.1-0.2-0.2-0.4-0.2-0.8c-0.4,0.6-0.9,1-1.9,1c-1.8,0-1.8-1.7-1.8-2.5c0-1.7,0-2.1,1.4-2.8l2.2-1.1
	c0-0.9,0-0.9,0-1c0-0.2-0.1-0.6-0.8-0.6c-0.8,0-0.8,0.4-0.8,1.5L339.6,222.9L339.6,222.9z M343,224.7l-1,0.7
	c-0.4,0.3-0.4,0.6-0.4,1.5c0,0.7,0.1,1,0.6,1c0.2,0,0.6-0.1,1-0.6v-2.7H343z"/>
<path class="st4" d="M346.7,220.2h2.1v0.7c0.4-0.4,0.9-0.9,1.9-0.9c0.7,0,1.1,0.2,1.4,0.6c0.4,0.4,0.4,1,0.4,1.5v7.1h-2.1v-6.6
	c0-0.6,0-1.1-0.8-1.1c-0.9,0-0.9,0.8-0.9,1.2v6.5h-2.1V220.2z M346.8,219.1c0-0.6,0-1.2,0.6-1.8c0.2-0.2,0.7-0.6,1.2-0.6
	c0.4,0,0.7,0.1,1.5,0.4c0.7,0.2,0.7,0.3,0.9,0.3c0.4,0,0.6-0.4,0.6-0.8h1.1c0,0.8-0.1,2.2-1.5,2.2c-0.4,0-0.8-0.1-1.7-0.6
	c-0.6-0.2-0.7-0.3-0.9-0.3c-0.6,0-0.7,0.4-0.8,0.8h-1V219.1z"/>
<path class="st4" d="M354,222.6c0-1.1,0.3-2.7,2.9-2.7c0.7,0,1.4,0.1,1.9,0.6c0.8,0.6,0.9,1.3,0.9,2v4.4c0,1.7-1,2.5-2.9,2.5
	c-2.8,0-2.8-2.1-2.8-2.8V222.6z M356.2,227c0,0.2,0,1,0.8,1c0.8,0,0.8-0.7,0.8-1v-4.6c0-0.6-0.1-1.1-0.7-1.1c-0.8,0-0.8,0.7-0.8,1.1
	v4.6H356.2z"/>
<path class="st4" d="M360.9,226h2c0,1.3,0,1.9,0.9,1.9c0.4,0,0.8-0.2,0.8-1c0-0.6,0-0.8-0.7-1.2l-1.8-1.2c-0.1-0.1-0.4-0.4-0.6-0.6
	c-0.2-0.2-0.6-0.7-0.6-1.7c0-1.9,1.2-2.3,2.8-2.3c1.9,0,2.5,0.8,2.5,2.1v1h-1.9c0-1,0-1.7-0.8-1.7c-0.3,0-0.8,0-0.8,0.8
	c0,0.2,0,0.6,0.6,1l2,1.3c0.1,0.1,0.6,0.4,0.6,0.6c0.2,0.3,0.3,0.9,0.3,1.4c0,1.1,0,2.8-2.8,2.8c-2.3,0-2.8-1.1-2.8-2.4V226
	L360.9,226L360.9,226z"/>
<path class="st4" d="M368.5,220.2h2.1v2.3h-2.1V220.2z M368.5,226.9h2.1v2.3h-2.1V226.9z"/>
<path class="st4" d="M157,237.2v8.5c0,1.5,0,2.2-0.3,2.8c-0.6,1.3-2.1,1.4-2.8,1.4c-1.3,0-2.3-0.4-2.8-1.3c-0.2-0.6-0.3-0.9-0.3-2.8
	v-8.6h1.5v9.2c0,1.1,0,2.2,1.5,2.2c1.3,0,1.4-1,1.4-1.5s0-0.6,0-1.5v-8.3H157z"/>
<path class="st4" d="M163.7,249.7h-1.4V244c0-1.3,0-2.1-1-2.1c-1.2,0-1.2,1.2-1.2,2.2v5.8h-1.4V241h1.3v0.8c0.2-0.3,0.8-1,1.9-1
	c1.9,0,1.9,1.5,1.9,2.8L163.7,249.7L163.7,249.7z"/>
<path class="st4" d="M170,247.9c0,1.4,0,1.5,0.4,1.9h-1.8v-1.1c-0.2,0.4-0.7,1.2-1.9,1.2c-0.4,0-0.8-0.1-1.1-0.2
	c-0.9-0.6-0.9-1.3-0.9-2c0-1.4,0.6-1.9,1.5-2.5c1.3-0.9,1.5-1,2.2-1.7c0-0.8,0-1.5-1.1-1.5c-1.1,0-1.1,0.8-1.1,1.3
	c0,0.2,0,0.4,0,0.7H165c0-0.3,0-1.3,0.1-1.8c0.4-1.3,2-1.3,2.3-1.3c0.7,0,1.3,0.1,1.8,0.7c0.6,0.6,0.6,1,0.6,2.2v4.2L170,247.9
	L170,247.9z M168.6,244.6c-0.4,0.4-0.4,0.4-1.2,1c-0.7,0.6-1.1,0.9-1.1,1.9c0,0.4,0,1.3,1,1.3c0.2,0,0.6-0.1,0.8-0.2
	c0.6-0.4,0.6-1,0.6-1.7L168.6,244.6L168.6,244.6z"/>
<path class="st4" d="M178.8,241.9h-1.3v5.6c0,0.6,0,1.1,0.8,1.1c0.2,0,0.3,0,0.6-0.1v1.1c-0.2,0-0.4,0.1-0.8,0.1
	c-1.2,0-1.7-0.4-1.8-0.9c-0.2-0.4-0.2-0.6-0.2-2.2v-5h-1.1v-1.1h1.1v-2.4h1.4v2.4h1.3V241.9z"/>
<path class="st4" d="M184.6,247.9c0,1.4,0,1.5,0.4,1.9h-1.8v-1.1c-0.2,0.4-0.7,1.2-1.9,1.2c-0.4,0-0.8-0.1-1.1-0.2
	c-0.9-0.6-0.9-1.3-0.9-2c0-1.4,0.6-1.9,1.5-2.5c1.3-0.9,1.5-1,2.2-1.7c0-0.8,0-1.5-1.1-1.5c-1.1,0-1.1,0.8-1.1,1.3
	c0,0.2,0,0.4,0,0.7h-1.3c0-0.3,0-1.3,0.1-1.8c0.4-1.3,2-1.3,2.3-1.3c0.7,0,1.3,0.1,1.8,0.7c0.6,0.6,0.6,1,0.6,2.2v4.2L184.6,247.9
	L184.6,247.9z M183.2,244.6c-0.4,0.4-0.4,0.4-1.2,1c-0.7,0.6-1.1,0.9-1.1,1.9c0,0.4,0,1.3,1,1.3c0.2,0,0.6-0.1,0.8-0.2
	c0.6-0.4,0.6-1,0.6-1.7L183.2,244.6L183.2,244.6z"/>
<path class="st4" d="M187.5,249.7h-1.3v-12.5h1.4v4.4c0.2-0.3,0.8-0.9,1.8-0.9s1.5,0.6,1.8,1c0.3,0.7,0.3,1.9,0.3,2.7
	c0,1,0,3.1-0.1,4c-0.2,1.3-1.3,1.7-2,1.7c-1,0-1.5-0.6-1.8-1v0.7H187.5z M187.6,246.3c0,0.9,0,1,0,1.3c0.1,1.1,1,1.2,1.3,1.2
	c0.9,0,1-0.8,1-1.1c0-0.6,0-1.4,0-2.4c0-2.4,0-3.5-1.1-3.5c-0.4,0-1,0.2-1.2,1c-0.1,0.2-0.1,0.4-0.1,1.5v2H187.6z"/>
<path class="st4" d="M194.4,249.7h-1.4v-12.5h1.4V249.7z"/>
<path class="st4" d="M200.8,247c0,0.6,0,1-0.1,1.5c-0.6,1.4-1.9,1.4-2.3,1.4c-0.6,0-1.8-0.1-2.3-1.3c-0.1-0.4-0.2-0.6-0.2-4.2
	c0-1.9,0.1-3.7,2.4-3.7c0.6,0,2.2,0,2.5,2c0.1,0.4,0.1,0.7,0.1,3h-3.5c0,0.7,0,1.5,0,1.9c0,0.3,0.1,1.2,1.1,1.2s1.1-0.9,1.1-1.8
	L200.8,247L200.8,247z M199.5,244.4v-1.1c0-0.4,0-1.5-1.1-1.5c-0.8,0-1,0.4-1,0.8c-0.1,0.3-0.1,0.7-0.1,1.9H199.5z"/>
<path class="st4" d="M205.3,241.9H204v5.6c0,0.6,0,1.1,0.8,1.1c0.2,0,0.3,0,0.6-0.1v1.1c-0.2,0-0.4,0.1-0.8,0.1
	c-1.2,0-1.7-0.4-1.8-0.9c-0.2-0.4-0.2-0.6-0.2-2.2v-5h-1.1v-1.1h1.1v-2.4h1.4v2.4h1.3V241.9z"/>
<path class="st4" d="M211.2,247.9c0,1.4,0,1.5,0.4,1.9h-1.8v-1.1c-0.2,0.4-0.7,1.2-1.9,1.2c-0.4,0-0.8-0.1-1.1-0.2
	c-0.9-0.6-0.9-1.3-0.9-2c0-1.4,0.6-1.9,1.5-2.5c1.3-0.9,1.5-1,2.2-1.7c0-0.8,0-1.5-1.1-1.5c-1.1,0-1.1,0.8-1.1,1.3
	c0,0.2,0,0.4,0,0.7h-1.3c0-0.3,0-1.3,0.1-1.8c0.4-1.3,2-1.3,2.3-1.3c0.7,0,1.3,0.1,1.8,0.7c0.6,0.6,0.6,1,0.6,2.2v4.2L211.2,247.9
	L211.2,247.9z M209.8,244.6c-0.4,0.4-0.4,0.4-1.2,1c-0.7,0.6-1.1,0.9-1.1,1.9c0,0.4,0,1.3,1,1.3c0.2,0,0.6-0.1,0.8-0.2
	c0.6-0.4,0.6-1,0.6-1.7L209.8,244.6L209.8,244.6z"/>
<path class="st4" d="M225.7,249.7h-1.4v-5.9c0-0.8,0-1.1-0.1-1.4c-0.1-0.4-0.4-0.8-1-0.8c-1.1,0-1.1,1.2-1.1,2.1v5.9h-1.4v-5.9
	c0-1.2,0-2.1-1.1-2.1s-1.1,1.1-1.1,2.1v5.8H217v-8.9h1.3v0.9c0.2-0.3,0.8-1,1.9-1s1.5,0.7,1.8,1c0.3-0.3,0.8-1,1.9-1
	c0.2,0,0.9,0,1.4,0.6c0.6,0.6,0.6,1.2,0.6,2.7L225.7,249.7L225.7,249.7z"/>
<path class="st4" d="M231.9,247.9c0,1.4,0,1.5,0.4,1.9h-1.8v-1.1c-0.2,0.4-0.7,1.2-1.9,1.2c-0.4,0-0.8-0.1-1.1-0.2
	c-0.9-0.6-0.9-1.3-0.9-2c0-1.4,0.6-1.9,1.5-2.5c1.3-0.9,1.5-1,2.2-1.7c0-0.8,0-1.5-1.1-1.5c-1.1,0-1.1,0.8-1.1,1.3
	c0,0.2,0,0.4,0,0.7h-1.3c0-0.3,0-1.3,0.1-1.8c0.4-1.3,2-1.3,2.3-1.3c0.7,0,1.3,0.1,1.8,0.7c0.6,0.6,0.6,1,0.6,2.2v4.2L231.9,247.9
	L231.9,247.9z M230.6,244.6c-0.4,0.4-0.4,0.4-1.2,1c-0.7,0.6-1.1,0.9-1.1,1.9c0,0.4,0,1.3,1,1.3c0.2,0,0.6-0.1,0.8-0.2
	c0.6-0.4,0.6-1,0.6-1.7L230.6,244.6L230.6,244.6z"/>
<path class="st4" d="M234.6,245.2c-0.7-0.6-1.2-1.1-1.2-2.2c0-1.9,1.2-2.3,2.3-2.3c0.8,0,1.3,0.2,1.7,0.6c0.6,0.6,0.6,1.4,0.6,2.2
	h-1.2c0-0.7,0-0.9-0.1-1.2c-0.2-0.4-0.7-0.4-0.8-0.4c-0.6,0-1,0.3-1,1c0,0.6,0.4,1,1.1,1.5l1,0.9c0.6,0.4,1.2,1,1.2,2.3
	c0,0.8-0.3,1.5-1,2c-0.4,0.3-1,0.4-1.7,0.4c-0.4,0-1.7,0-2.1-1.1c-0.2-0.4-0.2-1.1-0.2-2.1h1.3c0,0.6,0,1.2,0.1,1.4
	c0.1,0.3,0.6,0.7,1,0.7c0.6,0,1-0.3,1-1.1c0-0.7-0.2-1-0.9-1.5L234.6,245.2z"/>
<path class="st4" d="M242.2,241.9h-1.3v5.6c0,0.6,0,1.1,0.8,1.1c0.2,0,0.3,0,0.6-0.1v1.1c-0.2,0-0.4,0.1-0.8,0.1
	c-1.2,0-1.7-0.4-1.8-0.9c-0.2-0.4-0.2-0.6-0.2-2.2v-5h-1.1v-1.1h1.1v-2.4h1.4v2.4h1.3V241.9z"/>
<path class="st4" d="M244.6,239.3h-1.4v-1.9h1.4V239.3z M244.6,249.7h-1.4v-9h1.4V249.7z"/>
<path class="st4" d="M251,246.4c0,1.7,0,3.4-2.5,3.4c-1.1,0-2-0.4-2.2-1.4c-0.2-0.6-0.2-1.5-0.2-3c0-3.2,0.1-4.9,2.7-4.9
	c2.4,0,2.4,1.7,2.4,3.4h-1.3c0-1.5,0-2.3-1.1-2.3c-1.1,0-1.1,0.8-1.1,3.2c0,0.3,0,1.7,0,2.4c0,0.4,0,1.3,1.1,1.3
	c1.1,0,1.1-0.9,1.1-2.3h1.2V246.4z"/>
<path class="st4" d="M257.1,247.9c0,1.4,0,1.5,0.4,1.9h-1.8v-1.1c-0.2,0.4-0.7,1.2-1.9,1.2c-0.4,0-0.8-0.1-1.1-0.2
	c-0.9-0.6-0.9-1.3-0.9-2c0-1.4,0.6-1.9,1.5-2.5c1.3-0.9,1.5-1,2.2-1.7c0-0.8,0-1.5-1.1-1.5c-1.1,0-1.1,0.8-1.1,1.3
	c0,0.2,0,0.4,0,0.7h-1.1c0-0.3,0-1.3,0.1-1.8c0.4-1.3,2-1.3,2.3-1.3c0.7,0,1.3,0.1,1.8,0.7c0.6,0.6,0.6,1,0.6,2.2V247.9L257.1,247.9
	z M255.8,244.6c-0.4,0.4-0.4,0.4-1.2,1c-0.7,0.6-1.1,0.9-1.1,1.9c0,0.4,0,1.3,1,1.3c0.2,0,0.6-0.1,0.8-0.2c0.6-0.4,0.6-1,0.6-1.7
	L255.8,244.6L255.8,244.6z"/>
<path class="st4" d="M260.1,249.7h-1.3v-12.5h1.4v4.4c0.2-0.3,0.8-0.9,1.8-0.9s1.5,0.6,1.8,1c0.3,0.7,0.3,1.9,0.3,2.7
	c0,1,0,3.1-0.1,4c-0.2,1.3-1.3,1.7-2,1.7c-1,0-1.5-0.6-1.8-1L260.1,249.7L260.1,249.7z M260.1,246.3c0,0.9,0,1,0,1.3
	c0.1,1.1,1,1.2,1.3,1.2c0.9,0,1-0.8,1-1.1c0-0.6,0-1.4,0-2.4c0-2.4,0-3.5-1.1-3.5c-0.4,0-1,0.2-1.2,1c-0.1,0.2-0.1,0.4-0.1,1.5v2
	H260.1z"/>
<path class="st4" d="M266.9,249.7h-1.4v-12.5h1.4V249.7z"/>
<path class="st4" d="M273.3,247c0,0.6,0,1-0.1,1.5c-0.6,1.4-1.9,1.4-2.3,1.4c-0.6,0-1.8-0.1-2.3-1.3c-0.1-0.4-0.2-0.6-0.2-4.2
	c0-1.9,0.1-3.7,2.4-3.7c0.6,0,2.2,0,2.5,2c0.1,0.4,0.1,0.7,0.1,3h-3.5c0,0.7,0,1.5,0,1.9c0,0.3,0.1,1.2,1.1,1.2s1.1-0.9,1.1-1.8
	L273.3,247L273.3,247z M272,244.4v-1.1c0-0.4,0-1.5-1.1-1.5c-0.8,0-1,0.4-1,0.8c-0.1,0.3-0.1,0.7-0.1,1.9H272z"/>
<g>
	<path class="st4" d="M285.9,249.7h-1.3v-1c-0.2,0.3-0.7,1.1-1.9,1.1c-0.2,0-0.3,0-0.6-0.1c-1.4-0.3-1.5-1.9-1.5-4.5
		c0-0.9,0-2.5,0.2-3.2c0.2-0.9,0.9-1.4,1.9-1.4c1,0,1.4,0.6,1.7,0.9V237h1.4v12.7H285.9z M283.3,241.8c-1.1,0-1.1,1.1-1.1,1.8
		c0,1,0,1,0,2.4c0,0.4,0,0.9,0,1.4c0,0.3,0.1,1.3,1.1,1.3c1.2,0,1.2-1.2,1.2-3.4C284.6,243.2,284.6,241.8,283.3,241.8z"/>
	<path class="st4" d="M292.3,247c0,0.6,0,1-0.1,1.5c-0.6,1.4-1.9,1.4-2.3,1.4c-0.6,0-1.8-0.1-2.3-1.3c-0.1-0.4-0.2-0.6-0.2-4.2
		c0-1.9,0.1-3.7,2.4-3.7c0.6,0,2.2,0,2.5,2c0.1,0.4,0.1,0.7,0.1,3h-3.5c0,0.7,0,1.5,0,1.9c0,0.3,0.1,1.2,1.1,1.2s1.1-0.9,1.1-1.8
		L292.3,247L292.3,247z M291,244.4v-1.1c0-0.4,0-1.5-1.1-1.5c-0.8,0-1,0.4-1,0.8c-0.1,0.3-0.1,0.7-0.1,1.9H291z"/>
	<path class="st4" d="M302.2,249.7h-1.4V247h-3.2v-1.8l2.5-8.1h2.2v8.4h1.1v1.3h-1.1v2.9H302.2z M300.8,245.6l0.1-7l-2.1,7H300.8z"
		/>
	<path class="st4" d="M313.4,249.7h-1.4v-5.9c0-0.8,0-1.1-0.1-1.4c-0.1-0.4-0.4-0.8-1-0.8c-1.1,0-1.1,1.2-1.1,2.1v5.9h-1.4v-5.9
		c0-1.2,0-2.1-1.1-2.1s-1.1,1.1-1.1,2.1v5.8h-1.4v-8.9h1.3v0.9c0.2-0.3,0.8-1,1.9-1s1.5,0.7,1.8,1c0.3-0.3,0.8-1,1.9-1
		c0.2,0,0.9,0,1.4,0.6c0.6,0.6,0.6,1.2,0.6,2.7v6L313.4,249.7L313.4,249.7z"/>
	<path class="st4" d="M320.1,240.9v8.4c0,1.1,0,1.5-0.1,2c-0.4,1.2-1.9,1.4-2.7,1.4c-1,0-2.4-0.4-2.4-2.3h1.3c0,0.3,0,1.1,1.2,1.1
		c1.2,0,1.2-1,1.2-1.8v-1c-0.4,0.7-1.1,1-1.8,1c-0.7,0-1.4-0.2-1.8-1.2c-0.2-0.7-0.2-1.3-0.2-3.5c0-1.5,0-2.2,0.1-2.8
		c0.1-0.3,0.4-1.7,2-1.7c1.1,0,1.5,0.7,1.8,1v-0.8h1.3V240.9z M318.6,243.2c0-0.9-0.4-1.4-1.2-1.4c-1.2,0-1.2,1.3-1.2,2.7
		c0,0.9,0,2.4,0,3.1s0.3,1.2,1.1,1.2c0.7,0,1.1-0.4,1.2-1.1c0.1-0.4,0.1-1.7,0.1-2.2C318.7,245.4,318.7,243.4,318.6,243.2z"/>
	<path class="st4" d="M323.1,249.7h-1.5v-2.1h1.5V249.7z"/>
</g>
<g>
	<path class="st4" d="M132.4,89.8h2.8v1.7c0,0.9,0,1.7,1.3,1.7c1.3,0,1.3-0.9,1.3-2.2c0-1-0.2-1.4-0.9-2l-2.5-1.8
		c-1.3-1-1.8-2-1.8-3.4c0-1.1,0.1-2.2,1.1-3.1c0.6-0.4,1.5-0.9,3-0.9c1.5,0,3.8,0.7,3.8,3.2v1.4h-2.7v-1.1c0-0.7,0-1.5-1.2-1.5
		c-0.8,0-1.2,0.2-1.2,1.4c0,1.2,0.2,1.5,0.9,1.9l2.7,1.8c0.6,0.3,1.1,0.9,1.4,1.4c0.4,0.7,0.4,1.1,0.4,2.3c0,1.3,0,2.1-0.4,2.9
		c-0.8,1.3-2.5,1.4-3.5,1.4c-2.3,0-4.1-0.9-4.1-3.3v-1.8H132.4z"/>
	<path class="st4" d="M144.4,92c0,0.4,0,1.3,0.9,1.3c0.3,0,0.6-0.1,0.7-0.3c0.2-0.2,0.2-0.3,0.2-1.4h2.4v0.9c0,2.3-1.7,2.9-3.2,2.9
		c-2.4,0-3.4-1.3-3.4-3.4v-4.5c0-1.3,0.4-2.1,1.1-2.5s1.5-0.7,2.2-0.7c1,0,2,0.3,2.5,1s0.8,1.5,0.8,2.1v3.1h-4.3L144.4,92L144.4,92z
		 M144.4,88.4h1.8v-1.3c0-0.3,0-1.1-0.9-1.1c-0.7,0-0.9,0.4-0.9,1.1V88.4z"/>
	<path class="st4" d="M155.5,87.6c0-1.7,0-2.1,0.6-2.8c0.6-0.6,1.4-0.8,2.8-0.8c0.6,0,1.2,0.1,1.9,0.4c1.1,0.6,1.3,1.4,1.3,2v6
		c0,1.5,0,2.2,0.4,2.7h-2.7c-0.2-0.2-0.2-0.4-0.3-1c-0.6,0.6-1,1.2-2.1,1.2c-2.1,0-2.1-1.9-2.1-3c0-1.9,0-2.4,1.7-3.3l2.5-1.3
		c0-1,0-1.1,0-1.2c0-0.2-0.1-0.7-0.9-0.7c-0.9,0-0.9,0.6-0.9,1.8L155.5,87.6L155.5,87.6z M159.5,89.6l-1.2,0.8
		c-0.6,0.3-0.6,0.7-0.6,1.8c0,0.9,0.1,1.2,0.6,1.2c0.2,0,0.6-0.1,1.2-0.6V89.6z"/>
	<path class="st4" d="M168.2,80.3h2.4v14.8h-2.4v-1c-0.4,0.6-0.9,1.2-2.1,1.2c-1,0-1.8-0.6-2.1-1.1c-0.2-0.6-0.3-1.2-0.3-2.3V87
		c0-0.8,0.1-1.2,0.3-1.5c0.4-1,1.4-1.2,2-1.2c1,0,1.7,0.7,2.2,1.1L168.2,80.3L168.2,80.3z M166.2,91.9c0,0.6,0,1.2,1,1.2
		c1,0,1-1,1-1.3v-4.6c0-0.3,0-1.2-1-1.2c-1,0-1,0.9-1,1.3V91.9z"/>
	<path class="st4" d="M172.6,84.2h2.5v0.7c0.4-0.4,1.1-0.9,2.1-0.9c1.1,0,1.7,0.7,2,1.1c0.7-0.6,1.2-1.1,2.4-1.1
		c0.7,0,1.2,0.3,1.5,0.6c0.6,0.6,0.6,1.1,0.6,1.8v8.5h-2.4V87c0-0.6,0-1.2-0.9-1.2c-0.7,0-1,0.6-1,1.3v7.7H177V87
		c0-0.6,0-1.3-0.9-1.3c-0.7,0-1,0.6-1,1.3v8h-2.4V84.2C172.7,84.2,172.6,84.2,172.6,84.2z"/>
	<path class="st4" d="M185.6,80.3h2.4v2.5h-2.4V80.3z M185.6,84.2h2.5V95h-2.5V84.2z"/>
	<path class="st4" d="M190.1,84.2h2.5V85c0.6-0.4,1-1,2.1-1c0.8,0,1.3,0.3,1.7,0.7c0.6,0.6,0.6,1.2,0.6,1.9V95h-2.4v-7.9
		c0-0.6,0-1.3-0.9-1.3c-1,0-1,1-1,1.4V95h-2.4V84.2H190.1z"/>
	<path class="st4" d="M198.8,80.3h2.4v2.5h-2.4V80.3z M198.8,84.2h2.5V95h-2.5V84.2z"/>
	<path class="st4" d="M202.8,91.2h2.3c0,1.5,0,2.2,1,2.2c0.6,0,1-0.2,1-1.2c0-0.7,0-0.9-0.8-1.4l-2.1-1.4c-0.1-0.1-0.6-0.4-0.7-0.7
		c-0.2-0.3-0.6-0.8-0.6-1.9c0-2.2,1.4-2.8,3.2-2.8c2.2,0,3.1,1,3.1,2.4v1.2H207c0-1.2,0-1.9-0.9-1.9c-0.3,0-0.9,0.1-0.9,1
		c0,0.3,0,0.7,0.7,1.2l2.3,1.7c0.1,0.1,0.6,0.6,0.7,0.7c0.3,0.4,0.3,1,0.3,1.7c0,1.3,0,3.3-3.3,3.3c-2.7,0-3.2-1.3-3.2-2.9
		L202.8,91.2L202.8,91.2z"/>
	<path class="st4" d="M211.5,80.4h2.4v3.9h1.4v1.7h-1.5V92c0,0.7,0.1,1.2,1.1,1.2c0.2,0,0.2,0,0.4,0V95c-0.2,0-0.4,0.1-1.3,0.1
		c-2.3,0-2.7-0.9-2.7-2.2v-7h-1.3v-1.7h1.3L211.5,80.4L211.5,80.4z"/>
	<path class="st4" d="M216.6,84.2h2.4v1.3c0.4-0.8,1-1.5,2.4-1.5v2.4c-0.2-0.1-0.4-0.2-0.9-0.2c-1.7,0-1.7,1.4-1.7,2.3v6.3h-2.4
		V84.2C216.5,84.2,216.6,84.2,216.6,84.2z"/>
	<path class="st4" d="M222.3,87.6c0-1.7,0-2.1,0.6-2.8c0.6-0.6,1.4-0.8,2.8-0.8c0.6,0,1.2,0.1,1.9,0.4c1.1,0.6,1.3,1.4,1.3,2v6
		c0,1.5,0,2.2,0.4,2.7h-2.7c-0.2-0.2-0.2-0.4-0.3-1c-0.6,0.6-1,1.2-2.1,1.2c-2.1,0-2.1-1.9-2.1-3c0-1.9,0-2.4,1.7-3.3l2.5-1.3
		c0-1,0-1.1,0-1.2c0-0.2-0.1-0.7-0.9-0.7c-0.9,0-0.9,0.6-0.9,1.8L222.3,87.6L222.3,87.6z M226.3,89.6l-1.2,0.8
		c-0.6,0.3-0.6,0.7-0.6,1.8c0,0.9,0.1,1.2,0.6,1.2c0.2,0,0.6-0.1,1.2-0.6V89.6z"/>
	<path class="st4" d="M235.8,84.2h2.4V92c0,0.6,0,1.3,0.9,1.3c1,0,1-0.9,1-1.4v-7.5h2.5v10.7h-2.4v-0.9c-0.6,0.4-1.2,1-2.3,1
		c-0.7,0-1.8-0.3-2-1.7c-0.1-0.3-0.1-0.6-0.1-1.2L235.8,84.2L235.8,84.2z"/>
	<path class="st4" d="M244.5,84.2h2.5V85c0.6-0.4,1-1,2.1-1c0.8,0,1.3,0.3,1.7,0.7c0.6,0.6,0.6,1.2,0.6,1.9V95h-2.4v-7.9
		c0-0.6,0-1.3-0.9-1.3c-1,0-1,1-1,1.4V95h-2.4V84.2H244.5z"/>
	<path class="st4" d="M253.3,87.6c0-1.7,0-2.1,0.6-2.8c0.6-0.6,1.4-0.8,2.8-0.8c0.6,0,1.2,0.1,1.9,0.4c1.1,0.6,1.3,1.4,1.3,2v6
		c0,1.5,0,2.2,0.4,2.7h-2.7c-0.2-0.2-0.2-0.4-0.3-1c-0.6,0.6-1,1.2-2.1,1.2c-2.1,0-2.1-1.9-2.1-3c0-1.9,0-2.4,1.7-3.3l2.5-1.3
		c0-1,0-1.1,0-1.2c0-0.2-0.1-0.7-0.9-0.7c-0.9,0-0.9,0.6-0.9,1.8L253.3,87.6L253.3,87.6z M257.2,89.6l-1.2,0.8
		c-0.6,0.3-0.6,0.7-0.6,1.8c0,0.9,0.1,1.2,0.6,1.2c0.2,0,0.6-0.1,1.2-0.6V89.6z"/>
	<path class="st4" d="M265.9,84.2h2.4l1.1,7.4l1.3-7.4h2.4L270.6,95h-2.4L265.9,84.2z"/>
	<path class="st4" d="M276.5,92c0,0.4,0,1.3,0.9,1.3c0.3,0,0.6-0.1,0.7-0.3c0.2-0.2,0.2-0.3,0.2-1.4h2.4v0.9c0,2.3-1.7,2.9-3.2,2.9
		c-2.4,0-3.4-1.3-3.4-3.4v-4.5c0-1.3,0.4-2.1,1.1-2.5s1.5-0.7,2.2-0.7c1,0,2,0.3,2.5,1c0.6,0.7,0.8,1.5,0.8,2.1v3.1h-4.3L276.5,92
		L276.5,92z M276.5,88.4h1.8v-1.3c0-0.3,0-1.1-0.9-1.1c-0.7,0-0.9,0.4-0.9,1.1L276.5,88.4L276.5,88.4z"/>
	<path class="st4" d="M282.5,84.2h5.9v2l-3.8,6.6h3.9V95H282v-2.1l3.8-6.6h-3.3V84.2z"/>
	<path class="st4" d="M295.1,87.6c0-1.7,0-2.1,0.6-2.8c0.6-0.6,1.4-0.8,2.8-0.8c0.6,0,1.2,0.1,1.9,0.4c1.1,0.6,1.3,1.4,1.3,2v6
		c0,1.5,0,2.2,0.4,2.7h-2.7c-0.2-0.2-0.2-0.4-0.3-1c-0.6,0.6-1,1.2-2.1,1.2c-2.1,0-2.1-1.9-2.1-3c0-1.9,0-2.4,1.7-3.3l2.5-1.3
		c0-1,0-1.1,0-1.2c0-0.2-0.1-0.7-0.9-0.7c-0.9,0-0.9,0.6-0.9,1.8L295.1,87.6L295.1,87.6z M299.1,89.6l-1.2,0.8
		c-0.6,0.3-0.6,0.7-0.6,1.8c0,0.9,0.1,1.2,0.6,1.2c0.2,0,0.6-0.1,1.2-0.6V89.6z"/>
	<path class="st4" d="M303.4,80.3h2.5V95h-2.5V80.3z"/>
	<path class="st4" d="M317.4,80.3h2.4v14.8h-2.5v-1c-0.4,0.6-0.9,1.2-2.1,1.2c-1,0-1.8-0.6-2.1-1.1c-0.2-0.6-0.3-1.2-0.3-2.3V87
		c0-0.8,0.1-1.2,0.3-1.5c0.4-1,1.4-1.2,2-1.2c1,0,1.7,0.7,2.2,1.1L317.4,80.3L317.4,80.3z M315.4,91.9c0,0.6,0,1.2,1,1.2s1-1,1-1.3
		v-4.6c0-0.3,0-1.2-1-1.2s-1,0.9-1,1.3V91.9z"/>
	<path class="st4" d="M323,79.8h3.2c-1.1,1.1-1.4,1.4-2.7,2.8h-2L323,79.8z M321.7,84.2h2.5V95h-2.5V84.2z"/>
	<path class="st4" d="M326,87.6c0-1.7,0-2.1,0.6-2.8c0.6-0.6,1.4-0.8,2.8-0.8c0.6,0,1.2,0.1,1.9,0.4c1.1,0.6,1.3,1.4,1.3,2v6
		c0,1.5,0,2.2,0.4,2.7h-2.7c-0.2-0.2-0.2-0.4-0.3-1c-0.6,0.6-1,1.2-2.1,1.2c-2.1,0-2.1-1.9-2.1-3c0-1.9,0-2.4,1.7-3.3l2.5-1.3
		c0-1,0-1.1,0-1.2c0-0.2-0.1-0.7-0.9-0.7c-0.9,0-0.9,0.6-0.9,1.8L326,87.6L326,87.6z M330,89.6l-1.2,0.8c-0.6,0.3-0.6,0.7-0.6,1.8
		c0,0.9,0.1,1.2,0.6,1.2c0.2,0,0.6-0.1,1.2-0.6V89.6z"/>
	<path class="st4" d="M334.2,92.3h2.4V95l-1.8,2.9h-1l1.4-2.9h-1.2v-2.7H334.2z"/>
	<path class="st4" d="M136.9,98.4h2.4v14.8h-2.5v-1c-0.4,0.6-0.9,1.2-2.1,1.2c-1,0-1.8-0.6-2.1-1.1c-0.2-0.6-0.3-1.2-0.3-2.3v-4.9
		c0-0.8,0.1-1.2,0.3-1.5c0.4-1,1.4-1.2,2-1.2c1,0,1.7,0.7,2.2,1.1L136.9,98.4L136.9,98.4z M134.8,110c0,0.6,0,1.2,1,1.2
		c1,0,1-1,1-1.3v-4.6c0-0.3,0-1.2-1-1.2c-1,0-1,0.9-1,1.3V110z"/>
	<path class="st4" d="M143.6,110.1c0,0.4,0,1.3,0.9,1.3c0.3,0,0.6-0.1,0.7-0.3c0.2-0.2,0.2-0.3,0.2-1.4h2.4v0.9
		c0,2.3-1.7,2.9-3.2,2.9c-2.4,0-3.4-1.3-3.4-3.4v-4.5c0-1.3,0.4-2.1,1.1-2.5c0.7-0.4,1.5-0.7,2.2-0.7c1,0,2,0.3,2.5,1
		s0.8,1.5,0.8,2.1v3.1h-4.3L143.6,110.1L143.6,110.1z M143.6,106.6h1.8v-1.3c0-0.3,0-1.1-0.9-1.1c-0.7,0-0.9,0.4-0.9,1.1V106.6z"/>
	<path class="st4" d="M149.5,98.4h2.4v4.9c1.1-1,2-1.1,2.2-1.1c0.9,0,2.2,0.6,2.2,2.5v6.1c0,2.3-1.7,2.7-2.3,2.7
		c-1.3,0-1.9-0.8-2.2-1.2v1h-2.4V98.4H149.5z M154,105.4c0-0.3,0-1.2-0.9-1.2c-1.1,0-1.1,0.9-1.1,1.3v4.3c0,0.7,0.1,1.4,1,1.4
		c1,0,1-1,1-1.4L154,105.4L154,105.4z"/>
	<path class="st4" d="M160.6,110.1c0,0.4,0,1.3,0.9,1.3c0.3,0,0.6-0.1,0.7-0.3c0.2-0.2,0.2-0.3,0.2-1.4h2.4v0.9
		c0,2.3-1.7,2.9-3.2,2.9c-2.4,0-3.4-1.3-3.4-3.4v-4.5c0-1.3,0.4-2.1,1.1-2.5s1.5-0.7,2.2-0.7c1,0,2,0.3,2.5,1s0.8,1.5,0.8,2.1v3.1
		h-4.3L160.6,110.1L160.6,110.1z M160.6,106.6h1.8v-1.3c0-0.3,0-1.1-0.9-1.1c-0.7,0-0.9,0.4-0.9,1.1V106.6z"/>
	<path class="st4" d="M172.3,98.6h2.4v3.9h1.4v1.7h-1.5v6.1c0,0.7,0.1,1.2,1.1,1.2c0.2,0,0.2,0,0.4,0v1.8c-0.2,0-0.4,0.1-1.3,0.1
		c-2.3,0-2.7-0.9-2.7-2.2v-7h-1.3v-1.7h1.3L172.3,98.6L172.3,98.6z"/>
	<path class="st4" d="M177.3,105.4c0-1.3,0.4-3.1,3.4-3.1c0.8,0,1.7,0.2,2.2,0.6c0.9,0.7,1,1.5,1,2.4v5.1c0,1.9-1.2,3-3.4,3
		c-3.2,0-3.2-2.4-3.2-3.2V105.4z M179.8,110.6c0,0.2,0,1.1,0.9,1.1s0.9-0.8,0.9-1.1v-5.4c0-0.6-0.1-1.3-0.9-1.3
		c-0.9,0-0.9,0.8-0.9,1.3V110.6z"/>
	<path class="st4" d="M185.7,102.5h2.5v0.7c0.4-0.4,1.1-0.9,2.1-0.9c1.1,0,1.7,0.7,2,1.1c0.7-0.6,1.2-1.1,2.4-1.1
		c0.7,0,1.2,0.3,1.5,0.6c0.6,0.6,0.6,1.1,0.6,1.8v8.5h-2.4v-7.9c0-0.6,0-1.2-0.9-1.2c-0.7,0-1,0.6-1,1.3v7.7h-2.4v-7.9
		c0-0.6,0-1.3-0.9-1.3c-0.7,0-1,0.6-1,1.3v8h-2.4v-10.7C185.8,102.5,185.7,102.5,185.7,102.5z"/>
	<path class="st4" d="M198.7,105.7c0-1.7,0-2.1,0.6-2.8c0.6-0.6,1.4-0.8,2.8-0.8c0.6,0,1.2,0.1,1.9,0.4c1.1,0.6,1.3,1.4,1.3,2v6
		c0,1.5,0,2.2,0.4,2.7H203c-0.2-0.2-0.2-0.4-0.3-1c-0.6,0.6-1,1.2-2.1,1.2c-2.1,0-2.1-1.9-2.1-3c0-1.9,0-2.4,1.7-3.3l2.5-1.3
		c0-1,0-1.1,0-1.2c0-0.2-0.1-0.7-0.9-0.7c-0.9,0-0.9,0.6-0.9,1.8L198.7,105.7L198.7,105.7z M202.7,107.8l-1.2,0.8
		c-0.6,0.3-0.6,0.7-0.6,1.8c0,0.9,0.1,1.2,0.6,1.2c0.2,0,0.6-0.1,1.2-0.6V107.8z"/>
	<path class="st4" d="M207.1,102.5h2.4v1.3c0.4-0.8,1-1.5,2.4-1.5v2.4c-0.2-0.1-0.4-0.2-0.9-0.2c-1.7,0-1.7,1.4-1.7,2.3v6.3H207
		v-10.6C207,102.5,207.1,102.5,207.1,102.5z"/>
	<path class="st4" d="M212.6,109.4h2.3c0,1.5,0,2.2,1,2.2c0.6,0,1-0.2,1-1.2c0-0.7,0-0.9-0.8-1.4l-2.1-1.4c-0.1-0.1-0.6-0.4-0.7-0.7
		c-0.2-0.3-0.6-0.8-0.6-1.9c0-2.2,1.4-2.8,3.2-2.8c2.2,0,3.1,1,3.1,2.4v1.2H217c0-1.2,0-1.9-0.9-1.9c-0.3,0-0.9,0.1-0.9,1
		c0,0.3,0,0.7,0.7,1.2l2.3,1.7c0.1,0.1,0.6,0.6,0.7,0.7c0.3,0.4,0.3,1,0.3,1.7c0,1.3,0,3.3-3.3,3.3c-2.7,0-3.2-1.3-3.2-2.9
		L212.6,109.4L212.6,109.4z"/>
	<path class="st4" d="M223.2,110.1c0,0.4,0,1.3,0.9,1.3c0.3,0,0.6-0.1,0.7-0.3c0.2-0.2,0.2-0.3,0.2-1.4h2.4v0.9
		c0,2.3-1.7,2.9-3.2,2.9c-2.4,0-3.4-1.3-3.4-3.4v-4.5c0-1.3,0.4-2.1,1.1-2.5c0.7-0.4,1.5-0.7,2.2-0.7c1,0,2,0.3,2.5,1
		s0.8,1.5,0.8,2.1v3.1H223L223.2,110.1L223.2,110.1z M223.2,106.6h1.8v-1.3c0-0.3,0-1.1-0.9-1.1c-0.7,0-0.9,0.4-0.9,1.1V106.6z"/>
	<path class="st4" d="M234.3,102.5h2.4v0.8c0.4-0.3,1.2-1,2.2-1c0.7,0,1.2,0.2,1.7,0.7c0.4,0.6,0.6,1.2,0.6,2.1v5.6
		c0,0.8-0.2,1.3-0.3,1.7c-0.3,0.7-1.1,1-1.9,1c-1,0-1.7-0.6-2.3-1.1v4.5h-2.4v-14.3H234.3z M236.9,110.1c0,0.7,0.2,1.2,1,1.2
		c0.9,0,1-0.7,1-1.1v-5c0-0.8-0.3-1.2-1-1.2c-1,0-1,0.9-1,1.2V110.1z"/>
	<path class="st4" d="M243,105.4c0-1.3,0.4-3.1,3.4-3.1c0.8,0,1.7,0.2,2.2,0.6c0.9,0.7,1,1.5,1,2.4v5.1c0,1.9-1.2,3-3.4,3
		c-3.2,0-3.2-2.4-3.2-3.2V105.4z M245.4,110.6c0,0.2,0,1.1,0.9,1.1s0.9-0.8,0.9-1.1v-5.4c0-0.6-0.1-1.3-0.9-1.3
		c-0.9,0-0.9,0.8-0.9,1.3V110.6z"/>
	<path class="st4" d="M251.4,102.5h2.4v1.3c0.4-0.8,1-1.5,2.4-1.5v2.4c-0.2-0.1-0.4-0.2-0.9-0.2c-1.7,0-1.7,1.4-1.7,2.3v6.3h-2.4
		v-10.6C251.3,102.5,251.4,102.5,251.4,102.5z"/>
	<path class="st4" d="M262.7,98.4h2.5v14.7h-2.5V98.4z"/>
	<path class="st4" d="M267,105.7c0-1.7,0-2.1,0.6-2.8c0.6-0.6,1.4-0.8,2.8-0.8c0.6,0,1.2,0.1,1.9,0.4c1.1,0.6,1.3,1.4,1.3,2v6
		c0,1.5,0,2.2,0.4,2.7h-2.7c-0.2-0.2-0.2-0.4-0.3-1c-0.6,0.6-1,1.2-2.1,1.2c-2.1,0-2.1-1.9-2.1-3c0-1.9,0-2.4,1.7-3.3l2.5-1.3
		c0-1,0-1.1,0-1.2c0-0.2-0.1-0.7-0.9-0.7c-0.9,0-0.9,0.6-0.9,1.8L267,105.7L267,105.7z M271,107.8l-1.2,0.8
		c-0.6,0.3-0.6,0.7-0.6,1.8c0,0.9,0.1,1.2,0.6,1.2c0.2,0,0.6-0.1,1.2-0.6V107.8z"/>
	<path class="st4" d="M280.6,102.5h2.5v0.8c0.6-0.4,1-1,2.1-1c0.8,0,1.3,0.3,1.7,0.7c0.6,0.6,0.6,1.2,0.6,1.9v8.4H285v-7.9
		c0-0.6,0-1.3-0.9-1.3c-1,0-1,1-1,1.4v7.7h-2.4L280.6,102.5L280.6,102.5z"/>
	<path class="st4" d="M289.1,105.4c0-1.3,0.4-3.1,3.4-3.1c0.8,0,1.7,0.2,2.2,0.6c0.9,0.7,1,1.5,1,2.4v5.1c0,1.9-1.2,3-3.4,3
		c-3.2,0-3.2-2.4-3.2-3.2V105.4z M291.7,110.6c0,0.2,0,1.1,0.9,1.1s0.9-0.8,0.9-1.1v-5.4c0-0.6-0.1-1.3-0.9-1.3
		c-0.9,0-0.9,0.8-0.9,1.3V110.6z"/>
	<path class="st4" d="M301.9,106.5v-1.3c0-0.3,0-1.2-0.9-1.2c-1,0-1,1-1,1.4v4.6c0,0.6,0,1.4,1,1.4s1-1,1-1.3v-1.2h2.4v1.2
		c0,2.2-1.2,3.2-3.4,3.2c-0.6,0-1.7-0.1-2.5-0.8c-0.8-0.7-1-1.5-1-2.4v-4.6c0-0.8,0.1-1.5,0.6-2.1c0.7-0.9,1.8-1.2,2.9-1.2
		c0.9,0,1.9,0.2,2.5,0.8c0.7,0.6,0.9,1.2,0.9,2.2v1.3C304.3,106.5,301.9,106.5,301.9,106.5z"/>
	<path class="st4" d="M305.6,98.4h2.4v4.9c0.4-0.4,1-1.1,2.2-1.1c0.8,0,2.2,0.3,2.2,2.5v8.4h-2.4v-7.6c0-0.6,0-1.3-0.9-1.3
		c-0.7,0-1,0.4-1,1.1v7.7h-2.4V98.4H305.6z"/>
	<path class="st4" d="M316.7,110.1c0,0.4,0,1.3,0.9,1.3c0.3,0,0.6-0.1,0.7-0.3c0.2-0.2,0.2-0.3,0.2-1.4h2.4v0.9
		c0,2.3-1.7,2.9-3.2,2.9c-2.4,0-3.4-1.3-3.4-3.4v-4.5c0-1.3,0.4-2.1,1.1-2.5s1.5-0.7,2.2-0.7c1,0,2,0.3,2.5,1
		c0.6,0.7,0.8,1.5,0.8,2.1v3.1h-4.3L316.7,110.1L316.7,110.1z M316.7,106.6h1.8v-1.3c0-0.3,0-1.1-0.9-1.1c-0.7,0-0.9,0.4-0.9,1.1
		L316.7,106.6L316.7,106.6z"/>
	<path class="st4" d="M322.5,110.5h2.4v2.7h-2.4V110.5z"/>
</g>
</svg>
