<?xml version="1.0" encoding="utf-8"?>
<!-- Generator: Adobe Illustrator 22.0.0, SVG Export Plug-In . SVG Version: 6.00 Build 0)  -->
<svg version="1.1" id="Capa_1" xmlns="http://www.w3.org/2000/svg" xmlns:xlink="http://www.w3.org/1999/xlink" x="0px" y="0px"
	 viewBox="0 0 130 37" style="enable-background:new 0 0 130 37;" xml:space="preserve">
<style type="text/css">
	.st0{fill:url(#SVGID_1_);}
	.st1{fill:#93DBE5;}
	.st2{fill:#0E6F7F;}
</style>
<g>
	
		<linearGradient id="SVGID_1_" gradientUnits="userSpaceOnUse" x1="65" y1="1544.9509" x2="65" y2="1508" gradientTransform="matrix(1 0 0 1 0 -1508)">
		<stop  offset="0" style="stop-color:#158AA7"/>
		<stop  offset="1" style="stop-color:#62C6EA"/>
	</linearGradient>
	<path class="st0" d="M130,18.5c0,10.2-8.5,18.5-18.9,18.5H18.9C8.5,37,0,28.6,0,18.5S8.5,0,18.9,0h92.2C121.5,0,130,8.3,130,18.5z"
		/>
</g>
<g>
	<path class="st1" d="M11.1,17.5h4.6v2.1h-4.6v5.5h-2V12.2h7.2v2.2h-5.2C11.1,14.4,11.1,17.5,11.1,17.5z"/>
	<path class="st1" d="M17,18.6c0-0.5,0.1-0.8,0.3-1.4c0.7-1.6,2.6-1.6,3.1-1.6c0.7,0,1.6,0.1,2.3,0.6c0.9,0.7,0.9,1.5,0.9,2.5v4.9
		c0,0.7,0,0.9,0.3,1.5h-2.2c0-0.2,0-0.6,0-0.7c-0.4,0.4-1.2,0.9-2.3,0.9c-1.8,0-2.8-1.3-2.8-2.9c0-0.5,0.1-0.9,0.2-1.2
		c0.6-1.3,1.8-1.6,2.5-1.8c1.6-0.4,1.7-0.4,2.4-0.7c0-0.5,0-1.4-1.3-1.4c-0.8,0-1.2,0.3-1.4,0.6c-0.2,0.3-0.2,0.5-0.2,0.8L17,18.6z
		 M21.8,20.5c-0.4,0.2-0.8,0.4-1.6,0.5c-0.7,0.1-1.6,0.3-1.6,1.3c0,0.7,0.5,1.1,1.3,1.1c0.9,0,1.6-0.5,1.8-1.1
		c0.1-0.3,0.1-0.5,0.1-0.8C21.8,21.5,21.8,20.5,21.8,20.5z"/>
	<path class="st1" d="M27.4,15.9v1.3c0.2-0.5,0.7-1.6,2.5-1.5V18c-0.4,0-1.1,0-1.7,0.5c-0.8,0.7-0.8,1.6-0.8,3.2v3.4h-1.8v-9.2
		C25.6,15.9,27.4,15.9,27.4,15.9z"/>
	<path class="st1" d="M31.1,15.9H33v1c0.6-0.9,1.7-1.3,2.4-1.3s1.6,0.3,2.2,1.4c0.3-0.5,1.1-1.4,2.5-1.4c0.8,0,1.5,0.3,2,0.9
		c0.6,0.8,0.6,1.8,0.6,2.7V25h-1.8v-5c0-0.9,0.1-2.3-1.3-2.3c-0.6,0-1.1,0.4-1.3,0.9c-0.4,0.7-0.4,1.4-0.4,2.2v4.3H36V20
		c0-0.7,0-0.9-0.1-1.2c-0.1-0.6-0.5-1.1-1.2-1.1c-0.6,0-1.1,0.4-1.4,1.1C33,19.5,33,20.4,33,21.3v3.8h-1.8v-9.2
		C31.2,15.9,31.1,15.9,31.1,15.9z"/>
	<path class="st1" d="M44.4,18.6c0-0.5,0.1-0.8,0.3-1.4c0.7-1.6,2.6-1.6,3.1-1.6c0.7,0,1.6,0.1,2.3,0.6c0.9,0.7,0.9,1.5,0.9,2.5v4.9
		c0,0.7,0,0.9,0.3,1.5h-2.2c0-0.2,0-0.6,0-0.7c-0.4,0.4-1.2,0.9-2.3,0.9C45,25.3,44,24,44,22.4c0-0.5,0.1-0.9,0.2-1.2
		c0.6-1.3,1.8-1.6,2.5-1.8c1.6-0.4,1.7-0.4,2.4-0.7c0-0.5,0-1.4-1.3-1.4c-0.8,0-1.2,0.3-1.4,0.6c-0.2,0.3-0.2,0.5-0.2,0.8L44.4,18.6
		z M49.2,20.5c-0.4,0.2-0.8,0.4-1.6,0.5c-0.7,0.1-1.6,0.3-1.6,1.3c0,0.7,0.5,1.1,1.3,1.1c0.9,0,1.6-0.5,1.8-1.1
		c0.1-0.3,0.1-0.5,0.1-0.8V20.5z"/>
	<path class="st1" d="M58.1,19.2c-0.1-0.6-0.7-1.6-1.8-1.6s-1.9,1-1.9,2.8c0,1.6,0.7,2.9,2,2.9c1.2,0,1.6-1.1,1.9-1.8l1.6,1
		c-0.6,2-2.1,2.9-3.5,2.9c-2.2,0-3.8-2-3.8-4.9c0-2.8,1.7-4.9,3.9-4.9c2,0,2.9,1.5,3.3,2.6L58.1,19.2z"/>
	<path class="st1" d="M64.4,25.4c-2.4,0-4-2.1-4-4.9s1.6-4.8,4-4.8c2.2,0,4,1.8,4,4.8C68.4,23.3,66.8,25.4,64.4,25.4z M64.3,17.6
		c-1.2,0-2,1.1-2,2.8c0,1.9,1,2.9,2.1,2.9c1.3,0,2-1.4,2-2.9S65.6,17.6,64.3,17.6z"/>
	<path class="st1" d="M74.9,19.2c-0.1-0.6-0.7-1.6-1.8-1.6s-1.9,1-1.9,2.8c0,1.6,0.7,2.9,2,2.9c1.2,0,1.6-1.1,1.9-1.8l1.6,1
		c-0.6,2-2.1,2.9-3.5,2.9c-2.2,0-3.8-2-3.8-4.9c0-2.8,1.7-4.9,3.9-4.9c2,0,2.9,1.5,3.3,2.6L74.9,19.2z"/>
	<path class="st1" d="M79.5,12.3v2.2h-1.8v-2.2H79.5z M79.5,15.9v9.2h-1.8v-9.2C77.7,15.9,79.5,15.9,79.5,15.9z"/>
	<path class="st1" d="M81.5,15.9h1.9V17c0.1-0.2,0.3-0.5,0.6-0.7c0.5-0.4,1.2-0.6,1.8-0.6c0.9,0,1.6,0.5,2,1.1
		c0.5,0.8,0.5,1.8,0.5,2.9v5.4h-1.8v-4.7c0-0.7,0-1.1-0.1-1.4c-0.2-0.8-0.7-1.2-1.3-1.2s-1.2,0.4-1.4,1c-0.3,0.7-0.3,1.6-0.3,2.3v4
		h-1.9C81.5,25.1,81.5,15.9,81.5,15.9z"/>
	<path class="st1" d="M97.5,23c-1,1.5-2.2,2.3-3.8,2.3c-2,0-4-1.5-4-4.9c0-3.1,1.7-4.8,3.9-4.8c2,0,2.9,1.4,3.1,1.7
		c0.6,1.1,0.8,2.7,0.8,3.6h-5.7c0.2,1.4,1,2.3,2.2,2.3c1.3,0,1.8-0.9,2-1.3L97.5,23z M95.4,19.3c-0.2-1.4-0.9-1.9-1.7-1.9
		c-1,0-1.7,0.7-1.9,1.9H95.4z M95.9,12.2l-1.7,2.4h-1.4l0.8-2.4C93.6,12.2,95.9,12.2,95.9,12.2z"/>
	<path class="st1" d="M101,17.5v4.1c0,1.1,0,1.6,0.9,1.6c0.3,0,0.5,0,0.8-0.1V25c-0.6,0.1-0.9,0.1-1.3,0.1s-1.7,0-2-1.1
		c-0.1-0.4-0.1-1-0.1-1.9v-4.7H98v-1.6h1.1v-3.2h1.9v3.2h1.7v1.6L101,17.5L101,17.5z"/>
	<path class="st1" d="M105.6,12.3v2.2h-1.8v-2.2H105.6z M105.6,15.9v9.2h-1.8v-9.2C103.8,15.9,105.6,15.9,105.6,15.9z"/>
	<path class="st1" d="M112.6,19.2c-0.1-0.6-0.7-1.6-1.8-1.6s-1.9,1-1.9,2.8c0,1.6,0.7,2.9,2,2.9c1.2,0,1.6-1.1,1.9-1.8l1.6,1
		c-0.6,2-2.1,2.9-3.5,2.9c-2.2,0-3.8-2-3.8-4.9c0-2.8,1.7-4.9,3.9-4.9c2,0,2.9,1.5,3.3,2.6L112.6,19.2z"/>
	<path class="st1" d="M115.5,18.6c0-0.5,0.1-0.8,0.3-1.4c0.7-1.6,2.6-1.6,3.1-1.6c0.7,0,1.6,0.1,2.3,0.6c0.9,0.7,0.9,1.5,0.9,2.5
		v4.9c0,0.7,0,0.9,0.3,1.5h-2.2c0-0.2,0-0.6,0-0.7c-0.4,0.4-1.2,0.9-2.3,0.9c-1.8,0-2.8-1.3-2.8-2.9c0-0.5,0.1-0.9,0.2-1.2
		c0.6-1.3,1.8-1.6,2.5-1.8c1.6-0.4,1.7-0.4,2.4-0.7c0-0.5,0-1.4-1.3-1.4c-0.8,0-1.2,0.3-1.4,0.6c-0.2,0.3-0.2,0.5-0.2,0.8
		L115.5,18.6z M120.3,20.5c-0.4,0.2-0.8,0.4-1.6,0.5c-0.7,0.1-1.5,0.3-1.5,1.3c0,0.7,0.5,1.1,1.3,1.1c0.9,0,1.6-0.5,1.8-1.1
		c0.1-0.3,0.1-0.5,0.1-0.8v-1H120.3z"/>
</g>
<g>
	<path class="st2" d="M11.1,17h4.6v2.1h-4.6v5.5h-2v-13h7.2v2.2h-5.2C11.1,13.8,11.1,17,11.1,17z"/>
	<path class="st2" d="M17,18.1c0-0.5,0.1-0.8,0.3-1.4c0.7-1.6,2.6-1.6,3.1-1.6c0.7,0,1.6,0.1,2.3,0.6c0.9,0.7,0.9,1.5,0.9,2.5v4.9
		c0,0.7,0,0.9,0.3,1.5h-2.2c0-0.2,0-0.6,0-0.7c-0.4,0.4-1.2,0.9-2.3,0.9c-1.8,0-2.8-1.3-2.8-2.9c0-0.5,0.1-0.9,0.2-1.2
		c0.6-1.3,1.8-1.6,2.5-1.8c1.6-0.4,1.7-0.4,2.4-0.7c0-0.5,0-1.4-1.3-1.4c-0.8,0-1.2,0.3-1.4,0.6c-0.2,0.3-0.2,0.5-0.2,0.8L17,18.1z
		 M21.8,20c-0.4,0.2-0.8,0.4-1.6,0.5c-0.7,0.1-1.6,0.3-1.6,1.3c0,0.7,0.5,1.1,1.3,1.1c0.9,0,1.6-0.5,1.8-1.1
		c0.1-0.3,0.1-0.5,0.1-0.8C21.8,21,21.8,20,21.8,20z"/>
	<path class="st2" d="M27.4,15.4v1.3c0.2-0.5,0.7-1.6,2.5-1.5v2.3c-0.4,0-1.1,0-1.7,0.5c-0.8,0.7-0.8,1.6-0.8,3.2v3.4h-1.8v-9.2
		C25.6,15.4,27.4,15.4,27.4,15.4z"/>
	<path class="st2" d="M31.1,15.4H33v1c0.6-0.9,1.7-1.3,2.4-1.3s1.6,0.3,2.2,1.4c0.3-0.5,1.1-1.4,2.5-1.4c0.8,0,1.5,0.3,2,0.9
		c0.6,0.8,0.6,1.8,0.6,2.7v5.9h-1.8v-5.1c0-0.9,0.1-2.3-1.3-2.3c-0.6,0-1.1,0.4-1.3,0.9c-0.4,0.7-0.4,1.4-0.4,2.2v4.3H36v-5.1
		c0-0.7,0-0.9-0.1-1.2c-0.1-0.6-0.5-1.1-1.2-1.1c-0.6,0-1.1,0.4-1.4,1.1C33,19,33,19.8,33,20.7v3.9h-1.8v-9.2
		C31.2,15.4,31.1,15.4,31.1,15.4z"/>
	<path class="st2" d="M44.4,18.1c0-0.5,0.1-0.8,0.3-1.4c0.7-1.6,2.6-1.6,3.1-1.6c0.7,0,1.6,0.1,2.3,0.6c0.9,0.7,0.9,1.5,0.9,2.5v4.9
		c0,0.7,0,0.9,0.3,1.5h-2.2c0-0.2,0-0.6,0-0.7c-0.4,0.4-1.2,0.9-2.3,0.9c-1.8,0-2.8-1.3-2.8-2.9c0-0.5,0.1-0.9,0.2-1.2
		c0.6-1.3,1.8-1.6,2.5-1.8c1.6-0.4,1.7-0.4,2.4-0.7c0-0.5,0-1.4-1.3-1.4c-0.8,0-1.2,0.3-1.4,0.6c-0.2,0.3-0.2,0.5-0.2,0.8L44.4,18.1
		z M49.2,20c-0.4,0.2-0.8,0.4-1.6,0.5c-0.7,0.1-1.6,0.3-1.6,1.3c0,0.7,0.5,1.1,1.3,1.1c0.9,0,1.6-0.5,1.8-1.1
		c0.1-0.3,0.1-0.5,0.1-0.8V20z"/>
	<path class="st2" d="M58.1,18.7c-0.1-0.6-0.7-1.6-1.8-1.6s-1.9,1-1.9,2.8c0,1.6,0.7,2.9,2,2.9c1.2,0,1.6-1.1,1.9-1.8l1.6,1
		c-0.6,2-2.1,2.9-3.5,2.9c-2.2,0-3.8-2-3.8-4.9c0-2.8,1.7-4.9,3.9-4.9c2,0,2.9,1.5,3.3,2.6L58.1,18.7z"/>
	<path class="st2" d="M64.4,24.8c-2.4,0-4-2.1-4-4.9s1.6-4.8,4-4.8c2.2,0,4,1.8,4,4.8C68.4,22.8,66.8,24.8,64.4,24.8z M64.3,17.1
		c-1.2,0-2,1.1-2,2.8c0,1.9,1,2.9,2.1,2.9c1.3,0,2-1.4,2-2.9S65.6,17.1,64.3,17.1z"/>
	<path class="st2" d="M74.9,18.7c-0.1-0.6-0.7-1.6-1.8-1.6s-1.9,1-1.9,2.8c0,1.6,0.7,2.9,2,2.9c1.2,0,1.6-1.1,1.9-1.8l1.6,1
		c-0.6,2-2.1,2.9-3.5,2.9c-2.2,0-3.8-2-3.8-4.9c0-2.8,1.7-4.9,3.9-4.9c2,0,2.9,1.5,3.3,2.6L74.9,18.7z"/>
	<path class="st2" d="M79.5,11.8V14h-1.8v-2.2H79.5z M79.5,15.4v9.2h-1.8v-9.2C77.7,15.4,79.5,15.4,79.5,15.4z"/>
	<path class="st2" d="M81.5,15.4h1.9v1.1c0.1-0.2,0.3-0.5,0.6-0.7c0.5-0.4,1.2-0.6,1.8-0.6c0.9,0,1.6,0.5,2,1.1
		c0.5,0.8,0.5,1.8,0.5,2.9v5.4h-1.8v-4.7c0-0.7,0-1.1-0.1-1.4c-0.2-0.8-0.7-1.2-1.3-1.2s-1.2,0.4-1.4,1c-0.3,0.7-0.3,1.6-0.3,2.3v4
		h-1.9C81.5,24.6,81.5,15.4,81.5,15.4z"/>
	<path class="st2" d="M97.5,22.5c-1,1.5-2.2,2.3-3.8,2.3c-2,0-4-1.5-4-4.9c0-3.1,1.7-4.8,3.9-4.8c2,0,2.9,1.4,3.1,1.7
		c0.6,1.1,0.8,2.7,0.8,3.6h-5.7c0.2,1.4,1,2.3,2.2,2.3c1.3,0,1.8-0.9,2-1.3L97.5,22.5z M95.4,18.8c-0.2-1.4-0.9-1.9-1.7-1.9
		c-1,0-1.7,0.7-1.9,1.9H95.4z M95.9,11.6L94.2,14h-1.4l0.8-2.4H95.9z"/>
	<path class="st2" d="M101,17v4.1c0,1.1,0,1.6,0.9,1.6c0.3,0,0.5,0,0.8-0.1v1.8c-0.6,0.1-0.9,0.1-1.3,0.1s-1.7,0-2-1.1
		c-0.1-0.4-0.1-1-0.1-1.9v-4.7H98v-1.6h1.1V12h1.9v3.2h1.7v1.6H101V17z"/>
	<path class="st2" d="M105.6,11.8V14h-1.8v-2.2H105.6z M105.6,15.4v9.2h-1.8v-9.2C103.8,15.4,105.6,15.4,105.6,15.4z"/>
	<path class="st2" d="M112.6,18.7c-0.1-0.6-0.7-1.6-1.8-1.6s-1.9,1-1.9,2.8c0,1.6,0.7,2.9,2,2.9c1.2,0,1.6-1.1,1.9-1.8l1.6,1
		c-0.6,2-2.1,2.9-3.5,2.9c-2.2,0-3.8-2-3.8-4.9c0-2.8,1.7-4.9,3.9-4.9c2,0,2.9,1.5,3.3,2.6L112.6,18.7z"/>
	<path class="st2" d="M115.5,18.1c0-0.5,0.1-0.8,0.3-1.4c0.7-1.6,2.6-1.6,3.1-1.6c0.7,0,1.6,0.1,2.3,0.6c0.9,0.7,0.9,1.5,0.9,2.5
		v4.9c0,0.7,0,0.9,0.3,1.5h-2.2c0-0.2,0-0.6,0-0.7c-0.4,0.4-1.2,0.9-2.3,0.9c-1.8,0-2.8-1.3-2.8-2.9c0-0.5,0.1-0.9,0.2-1.2
		c0.6-1.3,1.8-1.6,2.5-1.8c1.6-0.4,1.7-0.4,2.4-0.7c0-0.5,0-1.4-1.3-1.4c-0.8,0-1.2,0.3-1.4,0.6c-0.2,0.3-0.2,0.5-0.2,0.8
		L115.5,18.1z M120.3,20c-0.4,0.2-0.8,0.4-1.6,0.5c-0.7,0.1-1.5,0.3-1.5,1.3c0,0.7,0.5,1.1,1.3,1.1c0.9,0,1.6-0.5,1.8-1.1
		c0.1-0.3,0.1-0.5,0.1-0.8v-1H120.3z"/>
</g>
</svg>
