<svg enable-background="new 0 0 910.9 51.8" viewBox="0 0 910.9 51.8" xmlns="http://www.w3.org/2000/svg"><g fill="#485c67"><path d="m.6 1.8h3.5v16.2h5.2v2.9h-8.7z"/><path d="m10.4 10.8c0-1.7.6-4 4.4-4 1 0 2 .2 2.9.8 1 .7 1.5 1.9 1.4 3.1v6.6c0 2.5-1.6 3.9-4.4 3.9-4.2 0-4.2-3.2-4.2-4.2zm3.2 6.7c0 .4 0 1.4 1.1 1.4s1.1-1 1.1-1.5v-7c0-.8-.1-1.7-1.1-1.7-1.2 0-1.2 1-1.2 1.7v7.1z"/><path d="m20.8 16h3c0 2 0 2.8 1.3 2.8.7 0 1.2-.3 1.2-1.5.1-.7-.3-1.5-1-1.8l-2.7-1.9c-.3-.3-.6-.6-.9-.9-.6-.7-.9-1.5-.8-2.4 0-2.9 1.9-3.6 4.2-3.6 2.8 0 4 1.2 4 3.2v1.5h-2.8c0-1.6 0-2.5-1.2-2.5-.5 0-1.1.1-1.1 1.2 0 .4 0 .9.9 1.5l3 2.1c.3.3.6.6.9.9.4.7.5 1.4.5 2.2 0 1.8 0 4.3-4.3 4.3-3.5 0-4.2-1.8-4.2-3.7z"/><path d="m37.6 7.1h3.2l1.4 9.6 1.6-9.6h3.2l-3.3 13.8h-3.1z"/><path d="m48.2 11.3c0-2.1 0-2.8.8-3.5 1-.8 2.3-1.1 3.5-1 .9 0 1.7.1 2.5.5 1 .4 1.6 1.4 1.6 2.5v7.7c0 2 0 2.9.6 3.4h-3.4c-.3-.3-.4-.8-.4-1.2-.6.9-1.7 1.5-2.8 1.5-2.7 0-2.7-2.5-2.7-3.8 0-2.4 0-3.2 2.1-4.3l3.3-1.7c0-.5 0-1 0-1.5 0-.3-.1-.9-1.1-.9s-1.1.6-1.1 2.3zm5.2 2.6-1.6 1c-.7.4-.7.9-.7 2.3 0 1.1.2 1.5.8 1.5.3 0 .8-.1 1.5-.8z"/><path d="m59 1.8h3.2v19h-3.2z"/><path d="m64.4 10.8c0-1.7.6-4 4.4-4 1 0 2 .2 2.9.8 1 .7 1.5 1.9 1.3 3.1v6.6c0 2.5-1.6 3.9-4.4 3.9-4.2 0-4.2-3.2-4.2-4.2zm3.3 6.7c0 .4 0 1.4 1.1 1.4s1.1-1 1.1-1.5v-7c0-.8-.1-1.7-1.1-1.7-1.2 0-1.2 1-1.2 1.7v7.1z"/><path d="m75.3 7.1h3.2v1.8c.5-1.3 1.8-2.1 3.2-2v3.1c-.3-.1-.7-.2-1.1-.2-2.1 0-2.1 1.9-2.1 3v8.1h-3.2z"/><path d="m85.7 17c0 .6 0 1.7 1.2 1.7.3 0 .7-.1.9-.4s.2-.5.2-1.9h3.1v1.1c0 3-2.2 3.7-4.2 3.7-3.2 0-4.4-1.6-4.4-4.4v-5.9c-.1-1.3.5-2.6 1.5-3.3.9-.5 1.9-.8 2.9-.8 1.2 0 2.4.4 3.3 1.2.7.8 1 1.7 1 2.8v3.9h-5.6v2.3zm0-4.5h2.3v-1.7c0-.4 0-1.4-1.1-1.4-.8 0-1.2.5-1.2 1.4z"/><path d="m92.9 16h3c0 2 0 2.8 1.3 2.8.7 0 1.2-.3 1.2-1.5.1-.7-.3-1.5-.9-1.8l-2.7-1.9c-.3-.3-.6-.6-.9-.9-.6-.7-.8-1.6-.8-2.4 0-2.9 1.9-3.6 4.2-3.6 2.8 0 3.9 1.2 3.9 3.2v1.5h-2.8c0-1.6 0-2.5-1.2-2.5-.5 0-1.1.1-1.1 1.2 0 .4 0 .9.9 1.5l3 2.1c.3.3.6.6.9.9.4.7.5 1.4.5 2.2 0 1.8 0 4.3-4.3 4.3-3.5 0-4.2-1.8-4.2-3.7z"/><path d="m110.8 7.1h3.2v1c.8-.8 1.8-1.3 2.9-1.3.8 0 1.6.3 2.1.9.6.8.9 1.8.8 2.7v7.3c0 .7-.1 1.4-.4 2.1-.5.9-1.4 1.4-2.4 1.4-1.1-.1-2.2-.6-3-1.4v5.9h-3.2zm3.2 9.9c0 .9.3 1.5 1.3 1.5 1.2 0 1.3-.9 1.3-1.4v-6.4c0-1-.4-1.5-1.3-1.5-1.3 0-1.3 1.2-1.3 1.6z"/><path d="m122 11.3c0-2.1 0-2.8.8-3.5 1-.8 2.3-1.1 3.5-1 .8 0 1.7.2 2.4.5 1 .4 1.7 1.4 1.6 2.5v7.7c0 2 0 2.9.6 3.4h-3.4c-.3-.3-.4-.8-.4-1.2-.6.9-1.7 1.5-2.8 1.5-2.7 0-2.7-2.5-2.7-3.8 0-2.4 0-3.2 2.1-4.3l3.3-1.7c0-.5 0-1 0-1.5 0-.3-.1-.9-1.1-.9s-1.1.6-1.1 2.3zm5.2 2.6-1.6 1c-.6.4-.7.9-.7 2.3 0 1.1.2 1.5.8 1.5.6-.1 1.1-.3 1.5-.8z"/><path d="m132.8 7.1h3.2v1.8c.5-1.3 1.8-2.1 3.2-2v3.1c-.4-.1-.8-.2-1.2-.2-2.1 0-2.1 1.9-2.1 3v8.1h-3.2z"/><path d="m140.1 11.3c0-2.1 0-2.8.8-3.5 1-.8 2.3-1.1 3.5-1 .8 0 1.7.2 2.5.5 1 .4 1.6 1.4 1.6 2.5v7.7c0 2 0 2.9.6 3.4h-3.4c-.3-.3-.4-.8-.4-1.2-.6.9-1.7 1.5-2.8 1.5-2.7 0-2.7-2.5-2.7-3.8 0-2.4 0-3.2 2.1-4.3l3.4-1.7c0-.5 0-1 0-1.5 0-.3-.1-.9-1.1-.9s-1.1.6-1.1 2.3zm5.1 2.6-1.6 1c-.6.4-.7.9-.7 2.3 0 1.1.2 1.5.8 1.5.3 0 .8-.1 1.5-.8z"/><path d="m158.1 1.8h3.2v19h-3.2z"/><path d="m163.6 10.8c0-1.7.6-4 4.4-4 1 0 2 .2 2.9.8 1 .7 1.5 1.9 1.3 3.1v6.6c0 2.5-1.6 3.9-4.4 3.9-4.2 0-4.2-3.2-4.2-4.2zm3.2 6.7c0 .4 0 1.4 1.1 1.4s1.1-1 1.1-1.5v-7c0-.8-.1-1.7-1.1-1.7-1.2 0-1.2 1-1.2 1.7v7.1z"/><path d="m174 16h3c0 2 0 2.8 1.3 2.8.7 0 1.2-.3 1.2-1.5.1-.7-.3-1.5-.9-1.8l-2.7-1.9c-.3-.3-.6-.6-.9-.9-.6-.7-.8-1.6-.8-2.4 0-2.9 1.9-3.6 4.1-3.6 2.8 0 3.9 1.2 3.9 3.2v1.5h-2.8c0-1.6 0-2.5-1.2-2.5-.4 0-1.1.1-1.1 1.2 0 .4 0 .9.9 1.5l2.9 2.1c.3.3.6.6.9.9.4.7.5 1.4.5 2.2 0 1.8 0 4.3-4.3 4.3-3.5 0-4.2-1.8-4.2-3.7z"/><path d="m191.9 7.1h3.2v1c.8-.8 1.8-1.2 2.9-1.3.8 0 1.6.3 2.1.9.6.8.9 1.8.8 2.7v7.3c0 .7-.1 1.4-.4 2.1-.5.9-1.4 1.4-2.4 1.3-1.1-.1-2.2-.6-3-1.4v5.9h-3.2zm3.2 9.9c0 .9.3 1.5 1.3 1.5 1.2 0 1.3-.9 1.3-1.4v-6.4c0-1-.4-1.5-1.3-1.5-1.3 0-1.3 1.2-1.3 1.6z"/><path d="m203.1 11.3c0-2.1 0-2.8.8-3.5 1-.8 2.3-1.1 3.5-1 .8 0 1.7.2 2.4.5 1 .4 1.7 1.4 1.6 2.5v7.7c0 2 0 2.9.6 3.4h-3.4c-.3-.3-.4-.8-.4-1.2-.6.9-1.7 1.5-2.8 1.5-2.7 0-2.7-2.5-2.7-3.8 0-2.4 0-3.2 2.1-4.3l3.4-1.7c0-.5 0-1 0-1.5 0-.3-.1-.9-1.1-.9s-1.1.6-1.1 2.3zm5.2 2.6-1.6 1c-.6.4-.7.9-.7 2.3 0 1.1.2 1.5.8 1.5.6-.1 1.1-.3 1.5-.8z"/><path d="m213.9 7.1h3.2v1.8c.5-1.3 1.8-2.1 3.2-2v3.1c-.3-.1-.7-.2-1.1-.2-2.1 0-2.1 1.9-2.1 3v8.1h-3.2z"/><path d="m221.7 11.3c0-2.1 0-2.8.8-3.5 1-.8 2.3-1.1 3.5-1 .8 0 1.7.2 2.5.5 1 .4 1.7 1.4 1.6 2.5v7.7c0 2 0 2.9.6 3.4h-3.4c-.3-.3-.4-.8-.4-1.2-.6.9-1.7 1.5-2.8 1.5-2.7 0-2.7-2.5-2.7-3.8 0-2.4 0-3.2 2.1-4.3l3.4-1.7c0-.5 0-1 0-1.5 0-.3-.1-.9-1.1-.9s-1.1.6-1.1 2.3zm4.3-10h4.2c-1.4 1.5-1.8 1.9-3.4 3.6h-2.5zm.8 12.6-1.6 1c-.6.4-.7.9-.7 2.3 0 1.1.2 1.5.8 1.5.3 0 .8-.1 1.5-.8z"/><path d="m232.4 7.1h3.2v.9c.7-.7 1.7-1.2 2.7-1.2s2 .5 2.6 1.4c.8-.9 2-1.4 3.2-1.4.7 0 1.5.3 2 .8.6.6.9 1.5.8 2.4v11h-3.2v-10.3c0-.6 0-1.6-1.2-1.6-.9 0-1.3.6-1.3 1.8v10.1h-3.2v-10.3c0-.7 0-1.7-1.2-1.7-.9 0-1.2.7-1.2 1.6v10.2h-3.2z"/><path d="m252.3 17c0 .6 0 1.7 1.2 1.7.3 0 .7-.1.9-.4s.3-.5.3-1.9h3.1v1.1c0 3-2.2 3.7-4.2 3.7-3.1 0-4.4-1.6-4.4-4.4v-5.9c-.1-1.3.4-2.6 1.5-3.3.9-.5 1.9-.8 2.9-.8 1.2 0 2.4.4 3.3 1.2.7.8 1 1.7 1 2.8v3.9h-5.5zm0-4.5h2.3v-1.7c0-.4 0-1.4-1.1-1.4-.8 0-1.2.5-1.2 1.4z"/><path d="m260.7 2.1h3.3v5h1.9v2.1h-1.9v7.9c0 .9.2 1.5 1.5 1.5h.6v2.3c-.6.1-1.1.2-1.7.2-3 0-3.5-1.1-3.5-2.9v-9h-1.9v-2.1h1.7z"/><path d="m267.3 7.1h3.2v1.8c.5-1.3 1.8-2.1 3.2-2v3.1c-.3-.1-.7-.2-1.1-.2-2.1 0-2.1 1.9-2.1 3v8.1h-3.2z"/><path d="m274.5 10.8c0-1.7.6-4 4.4-4 1 0 2 .2 2.9.8 1 .7 1.5 1.9 1.4 3.1v6.6c0 2.5-1.6 3.9-4.4 3.9-4.2 0-4.2-3.2-4.2-4.2v-6.2zm3.2 6.7c0 .4 0 1.4 1.1 1.4s1.2-1 1.2-1.5v-7c0-.8-.1-1.7-1.1-1.7-1.2 0-1.2 1-1.2 1.7z"/><path d="m284.9 16h3c0 2 0 2.8 1.3 2.8.7 0 1.2-.3 1.2-1.5.1-.7-.3-1.5-.9-1.8l-2.7-1.9c-.3-.3-.6-.6-.9-.9-.6-.7-.8-1.6-.8-2.4 0-2.9 1.9-3.6 4.1-3.6 2.8 0 3.9 1.2 3.9 3.2v1.5h-2.8c0-1.6 0-2.5-1.2-2.5-.5 0-1.1.1-1.1 1.2 0 .4 0 .9.9 1.5l2.9 2.1c.3.3.6.6.9.9.4.7.5 1.4.5 2.2 0 1.8 0 4.3-4.3 4.3-3.5 0-4.2-1.8-4.2-3.7z"/><path d="m306.6 7.1h1.4v2.1h-1.4v11.7h-3.2v-11.7h-1.4v-2.1h1.5v-2.5c0-2.9 2.4-2.9 3.6-2.9.4 0 .7 0 1.1.1v2.6h-.7c-.8 0-.8.7-.8.9z"/><path d="m309.5 11.3c0-2.1 0-2.8.8-3.5 1-.8 2.3-1.1 3.5-1 .8 0 1.7.2 2.5.5 1 .4 1.6 1.4 1.6 2.5v7.7c0 2 0 2.9.6 3.4h-3.4c-.3-.3-.4-.8-.4-1.2-.6.9-1.7 1.5-2.8 1.5-2.7 0-2.7-2.5-2.7-3.8 0-2.4 0-3.2 2.1-4.3l3.4-1.7c0-.5 0-1 0-1.5 0-.3-.1-.9-1.1-.9s-1.1.6-1.1 2.3zm5.2 2.6-1.6 1c-.6.4-.7.9-.7 2.3 0 1.1.2 1.5.8 1.5.6-.1 1.1-.3 1.5-.8z"/><path d="m320.3 7.1h3.2v1.8c.5-1.3 1.8-2.1 3.2-2v3.1c-.3-.1-.7-.2-1.1-.2-2.1 0-2.1 1.9-2.1 3v8.1h-3.2z"/><path d="m328.2 7.1h3.2v.9c.7-.7 1.7-1.2 2.7-1.2s2 .5 2.6 1.4c.8-.9 2-1.4 3.2-1.4.7 0 1.5.3 2 .8.6.6.9 1.5.8 2.3v11h-3.2v-10.2c0-.6 0-1.6-1.2-1.6-.9 0-1.3.6-1.3 1.8v10.1h-3.2v-10.3c0-.7 0-1.7-1.2-1.7-.9 0-1.2.7-1.2 1.6v10.2h-3.2z"/><path d="m345 11.3c0-2.1 0-2.8.8-3.5 1-.8 2.3-1.1 3.5-1 .8 0 1.7.2 2.5.5 1 .4 1.6 1.4 1.6 2.5v7.7c0 2 0 2.9.6 3.4h-3.4c-.3-.3-.4-.8-.4-1.2-.6.9-1.7 1.5-2.8 1.5-2.7 0-2.7-2.5-2.7-3.8 0-2.4 0-3.2 2.1-4.3l3.4-1.7c0-.5 0-1 0-1.5 0-.3-.1-.9-1.1-.9s-1.1.6-1.1 2.3zm5.2 2.6-1.6 1c-.6.4-.7.9-.7 2.3 0 1.1.2 1.5.8 1.5.6-.1 1.1-.3 1.5-.8z"/><path d="m361.3 12.3v-1.7c0-.5 0-1.5-1.2-1.5s-1.3 1.2-1.3 1.9v6c0 .6 0 1.8 1.3 1.8s1.2-1.2 1.2-1.8v-1.6h3.2v1.6c0 2.8-1.5 4.2-4.4 4.2-1.2 0-2.3-.3-3.3-.9-.9-.8-1.3-1.9-1.2-3.1v-6.2c0-1 .2-1.9.8-2.7.9-1.1 2.3-1.6 3.7-1.5 1.2 0 2.3.3 3.3 1 .8.7 1.3 1.8 1.1 2.9v1.6z"/><path d="m366.3 10.8c0-1.7.6-4 4.4-4 1 0 2 .2 2.9.8 1 .7 1.5 1.9 1.4 3.1v6.6c0 2.5-1.6 3.9-4.4 3.9-4.2 0-4.2-3.2-4.2-4.2zm3.2 6.7c0 .4 0 1.4 1.1 1.4s1.1-1 1.1-1.5v-7c0-.8-.1-1.7-1.1-1.7-1.2 0-1.2 1-1.2 1.7v7.1z"/><path d="m382.6 12.3v-1.7c0-.5 0-1.5-1.2-1.5s-1.3 1.2-1.3 1.9v6c0 .6 0 1.8 1.3 1.8s1.2-1.2 1.2-1.8v-1.6h3.2v1.6c0 2.8-1.5 4.2-4.4 4.2-1.2 0-2.3-.3-3.3-.9-.9-.8-1.3-1.9-1.2-3.1v-6.2c0-1 .2-1.9.8-2.7.9-1.1 2.3-1.6 3.7-1.5 1.2 0 2.3.3 3.3 1 .8.7 1.2 1.8 1.1 2.9v1.6z"/><path d="m387.8 1.8h3.2v3.3h-3.2zm0 5.3h3.2v13.8h-3.2z"/><path d="m393.4 7.1h3.3l-.1 1c.7-.8 1.7-1.3 2.8-1.3.8 0 1.7.3 2.2.9.5.7.7 1.5.6 2.4v10.8h-3.1v-10.2c0-.8-.1-1.7-1.1-1.7-1.4 0-1.4 1.2-1.4 1.9v10h-3.2z"/><path d="m407.7 17c0 .6 0 1.7 1.2 1.7.3 0 .7-.1.9-.4s.3-.5.3-1.9h3.1v1.1c0 3-2.2 3.7-4.2 3.7-3.1 0-4.4-1.6-4.4-4.4v-5.9c-.1-1.3.4-2.6 1.5-3.3.9-.5 1.9-.8 2.9-.8 1.2 0 2.4.4 3.3 1.2.7.8 1 1.7 1 2.8v3.9h-5.5v2.3zm1.2-15.6h4.2c-1.5 1.5-1.8 1.9-3.4 3.6h-2.5zm-1.2 11.1h2.3v-1.7c0-.4 0-1.4-1.1-1.4-.8 0-1.2.5-1.2 1.4z"/><path d="m416.1 2.1h3.2v5h1.9v2.1h-2v7.9c0 .9.2 1.5 1.5 1.5h.6v2.3c-.6.1-1.1.2-1.7.2-3 0-3.5-1.1-3.5-2.9v-9h-1.8v-2.1h1.7z"/><path d="m422.7 1.8h3.2v3.3h-3.2zm0 5.3h3.2v13.8h-3.2z"/><path d="m433.8 12.3v-1.7c0-.5 0-1.5-1.2-1.5s-1.3 1.2-1.3 1.9v6c0 .6 0 1.8 1.3 1.8s1.2-1.2 1.2-1.8v-1.6h3.2v1.6c0 2.8-1.5 4.2-4.4 4.2-1.2 0-2.3-.3-3.3-.9-.9-.8-1.3-1.9-1.2-3.1v-6.2c0-1 .2-1.9.8-2.7.9-1.1 2.3-1.6 3.7-1.5 1.2 0 2.3.3 3.3 1 .8.7 1.2 1.8 1.1 2.9v1.6z"/><path d="m438.8 10.8c0-1.7.6-4 4.4-4 1 0 2 .2 2.9.8 1 .7 1.5 1.9 1.4 3.1v6.6c0 2.5-1.6 3.9-4.4 3.9-4.2 0-4.2-3.2-4.2-4.2zm3.2 6.7c0 .4 0 1.4 1.1 1.4s1.1-1 1.1-1.5v-7c0-.8-.1-1.7-1.1-1.7-1.2 0-1.2 1-1.2 1.7z"/><path d="m449.2 16h3c0 2 0 2.8 1.3 2.8.7 0 1.2-.3 1.2-1.5.1-.7-.3-1.5-1-1.8l-2.7-1.9c-.3-.3-.6-.6-.9-.9-.6-.7-.9-1.6-.8-2.4 0-2.9 1.9-3.6 4.2-3.6 2.8 0 3.9 1.2 3.9 3.2v1.5h-2.8c0-1.6 0-2.5-1.2-2.5-.5 0-1.1.1-1.1 1.2 0 .4 0 .9.9 1.5l3 2.1c.3.3.6.6.9.9.4.7.5 1.4.5 2.2 0 1.8 0 4.3-4.3 4.3-3.5 0-4.2-1.8-4.2-3.7z"/><path d="m467.1 7.1h3.2v.9c.7-.7 1.7-1.2 2.7-1.2s2 .5 2.6 1.4c.8-.9 2-1.4 3.2-1.4.7 0 1.5.3 2 .8.6.6.9 1.5.8 2.3v11h-3.2v-10.2c0-.6 0-1.6-1.2-1.6-.9 0-1.3.6-1.3 1.8v10.1h-3.2v-10.3c0-.7 0-1.7-1.2-1.7-.9 0-1.2.7-1.2 1.6v10.2h-3.2z"/><path d="m484 11.3c0-2.1 0-2.8.8-3.5 1-.8 2.3-1.1 3.5-1 .8 0 1.7.2 2.5.5 1 .4 1.7 1.4 1.6 2.5v7.7c0 2 0 2.9.6 3.4h-3.4c-.3-.3-.4-.8-.4-1.2-.6.9-1.7 1.5-2.8 1.5-2.7 0-2.7-2.5-2.7-3.8 0-2.4 0-3.2 2.1-4.3l3.4-1.7c0-.5 0-1 0-1.5 0-.3-.1-.9-1.1-.9s-1.1.6-1.1 2.3zm4.3-10h4.2c-1.5 1.5-1.8 1.8-3.5 3.6h-2.5zm.9 12.6-1.6 1c-.6.4-.7.9-.7 2.3 0 1.1.2 1.5.8 1.5.3 0 .8-.1 1.5-.8z"/><path d="m494.3 16h3c0 2 0 2.8 1.3 2.8.7 0 1.2-.3 1.2-1.5.1-.7-.3-1.5-.9-1.8l-2.7-1.9c-.3-.3-.6-.6-.9-.9-.6-.7-.8-1.6-.8-2.4 0-2.9 1.9-3.6 4.1-3.6 2.8 0 4 1.2 4 3.2v1.5h-2.8c0-1.6 0-2.5-1.2-2.5-.5 0-1.1.1-1.1 1.2 0 .4 0 .9.9 1.5l2.9 2.1c.3.3.6.6.9.9.4.7.5 1.4.5 2.2 0 1.8 0 4.3-4.3 4.3-3.5 0-4.2-1.8-4.2-3.7z"/><path d="m512.2 1.8h3.2v3.3h-3.2zm0 5.3h3.2v13.8h-3.2z"/><path d="m517.8 7.1h3.2v.9c.7-.7 1.7-1.2 2.7-1.2s2 .5 2.6 1.4c.8-.9 2-1.4 3.2-1.4.7 0 1.5.3 2 .8.6.6.9 1.5.8 2.3v11h-3.3v-10.2c0-.6 0-1.6-1.2-1.6-.9 0-1.3.6-1.3 1.8v10.1h-3.2v-10.3c0-.7 0-1.7-1.2-1.7-.9 0-1.2.7-1.2 1.6v10.2h-3.2v-13.7z"/><path d="m534.7 7.1h3.2v1c.8-.8 1.8-1.3 2.9-1.3.8 0 1.6.3 2.1.9.6.8.9 1.8.8 2.7v7.3c0 .7-.1 1.4-.5 2.1-.5.9-1.4 1.4-2.4 1.3-1.1-.1-2.2-.6-3-1.4v5.9h-3.2v-18.5zm3.2 9.9c0 .9.3 1.5 1.3 1.5 1.2 0 1.3-.9 1.3-1.4v-6.4c0-1-.4-1.5-1.3-1.5-1.3 0-1.3 1.2-1.3 1.6z"/><path d="m545.8 10.8c0-1.7.6-4 4.4-4 1 0 2 .2 2.9.8 1 .7 1.5 1.9 1.3 3.1v6.6c0 2.5-1.6 3.9-4.4 3.9-4.2 0-4.2-3.2-4.2-4.2zm3.2 6.7c0 .4 0 1.4 1.1 1.4s1.1-1 1.1-1.5v-7c0-.8-.1-1.7-1.1-1.7-1.2 0-1.2 1-1.2 1.7v7.1z"/><path d="m556.6 7.1h3.2v1.8c.5-1.3 1.8-2.1 3.2-2v3.1c-.3-.1-.7-.2-1.1-.2-2.1 0-2.1 1.9-2.1 3v8.1h-3.2z"/><path d="m565.2 2.1h3.2v5h1.9v2.1h-1.9v7.9c0 .9.2 1.5 1.5 1.5h.6v2.3c-.6.1-1.1.2-1.7.2-3 0-3.5-1.1-3.5-2.9v-9h-1.8v-2.1h1.7z"/><path d="m572 11.3c0-2.1 0-2.8.8-3.5 1-.8 2.3-1.1 3.5-1 .8 0 1.7.2 2.5.5 1 .4 1.7 1.4 1.7 2.5v7.7c0 2 0 2.9.6 3.4h-3.4c-.3-.3-.4-.8-.4-1.2-.6.9-1.7 1.5-2.8 1.5-2.7 0-2.7-2.5-2.7-3.8 0-2.4 0-3.2 2.1-4.3l3.3-1.7c0-.5 0-1 0-1.5 0-.3-.1-.9-1.1-.9s-1.1.6-1.1 2.3zm5.2 2.6-1.6 1c-.7.4-.7.9-.7 2.3 0 1.1.2 1.5.8 1.5.3 0 .8-.1 1.5-.8z"/><path d="m582.8 7.1h3.3v1c.7-.8 1.7-1.3 2.8-1.3.8 0 1.6.3 2.2.9.5.7.8 1.5.7 2.4v10.8h-3.2v-10.2c0-.8 0-1.7-1.1-1.7-1.3 0-1.3 1.2-1.3 1.9v10h-3.2z"/><path d="m594.8 2.1h3.2v5h1.9v2.1h-1.9v7.9c0 .9.2 1.5 1.5 1.5h.6v2.3c-.6.1-1.1.2-1.7.2-3 0-3.5-1.1-3.5-2.9v-9h-1.9v-2.1h1.7z"/><path d="m604.4 17c0 .6 0 1.7 1.2 1.7.3 0 .7-.1.9-.4s.3-.5.3-1.9h3.1v1.1c0 3-2.2 3.7-4.2 3.7-3.2 0-4.4-1.6-4.4-4.4v-5.9c-.1-1.3.4-2.6 1.5-3.3.9-.5 1.9-.8 2.9-.8 1.2 0 2.4.4 3.3 1.2.7.8 1 1.7 1 2.8v3.9h-5.5v2.3zm0-4.5h2.3v-1.7c0-.4 0-1.4-1.1-1.4-.8 0-1.2.5-1.2 1.4z"/><path d="m611.6 16h3c0 2 0 2.8 1.3 2.8.7 0 1.2-.3 1.2-1.5.1-.7-.3-1.5-.9-1.8l-2.7-1.9c-.3-.3-.6-.6-.9-.9-.6-.7-.8-1.6-.8-2.4 0-2.9 1.9-3.6 4.2-3.6 2.8 0 3.9 1.2 3.9 3.2v1.5h-2.8c0-1.6 0-2.5-1.2-2.5-.5 0-1.1.1-1.1 1.2 0 .4 0 .9.9 1.5l2.9 2.1c.3.3.6.6.9.9.4.7.5 1.4.4 2.2 0 1.8 0 4.3-4.3 4.3-3.5 0-4.2-1.8-4.2-3.7z"/><path d="m635 12.3v-1.7c0-.5 0-1.5-1.2-1.5s-1.3 1.2-1.3 1.9v6c0 .6 0 1.8 1.3 1.8s1.2-1.2 1.2-1.8v-1.6h3.2v1.6c0 2.8-1.5 4.2-4.4 4.2-1.2 0-2.3-.3-3.3-.9-.9-.8-1.3-1.9-1.2-3.1v-6.2c0-1 .2-1.9.8-2.7.9-1.1 2.3-1.6 3.7-1.5 1.2 0 2.3.3 3.3 1 .8.7 1.3 1.8 1.1 2.9v1.6z"/><path d="m640 10.8c0-1.7.6-4 4.4-4 1 0 2 .2 2.9.8 1 .7 1.5 1.9 1.3 3.1v6.6c0 2.5-1.6 3.9-4.4 3.9-4.2 0-4.2-3.2-4.2-4.2zm3.3 6.7c0 .4 0 1.4 1.1 1.4s1.1-1 1.1-1.5v-7c0-.8-.1-1.7-1.1-1.7-1.2 0-1.2 1-1.2 1.7v7.1z"/><path d="m650.9 7.1h3.2v.9c.7-.7 1.7-1.2 2.7-1.2s2 .5 2.6 1.4c.8-.9 2-1.4 3.2-1.4.7 0 1.5.3 2 .8.6.6.9 1.5.8 2.3v11h-3.2v-10.2c0-.6 0-1.6-1.2-1.6-.9 0-1.3.6-1.3 1.8v10.1h-3.2v-10.3c0-.7 0-1.7-1.2-1.7-.9 0-1.2.7-1.2 1.6v10.2h-3.2z"/><path d="m667.6 10.8c0-1.7.6-4 4.4-4 1 0 2 .2 2.9.8 1 .7 1.5 1.9 1.3 3.1v6.6c0 2.5-1.6 3.9-4.4 3.9-4.2 0-4.2-3.2-4.2-4.2zm3.2 6.7c0 .4 0 1.4 1.1 1.4s1.1-1 1.1-1.5v-7c0-.8-.1-1.7-1.1-1.7-1.2 0-1.2 1-1.2 1.7v7.1z"/><path d="m692.8 8.8v-2.4c0-1.4-.2-2.2-1.8-2.2s-1.6 1.2-1.6 2.1v10.2c0 1.1.2 2.2 1.8 2.2s1.7-1.2 1.7-2.4v-2.5h3.5v2.7c0 1.5 0 4.9-5.2 4.9-1.3 0-2.6-.3-3.7-.9-1.1-.8-1.7-2.2-1.5-3.5v-10.5c0-1.5.1-2.6.9-3.5 1.2-1.1 2.7-1.6 4.3-1.5 5.2 0 5.2 3.1 5.2 4.4v2.9z"/><path d="m698.2 7.1h3.2v.9c.7-.7 1.7-1.2 2.7-1.2s2 .5 2.6 1.4c.8-.9 2-1.4 3.2-1.4.7 0 1.5.3 2 .8.6.6.9 1.5.8 2.3v11h-3.2v-10.2c0-.6 0-1.6-1.2-1.6-.9 0-1.3.6-1.3 1.8v10.1h-3.2v-10.3c0-.7 0-1.7-1.2-1.7-.9 0-1.2.7-1.2 1.6v10.2h-3.2z"/><path d="m715 11.3c0-2.1 0-2.8.8-3.5 1-.8 2.3-1.1 3.5-1 .8 0 1.7.2 2.5.5 1 .4 1.7 1.4 1.7 2.5v7.7c0 2 0 2.9.6 3.4h-3.4c-.3-.3-.4-.8-.4-1.2-.6.9-1.7 1.5-2.8 1.5-2.7 0-2.7-2.5-2.7-3.8 0-2.4 0-3.2 2.1-4.3l3.3-1.7c0-.5 0-1 0-1.5 0-.3-.1-.9-1.1-.9s-1.1.6-1.1 2.3zm5.2 2.6-1.6 1c-.7.4-.7.9-.7 2.3 0 1.1.2 1.5.8 1.5.3 0 .8-.1 1.5-.8z"/><path d="m725.2 7.1h3.3l1.2 4.6 1.3-4.6h3.1l-2.5 6.3 3 7.5h-3.5l-1.6-5.6-1.6 5.6h-3.3l3-7.5z"/><path d="m735.6 17.4h3.2v3.5l-2.2 3.6h-1.2l1.9-3.6h-1.6z"/><path d="m747.1 1.8h10.5v2.8h-3.5v16.3h-3.5v-16.3h-3.5z"/><path d="m757.3 7.1h3.2v.9c.7-.7 1.7-1.2 2.7-1.2s2 .5 2.6 1.4c.8-.9 2-1.4 3.2-1.4.7 0 1.5.3 2 .8.6.6.9 1.5.8 2.4v11h-3.2v-10.3c0-.6 0-1.6-1.2-1.6-.9 0-1.3.6-1.3 1.8v10.1h-3.2v-10.3c0-.7 0-1.7-1.2-1.7-.9 0-1.2.7-1.2 1.6v10.2h-3.2z"/><path d="m774.1 11.3c0-2.1 0-2.8.8-3.5 1-.8 2.3-1.1 3.5-1 .8 0 1.7.2 2.5.5 1 .4 1.6 1.4 1.6 2.5v7.7c0 2 0 2.9.6 3.4h-3.4c-.3-.3-.4-.8-.4-1.2-.6.9-1.7 1.5-2.8 1.5-2.7 0-2.7-2.5-2.7-3.8 0-2.4 0-3.2 2.1-4.3l3.3-1.7c0-.5 0-1 0-1.5 0-.3-.1-.9-1.1-.9s-1.1.6-1.1 2.3zm5.2 2.6-1.6 1c-.6.4-.7.9-.7 2.3 0 1.1.2 1.5.8 1.5.6-.1 1.1-.3 1.5-.8z"/><path d="m784.3 7.1h3.3l1.2 4.6 1.2-4.6h3.1l-2.5 6.3 3 7.5h-3.5l-1.6-5.6-1.6 5.6h-3.3l3-7.5z"/><path d="m801.2 7.1h3.2l1.8 8.9 1.4-8.9h3.2l-3.2 14.7c-.6 2.8-1.3 3.8-3.8 3.8-.7 0-1.4-.1-2.1-.2l.5-2.5c.4.1.8.2 1.3.2 1.4 0 1.5-2.1 1.5-2.2z"/><path d="m822 1.8h4l3.6 19h-3.6l-.5-3.1h-3.2l-.5 3.1h-3.5zm.8 13h2.4l-1.2-8.1z"/><path d="m831.7 1.8h3.5v14.2c0 1 0 2.3 1.6 2.3s1.6-1.2 1.6-2.3v-14.2h3.5v14.8c0 2.5-1 4.7-5.2 4.7-3.3 0-5.1-1.6-5.1-4.8z"/><path d="m852.4 8.8v-2.4c0-1.4-.2-2.2-1.8-2.2s-1.6 1.1-1.6 2v10.2c0 1.1.2 2.2 1.8 2.2s1.7-1.2 1.7-2.4v-2.5h3.5v2.7c0 1.5 0 4.9-5.2 4.9-1.3 0-2.6-.3-3.7-.9-1.1-.8-1.7-2.2-1.5-3.5v-10.4c0-1.5.1-2.6 1-3.5 1.2-1.1 2.7-1.6 4.3-1.5 5.2 0 5.2 3.1 5.2 4.4v2.9z"/><path d="m865.5 7.4c0-3.7 2.6-6 5.9-7.4v2.5c-2.4 1.4-2.7 3.6-2.7 5.4v10.6c0 2.2.6 3.4 2.7 5v2.4c-1.7-.6-3.2-1.6-4.4-3-1.1-1.3-1.6-3-1.5-4.6z"/><path d="m872.7 7.4c-.1-1 .2-2.1.7-3 .9-1.2 2.3-1.8 3.8-1.7 4.6 0 4.6 3.3 4.6 4.4v9.7c.1 1.3-.4 2.5-1.3 3.4-.9.7-2 1.1-3.2 1-4.6 0-4.6-3.1-4.6-4.4zm3.1 9.6c0 .4 0 1.7 1.4 1.7s1.5-1.2 1.5-1.9v-9.7c0-.9 0-2-1.4-2s-1.5 1.1-1.5 1.9z"/><path d="m883.5 12.3h7.2v2.7h-7.2z"/><path d="m893.5 2.1h3.2v5h1.9v2.1h-2v7.9c0 .9.2 1.5 1.5 1.5h.6v2.3c-.5.1-1.1.1-1.7.1-3 0-3.5-1.1-3.5-2.9v-8.9h-1.8v-2.1h1.7v-5z"/><path d="m905.3 18.4c0 3.4-2.3 5.8-5.9 7.4v-2.5c2.4-1.4 2.7-3.6 2.7-5.4v-10.6c0-2.2-.6-3.4-2.7-5v-2.3c1.7.6 3.2 1.6 4.3 2.9s1.6 3 1.5 4.6v10.9z"/><path d="m907.7 17.4h3.2v3.5l-2.2 3.6h-1.2l1.9-3.6h-1.6z"/><path d="m0 42h3c0 2 0 2.8 1.3 2.8.7 0 1.2-.3 1.2-1.5.1-.8-.3-1.5-1-1.8l-2.7-1.9c-.3-.3-.6-.6-.9-.9-.6-.7-.8-1.6-.8-2.5 0-2.9 1.9-3.6 4.2-3.6 2.8 0 3.9 1.2 3.9 3.2v1.5h-2.7c0-1.6 0-2.5-1.2-2.5-.5 0-1.1.1-1.1 1.2 0 .4 0 .9.9 1.5l2.9 2 .9.9c.4.7.5 1.4.5 2.2 0 1.8 0 4.3-4.3 4.3-3.4 0-4.2-1.7-4.2-3.7v-1.2z"/><path d="m10.4 36.8c0-1.7.6-4 4.4-4 1 0 2 .2 2.9.8 1 .7 1.5 1.9 1.4 3.1v6.6c0 2.5-1.6 3.9-4.4 3.9-4.2 0-4.2-3.2-4.2-4.2zm3.2 6.7c0 .3 0 1.4 1.1 1.4s1.1-1 1.1-1.5v-7c0-.8-.1-1.7-1.1-1.7-1.2 0-1.2 1-1.2 1.7v7.1z"/><path d="m21.3 33.1h3.3v1c.7-.8 1.7-1.3 2.8-1.3.8 0 1.6.3 2.2.9.5.7.8 1.5.6 2.4v10.8h-3.2v-10.2c0-.8 0-1.7-1.1-1.7-1.4 0-1.4 1.2-1.4 1.9v10h-3.2z"/><path d="m39.2 37.3c0-2.1 0-2.8.8-3.5 1-.8 2.3-1.1 3.5-1 .8 0 1.7.2 2.5.5 1 .4 1.7 1.4 1.7 2.5v7.7c0 2 0 2.9.6 3.4h-3.4c-.3-.3-.4-.8-.4-1.2-.6.9-1.7 1.5-2.8 1.5-2.7 0-2.7-2.5-2.7-3.9 0-2.5 0-3.2 2.1-4.3l3.3-1.7c0-1.3 0-1.4 0-1.5 0-.3-.1-.9-1.1-.9s-1.1.7-1.1 2.3zm5.2 2.6-1.6 1c-.7.4-.7.9-.7 2.3 0 1.1.2 1.5.8 1.5.3 0 .8-.1 1.5-.8z"/><path d="m50 33.1h3.2v.9c.7-.7 1.7-1.2 2.7-1.2s2 .5 2.6 1.4c.8-.9 2-1.4 3.2-1.4.7 0 1.5.3 2 .8.6.6.9 1.5.8 2.3v11h-3.2v-10.2c0-.7 0-1.6-1.2-1.6-.9 0-1.3.7-1.3 1.8v10.1h-3.2v-10.3c0-.7 0-1.7-1.2-1.7-.9 0-1.2.7-1.2 1.6v10.2h-3.2z"/><path d="m66.8 33.1h3.2v1c.8-.8 1.9-1.2 3-1.3.8 0 1.6.3 2.1.9.6.8.9 1.8.8 2.7v7.3c0 .7-.1 1.4-.5 2.1-.4.9-1.4 1.4-2.4 1.4-1.1-.1-2.2-.6-3-1.4v5.9h-3.2zm3.3 9.9c0 .9.3 1.5 1.3 1.5 1.2 0 1.3-.9 1.3-1.4v-6.4c0-1-.4-1.5-1.3-1.5-1.3 0-1.3 1.2-1.3 1.6z"/><path d="m78.1 27.8h3.2v19h-3.2z"/><path d="m83.7 27.8h3.2v3.3h-3.2zm0 5.3h3.3v13.8h-3.3z"/><path d="m89.3 37.3c0-2.1 0-2.8.8-3.5 1-.8 2.3-1.1 3.5-1 .8 0 1.7.2 2.5.5 1 .4 1.7 1.4 1.7 2.5v7.7c0 2 0 2.9.6 3.4h-3.4c-.3-.3-.4-.8-.4-1.2-.6.9-1.7 1.5-2.8 1.5-2.7 0-2.7-2.5-2.7-3.9 0-2.5 0-3.2 2.1-4.3l3.3-1.7c0-.5 0-1 0-1.5 0-.3-.1-.9-1.1-.9s-1.1.7-1.1 2.3zm5.1 2.6-1.6 1c-.7.4-.7.9-.7 2.3 0 1.1.2 1.5.8 1.5.3 0 .8-.1 1.5-.8z"/><path d="m100 33.1h3.2v.9c.7-.8 1.7-1.2 2.8-1.2 1 0 2 .5 2.6 1.4.8-.9 2-1.4 3.2-1.4.7 0 1.5.3 2 .8.6.6.9 1.5.8 2.3v11h-3.2v-10.2c0-.7 0-1.6-1.2-1.6-.9 0-1.3.7-1.3 1.8v10.1h-3.2v-10.3c0-.7 0-1.7-1.2-1.7-.9 0-1.2.7-1.2 1.6v10.2h-3.3z"/><path d="m119.9 43c0 .6 0 1.7 1.2 1.7.3 0 .7-.1.9-.4s.3-.5.3-1.9h3.1v1.1c0 3-2.2 3.7-4.2 3.7-3.2 0-4.4-1.6-4.4-4.4v-5.9c-.1-1.3.4-2.6 1.5-3.3.9-.5 1.9-.8 2.9-.8 1.2 0 2.4.4 3.3 1.2.7.8 1 1.7 1 2.8v3.9h-5.5zm0-4.5h2.3v-1.7c0-.4 0-1.4-1.1-1.4-.8 0-1.2.5-1.2 1.4z"/><path d="m127.6 33.1h3.3l-.1 1c.7-.8 1.7-1.3 2.8-1.3.8 0 1.7.3 2.2.9.5.7.7 1.5.6 2.4v10.8h-3.1v-10.2c0-.8-.1-1.7-1.1-1.7-1.4 0-1.4 1.2-1.4 1.9v10h-3.2z"/><path d="m139.6 28.1h3.2v5h1.9v2.1h-1.9v7.9c0 .9.2 1.5 1.5 1.5h.6v2.3c-.6.1-1.1.2-1.7.2-3 0-3.5-1.1-3.5-2.9v-9h-1.8v-2.1h1.7z"/><path d="m149.2 43c0 .6 0 1.7 1.2 1.7.3 0 .7-.1.9-.4s.3-.5.3-1.9h3.1v1.1c0 3-2.2 3.7-4.2 3.7-3.2 0-4.4-1.6-4.4-4.4v-5.9c-.1-1.3.4-2.6 1.5-3.3.9-.5 1.9-.8 2.9-.8 1.2 0 2.4.4 3.3 1.2.7.8 1 1.7 1 2.8v3.9h-5.6zm0-4.5h2.3v-1.7c0-.4 0-1.4-1.1-1.4-.8 0-1.2.5-1.2 1.4z"/><path d="m169.1 38.3v-1.7c0-.5 0-1.5-1.2-1.5s-1.3 1.2-1.3 1.9v6c0 .7 0 1.8 1.3 1.8s1.2-1.2 1.2-1.8v-1.6h3.2v1.6c0 2.8-1.5 4.2-4.4 4.2-1.2 0-2.3-.3-3.3-.9-.9-.8-1.3-1.9-1.2-3.1v-6.2c0-1 .2-1.9.8-2.7.9-1.1 2.3-1.6 3.7-1.5 1.2 0 2.3.3 3.3 1 .8.7 1.3 1.8 1.1 2.9v1.7z"/><path d="m174.1 36.8c0-1.7.6-4 4.4-4 1 0 2 .2 2.9.8 1 .7 1.5 1.9 1.4 3.1v6.6c0 2.5-1.6 3.9-4.4 3.9-4.2 0-4.2-3.2-4.2-4.2v-6.2zm3.3 6.7c0 .3 0 1.4 1.1 1.4s1.1-1 1.1-1.5v-7c0-.8-.1-1.7-1.1-1.7-1.2 0-1.2 1-1.2 1.7v7.1z"/><path d="m185 33.1h3.3l-.1 1c.7-.8 1.7-1.3 2.8-1.3.8 0 1.7.3 2.2.9.5.7.8 1.5.6 2.4v10.8h-3.2v-10.2c0-.8-.1-1.7-1.1-1.7-1.4 0-1.4 1.2-1.4 1.9v10h-3.1z"/><path d="m201.9 33.1h3.2v14.3c0 1.4 0 4.4-4.7 4.4-4.2 0-4.2-2.5-4.3-3.8h3.2c0 .3 0 .6.1.9.2.4.7.6 1.1.6 1.1 0 1.3-.8 1.3-1.6v-2.1c-.7.9-1.7 1.4-2.8 1.3-2.6 0-3-1.9-3-3.5v-7.3c0-.5 0-3.5 2.9-3.5 1.1 0 2.2.5 2.9 1.4zm-2.6 10c0 .4 0 1.5 1.3 1.5s1.3-.9 1.3-1.6v-6.1c0-.6 0-1.7-1.3-1.7s-1.3 1.2-1.3 1.7z"/><path d="m207.5 33.1h3.2v1.8c.5-1.3 1.8-2.1 3.2-2v3.1c-.3-.1-.7-.2-1.1-.2-2.1 0-2.1 1.9-2.1 3v8.1h-3.2z"/><path d="m215.4 33.1h3.2v9.9c0 .7 0 1.7 1.2 1.7s1.2-1.1 1.2-1.8v-9.8h3.2v13.8h-3.2v-1.1c-.8.8-1.9 1.3-3 1.3-1.3.1-2.4-.9-2.6-2.1-.1-.5-.1-1-.1-1.5z"/><path d="m229.7 43c0 .6 0 1.7 1.2 1.7.3 0 .7-.1.9-.4s.3-.5.3-1.9h3.1v1.1c0 3-2.2 3.7-4.2 3.7-3.2 0-4.4-1.6-4.4-4.4v-5.9c-.1-1.3.4-2.6 1.5-3.3.9-.5 1.9-.8 2.9-.8 1.2 0 2.4.4 3.3 1.2.7.8 1 1.7.9 2.8v3.9h-5.5zm0-4.5h2.3v-1.7c0-.4 0-1.4-1.1-1.4-.8 0-1.2.5-1.2 1.4z"/><path d="m237.4 33.1h3.3l-.1 1c.7-.8 1.7-1.3 2.8-1.3.8 0 1.6.3 2.2.9.5.7.8 1.5.6 2.4v10.8h-3.2v-10.2c0-.8-.1-1.7-1.1-1.7-1.4 0-1.4 1.2-1.4 1.9v10h-3.2z"/><path d="m249.3 28.1h3.2v5h1.9v2.1h-1.9v7.9c0 .9.2 1.5 1.4 1.5h.6v2.3c-.6.1-1.1.2-1.7.2-3 0-3.5-1.1-3.5-2.9v-9h-1.8v-2.1h1.7z"/><path d="m259 43c0 .6 0 1.7 1.2 1.7.3 0 .7-.1.9-.4s.3-.5.3-1.9h3.1v1.1c0 3-2.2 3.7-4.2 3.7-3.1 0-4.4-1.6-4.4-4.4v-5.9c-.1-1.3.4-2.6 1.5-3.3.9-.5 1.9-.8 2.9-.8 1.2 0 2.4.4 3.3 1.2.7.8 1 1.7 1 2.8v3.9h-5.6zm0-4.5h2.3v-1.7c0-.4 0-1.4-1.1-1.4-.8 0-1.2.5-1.2 1.4z"/><path d="m266.2 42h3c0 2 0 2.8 1.3 2.8.7 0 1.2-.3 1.2-1.5.1-.7-.3-1.5-.9-1.8l-2.7-1.9c-.3-.3-.6-.6-.9-.9-.6-.7-.8-1.6-.8-2.5 0-2.9 1.9-3.6 4.2-3.6 2.8 0 3.9 1.2 3.9 3.2v1.5h-2.8c0-1.6 0-2.5-1.2-2.5-.5 0-1.1.1-1.1 1.2 0 .4 0 .9.9 1.5l2.9 2.1c.3.3.6.6.9.9.4.7.5 1.4.5 2.2 0 1.8 0 4.3-4.3 4.3-3.5 0-4.2-1.8-4.2-3.7v-1.3z"/><path d="m276.5 43.4h3.2v3.5h-3.2z"/></g></svg>