<?xml version="1.0" encoding="utf-8"?>
<!-- Generator: Adobe Illustrator 22.0.0, SVG Export Plug-In . SVG Version: 6.00 Build 0)  -->
<svg version="1.1" id="Capa_1" xmlns="http://www.w3.org/2000/svg" xmlns:xlink="http://www.w3.org/1999/xlink" x="0px" y="0px"
	 viewBox="0 0 910 55.8" style="enable-background:new 0 0 910 55.8;" xml:space="preserve">
<style type="text/css">
	.st0{fill:#485C67;}
</style>
<title>farmo2_texto</title>
<g>
	<path class="st0" d="M0,1.8h3.5V18h5.2v2.9H0V1.8z"/>
	<path class="st0" d="M9.9,11.3c0-2.1,0-2.8,0.8-3.5c1-0.8,2.2-1.1,3.5-1c0.8,0,1.7,0.2,2.5,0.5c1,0.4,1.7,1.4,1.6,2.5v7.7
		c0,2,0,2.9,0.6,3.4h-3.4c-0.3-0.3-0.4-0.8-0.4-1.2c-0.6,0.9-1.7,1.5-2.8,1.5c-2.7,0-2.7-2.5-2.7-3.8c0-2.4,0-3.2,2.1-4.3l3.3-1.7
		c0-1.3,0-1.4,0-1.5C15.1,9.6,15,9,14,9s-1.1,0.7-1.1,2.3L9.9,11.3z M15.1,13.9l-1.6,1c-0.6,0.4-0.7,0.9-0.7,2.3
		c0,1.1,0.2,1.5,0.8,1.5c0.3,0,0.8-0.1,1.5-0.8V13.9z"/>
	<path class="st0" d="M31.4,1.8h3.2v6.3c0.7-0.8,1.8-1.3,2.9-1.4c1.7,0.1,3,1.4,2.9,3.1c0,0,0,0.1,0,0.1v7.8c0,2.9-2.1,3.4-2.9,3.4
		c-1.2,0-2.3-0.6-2.9-1.6v1.3h-3.2V1.8z M37.2,10.8c0-0.5,0-1.6-1.2-1.6c-1.4,0-1.4,1.1-1.4,1.8v5.6c0,0.9,0.1,1.8,1.3,1.8
		s1.3-1.2,1.3-1.8V10.8z"/>
	<path class="st0" d="M42.6,1.8h3.2v3.3h-3.2V1.8z M42.6,7.1h3.2v13.8h-3.2V7.1z"/>
	<path class="st0" d="M48,10.8c0-1.7,0.6-4,4.4-4c1,0,2,0.2,2.9,0.8c1,0.7,1.5,1.9,1.3,3.1v6.6c0,2.5-1.6,3.9-4.4,3.9
		C48,21.2,48,18,48,17L48,10.8z M51.2,17.5c0,0.3,0,1.4,1.1,1.4s1.1-1,1.1-1.5v-7c0-0.8-0.1-1.7-1.1-1.7c-1.2,0-1.2,1-1.2,1.7V17.5z
		"/>
	<path class="st0" d="M64.6,1.8h3.2v19.1h-3.2v-1.3c-0.5,1-1.5,1.6-2.7,1.6c-1.1,0-2.1-0.5-2.7-1.4c-0.4-0.9-0.5-1.9-0.4-2.9v-6.3
		c0-0.7,0.1-1.4,0.4-2c0.5-1,1.5-1.6,2.6-1.6c1.1,0.1,2.1,0.6,2.8,1.4L64.6,1.8z M61.9,16.9c0,0.7,0,1.6,1.2,1.6s1.3-1.2,1.3-1.7
		v-5.9c0-0.4,0-1.6-1.3-1.6c-1.3,0-1.2,1.1-1.2,1.7V16.9z"/>
	<path class="st0" d="M70.1,1.8h3.2v3.3h-3.2V1.8z M70.1,7.1h3.2v13.8h-3.2V7.1z"/>
	<path class="st0" d="M75.3,16h3c0,2,0,2.8,1.3,2.8c0.7,0,1.2-0.3,1.2-1.5c0.1-0.8-0.3-1.5-1-1.8l-2.7-1.9c-0.3-0.3-0.6-0.6-0.9-0.9
		c-0.6-0.7-0.9-1.6-0.8-2.4c0-2.9,1.9-3.6,4.2-3.6c2.8,0,3.9,1.2,3.9,3.2v1.5h-2.8c0-1.6,0-2.5-1.2-2.5c-0.5,0-1.1,0.1-1.1,1.2
		c0,0.4,0,0.9,0.9,1.5l2.9,2.1c0.3,0.3,0.6,0.6,0.9,0.9c0.4,0.7,0.5,1.4,0.5,2.2c0,1.8,0,4.3-4.3,4.3c-3.4,0-4.2-1.8-4.2-3.7
		L75.3,16z"/>
	<path class="st0" d="M85.9,7.1h3.2v1.1c0.8-0.8,1.8-1.3,2.9-1.3c0.8,0,1.6,0.3,2.1,0.9c0.6,0.8,0.9,1.8,0.8,2.7v7.3
		c0,0.7-0.1,1.4-0.5,2.1c-0.5,0.9-1.4,1.4-2.4,1.3c-1.1-0.1-2.2-0.6-3-1.4v5.9h-3.2V7.1z M89.1,17c0,0.9,0.3,1.5,1.3,1.5
		c1.2,0,1.3-0.9,1.3-1.4v-6.4c0-1-0.4-1.5-1.3-1.5c-1.3,0-1.3,1.2-1.3,1.6L89.1,17z"/>
	<path class="st0" d="M97,10.8c0-1.7,0.6-4,4.4-4c1,0,2,0.2,2.9,0.8c1,0.7,1.5,1.9,1.3,3.1v6.6c0,2.5-1.6,3.9-4.4,3.9
		C97,21.2,97,18,97,17V10.8z M100.2,17.5c0,0.3,0,1.4,1.1,1.4s1.1-1,1.1-1.5v-7c0-0.8-0.1-1.7-1.1-1.7c-1.2,0-1.2,1-1.2,1.7
		L100.2,17.5z"/>
	<path class="st0" d="M107.8,7.1h3.3v1c0.7-0.8,1.7-1.3,2.8-1.3c0.8,0,1.6,0.3,2.2,0.9c0.5,0.7,0.8,1.5,0.7,2.4v10.8h-3.2V10.7
		c0-0.8-0.1-1.7-1.1-1.7c-1.3,0-1.3,1.2-1.3,1.9v10h-3.2L107.8,7.1z"/>
	<path class="st0" d="M119.1,1.8h3.2v3.3h-3.2V1.8z M119.1,7.1h3.3v13.8h-3.2L119.1,7.1z"/>
	<path class="st0" d="M124.7,1.8h3.2v6.3c0.7-0.8,1.8-1.3,2.9-1.4c1.7,0,3,1.4,2.9,3.1c0,0,0,0.1,0,0.1v7.8c0,2.9-2.1,3.4-2.9,3.4
		c-1.2,0-2.3-0.6-2.9-1.6v1.3h-3.2L124.7,1.8z M130.5,10.8c0-0.5,0-1.6-1.2-1.6c-1.4,0-1.4,1.1-1.4,1.8v5.6c0,0.9,0.1,1.8,1.3,1.8
		c1.2,0,1.3-1.2,1.3-1.8V10.8z"/>
	<path class="st0" d="M136,1.8h3.2v3.3H136V1.8z M136,7.1h3.2v13.8H136V7.1z"/>
	<path class="st0" d="M141.6,1.8h3.2v19h-3.2V1.8z"/>
	<path class="st0" d="M147.2,1.8h3.2v3.3h-3.2L147.2,1.8z M147.2,7.1h3.2v13.8h-3.2V7.1z"/>
	<path class="st0" d="M158.5,1.8h3.2v19.1h-3.2v-1.3c-0.5,1-1.5,1.6-2.7,1.6c-1.1,0-2.1-0.5-2.7-1.4c-0.4-0.9-0.5-1.9-0.4-2.9v-6.3
		c0-0.7,0.1-1.4,0.4-2c0.5-1,1.5-1.6,2.6-1.6c1.1,0.1,2.1,0.6,2.8,1.4L158.5,1.8z M155.9,16.9c0,0.7,0,1.6,1.2,1.6s1.3-1.2,1.3-1.7
		v-5.9c0-0.4,0-1.6-1.3-1.6s-1.2,1.1-1.2,1.8V16.9z"/>
	<path class="st0" d="M164,11.3c0-2.1,0-2.8,0.8-3.5c1-0.8,2.3-1.1,3.5-1c0.8,0,1.7,0.2,2.5,0.5c1,0.4,1.6,1.4,1.6,2.5v7.7
		c0,2,0,2.9,0.6,3.4h-3.4c-0.3-0.3-0.4-0.8-0.4-1.2c-0.6,0.9-1.7,1.5-2.8,1.5c-2.7,0-2.7-2.5-2.7-3.8c0-2.4,0-3.2,2.1-4.3l3.4-1.7
		c0-0.5,0-1,0-1.5c0-0.3-0.1-0.9-1.1-0.9s-1.1,0.7-1.1,2.3L164,11.3z M169.2,13.9l-1.6,1c-0.6,0.4-0.7,0.9-0.7,2.3
		c0,1.1,0.2,1.5,0.8,1.5c0.3,0,0.8-0.1,1.5-0.8V13.9z"/>
	<path class="st0" d="M180.4,1.8h3.2v19.1h-3.2v-1.3c-0.5,1-1.6,1.6-2.7,1.6c-1.1,0-2.1-0.5-2.7-1.4c-0.4-0.9-0.5-1.9-0.4-2.9v-6.3
		c0-0.7,0.1-1.4,0.4-2c0.5-1,1.5-1.6,2.6-1.6c1.1,0.1,2.1,0.6,2.8,1.4L180.4,1.8z M177.8,16.9c0,0.7,0,1.6,1.2,1.6s1.3-1.2,1.3-1.7
		v-5.9c0-0.4,0-1.6-1.4-1.6s-1.2,1.1-1.2,1.8L177.8,16.9z"/>
	<path class="st0" d="M196.7,7.1h3.2v1.8c0.5-1.3,1.8-2.1,3.2-2V10c-0.3-0.1-0.7-0.2-1.1-0.2c-2.1,0-2.1,1.9-2.1,3v8.1h-3.2
		L196.7,7.1z"/>
	<path class="st0" d="M207.1,17c0,0.6,0,1.7,1.2,1.7c0.3,0,0.7-0.1,0.9-0.4c0.2-0.3,0.3-0.5,0.3-1.9h3.1v1.1c0,3-2.2,3.7-4.2,3.7
		c-3.2,0-4.4-1.6-4.4-4.4v-5.9c-0.1-1.3,0.4-2.6,1.5-3.3c0.9-0.5,1.9-0.8,2.9-0.8c1.2,0,2.4,0.4,3.3,1.2c0.7,0.8,1,1.7,0.9,2.8v3.9
		h-5.5V17z M207.1,12.5h2.3v-1.7c0-0.4,0-1.4-1.1-1.4c-0.8,0-1.2,0.5-1.2,1.4V12.5z"/>
	<path class="st0" d="M214.7,1.8h3.2v19h-3.2V1.8z"/>
	<path class="st0" d="M220.3,11.3c0-2.1,0-2.8,0.8-3.5c1-0.8,2.3-1.1,3.5-1c0.8,0,1.7,0.2,2.5,0.5c1,0.4,1.6,1.4,1.6,2.5v7.7
		c0,2,0,2.9,0.6,3.4h-3.4c-0.3-0.3-0.4-0.8-0.4-1.2c-0.6,0.9-1.7,1.5-2.8,1.5c-2.7,0-2.7-2.5-2.7-3.8c0-2.4,0-3.2,2.1-4.3l3.4-1.7
		c0-0.5,0-1,0-1.5c0-0.3-0.1-0.9-1.1-0.9s-1.1,0.7-1.1,2.3L220.3,11.3z M225.5,13.9l-1.6,1c-0.6,0.4-0.7,0.9-0.7,2.3
		c0,1.1,0.2,1.5,0.8,1.5c0.3,0,0.8-0.1,1.5-0.8V13.9z"/>
	<path class="st0" d="M231.8,2.1h3.2v5h1.9v2.1H235v7.9c0,0.9,0.2,1.5,1.4,1.5c0.2,0,0.4,0,0.6,0v2.3c-0.6,0.1-1.1,0.2-1.7,0.2
		c-3,0-3.5-1.1-3.5-2.9v-9h-1.8V7.1h1.7L231.8,2.1z"/>
	<path class="st0" d="M238.4,1.8h3.2v3.3h-3.2V1.8z M238.4,7.1h3.2v13.8h-3.2V7.1z"/>
	<path class="st0" d="M242.8,7.1h3.2l1.4,9.6l1.6-9.6h3.3l-3.3,13.8h-3.1L242.8,7.1z"/>
	<path class="st0" d="M253.5,11.3c0-2.1,0-2.8,0.8-3.5c1-0.8,2.3-1.1,3.5-1c0.8,0,1.7,0.2,2.5,0.5c1,0.4,1.6,1.4,1.6,2.5v7.7
		c0,2,0,2.9,0.6,3.4h-3.4c-0.3-0.3-0.4-0.8-0.4-1.2c-0.6,0.9-1.7,1.5-2.8,1.5c-2.7,0-2.7-2.5-2.7-3.8c0-2.4,0-3.2,2.1-4.3l3.4-1.7
		c0-0.5,0-1,0-1.5c0-0.3-0.1-0.9-1.1-0.9s-1.1,0.7-1.1,2.3L253.5,11.3z M258.6,13.9l-1.6,1c-0.6,0.4-0.7,0.9-0.7,2.3
		c0,1.1,0.2,1.5,0.8,1.5c0.3,0,0.8-0.1,1.5-0.8V13.9z"/>
	<path class="st0" d="M280.6,1.8h3.2v19.1h-3.2v-1.3c-0.5,1-1.5,1.6-2.7,1.6c-1.1,0-2.1-0.5-2.7-1.4c-0.4-0.9-0.5-1.9-0.4-2.9v-6.3
		c0-0.7,0.1-1.4,0.4-2c0.5-1,1.5-1.6,2.6-1.6c1.1,0.1,2.1,0.6,2.8,1.4L280.6,1.8z M278,16.9c0,0.7,0,1.6,1.2,1.6s1.4-1.2,1.4-1.7
		v-5.9c0-0.4,0-1.6-1.4-1.6S278,10.3,278,11V16.9z"/>
	<path class="st0" d="M289.2,17c0,0.6,0,1.7,1.2,1.7c0.3,0,0.7-0.1,0.9-0.4c0.2-0.3,0.3-0.5,0.3-1.9h3.1v1.1c0,3-2.2,3.7-4.2,3.7
		c-3.2,0-4.4-1.6-4.4-4.4v-5.9c-0.1-1.3,0.4-2.6,1.5-3.3c0.9-0.5,1.9-0.8,2.9-0.8c1.2,0,2.4,0.4,3.4,1.2c0.7,0.8,1,1.7,0.9,2.8v3.9
		h-5.5V17z M289.2,12.5h2.3v-1.7c0-0.4,0-1.4-1.1-1.4c-0.8,0-1.2,0.5-1.2,1.4V12.5z"/>
	<path class="st0" d="M307.5,11.3c0-2.1,0-2.8,0.8-3.5c1-0.8,2.3-1.1,3.5-1c0.8,0,1.7,0.2,2.5,0.5c1,0.4,1.6,1.4,1.6,2.5v7.7
		c0,2,0,2.9,0.6,3.4h-3.4c-0.3-0.3-0.4-0.8-0.4-1.2c-0.6,0.9-1.7,1.5-2.8,1.5c-2.7,0-2.7-2.5-2.7-3.8c0-2.4,0-3.2,2.1-4.3l3.4-1.7
		c0-0.5,0-1,0-1.5c0-0.3-0.1-0.9-1.1-0.9s-1.1,0.7-1.1,2.3L307.5,11.3z M312.6,13.9l-1.6,1c-0.6,0.4-0.7,0.9-0.7,2.3
		c0,1.1,0.2,1.5,0.8,1.5c0.6-0.1,1.1-0.3,1.5-0.8V13.9z"/>
	<path class="st0" d="M318.2,7.1h3.2V8c0.7-0.7,1.7-1.2,2.7-1.2c1,0,2,0.5,2.6,1.4c0.8-0.9,2-1.4,3.1-1.4c0.7,0,1.5,0.3,2,0.8
		c0.6,0.6,0.9,1.5,0.8,2.3v11h-3.2V10.7c0-0.7,0-1.6-1.2-1.6c-0.9,0-1.3,0.7-1.3,1.8v10.1h-3.2V10.7c0-0.7,0-1.7-1.2-1.7
		c-0.9,0-1.2,0.7-1.2,1.6v10.2h-3.2L318.2,7.1z"/>
	<path class="st0" d="M335.1,1.8h3.2v6.3c0.7-0.8,1.8-1.3,2.9-1.4c1.7,0,3,1.4,2.9,3.1c0,0,0,0.1,0,0.1v7.8c0,2.9-2.1,3.4-2.9,3.4
		c-1.2,0-2.3-0.6-2.9-1.6v1.3h-3.2L335.1,1.8z M340.9,10.8c0-0.5,0-1.6-1.2-1.6c-1.4,0-1.4,1.1-1.4,1.8v5.6c0,0.9,0.1,1.8,1.3,1.8
		s1.3-1.2,1.3-1.8V10.8z"/>
	<path class="st0" d="M346.3,11.3c0-2.1,0-2.8,0.8-3.5c1-0.8,2.3-1.1,3.5-1c0.8,0,1.7,0.2,2.5,0.5c1,0.4,1.6,1.4,1.6,2.5v7.7
		c0,2,0,2.9,0.6,3.4h-3.4c-0.3-0.3-0.4-0.8-0.4-1.2c-0.6,0.9-1.7,1.5-2.8,1.5c-2.7,0-2.7-2.5-2.7-3.8c0-2.4,0-3.2,2.1-4.3l3.4-1.7
		c0-0.5,0-1,0-1.5c0-0.3-0.1-0.9-1.1-0.9s-1.1,0.7-1.1,2.3L346.3,11.3z M351.5,13.9l-1.6,1c-0.6,0.4-0.7,0.9-0.7,2.3
		c0,1.1,0.2,1.5,0.8,1.5c0.3,0,0.8-0.1,1.5-0.8V13.9z"/>
	<path class="st0" d="M356.6,16h3c0,2,0,2.8,1.3,2.8c0.7,0,1.2-0.3,1.2-1.5c0.1-0.7-0.3-1.5-1-1.8l-2.7-1.9
		c-0.3-0.3-0.6-0.6-0.9-0.9c-0.6-0.7-0.9-1.6-0.8-2.4c0-2.9,1.9-3.6,4.2-3.6c2.8,0,3.9,1.2,3.9,3.2v1.5h-2.8c0-1.6,0-2.5-1.2-2.5
		c-0.5,0-1.1,0.1-1.1,1.2c0,0.4,0,0.9,0.9,1.5l3,2.1c0.3,0.3,0.6,0.6,0.9,0.9c0.4,0.7,0.5,1.4,0.5,2.2c0,1.8,0,4.3-4.3,4.3
		c-3.5,0-4.2-1.8-4.2-3.7L356.6,16z"/>
	<path class="st0" d="M381.6,7.1h1.4v2.1h-1.4v11.7h-3.2V9.2H377V7.1h1.4V4.6c0-2.9,2.4-2.9,3.6-2.9c0.4,0,0.7,0,1.1,0.1v2.6h-0.7
		c-0.8,0-0.8,0.7-0.8,0.9L381.6,7.1z"/>
	<path class="st0" d="M384.4,10.8c0-1.7,0.6-4,4.4-4c1,0,2,0.2,2.9,0.8c1,0.7,1.5,1.9,1.4,3.1v6.6c0,2.5-1.6,3.9-4.4,3.9
		c-4.2,0-4.2-3.2-4.2-4.2L384.4,10.8z M387.6,17.5c0,0.3,0,1.4,1.1,1.4s1.1-1,1.1-1.5v-7c0-0.8-0.1-1.7-1.1-1.7
		c-1.2,0-1.2,1-1.2,1.7V17.5z"/>
	<path class="st0" d="M395.3,7.1h3.2v1.8c0.5-1.3,1.8-2.1,3.2-2V10c-0.3-0.1-0.7-0.2-1.1-0.2c-2.1,0-2.1,1.9-2.1,3v8.1h-3.2V7.1z"/>
	<path class="st0" d="M403.2,7.1h3.2V8c0.7-0.7,1.7-1.2,2.7-1.2c1,0,2,0.5,2.6,1.4c0.8-0.9,2-1.4,3.2-1.4c0.7,0,1.5,0.3,2,0.8
		c0.6,0.6,0.9,1.5,0.8,2.3v11h-3.2V10.7c0-0.7,0-1.6-1.2-1.6c-0.9,0-1.3,0.7-1.3,1.8v10.1h-3.2V10.7c0-0.7,0-1.7-1.2-1.7
		c-0.9,0-1.2,0.7-1.2,1.6v10.2h-3.2L403.2,7.1z"/>
	<path class="st0" d="M420,7.1h3.2V17c0,0.7,0,1.7,1.2,1.7s1.2-1.1,1.2-1.8V7.1h3.2v13.8h-3.2v-1.1c-0.8,0.8-1.9,1.3-3,1.3
		c-1.3,0-2.4-0.9-2.6-2.1c-0.1-0.5-0.1-1-0.1-1.5V7.1z"/>
	<path class="st0" d="M431.3,1.8h3.2v19h-3.2V1.8z"/>
	<path class="st0" d="M436.9,11.3c0-2.1,0-2.8,0.8-3.5c1-0.8,2.3-1.1,3.5-1c0.8,0,1.7,0.2,2.5,0.5c1,0.4,1.6,1.4,1.6,2.5v7.7
		c0,2,0,2.9,0.6,3.4h-3.4c-0.3-0.3-0.4-0.8-0.4-1.2c-0.6,0.9-1.7,1.5-2.8,1.5c-2.7,0-2.7-2.5-2.7-3.8c0-2.4,0-3.2,2.1-4.3l3.4-1.7
		c0-0.5,0-1,0-1.5c0-0.3-0.1-0.9-1.1-0.9s-1.1,0.7-1.1,2.3L436.9,11.3z M442,13.9l-1.6,1c-0.6,0.4-0.7,0.9-0.7,2.3
		c0,1.1,0.2,1.5,0.8,1.5c0.6-0.1,1.1-0.3,1.5-0.8V13.9z"/>
	<path class="st0" d="M453.1,12.3v-1.7c0-0.5,0-1.5-1.2-1.5s-1.3,1.2-1.3,1.9v6c0,0.7,0,1.8,1.3,1.8s1.2-1.2,1.2-1.8v-1.6h3.2V17
		c0,2.8-1.5,4.2-4.4,4.2c-1.2,0-2.3-0.3-3.3-0.9c-0.9-0.8-1.3-1.9-1.2-3.1V11c0-1,0.2-1.9,0.8-2.7c0.9-1.1,2.3-1.6,3.7-1.5
		c1.2,0,2.3,0.3,3.3,1c0.8,0.7,1.2,1.8,1.1,2.9v1.7L453.1,12.3z"/>
	<path class="st0" d="M458.3,1.8h3.2v3.3h-3.2V1.8z M458.3,7.1h3.2v13.8h-3.2V7.1z"/>
	<path class="st0" d="M463.8,10.8c0-1.7,0.6-4,4.4-4c1,0,2,0.2,2.9,0.8c1,0.7,1.5,1.9,1.4,3.1v6.6c0,2.5-1.6,3.9-4.4,3.9
		c-4.2,0-4.2-3.2-4.2-4.2V10.8z M467,17.5c0,0.3,0,1.4,1.1,1.4s1.1-1,1.1-1.5v-7c0-0.8-0.1-1.7-1.1-1.7c-1.2,0-1.2,1-1.2,1.7
		L467,17.5z"/>
	<path class="st0" d="M474.6,7.1h3.3l-0.1,1c0.7-0.8,1.7-1.3,2.8-1.3c0.8,0,1.7,0.3,2.2,0.9c0.5,0.7,0.7,1.5,0.6,2.4v10.8h-3.2V10.7
		c0-0.8,0-1.7-1.1-1.7c-1.4,0-1.4,1.2-1.4,1.9v10h-3.2V7.1z"/>
	<path class="st0" d="M488.9,17c0,0.6,0,1.7,1.2,1.7c0.3,0,0.7-0.1,0.9-0.4c0.2-0.3,0.3-0.5,0.3-1.9h3.2v1.1c0,3-2.2,3.7-4.2,3.7
		c-3.2,0-4.4-1.6-4.4-4.4v-5.9c-0.1-1.3,0.4-2.6,1.5-3.3c0.9-0.5,1.9-0.8,2.9-0.8c1.2,0,2.4,0.4,3.3,1.2c0.7,0.8,1,1.7,1,2.8v3.9
		h-5.5V17z M488.9,12.5h2.3v-1.7c0-0.4,0-1.4-1.1-1.4c-0.8,0-1.2,0.5-1.2,1.4V12.5z"/>
	<path class="st0" d="M496.1,16h3c0,2,0,2.8,1.3,2.8c0.7,0,1.2-0.3,1.2-1.5c0.1-0.7-0.3-1.5-0.9-1.8l-2.7-1.9
		c-0.3-0.3-0.6-0.6-0.9-0.9c-0.6-0.7-0.8-1.6-0.8-2.4c0-2.9,1.9-3.6,4.1-3.6c2.8,0,3.9,1.2,3.9,3.2v1.5h-2.8c0-1.6,0-2.5-1.2-2.5
		c-0.5,0-1.1,0.1-1.1,1.2c0,0.4,0,0.9,0.9,1.5l2.9,2.1c0.3,0.3,0.6,0.6,0.9,0.9c0.4,0.7,0.5,1.4,0.5,2.2c0,1.8,0,4.3-4.3,4.3
		c-3.5,0-4.2-1.8-4.2-3.7L496.1,16z"/>
	<path class="st0" d="M506.4,17.4h3.2v3.5l-2.2,3.6h-1.2l1.9-3.7h-1.6L506.4,17.4z"/>
	<path class="st0" d="M521.3,1.8h10.5v2.8h-3.5v16.3h-3.5V4.6h-3.5V1.8z"/>
	<path class="st0" d="M533.9,17c0,0.6,0,1.7,1.2,1.7c0.3,0,0.7-0.1,0.9-0.4c0.2-0.3,0.3-0.5,0.3-1.9h3.1v1.1c0,3-2.2,3.7-4.2,3.7
		c-3.2,0-4.4-1.6-4.4-4.4v-5.9c-0.1-1.3,0.4-2.6,1.5-3.3c0.9-0.5,1.9-0.8,2.9-0.8c1.2,0,2.4,0.4,3.3,1.2c0.7,0.8,1,1.7,1,2.8v3.9
		h-5.5V17z M533.9,12.5h2.3v-1.7c0-0.4,0-1.4-1.1-1.4c-0.8,0-1.2,0.5-1.2,1.4V12.5z"/>
	<path class="st0" d="M541.1,16h3c0,2,0,2.8,1.3,2.8c0.7,0,1.2-0.3,1.2-1.5c0.1-0.8-0.3-1.5-1-1.8l-2.7-1.9
		c-0.3-0.3-0.6-0.6-0.9-0.9c-0.6-0.7-0.8-1.6-0.8-2.4c0-2.9,1.9-3.6,4.2-3.6c2.8,0,3.9,1.2,3.9,3.2v1.5h-2.8c0-1.6,0-2.5-1.2-2.5
		c-0.5,0-1.1,0.1-1.1,1.2c0,0.4,0,0.9,0.9,1.5l2.9,2.1c0.3,0.3,0.6,0.6,0.9,0.9c0.4,0.7,0.5,1.4,0.5,2.2c0,1.8,0,4.3-4.3,4.3
		c-3.5,0-4.2-1.8-4.2-3.7L541.1,16z"/>
	<path class="st0" d="M552.4,2.1h3.2v5h1.9v2.1h-1.9v7.9c0,0.9,0.2,1.5,1.5,1.5c0.2,0,0.3,0,0.6,0v2.3c-0.6,0.1-1.1,0.2-1.7,0.2
		c-3,0-3.5-1.1-3.5-2.9v-9h-1.8V7.1h1.7L552.4,2.1z"/>
	<path class="st0" d="M570,7.4c0-3.7,2.6-6,5.9-7.4v2.5c-2.4,1.4-2.7,3.6-2.7,5.4v10.5c0,2.2,0.6,3.4,2.7,5v2.3
		c-1.7-0.6-3.2-1.7-4.3-3c-1.1-1.3-1.6-3-1.5-4.6L570,7.4z"/>
	<path class="st0" d="M577.7,1.8h5.7l2.3,13.3l2.2-13.3h5.6v19h-3.5l0.3-16.5l-3,16.5h-3.3L581,4.4l0.3,16.5h-3.5L577.7,1.8z"/>
	<path class="st0" d="M599.2,17c0,0.6,0,1.7,1.2,1.7c0.3,0,0.7-0.1,0.9-0.4c0.2-0.3,0.3-0.5,0.3-1.9h3.1v1.1c0,3-2.2,3.7-4.2,3.7
		c-3.2,0-4.4-1.6-4.4-4.4v-5.9c-0.1-1.3,0.4-2.6,1.5-3.3c0.9-0.5,1.9-0.8,2.9-0.8c1.2,0,2.4,0.4,3.3,1.2c0.7,0.8,1,1.7,1,2.8v3.9
		h-5.5V17z M599.2,12.5h2.3v-1.7c0-0.4,0-1.4-1.1-1.4c-0.8,0-1.2,0.5-1.2,1.4V12.5z"/>
	<path class="st0" d="M612.5,1.8h3.2v19.1h-3.2v-1.3c-0.5,1-1.5,1.6-2.7,1.6c-1.1,0-2.1-0.5-2.7-1.4c-0.4-0.9-0.5-1.9-0.4-2.9v-6.3
		c0-0.7,0.1-1.4,0.4-2c0.5-1,1.5-1.6,2.6-1.6c1.1,0.1,2.1,0.6,2.8,1.4L612.5,1.8z M609.9,16.9c0,0.7,0,1.6,1.2,1.6s1.3-1.2,1.3-1.7
		v-5.9c0-0.4,0-1.6-1.3-1.6s-1.2,1.1-1.2,1.8V16.9z"/>
	<path class="st0" d="M618.1,1.8h3.2v3.3h-3.2V1.8z M618.1,7.1h3.3v13.8h-3.2L618.1,7.1z"/>
	<path class="st0" d="M629.2,12.3v-1.7c0-0.5,0-1.5-1.2-1.5s-1.3,1.2-1.3,1.9v6c0,0.7,0,1.8,1.3,1.8s1.2-1.2,1.2-1.8v-1.6h3.2V17
		c0,2.8-1.5,4.2-4.4,4.2c-1.2,0-2.3-0.3-3.3-0.9c-0.9-0.8-1.3-1.9-1.2-3.1V11c-0.1-1,0.2-1.9,0.8-2.7c0.9-1.1,2.3-1.6,3.7-1.5
		c1.2,0,2.3,0.3,3.3,1c0.8,0.7,1.3,1.8,1.1,2.9v1.7L629.2,12.3z"/>
	<path class="st0" d="M634.4,11.3c0-2.1,0-2.8,0.8-3.5c1-0.8,2.3-1.1,3.5-1c0.8,0,1.7,0.2,2.5,0.5c1,0.4,1.7,1.4,1.7,2.5v7.7
		c0,2,0,2.9,0.6,3.4H640c-0.3-0.3-0.4-0.8-0.4-1.2c-0.6,0.9-1.7,1.5-2.8,1.5c-2.7,0-2.7-2.5-2.7-3.8c0-2.4,0-3.2,2.1-4.3l3.3-1.7
		c0-0.5,0-1,0-1.5c0-0.3-0.1-0.9-1.1-0.9s-1.1,0.7-1.1,2.3L634.4,11.3z M639.5,13.9l-1.6,1c-0.6,0.4-0.7,0.9-0.7,2.3
		c0,1.1,0.2,1.5,0.8,1.5c0.3,0,0.8-0.1,1.5-0.8V13.9z"/>
	<path class="st0" d="M645.1,7.1h3.3V8c0.7-0.7,1.7-1.2,2.7-1.2c1,0,2,0.5,2.6,1.4c0.8-0.9,2-1.4,3.2-1.4c0.7,0,1.5,0.3,2,0.8
		c0.6,0.6,0.9,1.5,0.8,2.3v11h-3.3V10.7c0-0.7,0-1.6-1.2-1.6c-0.9,0-1.3,0.7-1.3,1.8v10.1h-3.2V10.7c0-0.7,0-1.7-1.2-1.7
		c-0.9,0-1.2,0.7-1.2,1.6v10.2h-3.2V7.1z"/>
	<path class="st0" d="M662,7.1h3.3l0,1c0.7-0.8,1.7-1.3,2.8-1.3c0.8,0,1.6,0.3,2.2,0.9c0.5,0.7,0.8,1.5,0.7,2.4v10.8h-3.2V10.7
		c0-0.8,0-1.7-1.1-1.7c-1.3,0-1.3,1.2-1.3,1.9v10H662V7.1z"/>
	<path class="st0" d="M676.3,17c0,0.6,0,1.7,1.2,1.7c0.3,0,0.7-0.1,0.9-0.4c0.2-0.3,0.3-0.5,0.3-1.9h3.1v1.1c0,3-2.2,3.7-4.2,3.7
		c-3.2,0-4.4-1.6-4.4-4.4v-5.9c-0.1-1.3,0.4-2.6,1.5-3.3c0.9-0.5,1.9-0.8,2.9-0.8c1.2,0,2.4,0.4,3.4,1.2c0.7,0.8,1,1.7,0.9,2.8v3.9
		h-5.5V17z M676.3,12.5h2.3v-1.7c0-0.4,0-1.4-1.1-1.4c-0.8,0-1.2,0.5-1.2,1.4V12.5z"/>
	<path class="st0" d="M684.7,2.1h3.2v5h1.9v2.1h-1.9v7.9c0,0.9,0.2,1.5,1.5,1.5c0.2,0,0.3,0,0.6,0v2.3c-0.6,0.1-1.1,0.2-1.7,0.2
		c-3,0-3.5-1.1-3.5-2.9v-9h-1.8V7.1h1.7L684.7,2.1z"/>
	<path class="st0" d="M691.1,10.8c0-1.7,0.6-4,4.4-4c1,0,2,0.2,2.9,0.8c1,0.7,1.5,1.9,1.3,3.1v6.6c0,2.5-1.6,3.9-4.4,3.9
		c-4.2,0-4.2-3.2-4.2-4.2L691.1,10.8z M694.3,17.5c0,0.3,0,1.4,1.1,1.4s1.1-1,1.1-1.5v-7c0-0.8-0.1-1.7-1.1-1.7
		c-1.2,0-1.2,1-1.2,1.7V17.5z"/>
	<path class="st0" d="M718.2,7.1h3.2v14.3c0,1.4,0,4.4-4.7,4.4c-4.2,0-4.2-2.5-4.3-3.8h3.2c0,0.3,0,0.6,0.1,0.9
		c0.2,0.4,0.7,0.6,1.1,0.6c1.1,0,1.3-0.8,1.3-1.6v-2.1c-0.7,0.9-1.7,1.4-2.8,1.3c-2.7,0-3-1.9-3-3.4v-7.3c0-0.5,0-3.5,2.9-3.5
		c1.1,0,2.2,0.5,2.9,1.4V7.1z M715.6,17.1c0,0.4,0,1.5,1.3,1.5s1.3-0.9,1.3-1.6v-6.1c0-0.6,0-1.7-1.3-1.7s-1.3,1.2-1.3,1.7
		L715.6,17.1z"/>
	<path class="st0" d="M726.9,17c0,0.6,0,1.7,1.2,1.7c0.3,0,0.7-0.1,0.9-0.4c0.2-0.3,0.3-0.5,0.3-1.9h3.2v1.1c0,3-2.2,3.7-4.2,3.7
		c-3.2,0-4.4-1.6-4.4-4.4v-5.9c-0.1-1.3,0.4-2.6,1.5-3.3c0.9-0.5,1.9-0.8,2.9-0.8c1.2,0,2.4,0.4,3.3,1.2c0.7,0.8,1,1.7,0.9,2.8v3.9
		h-5.5V17z M726.9,12.5h2.3v-1.7c0-0.4,0-1.4-1.1-1.4c-0.8,0-1.2,0.5-1.2,1.4V12.5z"/>
	<path class="st0" d="M734.6,7.1h3.3l0,1c0.7-0.8,1.7-1.3,2.8-1.3c0.8,0,1.6,0.3,2.2,0.9c0.5,0.7,0.8,1.5,0.7,2.4v10.8h-3.2V10.7
		c0-0.8,0-1.7-1.1-1.7c-1.3,0-1.3,1.2-1.3,1.9v10h-3.2L734.6,7.1z"/>
	<path class="st0" d="M748.8,17c0,0.6,0,1.7,1.2,1.7c0.3,0,0.7-0.1,0.9-0.4c0.2-0.3,0.3-0.5,0.3-1.9h3.1v1.1c0,3-2.2,3.7-4.2,3.7
		c-3.2,0-4.4-1.6-4.4-4.4v-5.9c-0.1-1.3,0.4-2.6,1.5-3.3C748,7,749,6.8,750,6.8c1.2,0,2.4,0.4,3.3,1.2c0.7,0.8,1,1.7,0.9,2.8v3.9
		h-5.5L748.8,17z M750,1.4h4.2c-1.5,1.5-1.8,1.9-3.4,3.6h-2.5L750,1.4z M748.9,12.5h2.3v-1.7c0-0.4,0-1.4-1.1-1.4
		c-0.8,0-1.2,0.5-1.2,1.4V12.5z"/>
	<path class="st0" d="M756.5,7.1h3.2v1.8c0.5-1.3,1.8-2.1,3.2-2V10c-0.3-0.1-0.7-0.2-1.1-0.2c-2.1,0-2.1,1.9-2.1,3v8.1h-3.2
		L756.5,7.1z"/>
	<path class="st0" d="M764.2,1.8h3.2v3.3h-3.2L764.2,1.8z M764.2,7.1h3.2v13.8h-3.2L764.2,7.1z"/>
	<path class="st0" d="M775.3,12.3v-1.7c0-0.5,0-1.5-1.2-1.5c-1.3,0-1.3,1.2-1.3,1.9v6c0,0.7,0,1.8,1.3,1.8s1.2-1.2,1.2-1.8v-1.6h3.2
		V17c0,2.8-1.5,4.2-4.4,4.2c-1.2,0-2.3-0.3-3.3-0.9c-0.9-0.8-1.3-1.9-1.2-3.1V11c0-1,0.2-1.9,0.8-2.7c0.9-1.1,2.3-1.6,3.7-1.5
		c1.2,0,2.3,0.3,3.3,1c0.8,0.7,1.3,1.8,1.1,2.9v1.7L775.3,12.3z"/>
	<path class="st0" d="M780.3,10.8c0-1.7,0.6-4,4.4-4c1,0,2,0.2,2.9,0.8c1,0.7,1.5,1.9,1.3,3.1v6.6c0,2.5-1.6,3.9-4.4,3.9
		c-4.2,0-4.2-3.2-4.2-4.2L780.3,10.8z M783.5,17.5c0,0.3,0,1.4,1.1,1.4s1.1-1,1.1-1.5v-7c0-0.8-0.1-1.7-1.1-1.7
		c-1.2,0-1.2,1-1.2,1.7V17.5z"/>
	<path class="st0" d="M796.4,18.4c0,3.4-2.3,5.8-5.9,7.4v-2.5c2.4-1.4,2.7-3.6,2.7-5.4V7.3c0-2.2-0.6-3.4-2.7-5V0
		c1.7,0.6,3.2,1.6,4.3,2.9c1.1,1.3,1.6,3,1.5,4.6V18.4z"/>
	<path class="st0" d="M808.5,7.1h3.2l1.8,8.9l1.4-8.9h3.2l-3.2,14.8c-0.6,2.8-1.3,3.8-3.8,3.8c-0.7,0-1.4-0.1-2.1-0.2l0.5-2.5
		c0.4,0.1,0.8,0.2,1.3,0.2c1.4,0,1.5-2.1,1.5-2.2L808.5,7.1z"/>
	<path class="st0" d="M829.8,14.2h3.5v2.2c0,1.1,0,2.2,1.7,2.2s1.7-1.1,1.7-2.8c0.2-1-0.3-2-1.2-2.5l-3.4-2.2
		c-1.5-0.9-2.4-2.7-2.3-4.5c0-1.5,0.1-2.9,1.4-3.9c1.1-0.8,2.5-1.2,3.8-1.1c2,0,4.9,0.8,4.9,4.1v1.9h-3.5V6.1c0-0.9,0-2-1.5-2
		c-1,0-1.6,0.3-1.6,1.9s0.3,2,1.1,2.5l3.5,2.3c0.7,0.5,1.3,1.1,1.8,1.9c0.5,0.9,0.5,1.5,0.5,3c0,1.7,0,2.8-0.6,3.8
		c-1,1.7-3.2,1.9-4.5,1.9c-3,0-5.3-1.1-5.3-4.3V14.2z"/>
	<path class="st0" d="M843,2.1h3.2v5h1.9v2.1h-1.9v7.9c0,0.9,0.2,1.5,1.5,1.5c0.2,0,0.3,0,0.6,0v2.3c-0.6,0.1-1.1,0.2-1.7,0.2
		c-3,0-3.5-1.1-3.5-2.9v-9h-1.8V7.1h1.7V2.1z"/>
	<path class="st0" d="M849.8,11.3c0-2.1,0-2.8,0.8-3.5c1-0.8,2.3-1.1,3.5-1c0.8,0,1.7,0.2,2.5,0.5c1,0.4,1.7,1.4,1.7,2.5v7.7
		c0,2,0,2.9,0.6,3.4h-3.4c-0.3-0.3-0.4-0.8-0.4-1.2c-0.6,0.9-1.7,1.5-2.8,1.5c-2.7,0-2.7-2.5-2.7-3.8c0-2.4,0-3.2,2.1-4.3l3.3-1.7
		c0-0.5,0-1,0-1.5c0-0.3-0.1-0.9-1.1-0.9s-1.1,0.7-1.1,2.3L849.8,11.3z M855,13.9l-1.6,1.1c-0.7,0.4-0.7,0.9-0.7,2.3
		c0,1.1,0.2,1.5,0.8,1.5c0.3,0,0.8-0.1,1.5-0.8L855,13.9z"/>
	<path class="st0" d="M860.6,7.1h3.3l0,1c0.7-0.8,1.7-1.3,2.8-1.3c0.8,0,1.6,0.3,2.2,0.9c0.5,0.7,0.8,1.5,0.7,2.4v10.8h-3.2V10.7
		c0-0.8,0-1.7-1.1-1.7c-1.3,0-1.3,1.2-1.3,1.9v10h-3.2L860.6,7.1z"/>
	<path class="st0" d="M877.5,1.8h3.2v19.1h-3.2v-1.3c-0.5,1-1.5,1.6-2.7,1.6c-1.1,0-2.1-0.5-2.7-1.4c-0.4-0.9-0.5-1.9-0.4-2.9v-6.3
		c0-0.7,0.1-1.4,0.4-2c0.5-1,1.5-1.6,2.6-1.6c1.1,0.1,2.1,0.6,2.8,1.4L877.5,1.8z M874.9,16.9c0,0.7,0,1.6,1.2,1.6s1.3-1.2,1.3-1.7
		v-5.9c0-0.4,0-1.6-1.3-1.6s-1.2,1.1-1.2,1.7V16.9z"/>
	<path class="st0" d="M883,11.3c0-2.1,0-2.8,0.8-3.5c1-0.8,2.3-1.1,3.5-1c0.8,0,1.7,0.2,2.5,0.5c1,0.4,1.6,1.4,1.6,2.5v7.7
		c0,2,0,2.9,0.6,3.4h-3.4c-0.3-0.3-0.4-0.8-0.4-1.2c-0.6,0.9-1.7,1.5-2.8,1.5c-2.7,0-2.7-2.5-2.7-3.8c0-2.4,0-3.2,2.1-4.3l3.3-1.7
		c0-0.5,0-1,0-1.5c0-0.3-0.1-0.9-1.1-0.9s-1.1,0.7-1.1,2.3L883,11.3z M888.2,13.9l-1.6,1c-0.7,0.4-0.7,0.9-0.7,2.3
		c0,1.1,0.2,1.5,0.8,1.5c0.3,0,0.8-0.1,1.5-0.8V13.9z"/>
	<path class="st0" d="M893.8,7.1h3.2v1.8c0.5-1.3,1.8-2.1,3.2-2V10c-0.3-0.1-0.7-0.2-1.1-0.2c-2.1,0-2.1,1.9-2.1,3v8.1h-3.2V7.1z"/>
	<path class="st0" d="M906.8,1.8h3.2v19.1h-3.2v-1.3c-0.5,1-1.5,1.6-2.7,1.6c-1.1,0-2.1-0.5-2.7-1.4c-0.4-0.9-0.5-1.9-0.4-2.9v-6.3
		c0-0.7,0.1-1.4,0.4-2c0.5-1,1.5-1.6,2.6-1.6c1.1,0.1,2.1,0.6,2.8,1.4L906.8,1.8z M904.2,16.9c0,0.7,0,1.6,1.2,1.6s1.3-1.2,1.3-1.7
		v-5.9c0-0.4,0-1.6-1.3-1.6s-1.2,1.1-1.2,1.7V16.9z"/>
	<path class="st0" d="M0.1,37.4c0-3.7,2.6-6,5.9-7.4v2.5c-2.4,1.4-2.7,3.6-2.7,5.4v10.6c0,2.2,0.6,3.4,2.7,5v2.4
		c-1.7-0.6-3.2-1.7-4.3-3c-1.1-1.3-1.6-3-1.5-4.6V37.4z"/>
	<path class="st0" d="M7.9,31.8h5.7l2.3,13.3l2.2-13.3h5.6v19.1h-3.5l0.3-16.5l-3.1,16.5h-3.3l-3.1-16.5l0.3,16.5H7.9V31.8z"/>
	<path class="st0" d="M29.3,47c0,0.6,0,1.7,1.2,1.7c0.3,0,0.7-0.1,0.9-0.4c0.2-0.3,0.3-0.5,0.3-1.9h3.1v1.1c0,3-2.2,3.7-4.2,3.7
		c-3.2,0-4.4-1.6-4.4-4.4V41c-0.1-1.3,0.4-2.6,1.5-3.3c0.9-0.5,1.9-0.8,2.9-0.8c1.2,0,2.4,0.4,3.3,1.2c0.7,0.8,1,1.7,1,2.8v3.9h-5.6
		V47z M29.3,42.5h2.3v-1.7c0-0.4,0-1.4-1.1-1.4c-0.8,0-1.2,0.5-1.2,1.4L29.3,42.5z"/>
	<path class="st0" d="M42.7,31.8h3.2v19.1h-3.2v-1.3c-0.5,1-1.5,1.6-2.7,1.6c-1.1,0-2.1-0.5-2.7-1.4c-0.4-0.9-0.5-1.9-0.4-2.9v-6.3
		c0-0.7,0.1-1.4,0.4-2c0.5-1,1.5-1.6,2.6-1.6c1.1,0.1,2.1,0.6,2.8,1.4L42.7,31.8z M40,46.9c0,0.7,0,1.6,1.2,1.6s1.3-1.2,1.3-1.7
		v-5.9c0-0.4,0-1.6-1.3-1.6S40,40.3,40,41V46.9z"/>
	<path class="st0" d="M48.2,31.8h3.2v3.3h-3.2V31.8z M48.2,37.1h3.2v13.8h-3.2V37.1z"/>
	<path class="st0" d="M59.4,42.3v-1.7c0-0.5,0-1.5-1.2-1.5s-1.3,1.2-1.3,1.9v6c0,0.7,0,1.8,1.3,1.8s1.2-1.2,1.2-1.8v-1.6h3.2V47
		c0,2.8-1.5,4.2-4.4,4.2c-1.2,0-2.3-0.3-3.3-0.9c-0.9-0.8-1.3-1.9-1.2-3.1V41c0-1,0.2-1.9,0.8-2.7c0.9-1.1,2.3-1.6,3.7-1.5
		c1.2,0,2.3,0.3,3.3,1c0.8,0.7,1.2,1.8,1.1,2.9v1.7L59.4,42.3z"/>
	<path class="st0" d="M64.5,41.3c0-2.1,0-2.8,0.8-3.5c1-0.8,2.3-1.1,3.5-1c0.8,0,1.7,0.2,2.4,0.5c1,0.4,1.7,1.4,1.7,2.5v7.7
		c0,2,0,2.9,0.6,3.4h-3.4c-0.3-0.3-0.4-0.8-0.4-1.2c-0.6,0.9-1.7,1.5-2.8,1.5c-2.7,0-2.7-2.5-2.7-3.8c0-2.4,0-3.2,2.1-4.3l3.3-1.7
		c0-0.5,0-1,0-1.5c0-0.3-0.1-0.9-1.1-0.9s-1.1,0.7-1.1,2.3L64.5,41.3z M69.7,43.9l-1.6,1c-0.7,0.4-0.7,0.9-0.7,2.3
		c0,1.1,0.2,1.5,0.8,1.5c0.6-0.1,1.1-0.3,1.5-0.8V43.9z"/>
	<path class="st0" d="M75.2,37.1h3.2V38c0.7-0.7,1.7-1.2,2.7-1.2c1,0,2,0.5,2.6,1.4c0.8-0.9,2-1.4,3.2-1.4c0.7,0,1.5,0.3,2,0.8
		c0.6,0.6,0.9,1.5,0.8,2.3v11h-3.2V40.7c0-0.7,0-1.6-1.2-1.6c-0.9,0-1.3,0.7-1.3,1.8v10.1h-3.2V40.7c0-0.7,0-1.7-1.2-1.7
		c-0.9,0-1.2,0.7-1.2,1.6v10.2h-3.2V37.1z"/>
	<path class="st0" d="M95.1,47c0,0.6,0,1.7,1.2,1.7c0.3,0,0.7-0.1,0.9-0.4c0.2-0.3,0.3-0.5,0.3-1.9h3.1v1.1c0,3-2.2,3.7-4.2,3.7
		c-3.2,0-4.4-1.6-4.4-4.4V41c-0.1-1.3,0.4-2.6,1.5-3.3c0.9-0.5,1.9-0.8,2.9-0.8c1.2,0,2.4,0.4,3.3,1.2c0.7,0.8,1,1.7,0.9,2.8v3.9
		h-5.5V47z M95.1,42.5h2.3v-1.7c0-0.4,0-1.4-1.1-1.4c-0.8,0-1.2,0.5-1.2,1.4V42.5z"/>
	<path class="st0" d="M102.8,37.1h3.3v1c0.7-0.8,1.7-1.3,2.8-1.3c0.8,0,1.6,0.3,2.2,0.9c0.5,0.7,0.8,1.5,0.7,2.4v10.8h-3.2V40.7
		c0-0.8,0-1.7-1.1-1.7c-1.3,0-1.3,1.2-1.3,1.9v10h-3.2L102.8,37.1z"/>
	<path class="st0" d="M114.8,32.1h3.2v5h1.9v2.1H118v7.9c0,0.9,0.2,1.5,1.5,1.5c0.2,0,0.3,0,0.6,0v2.3c-0.6,0.1-1.1,0.2-1.7,0.2
		c-3,0-3.5-1.1-3.5-2.9v-9h-1.7v-2.1h1.7V32.1z"/>
	<path class="st0" d="M121.2,40.8c0-1.7,0.6-4,4.4-4c1,0,2,0.2,2.9,0.8c1,0.7,1.5,1.9,1.4,3.1v6.6c0,2.5-1.6,3.9-4.4,3.9
		c-4.2,0-4.2-3.2-4.2-4.2L121.2,40.8z M124.4,47.5c0,0.3,0,1.4,1.1,1.4s1.1-1,1.1-1.5v-7c0-0.8-0.1-1.7-1.1-1.7
		c-1.2,0-1.2,1-1.2,1.7L124.4,47.5z"/>
	<path class="st0" d="M138.8,31.8h3.2v3.3h-3.2V31.8z M138.8,37.1h3.2v13.8h-3.2V37.1z"/>
	<path class="st0" d="M144.5,37.1h3.3l-0.1,1c0.7-0.8,1.7-1.3,2.8-1.3c0.8,0,1.6,0.3,2.2,0.9c0.5,0.7,0.8,1.5,0.6,2.4v10.8h-3.2
		V40.7c0-0.8,0-1.7-1.1-1.7c-1.4,0-1.4,1.2-1.4,1.9v10h-3.2L144.5,37.1z"/>
	<path class="st0" d="M155.7,37.1h3.3l-0.1,1c0.7-0.8,1.7-1.3,2.8-1.3c0.8,0,1.6,0.3,2.2,0.9c0.5,0.7,0.8,1.5,0.6,2.4v10.8h-3.2
		V40.7c0-0.8-0.1-1.7-1.1-1.7c-1.4,0-1.4,1.2-1.4,1.9v10h-3.2L155.7,37.1z"/>
	<path class="st0" d="M166.8,40.8c0-1.7,0.6-4,4.4-4c1,0,2,0.2,2.9,0.8c1,0.7,1.5,1.9,1.4,3.1v6.6c0,2.5-1.6,3.9-4.4,3.9
		c-4.2,0-4.2-3.2-4.2-4.2L166.8,40.8z M170,47.5c0,0.3,0,1.4,1.1,1.4s1.1-1,1.1-1.5v-7c0-0.8-0.1-1.7-1.1-1.7c-1.2,0-1.2,1-1.2,1.7
		V47.5z"/>
	<path class="st0" d="M176.5,37.1h3.2l1.4,9.6l1.6-9.6h3.2l-3.3,13.8h-3.1L176.5,37.1z"/>
	<path class="st0" d="M187.2,41.3c0-2.1,0-2.8,0.8-3.5c1-0.8,2.3-1.1,3.5-1c0.8,0,1.7,0.2,2.4,0.5c1,0.4,1.7,1.4,1.6,2.5v7.7
		c0,2,0,2.9,0.6,3.4h-3.4c-0.3-0.3-0.4-0.8-0.4-1.2c-0.6,0.9-1.7,1.5-2.8,1.5c-2.7,0-2.7-2.5-2.7-3.8c0-2.4,0-3.2,2.1-4.3l3.3-1.7
		c0-1.3,0-1.4,0-1.5c0-0.3-0.1-0.9-1.1-0.9s-1.1,0.7-1.1,2.3L187.2,41.3z M192.3,43.9l-1.6,1c-0.6,0.4-0.7,0.9-0.7,2.3
		c0,1.1,0.2,1.5,0.8,1.5c0.3,0,0.8-0.1,1.5-0.8L192.3,43.9z"/>
	<path class="st0" d="M203.6,31.8h3.2v19.1h-3.2v-1.3c-0.5,1-1.5,1.6-2.7,1.6c-1.1,0-2.1-0.5-2.7-1.4c-0.4-0.9-0.5-1.9-0.4-2.9v-6.3
		c0-0.7,0.1-1.4,0.4-2c0.5-1,1.5-1.6,2.6-1.6c1.1,0.1,2.1,0.6,2.8,1.4L203.6,31.8z M201,46.9c0,0.7,0,1.6,1.2,1.6s1.4-1.2,1.4-1.7
		v-5.9c0-0.4,0-1.6-1.4-1.6S201,40.3,201,41V46.9z"/>
	<path class="st0" d="M209,40.8c0-1.7,0.6-4,4.4-4c1,0,2,0.2,2.9,0.8c1,0.7,1.5,1.9,1.4,3.1v6.6c0,2.5-1.6,3.9-4.4,3.9
		c-4.2,0-4.2-3.2-4.2-4.2L209,40.8z M212.2,47.5c0,0.3,0,1.4,1.1,1.4s1.1-1,1.1-1.5v-7c0-0.8-0.1-1.7-1.1-1.7c-1.2,0-1.2,1-1.2,1.7
		V47.5z"/>
	<path class="st0" d="M219.9,37.1h3.2v1.8c0.5-1.3,1.8-2.1,3.2-2V40c-0.3-0.1-0.7-0.2-1.1-0.2c-2.1,0-2.1,1.9-2.1,3v8.1h-3.2
		L219.9,37.1z"/>
	<path class="st0" d="M233,48.4c0,3.4-2.4,5.8-5.9,7.4v-2.5c2.4-1.4,2.7-3.6,2.7-5.4V37.3c0-2.2-0.6-3.4-2.7-5V30
		c1.7,0.6,3.2,1.6,4.4,2.9c1.1,1.3,1.6,3,1.5,4.6V48.4z"/>
	<path class="st0" d="M245.4,47c0,0.6,0,1.7,1.2,1.7c0.3,0,0.7-0.1,0.9-0.4c0.2-0.3,0.3-0.5,0.3-1.9h3.1v1.1c0,3-2.2,3.7-4.2,3.7
		c-3.2,0-4.4-1.6-4.4-4.4V41c-0.1-1.3,0.4-2.6,1.5-3.3c0.9-0.5,1.9-0.8,2.9-0.8c1.2,0,2.4,0.4,3.4,1.2c0.7,0.8,1,1.7,0.9,2.8v3.9
		h-5.5V47z M245.4,42.5h2.3v-1.7c0-0.4,0-1.4-1.1-1.4c-0.8,0-1.2,0.5-1.2,1.4V42.5z"/>
	<path class="st0" d="M252.6,46h3c0,2,0,2.8,1.3,2.8c0.7,0,1.2-0.3,1.2-1.5c0.1-0.7-0.3-1.5-1-1.8l-2.7-1.9
		c-0.3-0.3-0.6-0.6-0.9-0.9c-0.6-0.7-0.9-1.6-0.8-2.4c0-2.9,1.9-3.6,4.2-3.6c2.8,0,3.9,1.2,3.9,3.2v1.5h-2.8c0-1.6,0-2.5-1.2-2.5
		c-0.5,0-1.1,0.1-1.1,1.2c0,0.4,0,0.9,0.9,1.5l2.9,2.1c0.3,0.3,0.6,0.6,0.9,0.9c0.4,0.7,0.5,1.4,0.5,2.2c0,1.8,0,4.3-4.3,4.3
		c-3.4,0-4.2-1.8-4.2-3.7L252.6,46z"/>
	<path class="st0" d="M275.6,31.8h3.2v19.1h-3.2v-1.3c-0.5,1-1.5,1.6-2.7,1.6c-1.1,0-2.1-0.5-2.7-1.4c-0.4-0.9-0.5-1.9-0.4-2.9v-6.3
		c0-0.7,0.1-1.4,0.4-2c0.5-1,1.5-1.6,2.6-1.6c1.1,0.1,2.1,0.6,2.8,1.4L275.6,31.8z M273,46.9c0,0.7,0,1.6,1.2,1.6s1.4-1.2,1.4-1.7
		v-5.9c0-0.4,0-1.6-1.4-1.6S273,40.3,273,41V46.9z"/>
	<path class="st0" d="M284.2,47c0,0.6,0,1.7,1.2,1.7c0.3,0,0.7-0.1,0.9-0.4c0.2-0.3,0.3-0.5,0.3-1.9h3.1v1.1c0,3-2.2,3.7-4.2,3.7
		c-3.2,0-4.4-1.6-4.4-4.4V41c-0.1-1.3,0.4-2.6,1.5-3.3c0.9-0.5,1.9-0.8,2.9-0.8c1.2,0,2.4,0.4,3.4,1.2c0.7,0.8,1,1.7,0.9,2.8v3.9
		h-5.5L284.2,47z M284.2,42.5h2.3v-1.7c0-0.4,0-1.4-1.1-1.4c-0.8,0-1.2,0.5-1.2,1.4V42.5z"/>
	<path class="st0" d="M298.2,46.1h3.1c0,0.5,0,1,0,1.5c0,0.3,0.1,1.2,1.4,1.2c1.5,0,1.5-0.9,1.5-1.9v-3.4c-0.8,0.7-1.7,1-2.7,1
		c-2.3,0-3.3-1.3-3.3-3.1v-4.4c0-2.9,1.4-4.2,4.7-4.2c3.5,0,4.4,1.8,4.4,3.9V47c0,3.3-2.4,4.1-4.7,4.1c-3.1,0-4.4-1.5-4.4-3.7
		L298.2,46.1z M301.3,40.1c0,0.8,0,1.9,1.4,1.9s1.5-1.1,1.5-1.9v-3.3c0-0.7-0.1-1.7-1.4-1.7c-1.5,0-1.5,1.1-1.5,1.8V40.1z"/>
	<path class="st0" d="M310,46.1h3.1c0,1.2,0,1.3,0,1.5s0.1,1.2,1.4,1.2c1.5,0,1.5-0.9,1.5-1.9v-3.4c-0.8,0.7-1.7,1-2.7,1
		c-2.3,0-3.3-1.3-3.3-3.1v-4.4c0-2.9,1.4-4.2,4.7-4.2c3.5,0,4.4,1.8,4.4,3.9V47c0,3.3-2.4,4.1-4.7,4.1c-3.1,0-4.4-1.5-4.4-3.7
		L310,46.1z M313.1,40.1c0,0.8,0,1.9,1.4,1.9s1.5-1.1,1.5-1.9v-3.3c0-0.7-0.1-1.7-1.4-1.7c-1.5,0-1.5,1.1-1.5,1.8V40.1z"/>
	<path class="st0" d="M320.9,47.4h3.2v3.5h-3.2V47.4z"/>
	<path class="st0" d="M334.7,38.2c0,1.8-0.3,2.3-1.9,3.1c1.2,0.5,2.1,0.9,2.1,3v2.4c0.1,1-0.1,2.1-0.8,2.9c-0.9,1-2.3,1.6-3.6,1.5
		c-2.8,0-4.7-1.3-4.7-4.1v-2.3c0-2.3,0.8-2.8,2.1-3.4c-1.2-0.4-2-1.6-1.9-2.9v-1.9c0-2.8,1.7-3.8,4.3-3.8c4.4,0,4.4,2.9,4.4,3.9
		L334.7,38.2z M328.9,47c0,1.6,1.1,1.6,1.5,1.6c1.1,0,1.5-0.7,1.5-1.6v-2.8c0-0.8-0.1-1.8-1.5-1.8s-1.5,1.2-1.5,1.8V47z M329,38.7
		c0,1.2,0.5,1.5,1.4,1.5c1.3,0,1.3-0.9,1.3-1.7v-1.9c0.1-0.7-0.3-1.3-1-1.5c-0.1,0-0.2,0-0.3,0c-0.7-0.1-1.3,0.4-1.4,1.1
		c0,0.1,0,0.2,0,0.2L329,38.7z"/>
	<path class="st0" d="M337.6,46.1h3.1c0,0.5,0,1,0,1.5c0,0.3,0.1,1.2,1.4,1.2c1.5,0,1.5-0.9,1.5-1.9v-3.4c-0.8,0.7-1.7,1-2.7,1
		c-2.3,0-3.3-1.3-3.3-3.1v-4.4c0-2.9,1.4-4.2,4.7-4.2c3.5,0,4.4,1.8,4.4,3.9V47c0,3.3-2.4,4.1-4.7,4.1c-3.1,0-4.4-1.5-4.4-3.7
		L337.6,46.1z M340.7,40.1c0,0.8,0,1.9,1.4,1.9s1.5-1.1,1.5-1.9v-3.3c0-0.7-0.1-1.7-1.4-1.7c-1.5,0-1.5,1.1-1.5,1.8L340.7,40.1z"/>
	<path class="st0" d="M348.2,36c0-0.8,0-3.2,3.2-3.2s3.3,2.2,3.3,3v6.3c0,2-1.2,2.9-3.2,2.9c-3.3,0-3.3-2.1-3.3-3L348.2,36z
		 M350.4,42.3c0,0.5,0.1,1,1.1,1s1-0.7,1-1.2v-6.4c0-0.7,0-1.3-1.1-1.3s-1,0.7-1,1.3L350.4,42.3z M359.9,31.7l1.7,0.6l-7.2,19.9
		l-1.7-0.6L359.9,31.7z M359.5,42c0-0.8,0-3.2,3.2-3.2s3.3,2.2,3.3,3v6.3c0,2-1.2,2.9-3.2,2.9c-3.3,0-3.3-2.1-3.3-3L359.5,42z
		 M361.7,48.3c0,0.4,0.1,1,1.1,1s1-0.7,1-1.2v-6.4c0-0.7,0-1.3-1.1-1.3s-1,0.7-1,1.3V48.3z"/>
	<path class="st0" d="M380.3,31.8h3.2v19.1h-3.2v-1.3c-0.5,1-1.5,1.6-2.7,1.6c-1.1,0-2.1-0.5-2.7-1.4c-0.4-0.9-0.5-1.9-0.4-2.9v-6.3
		c0-0.7,0.1-1.4,0.4-2c0.5-1,1.5-1.6,2.6-1.6c1.1,0.1,2.1,0.6,2.8,1.4L380.3,31.8z M377.6,46.9c0,0.7,0,1.6,1.2,1.6s1.4-1.2,1.4-1.7
		v-5.9c0-0.4,0-1.6-1.4-1.6s-1.2,1.1-1.2,1.8V46.9z"/>
	<path class="st0" d="M388.9,47c0,0.6,0,1.7,1.2,1.7c0.3,0,0.7-0.1,0.9-0.4c0.2-0.3,0.3-0.5,0.3-1.9h3.2v1.1c0,3-2.2,3.7-4.2,3.7
		c-3.2,0-4.4-1.6-4.4-4.4V41c-0.1-1.3,0.4-2.6,1.5-3.3c0.9-0.5,1.9-0.8,2.9-0.8c1.2,0,2.4,0.4,3.4,1.2c0.7,0.8,1,1.7,0.9,2.8v3.9
		h-5.5L388.9,47z M388.9,42.5h2.3v-1.7c0-0.4,0-1.4-1.1-1.4c-0.8,0-1.2,0.5-1.2,1.4V42.5z"/>
	<path class="st0" d="M396.5,37.1h3.3l0,1c0.7-0.8,1.7-1.3,2.8-1.3c0.8,0,1.6,0.3,2.2,0.9c0.5,0.7,0.8,1.5,0.6,2.4v10.8h-3.2V40.7
		c0-0.8-0.1-1.7-1.1-1.7c-1.3,0-1.3,1.2-1.3,1.9v10h-3.2L396.5,37.1z"/>
	<path class="st0" d="M408.5,32.1h3.2v5h1.9v2.1h-1.9v7.9c0,0.9,0.2,1.5,1.5,1.5c0.2,0,0.4,0,0.6,0v2.3c-0.6,0.1-1.1,0.2-1.7,0.2
		c-3,0-3.5-1.1-3.5-2.9v-9h-1.8v-2.1h1.7V32.1z"/>
	<path class="st0" d="M415.1,37.1h3.3v1.8c0.5-1.3,1.8-2.1,3.2-2V40c-0.3-0.1-0.7-0.2-1.1-0.2c-2.1,0-2.1,1.9-2.1,3v8.1h-3.2
		L415.1,37.1z"/>
	<path class="st0" d="M422.3,40.8c0-1.7,0.6-4,4.4-4c1,0,2,0.2,2.9,0.8c1,0.7,1.5,1.9,1.4,3.1v6.6c0,2.5-1.6,3.9-4.4,3.9
		c-4.2,0-4.2-3.2-4.2-4.2V40.8z M425.5,47.5c0,0.3,0,1.4,1.1,1.4s1.1-1,1.1-1.5v-7c0-0.8-0.1-1.7-1.1-1.7c-1.2,0-1.2,1-1.2,1.7V47.5
		z"/>
	<path class="st0" d="M445.6,31.8h3.2v19.1h-3.2v-1.3c-0.5,1-1.5,1.6-2.7,1.6c-1.1,0-2.1-0.5-2.7-1.4c-0.4-0.9-0.5-1.9-0.4-2.9v-6.3
		c0-0.7,0.1-1.4,0.4-2c0.5-1,1.5-1.6,2.6-1.6c1.1,0.1,2.1,0.6,2.8,1.4L445.6,31.8z M443,46.9c0,0.7,0,1.6,1.2,1.6s1.4-1.2,1.4-1.7
		v-5.9c0-0.4,0-1.6-1.4-1.6S443,40.3,443,41V46.9z"/>
	<path class="st0" d="M454.2,47c0,0.6,0,1.7,1.2,1.7c0.3,0,0.7-0.1,0.9-0.4c0.2-0.3,0.3-0.5,0.3-1.9h3.1v1.1c0,3-2.2,3.7-4.2,3.7
		c-3.1,0-4.4-1.6-4.4-4.4V41c-0.1-1.3,0.4-2.6,1.5-3.3c0.9-0.5,1.9-0.8,2.9-0.8c1.2,0,2.4,0.4,3.4,1.2c0.7,0.8,1,1.7,0.9,2.8v3.9
		h-5.5L454.2,47z M454.2,42.5h2.3v-1.7c0-0.4,0-1.4-1.1-1.4c-0.8,0-1.2,0.5-1.2,1.4V42.5z"/>
	<path class="st0" d="M461.9,31.8h3.2v19.1h-3.2V31.8z"/>
	<path class="st0" d="M474.2,37.1h3.2v1.8c0.5-1.3,1.8-2.1,3.2-2V40c-0.3-0.1-0.7-0.2-1.1-0.2c-2.1,0-2.1,1.9-2.1,3v8.1h-3.2
		L474.2,37.1z"/>
	<path class="st0" d="M481.5,41.3c0-2.1,0-2.8,0.8-3.5c1-0.8,2.3-1.1,3.5-1c0.8,0,1.7,0.2,2.5,0.5c1,0.4,1.7,1.4,1.6,2.5v7.7
		c0,2,0,2.9,0.6,3.4h-3.4c-0.3-0.3-0.4-0.8-0.4-1.2c-0.6,0.9-1.7,1.5-2.8,1.5c-2.7,0-2.7-2.5-2.7-3.8c0-2.4,0-3.2,2.1-4.3l3.4-1.7
		c0-0.5,0-1,0-1.5c0-0.3-0.1-0.9-1.1-0.9s-1.1,0.7-1.1,2.3L481.5,41.3z M486.7,43.9l-1.6,1c-0.6,0.4-0.7,0.9-0.7,2.3
		c0,1.1,0.2,1.5,0.8,1.5c0.3,0,0.8-0.1,1.5-0.8V43.9z"/>
	<path class="st0" d="M492.3,37.1h3.3l-0.1,1c0.7-0.8,1.7-1.3,2.8-1.3c0.8,0,1.7,0.3,2.2,0.9c0.5,0.7,0.7,1.5,0.6,2.4v10.8H498V40.7
		c0-0.8-0.1-1.7-1.1-1.7c-1.4,0-1.4,1.2-1.4,1.9v10h-3.2V37.1z"/>
	<path class="st0" d="M509.2,37.1h3.2v14.3c0,1.4,0,4.4-4.7,4.4c-4.2,0-4.2-2.5-4.3-3.8h3.2c0,0.3,0,0.6,0.1,0.9
		c0.2,0.4,0.7,0.6,1.1,0.6c1.1,0,1.3-0.8,1.3-1.6v-2.1c-0.7,0.9-1.7,1.4-2.8,1.3c-2.6,0-3-1.9-3-3.4v-7.3c0-0.5,0-3.5,2.9-3.5
		c1.1,0,2.2,0.5,2.9,1.4L509.2,37.1z M506.6,47.1c0,0.4,0,1.5,1.3,1.5s1.3-0.9,1.3-1.6v-6.1c0-0.6,0-1.7-1.3-1.7s-1.3,1.2-1.3,1.7
		V47.1z"/>
	<path class="st0" d="M514.6,40.8c0-1.7,0.6-4,4.4-4c1,0,2,0.2,2.9,0.8c1,0.7,1.5,1.9,1.3,3.1v6.6c0,2.5-1.6,3.9-4.4,3.9
		c-4.2,0-4.2-3.2-4.2-4.2L514.6,40.8z M517.8,47.5c0,0.3,0,1.4,1.1,1.4s1.1-1,1.1-1.5v-7c0-0.8-0.1-1.7-1.1-1.7
		c-1.2,0-1.2,1-1.2,1.7V47.5z"/>
	<path class="st0" d="M537.9,31.8h3.2v19.1h-3.2v-1.3c-0.5,1-1.5,1.6-2.7,1.6c-1.1,0-2.1-0.5-2.7-1.4c-0.4-0.9-0.5-1.9-0.4-2.9v-6.3
		c0-0.7,0.1-1.4,0.4-2c0.5-1,1.5-1.6,2.6-1.6c1.1,0.1,2.1,0.6,2.8,1.4L537.9,31.8z M535.3,46.9c0,0.7,0,1.6,1.2,1.6s1.3-1.2,1.3-1.7
		v-5.9c0-0.4,0-1.6-1.3-1.6s-1.2,1.1-1.2,1.8V46.9z"/>
	<path class="st0" d="M546.5,47c0,0.6,0,1.7,1.2,1.7c0.3,0,0.7-0.1,0.9-0.4c0.2-0.3,0.3-0.5,0.3-1.9h3.1v1.1c0,3-2.2,3.7-4.2,3.7
		c-3.2,0-4.4-1.6-4.4-4.4V41c-0.1-1.3,0.4-2.6,1.5-3.3c0.9-0.5,1.9-0.8,2.9-0.8c1.2,0,2.4,0.4,3.3,1.2c0.7,0.8,1,1.7,1,2.8v3.9h-5.5
		V47z M546.5,42.5h2.3v-1.7c0-0.4,0-1.4-1.1-1.4c-0.8,0-1.2,0.5-1.2,1.4V42.5z"/>
	<path class="st0" d="M569.4,38.2c0,1.8-0.3,2.3-1.9,3.1c1.4,0.3,2.2,1.6,2.1,3v2.4c0.1,1-0.1,2.1-0.8,2.9c-0.9,1-2.3,1.6-3.6,1.5
		c-2.8,0-4.7-1.3-4.7-4.1v-2.3c0-2.3,0.8-2.8,2.1-3.4c-1.2-0.4-2-1.6-1.9-2.9v-1.9c0-2.8,1.7-3.8,4.3-3.8c4.3,0,4.3,2.9,4.3,3.9
		V38.2z M563.6,47c0,1.6,1.1,1.6,1.5,1.6c1.1,0,1.5-0.7,1.5-1.6v-2.8c0-0.8-0.1-1.8-1.5-1.8s-1.5,1.2-1.5,1.8V47z M563.7,38.7
		c0,1.2,0.5,1.5,1.4,1.5c1.3,0,1.3-0.9,1.3-1.7v-1.9c0.1-0.7-0.3-1.3-1-1.5c-0.1,0-0.2,0-0.3,0c-0.7-0.1-1.3,0.4-1.4,1.1
		c0,0.1,0,0.2,0,0.2L563.7,38.7z"/>
	<path class="st0" d="M572.4,37.4c-0.1-1,0.1-2.1,0.7-3c0.9-1.1,2.3-1.8,3.8-1.7c4.6,0,4.6,3.3,4.6,4.4v9.7c0.1,1.3-0.4,2.5-1.3,3.3
		c-0.9,0.7-2,1.1-3.2,1c-4.6,0-4.6-3.1-4.6-4.4L572.4,37.4z M575.5,47c0,0.4,0,1.7,1.4,1.7s1.5-1.2,1.5-1.9v-9.8c0-0.9,0-2-1.4-2
		s-1.5,1.1-1.5,1.9V47z"/>
	<path class="st0" d="M583.2,42.3h7.2V45h-7.2L583.2,42.3z"/>
	<path class="st0" d="M592.5,35.8c0.8-0.2,1.6-0.6,2.2-1.2c0.6-0.5,1.1-1.1,1.5-1.7h2.1v18h-3.2V37.2c-0.8,0.7-1.7,1.1-2.7,1.1
		L592.5,35.8z"/>
	<path class="st0" d="M603.6,39h-2.9v-2.2c-0.1-1.2,0.3-2.3,1.2-3.1c0.9-0.7,2-1,3.2-0.9c1.9,0,3.8,0.7,4.3,2.6
		c0.1,0.6,0.2,1.2,0.2,1.9V39c0,1.9-0.5,2.6-2.6,4.7c-2.8,2.8-3.1,3.1-3.2,4.5h6v2.7h-9.5c0-4.7,1.5-6.3,3.3-8
		c2.7-2.7,2.9-2.8,2.9-4.2v-2c0-0.5-0.1-1.6-1.3-1.6s-1.5,1-1.5,1.7L603.6,39z"/>
	<path class="st0" d="M612.4,37.4c-0.1-1,0.2-2.1,0.7-3c0.9-1.1,2.3-1.8,3.8-1.7c4.6,0,4.6,3.3,4.6,4.4v9.7c0.1,1.3-0.4,2.5-1.3,3.3
		c-0.9,0.7-2,1.1-3.2,1c-4.6,0-4.6-3.1-4.6-4.4L612.4,37.4z M615.5,47c0,0.4,0,1.7,1.4,1.7s1.5-1.2,1.5-1.9v-9.8c0-0.9,0-2-1.4-2
		s-1.5,1.1-1.5,1.9V47z"/>
	<path class="st0" d="M629.7,36c0-0.8,0-3.2,3.2-3.2s3.3,2.2,3.3,3v6.3c0,2-1.2,2.9-3.2,2.9c-3.3,0-3.3-2.1-3.3-3L629.7,36z
		 M631.9,42.3c0,0.5,0.1,1,1.1,1s1-0.7,1-1.2v-6.4c0-0.7,0-1.3-1.1-1.3s-1,0.7-1,1.3L631.9,42.3z M641.3,31.7l1.7,0.6l-7.2,19.9
		l-1.7-0.6L641.3,31.7z M641,42c0-0.8,0-3.2,3.2-3.2s3.3,2.2,3.3,3v6.3c0,2-1.2,2.9-3.2,2.9c-3.3,0-3.3-2.1-3.3-3L641,42z
		 M643.1,48.3c0,0.4,0.1,1,1.1,1s1-0.7,1-1.2v-6.4c0-0.7,0-1.3-1.1-1.3s-1,0.7-1,1.3V48.3z"/>
	<path class="st0" d="M655.6,46h3c0,2,0,2.8,1.3,2.8c0.7,0,1.2-0.3,1.2-1.5c0.1-0.7-0.3-1.5-0.9-1.8l-2.7-1.9
		c-0.3-0.3-0.6-0.6-0.9-0.9c-0.6-0.7-0.9-1.6-0.8-2.4c0-2.9,1.9-3.6,4.2-3.6c2.8,0,3.9,1.2,3.9,3.2v1.5h-2.8c0-1.6,0-2.5-1.2-2.5
		c-0.5,0-1.1,0.1-1.1,1.2c0,0.4,0,0.9,0.9,1.5l3,2.1c0.3,0.3,0.6,0.6,0.9,0.9c0.4,0.7,0.5,1.4,0.5,2.2c0,1.8,0,4.3-4.3,4.3
		c-3.5,0-4.2-1.8-4.2-3.7L655.6,46z"/>
	<path class="st0" d="M669.2,47c0,0.6,0,1.7,1.2,1.7c0.3,0,0.7-0.1,0.9-0.4c0.2-0.3,0.3-0.5,0.3-1.9h3.1v1.1c0,3-2.2,3.7-4.2,3.7
		c-3.2,0-4.4-1.6-4.4-4.4V41c-0.1-1.3,0.4-2.6,1.5-3.3c0.9-0.5,1.9-0.8,2.9-0.8c1.2,0,2.4,0.4,3.3,1.2c0.7,0.8,1,1.7,1,2.8v3.9h-5.5
		L669.2,47z M669.2,42.5h2.3v-1.7c0-0.4,0-1.4-1.1-1.4c-0.8,0-1.2,0.5-1.2,1.4V42.5z"/>
	<path class="st0" d="M682.5,37.1h3.2v14.3c0,1.4,0,4.4-4.7,4.4c-4.2,0-4.2-2.5-4.3-3.8h3.2c0,0.3,0,0.6,0.1,0.9
		c0.2,0.4,0.7,0.6,1.1,0.6c1.1,0,1.3-0.8,1.3-1.6v-2.1c-0.7,0.9-1.7,1.4-2.8,1.3c-2.7,0-3-1.9-3-3.4v-7.3c0-0.5,0-3.5,2.9-3.5
		c1.1,0,2.2,0.5,2.9,1.4L682.5,37.1z M679.9,47.1c0,0.4,0,1.5,1.3,1.5s1.3-0.9,1.3-1.6v-6.1c0-0.6,0-1.7-1.3-1.7s-1.3,1.2-1.3,1.7
		L679.9,47.1z"/>
	<path class="st0" d="M688.1,37.1h3.2v10c0,0.7,0,1.7,1.2,1.7s1.2-1.1,1.2-1.8v-9.8h3.2v13.8h-3.2v-1.1c-0.8,0.8-1.9,1.3-3,1.3
		c-1.3,0.1-2.4-0.9-2.6-2.1c-0.1-0.5-0.1-1-0.1-1.5L688.1,37.1z"/>
	<path class="st0" d="M699.4,37.1h3.3l-0.1,1c0.7-0.8,1.7-1.3,2.8-1.3c0.8,0,1.7,0.3,2.2,0.9c0.5,0.7,0.7,1.5,0.6,2.4v10.8h-3.2
		V40.7c0-0.8,0-1.7-1.1-1.7c-1.3,0-1.3,1.2-1.3,1.9v10h-3.2V37.1z"/>
	<path class="st0" d="M716.9,46h3c0,2,0,2.8,1.3,2.8c0.7,0,1.2-0.3,1.2-1.5c0.1-0.7-0.3-1.5-0.9-1.8l-2.7-1.9
		c-0.3-0.3-0.6-0.6-0.9-0.9c-0.6-0.7-0.9-1.6-0.8-2.4c0-2.9,1.9-3.6,4.2-3.6c2.8,0,3.9,1.2,3.9,3.2v1.5h-2.8c0-1.6,0-2.5-1.2-2.5
		c-0.5,0-1.1,0.1-1.1,1.2c0,0.4,0,0.9,0.9,1.5l2.9,2.1c0.3,0.3,0.6,0.6,0.9,0.9c0.4,0.7,0.5,1.4,0.5,2.2c0,1.8,0,4.3-4.3,4.3
		c-3.5,0-4.2-1.8-4.2-3.7L716.9,46z"/>
	<path class="st0" d="M728.2,32.1h3.2v5h1.9v2.1h-1.9v7.9c0,0.9,0.2,1.5,1.5,1.5c0.2,0,0.3,0,0.6,0v2.3c-0.6,0.1-1.1,0.2-1.7,0.2
		c-3,0-3.5-1.1-3.5-2.9v-9h-1.8v-2.1h1.7V32.1z"/>
	<path class="st0" d="M735,41.3c0-2.1,0-2.8,0.8-3.5c1-0.8,2.3-1.1,3.5-1c0.8,0,1.7,0.2,2.5,0.5c1,0.4,1.7,1.4,1.7,2.5v7.7
		c0,2,0,2.9,0.6,3.4h-3.4c-0.3-0.3-0.4-0.8-0.4-1.2c-0.6,0.9-1.7,1.5-2.8,1.5c-2.7,0-2.7-2.5-2.7-3.8c0-2.4,0-3.2,2.1-4.3l3.3-1.7
		c0-1.3,0-1.4,0-1.5c0-0.3-0.1-0.9-1.1-0.9s-1.1,0.7-1.1,2.3L735,41.3z M740.2,43.9l-1.6,1c-0.7,0.4-0.7,0.9-0.7,2.3
		c0,1.1,0.2,1.5,0.8,1.5c0.3,0,0.8-0.1,1.5-0.8V43.9z"/>
	<path class="st0" d="M745.8,37.1h3.3v1c0.7-0.8,1.7-1.3,2.8-1.3c0.8,0,1.6,0.3,2.2,0.9c0.5,0.7,0.8,1.5,0.7,2.4v10.8h-3.2V40.7
		c0-0.8,0-1.7-1.1-1.7c-1.3,0-1.3,1.2-1.3,1.9v10h-3.2L745.8,37.1z"/>
	<path class="st0" d="M762.7,31.8h3.2v19.1h-3.2v-1.3c-0.5,1-1.6,1.6-2.7,1.6c-1.1,0-2.1-0.5-2.7-1.4c-0.4-0.9-0.5-1.9-0.4-2.9v-6.3
		c0-0.7,0.1-1.4,0.4-2c0.5-1,1.5-1.6,2.6-1.6c1.1,0.1,2.1,0.6,2.8,1.4L762.7,31.8z M760.1,46.9c0,0.7,0,1.6,1.2,1.6s1.3-1.2,1.3-1.7
		v-5.9c0-0.4,0-1.6-1.3-1.6s-1.2,1.1-1.2,1.8V46.9z"/>
	<path class="st0" d="M768.3,41.3c0-2.1,0-2.8,0.8-3.5c1-0.8,2.2-1.1,3.5-1c0.8,0,1.7,0.2,2.5,0.5c1,0.4,1.7,1.4,1.7,2.5v7.7
		c0,2,0,2.9,0.6,3.4h-3.4c-0.3-0.3-0.4-0.8-0.4-1.2c-0.6,0.9-1.7,1.5-2.8,1.5c-2.7,0-2.7-2.5-2.7-3.8c0-2.4,0-3.2,2.1-4.3l3.3-1.7
		c0-0.5,0-1,0-1.5c0-0.3-0.1-0.9-1.1-0.9s-1.1,0.7-1.1,2.3L768.3,41.3z M773.4,43.9l-1.6,1c-0.7,0.4-0.7,0.9-0.7,2.3
		c0,1.1,0.2,1.5,0.8,1.5c0.3,0,0.8-0.1,1.5-0.8L773.4,43.9z"/>
	<path class="st0" d="M779,37.1h3.2v1.8c0.5-1.3,1.8-2.1,3.2-2V40c-0.3-0.1-0.7-0.2-1.1-0.2c-2.1,0-2.1,1.9-2.1,3v8.1H779L779,37.1z
		"/>
	<path class="st0" d="M789.4,47c0,0.6,0,1.7,1.2,1.7c0.3,0,0.7-0.1,0.9-0.4c0.2-0.3,0.3-0.5,0.3-1.9h3.1v1.1c0,3-2.2,3.7-4.2,3.7
		c-3.2,0-4.4-1.6-4.4-4.4V41c-0.1-1.3,0.4-2.6,1.5-3.3c0.9-0.5,1.9-0.8,2.9-0.8c1.2,0,2.4,0.4,3.3,1.2c0.7,0.8,1,1.7,1,2.8v3.9h-5.6
		V47z M789.4,42.5h2.3v-1.7c0-0.4,0-1.4-1.1-1.4c-0.8,0-1.2,0.5-1.2,1.4V42.5z"/>
	<path class="st0" d="M796.6,46h3c0,2,0,2.8,1.3,2.8c0.7,0,1.2-0.3,1.2-1.5c0.1-0.8-0.3-1.5-1-1.8l-2.7-1.9
		c-0.3-0.3-0.6-0.6-0.9-0.9c-0.6-0.7-0.9-1.6-0.8-2.4c0-2.9,1.9-3.6,4.2-3.6c2.8,0,3.9,1.2,3.9,3.2v1.5h-2.8c0-1.6,0-2.5-1.2-2.5
		c-0.5,0-1.1,0.1-1.1,1.2c0,0.4,0,0.9,0.9,1.5l3,2.1c0.3,0.3,0.6,0.6,0.9,0.9c0.4,0.7,0.5,1.4,0.5,2.2c0,1.8,0,4.3-4.3,4.3
		c-3.5,0-4.2-1.8-4.2-3.7L796.6,46z"/>
	<path class="st0" d="M814.1,31.8h9.3v3h-5.8v4.8h5.5v2.8h-5.5v8.5h-3.5V31.8z"/>
	<path class="st0" d="M825.4,31.8h5.7c1.3-0.2,2.6,0.3,3.6,1.2c0.9,1.1,1.3,2.5,1.1,3.8v8.9c0,2.7-0.4,5.1-4.8,5.1h-5.6V31.8z
		 M828.9,48.1c0.7,0.1,1.5,0.1,2.2,0c1.3-0.2,1.3-1.3,1.3-2v-9.5c0-1.7-0.6-1.9-2.1-1.9h-1.4V48.1z"/>
	<path class="st0" d="M841.5,31.8h4l3.6,19.1h-3.6l-0.5-3.1h-3.2l-0.5,3.1h-3.5L841.5,31.8z M842.2,44.8h2.4l-1.2-8.2L842.2,44.8z"
		/>
	<path class="st0" d="M850.2,47.4h3.2v3.5h-3.2L850.2,47.4z"/>
</g>
</svg>
