<?xml version="1.0" encoding="utf-8"?>
<!-- Generator: Adobe Illustrator 22.0.0, SVG Export Plug-In . SVG Version: 6.00 Build 0)  -->
<svg version="1.1" id="Capa_1" xmlns="http://www.w3.org/2000/svg" xmlns:xlink="http://www.w3.org/1999/xlink" x="0px" y="0px"
	 viewBox="0 0 656.1 40.6" style="enable-background:new 0 0 656.1 40.6;" xml:space="preserve">
<style type="text/css">
	.st0{fill:#F3E577;}
</style>
<g>
	<g>
		<path class="st0" d="M2.9,8.8h7.5c1.5,0,3.3,0,4.8,1.6c1.3,1.4,1.5,3.1,1.5,5.1v11.8c0,3.5-0.5,6.8-6.4,6.8H2.9V8.8z M7.5,30.3
			c2.2,0,2.5,0,2.9-0.1c1.7-0.2,1.7-1.7,1.7-2.6V15c0-2.2-0.7-2.6-2.8-2.6H7.5V30.3z"/>
		<path class="st0" d="M21.2,8.8h4.6v25.2h-4.6V8.8z"/>
		<path class="st0" d="M33.6,8.8h5.3l4.7,25.2h-4.7l-0.6-4.1H34l-0.7,4.1h-4.6L33.6,8.8z M34.6,26h3.2l-1.5-10.8L34.6,26z"/>
		<path class="st0" d="M55.5,16.9v-2.4c0-1.2,0-2.6-2.2-2.6c-2.4,0-2.4,1.9-2.4,3.2v13.3c0,1.7,0.6,2.5,2.2,2.5
			c2.3,0,2.3-1.7,2.3-2.9v-3.9h-2.9v-3.8h7.5v13.7h-4v-1.5c-0.7,0.8-1.8,2-4.5,2c-2.2,0-5.5-1-5.5-5.1V15c0-2.5,0.2-6.8,7.2-6.8
			c1.1,0,3.3,0.2,4.8,1.1c1.4,0.9,1.9,2.3,1.9,3.8v3.7H55.5z"/>
		<path class="st0" d="M79.3,33.9h-5.8L69,15.1l0.4,18.9H65V8.8h6l4.5,18.5L75.1,8.8h4.2V33.9z"/>
		<path class="st0" d="M96.6,28.6c0,1.9-0.4,3.1-1.4,4.1c-1.5,1.6-3.8,1.8-5.5,1.8c-5.7,0-7.1-2.7-7.1-5.9V14.5c0-1.1,0-3,1.3-4.3
			c1-1,2.9-1.9,5.7-1.9c2.3,0,4.1,0.6,5.2,1.6c1.2,1,1.7,2.4,1.7,4.8V28.6z M91.9,14.9c0-1.3,0-3.1-2.2-3.1c-2.4,0-2.4,1.9-2.4,3.3
			v12.7c0,1.4,0.1,3.1,2.4,3.1s2.3-1.7,2.3-3V14.9z M89.6,2h5.6l-4.5,4.8h-3.3L89.6,2z"/>
		<path class="st0" d="M99.5,25.1h4.6V28c0,1.5,0,2.9,2.2,2.9c2.3,0,2.3-1.5,2.3-3.7c0-1.8-0.4-2.5-1.6-3.3l-4.4-3
			c-2.4-1.6-3-3.3-3-5.9c0-2,0.2-3.8,1.8-5.2c0.9-0.8,2.6-1.5,5.1-1.5c2.7,0,6.4,1.1,6.4,5.4v2.5h-4.6v-1.8c0-1.2,0-2.6-2-2.6
			c-1.2,0-2.1,0.5-2.1,2.5c0,2.1,0.5,2.6,1.5,3.2l4.6,3.1c0.9,0.6,1.9,1.5,2.4,2.5c0.7,1.1,0.7,1.9,0.7,4c0,2.2,0,3.6-0.8,5
			c-1.4,2.2-4.3,2.5-6,2.5c-4,0-7-1.5-7-5.7V25.1z"/>
		<path class="st0" d="M114.6,8.8h13.9v3.6h-4.6v21.5h-4.7V12.4h-4.6V8.8z"/>
		<path class="st0" d="M130.4,8.8h4.6v25.2h-4.6V8.8z"/>
		<path class="st0" d="M148.8,18v-3.2c0-1.9-0.3-3-2.4-3c-2,0-2.1,1.6-2.1,2.7V28c0,1.5,0.2,2.9,2.3,2.9c2.2,0,2.2-1.6,2.2-3.1v-3.3
			h4.6v3.6c0,2,0,6.4-6.8,6.4c-1.3,0-3.4-0.2-4.9-1.2c-2-1.3-2-3.3-2-4.7V14.9c0-2,0.1-3.4,1.2-4.7c1.8-2,4.7-2,5.6-2
			c6.8,0,6.8,4.1,6.8,5.8V18H148.8z"/>
		<path class="st0" d="M171.2,28.6c0,1.9-0.4,3.1-1.4,4.1c-1.5,1.6-3.8,1.8-5.5,1.8c-5.7,0-7.1-2.7-7.1-5.9V14.5c0-1.1,0-3,1.3-4.3
			c1-1,2.9-1.9,5.7-1.9c2.3,0,4.1,0.6,5.2,1.6c1.2,1,1.7,2.4,1.7,4.8V28.6z M166.5,14.9c0-1.3,0-3.1-2.2-3.1c-2.4,0-2.4,1.9-2.4,3.3
			v12.7c0,1.4,0.1,3.1,2.4,3.1s2.3-1.7,2.3-3V14.9z"/>
		<path class="st0" d="M181.7,8.8h4.9l2.5,12.7l2.5-12.7h4.9l-5,17.7v7.4h-4.7v-7.7L181.7,8.8z"/>
		<path class="st0" d="M205.5,8.8h13.9v3.6h-4.6v21.5h-4.7V12.4h-4.6V8.8z"/>
		<path class="st0" d="M221.3,8.7h9.3c4.5,0,4.5,3,4.5,5.3v2.7c0,3.2-1,3.8-3.2,4.3c1.1,0.3,3.4,1,3.4,4.3v5.1
			c0,1.3,0.1,2.6,1.1,3.4h-5.1c-0.5-1-0.7-2-0.7-2.8v-5.4c0-1.7,0-2.9-2.4-2.9h-2.2v11.1h-4.6V8.7z M225.9,19.3h2.4
			c2.1,0,2.1-1.1,2.1-2.4v-2.4c0-2.1-1.1-2.1-2.1-2.1h-2.4V19.3z"/>
		<path class="st0" d="M242.9,8.8h5.3l4.7,25.2h-4.7l-0.6-4.1h-4.3l-0.7,4.1h-4.6L242.9,8.8z M243.9,26h3.2l-1.5-10.8L243.9,26z"/>
		<path class="st0" d="M251.9,8.8h13.9v3.6h-4.6v21.5h-4.7V12.4h-4.6V8.8z"/>
		<path class="st0" d="M269.7,8.8h5.3l4.7,25.2H275l-0.6-4.1h-4.3l-0.7,4.1h-4.6L269.7,8.8z M270.7,26h3.2l-1.5-10.8L270.7,26z"/>
		<path class="st0" d="M282.6,8.8h7.5l3,17.6l3-17.6h7.4v25.2h-4.6l0.4-21.8l-4.1,21.8h-4.3l-4.1-21.8l0.4,21.8h-4.6V8.8z"/>
		<path class="st0" d="M308.6,8.8h4.6v25.2h-4.6V8.8z"/>
		<path class="st0" d="M318.3,8.7h12.2v3.8h-7.6v5.9h7.1v3.8h-7.1v7.7h7.9v3.9h-12.5V8.7z"/>
		<path class="st0" d="M348.9,33.9h-5.8l-4.5-18.9l0.4,18.9h-4.3V8.8h6l4.5,18.5l-0.5-18.5h4.2V33.9z"/>
		<path class="st0" d="M350.8,8.8h13.9v3.6h-4.6v21.5h-4.7V12.4h-4.6V8.8z"/>
		<path class="st0" d="M380.3,28.6c0,1.9-0.4,3.1-1.4,4.1c-1.5,1.6-3.8,1.8-5.5,1.8c-5.7,0-7.1-2.7-7.1-5.9V14.5c0-1.1,0-3,1.3-4.3
			c1-1,2.9-1.9,5.7-1.9c2.3,0,4.1,0.6,5.2,1.6c1.2,1,1.7,2.4,1.7,4.8V28.6z M375.6,14.9c0-1.3,0-3.1-2.2-3.1c-2.4,0-2.4,1.9-2.4,3.3
			v12.7c0,1.4,0.1,3.1,2.4,3.1s2.3-1.7,2.3-3V14.9z"/>
		<path class="st0" d="M392.6,8.8h7.5c1.5,0,3.3,0,4.8,1.6c1.3,1.4,1.5,3.1,1.5,5.1v11.8c0,3.5-0.5,6.8-6.4,6.8h-7.4V8.8z
			 M397.2,30.3c2.2,0,2.5,0,2.9-0.1c1.7-0.2,1.7-1.7,1.7-2.6V15c0-2.2-0.7-2.6-2.8-2.6h-1.8V30.3z"/>
		<path class="st0" d="M410.9,8.7h12.2v3.8h-7.6v5.9h7.1v3.8h-7.1v7.7h7.9v3.9h-12.5V8.7z"/>
		<path class="st0" d="M427.3,8.8h4.6v21.4h6.8v3.8h-11.4V8.8z"/>
		<path class="st0" d="M453,8.8h5.3l4.7,25.2h-4.7l-0.6-4.1h-4.3l-0.7,4.1h-4.6L453,8.8z M454,26h3.2l-1.5-10.8L454,26z"/>
		<path class="st0" d="M465.5,25.1h4.6V28c0,1.5,0,2.9,2.2,2.9c2.3,0,2.3-1.5,2.3-3.7c0-1.8-0.4-2.5-1.6-3.3l-4.4-3
			c-2.4-1.6-3-3.3-3-5.9c0-2,0.2-3.8,1.8-5.2c0.9-0.8,2.6-1.5,5.1-1.5c2.7,0,6.4,1.1,6.4,5.4v2.5h-4.6v-1.8c0-1.2,0-2.6-2-2.6
			c-1.2,0-2.1,0.5-2.1,2.5c0,2.1,0.5,2.6,1.5,3.2l4.6,3.1c0.9,0.6,1.9,1.5,2.4,2.5c0.7,1.1,0.7,1.9,0.7,4c0,2.2,0,3.6-0.8,5
			c-1.4,2.2-4.3,2.5-6,2.5c-4,0-7-1.5-7-5.7V25.1z"/>
		<path class="st0" d="M483.5,8.8h7.5l3,17.6l3-17.6h7.4v25.2h-4.6l0.4-21.8l-4.1,21.8h-4.3l-4.1-21.8l0.4,21.8h-4.6V8.8z"/>
		<path class="st0" d="M512.2,8.8h5.3l4.7,25.2h-4.7l-0.6-4.1h-4.3l-0.7,4.1h-4.6L512.2,8.8z M513.2,26h3.2l-1.5-10.8L513.2,26z"/>
		<path class="st0" d="M533.3,8.7h12.2v3.8h-7.6v5.9h7.1v3.8h-7.1v7.7h7.9v3.9h-12.5V8.7z"/>
		<path class="st0" d="M563.9,33.9h-5.8l-4.5-18.9l0.4,18.9h-4.3V8.8h6l4.5,18.5l-0.5-18.5h4.2V33.9z"/>
		<path class="st0" d="M590.6,33.9h-5.8l-4.5-18.9l0.4,18.9h-4.3V8.8h6l4.5,18.5l-0.5-18.5h4.2V33.9z"/>
		<path class="st0" d="M595.7,8.8h4.6v25.2h-4.6V8.8z"/>
		<path class="st0" d="M618.1,33.9h-5.8l-4.5-18.9l0.4,18.9h-4.3V8.8h6l4.5,18.5l-0.5-18.5h4.2V33.9z M605.2,6.8
			c0-1,0.1-2.4,1.1-3.5c0.5-0.5,1.2-1,2.4-1c0.9,0,1.4,0.2,3.2,1c1.2,0.5,1.4,0.6,1.7,0.6c0.9,0,1-0.9,1.1-1.5h2.3
			c0,1.6-0.1,4.5-3,4.5c-0.8,0-1.6-0.3-3.2-1c-1.2-0.5-1.3-0.6-1.7-0.6c-1.1,0-1.4,1-1.6,1.5H605.2z"/>
		<path class="st0" d="M635.4,28.6c0,1.9-0.4,3.1-1.4,4.1c-1.5,1.6-3.8,1.8-5.5,1.8c-5.7,0-7.1-2.7-7.1-5.9V14.5c0-1.1,0-3,1.3-4.3
			c1-1,2.9-1.9,5.7-1.9c2.3,0,4.1,0.6,5.2,1.6c1.2,1,1.7,2.4,1.7,4.8V28.6z M630.7,14.9c0-1.3,0-3.1-2.2-3.1c-2.4,0-2.4,1.9-2.4,3.3
			v12.7c0,1.4,0.1,3.1,2.4,3.1s2.3-1.7,2.3-3V14.9z"/>
		<path class="st0" d="M639.6,25.1h4.6V28c0,1.5,0,2.9,2.2,2.9c2.3,0,2.3-1.5,2.3-3.7c0-1.8-0.4-2.5-1.6-3.3l-4.4-3
			c-2.4-1.6-3-3.3-3-5.9c0-2,0.2-3.8,1.8-5.2c0.9-0.8,2.6-1.5,5.1-1.5c2.7,0,6.4,1.1,6.4,5.4v2.5h-4.6v-1.8c0-1.2,0-2.6-2-2.6
			c-1.2,0-2.1,0.5-2.1,2.5c0,2.1,0.5,2.6,1.5,3.2l4.6,3.1c0.9,0.6,1.9,1.5,2.4,2.5c0.7,1.1,0.7,1.9,0.7,4c0,2.2,0,3.6-0.8,5
			c-1.4,2.2-4.3,2.5-6,2.5c-4,0-7-1.5-7-5.7V25.1z"/>
	</g>
</g>
</svg>
