<?xml version="1.0" encoding="utf-8"?>
<!-- Generator: Adobe Illustrator 22.0.0, SVG Export Plug-In . SVG Version: 6.00 Build 0)  -->
<svg version="1.1" id="Capa_1" xmlns="http://www.w3.org/2000/svg" xmlns:xlink="http://www.w3.org/1999/xlink" x="0px" y="0px"
	 viewBox="0 0 130 37" style="enable-background:new 0 0 130 37;" xml:space="preserve">
<style type="text/css">
	.st0{fill:#84AEB7;}
	.st1{fill:#D1D3D3;}
	.st2{fill:url(#SVGID_1_);}
	.st3{fill:#D0EAEE;}
	.st4{fill:url(#SVGID_2_);}
	.st5{opacity:0.5;}
	.st6{opacity:6.000000e-02;}
	.st7{fill:#001B71;}
	.st8{fill:#E94F20;}
	.st9{fill:url(#SVGID_3_);}
	.st10{fill:#C98E88;}
	.st11{fill:#9F7674;}
	.st12{fill:#3B3C3E;}
	.st13{fill:#635A5A;}
	.st14{fill:#776F6C;}
	.st15{fill:#F39B81;}
	.st16{fill:#464750;}
	.st17{fill:#D7DBE4;}
	.st18{fill:#525156;}
	.st19{fill:#E0DAD3;}
	.st20{fill:url(#SVGID_4_);}
	.st21{fill:url(#SVGID_5_);}
	.st22{fill:#A55247;}
	.st23{fill:#F2AE99;}
	.st24{fill:none;stroke:url(#SVGID_6_);stroke-width:0.9593;stroke-miterlimit:10;}
	.st25{fill:none;}
	.st26{fill:#507899;}
	.st27{fill:#446181;}
	.st28{fill:#516F8F;}
	.st29{fill:#F4F0EB;}
	.st30{fill:#8B847D;}
	.st31{fill:#EFF1F5;}
	.st32{fill:#9CA5B1;}
	.st33{fill:#DBDCE1;}
	.st34{fill:#CAC9CC;}
	.st35{fill:#59595A;}
	.st36{fill:#DFB19D;}
	.st37{fill:#2A2B2D;}
	.st38{fill:#1F1B23;}
	.st39{fill:#F9D43C;}
	.st40{fill:#EEE8DF;}
	.st41{fill:#010202;}
	.st42{fill:#A16A60;}
	.st43{fill:#492629;}
	.st44{fill:#623328;}
	.st45{fill:#CE8D7C;}
	.st46{fill:#AD7468;}
	.st47{fill:#A7796E;}
	.st48{fill:#BB877B;}
	.st49{fill:#7A4F42;}
	.st50{fill:#403648;}
	.st51{fill:#392E3F;}
	.st52{fill:#434449;}
	.st53{fill:#1E1D26;}
	.st54{fill:#6D717D;}
	.st55{fill:#5C9ECC;}
	.st56{fill:#FFFFFF;}
	.st57{fill:#B6826F;}
	.st58{fill:url(#SVGID_7_);}
	.st59{fill:url(#SVGID_8_);}
	.st60{fill:url(#SVGID_9_);}
	.st61{fill:url(#SVGID_10_);}
	.st62{fill:url(#SVGID_11_);}
	.st63{fill:url(#SVGID_12_);}
	.st64{fill:#382E3F;}
	.st65{fill:#4F342F;}
	.st66{fill:#F2F4DF;}
	.st67{fill:url(#SVGID_13_);}
	.st68{fill:#F7B546;}
	.st69{fill:#D35024;}
	.st70{fill:url(#SVGID_14_);}
	.st71{fill:url(#SVGID_15_);}
	.st72{fill:#B4DCD5;}
	.st73{fill:#0C8582;}
	.st74{fill:url(#SVGID_16_);}
</style>
<g>
	<g>
		<linearGradient id="SVGID_1_" gradientUnits="userSpaceOnUse" x1="64.9821" y1="36.951" x2="64.9821" y2="0">
			<stop  offset="0" style="stop-color:#EC6332"/>
			<stop  offset="1" style="stop-color:#F7B546"/>
		</linearGradient>
		<path class="st2" d="M130,18.5c0,10.2-8.5,18.5-18.9,18.5H18.9C8.5,37,0,28.6,0,18.5S8.5,0,18.9,0h92.2C121.5,0,130,8.3,130,18.5z
			"/>
	</g>
	<g>
		<g>
			<g>
				<path class="st68" d="M17.4,12.8v12.3h-1.6V12.8H17.4z"/>
				<path class="st68" d="M21.1,18.7c0-0.9,0-1.7-0.1-2.4h1.4l0.1,1.5h0c0.4-0.8,1.5-1.7,2.9-1.7c1.2,0,3.1,0.7,3.1,3.7v5.3h-1.6V20
					c0-1.4-0.5-2.6-2-2.6c-1.1,0-1.9,0.7-2.1,1.6c-0.1,0.2-0.1,0.5-0.1,0.7v5.3h-1.6V18.7z"/>
				<path class="st68" d="M39.5,12.2v10.6c0,0.8,0,1.7,0.1,2.3h-1.4L38,23.6h0c-0.5,1-1.6,1.7-3,1.7c-2.1,0-3.8-1.8-3.8-4.5
					c0-2.9,1.8-4.7,3.9-4.7c1.3,0,2.3,0.6,2.7,1.3h0v-5.3H39.5z M37.9,19.9c0-0.2,0-0.5-0.1-0.7c-0.2-1-1.1-1.9-2.3-1.9
					c-1.7,0-2.6,1.5-2.6,3.4c0,1.8,0.9,3.3,2.6,3.3c1.1,0,2.1-0.7,2.3-1.9c0.1-0.2,0.1-0.4,0.1-0.7V19.9z"/>
				<path class="st68" d="M44.6,13.8c0,0.5-0.4,1-1,1c-0.6,0-1-0.4-1-1c0-0.6,0.4-1,1-1C44.3,12.8,44.6,13.3,44.6,13.8z M42.9,25.1
					v-8.8h1.6v8.8H42.9z"/>
				<path class="st68" d="M54.1,24.8c-0.4,0.2-1.3,0.5-2.5,0.5c-2.7,0-4.4-1.8-4.4-4.5c0-2.7,1.9-4.7,4.7-4.7c0.9,0,1.8,0.2,2.2,0.5
					l-0.4,1.2c-0.4-0.2-1-0.4-1.9-0.4c-2,0-3.1,1.5-3.1,3.3c0,2,1.3,3.3,3.1,3.3c0.9,0,1.5-0.2,2-0.4L54.1,24.8z"/>
				<path class="st68" d="M61.6,25.1L61.5,24h-0.1c-0.5,0.7-1.4,1.3-2.7,1.3c-1.8,0-2.7-1.3-2.7-2.5c0-2.1,1.9-3.3,5.3-3.3v-0.2
					c0-0.7-0.2-2-2-2c-0.8,0-1.7,0.3-2.3,0.7l-0.4-1.1c0.7-0.5,1.8-0.8,2.9-0.8c2.7,0,3.3,1.8,3.3,3.6V23c0,0.8,0,1.5,0.1,2.1H61.6z
					 M61.3,20.6c-1.7,0-3.7,0.3-3.7,2c0,1,0.7,1.5,1.5,1.5c1.1,0,1.9-0.7,2.1-1.5c0.1-0.2,0.1-0.3,0.1-0.5V20.6z"/>
				<path class="st68" d="M72.5,24.8c-0.4,0.2-1.3,0.5-2.5,0.5c-2.7,0-4.4-1.8-4.4-4.5c0-2.7,1.9-4.7,4.7-4.7c0.9,0,1.8,0.2,2.2,0.5
					l-0.4,1.2c-0.4-0.2-1-0.4-1.9-0.4c-2,0-3.1,1.5-3.1,3.3c0,2,1.3,3.3,3.1,3.3c0.9,0,1.5-0.2,2-0.4L72.5,24.8z"/>
				<path class="st68" d="M76.9,13.8c0,0.5-0.4,1-1,1c-0.6,0-1-0.4-1-1c0-0.6,0.4-1,1-1C76.5,12.8,76.9,13.3,76.9,13.8z M75.1,25.1
					v-8.8h1.6v8.8H75.1z"/>
				<path class="st68" d="M88,20.6c0,3.3-2.3,4.7-4.4,4.7c-2.4,0-4.2-1.7-4.2-4.5c0-2.9,1.9-4.7,4.4-4.7C86.3,16.1,88,17.9,88,20.6z
					 M81,20.7c0,1.9,1.1,3.4,2.7,3.4c1.5,0,2.7-1.4,2.7-3.4c0-1.5-0.7-3.4-2.6-3.4C81.9,17.3,81,19,81,20.7z"/>
				<path class="st68" d="M90.8,18.7c0-0.9,0-1.7-0.1-2.4h1.4l0.1,1.5h0c0.4-0.8,1.5-1.7,2.9-1.7c1.2,0,3.1,0.7,3.1,3.7v5.3h-1.6V20
					c0-1.4-0.5-2.6-2-2.6c-1.1,0-1.9,0.7-2.1,1.6c-0.1,0.2-0.1,0.5-0.1,0.7v5.3h-1.6V18.7z"/>
				<path class="st68" d="M102.5,21c0,2.2,1.4,3.1,3,3.1c1.1,0,1.8-0.2,2.4-0.5l0.3,1.1c-0.6,0.3-1.5,0.5-2.9,0.5
					c-2.7,0-4.3-1.8-4.3-4.4c0-2.7,1.6-4.7,4.1-4.7c2.9,0,3.6,2.5,3.6,4.1c0,0.3,0,0.6-0.1,0.7H102.5z M107.2,19.8
					c0-1-0.4-2.6-2.2-2.6c-1.6,0-2.3,1.5-2.5,2.6H107.2z"/>
				<path class="st68" d="M111.2,23.5c0.5,0.3,1.3,0.6,2.1,0.6c1.2,0,1.7-0.6,1.7-1.3c0-0.8-0.5-1.2-1.6-1.6
					c-1.6-0.6-2.3-1.4-2.3-2.5c0-1.4,1.1-2.6,3-2.6c0.9,0,1.7,0.3,2.2,0.5l-0.4,1.2c-0.3-0.2-1-0.5-1.8-0.5c-0.9,0-1.5,0.5-1.5,1.2
					c0,0.7,0.5,1.1,1.7,1.5c1.5,0.6,2.3,1.3,2.3,2.7c0,1.5-1.2,2.6-3.3,2.6c-1,0-1.9-0.2-2.5-0.6L111.2,23.5z"/>
			</g>
			<g>
				<g>
					<path class="st69" d="M17.4,11.9v12.3h-1.6V11.9H17.4z"/>
					<path class="st69" d="M21.1,17.7c0-0.9,0-1.7-0.1-2.4h1.4l0.1,1.5h0c0.4-0.8,1.5-1.7,2.9-1.7c1.2,0,3.1,0.7,3.1,3.7v5.3h-1.6
						v-5.1c0-1.4-0.5-2.6-2-2.6c-1.1,0-1.9,0.7-2.1,1.6c-0.1,0.2-0.1,0.5-0.1,0.7v5.3h-1.6V17.7z"/>
					<path class="st69" d="M39.5,11.2v10.6c0,0.8,0,1.7,0.1,2.3h-1.4L38,22.6h0c-0.5,1-1.6,1.7-3,1.7c-2.1,0-3.8-1.8-3.8-4.5
						c0-2.9,1.8-4.7,3.9-4.7c1.3,0,2.3,0.6,2.7,1.3h0v-5.3H39.5z M37.9,18.9c0-0.2,0-0.5-0.1-0.7c-0.2-1-1.1-1.9-2.3-1.9
						c-1.7,0-2.6,1.5-2.6,3.4c0,1.8,0.9,3.3,2.6,3.3c1.1,0,2.1-0.7,2.3-1.9c0.1-0.2,0.1-0.4,0.1-0.7V18.9z"/>
					<path class="st69" d="M44.6,12.9c0,0.5-0.4,1-1,1c-0.6,0-1-0.4-1-1c0-0.6,0.4-1,1-1C44.3,11.9,44.6,12.3,44.6,12.9z M42.9,24.2
						v-8.8h1.6v8.8H42.9z"/>
					<path class="st69" d="M54.1,23.8c-0.4,0.2-1.3,0.5-2.5,0.5c-2.7,0-4.4-1.8-4.4-4.5c0-2.7,1.9-4.7,4.7-4.7
						c0.9,0,1.8,0.2,2.2,0.5l-0.4,1.2c-0.4-0.2-1-0.4-1.9-0.4c-2,0-3.1,1.5-3.1,3.3c0,2,1.3,3.3,3.1,3.3c0.9,0,1.5-0.2,2-0.4
						L54.1,23.8z"/>
					<path class="st69" d="M61.6,24.2L61.5,23h-0.1c-0.5,0.7-1.4,1.3-2.7,1.3c-1.8,0-2.7-1.3-2.7-2.5c0-2.1,1.9-3.3,5.3-3.3v-0.2
						c0-0.7-0.2-2-2-2c-0.8,0-1.7,0.3-2.3,0.7l-0.4-1.1c0.7-0.5,1.8-0.8,2.9-0.8c2.7,0,3.3,1.8,3.3,3.6V22c0,0.8,0,1.5,0.1,2.1H61.6
						z M61.3,19.7c-1.7,0-3.7,0.3-3.7,2c0,1,0.7,1.5,1.5,1.5c1.1,0,1.9-0.7,2.1-1.5c0.1-0.2,0.1-0.3,0.1-0.5V19.7z"/>
					<path class="st69" d="M72.5,23.8c-0.4,0.2-1.3,0.5-2.5,0.5c-2.7,0-4.4-1.8-4.4-4.5c0-2.7,1.9-4.7,4.7-4.7
						c0.9,0,1.8,0.2,2.2,0.5l-0.4,1.2c-0.4-0.2-1-0.4-1.9-0.4c-2,0-3.1,1.5-3.1,3.3c0,2,1.3,3.3,3.1,3.3c0.9,0,1.5-0.2,2-0.4
						L72.5,23.8z"/>
					<path class="st69" d="M76.9,12.9c0,0.5-0.4,1-1,1c-0.6,0-1-0.4-1-1c0-0.6,0.4-1,1-1C76.5,11.9,76.9,12.3,76.9,12.9z M75.1,24.2
						v-8.8h1.6v8.8H75.1z"/>
					<path class="st69" d="M88,19.7c0,3.3-2.3,4.7-4.4,4.7c-2.4,0-4.2-1.7-4.2-4.5c0-2.9,1.9-4.7,4.4-4.7C86.3,15.2,88,17,88,19.7z
						 M81,19.8c0,1.9,1.1,3.4,2.7,3.4c1.5,0,2.7-1.4,2.7-3.4c0-1.5-0.7-3.4-2.6-3.4C81.9,16.4,81,18.1,81,19.8z"/>
					<path class="st69" d="M90.8,17.7c0-0.9,0-1.7-0.1-2.4h1.4l0.1,1.5h0c0.4-0.8,1.5-1.7,2.9-1.7c1.2,0,3.1,0.7,3.1,3.7v5.3h-1.6
						v-5.1c0-1.4-0.5-2.6-2-2.6c-1.1,0-1.9,0.7-2.1,1.6c-0.1,0.2-0.1,0.5-0.1,0.7v5.3h-1.6V17.7z"/>
					<path class="st69" d="M102.5,20c0,2.2,1.4,3.1,3,3.1c1.1,0,1.8-0.2,2.4-0.5l0.3,1.1c-0.6,0.3-1.5,0.5-2.9,0.5
						c-2.7,0-4.3-1.8-4.3-4.4c0-2.7,1.6-4.7,4.1-4.7c2.9,0,3.6,2.5,3.6,4.1c0,0.3,0,0.6-0.1,0.7H102.5z M107.2,18.9
						c0-1-0.4-2.6-2.2-2.6c-1.6,0-2.3,1.5-2.5,2.6H107.2z"/>
					<path class="st69" d="M111.2,22.5c0.5,0.3,1.3,0.6,2.1,0.6c1.2,0,1.7-0.6,1.7-1.3c0-0.8-0.5-1.2-1.6-1.6
						c-1.6-0.6-2.3-1.4-2.3-2.5c0-1.4,1.1-2.6,3-2.6c0.9,0,1.7,0.3,2.2,0.5l-0.4,1.2c-0.3-0.2-1-0.5-1.8-0.5c-0.9,0-1.5,0.5-1.5,1.2
						c0,0.7,0.5,1.1,1.7,1.5c1.5,0.6,2.3,1.3,2.3,2.7c0,1.5-1.2,2.6-3.3,2.6c-1,0-1.9-0.2-2.5-0.6L111.2,22.5z"/>
				</g>
			</g>
		</g>
	</g>
</g>
</svg>
