<?xml version="1.0" encoding="utf-8"?>
<!-- Generator: Adobe Illustrator 22.0.0, SVG Export Plug-In . SVG Version: 6.00 Build 0)  -->
<svg version="1.1" id="Capa_1" xmlns="http://www.w3.org/2000/svg" xmlns:xlink="http://www.w3.org/1999/xlink" x="0px" y="0px"
	 viewBox="0 0 855.1 72.9" style="enable-background:new 0 0 855.1 72.9;" xml:space="preserve">
<style type="text/css">
	.st0{fill:#025756;}
	.st1{fill:#FFCC03;}
</style>
<g>
	<g>
		<path class="st0" d="M24,26.6L0,35.2l24.2,9.2C25.6,36.4,25.2,30.7,24,26.6z"/>
		<path class="st1" d="M824.6,0H97.2c0,0-0.1,0.1-0.3,0.2L24,26.6c1.1,4,1.5,9.7,0.1,17.8l73,28.5h727.4c16.8,0,30.5-15.5,30.5-34.6
			v-3.8C855.1,15.5,841.5,0,824.6,0z"/>
	</g>
	<g>
		<g>
			<path class="st0" d="M104.4,14.8h5c0.8,0,1.7,0,2.5,0.2c1.4,0.4,3.5,1.7,3.5,4.7c0,2-0.9,4.1-3.6,4.7c-0.8,0.2-1.6,0.2-2.5,0.2
				h-2.2v5h-2.8V14.8z M107.2,17.2v5.1h2c0.6,0,1.1,0,1.6-0.1c1.7-0.4,1.8-2,1.8-2.5c0-1.1-0.5-1.7-0.7-1.9
				c-0.7-0.6-1.7-0.6-2.6-0.6H107.2z"/>
			<path class="st0" d="M119.5,19.2v1.5c0.3-0.5,1-1.8,3.4-1.7v2.6c-0.5,0-1.5,0-2.3,0.6c-1.1,0.8-1.1,1.9-1.1,3.6v3.9h-2.4V19.2
				H119.5z"/>
			<path class="st0" d="M129,30c-3.3,0-5.5-2.4-5.5-5.6s2.2-5.5,5.4-5.5c2.9,0,5.4,2,5.4,5.5C134.3,27.6,132.1,30,129,30z
				 M128.8,21.1c-1.6,0-2.7,1.3-2.7,3.2c0,2.2,1.3,3.4,2.8,3.4c1.8,0,2.8-1.6,2.7-3.3C131.6,22.6,130.6,21.1,128.8,21.1z"/>
			<path class="st0" d="M144.8,19.2l-3.4,10.5h-2.7l-3.4-10.5h2.6l2.2,7.2l2.1-7.2H144.8z"/>
			<path class="st0" d="M156.3,27.3c-1.3,1.7-3,2.7-5.1,2.7c-2.8,0-5.4-1.7-5.4-5.6c0-3.5,2.3-5.5,5.2-5.5c2.8,0,3.9,1.7,4.1,2
				c0.9,1.2,1,3,1.1,4.1h-7.8c0.3,1.7,1.3,2.6,3,2.6c1.7,0,2.4-1,2.7-1.4L156.3,27.3z M153.5,23.1c-0.2-1.6-1.2-2.2-2.4-2.2
				c-1.3,0-2.3,0.8-2.6,2.2H153.5z"/>
			<path class="st0" d="M168.1,27.3c-1.3,1.7-3,2.7-5.1,2.7c-2.8,0-5.4-1.7-5.4-5.6c0-3.5,2.3-5.5,5.2-5.5c2.8,0,3.9,1.7,4.1,2
				c0.9,1.2,1,3,1.1,4.1h-7.8c0.3,1.7,1.3,2.6,3,2.6c1.7,0,2.4-1,2.7-1.4L168.1,27.3z M165.3,23.1c-0.2-1.6-1.2-2.2-2.4-2.2
				c-1.3,0-2.3,0.8-2.6,2.2H165.3z"/>
			<path class="st0" d="M185.2,19.2v10.5h-2.5v-1.1c-0.4,0.4-1.5,1.3-3.4,1.3c-1.7,0-2.5-0.7-2.9-1.2c-0.7-0.9-0.7-1.9-0.7-3.5v-6.1
				h2.5v6c0,0.4,0,0.8,0.1,1c0.3,0.9,1,1.3,2,1.3c1,0,1.7-0.6,2-1.1c0.4-0.7,0.4-1.4,0.4-2.8v-4.5H185.2z"/>
			<path class="st0" d="M187.9,19.2h2.5v1.2c0.1-0.2,0.4-0.5,0.8-0.8c0.6-0.5,1.6-0.7,2.4-0.7c1.2,0,2.2,0.5,2.8,1.3
				c0.7,0.9,0.7,2,0.7,3.4v6.2h-2.5v-5.4c0-0.8,0-1.3-0.1-1.6c-0.2-0.9-0.9-1.4-1.7-1.4s-1.6,0.5-1.9,1.2c-0.4,0.8-0.4,1.8-0.4,2.6
				v4.6h-2.5V19.2z"/>
			<path class="st0" d="M215.3,27.3c-1.3,1.7-3,2.7-5.1,2.7c-2.8,0-5.4-1.7-5.4-5.6c0-3.5,2.3-5.5,5.2-5.5c2.8,0,3.9,1.7,4.1,2
				c0.9,1.2,1,3,1.1,4.1h-7.8c0.3,1.7,1.3,2.6,3,2.6c1.7,0,2.4-1,2.7-1.4L215.3,27.3z M212.5,23.1c-0.2-1.6-1.2-2.2-2.4-2.2
				c-1.3,0-2.3,0.8-2.6,2.2H212.5z"/>
			<path class="st0" d="M220.1,20.9v8.7h-2.5v-8.7H216v-1.8h1.6v-1.2c0-1.5,0-3.1,3.4-3.1c0.5,0,1,0,1.4,0.1V17
				c-0.2,0-0.4-0.1-0.8-0.1c-0.7,0-1.1,0.1-1.3,0.5c-0.1,0.1-0.2,0.5-0.2,0.8v0.9h2.3v1.8H220.1z"/>
			<path class="st0" d="M233.7,27.3c-1.3,1.7-3,2.7-5.1,2.7c-2.8,0-5.4-1.7-5.4-5.6c0-3.5,2.3-5.5,5.2-5.5c2.8,0,3.9,1.7,4.1,2
				c0.9,1.2,1,3,1.1,4.1h-7.8c0.3,1.7,1.3,2.6,3,2.6c1.7,0,2.4-1,2.7-1.4L233.7,27.3z M230.9,23.1c-0.2-1.6-1.2-2.2-2.4-2.2
				c-1.3,0-2.3,0.8-2.6,2.2H230.9z"/>
			<path class="st0" d="M242.4,22.9c-0.2-0.7-0.9-1.8-2.4-1.8s-2.6,1.2-2.6,3.3c0,1.9,1,3.3,2.6,3.3c1.6,0,2.2-1.2,2.5-2.1l2.2,1.1
				c-0.8,2.3-2.9,3.3-4.7,3.3c-2.9,0-5.2-2.2-5.2-5.6c0-3.2,2.3-5.6,5.3-5.6c2.6,0,4,1.8,4.5,3L242.4,22.9z"/>
			<path class="st0" d="M248.9,21v4.7c0,1.3,0,1.9,1.2,1.9c0.4,0,0.7,0,1-0.1v2.1c-0.8,0.1-1.3,0.2-1.8,0.2c-0.5,0-2.3,0-2.8-1.3
				c-0.2-0.4-0.2-1.1-0.2-2.1V21h-1.5v-1.8h1.5v-3.7h2.5v3.7h2.2V21H248.9z"/>
			<path class="st0" d="M255.2,15v2.5h-2.5V15H255.2z M255.2,19.2v10.5h-2.5V19.2H255.2z"/>
			<path class="st0" d="M266.4,19.2L263,29.6h-2.7l-3.4-10.5h2.6l2.2,7.2l2.1-7.2H266.4z"/>
			<path class="st0" d="M272.9,30c-3.3,0-5.5-2.4-5.5-5.6s2.2-5.5,5.4-5.5c2.9,0,5.4,2,5.4,5.5C278.2,27.6,276,30,272.9,30z
				 M272.7,21.1c-1.6,0-2.7,1.3-2.7,3.2c0,2.2,1.3,3.4,2.8,3.4c1.8,0,2.8-1.6,2.7-3.3C275.5,22.6,274.5,21.1,272.7,21.1z"/>
			<path class="st0" d="M292.7,22.9c-0.2-0.7-0.9-1.8-2.4-1.8s-2.6,1.2-2.6,3.3c0,1.9,1,3.3,2.6,3.3c1.6,0,2.2-1.2,2.5-2.1l2.2,1.1
				c-0.8,2.3-2.9,3.3-4.7,3.3c-2.9,0-5.2-2.2-5.2-5.6c0-3.2,2.3-5.6,5.3-5.6c2.6,0,4,1.8,4.5,3L292.7,22.9z"/>
			<path class="st0" d="M301.3,30c-3.3,0-5.5-2.4-5.5-5.6s2.2-5.5,5.4-5.5c2.9,0,5.4,2,5.4,5.5C306.6,27.6,304.5,30,301.3,30z
				 M301.2,21.1c-1.6,0-2.7,1.3-2.7,3.2c0,2.2,1.3,3.4,2.8,3.4c1.8,0,2.8-1.6,2.7-3.3C303.9,22.6,302.9,21.1,301.2,21.1z"/>
			<path class="st0" d="M308.7,19.2h2.5v1.2c0.1-0.2,0.4-0.5,0.8-0.8c0.6-0.5,1.6-0.7,2.4-0.7c1.2,0,2.2,0.5,2.8,1.3
				c0.7,0.9,0.7,2,0.7,3.4v6.2h-2.5v-5.4c0-0.8,0-1.3-0.1-1.6c-0.2-0.9-0.9-1.4-1.7-1.4s-1.6,0.5-1.9,1.2c-0.4,0.8-0.4,1.8-0.4,2.6
				v4.6h-2.5V19.2z"/>
			<path class="st0" d="M323.3,21v4.7c0,1.3,0,1.9,1.2,1.9c0.4,0,0.7,0,1-0.1v2.1c-0.8,0.1-1.3,0.2-1.8,0.2c-0.5,0-2.3,0-2.8-1.3
				c-0.2-0.4-0.2-1.1-0.2-2.1V21h-1.5v-1.8h1.5v-3.7h2.5v3.7h2.2V21H323.3z"/>
			<path class="st0" d="M329.5,19.2v1.5c0.3-0.5,1-1.8,3.4-1.7v2.6c-0.5,0-1.5,0-2.3,0.6c-1.1,0.8-1.1,1.9-1.1,3.6v3.9h-2.4V19.2
				H329.5z"/>
			<path class="st0" d="M338.9,30c-3.3,0-5.5-2.4-5.5-5.6s2.2-5.5,5.4-5.5c2.9,0,5.4,2,5.4,5.5C344.3,27.6,342.1,30,338.9,30z
				 M338.8,21.1c-1.6,0-2.7,1.3-2.7,3.2c0,2.2,1.3,3.4,2.8,3.4c1.8,0,2.8-1.6,2.7-3.3C341.6,22.6,340.6,21.1,338.8,21.1z"/>
			<path class="st0" d="M348.9,14.8v14.8h-2.5V14.8H348.9z"/>
			<path class="st0" d="M366.8,14.8v14.8h-2.5v-1c-0.8,0.9-1.8,1.3-2.9,1.3c-2.5,0-4.7-1.9-4.7-5.3c0-3.1,1.8-5.8,4.8-5.8
				c1,0,2,0.3,2.8,1.2v-5.2H366.8z M363.7,22.1c-0.4-0.6-1-1-1.8-1c-1.7,0-2.5,1.5-2.5,3.2c0,0.2,0,3.3,2.5,3.3c1.3,0,2.5-1,2.5-3.2
				C364.2,23.8,364.1,22.8,363.7,22.1z"/>
			<path class="st0" d="M379.4,27.3c-1.3,1.7-3,2.7-5.1,2.7c-2.8,0-5.4-1.7-5.4-5.6c0-3.5,2.3-5.5,5.2-5.5c2.8,0,3.9,1.7,4.1,2
				c0.9,1.2,1,3,1.1,4.1h-7.8c0.3,1.7,1.3,2.6,3,2.6c1.7,0,2.4-1,2.7-1.4L379.4,27.3z M376.5,23.1c-0.2-1.6-1.2-2.2-2.4-2.2
				c-1.3,0-2.3,0.8-2.6,2.2H376.5z"/>
			<path class="st0" d="M383.9,14.8v14.8h-2.5V14.8H383.9z"/>
			<path class="st0" d="M391.9,22.2c0-0.5,0.1-1,0.4-1.6c1-1.8,3.5-1.8,4.2-1.8c1,0,2.2,0.1,3.1,0.7c1.2,0.8,1.3,1.7,1.3,2.9v5.6
				c0,0.8,0,1.1,0.5,1.7h-3c0-0.3-0.1-0.7-0.1-0.8c-0.5,0.5-1.7,1.1-3.1,1.1c-2.4,0-3.8-1.5-3.8-3.3c0-0.5,0.1-1,0.3-1.4
				c0.8-1.5,2.4-1.8,3.4-2c2.2-0.4,2.3-0.5,3.3-0.8c0-0.5,0-1.6-1.8-1.6c-1,0-1.6,0.3-1.9,0.7c-0.3,0.3-0.3,0.6-0.3,0.9L391.9,22.2z
				 M398.4,24.4c-0.5,0.3-1.1,0.4-2.2,0.6c-0.9,0.1-2.1,0.3-2.1,1.4c0,0.8,0.7,1.2,1.7,1.2c1.3,0,2.2-0.6,2.5-1.2
				c0.1-0.3,0.1-0.6,0.1-0.9V24.4z"/>
			<path class="st0" d="M404.6,26.5c0.6,0.8,1.6,1.3,3,1.3s2.1-0.7,2.1-1.2c0-0.7-0.8-0.8-1.1-0.9c-0.4-0.1-2.1-0.4-2.5-0.5
				c-2.5-0.6-3-2-3-3c0-1.8,1.6-3.4,4.5-3.4c1.6,0,2.8,0.5,3.5,1c0.5,0.3,0.9,0.7,1.1,0.9l-1.8,1.7c-0.3-0.6-1-1.6-2.9-1.6
				c-1.2,0-1.7,0.5-1.7,1.1c0,0.8,0.8,1,2.1,1.2c2.2,0.4,2.8,0.5,3.5,1c0.7,0.5,1.1,1.3,1.1,2.2c0,1.6-1.5,3.6-4.7,3.6
				c-1.9,0-3.7-0.6-5-1.9L404.6,26.5z"/>
			<path class="st0" d="M414.6,19.2h2.5v1.2c0.8-1,2.3-1.5,3.3-1.5s2.2,0.4,2.9,1.6c0.4-0.6,1.5-1.6,3.4-1.6c1,0,2.1,0.3,2.8,1.1
				c0.8,0.9,0.8,2,0.8,3.1v6.6h-2.5v-5.8c0-1,0.1-2.6-1.8-2.6c-0.8,0-1.4,0.4-1.8,1c-0.5,0.8-0.5,1.6-0.5,2.5v4.9h-2.5v-5.9
				c0-0.8,0-1-0.1-1.3c-0.2-0.7-0.7-1.2-1.6-1.2c-0.8,0-1.5,0.4-1.9,1.2c-0.4,0.8-0.5,1.8-0.5,2.8v4.4h-2.5V19.2z"/>
			<path class="st0" d="M432.6,22.2c0-0.5,0.1-1,0.4-1.6c1-1.8,3.5-1.8,4.2-1.8c1,0,2.2,0.1,3.1,0.7c1.2,0.8,1.3,1.7,1.3,2.9v5.6
				c0,0.8,0,1.1,0.5,1.7h-3c0-0.3-0.1-0.7-0.1-0.8c-0.5,0.5-1.7,1.1-3.1,1.1c-2.4,0-3.8-1.5-3.8-3.3c0-0.5,0.1-1,0.3-1.4
				c0.8-1.5,2.4-1.8,3.4-2c2.2-0.4,2.3-0.5,3.3-0.8c0-0.5,0-1.6-1.8-1.6c-1,0-1.6,0.3-1.9,0.7c-0.3,0.3-0.3,0.6-0.3,0.9L432.6,22.2z
				 M439.1,24.4c-0.5,0.3-1.1,0.4-2.2,0.6c-0.9,0.1-2.1,0.3-2.1,1.4c0,0.8,0.7,1.2,1.7,1.2c1.3,0,2.2-0.6,2.5-1.2
				c0.1-0.3,0.1-0.6,0.1-0.9V24.4z"/>
			<path class="st0" d="M452.5,19.2v1.5c0.3-0.5,1-1.8,3.4-1.7v2.6c-0.5,0-1.5,0-2.3,0.6c-1.1,0.8-1.1,1.9-1.1,3.6v3.9H450V19.2
				H452.5z"/>
			<path class="st0" d="M466.9,27.3c-1.3,1.7-3,2.7-5.1,2.7c-2.8,0-5.4-1.7-5.4-5.6c0-3.5,2.3-5.5,5.2-5.5c2.8,0,3.9,1.7,4.1,2
				c0.9,1.2,1,3,1.1,4.1h-7.8c0.3,1.7,1.3,2.6,3,2.6c1.7,0,2.4-1,2.7-1.4L466.9,27.3z M464.1,23.1c-0.2-1.6-1.2-2.2-2.4-2.2
				c-1.3,0-2.3,0.8-2.6,2.2H464.1z"/>
			<path class="st0" d="M478.3,14.8v14.8h-2.5v-1c-0.8,0.9-1.8,1.3-2.9,1.3c-2.5,0-4.7-1.9-4.7-5.3c0-3.1,1.8-5.8,4.8-5.8
				c1,0,2,0.3,2.8,1.2v-5.2H478.3z M475.2,22.1c-0.4-0.6-1-1-1.8-1c-1.7,0-2.5,1.5-2.5,3.2c0,0.2,0,3.3,2.5,3.3c1.3,0,2.5-1,2.5-3.2
				C475.8,23.8,475.7,22.8,475.2,22.1z"/>
			<path class="st0" d="M490.6,19.2v10.5h-2.5v-1.1c-0.4,0.4-1.5,1.3-3.4,1.3c-1.7,0-2.5-0.7-2.9-1.2c-0.7-0.9-0.7-1.9-0.7-3.5v-6.1
				h2.5v6c0,0.4,0,0.8,0.1,1c0.3,0.9,1,1.3,2,1.3c1,0,1.7-0.6,2-1.1c0.4-0.7,0.4-1.4,0.4-2.8v-4.5H490.6z"/>
			<path class="st0" d="M500.1,22.9c-0.2-0.7-0.9-1.8-2.4-1.8s-2.6,1.2-2.6,3.3c0,1.9,1,3.3,2.6,3.3c1.6,0,2.2-1.2,2.5-2.1l2.2,1.1
				c-0.8,2.3-2.9,3.3-4.7,3.3c-2.9,0-5.2-2.2-5.2-5.6c0-3.2,2.3-5.6,5.3-5.6c2.6,0,4,1.8,4.5,3L500.1,22.9z"/>
			<path class="st0" d="M506.3,15v2.5h-2.5V15H506.3z M506.3,19.2v10.5h-2.5V19.2H506.3z"/>
			<path class="st0" d="M519,27.3c-1.3,1.7-3,2.7-5.1,2.7c-2.8,0-5.4-1.7-5.4-5.6c0-3.5,2.3-5.5,5.2-5.5c2.8,0,3.9,1.7,4.1,2
				c0.9,1.2,1,3,1.1,4.1h-7.8c0.3,1.7,1.3,2.6,3,2.6c1.7,0,2.4-1,2.7-1.4L519,27.3z M516.1,23.1c-0.2-1.6-1.2-2.2-2.4-2.2
				c-1.3,0-2.3,0.8-2.6,2.2H516.1z"/>
			<path class="st0" d="M520.9,19.2h2.5v1.2c0.1-0.2,0.4-0.5,0.8-0.8c0.6-0.5,1.6-0.7,2.4-0.7c1.2,0,2.2,0.5,2.8,1.3
				c0.7,0.9,0.7,2,0.7,3.4v6.2h-2.5v-5.4c0-0.8,0-1.3-0.1-1.6c-0.2-0.9-0.9-1.4-1.7-1.4s-1.6,0.5-1.9,1.2c-0.4,0.8-0.4,1.8-0.4,2.6
				v4.6h-2.5V19.2z"/>
			<path class="st0" d="M542.2,14.8v14.8h-2.5v-1c-0.8,0.9-1.8,1.3-2.9,1.3c-2.5,0-4.7-1.9-4.7-5.3c0-3.1,1.8-5.8,4.8-5.8
				c1,0,2,0.3,2.8,1.2v-5.2H542.2z M539.1,22.1c-0.4-0.6-1-1-1.8-1c-1.7,0-2.5,1.5-2.5,3.2c0,0.2,0,3.3,2.5,3.3c1.3,0,2.5-1,2.5-3.2
				C539.6,23.8,539.5,22.8,539.1,22.1z"/>
			<path class="st0" d="M549.8,30c-3.3,0-5.5-2.4-5.5-5.6s2.2-5.5,5.4-5.5c2.9,0,5.4,2,5.4,5.5C555.1,27.6,552.9,30,549.8,30z
				 M549.6,21.1c-1.6,0-2.7,1.3-2.7,3.2c0,2.2,1.3,3.4,2.8,3.4c1.8,0,2.8-1.6,2.7-3.3C552.4,22.6,551.4,21.1,549.6,21.1z"/>
			<path class="st0" d="M565.4,14.8v14.8h-2.5V14.8H565.4z"/>
			<path class="st0" d="M567.8,22.2c0-0.5,0.1-1,0.4-1.6c1-1.8,3.5-1.8,4.2-1.8c1,0,2.2,0.1,3.1,0.7c1.2,0.8,1.3,1.7,1.3,2.9v5.6
				c0,0.8,0,1.1,0.5,1.7h-3c0-0.3-0.1-0.7-0.1-0.8c-0.5,0.5-1.7,1.1-3.1,1.1c-2.4,0-3.8-1.5-3.8-3.3c0-0.5,0.1-1,0.3-1.4
				c0.8-1.5,2.4-1.8,3.4-2c2.2-0.4,2.3-0.5,3.3-0.8c0-0.5,0-1.6-1.8-1.6c-1,0-1.6,0.3-1.9,0.7c-0.3,0.3-0.3,0.6-0.3,0.9L567.8,22.2z
				 M574.3,24.4c-0.5,0.3-1.1,0.4-2.2,0.6c-0.9,0.1-2.1,0.3-2.1,1.4c0,0.8,0.7,1.2,1.7,1.2c1.3,0,2.2-0.6,2.5-1.2
				c0.1-0.3,0.1-0.6,0.1-0.9V24.4z"/>
			<path class="st0" d="M587.7,15v2.5h-2.5V15H587.7z M587.7,19.2v10.5h-2.5V19.2H587.7z"/>
			<path class="st0" d="M590.4,19.2h2.5v1.2c0.1-0.2,0.4-0.5,0.8-0.8c0.6-0.5,1.6-0.7,2.4-0.7c1.2,0,2.2,0.5,2.8,1.3
				c0.7,0.9,0.7,2,0.7,3.4v6.2h-2.5v-5.4c0-0.8,0-1.3-0.1-1.6c-0.2-0.9-0.9-1.4-1.7-1.4s-1.6,0.5-1.9,1.2c-0.4,0.8-0.4,1.8-0.4,2.6
				v4.6h-2.5V19.2z"/>
			<path class="st0" d="M605.1,20.9v8.7h-2.5v-8.7H601v-1.8h1.6v-1.2c0-1.5,0-3.1,3.4-3.1c0.5,0,1,0,1.4,0.1V17
				c-0.2,0-0.4-0.1-0.8-0.1c-0.7,0-1.1,0.1-1.3,0.5c-0.1,0.1-0.2,0.5-0.2,0.8v0.9h2.3v1.8H605.1z"/>
			<path class="st0" d="M611.4,14.8v14.8h-2.5V14.8H611.4z"/>
			<path class="st0" d="M613.7,22.2c0-0.5,0.1-1,0.4-1.6c1-1.8,3.5-1.8,4.2-1.8c1,0,2.2,0.1,3.1,0.7c1.2,0.8,1.3,1.7,1.3,2.9v5.6
				c0,0.8,0,1.1,0.5,1.7h-3c0-0.3-0.1-0.7-0.1-0.8c-0.5,0.5-1.7,1.1-3.1,1.1c-2.4,0-3.8-1.5-3.8-3.3c0-0.5,0.1-1,0.3-1.4
				c0.8-1.5,2.4-1.8,3.4-2c2.2-0.4,2.3-0.5,3.3-0.8c0-0.5,0-1.6-1.8-1.6c-1,0-1.6,0.3-1.9,0.7c-0.3,0.3-0.3,0.6-0.3,0.9L613.7,22.2z
				 M620.2,24.4c-0.5,0.3-1.1,0.4-2.2,0.6c-0.9,0.1-2.1,0.3-2.1,1.4c0,0.8,0.7,1.2,1.7,1.2c1.3,0,2.2-0.6,2.5-1.2
				c0.1-0.3,0.1-0.6,0.1-0.9V24.4z"/>
			<path class="st0" d="M625.4,19.2h2.5v1.2c0.8-1,2.3-1.5,3.3-1.5c1,0,2.2,0.4,2.9,1.6c0.4-0.6,1.5-1.6,3.4-1.6
				c1,0,2.1,0.3,2.8,1.1c0.8,0.9,0.8,2,0.8,3.1v6.6h-2.5v-5.8c0-1,0.1-2.6-1.8-2.6c-0.8,0-1.4,0.4-1.8,1c-0.5,0.8-0.5,1.6-0.5,2.5
				v4.9H632v-5.9c0-0.8,0-1-0.1-1.3c-0.2-0.7-0.7-1.2-1.6-1.2c-0.8,0-1.5,0.4-1.9,1.2c-0.4,0.8-0.5,1.8-0.5,2.8v4.4h-2.5V19.2z"/>
			<path class="st0" d="M643.5,22.2c0-0.5,0.1-1,0.4-1.6c1-1.8,3.5-1.8,4.2-1.8c1,0,2.2,0.1,3.1,0.7c1.2,0.8,1.3,1.7,1.3,2.9v5.6
				c0,0.8,0,1.1,0.5,1.7h-3c0-0.3-0.1-0.7-0.1-0.8c-0.5,0.5-1.7,1.1-3.1,1.1c-2.4,0-3.8-1.5-3.8-3.3c0-0.5,0.1-1,0.3-1.4
				c0.8-1.5,2.4-1.8,3.4-2c2.2-0.4,2.3-0.5,3.3-0.8c0-0.5,0-1.6-1.8-1.6c-1,0-1.6,0.3-1.9,0.7c-0.3,0.3-0.3,0.6-0.3,0.9L643.5,22.2z
				 M650,24.4c-0.5,0.3-1.1,0.4-2.2,0.6c-0.9,0.1-2.1,0.3-2.1,1.4c0,0.8,0.7,1.2,1.7,1.2c1.3,0,2.2-0.6,2.5-1.2
				c0.1-0.3,0.1-0.6,0.1-0.9V24.4z"/>
			<path class="st0" d="M661.9,22.9c-0.2-0.7-0.9-1.8-2.4-1.8c-1.4,0-2.6,1.2-2.6,3.3c0,1.9,1,3.3,2.6,3.3c1.6,0,2.2-1.2,2.5-2.1
				l2.2,1.1c-0.8,2.3-2.9,3.3-4.7,3.3c-2.9,0-5.2-2.2-5.2-5.6c0-3.2,2.3-5.6,5.3-5.6c2.6,0,4,1.8,4.5,3L661.9,22.9z"/>
			<path class="st0" d="M668.2,15v2.5h-2.5V15H668.2z M668.2,19.2v10.5h-2.5V19.2H668.2z"/>
			<path class="st0" d="M675.8,30c-3.3,0-5.5-2.4-5.5-5.6s2.2-5.5,5.4-5.5c2.9,0,5.4,2,5.4,5.5C681.1,27.6,679,30,675.8,30z
				 M675.7,21.1c-1.6,0-2.7,1.3-2.7,3.2c0,2.2,1.3,3.4,2.8,3.4c1.8,0,2.8-1.6,2.7-3.3C678.4,22.6,677.4,21.1,675.7,21.1z
				 M678.8,14.8l-2.3,2.8h-1.9l1-2.8H678.8z"/>
			<path class="st0" d="M683.2,19.2h2.5v1.2c0.1-0.2,0.4-0.5,0.8-0.8c0.6-0.5,1.6-0.7,2.4-0.7c1.2,0,2.2,0.5,2.8,1.3
				c0.7,0.9,0.7,2,0.7,3.4v6.2h-2.5v-5.4c0-0.8,0-1.3-0.1-1.6c-0.2-0.9-0.9-1.4-1.7-1.4c-0.8,0-1.6,0.5-1.9,1.2
				c-0.4,0.8-0.4,1.8-0.4,2.6v4.6h-2.5V19.2z"/>
			<path class="st0" d="M709.2,19.2l-2.7,9.2l-0.6,2c-0.7,2.2-1.5,3-3.4,3c-0.8,0-1.2-0.1-1.5-0.1v-2.2c0.2,0,0.4,0.1,0.7,0.1
				c0.2,0,0.7,0,1.1-0.3c0.3-0.2,0.6-0.7,0.6-0.9l-3.8-10.7h2.7l2.3,7.8l2-7.8H709.2z"/>
			<path class="st0" d="M716.4,19.2h2.5v1.2c0.8-1,2.3-1.5,3.3-1.5c1,0,2.2,0.4,2.9,1.6c0.4-0.6,1.5-1.6,3.4-1.6
				c1,0,2.1,0.3,2.8,1.1c0.8,0.9,0.8,2,0.8,3.1v6.6h-2.5v-5.8c0-1,0.1-2.6-1.8-2.6c-0.8,0-1.4,0.4-1.8,1c-0.5,0.8-0.5,1.6-0.5,2.5
				v4.9H723v-5.9c0-0.8,0-1-0.1-1.3c-0.2-0.7-0.7-1.2-1.6-1.2c-0.8,0-1.5,0.4-1.9,1.2c-0.4,0.8-0.5,1.8-0.5,2.8v4.4h-2.5V19.2z"/>
			<path class="st0" d="M744.7,27.3c-1.3,1.7-3,2.7-5.1,2.7c-2.8,0-5.4-1.7-5.4-5.6c0-3.5,2.3-5.5,5.2-5.5c2.8,0,3.9,1.7,4.1,2
				c0.9,1.2,1,3,1.1,4.1h-7.8c0.3,1.7,1.3,2.6,3,2.6c1.7,0,2.4-1,2.7-1.4L744.7,27.3z M741.8,23.1c-0.2-1.6-1.2-2.2-2.4-2.2
				c-1.3,0-2.3,0.8-2.6,2.2H741.8z"/>
			<path class="st0" d="M749.2,19.1v10.6c0,1,0,1.5-0.1,1.8c-0.4,1.2-1.8,1.6-3.2,1.6c-0.2,0-0.3,0-0.6,0v-2.3
				c0.2,0,0.9-0.1,1.2-0.4c0.2-0.3,0.2-0.4,0.2-1.6v-9.6H749.2z M749.1,15v2.5h-2.5V15H749.1z"/>
			<path class="st0" d="M756.7,30c-3.3,0-5.5-2.4-5.5-5.6s2.2-5.5,5.4-5.5c2.9,0,5.4,2,5.4,5.5C762,27.6,759.9,30,756.7,30z
				 M756.6,21.1c-1.6,0-2.7,1.3-2.7,3.2c0,2.2,1.3,3.4,2.8,3.4c1.8,0,2.8-1.6,2.7-3.3C759.4,22.6,758.3,21.1,756.6,21.1z"/>
			<path class="st0" d="M766.5,19.2v1.5c0.3-0.5,1-1.8,3.4-1.7v2.6c-0.5,0-1.5,0-2.3,0.6c-1.1,0.8-1.1,1.9-1.1,3.6v3.9h-2.4V19.2
				H766.5z"/>
			<path class="st0" d="M771.2,22.2c0-0.5,0.1-1,0.4-1.6c1-1.8,3.5-1.8,4.2-1.8c1,0,2.2,0.1,3.1,0.7c1.2,0.8,1.3,1.7,1.3,2.9v5.6
				c0,0.8,0,1.1,0.5,1.7h-3c0-0.3-0.1-0.7-0.1-0.8c-0.5,0.5-1.7,1.1-3.1,1.1c-2.4,0-3.8-1.5-3.8-3.3c0-0.5,0.1-1,0.3-1.4
				c0.8-1.5,2.4-1.8,3.4-2c2.2-0.4,2.3-0.5,3.3-0.8c0-0.5,0-1.6-1.8-1.6c-1,0-1.6,0.3-1.9,0.7c-0.3,0.3-0.3,0.6-0.3,0.9L771.2,22.2z
				 M777.7,24.4c-0.5,0.3-1.1,0.4-2.2,0.6c-0.9,0.1-2.1,0.3-2.1,1.4c0,0.8,0.7,1.2,1.7,1.2c1.3,0,2.2-0.6,2.5-1.2
				c0.1-0.3,0.1-0.6,0.1-0.9V24.4z"/>
			<path class="st0" d="M782.9,19.2h2.5v1.2c0.1-0.2,0.4-0.5,0.8-0.8c0.6-0.5,1.6-0.7,2.4-0.7c1.2,0,2.2,0.5,2.8,1.3
				c0.7,0.9,0.7,2,0.7,3.4v6.2h-2.5v-5.4c0-0.8,0-1.3-0.1-1.6c-0.2-0.9-0.9-1.4-1.7-1.4c-0.8,0-1.6,0.5-1.9,1.2
				c-0.4,0.8-0.4,1.8-0.4,2.6v4.6h-2.5V19.2z"/>
			<path class="st0" d="M804.2,14.8v14.8h-2.5v-1c-0.8,0.9-1.8,1.3-2.9,1.3c-2.5,0-4.7-1.9-4.7-5.3c0-3.1,1.8-5.8,4.8-5.8
				c1,0,2,0.3,2.8,1.2v-5.2H804.2z M801.1,22.1c-0.4-0.6-1-1-1.8-1c-1.7,0-2.5,1.5-2.5,3.2c0,0.2,0,3.3,2.5,3.3c1.3,0,2.5-1,2.5-3.2
				C801.7,23.8,801.6,22.8,801.1,22.1z"/>
			<path class="st0" d="M811.8,30c-3.3,0-5.5-2.4-5.5-5.6s2.2-5.5,5.4-5.5c2.9,0,5.4,2,5.4,5.5C817.1,27.6,815,30,811.8,30z
				 M811.7,21.1c-1.6,0-2.7,1.3-2.7,3.2c0,2.2,1.3,3.4,2.8,3.4c1.8,0,2.8-1.6,2.7-3.3C814.5,22.6,813.4,21.1,811.7,21.1z"/>
			<path class="st0" d="M834.8,27.3c-1.3,1.7-3,2.7-5.1,2.7c-2.8,0-5.4-1.7-5.4-5.6c0-3.5,2.3-5.5,5.2-5.5c2.8,0,3.9,1.7,4.1,2
				c0.9,1.2,1,3,1.1,4.1h-7.8c0.3,1.7,1.3,2.6,3,2.6c1.7,0,2.4-1,2.7-1.4L834.8,27.3z M831.9,23.1c-0.2-1.6-1.2-2.2-2.4-2.2
				c-1.3,0-2.3,0.8-2.6,2.2H831.9z"/>
			<path class="st0" d="M839.3,14.8v14.8h-2.5V14.8H839.3z"/>
			<path class="st0" d="M110.7,48.1c-0.2-0.7-0.9-1.8-2.4-1.8s-2.6,1.2-2.6,3.3c0,1.9,1,3.3,2.6,3.3c1.6,0,2.2-1.2,2.5-2.1l2.2,1.1
				c-0.8,2.3-2.9,3.3-4.7,3.3c-2.9,0-5.2-2.2-5.2-5.6c0-3.2,2.3-5.6,5.3-5.6c2.6,0,4,1.8,4.5,3L110.7,48.1z"/>
			<path class="st0" d="M119.3,55.2c-3.3,0-5.5-2.4-5.5-5.6s2.2-5.5,5.4-5.5c2.9,0,5.4,2,5.4,5.5C124.7,52.8,122.5,55.2,119.3,55.2z
				 M119.2,46.3c-1.6,0-2.7,1.3-2.7,3.2c0,2.2,1.3,3.4,2.8,3.4c1.8,0,2.8-1.6,2.7-3.3C122,47.8,121,46.3,119.2,46.3z"/>
			<path class="st0" d="M126.7,44.4h2.5v1.2c0.1-0.2,0.4-0.5,0.8-0.8c0.6-0.5,1.6-0.7,2.4-0.7c1.2,0,2.2,0.5,2.8,1.3
				c0.7,0.9,0.7,2,0.7,3.4v6.2h-2.5v-5.4c0-0.8,0-1.3-0.1-1.6c-0.2-0.9-0.9-1.4-1.7-1.4s-1.6,0.5-1.9,1.2c-0.4,0.8-0.4,1.8-0.4,2.6
				v4.6h-2.5V44.4z"/>
			<path class="st0" d="M141.3,46.2v4.7c0,1.3,0,1.9,1.2,1.9c0.4,0,0.7,0,1-0.1v2.1c-0.8,0.1-1.3,0.2-1.8,0.2c-0.5,0-2.3,0-2.8-1.3
				c-0.2-0.4-0.2-1.1-0.2-2.1v-5.4h-1.5v-1.8h1.5v-3.7h2.5v3.7h2.2v1.8H141.3z"/>
			<path class="st0" d="M147.5,44.4v1.5c0.3-0.5,1-1.8,3.4-1.7v2.6c-0.5,0-1.5,0-2.3,0.6c-1.1,0.8-1.1,1.9-1.1,3.6v3.9h-2.4V44.4
				H147.5z"/>
			<path class="st0" d="M157,55.2c-3.3,0-5.5-2.4-5.5-5.6s2.2-5.5,5.4-5.5c2.9,0,5.4,2,5.4,5.5C162.3,52.8,160.1,55.2,157,55.2z
				 M156.8,46.3c-1.6,0-2.7,1.3-2.7,3.2c0,2.2,1.3,3.4,2.8,3.4c1.8,0,2.8-1.6,2.7-3.3C159.6,47.8,158.6,46.3,156.8,46.3z"/>
			<path class="st0" d="M166.9,40v14.8h-2.5V40H166.9z"/>
			<path class="st0" d="M184.8,40v14.8h-2.5v-1c-0.8,0.9-1.8,1.3-2.9,1.3c-2.5,0-4.7-1.9-4.7-5.3c0-3.1,1.8-5.8,4.8-5.8
				c1,0,2,0.3,2.8,1.2V40H184.8z M181.7,47.3c-0.4-0.6-1-1-1.8-1c-1.7,0-2.5,1.5-2.5,3.2c0,0.2,0,3.3,2.5,3.3c1.3,0,2.5-1,2.5-3.2
				C182.3,49,182.2,48,181.7,47.3z"/>
			<path class="st0" d="M197.4,52.5c-1.3,1.7-3,2.7-5.1,2.7c-2.8,0-5.4-1.7-5.4-5.6c0-3.5,2.3-5.5,5.2-5.5c2.8,0,3.9,1.7,4.1,2
				c0.9,1.2,1,3,1.1,4.1h-7.8c0.3,1.7,1.3,2.6,3,2.6c1.7,0,2.4-1,2.7-1.4L197.4,52.5z M194.6,48.3c-0.2-1.6-1.2-2.2-2.4-2.2
				c-1.3,0-2.3,0.8-2.6,2.2H194.6z"/>
			<path class="st0" d="M207.6,40v14.8h-2.5V40H207.6z"/>
			<path class="st0" d="M215.1,55.2c-3.3,0-5.5-2.4-5.5-5.6s2.2-5.5,5.4-5.5c2.9,0,5.4,2,5.4,5.5C220.5,52.8,218.3,55.2,215.1,55.2z
				 M215,46.3c-1.6,0-2.7,1.3-2.7,3.2c0,2.2,1.3,3.4,2.8,3.4c1.8,0,2.8-1.6,2.7-3.3C217.8,47.8,216.8,46.3,215,46.3z"/>
			<path class="st0" d="M223.5,51.7c0.6,0.8,1.6,1.3,3,1.3s2.1-0.7,2.1-1.2c0-0.7-0.8-0.8-1.1-0.9c-0.4-0.1-2.1-0.4-2.5-0.5
				c-2.5-0.6-3-2-3-3c0-1.8,1.6-3.4,4.5-3.4c1.6,0,2.8,0.5,3.5,1c0.5,0.3,0.9,0.7,1.1,0.9l-1.8,1.7c-0.3-0.6-1-1.6-2.9-1.6
				c-1.2,0-1.7,0.5-1.7,1.1c0,0.8,0.8,1,2.1,1.2c2.2,0.4,2.8,0.5,3.5,1c0.7,0.5,1.1,1.3,1.1,2.2c0,1.6-1.5,3.6-4.7,3.6
				c-1.9,0-3.7-0.6-5-1.9L223.5,51.7z"/>
			<path class="st0" d="M240.1,51.7c0.6,0.8,1.6,1.3,3,1.3s2.1-0.7,2.1-1.2c0-0.7-0.8-0.8-1.1-0.9c-0.4-0.1-2.1-0.4-2.5-0.5
				c-2.5-0.6-3-2-3-3c0-1.8,1.6-3.4,4.5-3.4c1.6,0,2.8,0.5,3.5,1c0.5,0.3,0.9,0.7,1.1,0.9l-1.8,1.7c-0.3-0.6-1-1.6-2.9-1.6
				c-1.2,0-1.7,0.5-1.7,1.1c0,0.8,0.8,1,2.1,1.2c2.2,0.4,2.8,0.5,3.5,1c0.7,0.5,1.1,1.3,1.1,2.2c0,1.6-1.5,3.6-4.7,3.6
				c-1.9,0-3.7-0.6-5-1.9L240.1,51.7z"/>
			<path class="st0" d="M252.6,44.4v10.5h-2.5V44.4H252.6z M254.4,40l-2.3,2.8h-1.9l1-2.8H254.4z"/>
			<path class="st0" d="M255.3,44.4h2.5v1.2c0.1-0.2,0.4-0.5,0.8-0.8c0.6-0.5,1.6-0.7,2.4-0.7c1.2,0,2.2,0.5,2.8,1.3
				c0.7,0.9,0.7,2,0.7,3.4v6.2H262v-5.4c0-0.8,0-1.3-0.1-1.6c-0.2-0.9-0.9-1.4-1.7-1.4s-1.6,0.5-1.9,1.2c-0.4,0.8-0.4,1.8-0.4,2.6
				v4.6h-2.5V44.4z"/>
			<path class="st0" d="M269.9,46.2v4.7c0,1.3,0,1.9,1.2,1.9c0.4,0,0.7,0,1-0.1v2.1c-0.8,0.1-1.3,0.2-1.8,0.2c-0.5,0-2.3,0-2.8-1.3
				c-0.2-0.4-0.2-1.1-0.2-2.1v-5.4h-1.5v-1.8h1.5v-3.7h2.5v3.7h2.2v1.8H269.9z"/>
			<path class="st0" d="M278.6,55.2c-3.3,0-5.5-2.4-5.5-5.6s2.2-5.5,5.4-5.5c2.9,0,5.4,2,5.4,5.5C283.9,52.8,281.7,55.2,278.6,55.2z
				 M278.4,46.3c-1.6,0-2.7,1.3-2.7,3.2c0,2.2,1.3,3.4,2.8,3.4c1.8,0,2.8-1.6,2.7-3.3C281.2,47.8,280.2,46.3,278.4,46.3z"/>
			<path class="st0" d="M286,44.4h2.5v1.2c0.8-1,2.3-1.5,3.3-1.5s2.2,0.4,2.9,1.6c0.4-0.6,1.5-1.6,3.4-1.6c1,0,2.1,0.3,2.8,1.1
				c0.8,0.9,0.8,2,0.8,3.1v6.6h-2.5v-5.8c0-1,0.1-2.6-1.8-2.6c-0.8,0-1.4,0.4-1.8,1c-0.5,0.8-0.5,1.6-0.5,2.5v4.9h-2.5V49
				c0-0.8,0-1-0.1-1.3c-0.2-0.7-0.7-1.2-1.6-1.2c-0.8,0-1.5,0.4-1.9,1.2c-0.4,0.8-0.5,1.8-0.5,2.8v4.4H286V44.4z"/>
			<path class="st0" d="M304,47.4c0-0.5,0.1-1,0.4-1.6c1-1.8,3.5-1.8,4.2-1.8c1,0,2.2,0.1,3.1,0.7c1.2,0.8,1.3,1.7,1.3,2.9v5.6
				c0,0.8,0,1.1,0.5,1.7h-3c0-0.3-0.1-0.7-0.1-0.8c-0.5,0.5-1.7,1.1-3.1,1.1c-2.4,0-3.8-1.5-3.8-3.3c0-0.5,0.1-1,0.3-1.4
				c0.8-1.5,2.4-1.8,3.4-2c2.2-0.4,2.3-0.5,3.3-0.8c0-0.5,0-1.6-1.8-1.6c-1,0-1.6,0.3-1.9,0.7c-0.3,0.3-0.3,0.6-0.3,0.9L304,47.4z
				 M310.5,49.6c-0.5,0.3-1.1,0.4-2.2,0.6c-0.9,0.1-2.1,0.3-2.1,1.4c0,0.8,0.7,1.2,1.7,1.2c1.3,0,2.2-0.6,2.5-1.2
				c0.1-0.3,0.1-0.6,0.1-0.9V49.6z"/>
			<path class="st0" d="M316.7,51.7c0.6,0.8,1.6,1.3,3,1.3s2.1-0.7,2.1-1.2c0-0.7-0.8-0.8-1.1-0.9c-0.4-0.1-2.1-0.4-2.5-0.5
				c-2.5-0.6-3-2-3-3c0-1.8,1.6-3.4,4.5-3.4c1.6,0,2.8,0.5,3.5,1c0.5,0.3,0.9,0.7,1.1,0.9l-1.8,1.7c-0.3-0.6-1-1.6-2.9-1.6
				c-1.2,0-1.7,0.5-1.7,1.1c0,0.8,0.8,1,2.1,1.2c2.2,0.4,2.8,0.5,3.5,1c0.7,0.5,1.1,1.3,1.1,2.2c0,1.6-1.5,3.6-4.7,3.6
				c-1.9,0-3.7-0.6-5-1.9L316.7,51.7z"/>
			<path class="st0" d="M342.2,52.5c-1.3,1.7-3,2.7-5.1,2.7c-2.8,0-5.4-1.7-5.4-5.6c0-3.5,2.3-5.5,5.2-5.5c2.8,0,3.9,1.7,4.1,2
				c0.9,1.2,1,3,1.1,4.1h-7.8c0.3,1.7,1.3,2.6,3,2.6c1.7,0,2.4-1,2.7-1.4L342.2,52.5z M339.4,48.3c-0.2-1.6-1.2-2.2-2.4-2.2
				c-1.3,0-2.3,0.8-2.6,2.2H339.4z"/>
			<path class="st0" d="M344.1,44.4h2.5v1.2c0.1-0.2,0.4-0.5,0.8-0.8c0.6-0.5,1.6-0.7,2.4-0.7c1.2,0,2.2,0.5,2.8,1.3
				c0.7,0.9,0.7,2,0.7,3.4v6.2h-2.5v-5.4c0-0.8,0-1.3-0.1-1.6c-0.2-0.9-0.9-1.4-1.7-1.4s-1.6,0.5-1.9,1.2c-0.4,0.8-0.4,1.8-0.4,2.6
				v4.6h-2.5V44.4z"/>
			<path class="st0" d="M361.7,44.4h2.5v1c0.4-0.4,1.2-1.3,2.9-1.3c3.1,0,4.8,2.8,4.8,5.7c0,3.1-2,5.5-4.8,5.5
				c-1.4,0-2.4-0.7-2.9-1.2v4.3h-2.5V44.4z M366.7,52.8c1.2,0,2.5-0.8,2.5-3.2c0-2.6-1.8-3.1-2.6-3.1c-1.2,0-2.5,0.8-2.5,3.1
				C364.1,51.7,365.3,52.8,366.7,52.8z"/>
			<path class="st0" d="M373.6,47.4c0-0.5,0.1-1,0.4-1.6c1-1.8,3.5-1.8,4.2-1.8c1,0,2.2,0.1,3.1,0.7c1.2,0.8,1.3,1.7,1.3,2.9v5.6
				c0,0.8,0,1.1,0.5,1.7h-3c0-0.3-0.1-0.7-0.1-0.8c-0.5,0.5-1.7,1.1-3.1,1.1c-2.4,0-3.8-1.5-3.8-3.3c0-0.5,0.1-1,0.3-1.4
				c0.8-1.5,2.4-1.8,3.4-2c2.2-0.4,2.3-0.5,3.3-0.8c0-0.5,0-1.6-1.8-1.6c-1,0-1.6,0.3-1.9,0.7c-0.3,0.3-0.3,0.6-0.3,0.9L373.6,47.4z
				 M380.1,49.6c-0.5,0.3-1.1,0.4-2.2,0.6c-0.9,0.1-2.1,0.3-2.1,1.4c0,0.8,0.7,1.2,1.7,1.2c1.3,0,2.2-0.6,2.5-1.2
				c0.1-0.3,0.1-0.6,0.1-0.9V49.6z"/>
			<path class="st0" d="M392,48.1c-0.2-0.7-0.9-1.8-2.4-1.8s-2.6,1.2-2.6,3.3c0,1.9,1,3.3,2.6,3.3c1.6,0,2.2-1.2,2.5-2.1l2.2,1.1
				c-0.8,2.3-2.9,3.3-4.7,3.3c-2.9,0-5.2-2.2-5.2-5.6c0-3.2,2.3-5.6,5.3-5.6c2.6,0,4,1.8,4.5,3L392,48.1z"/>
			<path class="st0" d="M398.3,40.2v2.5h-2.5v-2.5H398.3z M398.3,44.4v10.5h-2.5V44.4H398.3z"/>
			<path class="st0" d="M410.9,52.5c-1.3,1.7-3,2.7-5.1,2.7c-2.8,0-5.4-1.7-5.4-5.6c0-3.5,2.3-5.5,5.2-5.5c2.8,0,3.9,1.7,4.1,2
				c0.9,1.2,1,3,1.1,4.1h-7.8c0.3,1.7,1.3,2.6,3,2.6c1.7,0,2.4-1,2.7-1.4L410.9,52.5z M408.1,48.3c-0.2-1.6-1.2-2.2-2.4-2.2
				c-1.3,0-2.3,0.8-2.6,2.2H408.1z"/>
			<path class="st0" d="M412.8,44.4h2.5v1.2c0.1-0.2,0.4-0.5,0.8-0.8c0.6-0.5,1.6-0.7,2.4-0.7c1.2,0,2.2,0.5,2.8,1.3
				c0.7,0.9,0.7,2,0.7,3.4v6.2h-2.5v-5.4c0-0.8,0-1.3-0.1-1.6c-0.2-0.9-0.9-1.4-1.7-1.4s-1.6,0.5-1.9,1.2c-0.4,0.8-0.4,1.8-0.4,2.6
				v4.6h-2.5V44.4z"/>
			<path class="st0" d="M427.4,46.2v4.7c0,1.3,0,1.9,1.2,1.9c0.4,0,0.7,0,1-0.1v2.1c-0.8,0.1-1.3,0.2-1.8,0.2c-0.5,0-2.3,0-2.8-1.3
				c-0.2-0.4-0.2-1.1-0.2-2.1v-5.4h-1.5v-1.8h1.5v-3.7h2.5v3.7h2.2v1.8H427.4z"/>
			<path class="st0" d="M441.1,52.5c-1.3,1.7-3,2.7-5.1,2.7c-2.8,0-5.4-1.7-5.4-5.6c0-3.5,2.3-5.5,5.2-5.5c2.8,0,3.9,1.7,4.1,2
				c0.9,1.2,1,3,1.1,4.1h-7.8c0.3,1.7,1.3,2.6,3,2.6c1.7,0,2.4-1,2.7-1.4L441.1,52.5z M438.2,48.3c-0.2-1.6-1.2-2.2-2.4-2.2
				c-1.3,0-2.3,0.8-2.6,2.2H438.2z"/>
			<path class="st0" d="M444,51.7c0.6,0.8,1.6,1.3,3,1.3s2.1-0.7,2.1-1.2c0-0.7-0.8-0.8-1.1-0.9c-0.4-0.1-2.1-0.4-2.5-0.5
				c-2.5-0.6-3-2-3-3c0-1.8,1.6-3.4,4.5-3.4c1.6,0,2.8,0.5,3.5,1c0.5,0.3,0.9,0.7,1.1,0.9l-1.8,1.7c-0.3-0.6-1-1.6-2.9-1.6
				c-1.2,0-1.7,0.5-1.7,1.1c0,0.8,0.8,1,2.1,1.2c2.2,0.4,2.8,0.5,3.5,1c0.7,0.5,1.1,1.3,1.1,2.2c0,1.6-1.5,3.6-4.7,3.6
				c-1.9,0-3.7-0.6-5-1.9L444,51.7z"/>
			<path class="st0" d="M466.4,48.1c-0.2-0.7-0.9-1.8-2.4-1.8s-2.6,1.2-2.6,3.3c0,1.9,1,3.3,2.6,3.3c1.6,0,2.2-1.2,2.5-2.1l2.2,1.1
				c-0.8,2.3-2.9,3.3-4.7,3.3c-2.9,0-5.2-2.2-5.2-5.6c0-3.2,2.3-5.6,5.3-5.6c2.6,0,4,1.8,4.5,3L466.4,48.1z"/>
			<path class="st0" d="M475,55.2c-3.3,0-5.5-2.4-5.5-5.6s2.2-5.5,5.4-5.5c2.9,0,5.4,2,5.4,5.5C480.3,52.8,478.2,55.2,475,55.2z
				 M474.9,46.3c-1.6,0-2.7,1.3-2.7,3.2c0,2.2,1.3,3.4,2.8,3.4c1.8,0,2.8-1.6,2.7-3.3C477.6,47.8,476.6,46.3,474.9,46.3z"/>
			<path class="st0" d="M482.4,44.4h2.5v1.2c0.1-0.2,0.4-0.5,0.8-0.8c0.6-0.5,1.6-0.7,2.4-0.7c1.2,0,2.2,0.5,2.8,1.3
				c0.7,0.9,0.7,2,0.7,3.4v6.2H489v-5.4c0-0.8,0-1.3-0.1-1.6c-0.2-0.9-0.9-1.4-1.7-1.4s-1.6,0.5-1.9,1.2c-0.4,0.8-0.4,1.8-0.4,2.6
				v4.6h-2.5V44.4z"/>
			<path class="st0" d="M499.6,47.4c0-0.5,0.1-1,0.4-1.6c1-1.8,3.5-1.8,4.2-1.8c1,0,2.2,0.1,3.1,0.7c1.2,0.8,1.3,1.7,1.3,2.9v5.6
				c0,0.8,0,1.1,0.5,1.7h-3c0-0.3-0.1-0.7-0.1-0.8c-0.5,0.5-1.7,1.1-3.1,1.1c-2.4,0-3.8-1.5-3.8-3.3c0-0.5,0.1-1,0.3-1.4
				c0.8-1.5,2.4-1.8,3.4-2c2.2-0.4,2.3-0.5,3.3-0.8c0-0.5,0-1.6-1.8-1.6c-1,0-1.6,0.3-1.9,0.7c-0.3,0.3-0.3,0.6-0.3,0.9L499.6,47.4z
				 M506,49.6c-0.5,0.3-1.1,0.4-2.2,0.6c-0.9,0.1-2.1,0.3-2.1,1.4c0,0.8,0.7,1.2,1.7,1.2c1.3,0,2.2-0.6,2.5-1.2
				c0.1-0.3,0.1-0.6,0.1-0.9V49.6z"/>
			<path class="st0" d="M512.2,51.7c0.6,0.8,1.6,1.3,3,1.3s2.1-0.7,2.1-1.2c0-0.7-0.8-0.8-1.1-0.9c-0.4-0.1-2.1-0.4-2.5-0.5
				c-2.5-0.6-3-2-3-3c0-1.8,1.6-3.4,4.5-3.4c1.6,0,2.8,0.5,3.5,1c0.5,0.3,0.9,0.7,1.1,0.9l-1.8,1.7c-0.3-0.6-1-1.6-2.9-1.6
				c-1.2,0-1.7,0.5-1.7,1.1c0,0.8,0.8,1,2.1,1.2c2.2,0.4,2.8,0.5,3.5,1c0.7,0.5,1.1,1.3,1.1,2.2c0,1.6-1.5,3.6-4.7,3.6
				c-1.9,0-3.7-0.6-5-1.9L512.2,51.7z"/>
			<path class="st0" d="M522.2,44.4h2.5v1.2c0.8-1,2.3-1.5,3.3-1.5s2.2,0.4,2.9,1.6c0.4-0.6,1.5-1.6,3.4-1.6c1,0,2.1,0.3,2.8,1.1
				c0.8,0.9,0.8,2,0.8,3.1v6.6h-2.5v-5.8c0-1,0.1-2.6-1.8-2.6c-0.8,0-1.4,0.4-1.8,1c-0.5,0.8-0.5,1.6-0.5,2.5v4.9h-2.5V49
				c0-0.8,0-1-0.1-1.3c-0.2-0.7-0.7-1.2-1.6-1.2c-0.8,0-1.5,0.4-1.9,1.2c-0.4,0.8-0.5,1.8-0.5,2.8v4.4h-2.5V44.4z"/>
			<path class="st0" d="M540.3,47.4c0-0.5,0.1-1,0.4-1.6c1-1.8,3.5-1.8,4.2-1.8c1,0,2.2,0.1,3.1,0.7c1.2,0.8,1.3,1.7,1.3,2.9v5.6
				c0,0.8,0,1.1,0.5,1.7h-3c0-0.3-0.1-0.7-0.1-0.8c-0.5,0.5-1.7,1.1-3.1,1.1c-2.4,0-3.8-1.5-3.8-3.3c0-0.5,0.1-1,0.3-1.4
				c0.8-1.5,2.4-1.8,3.4-2c2.2-0.4,2.3-0.5,3.3-0.8c0-0.5,0-1.6-1.8-1.6c-1,0-1.6,0.3-1.9,0.7c-0.3,0.3-0.3,0.6-0.3,0.9L540.3,47.4z
				 M546.7,49.6c-0.5,0.3-1.1,0.4-2.2,0.6c-0.9,0.1-2.1,0.3-2.1,1.4c0,0.8,0.7,1.2,1.7,1.2c1.3,0,2.2-0.6,2.5-1.2
				c0.1-0.3,0.1-0.6,0.1-0.9V49.6z"/>
			<path class="st0" d="M557.7,44.4h2.5v1c0.4-0.4,1.2-1.3,2.9-1.3c3.1,0,4.8,2.8,4.8,5.7c0,3.1-2,5.5-4.8,5.5
				c-1.4,0-2.4-0.7-2.9-1.2v4.3h-2.5V44.4z M562.7,52.8c1.2,0,2.5-0.8,2.5-3.2c0-2.6-1.8-3.1-2.6-3.1c-1.2,0-2.5,0.8-2.5,3.1
				C560.1,51.7,561.3,52.8,562.7,52.8z"/>
			<path class="st0" d="M579.8,52.5c-1.3,1.7-3,2.7-5.1,2.7c-2.8,0-5.4-1.7-5.4-5.6c0-3.5,2.3-5.5,5.2-5.5c2.8,0,3.9,1.7,4.1,2
				c0.9,1.2,1,3,1.1,4.1h-7.8c0.3,1.7,1.3,2.6,3,2.6c1.7,0,2.4-1,2.7-1.4L579.8,52.5z M576.9,48.3c-0.2-1.6-1.2-2.2-2.4-2.2
				c-1.3,0-2.3,0.8-2.6,2.2H576.9z"/>
			<path class="st0" d="M584.1,44.4v1.5c0.3-0.5,1-1.8,3.4-1.7v2.6c-0.5,0-1.5,0-2.3,0.6c-1.1,0.8-1.1,1.9-1.1,3.6v3.9h-2.4V44.4
				H584.1z"/>
			<path class="st0" d="M590.1,51.7c0.6,0.8,1.6,1.3,3,1.3s2.1-0.7,2.1-1.2c0-0.7-0.8-0.8-1.1-0.9c-0.4-0.1-2.1-0.4-2.5-0.5
				c-2.5-0.6-3-2-3-3c0-1.8,1.6-3.4,4.5-3.4c1.6,0,2.8,0.5,3.5,1c0.5,0.3,0.9,0.7,1.1,0.9l-1.8,1.7c-0.3-0.6-1-1.6-2.9-1.6
				c-1.2,0-1.7,0.5-1.7,1.1c0,0.8,0.8,1,2.1,1.2c2.2,0.4,2.8,0.5,3.5,1c0.7,0.5,1.1,1.3,1.1,2.2c0,1.6-1.5,3.6-4.7,3.6
				c-1.9,0-3.7-0.6-5-1.9L590.1,51.7z"/>
			<path class="st0" d="M602.6,40.2v2.5h-2.5v-2.5H602.6z M602.6,44.4v10.5h-2.5V44.4H602.6z"/>
			<path class="st0" d="M606.3,51.7c0.6,0.8,1.6,1.3,3,1.3s2.1-0.7,2.1-1.2c0-0.7-0.8-0.8-1.1-0.9c-0.4-0.1-2.1-0.4-2.5-0.5
				c-2.5-0.6-3-2-3-3c0-1.8,1.6-3.4,4.5-3.4c1.6,0,2.8,0.5,3.5,1c0.5,0.3,0.9,0.7,1.1,0.9l-1.8,1.7c-0.3-0.6-1-1.6-2.9-1.6
				c-1.2,0-1.7,0.5-1.7,1.1c0,0.8,0.8,1,2.1,1.2c2.2,0.4,2.8,0.5,3.5,1c0.7,0.5,1.1,1.3,1.1,2.2c0,1.6-1.5,3.6-4.7,3.6
				c-1.9,0-3.7-0.6-5-1.9L606.3,51.7z"/>
			<path class="st0" d="M619,46.2v4.7c0,1.3,0,1.9,1.2,1.9c0.4,0,0.7,0,1-0.1v2.1c-0.8,0.1-1.3,0.2-1.8,0.2c-0.5,0-2.3,0-2.8-1.3
				c-0.2-0.4-0.2-1.1-0.2-2.1v-5.4H615v-1.8h1.5v-3.7h2.5v3.7h2.2v1.8H619z"/>
			<path class="st0" d="M632.7,52.5c-1.3,1.7-3,2.7-5.1,2.7c-2.8,0-5.4-1.7-5.4-5.6c0-3.5,2.3-5.5,5.2-5.5c2.8,0,3.9,1.7,4.1,2
				c0.9,1.2,1,3,1.1,4.1h-7.8c0.3,1.7,1.3,2.6,3,2.6c1.7,0,2.4-1,2.7-1.4L632.7,52.5z M629.9,48.3c-0.2-1.6-1.2-2.2-2.4-2.2
				c-1.3,0-2.3,0.8-2.6,2.2H629.9z"/>
			<path class="st0" d="M634.6,44.4h2.5v1.2c0.1-0.2,0.4-0.5,0.8-0.8c0.6-0.5,1.6-0.7,2.4-0.7c1.2,0,2.2,0.5,2.8,1.3
				c0.7,0.9,0.7,2,0.7,3.4v6.2h-2.5v-5.4c0-0.8,0-1.3-0.1-1.6c-0.2-0.9-0.9-1.4-1.7-1.4c-0.8,0-1.6,0.5-1.9,1.2
				c-0.4,0.8-0.4,1.8-0.4,2.6v4.6h-2.5V44.4z"/>
			<path class="st0" d="M649.2,46.2v4.7c0,1.3,0,1.9,1.2,1.9c0.4,0,0.7,0,1-0.1v2.1c-0.8,0.1-1.3,0.2-1.8,0.2c-0.5,0-2.3,0-2.8-1.3
				c-0.2-0.4-0.2-1.1-0.2-2.1v-5.4h-1.5v-1.8h1.5v-3.7h2.5v3.7h2.2v1.8H649.2z"/>
			<path class="st0" d="M662.9,52.5c-1.3,1.7-3,2.7-5.1,2.7c-2.8,0-5.4-1.7-5.4-5.6c0-3.5,2.3-5.5,5.2-5.5c2.8,0,3.9,1.7,4.1,2
				c0.9,1.2,1,3,1.1,4.1H655c0.3,1.7,1.3,2.6,3,2.6c1.7,0,2.4-1,2.7-1.4L662.9,52.5z M660,48.3c-0.2-1.6-1.2-2.2-2.4-2.2
				c-1.3,0-2.3,0.8-2.6,2.2H660z"/>
			<path class="st0" d="M673.1,40v14.8h-2.5V40H673.1z"/>
			<path class="st0" d="M685.6,52.5c-1.3,1.7-3,2.7-5.1,2.7c-2.8,0-5.4-1.7-5.4-5.6c0-3.5,2.3-5.5,5.2-5.5c2.8,0,3.9,1.7,4.1,2
				c0.9,1.2,1,3,1.1,4.1h-7.8c0.3,1.7,1.3,2.6,3,2.6c1.7,0,2.4-1,2.7-1.4L685.6,52.5z M682.8,48.3c-0.2-1.6-1.2-2.2-2.4-2.2
				c-1.3,0-2.3,0.8-2.6,2.2H682.8z"/>
			<path class="st0" d="M696,44.4l-3.4,10.5h-2.7l-3.4-10.5h2.6l2.2,7.2l2.1-7.2H696z"/>
			<path class="st0" d="M707.5,52.5c-1.3,1.7-3,2.7-5.1,2.7c-2.8,0-5.4-1.7-5.4-5.6c0-3.5,2.3-5.5,5.2-5.5c2.8,0,3.9,1.7,4.1,2
				c0.9,1.2,1,3,1.1,4.1h-7.8c0.3,1.7,1.3,2.6,3,2.6c1.7,0,2.4-1,2.7-1.4L707.5,52.5z M704.6,48.3c-0.2-1.6-1.2-2.2-2.4-2.2
				c-1.3,0-2.3,0.8-2.6,2.2H704.6z"/>
			<path class="st0" d="M714.8,47.4c0-0.5,0.1-1,0.4-1.6c1-1.8,3.5-1.8,4.2-1.8c1,0,2.2,0.1,3.1,0.7c1.2,0.8,1.3,1.7,1.3,2.9v5.6
				c0,0.8,0,1.1,0.5,1.7h-3c0-0.3-0.1-0.7-0.1-0.8c-0.5,0.5-1.7,1.1-3.1,1.1c-2.4,0-3.8-1.5-3.8-3.3c0-0.5,0.1-1,0.3-1.4
				c0.8-1.5,2.4-1.8,3.4-2c2.2-0.4,2.3-0.5,3.3-0.8c0-0.5,0-1.6-1.8-1.6c-1,0-1.6,0.3-1.9,0.7c-0.3,0.3-0.3,0.6-0.3,0.9L714.8,47.4z
				 M721.3,49.6c-0.5,0.3-1.1,0.4-2.2,0.6c-0.9,0.1-2.1,0.3-2.1,1.4c0,0.8,0.7,1.2,1.7,1.2c1.3,0,2.2-0.6,2.5-1.2
				c0.1-0.3,0.1-0.6,0.1-0.9V49.6z"/>
			<path class="st0" d="M732.2,44.4h2.5v1.2c0.8-1,2.3-1.5,3.3-1.5c1,0,2.2,0.4,2.9,1.6c0.4-0.6,1.5-1.6,3.4-1.6
				c1,0,2.1,0.3,2.8,1.1c0.8,0.9,0.8,2,0.8,3.1v6.6h-2.5v-5.8c0-1,0.1-2.6-1.8-2.6c-0.8,0-1.4,0.4-1.8,1c-0.5,0.8-0.5,1.6-0.5,2.5
				v4.9h-2.5V49c0-0.8,0-1-0.1-1.3c-0.2-0.7-0.7-1.2-1.6-1.2c-0.8,0-1.5,0.4-1.9,1.2c-0.4,0.8-0.5,1.8-0.5,2.8v4.4h-2.5V44.4z"/>
			<path class="st0" d="M755.4,55.2c-3.3,0-5.5-2.4-5.5-5.6s2.2-5.5,5.4-5.5c2.9,0,5.4,2,5.4,5.5C760.7,52.8,758.6,55.2,755.4,55.2z
				 M755.3,46.3c-1.6,0-2.7,1.3-2.7,3.2c0,2.2,1.3,3.4,2.8,3.4c1.8,0,2.8-1.6,2.7-3.3C758,47.8,757,46.3,755.3,46.3z"/>
			<path class="st0" d="M772.3,40v14.8h-2.5v-1c-0.8,0.9-1.8,1.3-2.9,1.3c-2.5,0-4.7-1.9-4.7-5.3c0-3.1,1.8-5.8,4.8-5.8
				c1,0,2,0.3,2.8,1.2V40H772.3z M769.2,47.3c-0.4-0.6-1-1-1.8-1c-1.7,0-2.5,1.5-2.5,3.2c0,0.2,0,3.3,2.5,3.3c1.3,0,2.5-1,2.5-3.2
				C769.7,49,769.7,48,769.2,47.3z"/>
			<path class="st0" d="M784.9,52.5c-1.3,1.7-3,2.7-5.1,2.7c-2.8,0-5.4-1.7-5.4-5.6c0-3.5,2.3-5.5,5.2-5.5c2.8,0,3.9,1.7,4.1,2
				c0.9,1.2,1,3,1.1,4.1h-7.8c0.3,1.7,1.3,2.6,3,2.6c1.7,0,2.4-1,2.7-1.4L784.9,52.5z M782.1,48.3c-0.2-1.6-1.2-2.2-2.4-2.2
				c-1.3,0-2.3,0.8-2.6,2.2H782.1z"/>
			<path class="st0" d="M789.3,44.4v1.5c0.3-0.5,1-1.8,3.4-1.7v2.6c-0.5,0-1.5,0-2.3,0.6c-1.1,0.8-1.1,1.9-1.1,3.6v3.9h-2.4V44.4
				H789.3z"/>
			<path class="st0" d="M793.9,47.4c0-0.5,0.1-1,0.4-1.6c1-1.8,3.5-1.8,4.2-1.8c1,0,2.2,0.1,3.1,0.7c1.2,0.8,1.3,1.7,1.3,2.9v5.6
				c0,0.8,0,1.1,0.5,1.7h-3c0-0.3-0.1-0.7-0.1-0.8c-0.5,0.5-1.7,1.1-3.1,1.1c-2.4,0-3.8-1.5-3.8-3.3c0-0.5,0.1-1,0.3-1.4
				c0.8-1.5,2.4-1.8,3.4-2c2.2-0.4,2.3-0.5,3.3-0.8c0-0.5,0-1.6-1.8-1.6c-1,0-1.6,0.3-1.9,0.7c-0.3,0.3-0.3,0.6-0.3,0.9L793.9,47.4z
				 M800.4,49.6c-0.5,0.3-1.1,0.4-2.2,0.6c-0.9,0.1-2.1,0.3-2.1,1.4c0,0.8,0.7,1.2,1.7,1.2c1.3,0,2.2-0.6,2.5-1.2
				c0.1-0.3,0.1-0.6,0.1-0.9V49.6z"/>
			<path class="st0" d="M815.1,40v14.8h-2.5v-1c-0.8,0.9-1.8,1.3-2.9,1.3c-2.5,0-4.7-1.9-4.7-5.3c0-3.1,1.8-5.8,4.8-5.8
				c1,0,2,0.3,2.8,1.2V40H815.1z M812.1,47.3c-0.4-0.6-1-1-1.8-1c-1.7,0-2.5,1.5-2.5,3.2c0,0.2,0,3.3,2.5,3.3c1.3,0,2.5-1,2.5-3.2
				C812.6,49,812.5,48,812.1,47.3z"/>
			<path class="st0" d="M817.6,47.4c0-0.5,0.1-1,0.4-1.6c1-1.8,3.5-1.8,4.2-1.8c1,0,2.2,0.1,3.1,0.7c1.2,0.8,1.3,1.7,1.3,2.9v5.6
				c0,0.8,0,1.1,0.5,1.7h-3c0-0.3-0.1-0.7-0.1-0.8c-0.5,0.5-1.7,1.1-3.1,1.1c-2.4,0-3.8-1.5-3.8-3.3c0-0.5,0.1-1,0.3-1.4
				c0.8-1.5,2.4-1.8,3.4-2c2.2-0.4,2.3-0.5,3.3-0.8c0-0.5,0-1.6-1.8-1.6c-1,0-1.6,0.3-1.9,0.7c-0.3,0.3-0.3,0.6-0.3,0.9L817.6,47.4z
				 M824.1,49.6c-0.5,0.3-1.1,0.4-2.2,0.6c-0.9,0.1-2.1,0.3-2.1,1.4c0,0.8,0.7,1.2,1.7,1.2c1.3,0,2.2-0.6,2.5-1.2
				c0.1-0.3,0.1-0.6,0.1-0.9V49.6z"/>
		</g>
	</g>
</g>
</svg>
