<?xml version="1.0" encoding="utf-8"?>
<!-- Generator: Adobe Illustrator 22.0.0, SVG Export Plug-In . SVG Version: 6.00 Build 0)  -->
<svg version="1.1" id="Capa_1" xmlns="http://www.w3.org/2000/svg" xmlns:xlink="http://www.w3.org/1999/xlink" x="0px" y="0px"
	 viewBox="0 0 438.9 83.1" style="enable-background:new 0 0 438.9 83.1;" xml:space="preserve">
<style type="text/css">
	.st0{opacity:0.7;fill:#FFFFFF;}
</style>
<g>
	<path class="st0" d="M267.1,83.1c0.5-3.7,3.6-6.5,7.4-6.5c0.3,0,0.6,0,0.9,0.1c1.5-4.3,5.6-7.4,10.5-7.4c0.9,0,1.8,0.1,2.7,0.3
		c2.5-3.4,6.5-5.6,11-5.6c5.2,0,9.6,2.8,12,7c1.7-1.1,3.8-1.8,6.1-1.8c4.9,0,9,3.2,10.5,7.5c0.6-0.1,1.2-0.2,1.8-0.2
		c3.8,0,6.9,2.8,7.4,6.5H267.1z"/>
	<path class="st0" d="M0,26.7c0.5-3.9,3.9-7,7.9-7c0.3,0,0.6,0,1,0.1c1.7-4.6,6-7.9,11.2-7.9c1,0,2,0.1,2.9,0.4
		c2.7-3.6,7-5.9,11.8-5.9c5.5,0,10.3,3,12.8,7.5c1.9-1.2,4.1-1.9,6.5-1.9c5.2,0,9.7,3.4,11.3,8c0.6-0.2,1.3-0.2,1.9-0.2
		c4.1,0,7.4,3,7.9,7H0z"/>
	<path class="st0" d="M330,29.5c0.7-5.7,5.6-10.1,11.5-10.1c0.5,0,0.9,0,1.4,0.1c2.4-6.6,8.7-11.4,16.2-11.4c1.5,0,2.9,0.2,4.2,0.5
		c3.9-5.2,10.1-8.6,17.1-8.6c8,0,14.9,4.4,18.6,10.9c2.7-1.7,5.9-2.8,9.4-2.8c7.6,0,14,4.9,16.3,11.7c0.9-0.2,1.8-0.4,2.8-0.4
		c5.9,0,10.7,4.4,11.5,10.1H330z"/>
</g>
</svg>
