<!-- Generator: Adobe Illustrator 22.0.0, SVG Export Plug-In  -->
<svg version="1.1"
	 xmlns="http://www.w3.org/2000/svg" xmlns:xlink="http://www.w3.org/1999/xlink" xmlns:a="http://ns.adobe.com/AdobeSVGViewerExtensions/3.0/"
	 x="0px" y="0px" width="634.6px" height="191.4px" viewBox="0 0 634.6 191.4" style="enable-background:new 0 0 634.6 191.4;"
	 xml:space="preserve">
<style type="text/css">
	.st0{fill-rule:evenodd;clip-rule:evenodd;fill:#158AA7;}
	.st1{fill-rule:evenodd;clip-rule:evenodd;fill:#009497;}
	.st2{fill-rule:evenodd;clip-rule:evenodd;fill:#124953;}
</style>
<defs>
</defs>
<g>
	<path class="st0" d="M5.3,141h38.2l6.4-42.5h20.2c22.1,0,38.7-18,43.1-46.8C118.5,16.8,102.2,0,76.8,0H26.6L5.3,141z M59,38.5h3.8
		c6.5,0,14.4,0.6,12.8,11.6C73.8,61.5,66.1,63,59.2,63h-3.9L59,38.5z"/>
	<polygon class="st0" points="102.3,141 177.7,141 184.7,95.8 150.3,95.8 165.3,0 124.3,0 	"/>
	<path class="st0" d="M261.5,0l-11.9,78.5c-1.6,11-3.5,20.8-14.1,20.8c-10.6,0-9.3-9.7-7.7-20.8L239.8,0h-39.7l-12.6,83.4
		c-6.3,41.1,10.9,59.8,41.5,59.8c30.6,0,53.5-18.7,59.7-59.8L301.3,0H261.5z"/>
	<path class="st0" d="M283.9,141H324l7-45.3h0.7l10.9,45.3H390l-17.3-45.8c-1.7-4.1-3.8-6.4-5.6-8.4l0.2-1.1
		c16.2-6.4,24.2-15.3,27.6-36.7c5.6-35.5-13.9-49-39.4-49h-49.5L283.9,141z M340.1,38.5h3.1c7,0,13,1.3,11.3,12.2
		c-1.7,10.5-8.6,11.8-15.3,11.8h-2.8L340.1,38.5z"/>
	<path class="st1" d="M465.1,0h-45.3L349,166.3h43.4l15.6-42.9h31l1,17.6h43.4L465.1,0z M458.1,74.9c-6.4,5.6-18.8,14.2-24.7,14.2
		l-4.1,6.1l-4.3,2.1c0,0-1,5.4-1.8,6.4c-0.9,1-3,1.3-3.3,1.7c-0.3,0.4-1.7,1.4-2.3,0.6c-0.6-0.9-1.1-4.2,0.6-5.8
		c1.7-1.6,4-2.7,4-2.7s3.7-9.4,4.5-9.7c0,0-5.8-0.4-8.1-2.7c-2.3-2.3-7.4-7.3-9.2-11.2c-1.9-4-4.6-12.1-4.6-12.1s9.3,10.6,18.6,9.1
		c0,0,2.7,3.2,5.4,4.4c2.7,1.1,4.2,3.3,4.5,4.1c0,0,5.4-5.8,6.3-6.6c0.9-0.7,2.6-2.4,3.4-0.3c0.8,2.1-0.9,3.4-1.7,3.4
		c0,0-2.1,3.7-0.6,3.4c1.6-0.3,3.8-1.9,4.8-2.1c1-0.3,5.3-6.1,7.7-7.4c2.4-1.3,15.2-13.1,15.6-12.8
		C468.6,58.8,467.4,66.7,458.1,74.9z"/>
	<polygon class="st1" points="477.2,141 518.2,141 540.2,0 499.2,0 	"/>
	<path class="st1" d="M526.7,141h38.7l6.8-45.3h0.7l10.5,45.3H629l-16.7-45.8c-1.6-4.1-3.7-6.4-5.4-8.4l0.2-1.1
		c15.6-6.4,23.4-15.3,26.6-36.7c5.4-35.5-13.4-49-38-49H548L526.7,141z M580.9,38.5h3c6.8,0,12.5,1.3,10.9,12.2
		c-1.6,10.5-8.3,11.8-14.8,11.8h-2.7L580.9,38.5z"/>
	<g>
		<path class="st2" d="M0,184.8v-22.6h4.3l5.1,16c0.5,1.5,0.8,2.6,1,3.4c0.2-0.8,0.6-2,1.1-3.6l5.1-15.8h3.8v22.6h-2.7v-19l-6.3,19
			H9l-6.2-19.3v19.3H0z"/>
		<path class="st2" d="M24.3,173.7c0-3.8,1-6.7,2.9-8.8c1.9-2.1,4.4-3.2,7.4-3.2c2,0,3.8,0.5,5.4,1.5c1.6,1,2.8,2.4,3.6,4.2
			c0.8,1.8,1.3,3.8,1.3,6.1c0,2.3-0.4,4.4-1.3,6.2c-0.9,1.8-2.1,3.2-3.7,4.1c-1.6,0.9-3.4,1.4-5.2,1.4c-2,0-3.8-0.5-5.4-1.5
			c-1.6-1-2.8-2.4-3.6-4.2C24.7,177.6,24.3,175.7,24.3,173.7z M27.2,173.8c0,2.7,0.7,4.9,2.1,6.5c1.4,1.6,3.2,2.3,5.3,2.3
			c2.1,0,3.9-0.8,5.3-2.4c1.4-1.6,2.1-3.8,2.1-6.8c0-1.8-0.3-3.5-0.9-4.8c-0.6-1.4-1.5-2.4-2.6-3.2c-1.1-0.8-2.4-1.1-3.8-1.1
			c-2,0-3.8,0.7-5.2,2.2C27.9,168,27.2,170.4,27.2,173.8z"/>
		<polygon class="st2" points="48.5,184.8 48.5,162.1 51.4,162.1 62.7,179.9 62.7,162.1 65.4,162.1 65.4,184.8 62.5,184.8 51.2,167 
			51.2,184.8 		"/>
		<polygon class="st2" points="75.7,184.8 75.7,164.8 68.6,164.8 68.6,162.1 85.6,162.1 85.6,164.8 78.5,164.8 78.5,184.8 		"/>
		<polygon class="st2" points="88.6,184.8 88.6,162.1 104.2,162.1 104.2,164.8 91.5,164.8 91.5,171.7 103.4,171.7 103.4,174.4 
			91.5,174.4 91.5,182.1 104.7,182.1 104.7,184.8 		"/>
		<polygon class="st2" points="108.5,184.8 108.5,162.1 111.3,162.1 111.3,182.1 121.9,182.1 121.9,184.8 		"/>
		<path class="st2" d="M139.5,162.1h2.8v13.1c0,2.3-0.2,4.1-0.7,5.4s-1.4,2.4-2.7,3.3c-1.3,0.8-2.9,1.3-5,1.3c-2,0-3.7-0.4-4.9-1.1
			c-1.3-0.7-2.2-1.8-2.7-3.2c-0.5-1.4-0.8-3.3-0.8-5.7v-13.1h2.8v13.1c0,2,0.2,3.4,0.5,4.4c0.4,0.9,0.9,1.6,1.8,2.1
			c0.9,0.5,1.9,0.8,3.1,0.8c2.1,0,3.6-0.5,4.5-1.5c0.9-1,1.3-2.9,1.3-5.8V162.1z"/>
		<polygon class="st2" points="146.9,184.8 146.9,162.1 149.8,162.1 149.8,173.4 160.5,162.1 164.3,162.1 155.3,171.3 164.7,184.8 
			161,184.8 153.3,173.3 149.8,176.9 149.8,184.8 		"/>
		<path class="st2" d="M164.7,184.8l8.3-22.6h3.1l8.8,22.6h-3.2l-2.5-6.9h-9l-2.4,6.9H164.7z M170.9,175.5h7.3l-2.2-6.3
			c-0.7-1.9-1.2-3.5-1.5-4.7c-0.3,1.5-0.7,2.9-1.2,4.3L170.9,175.5z"/>
		<path class="st2" d="M186.2,177.5l2.7-0.2c0.1,1.1,0.4,2.1,0.9,2.8c0.5,0.7,1.2,1.3,2.2,1.8c1,0.4,2.1,0.7,3.3,0.7
			c1.1,0,2-0.2,2.9-0.5c0.8-0.3,1.4-0.8,1.8-1.4c0.4-0.6,0.6-1.2,0.6-1.9c0-0.7-0.2-1.3-0.6-1.9c-0.4-0.5-1-1-1.9-1.3
			c-0.6-0.2-1.9-0.6-3.8-1.1c-2-0.5-3.4-1-4.2-1.4c-1-0.6-1.8-1.3-2.3-2.1c-0.5-0.8-0.7-1.8-0.7-2.8c0-1.1,0.3-2.2,0.9-3.2
			c0.6-1,1.5-1.8,2.7-2.3c1.2-0.5,2.5-0.8,3.9-0.8c1.6,0,3,0.3,4.2,0.8c1.2,0.5,2.2,1.3,2.8,2.4c0.7,1.1,1,2.2,1.1,3.6l-2.7,0.2
			c-0.1-1.4-0.6-2.5-1.5-3.2c-0.8-0.7-2.1-1.1-3.7-1.1c-1.7,0-3,0.3-3.8,1c-0.8,0.7-1.2,1.5-1.2,2.4c0,0.8,0.3,1.5,0.8,2
			c0.5,0.5,2,1.1,4.3,1.6c2.3,0.5,3.9,1,4.8,1.4c1.3,0.6,2.2,1.4,2.8,2.3c0.6,0.9,0.9,2,0.9,3.2c0,1.2-0.3,2.3-1,3.4
			c-0.7,1.1-1.6,1.9-2.8,2.5c-1.2,0.6-2.6,0.9-4.1,0.9c-1.9,0-3.6-0.3-4.9-0.9c-1.3-0.6-2.3-1.5-3.1-2.7
			C186.6,180.4,186.2,179,186.2,177.5z"/>
		<polygon class="st2" points="212.7,184.8 212.7,164.8 205.6,164.8 205.6,162.1 222.6,162.1 222.6,164.8 215.5,164.8 215.5,184.8 
					"/>
		<path class="st2" d="M232.8,178.8l2.8-0.2c0.2,1.4,0.7,2.5,1.4,3.2c0.8,0.7,1.7,1.1,2.7,1.1c1.3,0,2.3-0.5,3.2-1.5
			c0.9-1,1.3-2.3,1.3-4c0-1.6-0.4-2.8-1.3-3.8c-0.8-0.9-1.9-1.4-3.3-1.4c-0.9,0-1.6,0.2-2.3,0.6c-0.7,0.4-1.2,0.9-1.6,1.6l-2.5-0.3
			l2.1-11.6h10.7v2.7h-8.6l-1.2,6.1c1.3-0.9,2.6-1.4,4.1-1.4c1.9,0,3.5,0.7,4.8,2.1c1.3,1.4,1.9,3.1,1.9,5.3c0,2.1-0.6,3.8-1.7,5.3
			c-1.4,1.8-3.3,2.7-5.7,2.7c-2,0-3.6-0.6-4.8-1.7C233.7,182.3,233,180.7,232.8,178.8z"/>
		<rect x="249.2" y="175.2" class="st2" width="8.1" height="2.8"/>
		<path class="st2" d="M269.5,184.8h-2.6v-17.7c-0.6,0.6-1.5,1.3-2.5,1.9c-1,0.6-2,1.1-2.8,1.4v-2.7c1.5-0.7,2.8-1.6,3.9-2.7
			c1.1-1,1.9-2,2.3-3h1.7V184.8z"/>
		<path class="st2" d="M276.3,173.6c0-2.7,0.3-4.8,0.8-6.5c0.5-1.6,1.3-2.9,2.3-3.8c1-0.9,2.3-1.3,3.9-1.3c1.2,0,2.2,0.2,3,0.7
			c0.9,0.5,1.6,1.2,2.2,2.1c0.6,0.9,1,2,1.3,3.4c0.3,1.3,0.5,3.1,0.5,5.3c0,2.7-0.3,4.8-0.8,6.4c-0.5,1.6-1.3,2.9-2.3,3.8
			c-1,0.9-2.3,1.3-3.9,1.3c-2.1,0-3.7-0.8-4.9-2.3C277,180.9,276.3,177.9,276.3,173.6z M279,173.6c0,3.7,0.4,6.2,1.2,7.4
			c0.8,1.2,1.9,1.8,3.1,1.8c1.2,0,2.2-0.6,3.1-1.9c0.8-1.2,1.2-3.7,1.2-7.4c0-3.7-0.4-6.2-1.2-7.4c-0.8-1.2-1.8-1.8-3.1-1.8
			c-1.2,0-2.2,0.5-2.9,1.6C279.4,167.3,279,169.9,279,173.6z"/>
		<path class="st2" d="M302.1,184.8v-16.4h2.4v2.3c0.5-0.8,1.1-1.4,2-1.9c0.8-0.5,1.7-0.7,2.8-0.7c1.2,0,2.1,0.3,2.8,0.8
			c0.7,0.5,1.3,1.2,1.6,2.1c1.2-1.9,2.8-2.9,4.8-2.9c1.5,0,2.7,0.5,3.6,1.4c0.8,0.9,1.2,2.3,1.2,4.2v11.3h-2.6v-10.3
			c0-1.1-0.1-1.9-0.3-2.4c-0.2-0.5-0.5-0.9-0.9-1.2c-0.5-0.3-1-0.4-1.6-0.4c-1.1,0-2,0.4-2.7,1.2c-0.7,0.8-1.1,2-1.1,3.7v9.5h-2.6
			v-10.7c0-1.2-0.2-2.2-0.6-2.8c-0.4-0.6-1.1-0.9-2.1-0.9c-0.7,0-1.4,0.2-2.1,0.6c-0.6,0.4-1.1,1-1.4,1.8s-0.4,1.9-0.4,3.4v8.5
			H302.1z"/>
		<path class="st2" d="M326.6,186.1l2.6,0.4c0.1,0.8,0.4,1.4,0.9,1.8c0.7,0.5,1.6,0.8,2.7,0.8c1.2,0,2.2-0.3,2.8-0.8
			c0.7-0.5,1.1-1.2,1.3-2.2c0.1-0.6,0.2-1.8,0.2-3.6c-1.2,1.4-2.6,2.1-4.3,2.1c-2.1,0-3.8-0.8-5-2.4c-1.2-1.6-1.8-3.6-1.8-5.9
			c0-1.6,0.3-3,0.8-4.3c0.5-1.3,1.3-2.4,2.3-3.1c1-0.7,2.2-1.1,3.6-1.1c1.8,0,3.4,0.8,4.5,2.3v-2h2.4v14.2c0,2.6-0.2,4.4-0.7,5.4
			c-0.5,1.1-1.3,1.9-2.3,2.5c-1.1,0.6-2.4,0.9-3.9,0.9c-1.9,0-3.4-0.4-4.5-1.3C327.1,189.2,326.6,187.9,326.6,186.1z M328.8,176.3
			c0,2.2,0.4,3.7,1.2,4.7c0.8,1,1.8,1.5,3.1,1.5c1.2,0,2.2-0.5,3.1-1.5c0.8-1,1.2-2.5,1.2-4.6c0-2-0.4-3.5-1.3-4.5
			c-0.8-1-1.9-1.5-3.1-1.5c-1.2,0-2.2,0.5-3,1.5C329.2,172.8,328.8,174.3,328.8,176.3z"/>
	</g>
</g>
</svg>
