<?xml version="1.0" encoding="utf-8"?>
<!-- Generator: Adobe Illustrator 22.0.0, SVG Export Plug-In . SVG Version: 6.00 Build 0)  -->
<svg version="1.1" id="Capa_1" xmlns="http://www.w3.org/2000/svg" xmlns:xlink="http://www.w3.org/1999/xlink" x="0px" y="0px"
	 viewBox="0 0 318.9 85.4" style="enable-background:new 0 0 318.9 85.4;" xml:space="preserve">
<style type="text/css">
	.st0{fill:#158BA8;}
</style>
<g>
	<g>
		<g>
			
				<image style="overflow:visible;" width="153" height="164" xlink:href="3F892E42995D44E.png"  transform="matrix(1 0 0 1 -39 -48.6)">
			</image>
		</g>
		<path class="st0" d="M21.4,31.7L39.1,5.3C35.1,5.5,30.8,6,26.4,7c-4.5,1-8.3,2.1-11.4,3.2c-3.2,1.1-6,2.2-8.5,3.3
			c-2.5,1-4.3,1.8-5.4,2.2c-0.3,0-0.5-0.1-0.8-0.3c-0.3-0.2-0.4-0.5-0.4-0.7c0-0.3,0.9-2.2,2.7-5.7S6.5,1.7,9-2.2
			c13.5-4.9,25.5-7.3,35.8-7.3c12,0,20.3,2.6,25,7.7c1.7,1.8,3,4,3.9,6.6s1.4,5.2,1.4,7.8c0,5.8-1.2,11.1-3.6,15.8
			s-5.9,8.9-10.4,12.3c-4.5,3.5-9.8,6.1-15.8,8c-6.1,1.8-12.7,2.8-20,2.8c-1.3,0-3.9-0.2-7.8-0.7l-5.2,9.5c0.5,0.8,0.8,1.5,0.8,2
			c0,1.2-0.3,2.2-0.8,3c-0.8,1.2-1.8,2.7-3.1,4.6c-1.3,1.9-2.1,3.2-2.6,3.8c-0.4,0.6-0.9,1.2-1.5,1.6C4.6,75.8,4.1,76,3.5,76
			c-1.1,0-1.8-0.3-2.1-1s-0.5-1.6-0.5-2.8c0-1.7,0.8-4.4,2.5-8.1c1.6-3.8,4.2-8.7,7.6-14.8c-1.8-0.7-3.2-1.6-4.2-2.7
			c-1-1.1-1.5-2.2-1.5-3.3c0-2.4,1.4-4.6,4.1-6.7C12,34.5,16.1,32.9,21.4,31.7z M27.5,33.2l-3.3,5.6c1.5,0.1,2.8,0.2,3.9,0.2
			c1.1,0.1,2.1,0.1,2.9,0.1c6.8,0,12.6-0.9,17.6-2.7s8.9-4.1,11.8-6.8s5-5.4,6.4-8.1c1.3-2.7,2-5,2-6.8c0-2.5-1-4.5-3-5.9
			s-4.9-2.4-8.7-2.9s-8.6-0.8-14.6-0.8c0.1,0.4,0.1,0.9,0.1,1.6c0,2-1.1,4.7-3.2,8L29.3,30.5l7.6-0.9c0.6,0,0.9,0.3,0.9,0.9
			c0,0.5-0.5,0.9-1.5,1L27.5,33.2z"/>
	</g>
	<g>
		<g>
			
				<image style="overflow:visible;" width="113" height="121" xlink:href="3F892E42995D44D.png"  transform="matrix(1 0 0 1 33 -16.6)">
			</image>
		</g>
		<path class="st0" d="M71.8,52.3v-3.8c2.1-2.5,3.7-4.6,4.8-6.3c-1.2-0.4-2.1-0.9-2.7-1.6c-0.6-0.6-0.8-1.5-0.8-2.8
			c0-1.4,0.6-3.2,1.7-5.3c1.2-2.1,2.6-4.1,4.3-6c1.7-1.9,3.3-3.1,4.6-3.6c0.5-0.3,1.1-0.4,1.6-0.4c0.8,0,1.2,0.4,1.2,1.1
			c0,0.7-0.6,2-1.8,4c8-1.2,13-1.9,15.1-1.9c0.8,0,1.4,0.1,1.7,0.2c0.7,0.3,1.2,1.2,1.6,2.4c0.4,1.3,0.6,2.6,0.6,3.8
			c0,0.8-0.4,1.7-1.1,2.6c-0.7,0.9-1.9,2.3-3.7,4.2c-2.1,2.2-3.8,4.6-5.2,7.2c-1.4,2.6-2.1,4.5-2.1,5.9c0,1.8,1.1,2.7,3.4,2.7
			c2.4,0,6.5-2.4,12.3-7.2v3.9c-3.2,3.4-5.9,6-8,8c-2.1,1.9-4,3.5-5.8,4.6c-1.8,1.1-3.4,1.7-4.8,1.7c-1.6,0-3-0.7-4.1-2.2
			C83.5,62,83,59.9,83,57c0-1.7,0.4-3.6,1.3-5.7c0.9-2.1,2.1-4.4,3.7-6.9s3.5-5,5.5-7.5c-1.1,0.2-2.3,0.5-3.7,0.7
			c-1.4,0.3-2.8,0.5-4.3,0.8S82.8,38.9,82,39C79.9,44.1,76.4,48.4,71.8,52.3z"/>
	</g>
	<g>
		<g>
			
				<image style="overflow:visible;" width="113" height="122" xlink:href="3F892E42995D44A.png"  transform="matrix(1 0 0 1 68 -15.6)">
			</image>
		</g>
		<path class="st0" d="M116.4,49.9v1.5c0,2.3,0.6,4.1,1.7,5.3c1.1,1.3,2.6,1.9,4.4,1.9c1.9,0,3.9-0.4,5.9-1.3s4.1-2.1,6.1-3.5
			c2-1.5,4.5-3.4,7.4-5.9v3.5c-4.4,5.3-8.5,9.3-12.3,12.1c-3.8,2.8-7.7,4.2-11.7,4.2c-3.4,0-6.2-1.3-8.2-4c-2-2.7-3-6.3-3-11
			c0-4.1,0.9-7.8,2.8-11.1s5-6.8,9.3-10.5c2.9-2.5,5.9-4.4,8.8-5.7c2.9-1.3,5.5-1.9,7.8-1.9c1.8,0,3.3,0.4,4.3,1.2
			c1.1,0.8,1.6,2.1,1.6,3.7c0,2.4-0.9,4.9-2.7,7.3c-1.8,2.4-4.6,4.8-8.3,7.2C126.5,45.4,121.9,47.7,116.4,49.9z M117,46.2
			c3.5-1.4,6.5-3,8.9-5.1c2.5-2,4.3-3.9,5.5-5.8c1.2-1.8,1.8-3.2,1.8-4c0-0.9-0.4-1.3-1.2-1.3c-0.7,0-1.8,0.4-3.4,1.3
			c-1.6,0.9-3.2,2.1-4.8,3.5c-1.6,1.4-3,3.1-4.3,5.1C118.2,41.8,117.4,43.9,117,46.2z"/>
	</g>
	<g>
		<g>
			
				<image style="overflow:visible;" width="117" height="118" xlink:href="3F892E42995D445.png"  transform="matrix(1 0 0 1 101 -11.6)">
			</image>
		</g>
		<path class="st0" d="M147.9,48l-1,4.9c-0.2,0.6-0.2,1.3-0.2,2.1c0,2.1,0.9,3.1,2.6,3.1c1.7,0,5.7-3.3,12.1-9.8
			c0-2.5,1-5.4,2.8-8.7s3.9-6.2,6.1-8.6c2.2-2.5,3.9-3.7,5-3.7c1.7,0,2.6,1.1,2.6,3.4c0,1.4-0.3,3-1,5s-1.6,4.1-2.9,6.3
			c-1.3,2.3-2.8,4.6-4.7,7c1,1.7,2,2.6,3,2.6c0.9,0,1.8-0.3,2.8-0.9c1-0.6,2.3-1.5,3.9-2.8v3.9c-2.2,1.7-3.9,2.9-5.1,3.5
			c-1.3,0.6-2.9,0.9-4.8,0.9c-0.8,0-2.2-0.5-4.2-1.6c-3.9,4.2-7.2,7.3-9.6,9.4c-2.5,2.1-4.5,3.1-6,3.1c-2.7,0-4.9-1.6-6.8-4.8
			c-1.9-3.2-2.8-6.7-2.8-10.5c0-5.1,2.9-11.3,8.7-18.5c1.7-2.2,3.1-3.6,4.2-4.4c1.1-0.8,2.3-1.2,3.6-1.2c1.2,0,2.3,0.2,3.3,0.6
			c1,0.4,1.6,0.9,1.6,1.5c0,1.9-1.3,4.8-3.9,8.5C154.3,42,151.3,45.2,147.9,48z"/>
	</g>
	<g>
		<g>
			
				<image style="overflow:visible;" width="110" height="135" xlink:href="3F892E42995D444.png"  transform="matrix(1 0 0 1 139 -29.6)">
			</image>
		</g>
		<path class="st0" d="M206.6,47.9v4.2c-3.8,4.8-7.3,8.5-10.5,10.9c-3.3,2.5-6,3.7-8.3,3.7c-3.2,0-5.5-1.7-7.1-5
			c-1.5-3.3-2.3-7-2.3-10.9c0-1.5,0.2-3,0.5-4.3c0.3-1.4,0.7-2.5,1.1-3.4c0.4-0.9,1.2-2.3,2.4-4.2c5.5-8.6,10.5-12.8,15.1-12.8
			c2.4,0,3.5,0.9,3.5,2.7c0,1.2-0.8,3.2-2.3,5.8s-2.9,4.5-4.1,5.6c-3.4,3.3-5.6,5.5-6.6,6.8s-1.5,2.7-1.5,4.4c0,1.4,0.5,2.6,1.6,3.5
			c1,0.9,2.4,1.4,4.1,1.4c1.8,0,3.8-0.7,6-2S203.1,50.8,206.6,47.9z M202.6,21.9c-1,0-1.9-0.4-2.8-1.1c-0.9-0.7-1.3-1.7-1.3-2.8
			c0-1.7,0.8-3.6,2.4-5.7c1.6-2.1,3.3-3.1,5.1-3.1c1.2,0,2.1,0.4,2.9,1.1c0.8,0.7,1.2,1.8,1.2,3.1c0,1.7-0.8,3.5-2.4,5.5
			S204.3,21.9,202.6,21.9z"/>
	</g>
	<g>
		<g>
			
				<image style="overflow:visible;" width="113" height="122" xlink:href="3F892E42995D443.png"  transform="matrix(1 0 0 1 167 -15.6)">
			</image>
		</g>
		<path class="st0" d="M215.2,49.9v1.5c0,2.3,0.6,4.1,1.7,5.3c1.1,1.3,2.6,1.9,4.4,1.9c1.9,0,3.9-0.4,5.9-1.3s4.1-2.1,6.1-3.5
			c2-1.5,4.5-3.4,7.4-5.9v3.5c-4.4,5.3-8.5,9.3-12.3,12.1c-3.8,2.8-7.7,4.2-11.7,4.2c-3.4,0-6.2-1.3-8.2-4c-2-2.7-3-6.3-3-11
			c0-4.1,0.9-7.8,2.8-11.1c1.9-3.3,5-6.8,9.3-10.5c2.9-2.5,5.9-4.4,8.8-5.7c2.9-1.3,5.5-1.9,7.8-1.9c1.8,0,3.3,0.4,4.3,1.2
			c1.1,0.8,1.6,2.1,1.6,3.7c0,2.4-0.9,4.9-2.7,7.3c-1.8,2.4-4.6,4.8-8.3,7.2C225.3,45.4,220.8,47.7,215.2,49.9z M215.8,46.2
			c3.5-1.4,6.5-3,8.9-5.1c2.5-2,4.3-3.9,5.5-5.8c1.2-1.8,1.8-3.2,1.8-4c0-0.9-0.4-1.3-1.2-1.3c-0.7,0-1.8,0.4-3.4,1.3
			c-1.6,0.9-3.2,2.1-4.8,3.5s-3,3.1-4.3,5.1C217.1,41.8,216.2,43.9,215.8,46.2z"/>
	</g>
	<g>
		<g>
			
				<image style="overflow:visible;" width="122" height="119" xlink:href="3F892E42995D458.png"  transform="matrix(1 0 0 1 201 -13.6)">
			</image>
		</g>
		<path class="st0" d="M279.8,37.3c-6.8,7.6-10.2,12.9-10.2,15.8c0,1.7,0.7,2.5,2,2.5c1.1,0,2.6-0.6,4.4-1.8s4.6-3.3,8.4-6.3v4
			c-5.5,5.4-9.7,9.3-12.7,11.7c-2.9,2.4-5.3,3.6-7.2,3.6c-3.2,0-4.8-2.1-4.8-6.3c0-1.2,0.2-2.5,0.6-3.7c0.4-1.2,0.9-2.4,1.6-3.7
			s1.7-3.2,3.1-5.6c1.4-2.4,3-5.2,4.8-8.2c-2.2,1.1-5,3.3-8.3,6.7c-2.2,2.1-4,4.1-5.5,6c-1.5,1.9-3.1,4-4.8,6.3
			c-1.7,2.3-3,3.9-3.8,4.6c-0.8,0.8-1.6,1.2-2.4,1.2c-1.2,0-2.4-1.3-3.4-3.9s-1.6-5.6-1.6-9.1c0-2.1,0.2-3.8,0.7-5s1.4-2.9,2.9-5.1
			c2.7-4.1,5-7.1,6.9-9s3.8-2.9,5.6-2.9c1.2,0,2.2,0.2,3,0.6c0.8,0.4,1.1,1.1,1.1,2c0,0.4-0.1,0.8-0.3,1.2s-0.5,0.8-0.8,1.2
			c-0.3,0.3-0.9,1-1.8,2c-6.1,6.8-9.2,11.2-9.2,13.2c0,1.1,0.4,1.7,1.1,1.7c0.5,0,1.4-0.7,2.7-2.2s3.1-3.4,5.2-5.9
			c2.1-2.4,4.6-4.9,7.5-7.6c2.9-2.6,6.2-5.2,9.8-7.6c2.1-1.4,3.8-2.1,5.1-2.1c0.6,0,1.2,0.9,1.8,2.6c0.6,1.7,0.9,3.4,0.9,5.2
			C282.3,34.3,281.5,35.6,279.8,37.3z"/>
	</g>
	<g>
		<g>
			
				<image style="overflow:visible;" width="113" height="122" xlink:href="3F892E42995D45B.png"  transform="matrix(1 0 0 1 245 -15.6)">
			</image>
		</g>
		<path class="st0" d="M293.5,49.9v1.5c0,2.3,0.6,4.1,1.7,5.3c1.1,1.3,2.6,1.9,4.4,1.9c1.9,0,3.9-0.4,5.9-1.3s4.1-2.1,6.1-3.5
			c2-1.5,4.5-3.4,7.4-5.9v3.5c-4.4,5.3-8.5,9.3-12.3,12.1c-3.8,2.8-7.7,4.2-11.7,4.2c-3.4,0-6.2-1.3-8.2-4c-2-2.7-3-6.3-3-11
			c0-4.1,0.9-7.8,2.8-11.1c1.9-3.3,5-6.8,9.3-10.5c2.9-2.5,5.9-4.4,8.8-5.7c2.9-1.3,5.5-1.9,7.8-1.9c1.8,0,3.3,0.4,4.3,1.2
			c1.1,0.8,1.6,2.1,1.6,3.7c0,2.4-0.9,4.9-2.7,7.3c-1.8,2.4-4.6,4.8-8.3,7.2C303.5,45.4,298.8,47.7,293.5,49.9z M294,46.2
			c3.5-1.4,6.5-3,8.9-5.1c2.5-2,4.3-3.9,5.5-5.8c1.2-1.8,1.8-3.2,1.8-4c0-0.9-0.4-1.3-1.2-1.3c-0.7,0-1.8,0.4-3.4,1.3
			c-1.6,0.9-3.2,2.1-4.8,3.5c-1.6,1.4-3,3.1-4.3,5.1C295.2,41.8,294.3,43.9,294,46.2z"/>
	</g>
</g>
</svg>
