<svg enable-background="new 0 0 851.3 34.4" viewBox="0 0 851.3 34.4" xmlns="http://www.w3.org/2000/svg"><path d="m0 22.6 4.5 5.1 15.8-18.6-14.3 20 5.3 5.3 14-31.7z" fill="#ffcc03"/><path d="m23.5 5.3-6 24.2-4.9.6z" fill="#ffcc03" opacity=".6"/><g fill="#fff"><path d="m37.2 0h4.2v19.7h6.3v3.5h-10.5z"/><path d="m49.3 11.6c0-2.5 0-3.4.9-4.3.8-.8 2.3-1.3 4.3-1.3.8 0 2 .1 3 .6 1.7.9 2 2.3 2 3.1v9.4c0 2.4 0 3.5.8 4.1h-4.1c-.3-.3-.4-.8-.5-1.5-.8 1-1.6 1.8-3.4 1.8-3.3 0-3.3-3-3.3-4.6 0-3 0-3.9 2.6-5.2l4.1-2c0-1.5 0-1.7 0-1.9 0-.4-.2-1.1-1.3-1.1-1.3 0-1.3.8-1.3 2.9zm6.3 3.2-1.9 1.2c-.8.5-.9 1.1-.9 2.8 0 1.3.2 1.8.9 1.8.4 0 .9-.1 1.9-1z"/><path d="m61.8 17.3h3.6c0 2.4 0 3.5 1.5 3.5.9 0 1.5-.4 1.5-1.8 0-1-.1-1.4-1.2-2.2l-3.3-2.3c-.2-.2-.8-.7-1.1-1.1-.4-.5-.9-1.2-.9-3 0-3.5 2.3-4.3 5.1-4.3 3.4 0 4.8 1.5 4.8 3.9v1.8h-3.4c0-1.9 0-3-1.4-3-.6 0-1.4.1-1.4 1.5 0 .5 0 1.1 1.1 1.8l3.6 2.5c.2.2 1 .9 1.1 1.1.5.7.6 1.5.6 2.6 0 2.1 0 5.2-5.2 5.2-4.2 0-5.1-2.1-5.1-4.5v-1.7z"/><path d="m82.9 0h3.8v7.8c.7-.7 1.7-1.8 3.5-1.8 1.2 0 3.5.6 3.5 4v13.2h-3.9v-12c0-.9 0-2.1-1.4-2.1-1.1 0-1.5.7-1.5 1.8v12.2h-3.9v-23.1z"/><path d="m96.4 10.9c0-2 .7-4.9 5.3-4.9 1.2 0 2.6.3 3.5.9 1.4 1 1.6 2.4 1.6 3.8v8.1c0 3-1.9 4.7-5.4 4.7-5.1 0-5.1-3.8-5.1-5.1v-7.5zm3.9 8.2c0 .4 0 1.7 1.3 1.7 1.4 0 1.4-1.2 1.4-1.8v-8.5c0-1-.1-2-1.3-2-1.4 0-1.4 1.3-1.4 2.1z"/><path d="m109.1 17.3h3.6c0 2.4 0 3.5 1.5 3.5.9 0 1.5-.4 1.5-1.8 0-1-.1-1.4-1.2-2.2l-3.3-2.3c-.2-.2-.8-.7-1.1-1.1-.4-.5-.9-1.2-.9-3 0-3.5 2.3-4.3 5.1-4.3 3.4 0 4.8 1.5 4.8 3.9v1.8h-3.4c0-1.9 0-3-1.4-3-.6 0-1.4.1-1.4 1.5 0 .5 0 1.1 1.1 1.8l3.6 2.5c.2.2 1 .9 1.1 1.1.5.7.6 1.5.6 2.6 0 2.1 0 5.2-5.2 5.2-4.2 0-5.1-2.1-5.1-4.5v-1.7z"/><path d="m122 6.4h3.9v1.3c.7-.6 1.9-1.6 3.5-1.6 1 0 1.9.4 2.6 1.1.7.8 1 1.9 1 3.3v8.9c0 1.3-.3 2.1-.6 2.5-.6 1.1-1.7 1.6-2.9 1.6-1.6 0-2.6-.9-3.6-1.7v7.2h-3.9zm3.9 12.1c0 1.1.4 1.9 1.6 1.9 1.4 0 1.6-1.1 1.6-1.7v-7.8c0-1.2-.5-1.8-1.5-1.8-1.6 0-1.6 1.4-1.6 1.9v7.5z"/><path d="m135.7 0h3.9v4h-3.9zm0 6.4h3.9v16.8h-3.9z"/><path d="m143.4.3h3.9v6.1h2.3v2.6h-2.4v9.6c0 1.1.2 1.8 1.8 1.8h.7v2.8c-.3.1-.8.2-2.1.2-3.7 0-4.2-1.4-4.2-3.5v-10.9h-2.1v-2.6h2.1z"/><path d="m151.7 11.6c0-2.5 0-3.4.9-4.3.8-.8 2.3-1.3 4.3-1.3.8 0 2 .1 3 .6 1.7.9 2 2.3 2 3.1v9.4c0 2.4 0 3.5.8 4.1h-4.1c-.3-.3-.4-.8-.5-1.5-.8 1-1.6 1.8-3.4 1.8-3.3 0-3.3-3-3.3-4.6 0-3 0-3.9 2.6-5.2l4.1-2c0-1.5 0-1.7 0-1.9 0-.4-.2-1.1-1.3-1.1-1.3 0-1.3.8-1.3 2.9zm6.2 3.2-1.9 1.2c-.8.5-.9 1.1-.9 2.8 0 1.3.2 1.8.9 1.8.4 0 .9-.1 1.9-1z"/><path d="m164.7 0h3.9v23.2h-3.9z"/><path d="m171.6 0h3.9v4h-3.9zm0 6.4h3.9v16.8h-3.9z"/><path d="m178.4 6.4h9.3v3.2l-5.9 10.4h6.1v3.3h-10.2v-3.3l5.9-10.4h-5.3v-3.2z"/><path d="m190 11.6c0-2.5 0-3.4.9-4.3.8-.8 2.3-1.3 4.3-1.3.8 0 2 .1 3 .6 1.7.9 2 2.3 2 3.1v9.4c0 2.4 0 3.5.8 4.1h-4.1c-.3-.3-.4-.8-.5-1.5-.8 1-1.6 1.8-3.4 1.8-3.3 0-3.3-3-3.3-4.6 0-3 0-3.9 2.6-5.2l4.1-2c0-1.5 0-1.7 0-1.9 0-.4-.2-1.1-1.3-1.1-1.3 0-1.3.8-1.3 2.9zm6.3 3.2-1.9 1.2c-.8.5-.9 1.1-.9 2.8 0 1.3.2 1.8.9 1.8.4 0 .9-.1 1.9-1z"/><path d="m209.8 12.8v-2c0-.6 0-1.9-1.4-1.9-1.6 0-1.6 1.5-1.6 2.3v7.3c0 .8 0 2.2 1.5 2.2s1.5-1.5 1.5-2.2v-1.9h3.9v1.9c0 3.4-1.8 5.1-5.4 5.1-.9 0-2.7-.1-4-1.2-1.3-1-1.5-2.4-1.5-3.7v-7.5c0-1.2.2-2.4 1-3.3 1.1-1.3 2.8-1.9 4.5-1.9 1.4 0 3 .4 4 1.2 1 .9 1.4 1.9 1.4 3.5v2h-3.9z"/><path d="m216.1 0h3.9v4h-3.9zm0 6.4h3.9v16.8h-3.9z"/><path d="m222.7 10.9c0-2 .7-4.9 5.3-4.9 1.2 0 2.6.3 3.5.9 1.4 1 1.6 2.4 1.6 3.8v8.1c0 3-1.9 4.7-5.4 4.7-5.1 0-5.1-3.8-5.1-5.1v-7.5zm3.9 8.2c0 .4 0 1.7 1.3 1.7 1.4 0 1.4-1.2 1.4-1.8v-8.5c0-1-.1-2-1.3-2-1.4 0-1.4 1.3-1.4 2.1z"/><path d="m235.9 6.4h4l-.1 1.2c.8-.8 1.6-1.6 3.4-1.6 1.2 0 2.1.5 2.7 1.1.8.9.8 1.9.8 2.9v13.1h-3.8v-12.2c0-.9-.1-2-1.4-2-1.6 0-1.6 1.5-1.6 2.3v12.1h-3.9v-16.9z"/><path d="m253.3 18.4c0 .7 0 2.1 1.4 2.1.5 0 .8-.2 1.1-.5.3-.4.3-.6.3-2.3h3.8v1.3c0 3.6-2.7 4.5-5.1 4.5-3.8 0-5.4-2-5.4-5.4v-7.1c0-2.1.7-3.3 1.8-4 1-.7 2.4-1 3.5-1 1.5 0 3.1.5 4.1 1.5s1.2 2.4 1.2 3.4v4.8h-6.7zm.1-5.5h2.8v-2.1c0-.5 0-1.7-1.3-1.7-1 0-1.4.6-1.4 1.7v2.1z"/><path d="m262.1 17.3h3.6c0 2.4 0 3.5 1.5 3.5.9 0 1.5-.4 1.5-1.8 0-1-.1-1.4-1.2-2.2l-3.3-2.3c-.2-.2-.8-.7-1.1-1.1-.4-.5-.9-1.2-.9-3 0-3.5 2.3-4.3 5.1-4.3 3.4 0 4.8 1.5 4.8 3.9v1.8h-3.4c0-1.9 0-3-1.4-3-.6 0-1.4.1-1.4 1.5 0 .5 0 1.1 1.1 1.8l3.6 2.5c.2.2 1 .9 1.1 1.1.5.7.6 1.5.6 2.6 0 2.1 0 5.2-5.2 5.2-4.2 0-5.1-2.1-5.1-4.5v-1.7z"/><path d="m283.2 6.4h3.9v2.1c.7-1.2 1.5-2.5 3.8-2.4v3.9c-.3-.1-.7-.3-1.3-.3-2.5 0-2.5 2.3-2.5 3.6v9.9h-3.9z"/><path d="m295.8 18.4c0 .7 0 2.1 1.4 2.1.5 0 .8-.2 1.1-.5.3-.4.3-.6.3-2.3h3.8v1.3c0 3.6-2.7 4.5-5.1 4.5-3.8 0-5.4-2-5.4-5.4v-7.1c0-2.1.7-3.3 1.8-4 1-.7 2.4-1 3.5-1 1.5 0 3.1.5 4.1 1.5s1.2 2.4 1.2 3.4v4.8h-6.7zm.1-5.5h2.8v-2.1c0-.5 0-1.7-1.3-1.7-1 0-1.4.6-1.4 1.7v2.1z"/><path d="m305.2 0h3.9v23.2h-3.9z"/><path d="m311.9 11.6c0-2.5 0-3.4.9-4.3.8-.8 2.3-1.3 4.3-1.3.8 0 2 .1 3 .6 1.7.9 2 2.3 2 3.1v9.4c0 2.4 0 3.5.8 4.1h-4.1c-.3-.3-.4-.8-.5-1.5-.8 1-1.6 1.8-3.4 1.8-3.3 0-3.3-3-3.3-4.6 0-3 0-3.9 2.6-5.2l4.1-2c0-1.5 0-1.7 0-1.9 0-.4-.2-1.1-1.3-1.1-1.3 0-1.3.8-1.3 2.9zm6.3 3.2-1.9 1.2c-.8.5-.9 1.1-.9 2.8 0 1.3.2 1.8.9 1.8.4 0 .9-.1 1.9-1z"/><path d="m331.8 12.8v-2c0-.6 0-1.9-1.4-1.9-1.6 0-1.6 1.5-1.6 2.3v7.3c0 .8 0 2.2 1.5 2.2s1.5-1.5 1.5-2.2v-1.9h3.9v1.9c0 3.4-1.8 5.1-5.4 5.1-.9 0-2.7-.1-4-1.2-1.3-1-1.5-2.4-1.5-3.7v-7.5c0-1.2.2-2.4 1-3.3 1.1-1.3 2.8-1.9 4.5-1.9 1.4 0 3 .4 4 1.2 1 .9 1.4 1.9 1.4 3.5v2h-3.9z"/><path d="m338 0h3.9v4h-3.9zm0 6.4h3.9v16.8h-3.9z"/><path d="m344.7 10.9c0-2 .7-4.9 5.3-4.9 1.2 0 2.6.3 3.5.9 1.4 1 1.6 2.4 1.6 3.8v8.1c0 3-1.9 4.7-5.4 4.7-5.1 0-5.1-3.8-5.1-5.1v-7.5zm3.9 8.2c0 .4 0 1.7 1.3 1.7 1.4 0 1.4-1.2 1.4-1.8v-8.5c0-1-.1-2-1.3-2-1.4 0-1.4 1.3-1.4 2.1z"/><path d="m357.9 6.4h4l-.1 1.2c.8-.8 1.6-1.6 3.4-1.6 1.2 0 2.1.5 2.7 1.1.8.9.8 1.9.8 2.9v13.1h-3.8v-12.2c0-.9-.1-2-1.4-2-1.6 0-1.6 1.5-1.6 2.3v12.1h-3.9v-16.9z"/><path d="m371.5 11.6c0-2.5 0-3.4.9-4.3.8-.8 2.3-1.3 4.3-1.3.8 0 2 .1 3 .6 1.7.9 2 2.3 2 3.1v9.4c0 2.4 0 3.5.8 4.1h-4.1c-.3-.3-.4-.8-.5-1.5-.8 1-1.6 1.8-3.4 1.8-3.3 0-3.3-3-3.3-4.6 0-3 0-3.9 2.6-5.2l4.1-2c0-1.5 0-1.7 0-1.9 0-.4-.2-1.1-1.3-1.1-1.3 0-1.3.8-1.3 2.9zm6.3 3.2-1.9 1.2c-.8.5-.9 1.1-.9 2.8 0 1.3.2 1.8.9 1.8.4 0 .9-.1 1.9-1z"/><path d="m391.5 0h3.9v23.2h-3.9v-1.6c-.6.9-1.4 2-3.3 2-1.6 0-2.8-.9-3.3-1.8-.4-.8-.5-1.9-.5-3.6v-7.7c0-1.2.1-1.8.5-2.5.7-1.5 2.3-2 3.2-2 1.5 0 2.6 1 3.4 1.7zm-3.2 18.4c0 .8 0 1.9 1.5 1.9 1.6 0 1.6-1.5 1.6-2v-7.3c0-.5 0-1.9-1.6-1.9-1.5 0-1.5 1.3-1.5 2.1z"/><path d="m398.3 11.6c0-2.5 0-3.4.9-4.3.8-.8 2.3-1.3 4.3-1.3.8 0 2 .1 3 .6 1.7.9 2 2.3 2 3.1v9.4c0 2.4 0 3.5.8 4.1h-4.1c-.3-.3-.4-.8-.5-1.5-.8 1-1.6 1.8-3.4 1.8-3.3 0-3.3-3-3.3-4.6 0-3 0-3.9 2.6-5.2l4.1-2c0-1.5 0-1.7 0-1.9 0-.4-.2-1.1-1.3-1.1-1.3 0-1.3.8-1.3 2.9zm6.2 3.2-1.9 1.2c-.8.5-.9 1.1-.9 2.8 0 1.3.2 1.8.9 1.8.4 0 .9-.1 1.9-1z"/><path d="m410.8 17.3h3.6c0 2.4 0 3.5 1.5 3.5.9 0 1.5-.4 1.5-1.8 0-1-.1-1.4-1.2-2.2l-3.3-2.3c-.2-.2-.8-.7-1.1-1.1-.4-.5-.9-1.2-.9-3 0-3.5 2.3-4.3 5.1-4.3 3.4 0 4.8 1.5 4.8 3.9v1.8h-3.4c0-1.9 0-3-1.4-3-.6 0-1.4.1-1.4 1.5 0 .5 0 1.1 1.1 1.8l3.6 2.5c.2.2 1 .9 1.1 1.1.5.7.6 1.5.6 2.6 0 2.1 0 5.2-5.2 5.2-4.2 0-5.1-2.1-5.1-4.5v-1.7z"/><path d="m438.6 12.8v-2c0-.6 0-1.9-1.4-1.9-1.6 0-1.6 1.5-1.6 2.3v7.3c0 .8 0 2.2 1.5 2.2s1.5-1.5 1.5-2.2v-1.9h3.9v1.9c0 3.4-1.8 5.1-5.4 5.1-.9 0-2.7-.1-4-1.2-1.3-1-1.5-2.4-1.5-3.7v-7.5c0-1.2.2-2.4 1-3.3 1.1-1.3 2.8-1.9 4.5-1.9 1.4 0 3 .4 4 1.2 1 .9 1.4 1.9 1.4 3.5v2h-3.9z"/><path d="m444.7 10.9c0-2 .7-4.9 5.3-4.9 1.2 0 2.6.3 3.5.9 1.4 1 1.6 2.4 1.6 3.8v8.1c0 3-1.9 4.7-5.4 4.7-5.1 0-5.1-3.8-5.1-5.1v-7.5zm3.9 8.2c0 .4 0 1.7 1.3 1.7 1.4 0 1.4-1.2 1.4-1.8v-8.5c0-1-.1-2-1.3-2-1.4 0-1.4 1.3-1.4 2.1z"/><path d="m457.9 6.4h4l-.1 1.2c.8-.8 1.6-1.6 3.4-1.6 1.2 0 2.1.5 2.7 1.1.8.9.8 1.9.8 2.9v13.1h-3.8v-12.2c0-.9-.1-2-1.4-2-1.6 0-1.6 1.5-1.6 2.3v12.1h-3.9v-16.9z"/><path d="m479.8 11.6c0-2.5 0-3.4.9-4.3.8-.8 2.3-1.3 4.3-1.3.8 0 2 .1 3 .6 1.7.9 2 2.3 2 3.1v9.4c0 2.4 0 3.5.8 4.1h-4.1c-.3-.3-.4-.8-.5-1.5-.8 1-1.6 1.8-3.4 1.8-3.3 0-3.3-3-3.3-4.6 0-3 0-3.9 2.6-5.2l4.1-2c0-1.5 0-1.7 0-1.9 0-.4-.2-1.1-1.3-1.1-1.3 0-1.3.8-1.3 2.9zm6.3 3.2-1.9 1.2c-.8.5-.9 1.1-.9 2.8 0 1.3.2 1.8.9 1.8.4 0 .9-.1 1.9-1z"/><path d="m492.3 17.3h3.6c0 2.4 0 3.5 1.5 3.5.9 0 1.5-.4 1.5-1.8 0-1-.1-1.4-1.2-2.2l-3.3-2.3c-.2-.2-.8-.7-1.1-1.1-.4-.5-.9-1.2-.9-3 0-3.5 2.3-4.3 5.1-4.3 3.4 0 4.8 1.5 4.8 3.9v1.8h-3.3c0-1.9 0-3-1.4-3-.6 0-1.4.1-1.4 1.5 0 .5 0 1.1 1.1 1.8l3.6 2.5c.2.2 1 .9 1.1 1.1.5.7.6 1.5.6 2.6 0 2.1 0 5.2-5.2 5.2-4.2 0-5.1-2.1-5.1-4.5z"/><path d="m505.2 6.4h3.9v1.1c.8-.7 1.7-1.4 3.3-1.4 1.7 0 2.6 1 3.2 1.7 1-.9 1.9-1.7 3.8-1.7 1.1 0 1.9.5 2.4 1 .8.8 1 1.7 1 2.9v13.3h-3.9v-12.5c0-.8 0-2-1.4-2-1.1 0-1.5.8-1.5 2.1v12.3h-3.9v-12.3c0-.9 0-2.1-1.4-2.1-1.1 0-1.5.8-1.5 2v12.5h-3.9v-16.9z"/><path d="m525.7 11.6c0-2.5 0-3.4.9-4.3.8-.8 2.3-1.3 4.3-1.3.8 0 2 .1 3 .6 1.7.9 2 2.3 2 3.1v9.4c0 2.4 0 3.5.8 4.1h-4.1c-.3-.3-.4-.8-.5-1.5-.8 1-1.6 1.8-3.4 1.8-3.3 0-3.3-3-3.3-4.6 0-3 0-3.9 2.6-5.2l4.1-2c0-1.5 0-1.7 0-1.9 0-.4-.2-1.1-1.3-1.1-1.3 0-1.3.8-1.3 2.9zm6.2 3.2-1.9 1.2c-.8.5-.9 1.1-.9 2.8 0 1.3.2 1.8.9 1.8.4 0 .9-.1 1.9-1z"/><path d="m546.4 17.3h3.6c0 2.4 0 3.5 1.5 3.5.9 0 1.5-.4 1.5-1.8 0-1-.1-1.4-1.2-2.2l-3.3-2.3c-.2-.2-.8-.7-1.1-1.1-.4-.5-.9-1.2-.9-3 0-3.5 2.3-4.3 5.1-4.3 3.4 0 4.8 1.5 4.8 3.9v1.8h-3.4c0-1.9 0-3-1.4-3-.6 0-1.4.1-1.4 1.5 0 .5 0 1.1 1.1 1.8l3.6 2.5c.2.2 1 .9 1.1 1.1.5.7.6 1.5.6 2.6 0 2.1 0 5.2-5.2 5.2-4.2 0-5.1-2.1-5.1-4.5v-1.7z"/><path d="m559.1 10.9c0-2 .7-4.9 5.3-4.9 1.2 0 2.6.3 3.5.9 1.4 1 1.6 2.4 1.6 3.8v8.1c0 3-1.9 4.7-5.4 4.7-5.1 0-5.1-3.8-5.1-5.1v-7.5zm3.9 8.2c0 .4 0 1.7 1.3 1.7 1.4 0 1.4-1.2 1.4-1.8v-8.5c0-1-.1-2-1.3-2-1.4 0-1.4 1.3-1.4 2.1z"/><path d="m572.3 6.4h4l-.1 1.2c.8-.8 1.6-1.6 3.4-1.6 1.2 0 2.1.5 2.7 1.1.8.9.8 1.9.8 2.9v13.1h-3.8v-12.2c0-.9-.1-2-1.4-2-1.6 0-1.6 1.5-1.6 2.3v12.1h-3.9v-16.9z"/><path d="m594.2 6.4h3.9v1.1c.8-.7 1.7-1.4 3.3-1.4 1.7 0 2.6 1 3.2 1.7 1-.9 1.9-1.7 3.8-1.7 1.1 0 1.9.5 2.4 1 .8.8 1 1.7 1 2.9v13.3h-3.8v-12.5c0-.8 0-2-1.4-2-1.1 0-1.5.8-1.5 2.1v12.3h-3.9v-12.3c0-.9 0-2.1-1.4-2.1-1.1 0-1.5.8-1.5 2v12.5h-3.9v-16.9z"/><path d="m614.7 11.6c0-2.5 0-3.4.9-4.3.8-.8 2.3-1.3 4.3-1.3.8 0 2 .1 3 .6 1.7.9 2 2.3 2 3.1v9.4c0 2.4 0 3.5.8 4.1h-4.1c-.3-.3-.4-.8-.5-1.5-.8 1-1.6 1.8-3.4 1.8-3.3 0-3.3-3-3.3-4.6 0-3 0-3.9 2.6-5.2l4.1-2c0-1.5 0-1.7 0-1.9 0-.4-.2-1.1-1.3-1.1-1.3 0-1.3.8-1.3 2.9zm6.3 3.2-1.9 1.2c-.8.5-.9 1.1-.9 2.8 0 1.3.2 1.8.9 1.8.4 0 .9-.1 1.9-1z"/><path d="m626.4 6.4h3.9l2.2 10.8 1.7-10.8h3.8l-3.8 18c-.7 3.4-1.6 4.6-4.6 4.6-.8 0-1.1 0-2.6-.3l.6-3.1c.7.2 1.5.2 1.5.2 1.7 0 1.8-2.6 1.8-2.7z"/><path d="m639.2 10.9c0-2 .7-4.9 5.3-4.9 1.2 0 2.6.3 3.5.9 1.4 1 1.6 2.4 1.6 3.8v8.1c0 3-1.9 4.7-5.4 4.7-5.1 0-5.1-3.8-5.1-5.1v-7.5zm3.9 8.2c0 .4 0 1.7 1.3 1.7 1.4 0 1.4-1.2 1.4-1.8v-8.5c0-1-.1-2-1.3-2-1.4 0-1.4 1.3-1.4 2.1z"/><path d="m652.4 6.4h3.9v2.1c.7-1.2 1.5-2.5 3.8-2.4v3.9c-.3-.1-.7-.3-1.3-.3-2.5 0-2.5 2.3-2.5 3.6v9.9h-3.9z"/><path d="m665.1 18.4c0 .7 0 2.1 1.4 2.1.5 0 .8-.2 1.1-.5.3-.4.3-.6.3-2.3h3.8v1.3c0 3.6-2.7 4.5-5.1 4.5-3.8 0-5.4-2-5.4-5.4v-7.1c0-2.1.7-3.3 1.8-4 1-.7 2.4-1 3.5-1 1.5 0 3.1.5 4.1 1.5s1.2 2.4 1.2 3.4v4.8h-6.7zm0-5.5h2.8v-2.1c0-.5 0-1.7-1.3-1.7-1 0-1.4.6-1.4 1.7v2.1z"/><path d="m673.9 17.3h3.6c0 2.4 0 3.5 1.5 3.5.9 0 1.5-.4 1.5-1.8 0-1-.1-1.4-1.2-2.2l-3.3-2.3c-.2-.2-.8-.7-1.1-1.1-.4-.5-.9-1.2-.9-3 0-3.5 2.3-4.3 5.1-4.3 3.4 0 4.8 1.5 4.8 3.9v1.8h-3.4c0-1.9 0-3-1.4-3-.6 0-1.4.1-1.4 1.5 0 .5 0 1.1 1.1 1.8l3.6 2.5c.2.2 1 .9 1.1 1.1.5.7.6 1.5.6 2.6 0 2.1 0 5.2-5.2 5.2-4.2 0-5.1-2.1-5.1-4.5v-1.7z"/><path d="m698.6 18.4c0 .7 0 2.1 1.4 2.1.5 0 .8-.2 1.1-.5.3-.4.3-.6.3-2.3h3.8v1.3c0 3.6-2.7 4.5-5.1 4.5-3.8 0-5.4-2-5.4-5.4v-7.1c0-2.1.7-3.3 1.8-4 1-.7 2.4-1 3.5-1 1.5 0 3.1.5 4.1 1.5s1.2 2.4 1.2 3.4v4.8h-6.7zm.1-5.5h2.8v-2.1c0-.5 0-1.7-1.3-1.7-1 0-1.4.6-1.4 1.7v2.1z"/><path d="m708 6.4h4l-.1 1.2c.8-.8 1.6-1.6 3.4-1.6 1.2 0 2.1.5 2.7 1.1.8.9.8 1.9.8 2.9v13.1h-3.8v-12.2c0-.9-.1-2-1.4-2-1.6 0-1.6 1.5-1.6 2.3v12.1h-4z"/><path d="m729.3 17.3h3.6c0 2.4 0 3.5 1.5 3.5.9 0 1.5-.4 1.5-1.8 0-1-.1-1.4-1.2-2.2l-3.3-2.3c-.2-.2-.8-.7-1.1-1.1-.4-.5-.9-1.2-.9-3 0-3.5 2.3-4.3 5.1-4.3 3.4 0 4.8 1.5 4.8 3.9v1.8h-3.4c0-1.9 0-3-1.4-3-.6 0-1.4.1-1.4 1.5 0 .5 0 1.1 1.1 1.8l3.6 2.5c.2.2 1 .9 1.1 1.1.5.7.6 1.5.6 2.6 0 2.1 0 5.2-5.2 5.2-4.2 0-5.1-2.1-5.1-4.5v-1.7z"/><path d="m745.9 18.4c0 .7 0 2.1 1.4 2.1.5 0 .8-.2 1.1-.5.3-.4.3-.6.3-2.3h3.8v1.3c0 3.6-2.7 4.5-5.1 4.5-3.8 0-5.4-2-5.4-5.4v-7.1c0-2.1.7-3.3 1.8-4 1-.7 2.4-1 3.5-1 1.5 0 3.1.5 4.1 1.5s1.2 2.4 1.2 3.4v4.8h-6.7zm0-5.5h2.8v-2.1c0-.5 0-1.7-1.3-1.7-1 0-1.4.6-1.4 1.7v2.1z"/><path d="m755.2 6.4h3.9v1.3c.7-.6 1.9-1.6 3.5-1.6 1 0 1.9.4 2.6 1.1.7.8 1 1.9 1 3.3v8.9c0 1.3-.3 2.1-.6 2.5-.6 1.1-1.7 1.6-2.9 1.6-1.6 0-2.6-.9-3.6-1.7v7.2h-3.9zm4 12.1c0 1.1.4 1.9 1.6 1.9 1.4 0 1.6-1.1 1.6-1.7v-7.8c0-1.2-.5-1.8-1.5-1.8-1.6 0-1.6 1.4-1.6 1.9v7.5z"/><path d="m769.8.3h3.9v6.1h2.3v2.6h-2.4v9.6c0 1.1.2 1.8 1.8 1.8h.7v2.8c-.3.1-.8.2-2.1.2-3.7 0-4.2-1.4-4.2-3.5v-10.9h-2.1v-2.6h2.1z"/><path d="m777.9 0h3.9v4h-3.9zm0 6.4h3.9v16.8h-3.9z"/><path d="m788.4 18.4c0 .7 0 2.1 1.4 2.1.5 0 .8-.2 1.1-.5.3-.4.3-.6.3-2.3h3.8v1.3c0 3.6-2.7 4.5-5.1 4.5-3.8 0-5.4-2-5.4-5.4v-7.1c0-2.1.7-3.3 1.8-4 1-.7 2.4-1 3.5-1 1.5 0 3.1.5 4.1 1.5s1.2 2.4 1.2 3.4v4.8h-6.7zm0-5.5h2.8v-2.1c0-.5 0-1.7-1.3-1.7-1 0-1.4.6-1.4 1.7v2.1z"/><path d="m797.7 6.4h3.9v1.1c.8-.7 1.7-1.4 3.3-1.4 1.7 0 2.6 1 3.2 1.7 1-.9 1.9-1.7 3.8-1.7 1.1 0 1.9.5 2.4 1 .8.8 1 1.7 1 2.9v13.3h-3.9v-12.5c0-.8 0-2-1.4-2-1.1 0-1.5.8-1.5 2.1v12.3h-3.9v-12.3c0-.9 0-2.1-1.4-2.1-1.1 0-1.5.8-1.5 2v12.5h-3.9v-16.9z"/><path d="m818.3 0h3.9v7.7c1.8-1.6 3.1-1.7 3.5-1.7 1.3 0 3.5 1 3.5 3.9v9.5c0 3.6-2.5 4.1-3.6 4.1-2.1 0-3-1.2-3.5-1.9v1.5h-3.9v-23.1zm7 11c0-.6 0-1.9-1.4-1.9-1.7 0-1.7 1.3-1.7 2.2v6.7c0 1.1.1 2.2 1.6 2.2s1.5-1.5 1.5-2.2z"/><path d="m832 6.4h3.9v2.1c.7-1.2 1.5-2.5 3.8-2.4v3.9c-.3-.1-.7-.3-1.3-.3-2.5 0-2.5 2.3-2.5 3.6v9.9h-3.9z"/><path d="m844.6 18.4c0 .7 0 2.1 1.4 2.1.5 0 .8-.2 1.1-.5.3-.4.3-.6.3-2.3h3.8v1.3c0 3.6-2.7 4.5-5.1 4.5-3.8 0-5.4-2-5.4-5.4v-7.1c0-2.1.7-3.3 1.8-4 1-.7 2.4-1 3.5-1 1.5 0 3.1.5 4.1 1.5s1.2 2.4 1.2 3.4v4.8h-6.7zm0-5.5h2.8v-2.1c0-.5 0-1.7-1.3-1.7-1 0-1.4.6-1.4 1.7v2.1z"/></g></svg>