<?xml version="1.0" encoding="utf-8"?>
<!-- Generator: Adobe Illustrator 22.0.0, SVG Export Plug-In . SVG Version: 6.00 Build 0)  -->
<svg version="1.1" id="Capa_1" xmlns="http://www.w3.org/2000/svg" xmlns:xlink="http://www.w3.org/1999/xlink" x="0px" y="0px"
	 viewBox="0 0 819.1 33.7" style="enable-background:new 0 0 819.1 33.7;" xml:space="preserve">
<style type="text/css">
	.st0{fill:#FFCC03;}
	.st1{opacity:0.6;fill:#FFCC03;}
	.st2{fill:#FFFFFF;}
</style>
<g>
	<g>
		<polygon class="st0" points="0,21.9 4.5,27 20.3,8.4 6,28.4 11.3,33.7 25.3,2 		"/>
		<polygon class="st1" points="23.5,4.7 17.5,28.8 12.6,29.5 		"/>
	</g>
	<g>
		<path class="st2" d="M37.2,0.6h4.2v19.7h6.3v3.5H37.2V0.6z"/>
		<path class="st2" d="M49.3,12.2c0-2.5,0-3.4,0.9-4.3c0.8-0.8,2.3-1.3,4.3-1.3c0.8,0,2,0.1,3,0.6c1.7,0.9,2,2.3,2,3.1v9.4
			c0,2.4,0,3.5,0.8,4.1h-4.1c-0.3-0.3-0.4-0.8-0.5-1.5c-0.8,1-1.6,1.8-3.4,1.8c-3.3,0-3.3-3-3.3-4.6c0-3,0-3.9,2.6-5.2l4.1-2
			c0-1.5,0-1.7,0-1.9c0-0.4-0.2-1.1-1.3-1.1c-1.3,0-1.3,0.8-1.3,2.9H49.3z M55.6,15.3l-1.9,1.2c-0.8,0.5-0.9,1.1-0.9,2.8
			c0,1.3,0.2,1.8,0.9,1.8c0.4,0,0.9-0.1,1.9-1V15.3z"/>
		<path class="st2" d="M70.5,12.2c0-2.5,0-3.4,0.9-4.3c0.8-0.8,2.3-1.3,4.3-1.3c0.8,0,2,0.1,3,0.6c1.7,0.9,2,2.3,2,3.1v9.4
			c0,2.4,0,3.5,0.8,4.1h-4.1c-0.3-0.3-0.4-0.8-0.5-1.5c-0.8,1-1.6,1.8-3.4,1.8c-3.3,0-3.3-3-3.3-4.6c0-3,0-3.9,2.6-5.2l4.1-2
			c0-1.5,0-1.7,0-1.9c0-0.4-0.2-1.1-1.3-1.1c-1.3,0-1.3,0.8-1.3,2.9H70.5z M76.8,15.3l-1.9,1.2c-0.8,0.5-0.9,1.1-0.9,2.8
			c0,1.3,0.2,1.8,0.9,1.8c0.4,0,0.9-0.1,1.9-1V15.3z"/>
		<path class="st2" d="M90.3,13.4v-2c0-0.6,0-1.9-1.4-1.9c-1.6,0-1.6,1.5-1.6,2.3v7.3c0,0.8,0,2.2,1.5,2.2c1.5,0,1.5-1.5,1.5-2.2
			v-1.9h3.9v1.9c0,3.4-1.8,5.1-5.4,5.1c-0.9,0-2.7-0.1-4-1.2c-1.3-1-1.5-2.4-1.5-3.7v-7.5c0-1.2,0.2-2.4,1-3.3
			c1.1-1.3,2.8-1.9,4.5-1.9c1.4,0,3,0.4,4,1.2c1,0.9,1.4,1.9,1.4,3.5v2H90.3z"/>
		<path class="st2" d="M97.5,0.9h3.9V7h2.3v2.6h-2.4v9.6c0,1.1,0.2,1.8,1.8,1.8c0.3,0,0.4,0,0.7,0v2.8c-0.3,0.1-0.8,0.2-2.1,0.2
			c-3.7,0-4.2-1.4-4.2-3.5V9.6h-2.1V7h2.1V0.9z"/>
		<path class="st2" d="M105.5,0.6h3.9v4h-3.9V0.6z M105.5,7h3.9v16.8h-3.9V7z"/>
		<path class="st2" d="M110.9,7h3.9l1.7,11.7l2-11.7h3.9l-4,16.8h-3.8L110.9,7z"/>
		<path class="st2" d="M124,0.6h3.9v4H124V0.6z M124,7h3.9v16.8H124V7z"/>
		<path class="st2" d="M137.7,0.6h3.9v23.2h-3.9l0-1.6c-0.6,0.9-1.4,2-3.3,2c-1.6,0-2.8-0.9-3.3-1.8c-0.4-0.8-0.5-1.9-0.5-3.6v-7.7
			c0-1.2,0.1-1.8,0.5-2.5c0.7-1.5,2.3-2,3.2-2c1.5,0,2.6,1,3.4,1.7V0.6z M134.5,19c0,0.8,0,1.9,1.5,1.9c1.6,0,1.6-1.5,1.6-2v-7.2
			c0-0.5,0-1.9-1.6-1.9c-1.5,0-1.5,1.3-1.5,2.1V19z"/>
		<path class="st2" d="M144.5,12.2c0-2.5,0-3.4,0.9-4.3c0.8-0.8,2.3-1.3,4.3-1.3c0.8,0,2,0.1,3,0.6c1.7,0.9,2,2.3,2,3.1v9.4
			c0,2.4,0,3.5,0.8,4.1h-4.1c-0.3-0.3-0.4-0.8-0.5-1.5c-0.8,1-1.6,1.8-3.4,1.8c-3.3,0-3.3-3-3.3-4.6c0-3,0-3.9,2.6-5.2l4.1-2
			c0-1.5,0-1.7,0-1.9c0-0.4-0.2-1.1-1.3-1.1c-1.3,0-1.3,0.8-1.3,2.9H144.5z M150.7,15.3l-1.9,1.2c-0.8,0.5-0.9,1.1-0.9,2.8
			c0,1.3,0.2,1.8,0.9,1.8c0.4,0,0.9-0.1,1.9-1V15.3z"/>
		<path class="st2" d="M164.5,0.6h3.9v23.2h-3.9l0-1.6c-0.6,0.9-1.4,2-3.3,2c-1.6,0-2.8-0.9-3.3-1.8c-0.4-0.8-0.5-1.9-0.5-3.6v-7.7
			c0-1.2,0.1-1.8,0.5-2.5c0.7-1.5,2.3-2,3.2-2c1.5,0,2.6,1,3.4,1.7V0.6z M161.3,19c0,0.8,0,1.9,1.5,1.9c1.6,0,1.6-1.5,1.6-2v-7.2
			c0-0.5,0-1.9-1.6-1.9c-1.5,0-1.5,1.3-1.5,2.1V19z"/>
		<path class="st2" d="M184.1,7h1.7v2.6H184v14.2h-3.9V9.6h-1.7V7h1.8V4c0-3.5,2.9-3.5,4.4-3.5c0.5,0,0.9,0,1.4,0.1v3.2
			c-0.3,0-0.8,0-0.9,0c-1,0-1,0.8-1,1.2V7z"/>
		<path class="st2" d="M189.7,0h5.1c-1.8,1.8-2.2,2.3-4.2,4.4h-3.1L189.7,0z M187.7,7h3.9v16.8h-3.9V7z"/>
		<path class="st2" d="M194,17.9h3.6c0,2.4,0,3.5,1.5,3.5c0.9,0,1.5-0.4,1.5-1.8c0-1-0.1-1.4-1.2-2.2l-3.3-2.3
			c-0.2-0.2-0.8-0.7-1.1-1.1c-0.4-0.5-0.9-1.2-0.9-3c0-3.5,2.3-4.3,5.1-4.3c3.4,0,4.8,1.5,4.8,3.9v1.8h-3.4c0-1.9,0-3-1.4-3
			c-0.6,0-1.4,0.1-1.4,1.5c0,0.5,0,1.1,1.1,1.8l3.6,2.5c0.2,0.2,1,0.9,1.1,1.1c0.5,0.7,0.6,1.5,0.6,2.6c0,2.1,0,5.2-5.2,5.2
			c-4.2,0-5.1-2.1-5.1-4.5V17.9z"/>
		<path class="st2" d="M206.9,0.6h3.9v4h-3.9V0.6z M206.9,7h3.9v16.8h-3.9V7z"/>
		<path class="st2" d="M220.4,13.4v-2c0-0.6,0-1.9-1.4-1.9c-1.6,0-1.6,1.5-1.6,2.3v7.3c0,0.8,0,2.2,1.5,2.2c1.5,0,1.5-1.5,1.5-2.2
			v-1.9h3.9v1.9c0,3.4-1.8,5.1-5.4,5.1c-0.9,0-2.7-0.1-4-1.2c-1.3-1-1.5-2.4-1.5-3.7v-7.5c0-1.2,0.2-2.4,1-3.3
			c1.1-1.3,2.8-1.9,4.5-1.9c1.4,0,3,0.4,4,1.2c1,0.9,1.4,1.9,1.4,3.5v2H220.4z"/>
		<path class="st2" d="M226.6,12.2c0-2.5,0-3.4,0.9-4.3c0.8-0.8,2.3-1.3,4.3-1.3c0.8,0,2,0.1,3,0.6c1.7,0.9,2,2.3,2,3.1v9.4
			c0,2.4,0,3.5,0.8,4.1h-4.1c-0.3-0.3-0.4-0.8-0.5-1.5c-0.8,1-1.6,1.8-3.4,1.8c-3.3,0-3.3-3-3.3-4.6c0-3,0-3.9,2.6-5.2l4.1-2
			c0-1.5,0-1.7,0-1.9c0-0.4-0.2-1.1-1.3-1.1c-1.3,0-1.3,0.8-1.3,2.9H226.6z M232.9,15.3l-1.9,1.2c-0.8,0.5-0.9,1.1-0.9,2.8
			c0,1.3,0.2,1.8,0.9,1.8c0.4,0,0.9-0.1,1.9-1V15.3z"/>
		<path class="st2" d="M247.9,12.2c0-2.5,0-3.4,0.9-4.3c0.8-0.8,2.3-1.3,4.3-1.3c0.8,0,2,0.1,3,0.6c1.7,0.9,2,2.3,2,3.1v9.4
			c0,2.4,0,3.5,0.8,4.1h-4.1c-0.3-0.3-0.4-0.8-0.5-1.5c-0.8,1-1.6,1.8-3.4,1.8c-3.3,0-3.3-3-3.3-4.6c0-3,0-3.9,2.6-5.2l4.1-2
			c0-1.5,0-1.7,0-1.9c0-0.4-0.2-1.1-1.3-1.1c-1.3,0-1.3,0.8-1.3,2.9H247.9z M254.2,15.3l-1.9,1.2c-0.8,0.5-0.9,1.1-0.9,2.8
			c0,1.3,0.2,1.8,0.9,1.8c0.4,0,0.9-0.1,1.9-1V15.3z"/>
		<path class="st2" d="M261,7h3.9v12.1c0,0.8,0,2,1.4,2c1.5,0,1.5-1.3,1.5-2.2V7h3.9v16.8h-3.9v-1.3c-0.9,0.7-1.9,1.6-3.6,1.6
			c-1.1,0-2.8-0.5-3.2-2.6c-0.1-0.5-0.1-0.9-0.1-1.8V7z"/>
		<path class="st2" d="M274.7,7h3.9v1.1c0.8-0.7,1.7-1.4,3.3-1.4c1.7,0,2.6,1,3.2,1.7c1-0.9,1.9-1.7,3.8-1.7c1.1,0,1.9,0.5,2.4,1
			c0.8,0.8,1,1.7,1,2.9v13.3h-3.9V11.4c0-0.8,0-2-1.4-2c-1.1,0-1.5,0.8-1.5,2.1v12.3h-3.9V11.5c0-0.9,0-2.1-1.4-2.1
			c-1.1,0-1.5,0.8-1.5,2v12.5h-3.9V7z"/>
		<path class="st2" d="M298.9,19c0,0.7,0,2.1,1.4,2.1c0.5,0,0.8-0.2,1.1-0.5c0.3-0.4,0.3-0.6,0.3-2.3h3.8v1.3c0,3.6-2.7,4.5-5.1,4.5
			c-3.8,0-5.4-2-5.4-5.4v-7.1c0-2.1,0.7-3.3,1.8-4c1-0.7,2.4-1,3.5-1c1.5,0,3.1,0.5,4.1,1.5c1,1,1.2,2.4,1.2,3.4v4.8h-6.7V19z
			 M298.9,13.5h2.8v-2.1c0-0.5,0-1.7-1.3-1.7c-1,0-1.4,0.6-1.4,1.7V13.5z"/>
		<path class="st2" d="M308.2,7h4l-0.1,1.2c0.8-0.8,1.6-1.6,3.4-1.6c1.2,0,2.1,0.5,2.7,1.1c0.8,0.9,0.8,1.9,0.8,2.9v13.1h-3.8V11.5
			c0-0.9-0.1-2-1.4-2c-1.6,0-1.6,1.5-1.6,2.3v12.1h-3.9V7z"/>
		<path class="st2" d="M322.8,0.9h3.9V7h2.3v2.6h-2.4v9.6c0,1.1,0.2,1.8,1.8,1.8c0.3,0,0.4,0,0.7,0v2.8c-0.3,0.1-0.8,0.2-2.1,0.2
			c-3.7,0-4.2-1.4-4.2-3.5V9.6h-2.1V7h2.1V0.9z"/>
		<path class="st2" d="M331.1,12.2c0-2.5,0-3.4,0.9-4.3c0.8-0.8,2.3-1.3,4.3-1.3c0.8,0,2,0.1,3,0.6c1.7,0.9,2,2.3,2,3.1v9.4
			c0,2.4,0,3.5,0.8,4.1h-4.1c-0.3-0.3-0.4-0.8-0.5-1.5c-0.8,1-1.6,1.8-3.4,1.8c-3.3,0-3.3-3-3.3-4.6c0-3,0-3.9,2.6-5.2l4.1-2
			c0-1.5,0-1.7,0-1.9c0-0.4-0.2-1.1-1.3-1.1c-1.3,0-1.3,0.8-1.3,2.9H331.1z M337.4,15.3l-1.9,1.2c-0.8,0.5-0.9,1.1-0.9,2.8
			c0,1.3,0.2,1.8,0.9,1.8c0.4,0,0.9-0.1,1.9-1V15.3z"/>
		<path class="st2" d="M359.3,0.6h3.9v23.2h-3.9l0-1.6c-0.6,0.9-1.4,2-3.3,2c-1.6,0-2.8-0.9-3.3-1.8c-0.4-0.8-0.5-1.9-0.5-3.6v-7.7
			c0-1.2,0.1-1.8,0.5-2.5c0.7-1.5,2.3-2,3.2-2c1.5,0,2.6,1,3.4,1.7V0.6z M356.1,19c0,0.8,0,1.9,1.5,1.9c1.6,0,1.6-1.5,1.6-2v-7.2
			c0-0.5,0-1.9-1.6-1.9c-1.5,0-1.5,1.3-1.5,2.1V19z"/>
		<path class="st2" d="M366.1,7h3.9v12.1c0,0.8,0,2,1.4,2c1.5,0,1.5-1.3,1.5-2.2V7h3.9v16.8H373v-1.3c-0.9,0.7-1.9,1.6-3.6,1.6
			c-1.1,0-2.8-0.5-3.2-2.6c-0.1-0.5-0.1-0.9-0.1-1.8V7z"/>
		<path class="st2" d="M379.8,7h3.9l0,2.1c0.7-1.2,1.5-2.5,3.8-2.4v3.9c-0.3-0.1-0.7-0.3-1.3-0.3c-2.5,0-2.5,2.3-2.5,3.6v9.9h-3.9V7
			z"/>
		<path class="st2" d="M388.7,12.2c0-2.5,0-3.4,0.9-4.3c0.8-0.8,2.3-1.3,4.3-1.3c0.8,0,2,0.1,3,0.6c1.7,0.9,2,2.3,2,3.1v9.4
			c0,2.4,0,3.5,0.8,4.1h-4.1c-0.3-0.3-0.4-0.8-0.5-1.5c-0.8,1-1.6,1.8-3.4,1.8c-3.3,0-3.3-3-3.3-4.6c0-3,0-3.9,2.6-5.2l4.1-2
			c0-1.5,0-1.7,0-1.9c0-0.4-0.2-1.1-1.3-1.1c-1.3,0-1.3,0.8-1.3,2.9H388.7z M395,15.3l-1.9,1.2c-0.8,0.5-0.9,1.1-0.9,2.8
			c0,1.3,0.2,1.8,0.9,1.8c0.4,0,0.9-0.1,1.9-1V15.3z"/>
		<path class="st2" d="M401.8,7h4l-0.1,1.2c0.8-0.8,1.6-1.6,3.4-1.6c1.2,0,2.1,0.5,2.7,1.1c0.8,0.9,0.8,1.9,0.8,2.9v13.1h-3.8V11.5
			c0-0.9-0.1-2-1.4-2c-1.6,0-1.6,1.5-1.6,2.3v12.1h-3.9V7z"/>
		<path class="st2" d="M416.4,0.9h3.9V7h2.3v2.6h-2.4v9.6c0,1.1,0.2,1.8,1.8,1.8c0.3,0,0.4,0,0.7,0v2.8c-0.3,0.1-0.8,0.2-2.1,0.2
			c-3.7,0-4.2-1.4-4.2-3.5V9.6h-2.1V7h2.1V0.9z"/>
		<path class="st2" d="M428.1,19c0,0.7,0,2.1,1.4,2.1c0.5,0,0.8-0.2,1.1-0.5c0.3-0.4,0.3-0.6,0.3-2.3h3.8v1.3c0,3.6-2.7,4.5-5.1,4.5
			c-3.8,0-5.4-2-5.4-5.4v-7.1c0-2.1,0.7-3.3,1.8-4c1-0.7,2.4-1,3.5-1c1.5,0,3.1,0.5,4.1,1.5c1,1,1.2,2.4,1.2,3.4v4.8h-6.7V19z
			 M428.1,13.5h2.8v-2.1c0-0.5,0-1.7-1.3-1.7c-1,0-1.4,0.6-1.4,1.7V13.5z"/>
		<path class="st2" d="M449.3,19c0,0.7,0,2.1,1.4,2.1c0.5,0,0.8-0.2,1.1-0.5c0.3-0.4,0.3-0.6,0.3-2.3h3.8v1.3c0,3.6-2.7,4.5-5.1,4.5
			c-3.8,0-5.4-2-5.4-5.4v-7.1c0-2.1,0.7-3.3,1.8-4c1-0.7,2.4-1,3.5-1c1.5,0,3.1,0.5,4.1,1.5c1,1,1.2,2.4,1.2,3.4v4.8h-6.7V19z
			 M449.3,13.5h2.8v-2.1c0-0.5,0-1.7-1.3-1.7c-1,0-1.4,0.6-1.4,1.7V13.5z"/>
		<path class="st2" d="M458.6,0.6h3.9v23.2h-3.9V0.6z"/>
		<path class="st2" d="M473.7,7h3.9l0,2.1c0.7-1.2,1.5-2.5,3.8-2.4v3.9c-0.3-0.1-0.7-0.3-1.3-0.3c-2.5,0-2.5,2.3-2.5,3.6v9.9h-3.9V7
			z"/>
		<path class="st2" d="M486.3,19c0,0.7,0,2.1,1.4,2.1c0.5,0,0.8-0.2,1.1-0.5c0.3-0.4,0.3-0.6,0.3-2.3h3.8v1.3c0,3.6-2.7,4.5-5.1,4.5
			c-3.8,0-5.4-2-5.4-5.4v-7.1c0-2.1,0.7-3.3,1.8-4c1-0.7,2.4-1,3.5-1c1.5,0,3.1,0.5,4.1,1.5c1,1,1.2,2.4,1.2,3.4v4.8h-6.7V19z
			 M486.4,13.5h2.8v-2.1c0-0.5,0-1.7-1.3-1.7c-1,0-1.4,0.6-1.4,1.7V13.5z"/>
		<path class="st2" d="M502.4,13.4v-2c0-0.6,0-1.9-1.4-1.9c-1.6,0-1.6,1.5-1.6,2.3v7.3c0,0.8,0,2.2,1.5,2.2c1.5,0,1.5-1.5,1.5-2.2
			v-1.9h3.9v1.9c0,3.4-1.8,5.1-5.4,5.1c-0.9,0-2.7-0.1-4-1.2c-1.3-1-1.5-2.4-1.5-3.7v-7.5c0-1.2,0.2-2.4,1-3.3
			c1.1-1.3,2.8-1.9,4.5-1.9c1.4,0,3,0.4,4,1.2c1,0.9,1.4,1.9,1.4,3.5v2H502.4z"/>
		<path class="st2" d="M508.7,7h3.9l0,2.1c0.7-1.2,1.5-2.5,3.8-2.4v3.9c-0.3-0.1-0.7-0.3-1.3-0.3c-2.5,0-2.5,2.3-2.5,3.6v9.9h-3.9V7
			z"/>
		<path class="st2" d="M521.3,19c0,0.7,0,2.1,1.4,2.1c0.5,0,0.8-0.2,1.1-0.5c0.3-0.4,0.3-0.6,0.3-2.3h3.8v1.3c0,3.6-2.7,4.5-5.1,4.5
			c-3.8,0-5.4-2-5.4-5.4v-7.1c0-2.1,0.7-3.3,1.8-4c1-0.7,2.4-1,3.5-1c1.5,0,3.1,0.5,4.1,1.5c1,1,1.2,2.4,1.2,3.4v4.8h-6.7V19z
			 M521.3,13.5h2.8v-2.1c0-0.5,0-1.7-1.3-1.7c-1,0-1.4,0.6-1.4,1.7V13.5z"/>
		<path class="st2" d="M530.4,11.5c0-2,0.7-4.9,5.3-4.9c1.2,0,2.6,0.3,3.5,0.9c1.4,1,1.6,2.4,1.6,3.8v8.1c0,3-1.9,4.7-5.4,4.7
			c-5.1,0-5.1-3.8-5.1-5.1V11.5z M534.4,19.7c0,0.4,0,1.7,1.3,1.7c1.4,0,1.4-1.2,1.4-1.8v-8.5c0-1-0.1-2-1.3-2
			c-1.4,0-1.4,1.3-1.4,2.1V19.7z"/>
		<path class="st2" d="M550.5,7h3.9l2.2,10.8L558.2,7h3.8l-3.8,18c-0.7,3.4-1.6,4.6-4.6,4.6c-0.8,0-1.1,0-2.6-0.3l0.6-3.1
			c0.7,0.2,1.5,0.2,1.5,0.2c1.7,0,1.8-2.6,1.8-2.7L550.5,7z"/>
		<path class="st2" d="M571.7,12.2c0-2.5,0-3.4,0.9-4.3c0.8-0.8,2.3-1.3,4.3-1.3c0.8,0,2,0.1,3,0.6c1.7,0.9,2,2.3,2,3.1v9.4
			c0,2.4,0,3.5,0.8,4.1h-4.1c-0.3-0.3-0.4-0.8-0.5-1.5c-0.8,1-1.6,1.8-3.4,1.8c-3.3,0-3.3-3-3.3-4.6c0-3,0-3.9,2.6-5.2l4.1-2
			c0-1.5,0-1.7,0-1.9c0-0.4-0.2-1.1-1.3-1.1c-1.3,0-1.3,0.8-1.3,2.9H571.7z M577.9,15.3l-1.9,1.2c-0.8,0.5-0.9,1.1-0.9,2.8
			c0,1.3,0.2,1.8,0.9,1.8c0.4,0,0.9-0.1,1.9-1V15.3z"/>
		<path class="st2" d="M591.5,13.4v-2c0-0.6,0-1.9-1.4-1.9c-1.6,0-1.6,1.5-1.6,2.3v7.3c0,0.8,0,2.2,1.5,2.2c1.5,0,1.5-1.5,1.5-2.2
			v-1.9h3.9v1.9c0,3.4-1.8,5.1-5.4,5.1c-0.9,0-2.7-0.1-4-1.2c-1.3-1-1.5-2.4-1.5-3.7v-7.5c0-1.2,0.2-2.4,1-3.3
			c1.1-1.3,2.8-1.9,4.5-1.9c1.4,0,3,0.4,4,1.2c1,0.9,1.4,1.9,1.4,3.5v2H591.5z"/>
		<path class="st2" d="M598.7,0.9h3.9V7h2.3v2.6h-2.4v9.6c0,1.1,0.2,1.8,1.8,1.8c0.3,0,0.4,0,0.7,0v2.8c-0.3,0.1-0.8,0.2-2.1,0.2
			c-3.7,0-4.2-1.4-4.2-3.5V9.6h-2.1V7h2.1V0.9z"/>
		<path class="st2" d="M606.7,0.6h3.9v4h-3.9V0.6z M606.7,7h3.9v16.8h-3.9V7z"/>
		<path class="st2" d="M612.1,7h3.9l1.7,11.7l2-11.7h3.9l-4,16.8h-3.8L612.1,7z"/>
		<path class="st2" d="M625.1,0.6h3.9v4h-3.9V0.6z M625.1,7h3.9v16.8h-3.9V7z"/>
		<path class="st2" d="M638.9,0.6h3.9v23.2h-3.9l0-1.6c-0.6,0.9-1.4,2-3.3,2c-1.6,0-2.8-0.9-3.3-1.8c-0.4-0.8-0.5-1.9-0.5-3.6v-7.7
			c0-1.2,0.1-1.8,0.5-2.5c0.7-1.5,2.3-2,3.2-2c1.5,0,2.6,1,3.4,1.7V0.6z M635.7,19c0,0.8,0,1.9,1.5,1.9c1.6,0,1.6-1.5,1.6-2v-7.2
			c0-0.5,0-1.9-1.6-1.9c-1.5,0-1.5,1.3-1.5,2.1V19z"/>
		<path class="st2" d="M645.6,12.2c0-2.5,0-3.4,0.9-4.3c0.8-0.8,2.3-1.3,4.3-1.3c0.8,0,2,0.1,3,0.6c1.7,0.9,2,2.3,2,3.1v9.4
			c0,2.4,0,3.5,0.8,4.1h-4.1c-0.3-0.3-0.4-0.8-0.5-1.5c-0.8,1-1.6,1.8-3.4,1.8c-3.3,0-3.3-3-3.3-4.6c0-3,0-3.9,2.6-5.2l4.1-2
			c0-1.5,0-1.7,0-1.9c0-0.4-0.2-1.1-1.3-1.1c-1.3,0-1.3,0.8-1.3,2.9H645.6z M651.9,15.3l-1.9,1.2c-0.8,0.5-0.9,1.1-0.9,2.8
			c0,1.3,0.2,1.8,0.9,1.8c0.4,0,0.9-0.1,1.9-1V15.3z"/>
		<path class="st2" d="M665.6,0.6h3.9v23.2h-3.9l0-1.6c-0.6,0.9-1.4,2-3.3,2c-1.6,0-2.8-0.9-3.3-1.8c-0.4-0.8-0.5-1.9-0.5-3.6v-7.7
			c0-1.2,0.1-1.8,0.5-2.5c0.7-1.5,2.3-2,3.2-2c1.5,0,2.6,1,3.4,1.7V0.6z M662.4,19c0,0.8,0,1.9,1.5,1.9c1.6,0,1.6-1.5,1.6-2v-7.2
			c0-0.5,0-1.9-1.6-1.9c-1.5,0-1.5,1.3-1.5,2.1V19z"/>
		<path class="st2" d="M676.1,19c0,0.7,0,2.1,1.4,2.1c0.5,0,0.8-0.2,1.1-0.5c0.3-0.4,0.3-0.6,0.3-2.3h3.8v1.3c0,3.6-2.7,4.5-5.1,4.5
			c-3.8,0-5.4-2-5.4-5.4v-7.1c0-2.1,0.7-3.3,1.8-4c1-0.7,2.4-1,3.5-1c1.5,0,3.1,0.5,4.1,1.5c1,1,1.2,2.4,1.2,3.4v4.8h-6.7V19z
			 M676.1,13.5h2.8v-2.1c0-0.5,0-1.7-1.3-1.7c-1,0-1.4,0.6-1.4,1.7V13.5z"/>
		<path class="st2" d="M684.9,17.9h3.6c0,2.4,0,3.5,1.5,3.5c0.9,0,1.5-0.4,1.5-1.8c0-1-0.1-1.4-1.2-2.2l-3.3-2.3
			c-0.2-0.2-0.8-0.7-1.1-1.1c-0.4-0.5-0.9-1.2-0.9-3c0-3.5,2.3-4.3,5.1-4.3c3.4,0,4.8,1.5,4.8,3.9v1.8h-3.4c0-1.9,0-3-1.4-3
			c-0.6,0-1.4,0.1-1.4,1.5c0,0.5,0,1.1,1.1,1.8l3.6,2.5c0.2,0.2,1,0.9,1.1,1.1c0.5,0.7,0.6,1.5,0.6,2.6c0,2.1,0,5.2-5.2,5.2
			c-4.2,0-5.1-2.1-5.1-4.5V17.9z"/>
		<path class="st2" d="M712.9,0.6h3.9v23.2h-3.9l0-1.6c-0.6,0.9-1.4,2-3.3,2c-1.6,0-2.8-0.9-3.3-1.8c-0.4-0.8-0.5-1.9-0.5-3.6v-7.7
			c0-1.2,0.1-1.8,0.5-2.5c0.7-1.5,2.3-2,3.2-2c1.5,0,2.6,1,3.4,1.7V0.6z M709.7,19c0,0.8,0,1.9,1.5,1.9c1.6,0,1.6-1.5,1.6-2v-7.2
			c0-0.5,0-1.9-1.6-1.9c-1.5,0-1.5,1.3-1.5,2.1V19z"/>
		<path class="st2" d="M723.4,19c0,0.7,0,2.1,1.4,2.1c0.5,0,0.8-0.2,1.1-0.5c0.3-0.4,0.3-0.6,0.3-2.3h3.8v1.3c0,3.6-2.7,4.5-5.1,4.5
			c-3.8,0-5.4-2-5.4-5.4v-7.1c0-2.1,0.7-3.3,1.8-4c1-0.7,2.4-1,3.5-1c1.5,0,3.1,0.5,4.1,1.5c1,1,1.2,2.4,1.2,3.4v4.8h-6.7V19z
			 M723.4,13.5h2.8v-2.1c0-0.5,0-1.7-1.3-1.7c-1,0-1.4,0.6-1.4,1.7V13.5z"/>
		<path class="st2" d="M732.7,7h3.9v1.3c0.7-0.6,1.9-1.6,3.5-1.6c1,0,1.9,0.4,2.6,1.1c0.7,0.8,1,1.9,1,3.3V20c0,1.3-0.3,2.1-0.6,2.5
			c-0.6,1.1-1.7,1.6-2.9,1.6c-1.6,0-2.6-0.9-3.6-1.7v7.2h-3.9V7z M736.6,19.1c0,1.1,0.4,1.9,1.6,1.9c1.4,0,1.6-1.1,1.6-1.7v-7.8
			c0-1.2-0.5-1.8-1.5-1.8c-1.6,0-1.6,1.4-1.6,1.9V19.1z"/>
		<path class="st2" d="M746.2,11.5c0-2,0.7-4.9,5.3-4.9c1.2,0,2.6,0.3,3.5,0.9c1.4,1,1.6,2.4,1.6,3.8v8.1c0,3-1.9,4.7-5.4,4.7
			c-5.1,0-5.1-3.8-5.1-5.1V11.5z M750.1,19.7c0,0.4,0,1.7,1.3,1.7c1.4,0,1.4-1.2,1.4-1.8v-8.5c0-1-0.1-2-1.3-2
			c-1.4,0-1.4,1.3-1.4,2.1V19.7z"/>
		<path class="st2" d="M759.4,7h3.9l0,2.1c0.7-1.2,1.5-2.5,3.8-2.4v3.9c-0.3-0.1-0.7-0.3-1.3-0.3c-2.5,0-2.5,2.3-2.5,3.6v9.9h-3.9V7
			z"/>
		<path class="st2" d="M769.9,0.9h3.9V7h2.3v2.6h-2.4v9.6c0,1.1,0.2,1.8,1.8,1.8c0.3,0,0.4,0,0.7,0v2.8c-0.3,0.1-0.8,0.2-2.1,0.2
			c-3.7,0-4.2-1.4-4.2-3.5V9.6h-2.1V7h2.1V0.9z"/>
		<path class="st2" d="M777.9,0.6h3.9v4h-3.9V0.6z M777.9,7h3.9v16.8h-3.9V7z"/>
		<path class="st2" d="M783.4,7h3.9l1.7,11.7L791,7h3.9l-4,16.8h-3.8L783.4,7z"/>
		<path class="st2" d="M796.3,12.2c0-2.5,0-3.4,0.9-4.3c0.8-0.8,2.3-1.3,4.3-1.3c0.8,0,2,0.1,3,0.6c1.7,0.9,2,2.3,2,3.1v9.4
			c0,2.4,0,3.5,0.8,4.1h-4.1c-0.3-0.3-0.4-0.8-0.5-1.5c-0.8,1-1.6,1.8-3.4,1.8c-3.3,0-3.3-3-3.3-4.6c0-3,0-3.9,2.6-5.2l4.1-2
			c0-1.5,0-1.7,0-1.9c0-0.4-0.2-1.1-1.3-1.1c-1.3,0-1.3,0.8-1.3,2.9H796.3z M802.6,15.3l-1.9,1.2c-0.8,0.5-0.9,1.1-0.9,2.8
			c0,1.3,0.2,1.8,0.9,1.8c0.4,0,0.9-0.1,1.9-1V15.3z"/>
		<path class="st2" d="M808.9,17.9h3.6c0,2.4,0,3.5,1.5,3.5c0.9,0,1.5-0.4,1.5-1.8c0-1-0.1-1.4-1.2-2.2l-3.3-2.3
			c-0.2-0.2-0.8-0.7-1.1-1.1c-0.4-0.5-0.9-1.2-0.9-3c0-3.5,2.3-4.3,5.1-4.3c3.4,0,4.8,1.5,4.8,3.9v1.8h-3.4c0-1.9,0-3-1.4-3
			c-0.6,0-1.4,0.1-1.4,1.5c0,0.5,0,1.1,1.1,1.8l3.6,2.5c0.2,0.2,1,0.9,1.1,1.1c0.5,0.7,0.6,1.5,0.6,2.6c0,2.1,0,5.2-5.2,5.2
			c-4.2,0-5.1-2.1-5.1-4.5V17.9z"/>
	</g>
</g>
</svg>
