<?xml version="1.0" encoding="utf-8"?>
<!-- Generator: Adobe Illustrator 22.0.0, SVG Export Plug-In . SVG Version: 6.00 Build 0)  -->
<svg version="1.1" id="Capa_1" xmlns="http://www.w3.org/2000/svg" xmlns:xlink="http://www.w3.org/1999/xlink" x="0px" y="0px"
	 viewBox="0 0 823.4 36.3" style="enable-background:new 0 0 823.4 36.3;" xml:space="preserve">
<style type="text/css">
	.st0{fill:#FFCC03;}
	.st1{opacity:0.6;fill:#FFCC03;}
	.st2{fill:#FFFFFF;}
</style>
<g>
	<g>
		<polygon class="st0" points="0,24.5 4.5,29.6 20.3,11 6,31 11.3,36.3 25.3,4.6 		"/>
		<polygon class="st1" points="23.5,7.2 17.5,31.4 12.6,32 		"/>
	</g>
	<g>
		<path class="st2" d="M37.2,0h11.2v3.5h-7V9H48v3.5h-6.5v7.1h7.3v3.6H37.2V0z"/>
		<path class="st2" d="M50.7,0.1h3.9v23.2h-3.9V0.1z"/>
		<path class="st2" d="M72.5,12.8v-2c0-0.6,0-1.9-1.4-1.9c-1.6,0-1.6,1.5-1.6,2.3v7.3c0,0.8,0,2.2,1.5,2.2c1.5,0,1.5-1.5,1.5-2.2
			v-1.9h3.9v1.9c0,3.4-1.8,5.1-5.4,5.1c-0.9,0-2.7-0.1-4-1.2c-1.3-1-1.5-2.4-1.5-3.7v-7.5c0-1.2,0.2-2.4,1-3.3
			c1.1-1.3,2.8-1.9,4.5-1.9c1.4,0,3,0.4,4,1.2c1,0.9,1.4,1.9,1.4,3.5v2H72.5z"/>
		<path class="st2" d="M78.6,11c0-2,0.7-4.9,5.3-4.9c1.2,0,2.6,0.3,3.5,0.9c1.4,1,1.6,2.4,1.6,3.8v8.1c0,3-1.9,4.7-5.4,4.7
			c-5.1,0-5.1-3.8-5.1-5.1V11z M82.5,19.2c0,0.4,0,1.7,1.3,1.7c1.4,0,1.4-1.2,1.4-1.8v-8.5c0-1-0.1-2-1.3-2c-1.4,0-1.4,1.3-1.4,2.1
			V19.2z"/>
		<path class="st2" d="M91.8,6.4h4l-0.1,1.2c0.8-0.8,1.6-1.6,3.4-1.6c1.2,0,2.1,0.5,2.7,1.1c0.8,0.9,0.8,1.9,0.8,2.9v13.1h-3.8V10.9
			c0-0.9-0.1-2-1.4-2c-1.6,0-1.6,1.5-1.6,2.3v12.1h-3.9V6.4z"/>
		<path class="st2" d="M106.4,0.4h3.9v6.1h2.3V9h-2.4v9.6c0,1.1,0.2,1.8,1.8,1.8c0.3,0,0.4,0,0.7,0v2.8c-0.3,0.1-0.8,0.2-2.1,0.2
			c-3.7,0-4.2-1.4-4.2-3.5V9h-2.1V6.4h2.1V0.4z"/>
		<path class="st2" d="M114.7,11.6c0-2.5,0-3.4,0.9-4.3c0.8-0.8,2.3-1.3,4.3-1.3c0.8,0,2,0.1,3,0.6c1.7,0.9,2,2.3,2,3.1v9.4
			c0,2.4,0,3.5,0.8,4.1h-4.1c-0.3-0.3-0.4-0.8-0.5-1.5c-0.8,1-1.6,1.8-3.4,1.8c-3.3,0-3.3-3-3.3-4.6c0-3,0-3.9,2.6-5.2l4.1-2
			c0-1.5,0-1.7,0-1.9c0-0.4-0.2-1.1-1.3-1.1c-1.3,0-1.3,0.8-1.3,2.9H114.7z M121,14.8l-1.9,1.2c-0.8,0.5-0.9,1.1-0.9,2.8
			c0,1.3,0.2,1.8,0.9,1.8c0.4,0,0.9-0.1,1.9-1V14.8z"/>
		<path class="st2" d="M134.5,12.8v-2c0-0.6,0-1.9-1.4-1.9c-1.6,0-1.6,1.5-1.6,2.3v7.3c0,0.8,0,2.2,1.5,2.2c1.5,0,1.5-1.5,1.5-2.2
			v-1.9h3.9v1.9c0,3.4-1.8,5.1-5.4,5.1c-0.9,0-2.7-0.1-4-1.2c-1.3-1-1.5-2.4-1.5-3.7v-7.5c0-1.2,0.2-2.4,1-3.3
			c1.1-1.3,2.8-1.9,4.5-1.9c1.4,0,3,0.4,4,1.2c1,0.9,1.4,1.9,1.4,3.5v2H134.5z"/>
		<path class="st2" d="M141.7,0.4h3.9v6.1h2.3V9h-2.4v9.6c0,1.1,0.2,1.8,1.8,1.8c0.3,0,0.4,0,0.7,0v2.8c-0.3,0.1-0.8,0.2-2.1,0.2
			c-3.7,0-4.2-1.4-4.2-3.5V9h-2.1V6.4h2.1V0.4z"/>
		<path class="st2" d="M149.5,11c0-2,0.7-4.9,5.3-4.9c1.2,0,2.6,0.3,3.5,0.9c1.4,1,1.6,2.4,1.6,3.8v8.1c0,3-1.9,4.7-5.4,4.7
			c-5.1,0-5.1-3.8-5.1-5.1V11z M153.4,19.2c0,0.4,0,1.7,1.3,1.7c1.4,0,1.4-1.2,1.4-1.8v-8.5c0-1-0.1-2-1.3-2c-1.4,0-1.4,1.3-1.4,2.1
			V19.2z"/>
		<path class="st2" d="M177.7,12.8v-2c0-0.6,0-1.9-1.4-1.9c-1.6,0-1.6,1.5-1.6,2.3v7.3c0,0.8,0,2.2,1.5,2.2c1.5,0,1.5-1.5,1.5-2.2
			v-1.9h3.9v1.9c0,3.4-1.8,5.1-5.4,5.1c-0.9,0-2.7-0.1-4-1.2c-1.3-1-1.5-2.4-1.5-3.7v-7.5c0-1.2,0.2-2.4,1-3.3
			c1.1-1.3,2.8-1.9,4.5-1.9c1.4,0,3,0.4,4,1.2c1,0.9,1.4,1.9,1.4,3.5v2H177.7z"/>
		<path class="st2" d="M183.7,11c0-2,0.7-4.9,5.3-4.9c1.2,0,2.6,0.3,3.5,0.9c1.4,1,1.6,2.4,1.6,3.8v8.1c0,3-1.9,4.7-5.4,4.7
			c-5.1,0-5.1-3.8-5.1-5.1V11z M187.7,19.2c0,0.4,0,1.7,1.3,1.7c1.4,0,1.4-1.2,1.4-1.8v-8.5c0-1-0.1-2-1.3-2c-1.4,0-1.4,1.3-1.4,2.1
			V19.2z"/>
		<path class="st2" d="M197,6.4h4l-0.1,1.2c0.8-0.8,1.6-1.6,3.4-1.6c1.2,0,2.1,0.5,2.7,1.1c0.8,0.9,0.8,1.9,0.8,2.9v13.1h-3.8V10.9
			c0-0.9-0.1-2-1.4-2c-1.6,0-1.6,1.5-1.6,2.3v12.1H197V6.4z"/>
		<path class="st2" d="M217.5,6.4h3.9l1.7,11.7l2-11.7h3.9l-4,16.8h-3.8L217.5,6.4z"/>
		<path class="st2" d="M230.5,0h3.9v4h-3.9V0z M230.5,6.4h3.9v16.8h-3.9V6.4z"/>
		<path class="st2" d="M237.4,6.4h3.9l0,2.1c0.7-1.2,1.5-2.5,3.8-2.4V10c-0.3-0.1-0.7-0.3-1.3-0.3c-2.5,0-2.5,2.3-2.5,3.6v9.9h-3.9
			V6.4z"/>
		<path class="st2" d="M247,6.4h3.9v12.1c0,0.8,0,2,1.4,2c1.5,0,1.5-1.3,1.5-2.2V6.4h3.9v16.8h-3.9v-1.3c-0.9,0.7-1.9,1.6-3.6,1.6
			c-1.1,0-2.8-0.5-3.2-2.6c-0.1-0.5-0.1-0.9-0.1-1.8V6.4z"/>
		<path class="st2" d="M260.1,17.4h3.6c0,2.4,0,3.5,1.5,3.5c0.9,0,1.5-0.4,1.5-1.8c0-1-0.1-1.4-1.2-2.2l-3.3-2.3
			c-0.2-0.2-0.8-0.7-1.1-1.1c-0.4-0.5-0.9-1.2-0.9-3c0-3.5,2.3-4.3,5.1-4.3c3.4,0,4.8,1.5,4.8,3.9v1.8h-3.4c0-1.9,0-3-1.4-3
			c-0.6,0-1.4,0.1-1.4,1.5c0,0.5,0,1.1,1.1,1.8l3.6,2.5c0.2,0.2,1,0.9,1.1,1.1c0.5,0.7,0.6,1.5,0.6,2.6c0,2.1,0,5.2-5.2,5.2
			c-4.2,0-5.1-2.1-5.1-4.5V17.4z"/>
		<path class="st2" d="M281.2,6.4h3.9l0,2.1c0.7-1.2,1.5-2.5,3.8-2.4V10c-0.3-0.1-0.7-0.3-1.3-0.3c-2.5,0-2.5,2.3-2.5,3.6v9.9h-3.9
			V6.4z"/>
		<path class="st2" d="M293.8,18.5c0,0.7,0,2.1,1.4,2.1c0.5,0,0.8-0.2,1.1-0.5c0.3-0.4,0.3-0.6,0.3-2.3h3.8v1.3
			c0,3.6-2.7,4.5-5.1,4.5c-3.8,0-5.4-2-5.4-5.4v-7.1c0-2.1,0.7-3.3,1.8-4c1-0.7,2.4-1,3.5-1c1.5,0,3.1,0.5,4.1,1.5
			c1,1,1.2,2.4,1.2,3.4v4.8h-6.7V18.5z M293.9,13h2.8v-2.1c0-0.5,0-1.7-1.3-1.7c-1,0-1.4,0.6-1.4,1.7V13z"/>
		<path class="st2" d="M302.6,17.4h3.6c0,2.4,0,3.5,1.5,3.5c0.9,0,1.5-0.4,1.5-1.8c0-1-0.1-1.4-1.2-2.2l-3.3-2.3
			c-0.2-0.2-0.8-0.7-1.1-1.1c-0.4-0.5-0.9-1.2-0.9-3c0-3.5,2.3-4.3,5.1-4.3c3.4,0,4.8,1.5,4.8,3.9v1.8h-3.4c0-1.9,0-3-1.4-3
			c-0.6,0-1.4,0.1-1.4,1.5c0,0.5,0,1.1,1.1,1.8l3.6,2.5c0.2,0.2,1,0.9,1.1,1.1c0.5,0.7,0.6,1.5,0.6,2.6c0,2.1,0,5.2-5.2,5.2
			c-4.2,0-5.1-2.1-5.1-4.5V17.4z"/>
		<path class="st2" d="M315.5,6.4h3.9v1.3c0.7-0.6,1.9-1.6,3.5-1.6c1,0,1.9,0.4,2.6,1.1c0.7,0.8,1,1.9,1,3.3v8.9
			c0,1.3-0.3,2.1-0.6,2.5c-0.6,1.1-1.7,1.6-2.9,1.6c-1.6,0-2.6-0.9-3.6-1.7v7.2h-3.9V6.4z M319.4,18.5c0,1.1,0.4,1.9,1.6,1.9
			c1.4,0,1.6-1.1,1.6-1.7v-7.8c0-1.2-0.5-1.8-1.5-1.8c-1.6,0-1.6,1.4-1.6,1.9V18.5z"/>
		<path class="st2" d="M329.2,0h3.9v4h-3.9V0z M329.2,6.4h3.9v16.8h-3.9V6.4z"/>
		<path class="st2" d="M336,6.4h3.9l0,2.1c0.7-1.2,1.5-2.5,3.8-2.4V10c-0.3-0.1-0.7-0.3-1.3-0.3c-2.5,0-2.5,2.3-2.5,3.6v9.9H336V6.4
			z"/>
		<path class="st2" d="M344.9,11.6c0-2.5,0-3.4,0.9-4.3c0.8-0.8,2.3-1.3,4.3-1.3c0.8,0,2,0.1,3,0.6c1.7,0.9,2,2.3,2,3.1v9.4
			c0,2.4,0,3.5,0.8,4.1h-4.1c-0.3-0.3-0.4-0.8-0.5-1.5c-0.8,1-1.6,1.8-3.4,1.8c-3.3,0-3.3-3-3.3-4.6c0-3,0-3.9,2.6-5.2l4.1-2
			c0-1.5,0-1.7,0-1.9c0-0.4-0.2-1.1-1.3-1.1c-1.3,0-1.3,0.8-1.3,2.9H344.9z M351.2,14.8l-1.9,1.2c-0.8,0.5-0.9,1.1-0.9,2.8
			c0,1.3,0.2,1.8,0.9,1.8c0.4,0,0.9-0.1,1.9-1V14.8z"/>
		<path class="st2" d="M358.9,0.4h3.9v6.1h2.3V9h-2.4v9.6c0,1.1,0.2,1.8,1.8,1.8c0.3,0,0.4,0,0.7,0v2.8c-0.3,0.1-0.8,0.2-2.1,0.2
			c-3.7,0-4.2-1.4-4.2-3.5V9h-2.1V6.4h2.1V0.4z"/>
		<path class="st2" d="M366.7,11c0-2,0.7-4.9,5.3-4.9c1.2,0,2.6,0.3,3.5,0.9c1.4,1,1.6,2.4,1.6,3.8v8.1c0,3-1.9,4.7-5.4,4.7
			c-5.1,0-5.1-3.8-5.1-5.1V11z M370.6,19.2c0,0.4,0,1.7,1.3,1.7c1.4,0,1.4-1.2,1.4-1.8v-8.5c0-1-0.1-2-1.3-2c-1.4,0-1.4,1.3-1.4,2.1
			V19.2z"/>
		<path class="st2" d="M379.9,6.4h3.9l0,2.1c0.7-1.2,1.5-2.5,3.8-2.4V10c-0.3-0.1-0.7-0.3-1.3-0.3c-2.5,0-2.5,2.3-2.5,3.6v9.9h-3.9
			V6.4z"/>
		<path class="st2" d="M389.2,0h3.9v4h-3.9V0z M389.2,6.4h3.9v16.8h-3.9V6.4z"/>
		<path class="st2" d="M395.9,11c0-2,0.7-4.9,5.3-4.9c1.2,0,2.6,0.3,3.5,0.9c1.4,1,1.6,2.4,1.6,3.8v8.1c0,3-1.9,4.7-5.4,4.7
			c-5.1,0-5.1-3.8-5.1-5.1V11z M399.8,19.2c0,0.4,0,1.7,1.3,1.7c1.4,0,1.4-1.2,1.4-1.8v-8.5c0-1-0.1-2-1.3-2c-1.4,0-1.4,1.3-1.4,2.1
			V19.2z"/>
		<path class="st2" d="M408.5,17.4h3.6c0,2.4,0,3.5,1.5,3.5c0.9,0,1.5-0.4,1.5-1.8c0-1-0.1-1.4-1.2-2.2l-3.3-2.3
			c-0.2-0.2-0.8-0.7-1.1-1.1c-0.4-0.5-0.9-1.2-0.9-3c0-3.5,2.3-4.3,5.1-4.3c3.4,0,4.8,1.5,4.8,3.9v1.8h-3.4c0-1.9,0-3-1.4-3
			c-0.6,0-1.4,0.1-1.4,1.5c0,0.5,0,1.1,1.1,1.8l3.6,2.5c0.2,0.2,1,0.9,1.1,1.1c0.5,0.7,0.6,1.5,0.6,2.6c0,2.1,0,5.2-5.2,5.2
			c-4.2,0-5.1-2.1-5.1-4.5V17.4z"/>
		<path class="st2" d="M433.3,18.5c0,0.7,0,2.1,1.4,2.1c0.5,0,0.8-0.2,1.1-0.5c0.3-0.4,0.3-0.6,0.3-2.3h3.8v1.3
			c0,3.6-2.7,4.5-5.1,4.5c-3.8,0-5.4-2-5.4-5.4v-7.1c0-2.1,0.7-3.3,1.8-4c1-0.7,2.4-1,3.5-1c1.5,0,3.1,0.5,4.1,1.5
			c1,1,1.2,2.4,1.2,3.4v4.8h-6.7V18.5z M433.3,13h2.8v-2.1c0-0.5,0-1.7-1.3-1.7c-1,0-1.4,0.6-1.4,1.7V13z"/>
		<path class="st2" d="M450.9,0h3.9v4h-3.9V0z M450.9,6.4h3.9v16.8h-3.9V6.4z"/>
		<path class="st2" d="M457.7,6.4h4l-0.1,1.2c0.8-0.8,1.6-1.6,3.4-1.6c1.2,0,2.1,0.5,2.7,1.1c0.8,0.9,0.8,1.9,0.8,2.9v13.1h-3.8
			V10.9c0-0.9-0.1-2-1.4-2c-1.6,0-1.6,1.5-1.6,2.3v12.1h-3.9V6.4z"/>
		<path class="st2" d="M476,6.4h1.7V9H476v14.2h-3.9V9h-1.7V6.4h1.8v-3c0-3.5,2.9-3.5,4.4-3.5c0.5,0,0.9,0,1.4,0.1v3.2
			c-0.3,0-0.8,0-0.9,0c-1,0-1,0.8-1,1.2V6.4z"/>
		<path class="st2" d="M483.3,18.5c0,0.7,0,2.1,1.4,2.1c0.5,0,0.8-0.2,1.1-0.5c0.3-0.4,0.3-0.6,0.3-2.3h3.8v1.3
			c0,3.6-2.7,4.5-5.1,4.5c-3.8,0-5.4-2-5.4-5.4v-7.1c0-2.1,0.7-3.3,1.8-4c1-0.7,2.4-1,3.5-1c1.5,0,3.1,0.5,4.1,1.5
			c1,1,1.2,2.4,1.2,3.4v4.8h-6.7V18.5z M483.3,13h2.8v-2.1c0-0.5,0-1.7-1.3-1.7c-1,0-1.4,0.6-1.4,1.7V13z"/>
		<path class="st2" d="M499.4,12.8v-2c0-0.6,0-1.9-1.4-1.9c-1.6,0-1.6,1.5-1.6,2.3v7.3c0,0.8,0,2.2,1.5,2.2c1.5,0,1.5-1.5,1.5-2.2
			v-1.9h3.9v1.9c0,3.4-1.8,5.1-5.4,5.1c-0.9,0-2.7-0.1-4-1.2c-1.3-1-1.5-2.4-1.5-3.7v-7.5c0-1.2,0.2-2.4,1-3.3
			c1.1-1.3,2.8-1.9,4.5-1.9c1.4,0,3,0.4,4,1.2c1,0.9,1.4,1.9,1.4,3.5v2H499.4z"/>
		<path class="st2" d="M512.4,12.8v-2c0-0.6,0-1.9-1.4-1.9c-1.6,0-1.6,1.5-1.6,2.3v7.3c0,0.8,0,2.2,1.5,2.2c1.5,0,1.5-1.5,1.5-2.2
			v-1.9h3.9v1.9c0,3.4-1.8,5.1-5.4,5.1c-0.9,0-2.7-0.1-4-1.2c-1.3-1-1.5-2.4-1.5-3.7v-7.5c0-1.2,0.2-2.4,1-3.3
			c1.1-1.3,2.8-1.9,4.5-1.9c1.4,0,3,0.4,4,1.2c1,0.9,1.4,1.9,1.4,3.5v2H512.4z"/>
		<path class="st2" d="M518.7,0h3.9v4h-3.9V0z M518.7,6.4h3.9v16.8h-3.9V6.4z"/>
		<path class="st2" d="M525.3,11c0-2,0.7-4.9,5.3-4.9c1.2,0,2.6,0.3,3.5,0.9c1.4,1,1.6,2.4,1.6,3.8v8.1c0,3-1.9,4.7-5.4,4.7
			c-5.1,0-5.1-3.8-5.1-5.1V11z M529.2,19.2c0,0.4,0,1.7,1.3,1.7c1.4,0,1.4-1.2,1.4-1.8v-8.5c0-1-0.1-2-1.3-2c-1.4,0-1.4,1.3-1.4,2.1
			V19.2z"/>
		<path class="st2" d="M538.5,6.4h4l-0.1,1.2c0.8-0.8,1.6-1.6,3.4-1.6c1.2,0,2.1,0.5,2.7,1.1c0.8,0.9,0.8,1.9,0.8,2.9v13.1h-3.8
			V10.9c0-0.9-0.1-2-1.4-2c-1.6,0-1.6,1.5-1.6,2.3v12.1h-3.9V6.4z"/>
		<path class="st2" d="M555.9,18.5c0,0.7,0,2.1,1.4,2.1c0.5,0,0.8-0.2,1.1-0.5c0.3-0.4,0.3-0.6,0.3-2.3h3.8v1.3
			c0,3.6-2.7,4.5-5.1,4.5c-3.8,0-5.4-2-5.4-5.4v-7.1c0-2.1,0.7-3.3,1.8-4c1-0.7,2.4-1,3.5-1c1.5,0,3.1,0.5,4.1,1.5
			c1,1,1.2,2.4,1.2,3.4v4.8h-6.7V18.5z M556,13h2.8v-2.1c0-0.5,0-1.7-1.3-1.7c-1,0-1.4,0.6-1.4,1.7V13z"/>
		<path class="st2" d="M564.7,17.4h3.6c0,2.4,0,3.5,1.5,3.5c0.9,0,1.5-0.4,1.5-1.8c0-1-0.1-1.4-1.2-2.2l-3.3-2.3
			c-0.2-0.2-0.8-0.7-1.1-1.1c-0.4-0.5-0.9-1.2-0.9-3c0-3.5,2.3-4.3,5.1-4.3c3.4,0,4.8,1.5,4.8,3.9v1.8h-3.4c0-1.9,0-3-1.4-3
			c-0.6,0-1.4,0.1-1.4,1.5c0,0.5,0,1.1,1.1,1.8l3.6,2.5c0.2,0.2,1,0.9,1.1,1.1c0.5,0.7,0.6,1.5,0.6,2.6c0,2.1,0,5.2-5.2,5.2
			c-4.2,0-5.1-2.1-5.1-4.5V17.4z"/>
		<path class="st2" d="M585.8,0h3.9v7.7c1.8-1.6,3.1-1.7,3.5-1.7c1.3,0,3.5,1,3.5,3.9v9.5c0,3.6-2.5,4.1-3.6,4.1
			c-2.1,0-3-1.2-3.5-1.9v1.5h-3.9V0z M592.8,11c0-0.6,0-1.9-1.4-1.9c-1.7,0-1.7,1.3-1.7,2.2v6.8c0,1.1,0.1,2.2,1.6,2.2
			c1.5,0,1.5-1.5,1.5-2.2V11z"/>
		<path class="st2" d="M599.4,11.6c0-2.5,0-3.4,0.9-4.3c0.8-0.8,2.3-1.3,4.3-1.3c0.8,0,2,0.1,3,0.6c1.7,0.9,2,2.3,2,3.1v9.4
			c0,2.4,0,3.5,0.8,4.1h-4.1c-0.3-0.3-0.4-0.8-0.5-1.5c-0.8,1-1.6,1.8-3.4,1.8c-3.3,0-3.3-3-3.3-4.6c0-3,0-3.9,2.6-5.2l4.1-2
			c0-1.5,0-1.7,0-1.9c0-0.4-0.2-1.1-1.3-1.1c-1.3,0-1.3,0.8-1.3,2.9H599.4z M605.7,14.8l-1.9,1.2c-0.8,0.5-0.9,1.1-0.9,2.8
			c0,1.3,0.2,1.8,0.9,1.8c0.4,0,0.9-0.1,1.9-1V14.8z"/>
		<path class="st2" d="M619.3,12.8v-2c0-0.6,0-1.9-1.4-1.9c-1.6,0-1.6,1.5-1.6,2.3v7.3c0,0.8,0,2.2,1.5,2.2c1.5,0,1.5-1.5,1.5-2.2
			v-1.9h3.9v1.9c0,3.4-1.8,5.1-5.4,5.1c-0.9,0-2.7-0.1-4-1.2c-1.3-1-1.5-2.4-1.5-3.7v-7.5c0-1.2,0.2-2.4,1-3.3
			c1.1-1.3,2.8-1.9,4.5-1.9c1.4,0,3,0.4,4,1.2c1,0.9,1.4,1.9,1.4,3.5v2H619.3z"/>
		<path class="st2" d="M626.4,0.4h3.9v6.1h2.3V9h-2.4v9.6c0,1.1,0.2,1.8,1.8,1.8c0.3,0,0.4,0,0.7,0v2.8c-0.3,0.1-0.8,0.2-2.1,0.2
			c-3.7,0-4.2-1.4-4.2-3.5V9h-2.1V6.4h2.1V0.4z"/>
		<path class="st2" d="M638.1,18.5c0,0.7,0,2.1,1.4,2.1c0.5,0,0.8-0.2,1.1-0.5c0.3-0.4,0.3-0.6,0.3-2.3h3.8v1.3
			c0,3.6-2.7,4.5-5.1,4.5c-3.8,0-5.4-2-5.4-5.4v-7.1c0-2.1,0.7-3.3,1.8-4c1-0.7,2.4-1,3.5-1c1.5,0,3.1,0.5,4.1,1.5
			c1,1,1.2,2.4,1.2,3.4v4.8h-6.7V18.5z M638.2,13h2.8v-2.1c0-0.5,0-1.7-1.3-1.7c-1,0-1.4,0.6-1.4,1.7V13z"/>
		<path class="st2" d="M647.5,6.4h3.9l0,2.1c0.7-1.2,1.5-2.5,3.8-2.4V10c-0.3-0.1-0.7-0.3-1.3-0.3c-2.5,0-2.5,2.3-2.5,3.6v9.9h-3.9
			V6.4z"/>
		<path class="st2" d="M656.8,0h3.9v4h-3.9V0z M656.8,6.4h3.9v16.8h-3.9V6.4z"/>
		<path class="st2" d="M663.5,11.6c0-2.5,0-3.4,0.9-4.3c0.8-0.8,2.3-1.3,4.3-1.3c0.8,0,2,0.1,3,0.6c1.7,0.9,2,2.3,2,3.1v9.4
			c0,2.4,0,3.5,0.8,4.1h-4.1c-0.3-0.3-0.4-0.8-0.5-1.5c-0.8,1-1.6,1.8-3.4,1.8c-3.3,0-3.3-3-3.3-4.6c0-3,0-3.9,2.6-5.2l4.1-2
			c0-1.5,0-1.7,0-1.9c0-0.4-0.2-1.1-1.3-1.1c-1.3,0-1.3,0.8-1.3,2.9H663.5z M669.8,14.8l-1.9,1.2c-0.8,0.5-0.9,1.1-0.9,2.8
			c0,1.3,0.2,1.8,0.9,1.8c0.4,0,0.9-0.1,1.9-1V14.8z"/>
		<path class="st2" d="M676.6,6.4h4l-0.1,1.2c0.8-0.8,1.6-1.6,3.4-1.6c1.2,0,2.1,0.5,2.7,1.1c0.8,0.9,0.8,1.9,0.8,2.9v13.1h-3.8
			V10.9c0-0.9-0.1-2-1.4-2c-1.6,0-1.6,1.5-1.6,2.3v12.1h-3.9V6.4z"/>
		<path class="st2" d="M690.3,11.6c0-2.5,0-3.4,0.9-4.3c0.8-0.8,2.3-1.3,4.3-1.3c0.8,0,2,0.1,3,0.6c1.7,0.9,2,2.3,2,3.1v9.4
			c0,2.4,0,3.5,0.8,4.1h-4.1c-0.3-0.3-0.4-0.8-0.5-1.5c-0.8,1-1.6,1.8-3.4,1.8c-3.3,0-3.3-3-3.3-4.6c0-3,0-3.9,2.6-5.2l4.1-2
			c0-1.5,0-1.7,0-1.9c0-0.4-0.2-1.1-1.3-1.1c-1.3,0-1.3,0.8-1.3,2.9H690.3z M696.5,14.8l-1.9,1.2c-0.8,0.5-0.9,1.1-0.9,2.8
			c0,1.3,0.2,1.8,0.9,1.8c0.4,0,0.9-0.1,1.9-1V14.8z"/>
		<path class="st2" d="M702.8,17.4h3.6c0,2.4,0,3.5,1.5,3.5c0.9,0,1.5-0.4,1.5-1.8c0-1-0.1-1.4-1.2-2.2l-3.3-2.3
			c-0.2-0.2-0.8-0.7-1.1-1.1c-0.4-0.5-0.9-1.2-0.9-3c0-3.5,2.3-4.3,5.1-4.3c3.4,0,4.8,1.5,4.8,3.9v1.8h-3.4c0-1.9,0-3-1.4-3
			c-0.6,0-1.4,0.1-1.4,1.5c0,0.5,0,1.1,1.1,1.8l3.6,2.5c0.2,0.2,1,0.9,1.1,1.1c0.5,0.7,0.6,1.5,0.6,2.6c0,2.1,0,5.2-5.2,5.2
			c-4.2,0-5.1-2.1-5.1-4.5V17.4z"/>
		<path class="st2" d="M727.6,18.5c0,0.7,0,2.1,1.4,2.1c0.5,0,0.8-0.2,1.1-0.5c0.3-0.4,0.3-0.6,0.3-2.3h3.8v1.3
			c0,3.6-2.7,4.5-5.1,4.5c-3.8,0-5.4-2-5.4-5.4v-7.1c0-2.1,0.7-3.3,1.8-4c1-0.7,2.4-1,3.5-1c1.5,0,3.1,0.5,4.1,1.5
			c1,1,1.2,2.4,1.2,3.4v4.8h-6.7V18.5z M727.6,13h2.8v-2.1c0-0.5,0-1.7-1.3-1.7c-1,0-1.4,0.6-1.4,1.7V13z"/>
		<path class="st2" d="M736.4,17.4h3.6c0,2.4,0,3.5,1.5,3.5c0.9,0,1.5-0.4,1.5-1.8c0-1-0.1-1.4-1.2-2.2l-3.3-2.3
			c-0.2-0.2-0.8-0.7-1.1-1.1c-0.4-0.5-0.9-1.2-0.9-3c0-3.5,2.3-4.3,5.1-4.3c3.4,0,4.8,1.5,4.8,3.9v1.8h-3.4c0-1.9,0-3-1.4-3
			c-0.6,0-1.4,0.1-1.4,1.5c0,0.5,0,1.1,1.1,1.8l3.6,2.5c0.2,0.2,1,0.9,1.1,1.1c0.5,0.7,0.6,1.5,0.6,2.6c0,2.1,0,5.2-5.2,5.2
			c-4.2,0-5.1-2.1-5.1-4.5V17.4z"/>
		<path class="st2" d="M757.5,6.4h3.9v1.1c0.8-0.7,1.7-1.4,3.3-1.4c1.7,0,2.6,1,3.2,1.7c1-0.9,1.9-1.7,3.8-1.7c1.1,0,1.9,0.5,2.4,1
			c0.8,0.8,1,1.7,1,2.9v13.3h-3.9V10.8c0-0.8,0-2-1.4-2c-1.1,0-1.5,0.8-1.5,2.1v12.3h-3.9V10.9c0-0.9,0-2.1-1.4-2.1
			c-1.1,0-1.5,0.8-1.5,2v12.5h-3.9V6.4z"/>
		<path class="st2" d="M777.9,11.6c0-2.5,0-3.4,0.9-4.3c0.8-0.8,2.3-1.3,4.3-1.3c0.8,0,2,0.1,3,0.6c1.7,0.9,2,2.3,2,3.1v9.4
			c0,2.4,0,3.5,0.8,4.1h-4.1c-0.3-0.3-0.4-0.8-0.5-1.5c-0.8,1-1.6,1.8-3.4,1.8c-3.3,0-3.3-3-3.3-4.6c0-3,0-3.9,2.6-5.2l4.1-2
			c0-1.5,0-1.7,0-1.9c0-0.4-0.2-1.1-1.3-1.1c-1.3,0-1.3,0.8-1.3,2.9H777.9z M784.2,14.8l-1.9,1.2c-0.8,0.5-0.9,1.1-0.9,2.8
			c0,1.3,0.2,1.8,0.9,1.8c0.4,0,0.9-0.1,1.9-1V14.8z"/>
		<path class="st2" d="M789.6,6.4h3.9l2.2,10.8l1.7-10.8h3.8l-3.8,18c-0.7,3.4-1.6,4.6-4.6,4.6c-0.8,0-1.1,0-2.6-0.3l0.6-3.1
			c0.7,0.2,1.5,0.2,1.5,0.2c1.7,0,1.8-2.6,1.8-2.7L789.6,6.4z"/>
		<path class="st2" d="M802.5,11c0-2,0.7-4.9,5.3-4.9c1.2,0,2.6,0.3,3.5,0.9c1.4,1,1.6,2.4,1.6,3.8v8.1c0,3-1.9,4.7-5.4,4.7
			c-5.1,0-5.1-3.8-5.1-5.1V11z M806.4,19.2c0,0.4,0,1.7,1.3,1.7c1.4,0,1.4-1.2,1.4-1.8v-8.5c0-1-0.1-2-1.3-2c-1.4,0-1.4,1.3-1.4,2.1
			V19.2z"/>
		<path class="st2" d="M815.7,6.4h3.9l0,2.1c0.7-1.2,1.5-2.5,3.8-2.4V10c-0.3-0.1-0.7-0.3-1.3-0.3c-2.5,0-2.5,2.3-2.5,3.6v9.9h-3.9
			V6.4z"/>
	</g>
</g>
</svg>
