<?xml version="1.0" encoding="utf-8"?>
<!-- Generator: Adobe Illustrator 22.0.0, SVG Export Plug-In . SVG Version: 6.00 Build 0)  -->
<svg version="1.1" id="Capa_1" xmlns="http://www.w3.org/2000/svg" xmlns:xlink="http://www.w3.org/1999/xlink" x="0px" y="0px"
	 viewBox="0 0 629.2 232" style="enable-background:new 0 0 629.2 232;" xml:space="preserve">
<style type="text/css">
	.st0{fill:#FFFFFF;}
	.st1{fill:#FFBE3A;}
	.st2{fill:#F7B30B;}
	.st3{opacity:0.5;fill:#F47A0C;}
</style>
<g>
	
		<image style="overflow:visible;" width="646" height="252" xlink:href="545496F0091159B4.png"  transform="matrix(1 0 0 1 -10.8048 -9)">
	</image>
	
		<image style="overflow:visible;" width="645" height="252" xlink:href="545496F0091159B5.png"  transform="matrix(1 0 0 1 -6.8048 -9)">
	</image>
	<g>
		<g>
			<g>
				<path class="st0" d="M44.5,25.2h3.2v17.5h-3.2V25.2z"/>
				<path class="st0" d="M50.1,30h3l0,0.9c0.6-0.6,1.2-1.2,2.6-1.2c0.9,0,1.6,0.3,2,0.8c0.6,0.7,0.6,1.4,0.6,2.2v9.9h-2.9v-9.3
					c0-0.7,0-1.5-1-1.5c-1.2,0-1.2,1.1-1.2,1.7v9.1h-2.9V30z"/>
				<path class="st0" d="M60.4,25.1h2.9V31c0.5-0.5,1.2-1.3,2.6-1.3c0.9,0,2.7,0.4,2.7,3v10h-2.9v-9c0-0.6,0-1.6-1.1-1.6
					c-0.8,0-1.2,0.5-1.2,1.4v9.2h-2.9V25.1z"/>
				<path class="st0" d="M70.7,25.1h2.9v3h-2.9V25.1z M70.7,30h3v12.7h-3V30z"/>
				<path class="st0" d="M75.9,25.1h2.9V31c1.3-1.2,2.4-1.3,2.7-1.3c1,0,2.7,0.7,2.7,3v7.2c0,2.7-1.9,3.1-2.7,3.1
					c-1.6,0-2.2-0.9-2.6-1.4v1.2h-2.9V25.1z M81.2,33.4c0-0.4,0-1.4-1.1-1.4c-1.3,0-1.3,1-1.3,1.6v5.1c0,0.8,0.1,1.7,1.2,1.7
					c1.2,0,1.2-1.1,1.2-1.7V33.4z"/>
				<path class="st0" d="M89,39c0,0.5,0,1.6,1.1,1.6c0.3,0,0.6-0.1,0.8-0.4c0.2-0.3,0.2-0.4,0.2-1.8H94v1c0,2.8-2,3.4-3.9,3.4
					c-2.9,0-4.1-1.5-4.1-4.1v-5.4c0-1.6,0.5-2.5,1.4-3c0.7-0.5,1.8-0.7,2.7-0.7c1.2,0,2.3,0.4,3.1,1.1c0.7,0.7,0.9,1.8,0.9,2.5v3.6
					H89V39z M89,34.9h2.1v-1.6c0-0.3,0-1.3-1-1.3c-0.8,0-1.1,0.5-1.1,1.3V34.9z"/>
				<path class="st0" d="M102.2,25.2h3v17.5h-3V25.2z"/>
				<path class="st0" d="M107.4,33.9c0-1.9,0-2.5,0.7-3.2c0.6-0.6,1.8-1,3.2-1c0.6,0,1.5,0.1,2.3,0.5c1.3,0.7,1.5,1.8,1.5,2.3v7.1
					c0,1.8,0,2.7,0.6,3.1h-3.1c-0.2-0.2-0.3-0.6-0.3-1.1c-0.6,0.7-1.2,1.4-2.6,1.4c-2.5,0-2.5-2.3-2.5-3.5c0-2.3,0-2.9,1.9-3.9
					l3.1-1.5c0-1.2,0-1.3,0-1.4c0-0.3-0.1-0.8-1-0.8c-1,0-1,0.6-1,2.2H107.4z M112.1,36.3l-1.4,0.9c-0.6,0.4-0.7,0.8-0.7,2.1
					c0,1,0.2,1.4,0.7,1.4c0.3,0,0.7-0.1,1.4-0.7V36.3z"/>
				<path class="st0" d="M123.4,33.9c0-1.9,0-2.5,0.7-3.2c0.6-0.6,1.8-1,3.2-1c0.6,0,1.5,0.1,2.3,0.5c1.3,0.7,1.5,1.8,1.5,2.3v7.1
					c0,1.8,0,2.7,0.6,3.1h-3.1c-0.2-0.2-0.3-0.6-0.3-1.1c-0.6,0.7-1.2,1.4-2.6,1.4c-2.5,0-2.5-2.3-2.5-3.5c0-2.3,0-2.9,1.9-3.9
					l3.1-1.5c0-1.2,0-1.3,0-1.4c0-0.3-0.1-0.8-1-0.8c-1,0-1,0.6-1,2.2H123.4z M128.1,36.3l-1.4,0.9c-0.6,0.4-0.7,0.8-0.7,2.1
					c0,1,0.2,1.4,0.7,1.4c0.3,0,0.7-0.1,1.4-0.7V36.3z"/>
				<path class="st0" d="M138.3,34.8v-1.5c0-0.4,0-1.4-1.1-1.4c-1.2,0-1.2,1.1-1.2,1.7v5.5c0,0.6,0,1.7,1.2,1.7
					c1.1,0,1.1-1.1,1.1-1.6v-1.5h2.9v1.4c0,2.6-1.4,3.8-4,3.8c-0.6,0-2-0.1-3-0.9c-1-0.8-1.1-1.8-1.1-2.8v-5.6
					c0-0.9,0.2-1.8,0.7-2.5c0.8-1,2.1-1.4,3.4-1.4c1.1,0,2.3,0.3,3,0.9c0.8,0.6,1,1.4,1,2.7v1.5H138.3z"/>
				<path class="st0" d="M143.7,25.4h2.9V30h1.8v2h-1.8v7.2c0,0.8,0.1,1.4,1.3,1.4c0.2,0,0.3,0,0.5,0v2.1c-0.2,0-0.6,0.1-1.6,0.1
					c-2.8,0-3.2-1-3.2-2.7v-8.2h-1.6v-2h1.6V25.4z"/>
				<path class="st0" d="M149.8,25.1h2.9v3h-2.9V25.1z M149.8,30h3v12.7h-3V30z"/>
				<path class="st0" d="M153.8,30h2.9l1.3,8.8l1.5-8.8h2.9l-3,12.7h-2.9L153.8,30z"/>
				<path class="st0" d="M163.7,25.1h2.9v3h-2.9V25.1z M163.7,30h3v12.7h-3V30z"/>
				<path class="st0" d="M174,25.1h2.9v17.5h-3l0-1.2c-0.5,0.7-1,1.5-2.5,1.5c-1.2,0-2.1-0.6-2.5-1.3c-0.3-0.6-0.4-1.5-0.4-2.7v-5.8
					c0-0.9,0.1-1.4,0.3-1.9c0.5-1.1,1.7-1.5,2.4-1.5c1.2,0,2,0.7,2.6,1.3V25.1z M171.6,39c0,0.6,0,1.4,1.1,1.4
					c1.2,0,1.2-1.1,1.2-1.5v-5.5c0-0.4,0-1.5-1.2-1.5c-1.1,0-1.1,1-1.1,1.6V39z"/>
				<path class="st0" d="M179.1,33.9c0-1.9,0-2.5,0.7-3.2c0.6-0.6,1.8-1,3.2-1c0.6,0,1.5,0.1,2.3,0.5c1.3,0.7,1.5,1.8,1.5,2.3v7.1
					c0,1.8,0,2.7,0.6,3.1h-3.1c-0.2-0.2-0.3-0.6-0.3-1.1c-0.6,0.7-1.2,1.4-2.6,1.4c-2.5,0-2.5-2.3-2.5-3.5c0-2.3,0-2.9,1.9-3.9
					l3.1-1.5c0-1.2,0-1.3,0-1.4c0-0.3-0.1-0.8-1-0.8c-1,0-1,0.6-1,2.2H179.1z M183.9,36.3l-1.4,0.9c-0.6,0.4-0.7,0.8-0.7,2.1
					c0,1,0.2,1.4,0.7,1.4c0.3,0,0.7-0.1,1.4-0.7V36.3z"/>
				<path class="st0" d="M194.2,25.1h2.9v17.5h-3l0-1.2c-0.5,0.7-1,1.5-2.5,1.5c-1.2,0-2.1-0.6-2.5-1.3c-0.3-0.6-0.4-1.5-0.4-2.7
					v-5.8c0-0.9,0.1-1.4,0.3-1.9c0.5-1.1,1.7-1.5,2.4-1.5c1.2,0,2,0.7,2.6,1.3V25.1z M191.8,39c0,0.6,0,1.4,1.1,1.4
					c1.2,0,1.2-1.1,1.2-1.5v-5.5c0-0.4,0-1.5-1.2-1.5c-1.1,0-1.1,1-1.1,1.6V39z"/>
				<path class="st0" d="M205.5,30h3v0.8c0.6-0.5,1.3-1.1,2.5-1.1c1.3,0,2,0.7,2.4,1.3c0.7-0.7,1.5-1.3,2.9-1.3
					c0.8,0,1.5,0.3,1.8,0.7c0.6,0.6,0.7,1.3,0.7,2.2v10.1h-2.9v-9.4c0-0.6,0-1.5-1.1-1.5c-0.8,0-1.2,0.6-1.2,1.6v9.2h-2.9v-9.3
					c0-0.6,0-1.6-1.1-1.6c-0.8,0-1.1,0.6-1.1,1.5v9.4h-2.9V30z"/>
				<path class="st0" d="M221,30h2.9v9.1c0,0.6,0,1.5,1.1,1.5c1.1,0,1.1-1,1.1-1.7v-9h3v12.7h-3v-1c-0.6,0.5-1.4,1.2-2.7,1.2
					c-0.8,0-2.1-0.4-2.4-2c-0.1-0.4-0.1-0.7-0.1-1.4V30z M225.2,24.7h3.9c-1.3,1.4-1.7,1.7-3.1,3.3h-2.3L225.2,24.7z"/>
				<path class="st0" d="M231.4,25.2h3v17.5h-3V25.2z"/>
				<path class="st0" d="M237.2,25.4h2.9V30h1.8v2h-1.8v7.2c0,0.8,0.1,1.4,1.3,1.4c0.2,0,0.3,0,0.5,0v2.1c-0.2,0-0.6,0.1-1.6,0.1
					c-2.8,0-3.2-1-3.2-2.7v-8.2h-1.6v-2h1.6V25.4z"/>
				<path class="st0" d="M243.2,25.1h2.9v3h-2.9V25.1z M243.2,30h3v12.7h-3V30z"/>
				<path class="st0" d="M248.4,30h2.9v1c0.5-0.4,1.4-1.2,2.7-1.2c0.8,0,1.5,0.3,2,0.8c0.5,0.6,0.7,1.4,0.7,2.5v6.7
					c0,1-0.2,1.6-0.4,1.9c-0.4,0.8-1.3,1.2-2.2,1.2c-1.2,0-2-0.7-2.8-1.3V47h-2.9V30z M251.3,39.1c0,0.8,0.3,1.4,1.2,1.4
					c1.1,0,1.2-0.8,1.2-1.3v-5.9c0-0.9-0.4-1.4-1.2-1.4c-1.2,0-1.2,1.1-1.2,1.5V39.1z"/>
				<path class="st0" d="M258.7,25.2h3v17.5h-3V25.2z"/>
				<path class="st0" d="M266.6,39c0,0.5,0,1.6,1.1,1.6c0.3,0,0.6-0.1,0.8-0.4c0.2-0.3,0.2-0.4,0.2-1.8h2.9v1c0,2.8-2,3.4-3.9,3.4
					c-2.9,0-4.1-1.5-4.1-4.1v-5.4c0-1.6,0.5-2.5,1.4-3c0.7-0.5,1.8-0.7,2.7-0.7c1.2,0,2.3,0.4,3.1,1.1c0.7,0.7,0.9,1.8,0.9,2.5v3.6
					h-5.1V39z M266.7,34.9h2.1v-1.6c0-0.3,0-1.3-1-1.3c-0.8,0-1.1,0.5-1.1,1.3V34.9z"/>
				<path class="st0" d="M285.1,25.1h2.9v17.5h-3l0-1.2c-0.5,0.7-1,1.5-2.5,1.5c-1.2,0-2.1-0.6-2.5-1.3c-0.3-0.6-0.4-1.5-0.4-2.7
					v-5.8c0-0.9,0.1-1.4,0.3-1.9c0.5-1.1,1.7-1.5,2.4-1.5c1.2,0,2,0.7,2.6,1.3V25.1z M282.7,39c0,0.6,0,1.4,1.1,1.4
					c1.2,0,1.2-1.1,1.2-1.5v-5.5c0-0.4,0-1.5-1.2-1.5c-1.1,0-1.1,1-1.1,1.6V39z"/>
				<path class="st0" d="M293,39c0,0.5,0,1.6,1.1,1.6c0.3,0,0.6-0.1,0.8-0.4c0.2-0.3,0.2-0.4,0.2-1.8h2.9v1c0,2.8-2,3.4-3.9,3.4
					c-2.9,0-4.1-1.5-4.1-4.1v-5.4c0-1.6,0.5-2.5,1.4-3c0.7-0.5,1.8-0.7,2.7-0.7c1.2,0,2.3,0.4,3.1,1.1c0.7,0.7,0.9,1.8,0.9,2.5v3.6
					H293V39z M293,34.9h2.1v-1.6c0-0.3,0-1.3-1-1.3c-0.8,0-1.1,0.5-1.1,1.3V34.9z"/>
				<path class="st0" d="M306.2,25.2h3v17.5h-3V25.2z"/>
				<path class="st0" d="M311.2,33.4c0-1.5,0.5-3.7,4-3.7c0.9,0,1.9,0.2,2.7,0.7c1.1,0.7,1.2,1.8,1.2,2.8v6.1c0,2.3-1.4,3.5-4.1,3.5
					c-3.9,0-3.9-2.9-3.9-3.8V33.4z M314.2,39.6c0,0.3,0,1.3,1,1.3c1,0,1-0.9,1-1.3v-6.4c0-0.7-0.1-1.5-1-1.5c-1.1,0-1.1,1-1.1,1.6
					V39.6z"/>
				<path class="st0" d="M320.8,38.2h2.7c0,1.8,0,2.6,1.2,2.6c0.6,0,1.1-0.3,1.1-1.4c0-0.7,0-1.1-0.9-1.7l-2.5-1.7
					c-0.2-0.1-0.6-0.5-0.8-0.8c-0.3-0.4-0.7-0.9-0.7-2.3c0-2.7,1.7-3.3,3.8-3.3c2.6,0,3.6,1.1,3.6,2.9V34h-2.6c0-1.4,0-2.3-1.1-2.3
					c-0.4,0-1,0.1-1,1.1c0,0.3,0,0.8,0.8,1.4l2.7,1.9c0.2,0.1,0.7,0.7,0.8,0.8c0.3,0.5,0.4,1.2,0.4,2c0,1.6,0,3.9-3.9,3.9
					c-3.2,0-3.8-1.6-3.8-3.4V38.2z"/>
				<path class="st0" d="M341.8,34.8v-1.5c0-0.4,0-1.4-1.1-1.4c-1.2,0-1.2,1.1-1.2,1.7v5.5c0,0.6,0,1.7,1.2,1.7
					c1.1,0,1.1-1.1,1.1-1.6v-1.5h2.9v1.4c0,2.6-1.4,3.8-4,3.8c-0.6,0-2-0.1-3-0.9c-1-0.8-1.1-1.8-1.1-2.8v-5.6
					c0-0.9,0.2-1.8,0.7-2.5c0.8-1,2.1-1.4,3.4-1.4c1.1,0,2.3,0.3,3,0.9c0.8,0.6,1,1.4,1,2.7v1.5H341.8z"/>
				<path class="st0" d="M345.4,30h2.9l1.6,8.2l1.3-8.2h2.9l-2.9,13.6c-0.5,2.6-1.2,3.5-3.5,3.5c-0.6,0-0.8,0-2-0.2l0.4-2.3
					c0.5,0.2,1.1,0.2,1.2,0.2c1.3,0,1.4-1.9,1.3-2L345.4,30z"/>
				<path class="st0" d="M354.9,38.2h2.7c0,1.8,0,2.6,1.2,2.6c0.6,0,1.1-0.3,1.1-1.4c0-0.7,0-1.1-0.9-1.7l-2.5-1.7
					c-0.2-0.1-0.6-0.5-0.8-0.8c-0.3-0.4-0.7-0.9-0.7-2.3c0-2.7,1.7-3.3,3.8-3.3c2.6,0,3.6,1.1,3.6,2.9V34h-2.6c0-1.4,0-2.3-1.1-2.3
					c-0.4,0-1,0.1-1,1.1c0,0.3,0,0.8,0.8,1.4l2.7,1.9c0.2,0.1,0.7,0.7,0.8,0.8c0.3,0.5,0.4,1.2,0.4,2c0,1.6,0,3.9-3.9,3.9
					c-3.2,0-3.8-1.6-3.8-3.4V38.2z"/>
				<path class="st0" d="M364.7,25.2h3.2V40h4.8v2.7h-8V25.2z"/>
				<path class="st0" d="M371.3,25.2h9.7v2.5h-3.2v15h-3.2v-15h-3.2V25.2z"/>
				<path class="st0" d="M380.2,38.2h2.7c0,1.8,0,2.6,1.2,2.6c0.6,0,1.1-0.3,1.1-1.4c0-0.7,0-1.1-0.9-1.7l-2.5-1.7
					c-0.2-0.1-0.6-0.5-0.8-0.8c-0.3-0.4-0.7-0.9-0.7-2.3c0-2.7,1.7-3.3,3.8-3.3c2.6,0,3.6,1.1,3.6,2.9V34h-2.6c0-1.4,0-2.3-1.1-2.3
					c-0.4,0-1,0.1-1,1.1c0,0.3,0,0.8,0.8,1.4l2.7,1.9c0.2,0.1,0.7,0.7,0.8,0.8c0.3,0.5,0.4,1.2,0.4,2c0,1.6,0,3.9-3.9,3.9
					c-3.2,0-3.8-1.6-3.8-3.4V38.2z"/>
				<path class="st0" d="M398.9,39c0,0.5,0,1.6,1.1,1.6c0.3,0,0.6-0.1,0.8-0.4c0.2-0.3,0.2-0.4,0.2-1.8h2.9v1c0,2.8-2,3.4-3.9,3.4
					c-2.9,0-4.1-1.5-4.1-4.1v-5.4c0-1.6,0.5-2.5,1.4-3c0.7-0.5,1.8-0.7,2.7-0.7c1.2,0,2.3,0.4,3.1,1.1c0.7,0.7,0.9,1.8,0.9,2.5v3.6
					h-5.1V39z M398.9,34.9h2.1v-1.6c0-0.3,0-1.3-1-1.3c-0.8,0-1.1,0.5-1.1,1.3V34.9z"/>
				<path class="st0" d="M405.9,30h3l0,0.9c0.6-0.6,1.2-1.2,2.6-1.2c0.9,0,1.6,0.3,2,0.8c0.6,0.7,0.6,1.4,0.6,2.2v9.9h-2.9v-9.3
					c0-0.7,0-1.5-1-1.5c-1.2,0-1.2,1.1-1.2,1.7v9.1h-2.9V30z"/>
				<path class="st0" d="M425.2,39c0,0.5,0,1.6,1.1,1.6c0.3,0,0.6-0.1,0.8-0.4c0.2-0.3,0.2-0.4,0.2-1.8h2.9v1c0,2.8-2,3.4-3.9,3.4
					c-2.9,0-4.1-1.5-4.1-4.1v-5.4c0-1.6,0.5-2.5,1.4-3c0.7-0.5,1.8-0.7,2.7-0.7c1.2,0,2.3,0.4,3.1,1.1c0.7,0.7,0.9,1.8,0.9,2.5v3.6
					h-5.1V39z M425.3,34.9h2.1v-1.6c0-0.3,0-1.3-1-1.3c-0.8,0-1.1,0.5-1.1,1.3V34.9z"/>
				<path class="st0" d="M432.3,25.2h3v17.5h-3V25.2z"/>
				<path class="st0" d="M443.6,33.9c0-1.9,0-2.5,0.7-3.2c0.6-0.6,1.8-1,3.2-1c0.6,0,1.5,0.1,2.3,0.5c1.3,0.7,1.5,1.8,1.5,2.3v7.1
					c0,1.8,0,2.7,0.6,3.1h-3.1c-0.2-0.2-0.3-0.6-0.3-1.1c-0.6,0.7-1.2,1.4-2.6,1.4c-2.5,0-2.5-2.3-2.5-3.5c0-2.3,0-2.9,1.9-3.9
					l3.1-1.5c0-1.2,0-1.3,0-1.4c0-0.3-0.1-0.8-1-0.8c-1,0-1,0.6-1,2.2H443.6z M448.3,36.3l-1.4,0.9c-0.6,0.4-0.7,0.8-0.7,2.1
					c0,1,0.2,1.4,0.7,1.4c0.3,0,0.7-0.1,1.4-0.7V36.3z"/>
				<path class="st0" d="M453,38.2h2.7c0,1.8,0,2.6,1.2,2.6c0.6,0,1.1-0.3,1.1-1.4c0-0.7,0-1.1-0.9-1.7l-2.5-1.7
					c-0.2-0.1-0.6-0.5-0.8-0.8c-0.3-0.4-0.7-0.9-0.7-2.3c0-2.7,1.7-3.3,3.8-3.3c2.6,0,3.6,1.1,3.6,2.9V34h-2.6c0-1.4,0-2.3-1.1-2.3
					c-0.4,0-1,0.1-1,1.1c0,0.3,0,0.8,0.8,1.4l2.7,1.9c0.2,0.1,0.7,0.7,0.8,0.8c0.3,0.5,0.4,1.2,0.4,2c0,1.6,0,3.9-3.9,3.9
					c-3.2,0-3.8-1.6-3.8-3.4V38.2z"/>
				<path class="st0" d="M462.7,30h3v0.8c0.6-0.5,1.3-1.1,2.5-1.1c1.3,0,2,0.7,2.4,1.3c0.7-0.7,1.5-1.3,2.9-1.3
					c0.8,0,1.5,0.3,1.8,0.7c0.6,0.6,0.7,1.3,0.7,2.2v10.1h-2.9v-9.4c0-0.6,0-1.5-1.1-1.5c-0.8,0-1.2,0.6-1.2,1.6v9.2h-2.9v-9.3
					c0-0.6,0-1.6-1.1-1.6c-0.8,0-1.1,0.6-1.1,1.5v9.4h-2.9V30z"/>
				<path class="st0" d="M478.2,33.9c0-1.9,0-2.5,0.7-3.2c0.6-0.6,1.8-1,3.2-1c0.6,0,1.5,0.1,2.3,0.5c1.3,0.7,1.5,1.8,1.5,2.3v7.1
					c0,1.8,0,2.7,0.6,3.1h-3.1c-0.2-0.2-0.3-0.6-0.3-1.1c-0.6,0.7-1.2,1.4-2.6,1.4c-2.5,0-2.5-2.3-2.5-3.5c0-2.3,0-2.9,1.9-3.9
					l3.1-1.5c0-1.2,0-1.3,0-1.4c0-0.3-0.1-0.8-1-0.8c-1,0-1,0.6-1,2.2H478.2z M482.9,36.3l-1.4,0.9c-0.6,0.4-0.7,0.8-0.7,2.1
					c0,1,0.2,1.4,0.7,1.4c0.3,0,0.7-0.1,1.4-0.7V36.3z"/>
				<path class="st0" d="M488.8,30h3v3.2h-3V30z M488.8,39.4h3v3.2h-3V39.4z"/>
				<path class="st0" d="M69.3,53.2h5.2l2.1,12.2l2.1-12.2h5.2v17.5h-3.2L81,55.5l-2.8,15.2h-3l-2.9-15.2l0.2,15.2h-3.2V53.2z"/>
				<path class="st0" d="M86.1,61.4c0-1.5,0.5-3.7,4-3.7c0.9,0,1.9,0.2,2.7,0.7c1.1,0.7,1.2,1.8,1.2,2.8v6.1c0,2.3-1.4,3.5-4.1,3.5
					c-3.9,0-3.9-2.9-3.9-3.8V61.4z M89,67.6c0,0.3,0,1.3,1,1.3c1,0,1-0.9,1-1.3v-6.4c0-0.7-0.1-1.5-1-1.5c-1.1,0-1.1,1-1.1,1.6V67.6
					z"/>
				<path class="st0" d="M101.3,53.1h2.9v17.5h-3l0-1.2c-0.5,0.7-1,1.5-2.5,1.5c-1.2,0-2.1-0.6-2.5-1.3c-0.3-0.6-0.4-1.5-0.4-2.7
					v-5.8c0-0.9,0.1-1.4,0.3-1.9c0.5-1.1,1.7-1.5,2.4-1.5c1.2,0,2,0.7,2.6,1.3V53.1z M98.8,67c0,0.6,0,1.4,1.1,1.4
					c1.2,0,1.2-1.1,1.2-1.5v-5.5c0-0.4,0-1.5-1.2-1.5c-1.1,0-1.1,1-1.1,1.6V67z"/>
				<path class="st0" d="M106.4,58h2.9v9.1c0,0.6,0,1.5,1.1,1.5c1.1,0,1.1-1,1.1-1.7v-9h3v12.7h-3v-1c-0.6,0.5-1.4,1.2-2.7,1.2
					c-0.8,0-2.1-0.4-2.4-2c-0.1-0.4-0.1-0.7-0.1-1.4V58z"/>
				<path class="st0" d="M116.7,53.2h3v17.5h-3V53.2z"/>
				<path class="st0" d="M121.8,61.9c0-1.9,0-2.5,0.7-3.2c0.6-0.6,1.8-1,3.2-1c0.6,0,1.5,0.1,2.3,0.5c1.3,0.7,1.5,1.8,1.5,2.3v7.1
					c0,1.8,0,2.7,0.6,3.1H127c-0.2-0.2-0.3-0.6-0.3-1.1c-0.6,0.7-1.2,1.4-2.6,1.4c-2.5,0-2.5-2.3-2.5-3.5c0-2.3,0-2.9,1.9-3.9
					l3.1-1.5c0-1.2,0-1.3,0-1.4c0-0.3-0.1-0.8-1-0.8c-1,0-1,0.6-1,2.2H121.8z M126.6,64.3l-1.4,0.9c-0.6,0.4-0.7,0.8-0.7,2.1
					c0,1,0.2,1.4,0.7,1.4c0.3,0,0.7-0.1,1.4-0.7V64.3z"/>
				<path class="st0" d="M131.7,58h3l0,0.9c0.6-0.6,1.2-1.2,2.6-1.2c0.9,0,1.6,0.3,2,0.8c0.6,0.7,0.6,1.4,0.6,2.2v9.9h-2.9v-9.3
					c0-0.7,0-1.5-1-1.5c-1.2,0-1.2,1.1-1.2,1.7v9.1h-2.9V58z"/>
				<path class="st0" d="M147.2,53.1h2.9v17.5h-3l0-1.2c-0.5,0.7-1,1.5-2.5,1.5c-1.2,0-2.1-0.6-2.5-1.3c-0.3-0.6-0.4-1.5-0.4-2.7
					v-5.8c0-0.9,0.1-1.4,0.3-1.9c0.5-1.1,1.7-1.5,2.4-1.5c1.2,0,2,0.7,2.6,1.3V53.1z M144.8,67c0,0.6,0,1.4,1.1,1.4
					c1.2,0,1.2-1.1,1.2-1.5v-5.5c0-0.4,0-1.5-1.2-1.5c-1.1,0-1.1,1-1.1,1.6V67z"/>
				<path class="st0" d="M152.2,61.4c0-1.5,0.5-3.7,4-3.7c0.9,0,1.9,0.2,2.7,0.7c1.1,0.7,1.2,1.8,1.2,2.8v6.1c0,2.3-1.4,3.5-4.1,3.5
					c-3.9,0-3.9-2.9-3.9-3.8V61.4z M155.2,67.6c0,0.3,0,1.3,1,1.3c1,0,1-0.9,1-1.3v-6.4c0-0.7-0.1-1.5-1-1.5c-1.1,0-1.1,1-1.1,1.6
					V67.6z"/>
				<path class="st0" d="M168.4,53.2h3v17.5h-3V53.2z"/>
				<path class="st0" d="M173.5,61.9c0-1.9,0-2.5,0.7-3.2c0.6-0.6,1.8-1,3.2-1c0.6,0,1.5,0.1,2.3,0.5c1.3,0.7,1.5,1.8,1.5,2.3v7.1
					c0,1.8,0,2.7,0.6,3.1h-3.1c-0.2-0.2-0.3-0.6-0.3-1.1c-0.6,0.7-1.2,1.4-2.6,1.4c-2.5,0-2.5-2.3-2.5-3.5c0-2.3,0-2.9,1.9-3.9
					l3.1-1.5c0-1.2,0-1.3,0-1.4c0-0.3-0.1-0.8-1-0.8c-1,0-1,0.6-1,2.2H173.5z M178.2,64.3l-1.4,0.9c-0.6,0.4-0.7,0.8-0.7,2.1
					c0,1,0.2,1.4,0.7,1.4c0.3,0,0.7-0.1,1.4-0.7V64.3z"/>
				<path class="st0" d="M192.1,53.2h3.7l3.3,17.5h-3.3l-0.4-2.8h-3l-0.5,2.8h-3.2L192.1,53.2z M192.8,65.1h2.2l-1.1-7.5L192.8,65.1
					z"/>
				<path class="st0" d="M205.5,62.8v-1.5c0-0.4,0-1.4-1.1-1.4c-1.2,0-1.2,1.1-1.2,1.7v5.5c0,0.6,0,1.7,1.2,1.7
					c1.1,0,1.1-1.1,1.1-1.6v-1.5h2.9v1.4c0,2.6-1.4,3.8-4,3.8c-0.6,0-2-0.1-3-0.9c-1-0.8-1.1-1.8-1.1-2.8v-5.6
					c0-0.9,0.2-1.8,0.7-2.5c0.8-1,2.1-1.4,3.4-1.4c1.1,0,2.3,0.3,3,0.9c0.8,0.6,1,1.4,1,2.7v1.5H205.5z"/>
				<path class="st0" d="M210.9,53.4h2.9V58h1.8v2h-1.8v7.2c0,0.8,0.1,1.4,1.3,1.4c0.2,0,0.3,0,0.5,0v2.1c-0.2,0-0.6,0.1-1.6,0.1
					c-2.8,0-3.2-1-3.2-2.7v-8.2h-1.6v-2h1.6V53.4z"/>
				<path class="st0" d="M216.9,53.1h2.9v3h-2.9V53.1z M216.9,58h3v12.7h-3V58z"/>
				<path class="st0" d="M221,58h2.9l1.3,8.8l1.5-8.8h2.9l-3,12.7h-2.9L221,58z"/>
				<path class="st0" d="M230.8,53.1h2.9v3h-2.9V53.1z M230.8,58h3v12.7h-3V58z"/>
				<path class="st0" d="M241.2,53.1h2.9v17.5h-3l0-1.2c-0.5,0.7-1,1.5-2.5,1.5c-1.2,0-2.1-0.6-2.5-1.3c-0.3-0.6-0.4-1.5-0.4-2.7
					v-5.8c0-0.9,0.1-1.4,0.3-1.9c0.5-1.1,1.7-1.5,2.4-1.5c1.2,0,2,0.7,2.6,1.3V53.1z M238.8,67c0,0.6,0,1.4,1.1,1.4
					c1.2,0,1.2-1.1,1.2-1.5v-5.5c0-0.4,0-1.5-1.2-1.5c-1.1,0-1.1,1-1.1,1.6V67z"/>
				<path class="st0" d="M246.3,61.9c0-1.9,0-2.5,0.7-3.2c0.6-0.6,1.8-1,3.2-1c0.6,0,1.5,0.1,2.3,0.5c1.3,0.7,1.5,1.8,1.5,2.3v7.1
					c0,1.8,0,2.7,0.6,3.1h-3.1c-0.2-0.2-0.3-0.6-0.3-1.1c-0.6,0.7-1.2,1.4-2.6,1.4c-2.5,0-2.5-2.3-2.5-3.5c0-2.3,0-2.9,1.9-3.9
					L251,62c0-1.2,0-1.3,0-1.4c0-0.3-0.1-0.8-1-0.8c-1,0-1,0.6-1,2.2H246.3z M251,64.3l-1.4,0.9c-0.6,0.4-0.7,0.8-0.7,2.1
					c0,1,0.2,1.4,0.7,1.4c0.3,0,0.7-0.1,1.4-0.7V64.3z"/>
				<path class="st0" d="M261.3,53.1h2.9v17.5h-3l0-1.2c-0.5,0.7-1,1.5-2.5,1.5c-1.2,0-2.1-0.6-2.5-1.3c-0.3-0.6-0.4-1.5-0.4-2.7
					v-5.8c0-0.9,0.1-1.4,0.3-1.9c0.5-1.1,1.7-1.5,2.4-1.5c1.2,0,2,0.7,2.6,1.3V53.1z M258.9,67c0,0.6,0,1.4,1.1,1.4
					c1.2,0,1.2-1.1,1.2-1.5v-5.5c0-0.4,0-1.5-1.2-1.5c-1.1,0-1.1,1-1.1,1.6V67z"/>
				<path class="st0" d="M272.8,53.1h8.5v2.7H276v4.1h4.9v2.7H276v5.4h5.5v2.7h-8.7V53.1z"/>
				<path class="st0" d="M282.9,61.4c0-1.5,0.5-3.7,4-3.7c0.9,0,1.9,0.2,2.7,0.7c1.1,0.7,1.2,1.8,1.2,2.8v6.1c0,2.3-1.4,3.5-4.1,3.5
					c-3.9,0-3.9-2.9-3.9-3.8V61.4z M285.8,67.6c0,0.3,0,1.3,1,1.3c1,0,1-0.9,1-1.3v-6.4c0-0.7-0.1-1.5-1-1.5c-1.1,0-1.1,1-1.1,1.6
					V67.6z"/>
				<path class="st0" d="M292.4,66.2h2.7c0,1.8,0,2.6,1.2,2.6c0.6,0,1.1-0.3,1.1-1.4c0-0.7,0-1.1-0.9-1.7l-2.5-1.7
					c-0.2-0.1-0.6-0.5-0.8-0.8c-0.3-0.4-0.7-0.9-0.7-2.3c0-2.7,1.7-3.3,3.8-3.3c2.6,0,3.6,1.1,3.6,2.9V62h-2.6c0-1.4,0-2.3-1.1-2.3
					c-0.4,0-1,0.1-1,1.1c0,0.3,0,0.8,0.8,1.4l2.7,1.9c0.2,0.1,0.7,0.7,0.8,0.8c0.3,0.5,0.4,1.2,0.4,2c0,1.6,0,3.9-3.9,3.9
					c-3.2,0-3.8-1.6-3.8-3.4V66.2z"/>
				<path class="st0" d="M302.1,53.1h2.9v3h-2.9V53.1z M302.1,58h3v12.7h-3V58z"/>
				<path class="st0" d="M307.3,58h3l0,0.9c0.6-0.6,1.2-1.2,2.6-1.2c0.9,0,1.6,0.3,2,0.8c0.6,0.7,0.6,1.4,0.6,2.2v9.9h-2.9v-9.3
					c0-0.7,0-1.5-1-1.5c-1.2,0-1.2,1.1-1.2,1.7v9.1h-2.9V58z"/>
				<path class="st0" d="M320.4,67c0,0.5,0,1.6,1.1,1.6c0.3,0,0.6-0.1,0.8-0.4c0.2-0.3,0.2-0.4,0.2-1.8h2.9v1c0,2.8-2,3.4-3.9,3.4
					c-2.9,0-4.1-1.5-4.1-4.1v-5.4c0-1.6,0.5-2.5,1.4-3c0.7-0.5,1.8-0.7,2.7-0.7c1.2,0,2.3,0.4,3.1,1.1c0.7,0.7,0.9,1.8,0.9,2.5v3.6
					h-5.1V67z M320.4,62.9h2.1v-1.6c0-0.3,0-1.3-1-1.3c-0.8,0-1.1,0.5-1.1,1.3V62.9z"/>
				<path class="st0" d="M327.3,61.4c0-1.5,0.5-3.7,4-3.7c0.9,0,1.9,0.2,2.7,0.7c1.1,0.7,1.2,1.8,1.2,2.8v6.1c0,2.3-1.4,3.5-4.1,3.5
					c-3.9,0-3.9-2.9-3.9-3.8V61.4z M330.2,67.6c0,0.3,0,1.3,1,1.3c1,0,1-0.9,1-1.3v-6.4c0-0.7-0.1-1.5-1-1.5c-1.1,0-1.1,1-1.1,1.6
					V67.6z"/>
				<path class="st0" d="M340.7,58h1.3v2h-1.3v10.7h-2.9V59.9h-1.3v-2h1.3v-2.2c0-2.6,2.2-2.6,3.3-2.6c0.4,0,0.6,0,1,0v2.4
					c-0.2,0-0.6,0-0.6,0c-0.8,0-0.8,0.6-0.8,0.9V58z"/>
				<path class="st0" d="M343.4,53.1h2.9v3h-2.9V53.1z M343.4,58h3v12.7h-3V58z"/>
				<path class="st0" d="M348.6,53.2h3v17.5h-3V53.2z"/>
				<path class="st0" d="M353.7,61.9c0-1.9,0-2.5,0.7-3.2c0.6-0.6,1.8-1,3.2-1c0.6,0,1.5,0.1,2.3,0.5c1.3,0.7,1.5,1.8,1.5,2.3v7.1
					c0,1.8,0,2.7,0.6,3.1h-3.1c-0.2-0.2-0.3-0.6-0.3-1.1c-0.6,0.7-1.2,1.4-2.6,1.4c-2.5,0-2.5-2.3-2.5-3.5c0-2.3,0-2.9,1.9-3.9
					l3.1-1.5c0-1.2,0-1.3,0-1.4c0-0.3-0.1-0.8-1-0.8c-1,0-1,0.6-1,2.2H353.7z M358.4,64.3l-1.4,0.9c-0.6,0.4-0.7,0.8-0.7,2.1
					c0,1,0.2,1.4,0.7,1.4c0.3,0,0.7-0.1,1.4-0.7V64.3z"/>
				<path class="st0" d="M68.2,81.2c0-2.3,1.6-3.8,3.7-4.7v1.6c-1.5,0.9-1.7,2.3-1.7,3.4v6.6c0,1.4,0.4,2.1,1.7,3.1v1.5
					c-0.8-0.3-2-1-2.7-1.9c-0.6-0.8-1-1.6-1-2.9V81.2z"/>
				<path class="st0" d="M74,77.6h4.4c2.2,0,2.2,1.4,2.2,2.5v1.3c0,1.5-0.5,1.8-1.5,2c0.5,0.1,1.6,0.5,1.6,2.1V88
					c0,0.6,0.1,1.2,0.5,1.6h-2.4c-0.3-0.5-0.3-1-0.3-1.3v-2.6c0-0.8,0-1.4-1.2-1.4h-1.1v5.3H74V77.6z M76.2,82.6h1.2
					c1,0,1-0.5,1-1.2v-1.1c0-1-0.5-1-1-1h-1.2V82.6z"/>
				<path class="st0" d="M84.9,87.2c0,0.4,0,1.1,0.7,1.1c0.2,0,0.4-0.1,0.5-0.3c0.2-0.2,0.2-0.3,0.2-1.2h2v0.7
					c0,1.9-1.4,2.3-2.7,2.3c-2,0-2.8-1-2.8-2.8v-3.7c0-1.1,0.4-1.7,0.9-2.1c0.5-0.4,1.2-0.5,1.8-0.5c0.8,0,1.6,0.3,2.1,0.8
					c0.5,0.5,0.6,1.2,0.6,1.7v2.5h-3.5V87.2z M84.9,84.3h1.4v-1.1c0-0.2,0-0.9-0.7-0.9c-0.5,0-0.7,0.3-0.7,0.9V84.3z"/>
				<path class="st0" d="M94.1,84.2v-1.1c0-0.3,0-1-0.7-1c-0.8,0-0.8,0.8-0.8,1.2v3.8c0,0.4,0,1.1,0.8,1.1c0.8,0,0.8-0.8,0.8-1.1v-1
					h2v1c0,1.8-1,2.6-2.8,2.6c-0.4,0-1.4-0.1-2.1-0.6c-0.7-0.5-0.8-1.2-0.8-1.9v-3.9c0-0.6,0.1-1.2,0.5-1.7c0.5-0.7,1.4-1,2.3-1
					c0.7,0,1.5,0.2,2.1,0.6c0.5,0.4,0.7,1,0.7,1.8v1H94.1z"/>
				<path class="st0" d="M98.2,77.6h2v12h-2V77.6z"/>
				<path class="st0" d="M102.6,80.9h2v6.3c0,0.4,0,1,0.7,1c0.8,0,0.8-0.7,0.8-1.2v-6.2h2v8.7h-2V89c-0.4,0.4-1,0.9-1.9,0.9
					c-0.6,0-1.4-0.3-1.6-1.3c-0.1-0.3-0.1-0.5-0.1-1V80.9z"/>
				<path class="st0" d="M111,77.8h2v3.1h1.2v1.3H113v5c0,0.6,0.1,1,0.9,1c0.1,0,0.2,0,0.4,0v1.4c-0.1,0-0.4,0.1-1.1,0.1
					c-1.9,0-2.2-0.7-2.2-1.8v-5.6h-1.1v-1.3h1.1V77.8z"/>
				<path class="st0" d="M116.1,83.6c0-1.3,0-1.7,0.5-2.2c0.4-0.4,1.2-0.7,2.2-0.7c0.4,0,1,0.1,1.5,0.3c0.9,0.5,1,1.2,1,1.6v4.8
					c0,1.3,0,1.8,0.4,2.1h-2.1c-0.2-0.2-0.2-0.4-0.2-0.8c-0.4,0.5-0.8,1-1.8,1c-1.7,0-1.7-1.6-1.7-2.4c0-1.5,0-2,1.3-2.7l2.1-1.1
					c0-0.8,0-0.9,0-1c0-0.2-0.1-0.6-0.7-0.6c-0.7,0-0.7,0.4-0.7,1.5H116.1z M119.4,85.3l-1,0.6c-0.4,0.3-0.5,0.6-0.5,1.4
					c0,0.7,0.1,1,0.5,1c0.2,0,0.5-0.1,1-0.5V85.3z"/>
				<path class="st0" d="M123.7,80.9h2v0.6c0.4-0.3,0.9-0.7,1.7-0.7c0.9,0,1.4,0.5,1.6,0.9c0.5-0.5,1-0.9,2-0.9c0.6,0,1,0.2,1.3,0.5
					c0.4,0.4,0.5,0.9,0.5,1.5v6.9h-2v-6.4c0-0.4,0-1-0.7-1c-0.6,0-0.8,0.4-0.8,1.1v6.3h-2v-6.4c0-0.4,0-1.1-0.7-1.1
					c-0.6,0-0.8,0.4-0.8,1v6.4h-2V80.9z"/>
				<path class="st0" d="M135.2,77.6h2v2.1h-2V77.6z M135.2,80.9h2v8.7h-2V80.9z"/>
				<path class="st0" d="M141.5,87.2c0,0.4,0,1.1,0.7,1.1c0.2,0,0.4-0.1,0.5-0.3c0.2-0.2,0.2-0.3,0.2-1.2h2v0.7
					c0,1.9-1.4,2.3-2.7,2.3c-2,0-2.8-1-2.8-2.8v-3.7c0-1.1,0.4-1.7,0.9-2.1c0.5-0.4,1.2-0.5,1.8-0.5c0.8,0,1.6,0.3,2.1,0.8
					c0.5,0.5,0.6,1.2,0.6,1.7v2.5h-3.5V87.2z M141.5,84.3h1.4v-1.1c0-0.2,0-0.9-0.7-0.9c-0.5,0-0.7,0.3-0.7,0.9V84.3z"/>
				<path class="st0" d="M147.2,80.9h2.1l0,0.6c0.4-0.4,0.9-0.8,1.8-0.8c0.6,0,1.1,0.2,1.4,0.6c0.4,0.5,0.4,1,0.4,1.5v6.8h-2v-6.4
					c0-0.5,0-1.1-0.7-1.1c-0.9,0-0.9,0.8-0.9,1.2v6.3h-2V80.9z"/>
				<path class="st0" d="M155.6,77.8h2v3.1h1.2v1.3h-1.2v5c0,0.6,0.1,1,0.9,1c0.1,0,0.2,0,0.4,0v1.4c-0.1,0-0.4,0.1-1.1,0.1
					c-1.9,0-2.2-0.7-2.2-1.8v-5.6h-1.1v-1.3h1.1V77.8z"/>
				<path class="st0" d="M160.5,83.3c0-1.1,0.4-2.5,2.8-2.5c0.6,0,1.3,0.1,1.8,0.5c0.7,0.5,0.8,1.3,0.8,2v4.2c0,1.6-1,2.4-2.8,2.4
					c-2.7,0-2.7-2-2.7-2.6V83.3z M162.5,87.5c0,0.2,0,0.9,0.7,0.9c0.7,0,0.7-0.6,0.7-0.9v-4.4c0-0.5-0.1-1.1-0.7-1.1
					c-0.7,0-0.7,0.7-0.7,1.1V87.5z"/>
				<path class="st0" d="M168,87.5h2v2.2l-1.4,2.3h-0.8l1.2-2.3h-1V87.5z"/>
				<path class="st0" d="M177.4,77.6h3.6l1.4,8.4l1.4-8.4h3.6v12h-2.2l0.2-10.4l-1.9,10.4h-2.1l-2-10.4l0.2,10.4h-2.2V77.6z"/>
				<path class="st0" d="M189.8,77.6h2v2.1h-2V77.6z M189.8,80.9h2v8.7h-2V80.9z"/>
				<path class="st0" d="M197.8,80.9h2v9c0,0.9,0,2.8-2.9,2.8c-2.7,0-2.7-1.6-2.7-2.4h2c0,0.1,0,0.3,0.1,0.5
					c0.1,0.2,0.3,0.4,0.7,0.4c0.7,0,0.8-0.5,0.8-1v-1.3c-0.3,0.3-0.7,0.8-1.8,0.8c-1.7,0-1.9-1.2-1.9-2.2V83c0-0.3,0-2.2,1.8-2.2
					c0.9,0,1.4,0.5,1.8,0.9V80.9z M196.1,87.2c0,0.3,0,1,0.8,1c0.7,0,0.8-0.5,0.8-1v-3.8c0-0.4,0-1.1-0.8-1.1c-0.8,0-0.8,0.8-0.8,1
					V87.2z"/>
				<path class="st0" d="M202.1,80.9h2l0,1.1c0.3-0.6,0.8-1.3,2-1.3v2c-0.2-0.1-0.4-0.1-0.7-0.1c-1.3,0-1.3,1.2-1.3,1.9v5.1h-2V80.9
					z"/>
				<path class="st0" d="M207.6,83.6c0-1.3,0-1.7,0.5-2.2c0.4-0.4,1.2-0.7,2.2-0.7c0.4,0,1,0.1,1.5,0.3c0.9,0.5,1,1.2,1,1.6v4.8
					c0,1.3,0,1.8,0.4,2.1h-2.1c-0.2-0.2-0.2-0.4-0.2-0.8c-0.4,0.5-0.8,1-1.8,1c-1.7,0-1.7-1.6-1.7-2.4c0-1.5,0-2,1.3-2.7l2.1-1.1
					c0-0.8,0-0.9,0-1c0-0.2-0.1-0.6-0.7-0.6c-0.7,0-0.7,0.4-0.7,1.5H207.6z M210.8,85.3l-1,0.6c-0.4,0.3-0.5,0.6-0.5,1.4
					c0,0.7,0.1,1,0.5,1c0.2,0,0.5-0.1,1-0.5V85.3z"/>
				<path class="st0" d="M218.7,84.2v-1.1c0-0.3,0-1-0.7-1c-0.8,0-0.8,0.8-0.8,1.2v3.8c0,0.4,0,1.1,0.8,1.1c0.8,0,0.8-0.8,0.8-1.1
					v-1h2v1c0,1.8-1,2.6-2.8,2.6c-0.4,0-1.4-0.1-2.1-0.6c-0.7-0.5-0.8-1.2-0.8-1.9v-3.9c0-0.6,0.1-1.2,0.5-1.7c0.5-0.7,1.4-1,2.3-1
					c0.7,0,1.5,0.2,2.1,0.6c0.5,0.4,0.7,1,0.7,1.8v1H218.7z"/>
				<path class="st0" d="M222.8,77.6h2v2.1h-2V77.6z M222.8,80.9h2v8.7h-2V80.9z"/>
				<path class="st0" d="M227.1,83.3c0-1.1,0.4-2.5,2.8-2.5c0.6,0,1.3,0.1,1.8,0.5c0.7,0.5,0.9,1.3,0.9,2v4.2c0,1.6-1,2.4-2.8,2.4
					c-2.7,0-2.7-2-2.7-2.6V83.3z M229.8,77.3h2.7c-0.9,0.9-1.1,1.2-2.2,2.3h-1.6L229.8,77.3z M229.1,87.5c0,0.2,0,0.9,0.7,0.9
					c0.7,0,0.7-0.6,0.7-0.9v-4.4c0-0.5-0.1-1.1-0.7-1.1c-0.7,0-0.7,0.7-0.7,1.1V87.5z"/>
				<path class="st0" d="M234.7,80.9h2.1l0,0.6c0.4-0.4,0.9-0.8,1.8-0.8c0.6,0,1.1,0.2,1.4,0.6c0.4,0.5,0.4,1,0.4,1.5v6.8h-2v-6.4
					c0-0.5,0-1.1-0.7-1.1c-0.9,0-0.9,0.8-0.9,1.2v6.3h-2V80.9z"/>
				<path class="st0" d="M247.1,80.9h2l1.1,5.6l0.9-5.6h2l-2,9.3c-0.4,1.8-0.8,2.4-2.4,2.4c-0.4,0-0.5,0-1.3-0.2l0.3-1.6
					c0.4,0.1,0.8,0.1,0.8,0.1c0.9,0,0.9-1.3,0.9-1.4L247.1,80.9z"/>
				<path class="st0" d="M259.7,85.4h2.2v1.4c0,0.7,0,1.4,1.1,1.4c1.1,0,1.1-0.7,1.1-1.8c0-0.8-0.2-1.2-0.7-1.6l-2.1-1.4
					c-1.1-0.8-1.4-1.6-1.4-2.8c0-0.9,0.1-1.8,0.9-2.5c0.4-0.4,1.3-0.7,2.4-0.7c1.3,0,3.1,0.5,3.1,2.6v1.2h-2.2v-0.9
					c0-0.6,0-1.2-1-1.2c-0.6,0-1,0.2-1,1.2c0,1,0.2,1.2,0.7,1.5l2.2,1.5c0.4,0.3,0.9,0.7,1.1,1.2c0.3,0.5,0.3,0.9,0.3,1.9
					c0,1.1,0,1.7-0.4,2.4c-0.7,1.1-2,1.2-2.9,1.2c-1.9,0-3.3-0.7-3.3-2.7V85.4z"/>
				<path class="st0" d="M268.3,83.3c0-1.1,0.4-2.5,2.8-2.5c0.6,0,1.3,0.1,1.8,0.5c0.7,0.5,0.8,1.3,0.8,2v4.2c0,1.6-1,2.4-2.8,2.4
					c-2.7,0-2.7-2-2.7-2.6V83.3z M270.3,87.5c0,0.2,0,0.9,0.7,0.9c0.7,0,0.7-0.6,0.7-0.9v-4.4c0-0.5-0.1-1.1-0.7-1.1
					c-0.7,0-0.7,0.7-0.7,1.1V87.5z"/>
				<path class="st0" d="M276,77.6h2v4c0.9-0.8,1.6-0.9,1.8-0.9c0.7,0,1.8,0.5,1.8,2v4.9c0,1.9-1.3,2.1-1.9,2.1
					c-1.1,0-1.5-0.6-1.8-1v0.8h-2V77.6z M279.6,83.3c0-0.3,0-1-0.7-1c-0.9,0-0.9,0.7-0.9,1.1V87c0,0.6,0.1,1.2,0.8,1.2
					c0.8,0,0.8-0.8,0.8-1.2V83.3z"/>
				<path class="st0" d="M283.9,80.9h2l0,1.1c0.3-0.6,0.8-1.3,2-1.3v2c-0.2-0.1-0.4-0.1-0.7-0.1c-1.3,0-1.3,1.2-1.3,1.9v5.1h-2V80.9
					z"/>
				<path class="st0" d="M291.3,87.2c0,0.4,0,1.1,0.7,1.1c0.2,0,0.4-0.1,0.5-0.3c0.2-0.2,0.2-0.3,0.2-1.2h2v0.7
					c0,1.9-1.4,2.3-2.7,2.3c-2,0-2.8-1-2.8-2.8v-3.7c0-1.1,0.4-1.7,0.9-2.1c0.5-0.4,1.2-0.5,1.8-0.5c0.8,0,1.6,0.3,2.1,0.8
					c0.5,0.5,0.6,1.2,0.6,1.7v2.5h-3.5V87.2z M291.3,84.3h1.4v-1.1c0-0.2,0-0.9-0.7-0.9c-0.5,0-0.7,0.3-0.7,0.9V84.3z"/>
				<path class="st0" d="M296.2,80.9h2l0.9,6l1-6h2l-2.1,8.7h-2L296.2,80.9z"/>
				<path class="st0" d="M303.8,77.6h2v2.1h-2V77.6z M303.8,80.9h2v8.7h-2V80.9z"/>
				<path class="st0" d="M307.5,80.9h2l0.9,6l1-6h2l-2.1,8.7h-2L307.5,80.9z"/>
				<path class="st0" d="M317,87.2c0,0.4,0,1.1,0.7,1.1c0.2,0,0.4-0.1,0.5-0.3c0.2-0.2,0.2-0.3,0.2-1.2h2v0.7c0,1.9-1.4,2.3-2.7,2.3
					c-2,0-2.8-1-2.8-2.8v-3.7c0-1.1,0.4-1.7,0.9-2.1c0.5-0.4,1.2-0.5,1.8-0.5c0.8,0,1.6,0.3,2.1,0.8c0.5,0.5,0.6,1.2,0.6,1.7v2.5
					H317V87.2z M317,84.3h1.4v-1.1c0-0.2,0-0.9-0.7-0.9c-0.5,0-0.7,0.3-0.7,0.9V84.3z"/>
				<path class="st0" d="M322.7,80.9h2.1l0,0.6c0.4-0.4,0.8-0.8,1.8-0.8c0.6,0,1.1,0.2,1.4,0.6c0.4,0.5,0.4,1,0.4,1.5v6.8h-2v-6.4
					c0-0.5,0-1.1-0.7-1.1c-0.8,0-0.8,0.8-0.8,1.2v6.3h-2V80.9z"/>
				<path class="st0" d="M334.1,84.2v-1.1c0-0.3,0-1-0.7-1c-0.8,0-0.8,0.8-0.8,1.2v3.8c0,0.4,0,1.1,0.8,1.1c0.8,0,0.8-0.8,0.8-1.1
					v-1h2v1c0,1.8-1,2.6-2.8,2.6c-0.4,0-1.4-0.1-2.1-0.6c-0.7-0.5-0.8-1.2-0.8-1.9v-3.9c0-0.6,0.1-1.2,0.5-1.7c0.5-0.7,1.4-1,2.3-1
					c0.7,0,1.5,0.2,2.1,0.6c0.5,0.4,0.7,1,0.7,1.8v1H334.1z"/>
				<path class="st0" d="M338.2,77.6h2v2.1h-2V77.6z M338.2,80.9h2v8.7h-2V80.9z"/>
				<path class="st0" d="M342.5,83.6c0-1.3,0-1.7,0.5-2.2c0.4-0.4,1.2-0.7,2.2-0.7c0.4,0,1,0.1,1.5,0.3c0.9,0.5,1,1.2,1,1.6v4.8
					c0,1.3,0,1.8,0.4,2.1h-2.1c-0.2-0.2-0.2-0.4-0.2-0.8c-0.4,0.5-0.8,1-1.8,1c-1.7,0-1.7-1.6-1.7-2.4c0-1.5,0-2,1.3-2.7l2.1-1.1
					c0-0.8,0-0.9,0-1c0-0.2-0.1-0.6-0.7-0.6c-0.7,0-0.7,0.4-0.7,1.5H342.5z M345.8,85.3l-1,0.6c-0.4,0.3-0.5,0.6-0.5,1.4
					c0,0.7,0.1,1,0.5,1c0.2,0,0.5-0.1,1-0.5V85.3z"/>
				<path class="st0" d="M358.8,77.6h2v12h-2l0-0.8c-0.3,0.5-0.7,1-1.7,1c-0.8,0-1.4-0.4-1.7-0.9c-0.2-0.4-0.3-1-0.3-1.9v-4
					c0-0.6,0.1-1,0.2-1.3c0.4-0.8,1.2-1,1.6-1c0.8,0,1.3,0.5,1.8,0.9V77.6z M357.2,87.1c0,0.4,0,1,0.8,1c0.8,0,0.8-0.8,0.8-1.1v-3.7
					c0-0.3,0-1-0.8-1c-0.8,0-0.8,0.7-0.8,1.1V87.1z"/>
				<path class="st0" d="M365.1,87.2c0,0.4,0,1.1,0.7,1.1c0.2,0,0.4-0.1,0.5-0.3c0.2-0.2,0.2-0.3,0.2-1.2h2v0.7
					c0,1.9-1.4,2.3-2.7,2.3c-2,0-2.8-1-2.8-2.8v-3.7c0-1.1,0.4-1.7,0.9-2.1c0.5-0.4,1.2-0.5,1.8-0.5c0.8,0,1.6,0.3,2.1,0.8
					c0.5,0.5,0.6,1.2,0.6,1.7v2.5h-3.5V87.2z M365.1,84.3h1.4v-1.1c0-0.2,0-0.9-0.7-0.9c-0.5,0-0.7,0.3-0.7,0.9V84.3z"/>
				<path class="st0" d="M375.9,77.6h2v12h-2V77.6z"/>
				<path class="st0" d="M380.2,83.3c0-1.1,0.4-2.5,2.8-2.5c0.6,0,1.3,0.1,1.8,0.5c0.7,0.5,0.9,1.3,0.9,2v4.2c0,1.6-1,2.4-2.8,2.4
					c-2.7,0-2.7-2-2.7-2.6V83.3z M382.2,87.5c0,0.2,0,0.9,0.7,0.9c0.7,0,0.7-0.6,0.7-0.9v-4.4c0-0.5-0.1-1.1-0.7-1.1
					c-0.7,0-0.7,0.7-0.7,1.1V87.5z"/>
				<path class="st0" d="M387.6,86.6h1.9c0,1.3,0,1.8,0.8,1.8c0.4,0,0.8-0.2,0.8-1c0-0.5,0-0.7-0.6-1.1l-1.7-1.2
					c-0.1-0.1-0.4-0.4-0.6-0.5c-0.2-0.3-0.5-0.6-0.5-1.5c0-1.8,1.2-2.2,2.6-2.2c1.8,0,2.5,0.8,2.5,2v1H391c0-1,0-1.6-0.7-1.6
					c-0.3,0-0.7,0.1-0.7,0.8c0,0.2,0,0.6,0.6,1l1.9,1.3c0.1,0.1,0.5,0.5,0.6,0.6c0.2,0.3,0.3,0.8,0.3,1.4c0,1.1,0,2.7-2.7,2.7
					c-2.2,0-2.6-1.1-2.6-2.3V86.6z"/>
				<path class="st0" d="M400.3,77.6h5.8v1.8h-3.6v2.8h3.4v1.8h-3.4v3.7h3.8v1.9h-6V77.6z"/>
				<path class="st0" d="M408,83.3c0-1.1,0.4-2.5,2.8-2.5c0.6,0,1.3,0.1,1.8,0.5c0.7,0.5,0.9,1.3,0.9,2v4.2c0,1.6-1,2.4-2.8,2.4
					c-2.7,0-2.7-2-2.7-2.6V83.3z M410,87.5c0,0.2,0,0.9,0.7,0.9c0.7,0,0.7-0.6,0.7-0.9v-4.4c0-0.5-0.1-1.1-0.7-1.1
					c-0.7,0-0.7,0.7-0.7,1.1V87.5z"/>
				<path class="st0" d="M415.4,86.6h1.9c0,1.3,0,1.8,0.8,1.8c0.4,0,0.8-0.2,0.8-1c0-0.5,0-0.7-0.6-1.1l-1.7-1.2
					c-0.1-0.1-0.4-0.4-0.6-0.5c-0.2-0.3-0.5-0.6-0.5-1.5c0-1.8,1.2-2.2,2.6-2.2c1.8,0,2.5,0.8,2.5,2v1h-1.8c0-1,0-1.6-0.7-1.6
					c-0.3,0-0.7,0.1-0.7,0.8c0,0.2,0,0.6,0.6,1l1.9,1.3c0.1,0.1,0.5,0.5,0.6,0.6c0.2,0.3,0.3,0.8,0.3,1.4c0,1.1,0,2.7-2.7,2.7
					c-2.2,0-2.6-1.1-2.6-2.3V86.6z"/>
				<path class="st0" d="M422.9,77.6h2v2.1h-2V77.6z M422.9,80.9h2v8.7h-2V80.9z"/>
				<path class="st0" d="M427.3,80.9h2.1l0,0.6c0.4-0.4,0.8-0.8,1.8-0.8c0.6,0,1.1,0.2,1.4,0.6c0.4,0.5,0.4,1,0.4,1.5v6.8h-2v-6.4
					c0-0.5,0-1.1-0.7-1.1c-0.8,0-0.8,0.8-0.8,1.2v6.3h-2V80.9z"/>
				<path class="st0" d="M435.1,83.3c0-1.1,0.4-2.5,2.8-2.5c0.6,0,1.3,0.1,1.8,0.5c0.7,0.5,0.9,1.3,0.9,2v4.2c0,1.6-1,2.4-2.8,2.4
					c-2.7,0-2.7-2-2.7-2.6V83.3z M437.9,77.3h2.7c-0.9,0.9-1.1,1.2-2.2,2.3h-1.6L437.9,77.3z M437.2,87.5c0,0.2,0,0.9,0.7,0.9
					c0.7,0,0.7-0.6,0.7-0.9v-4.4c0-0.5-0.1-1.1-0.7-1.1c-0.7,0-0.7,0.7-0.7,1.1V87.5z"/>
				<path class="st0" d="M445.2,80.9h0.9v1.3h-0.9v7.4h-2v-7.4h-0.9v-1.3h0.9v-1.5c0-1.8,1.5-1.8,2.3-1.8c0.3,0,0.4,0,0.7,0v1.6
					c-0.2,0-0.4,0-0.4,0c-0.5,0-0.5,0.4-0.5,0.6V80.9z"/>
				<path class="st0" d="M447.9,77.6h2v2.1h-2V77.6z M447.9,80.9h2v8.7h-2V80.9z"/>
				<path class="st0" d="M452.3,77.6h2v12h-2V77.6z"/>
				<path class="st0" d="M456.6,83.3c0-1.1,0.4-2.5,2.8-2.5c0.6,0,1.3,0.1,1.8,0.5c0.7,0.5,0.8,1.3,0.8,2v4.2c0,1.6-1,2.4-2.8,2.4
					c-2.7,0-2.7-2-2.7-2.6V83.3z M458.6,87.5c0,0.2,0,0.9,0.7,0.9c0.7,0,0.7-0.6,0.7-0.9v-4.4c0-0.5-0.1-1.1-0.7-1.1
					c-0.7,0-0.7,0.7-0.7,1.1V87.5z"/>
				<path class="st0" d="M464,86.6h1.9c0,1.3,0,1.8,0.8,1.8c0.4,0,0.8-0.2,0.8-1c0-0.5,0-0.7-0.6-1.1l-1.7-1.2
					c-0.1-0.1-0.4-0.4-0.6-0.5c-0.2-0.3-0.5-0.6-0.5-1.5c0-1.8,1.2-2.2,2.6-2.2c1.8,0,2.5,0.8,2.5,2v1h-1.8c0-1,0-1.6-0.7-1.6
					c-0.3,0-0.7,0.1-0.7,0.8c0,0.2,0,0.6,0.6,1l1.9,1.3c0.1,0.1,0.5,0.5,0.6,0.6c0.2,0.3,0.3,0.8,0.3,1.4c0,1.1,0,2.7-2.7,2.7
					c-2.2,0-2.6-1.1-2.6-2.3V86.6z"/>
				<path class="st0" d="M474.8,88.1c0,2.2-1.5,3.7-3.7,4.6v-1.6c1.5-0.9,1.7-2.3,1.7-3.4v-6.6c0-1.4-0.4-2.1-1.7-3.1v-1.5
					c0.8,0.3,2,1,2.7,1.9c0.6,0.8,1,1.6,1,2.9V88.1z"/>
				<path class="st0" d="M69.3,107.1h8.5v2.7h-5.3v4.1h4.9v2.7h-4.9v5.4H78v2.7h-8.7V107.1z"/>
				<path class="st0" d="M84.7,107.1h2.9v17.5h-3l0-1.2c-0.5,0.7-1,1.5-2.5,1.5c-1.2,0-2.1-0.6-2.5-1.3c-0.3-0.6-0.4-1.5-0.4-2.7
					v-5.8c0-0.9,0.1-1.4,0.3-1.9c0.5-1.1,1.7-1.5,2.4-1.5c1.2,0,2,0.7,2.6,1.3V107.1z M82.3,121c0,0.6,0,1.4,1.1,1.4
					c1.2,0,1.2-1.1,1.2-1.5v-5.5c0-0.4,0-1.5-1.2-1.5c-1.1,0-1.1,1-1.1,1.6V121z"/>
				<path class="st0" d="M92.6,121c0,0.5,0,1.6,1.1,1.6c0.3,0,0.6-0.1,0.8-0.4c0.2-0.3,0.2-0.4,0.2-1.8h2.9v1c0,2.8-2,3.4-3.9,3.4
					c-2.9,0-4.1-1.5-4.1-4.1v-5.4c0-1.6,0.5-2.5,1.4-3c0.7-0.5,1.8-0.7,2.7-0.7c1.2,0,2.3,0.4,3.1,1.1c0.7,0.7,0.9,1.8,0.9,2.5v3.6
					h-5.1V121z M92.7,116.9h2.1v-1.6c0-0.3,0-1.3-1-1.3c-0.8,0-1.1,0.5-1.1,1.3V116.9z"/>
				<path class="st0" d="M99.7,112h3v0.8c0.6-0.5,1.3-1.1,2.5-1.1c1.3,0,2,0.7,2.4,1.3c0.7-0.7,1.5-1.3,2.9-1.3
					c0.8,0,1.5,0.3,1.8,0.7c0.6,0.6,0.7,1.3,0.7,2.2v10.1H110v-9.4c0-0.6,0-1.5-1.1-1.5c-0.8,0-1.2,0.6-1.2,1.6v9.2h-2.9v-9.3
					c0-0.6,0-1.6-1.1-1.6c-0.8,0-1.1,0.6-1.1,1.5v9.4h-2.9V112z"/>
				<path class="st0" d="M115.1,115.9c0-1.9,0-2.5,0.7-3.2c0.6-0.6,1.8-1,3.2-1c0.6,0,1.5,0.1,2.3,0.5c1.3,0.7,1.5,1.8,1.5,2.3v7.1
					c0,1.8,0,2.7,0.6,3.1h-3.1c-0.2-0.2-0.3-0.6-0.3-1.1c-0.6,0.7-1.2,1.4-2.6,1.4c-2.5,0-2.5-2.3-2.5-3.5c0-2.3,0-2.9,1.9-3.9
					l3.1-1.5c0-1.2,0-1.3,0-1.4c0-0.3-0.1-0.8-1-0.8c-1,0-1,0.6-1,2.2H115.1z M119.8,118.3l-1.4,0.9c-0.6,0.4-0.7,0.8-0.7,2.1
					c0,1,0.2,1.4,0.7,1.4c0.3,0,0.7-0.1,1.4-0.7V118.3z"/>
				<path class="st0" d="M130.1,112h2.9l1.6,8.2l1.3-8.2h2.9l-2.9,13.6c-0.5,2.6-1.2,3.5-3.5,3.5c-0.6,0-0.8,0-2-0.2l0.4-2.3
					c0.5,0.2,1.1,0.2,1.2,0.2c1.3,0,1.4-1.9,1.3-2L130.1,112z"/>
				<path class="st0" d="M146.3,107.1h6.5c2.9,0,2.9,2.3,2.9,4v2.3c0,2.8-0.3,4-3.5,4h-2.7v7.3h-3.2V107.1z M149.5,114.9h1.6
					c1.2,0,1.5-0.2,1.5-1.6v-1.8c0-1.2,0-1.8-1.4-1.8h-1.6V114.9z"/>
				<path class="st0" d="M160.1,121c0,0.5,0,1.6,1.1,1.6c0.3,0,0.6-0.1,0.8-0.4c0.2-0.3,0.2-0.4,0.2-1.8h2.9v1c0,2.8-2,3.4-3.9,3.4
					c-2.9,0-4.1-1.5-4.1-4.1v-5.4c0-1.6,0.5-2.5,1.4-3c0.7-0.5,1.8-0.7,2.7-0.7c1.2,0,2.3,0.4,3.1,1.1c0.7,0.7,0.9,1.8,0.9,2.5v3.6
					h-5.1V121z M160.1,116.9h2.1v-1.6c0-0.3,0-1.3-1-1.3c-0.8,0-1.1,0.5-1.1,1.3V116.9z"/>
				<path class="st0" d="M167.1,112h2.9l0,1.6c0.5-0.9,1.2-1.9,2.9-1.8v2.9c-0.2-0.1-0.5-0.2-1-0.2c-1.9,0-1.9,1.7-1.9,2.7v7.5h-2.9
					V112z"/>
				<path class="st0" d="M174.3,112h3v0.8c0.6-0.5,1.3-1.1,2.5-1.1c1.3,0,2,0.7,2.4,1.3c0.7-0.7,1.5-1.3,2.9-1.3
					c0.8,0,1.5,0.3,1.8,0.7c0.6,0.6,0.7,1.3,0.7,2.2v10.1h-2.9v-9.4c0-0.6,0-1.5-1.1-1.5c-0.8,0-1.2,0.6-1.2,1.6v9.2h-2.9v-9.3
					c0-0.6,0-1.6-1.1-1.6c-0.8,0-1.1,0.6-1.1,1.5v9.4h-2.9V112z"/>
				<path class="st0" d="M192.6,121c0,0.5,0,1.6,1.1,1.6c0.3,0,0.6-0.1,0.8-0.4c0.2-0.3,0.2-0.4,0.2-1.8h2.9v1c0,2.8-2,3.4-3.9,3.4
					c-2.9,0-4.1-1.5-4.1-4.1v-5.4c0-1.6,0.5-2.5,1.4-3c0.7-0.5,1.8-0.7,2.7-0.7c1.2,0,2.3,0.4,3.1,1.1c0.7,0.7,0.9,1.8,0.9,2.5v3.6
					h-5.1V121z M192.6,116.9h2.1v-1.6c0-0.3,0-1.3-1-1.3c-0.8,0-1.1,0.5-1.1,1.3V116.9z"/>
				<path class="st0" d="M199.6,115.9c0-1.9,0-2.5,0.7-3.2c0.6-0.6,1.8-1,3.2-1c0.6,0,1.5,0.1,2.3,0.5c1.3,0.7,1.5,1.8,1.5,2.3v7.1
					c0,1.8,0,2.7,0.6,3.1h-3.1c-0.2-0.2-0.3-0.6-0.3-1.1c-0.6,0.7-1.2,1.4-2.6,1.4c-2.5,0-2.5-2.3-2.5-3.5c0-2.3,0-2.9,1.9-3.9
					l3.1-1.5c0-1.2,0-1.3,0-1.4c0-0.3-0.1-0.8-1-0.8c-1,0-1,0.6-1,2.2H199.6z M204.3,118.3l-1.4,0.9c-0.6,0.4-0.7,0.8-0.7,2.1
					c0,1,0.2,1.4,0.7,1.4c0.3,0,0.7-0.1,1.4-0.7V118.3z"/>
				<path class="st0" d="M209.4,107.1h2.9v5.8c1.3-1.2,2.4-1.3,2.7-1.3c1,0,2.7,0.7,2.7,3v7.2c0,2.7-1.9,3.1-2.7,3.1
					c-1.6,0-2.2-0.9-2.6-1.4v1.2h-2.9V107.1z M214.8,115.4c0-0.4,0-1.4-1.1-1.4c-1.3,0-1.3,1-1.3,1.6v5.1c0,0.8,0.1,1.7,1.2,1.7
					c1.2,0,1.2-1.1,1.2-1.7V115.4z"/>
				<path class="st0" d="M219.8,107.1h2.9v3h-2.9V107.1z M219.8,112h3v12.7h-3V112z"/>
				<path class="st0" d="M224.9,107.2h3v17.5h-3V107.2z"/>
				<path class="st0" d="M230.1,107.1h2.9v3h-2.9V107.1z M230.1,112h3v12.7h-3V112z"/>
				<path class="st0" d="M240.5,107.1h2.9v17.5h-3l0-1.2c-0.5,0.7-1,1.5-2.5,1.5c-1.2,0-2.1-0.6-2.5-1.3c-0.3-0.6-0.4-1.5-0.4-2.7
					v-5.8c0-0.9,0.1-1.4,0.3-1.9c0.5-1.1,1.7-1.5,2.4-1.5c1.2,0,2,0.7,2.6,1.3V107.1z M238.1,121c0,0.6,0,1.4,1.1,1.4
					c1.2,0,1.2-1.1,1.2-1.5v-5.5c0-0.4,0-1.5-1.2-1.5c-1.1,0-1.1,1-1.1,1.6V121z"/>
				<path class="st0" d="M245.5,115.9c0-1.9,0-2.5,0.7-3.2c0.6-0.6,1.8-1,3.2-1c0.6,0,1.5,0.1,2.3,0.5c1.3,0.7,1.5,1.8,1.5,2.3v7.1
					c0,1.8,0,2.7,0.6,3.1h-3.1c-0.2-0.2-0.3-0.6-0.3-1.1c-0.6,0.7-1.2,1.4-2.6,1.4c-2.5,0-2.5-2.3-2.5-3.5c0-2.3,0-2.9,1.9-3.9
					l3.1-1.5c0-1.2,0-1.3,0-1.4c0-0.3-0.1-0.8-1-0.8c-1,0-1,0.6-1,2.2H245.5z M250.3,118.3l-1.4,0.9c-0.6,0.4-0.7,0.8-0.7,2.1
					c0,1,0.2,1.4,0.7,1.4c0.3,0,0.7-0.1,1.4-0.7V118.3z"/>
				<path class="st0" d="M260.6,107.1h2.9v17.5h-3l0-1.2c-0.5,0.7-1,1.5-2.5,1.5c-1.2,0-2.1-0.6-2.5-1.3c-0.3-0.6-0.4-1.5-0.4-2.7
					v-5.8c0-0.9,0.1-1.4,0.3-1.9c0.5-1.1,1.7-1.5,2.4-1.5c1.2,0,2,0.7,2.6,1.3V107.1z M258.2,121c0,0.6,0,1.4,1.1,1.4
					c1.2,0,1.2-1.1,1.2-1.5v-5.5c0-0.4,0-1.5-1.2-1.5c-1.1,0-1.1,1-1.1,1.6V121z"/>
				<path class="st0" d="M271,107.2h3.4l1.7,11.6l1.6-11.6h3.3l-3.3,17.5h-3.2L271,107.2z"/>
				<path class="st0" d="M281.2,115.9c0-1.9,0-2.5,0.7-3.2c0.6-0.6,1.8-1,3.2-1c0.6,0,1.5,0.1,2.3,0.5c1.3,0.7,1.5,1.8,1.5,2.3v7.1
					c0,1.8,0,2.7,0.6,3.1h-3.1c-0.2-0.2-0.3-0.6-0.3-1.1c-0.6,0.7-1.2,1.4-2.6,1.4c-2.5,0-2.5-2.3-2.5-3.5c0-2.3,0-2.9,1.9-3.9
					l3.1-1.5c0-1.2,0-1.3,0-1.4c0-0.3-0.1-0.8-1-0.8c-1,0-1,0.6-1,2.2H281.2z M285.9,118.3l-1.4,0.9c-0.6,0.4-0.7,0.8-0.7,2.1
					c0,1,0.2,1.4,0.7,1.4c0.3,0,0.7-0.1,1.4-0.7V118.3z"/>
				<path class="st0" d="M290.7,120.2h2.7c0,1.8,0,2.6,1.2,2.6c0.6,0,1.1-0.3,1.1-1.4c0-0.7,0-1.1-0.9-1.7l-2.5-1.7
					c-0.2-0.1-0.6-0.5-0.8-0.8c-0.3-0.4-0.7-0.9-0.7-2.3c0-2.7,1.7-3.3,3.8-3.3c2.6,0,3.6,1.1,3.6,2.9v1.4h-2.6c0-1.4,0-2.3-1.1-2.3
					c-0.4,0-1,0.1-1,1.1c0,0.3,0,0.8,0.8,1.4l2.7,1.9c0.2,0.1,0.7,0.7,0.8,0.8c0.3,0.5,0.4,1.2,0.4,2c0,1.6,0,3.9-3.9,3.9
					c-3.2,0-3.8-1.6-3.8-3.4V120.2z"/>
				<path class="st0" d="M305.4,116.8v-1.5c0-0.4,0-1.4-1.1-1.4c-1.2,0-1.2,1.1-1.2,1.7v5.5c0,0.6,0,1.7,1.2,1.7
					c1.1,0,1.1-1.1,1.1-1.6v-1.5h2.9v1.4c0,2.6-1.4,3.8-4,3.8c-0.6,0-2-0.1-3-0.9c-1-0.8-1.1-1.8-1.1-2.8v-5.6
					c0-0.9,0.2-1.8,0.7-2.5c0.8-1,2.1-1.4,3.4-1.4c1.1,0,2.3,0.3,3,0.9c0.8,0.6,1,1.4,1,2.7v1.5H305.4z"/>
				<path class="st0" d="M310.2,112h2.9v9.1c0,0.6,0,1.5,1.1,1.5c1.1,0,1.1-1,1.1-1.7v-9h3v12.7h-3v-1c-0.6,0.5-1.4,1.2-2.7,1.2
					c-0.8,0-2.1-0.4-2.4-2c-0.1-0.4-0.1-0.7-0.1-1.4V112z"/>
				<path class="st0" d="M320.5,107.2h3v17.5h-3V107.2z"/>
				<path class="st0" d="M325.6,115.9c0-1.9,0-2.5,0.7-3.2c0.6-0.6,1.8-1,3.2-1c0.6,0,1.5,0.1,2.3,0.5c1.3,0.7,1.5,1.8,1.5,2.3v7.1
					c0,1.8,0,2.7,0.6,3.1h-3.1c-0.2-0.2-0.3-0.6-0.3-1.1c-0.6,0.7-1.2,1.4-2.6,1.4c-2.5,0-2.5-2.3-2.5-3.5c0-2.3,0-2.9,1.9-3.9
					l3.1-1.5c0-1.2,0-1.3,0-1.4c0-0.3-0.1-0.8-1-0.8c-1,0-1,0.6-1,2.2H325.6z M330.4,118.3l-1.4,0.9c-0.6,0.4-0.7,0.8-0.7,2.1
					c0,1,0.2,1.4,0.7,1.4c0.3,0,0.7-0.1,1.4-0.7V118.3z"/>
				<path class="st0" d="M335.5,112h2.9l0,1.6c0.5-0.9,1.2-1.9,2.9-1.8v2.9c-0.2-0.1-0.5-0.2-1-0.2c-1.9,0-1.9,1.7-1.9,2.7v7.5h-2.9
					V112z"/>
				<path class="st0" d="M351.5,107.2h3.7l3.3,17.5h-3.3l-0.4-2.8h-3l-0.5,2.8h-3.2L351.5,107.2z M352.2,119.1h2.2l-1.1-7.5
					L352.2,119.1z"/>
				<path class="st0" d="M359.8,112h2.9v9.1c0,0.6,0,1.5,1.1,1.5c1.1,0,1.1-1,1.1-1.7v-9h3v12.7h-3v-1c-0.6,0.5-1.4,1.2-2.7,1.2
					c-0.8,0-2.1-0.4-2.4-2c-0.1-0.4-0.1-0.7-0.1-1.4V112z"/>
				<path class="st0" d="M370.1,112h3v0.8c0.6-0.5,1.3-1.1,2.5-1.1c1.3,0,2,0.7,2.4,1.3c0.7-0.7,1.5-1.3,2.9-1.3
					c0.8,0,1.5,0.3,1.8,0.7c0.6,0.6,0.7,1.3,0.7,2.2v10.1h-2.9v-9.4c0-0.6,0-1.5-1.1-1.5c-0.8,0-1.2,0.6-1.2,1.6v9.2h-2.9v-9.3
					c0-0.6,0-1.6-1.1-1.6c-0.8,0-1.1,0.6-1.1,1.5v9.4h-2.9V112z"/>
				<path class="st0" d="M388.4,121c0,0.5,0,1.6,1.1,1.6c0.3,0,0.6-0.1,0.8-0.4c0.2-0.3,0.2-0.4,0.2-1.8h2.9v1c0,2.8-2,3.4-3.9,3.4
					c-2.9,0-4.1-1.5-4.1-4.1v-5.4c0-1.6,0.5-2.5,1.4-3c0.7-0.5,1.8-0.7,2.7-0.7c1.2,0,2.3,0.4,3.1,1.1c0.7,0.7,0.9,1.8,0.9,2.5v3.6
					h-5.1V121z M388.4,116.9h2.1v-1.6c0-0.3,0-1.3-1-1.3c-0.8,0-1.1,0.5-1.1,1.3V116.9z"/>
				<path class="st0" d="M395.4,112h3l0,0.9c0.6-0.6,1.2-1.2,2.6-1.2c0.9,0,1.6,0.3,2,0.8c0.6,0.7,0.6,1.4,0.6,2.2v9.9h-2.9v-9.3
					c0-0.7,0-1.5-1-1.5c-1.2,0-1.2,1.1-1.2,1.7v9.1h-2.9V112z"/>
				<path class="st0" d="M406.4,107.4h2.9v4.6h1.8v2h-1.8v7.2c0,0.8,0.1,1.4,1.3,1.4c0.2,0,0.3,0,0.5,0v2.1c-0.2,0-0.6,0.1-1.6,0.1
					c-2.8,0-3.2-1-3.2-2.7v-8.2h-1.6v-2h1.6V107.4z"/>
				<path class="st0" d="M412.6,115.9c0-1.9,0-2.5,0.7-3.2c0.6-0.6,1.8-1,3.2-1c0.6,0,1.5,0.1,2.3,0.5c1.3,0.7,1.5,1.8,1.5,2.3v7.1
					c0,1.8,0,2.7,0.6,3.1h-3.1c-0.2-0.2-0.3-0.6-0.3-1.1c-0.6,0.7-1.2,1.4-2.6,1.4c-2.5,0-2.5-2.3-2.5-3.5c0-2.3,0-2.9,1.9-3.9
					l3.1-1.5c0-1.2,0-1.3,0-1.4c0-0.3-0.1-0.8-1-0.8c-1,0-1,0.6-1,2.2H412.6z M417.4,118.3l-1.4,0.9c-0.6,0.4-0.7,0.8-0.7,2.1
					c0,1,0.2,1.4,0.7,1.4c0.3,0,0.7-0.1,1.4-0.7V118.3z"/>
				<path class="st0" d="M427.7,107.1h2.9v17.5h-3l0-1.2c-0.5,0.7-1,1.5-2.5,1.5c-1.2,0-2.1-0.6-2.5-1.3c-0.3-0.6-0.4-1.5-0.4-2.7
					v-5.8c0-0.9,0.1-1.4,0.3-1.9c0.5-1.1,1.7-1.5,2.4-1.5c1.2,0,2,0.7,2.6,1.3V107.1z M425.3,121c0,0.6,0,1.4,1.1,1.4
					c1.2,0,1.2-1.1,1.2-1.5v-5.5c0-0.4,0-1.5-1.2-1.5c-1.1,0-1.1,1-1.1,1.6V121z"/>
				<path class="st0" d="M432.8,115.9c0-1.9,0-2.5,0.7-3.2c0.6-0.6,1.8-1,3.2-1c0.6,0,1.5,0.1,2.3,0.5c1.3,0.7,1.5,1.8,1.5,2.3v7.1
					c0,1.8,0,2.7,0.6,3.1h-3.1c-0.2-0.2-0.3-0.6-0.3-1.1c-0.6,0.7-1.2,1.4-2.6,1.4c-2.5,0-2.5-2.3-2.5-3.5c0-2.3,0-2.9,1.9-3.9
					l3.1-1.5c0-1.2,0-1.3,0-1.4c0-0.3-0.1-0.8-1-0.8c-1,0-1,0.6-1,2.2H432.8z M437.5,118.3l-1.4,0.9c-0.6,0.4-0.7,0.8-0.7,2.1
					c0,1,0.2,1.4,0.7,1.4c0.3,0,0.7-0.1,1.4-0.7V118.3z"/>
				<path class="st0" d="M75.6,148.5v-2.2c0-1.3-0.2-2.1-1.6-2.1s-1.5,1.1-1.5,1.9v9.4c0,1,0.2,2,1.6,2c1.5,0,1.5-1.1,1.5-2.2v-2.3
					h3.2v2.5c0,1.4,0,4.5-4.8,4.5c-0.9,0-2.4-0.2-3.4-0.8c-1.4-0.9-1.4-2.3-1.4-3.2v-9.5c0-1.4,0.1-2.4,0.9-3.2
					c1.3-1.4,3.2-1.4,3.9-1.4c4.8,0,4.8,2.8,4.8,4.1v2.7H75.6z"/>
				<path class="st0" d="M80.4,150.4c0-1.5,0.5-3.7,4-3.7c0.9,0,1.9,0.2,2.7,0.7c1.1,0.7,1.2,1.8,1.2,2.8v6.1c0,2.3-1.4,3.5-4.1,3.5
					c-3.9,0-3.9-2.9-3.9-3.8V150.4z M83.3,156.6c0,0.3,0,1.3,1,1.3c1,0,1-0.9,1-1.3v-6.4c0-0.7-0.1-1.5-1-1.5c-1.1,0-1.1,1-1.1,1.6
					V156.6z"/>
				<path class="st0" d="M90.3,147h3l0,0.9c0.6-0.6,1.2-1.2,2.6-1.2c0.9,0,1.6,0.3,2,0.8c0.6,0.7,0.6,1.4,0.6,2.2v9.9h-2.9v-9.3
					c0-0.7,0-1.5-1-1.5c-1.2,0-1.2,1.1-1.2,1.7v9.1h-2.9V147z"/>
				<path class="st0" d="M105.8,151.8v-1.5c0-0.4,0-1.4-1.1-1.4c-1.2,0-1.2,1.1-1.2,1.7v5.5c0,0.6,0,1.7,1.2,1.7
					c1.1,0,1.1-1.1,1.1-1.6v-1.5h2.9v1.4c0,2.6-1.4,3.8-4,3.8c-0.6,0-2-0.1-3-0.9c-1-0.8-1.1-1.8-1.1-2.8v-5.6
					c0-0.9,0.2-1.8,0.7-2.5c0.8-1,2.1-1.4,3.4-1.4c1.1,0,2.3,0.3,3,0.9c0.8,0.6,1,1.4,1,2.7v1.5H105.8z"/>
				<path class="st0" d="M113.3,156c0,0.5,0,1.6,1.1,1.6c0.3,0,0.6-0.1,0.8-0.4c0.2-0.3,0.2-0.4,0.2-1.8h2.9v1c0,2.8-2,3.4-3.9,3.4
					c-2.9,0-4.1-1.5-4.1-4.1v-5.4c0-1.6,0.5-2.5,1.4-3c0.7-0.5,1.8-0.7,2.7-0.7c1.2,0,2.3,0.4,3.1,1.1c0.7,0.7,0.9,1.8,0.9,2.5v3.6
					h-5.1V156z M113.3,151.9h2.1v-1.6c0-0.3,0-1.3-1-1.3c-0.8,0-1.1,0.5-1.1,1.3V151.9z"/>
				<path class="st0" d="M120.3,147h3l0,0.9c0.6-0.6,1.2-1.2,2.6-1.2c0.9,0,1.6,0.3,2,0.8c0.6,0.7,0.6,1.4,0.6,2.2v9.9h-2.9v-9.3
					c0-0.7,0-1.5-1-1.5c-1.2,0-1.2,1.1-1.2,1.7v9.1h-2.9V147z"/>
				<path class="st0" d="M131.3,142.4h2.9v4.6h1.8v2h-1.8v7.2c0,0.8,0.1,1.4,1.3,1.4c0.2,0,0.3,0,0.5,0v2.1c-0.2,0-0.6,0.1-1.6,0.1
					c-2.8,0-3.2-1-3.2-2.7v-8.2h-1.6v-2h1.6V142.4z"/>
				<path class="st0" d="M137.4,147h2.9l0,1.6c0.5-0.9,1.2-1.9,2.9-1.8v2.9c-0.2-0.1-0.5-0.2-1-0.2c-1.9,0-1.9,1.7-1.9,2.7v7.5h-2.9
					V147z"/>
				<path class="st0" d="M144.1,150.9c0-1.9,0-2.5,0.7-3.2c0.6-0.6,1.8-1,3.2-1c0.6,0,1.5,0.1,2.3,0.5c1.3,0.7,1.5,1.8,1.5,2.3v7.1
					c0,1.8,0,2.7,0.6,3.1h-3.1c-0.2-0.2-0.3-0.6-0.3-1.1c-0.6,0.7-1.2,1.4-2.6,1.4c-2.5,0-2.5-2.3-2.5-3.5c0-2.3,0-2.9,1.9-3.9
					l3.1-1.5c0-1.2,0-1.3,0-1.4c0-0.3-0.1-0.8-1-0.8c-1,0-1,0.6-1,2.2H144.1z M148.8,153.3l-1.4,0.9c-0.6,0.4-0.7,0.8-0.7,2.1
					c0,1,0.2,1.4,0.7,1.4c0.3,0,0.7-0.1,1.4-0.7V153.3z"/>
				<path class="st0" d="M159,151.8v-1.5c0-0.4,0-1.4-1.1-1.4c-1.2,0-1.2,1.1-1.2,1.7v5.5c0,0.6,0,1.7,1.2,1.7
					c1.1,0,1.1-1.1,1.1-1.6v-1.5h2.9v1.4c0,2.6-1.4,3.8-4,3.8c-0.6,0-2-0.1-3-0.9c-1-0.8-1.1-1.8-1.1-2.8v-5.6
					c0-0.9,0.2-1.8,0.7-2.5c0.8-1,2.1-1.4,3.4-1.4c1.1,0,2.3,0.3,3,0.9c0.8,0.6,1,1.4,1,2.7v1.5H159z"/>
				<path class="st0" d="M163.7,142.1h2.9v3h-2.9V142.1z M163.7,147h3v12.7h-3V147z"/>
				<path class="st0" d="M168.8,150.4c0-1.5,0.5-3.7,4-3.7c0.9,0,1.9,0.2,2.7,0.7c1.1,0.7,1.2,1.8,1.2,2.8v6.1
					c0,2.3-1.4,3.5-4.1,3.5c-3.9,0-3.9-2.9-3.9-3.8V150.4z M172.8,141.7h3.9c-1.3,1.4-1.7,1.7-3.1,3.3h-2.3L172.8,141.7z
					 M171.7,156.6c0,0.3,0,1.3,1,1.3c1,0,1-0.9,1-1.3v-6.4c0-0.7-0.1-1.5-1-1.5c-1.1,0-1.1,1-1.1,1.6V156.6z"/>
				<path class="st0" d="M178.7,147h3l0,0.9c0.6-0.6,1.2-1.2,2.6-1.2c0.9,0,1.6,0.3,2,0.8c0.6,0.7,0.6,1.4,0.6,2.2v9.9h-2.9v-9.3
					c0-0.7,0-1.5-1-1.5c-1.2,0-1.2,1.1-1.2,1.7v9.1h-2.9V147z"/>
				<path class="st0" d="M194.2,147h2.9l1.6,8.2l1.3-8.2h2.9l-2.9,13.6c-0.5,2.6-1.2,3.5-3.5,3.5c-0.6,0-0.8,0-2-0.2l0.4-2.3
					c0.5,0.2,1.1,0.2,1.2,0.2c1.3,0,1.4-1.9,1.3-2L194.2,147z"/>
				<path class="st0" d="M210.4,142.1h6.5c2.9,0,2.9,2.3,2.9,4v2.3c0,2.8-0.3,4-3.5,4h-2.7v7.3h-3.2V142.1z M213.6,149.9h1.6
					c1.2,0,1.5-0.2,1.5-1.6v-1.8c0-1.2,0-1.8-1.4-1.8h-1.6V149.9z"/>
				<path class="st0" d="M221.4,147h2.9l0,1.6c0.5-0.9,1.2-1.9,2.9-1.8v2.9c-0.2-0.1-0.5-0.2-1-0.2c-1.9,0-1.9,1.7-1.9,2.7v7.5h-2.9
					V147z"/>
				<path class="st0" d="M227.9,150.4c0-1.5,0.5-3.7,4-3.7c0.9,0,1.9,0.2,2.7,0.7c1.1,0.7,1.2,1.8,1.2,2.8v6.1
					c0,2.3-1.4,3.5-4.1,3.5c-3.9,0-3.9-2.9-3.9-3.8V150.4z M230.9,156.6c0,0.3,0,1.3,1,1.3c1,0,1-0.9,1-1.3v-6.4
					c0-0.7-0.1-1.5-1-1.5c-1.1,0-1.1,1-1.1,1.6V156.6z"/>
				<path class="st0" d="M237.9,142.2h3v17.5h-3V142.2z"/>
				<path class="st0" d="M243.1,142.1h2.9v3h-2.9V142.1z M243.1,147h3v12.7h-3V147z"/>
				<path class="st0" d="M251.7,147h1.3v2h-1.3v10.7h-2.9v-10.7h-1.3v-2h1.3v-2.2c0-2.6,2.2-2.6,3.3-2.6c0.4,0,0.6,0,1,0v2.4
					c-0.2,0-0.6,0-0.6,0c-0.8,0-0.8,0.6-0.8,0.9V147z"/>
				<path class="st0" d="M257.2,156c0,0.5,0,1.6,1.1,1.6c0.3,0,0.6-0.1,0.8-0.4c0.2-0.3,0.2-0.4,0.2-1.8h2.9v1c0,2.8-2,3.4-3.9,3.4
					c-2.9,0-4.1-1.5-4.1-4.1v-5.4c0-1.6,0.5-2.5,1.4-3c0.7-0.5,1.8-0.7,2.7-0.7c1.2,0,2.3,0.4,3.1,1.1c0.7,0.7,0.9,1.8,0.9,2.5v3.6
					h-5.1V156z M257.2,151.9h2.1v-1.6c0-0.3,0-1.3-1-1.3c-0.8,0-1.1,0.5-1.1,1.3V151.9z"/>
				<path class="st0" d="M264.2,147h2.9l0,1.6c0.5-0.9,1.2-1.9,2.9-1.8v2.9c-0.2-0.1-0.5-0.2-1-0.2c-1.9,0-1.9,1.7-1.9,2.7v7.5h-2.9
					V147z"/>
				<path class="st0" d="M270.9,150.9c0-1.9,0-2.5,0.7-3.2c0.6-0.6,1.8-1,3.2-1c0.6,0,1.5,0.1,2.3,0.5c1.3,0.7,1.5,1.8,1.5,2.3v7.1
					c0,1.8,0,2.7,0.6,3.1h-3.1c-0.2-0.2-0.3-0.6-0.3-1.1c-0.6,0.7-1.2,1.4-2.6,1.4c-2.5,0-2.5-2.3-2.5-3.5c0-2.3,0-2.9,1.9-3.9
					l3.1-1.5c0-1.2,0-1.3,0-1.4c0-0.3-0.1-0.8-1-0.8c-1,0-1,0.6-1,2.2H270.9z M275.7,153.3l-1.4,0.9c-0.6,0.4-0.7,0.8-0.7,2.1
					c0,1,0.2,1.4,0.7,1.4c0.3,0,0.7-0.1,1.4-0.7V153.3z"/>
				<path class="st0" d="M285.9,151.8v-1.5c0-0.4,0-1.4-1.1-1.4c-1.2,0-1.2,1.1-1.2,1.7v5.5c0,0.6,0,1.7,1.2,1.7
					c1.1,0,1.1-1.1,1.1-1.6v-1.5h2.9v1.4c0,2.6-1.4,3.8-4,3.8c-0.6,0-2-0.1-3-0.9c-1-0.8-1.1-1.8-1.1-2.8v-5.6
					c0-0.9,0.2-1.8,0.7-2.5c0.8-1,2.1-1.4,3.4-1.4c1.1,0,2.3,0.3,3,0.9c0.8,0.6,1,1.4,1,2.7v1.5H285.9z"/>
				<path class="st0" d="M290.6,142.1h2.9v3h-2.9V142.1z M290.6,147h3v12.7h-3V147z"/>
				<path class="st0" d="M295.6,150.4c0-1.5,0.5-3.7,4-3.7c0.9,0,1.9,0.2,2.7,0.7c1.1,0.7,1.2,1.8,1.2,2.8v6.1
					c0,2.3-1.4,3.5-4.1,3.5c-3.9,0-3.9-2.9-3.9-3.8V150.4z M299.6,141.7h3.9c-1.3,1.4-1.7,1.7-3.1,3.3H298L299.6,141.7z
					 M298.6,156.6c0,0.3,0,1.3,1,1.3c1,0,1-0.9,1-1.3v-6.4c0-0.7-0.1-1.5-1-1.5c-1.1,0-1.1,1-1.1,1.6V156.6z"/>
				<path class="st0" d="M305.6,147h3l0,0.9c0.6-0.6,1.2-1.2,2.6-1.2c0.9,0,1.6,0.3,2,0.8c0.6,0.7,0.6,1.4,0.6,2.2v9.9h-2.9v-9.3
					c0-0.7,0-1.5-1-1.5c-1.2,0-1.2,1.1-1.2,1.7v9.1h-2.9V147z"/>
				<path class="st0" d="M327.3,142.1h2.9v17.5h-3l0-1.2c-0.5,0.7-1,1.5-2.5,1.5c-1.2,0-2.1-0.6-2.5-1.3c-0.3-0.6-0.4-1.5-0.4-2.7
					v-5.8c0-0.9,0.1-1.4,0.3-1.9c0.5-1.1,1.7-1.5,2.4-1.5c1.2,0,2,0.7,2.6,1.3V142.1z M324.9,156c0,0.6,0,1.4,1.1,1.4
					c1.2,0,1.2-1.1,1.2-1.5v-5.5c0-0.4,0-1.5-1.2-1.5c-1.1,0-1.1,1-1.1,1.6V156z"/>
				<path class="st0" d="M335.2,156c0,0.5,0,1.6,1.1,1.6c0.3,0,0.6-0.1,0.8-0.4c0.2-0.3,0.2-0.4,0.2-1.8h2.9v1c0,2.8-2,3.4-3.9,3.4
					c-2.9,0-4.1-1.5-4.1-4.1v-5.4c0-1.6,0.5-2.5,1.4-3c0.7-0.5,1.8-0.7,2.7-0.7c1.2,0,2.3,0.4,3.1,1.1c0.7,0.7,0.9,1.8,0.9,2.5v3.6
					h-5.1V156z M335.3,151.9h2.1v-1.6c0-0.3,0-1.3-1-1.3c-0.8,0-1.1,0.5-1.1,1.3V151.9z"/>
				<path class="st0" d="M348.5,142.2h3v17.5h-3V142.2z"/>
				<path class="st0" d="M353.6,150.9c0-1.9,0-2.5,0.7-3.2c0.6-0.6,1.8-1,3.2-1c0.6,0,1.5,0.1,2.3,0.5c1.3,0.7,1.5,1.8,1.5,2.3v7.1
					c0,1.8,0,2.7,0.6,3.1h-3.1c-0.2-0.2-0.3-0.6-0.3-1.1c-0.6,0.7-1.2,1.4-2.6,1.4c-2.5,0-2.5-2.3-2.5-3.5c0-2.3,0-2.9,1.9-3.9
					l3.1-1.5c0-1.2,0-1.3,0-1.4c0-0.3-0.1-0.8-1-0.8c-1,0-1,0.6-1,2.2H353.6z M358.3,153.3l-1.4,0.9c-0.6,0.4-0.7,0.8-0.7,2.1
					c0,1,0.2,1.4,0.7,1.4c0.3,0,0.7-0.1,1.4-0.7V153.3z"/>
				<path class="st0" d="M369.8,142.2h5.2l2.1,12.2l2.1-12.2h5.2v17.5h-3.2l0.3-15.2l-2.8,15.2h-3l-2.9-15.2l0.2,15.2h-3.2V142.2z"
					/>
				<path class="st0" d="M386.7,147h2.9v9.1c0,0.6,0,1.5,1.1,1.5c1.1,0,1.1-1,1.1-1.7v-9h3v12.7h-3v-1c-0.6,0.5-1.4,1.2-2.7,1.2
					c-0.8,0-2.1-0.4-2.4-2c-0.1-0.4-0.1-0.7-0.1-1.4V147z"/>
				<path class="st0" d="M396.6,155.2h2.7c0,1.8,0,2.6,1.2,2.6c0.6,0,1.1-0.3,1.1-1.4c0-0.7,0-1.1-0.9-1.7l-2.5-1.7
					c-0.2-0.1-0.6-0.5-0.8-0.8c-0.3-0.4-0.7-0.9-0.7-2.3c0-2.7,1.7-3.3,3.8-3.3c2.6,0,3.6,1.1,3.6,2.9v1.4h-2.6c0-1.4,0-2.3-1.1-2.3
					c-0.4,0-1,0.1-1,1.1c0,0.3,0,0.8,0.8,1.4l2.7,1.9c0.2,0.1,0.7,0.7,0.8,0.8c0.3,0.5,0.4,1.2,0.4,2c0,1.6,0,3.9-3.9,3.9
					c-3.2,0-3.8-1.6-3.8-3.4V155.2z"/>
				<path class="st0" d="M411.4,151.8v-1.5c0-0.4,0-1.4-1.1-1.4c-1.2,0-1.2,1.1-1.2,1.7v5.5c0,0.6,0,1.7,1.2,1.7
					c1.1,0,1.1-1.1,1.1-1.6v-1.5h2.9v1.4c0,2.6-1.4,3.8-4,3.8c-0.6,0-2-0.1-3-0.9c-1-0.8-1.1-1.8-1.1-2.8v-5.6
					c0-0.9,0.2-1.8,0.7-2.5c0.8-1,2.1-1.4,3.4-1.4c1.1,0,2.3,0.3,3,0.9c0.8,0.6,1,1.4,1,2.7v1.5H411.4z"/>
				<path class="st0" d="M416.1,147h2.9v9.1c0,0.6,0,1.5,1.1,1.5c1.1,0,1.1-1,1.1-1.7v-9h3v12.7h-3v-1c-0.6,0.5-1.4,1.2-2.7,1.2
					c-0.8,0-2.1-0.4-2.4-2c-0.1-0.4-0.1-0.7-0.1-1.4V147z"/>
				<path class="st0" d="M426.5,142.2h3v17.5h-3V142.2z"/>
				<path class="st0" d="M431.6,150.9c0-1.9,0-2.5,0.7-3.2c0.6-0.6,1.8-1,3.2-1c0.6,0,1.5,0.1,2.3,0.5c1.3,0.7,1.5,1.8,1.5,2.3v7.1
					c0,1.8,0,2.7,0.6,3.1h-3.1c-0.2-0.2-0.3-0.6-0.3-1.1c-0.6,0.7-1.2,1.4-2.6,1.4c-2.5,0-2.5-2.3-2.5-3.5c0-2.3,0-2.9,1.9-3.9
					l3.1-1.5c0-1.2,0-1.3,0-1.4c0-0.3-0.1-0.8-1-0.8c-1,0-1,0.6-1,2.2H431.6z M436.3,153.3l-1.4,0.9c-0.6,0.4-0.7,0.8-0.7,2.1
					c0,1,0.2,1.4,0.7,1.4c0.3,0,0.7-0.1,1.4-0.7V153.3z"/>
				<path class="st0" d="M442.1,142.4h2.9v4.6h1.8v2H445v7.2c0,0.8,0.1,1.4,1.3,1.4c0.2,0,0.3,0,0.5,0v2.1c-0.2,0-0.6,0.1-1.6,0.1
					c-2.8,0-3.2-1-3.2-2.7v-8.2h-1.6v-2h1.6V142.4z"/>
				<path class="st0" d="M448.2,147h2.9v9.1c0,0.6,0,1.5,1.1,1.5c1.1,0,1.1-1,1.1-1.7v-9h3v12.7h-3v-1c-0.6,0.5-1.4,1.2-2.7,1.2
					c-0.8,0-2.1-0.4-2.4-2c-0.1-0.4-0.1-0.7-0.1-1.4V147z"/>
				<path class="st0" d="M458.5,147h2.9l0,1.6c0.5-0.9,1.2-1.9,2.9-1.8v2.9c-0.2-0.1-0.5-0.2-1-0.2c-1.9,0-1.9,1.7-1.9,2.7v7.5h-2.9
					V147z"/>
				<path class="st0" d="M465.2,150.9c0-1.9,0-2.5,0.7-3.2c0.6-0.6,1.8-1,3.2-1c0.6,0,1.5,0.1,2.3,0.5c1.3,0.7,1.5,1.8,1.5,2.3v7.1
					c0,1.8,0,2.7,0.6,3.1h-3.1c-0.2-0.2-0.3-0.6-0.3-1.1c-0.6,0.7-1.2,1.4-2.6,1.4c-2.5,0-2.5-2.3-2.5-3.5c0-2.3,0-2.9,1.9-3.9
					l3.1-1.5c0-1.2,0-1.3,0-1.4c0-0.3-0.1-0.8-1-0.8c-1,0-1,0.6-1,2.2H465.2z M469.9,153.3l-1.4,0.9c-0.6,0.4-0.7,0.8-0.7,2.1
					c0,1,0.2,1.4,0.7,1.4c0.3,0,0.7-0.1,1.4-0.7V153.3z"/>
				<path class="st0" d="M481.4,142.2h3.2V157h4.8v2.7h-8V142.2z"/>
				<path class="st0" d="M490.5,142.1h2.9v3h-2.9V142.1z M490.5,147h3v12.7h-3V147z"/>
				<path class="st0" d="M495.3,155.2h2.7c0,1.8,0,2.6,1.2,2.6c0.6,0,1.1-0.3,1.1-1.4c0-0.7,0-1.1-0.9-1.7L497,153
					c-0.2-0.1-0.6-0.5-0.8-0.8c-0.3-0.4-0.7-0.9-0.7-2.3c0-2.7,1.7-3.3,3.8-3.3c2.6,0,3.6,1.1,3.6,2.9v1.4h-2.6c0-1.4,0-2.3-1.1-2.3
					c-0.4,0-1,0.1-1,1.1c0,0.3,0,0.8,0.8,1.4l2.7,1.9c0.2,0.1,0.7,0.7,0.8,0.8c0.3,0.5,0.4,1.2,0.4,2c0,1.6,0,3.9-3.9,3.9
					c-3.2,0-3.8-1.6-3.8-3.4V155.2z"/>
				<path class="st0" d="M504.9,150.9c0-1.9,0-2.5,0.7-3.2c0.6-0.6,1.8-1,3.2-1c0.6,0,1.5,0.1,2.3,0.5c1.3,0.7,1.5,1.8,1.5,2.3v7.1
					c0,1.8,0,2.7,0.6,3.1h-3.1c-0.2-0.2-0.3-0.6-0.3-1.1c-0.6,0.7-1.2,1.4-2.6,1.4c-2.5,0-2.5-2.3-2.5-3.5c0-2.3,0-2.9,1.9-3.9
					l3.1-1.5c0-1.2,0-1.3,0-1.4c0-0.3-0.1-0.8-1-0.8c-1,0-1,0.6-1,2.2H504.9z M509.7,153.3l-1.4,0.9c-0.6,0.4-0.7,0.8-0.7,2.1
					c0,1,0.2,1.4,0.7,1.4c0.3,0,0.7-0.1,1.4-0.7V153.3z"/>
				<path class="st0" d="M521.2,142.2h5.4c1.2,0,2,0.1,2.7,0.5c1.1,0.7,1.3,1.9,1.3,3v1.6c0,2.3-0.8,2.7-2.1,2.9
					c2.1,0.4,2.2,1.3,2.2,3.2v2.5c0,0.9,0,2.4-1.2,3.2c-0.7,0.4-1.6,0.5-2.8,0.5h-5.5V142.2z M524.4,149.1c1.4,0,1.8,0,2.1,0
					c0.6-0.1,0.9-0.7,0.9-1.6c0-1.6,0-1.8-0.1-2.1c-0.2-0.6-0.7-0.7-1.5-0.7h-1.3V149.1z M524.4,157.1h1.3c1.3,0,1.8-0.1,1.8-1.8
					v-2.1c0-1.4-0.4-1.7-1.8-1.7h-1.4V157.1z"/>
				<path class="st0" d="M532.9,147h2.9l0,1.6c0.5-0.9,1.2-1.9,2.9-1.8v2.9c-0.2-0.1-0.5-0.2-1-0.2c-1.9,0-1.9,1.7-1.9,2.7v7.5h-2.9
					V147z"/>
				<path class="st0" d="M539.5,150.4c0-1.5,0.5-3.7,4-3.7c0.9,0,1.9,0.2,2.7,0.7c1.1,0.7,1.2,1.8,1.2,2.8v6.1
					c0,2.3-1.4,3.5-4.1,3.5c-3.9,0-3.9-2.9-3.9-3.8V150.4z M542.4,156.6c0,0.3,0,1.3,1,1.3c1,0,1-0.9,1-1.3v-6.4
					c0-0.7-0.1-1.5-1-1.5c-1.1,0-1.1,1-1.1,1.6V156.6z"/>
				<path class="st0" d="M549.4,147h3l0,0.9c0.6-0.6,1.2-1.2,2.6-1.2c0.9,0,1.6,0.3,2,0.8c0.6,0.7,0.6,1.4,0.6,2.2v9.9h-2.9v-9.3
					c0-0.7,0-1.5-1-1.5c-1.2,0-1.2,1.1-1.2,1.7v9.1h-2.9V147z"/>
				<path class="st0" d="M565,147h2.9v17H565v-5.5c-0.8,0.7-1.4,1.3-2.8,1.3c-1.8,0-2.6-1.4-2.6-3V150c0-3.2,2.5-3.2,2.9-3.2
					c1.3,0,2.1,0.7,2.5,1.1V147z M562.6,156.1c0,0.4,0,1.4,1.2,1.4c1.2,0,1.2-1.1,1.2-1.5v-5.8c0-1.1-0.8-1.3-1.2-1.3
					c-0.4,0-0.8,0.2-1,0.4c-0.2,0.3-0.2,0.6-0.2,0.8V156.1z"/>
				<path class="st0" d="M570.1,147h2.9v9.1c0,0.6,0,1.5,1.1,1.5c1.1,0,1.1-1,1.1-1.7v-9h3v12.7h-3v-1c-0.6,0.5-1.4,1.2-2.7,1.2
					c-0.8,0-2.1-0.4-2.4-2c-0.1-0.4-0.1-0.7-0.1-1.4V147z"/>
				<path class="st0" d="M580.4,142.1h2.9v3h-2.9V142.1z M580.4,147h3v12.7h-3V147z"/>
				<path class="st0" d="M585.5,150.9c0-1.9,0-2.5,0.7-3.2c0.6-0.6,1.8-1,3.2-1c0.6,0,1.5,0.1,2.3,0.5c1.3,0.7,1.5,1.8,1.5,2.3v7.1
					c0,1.8,0,2.7,0.6,3.1h-3.1c-0.2-0.2-0.3-0.6-0.3-1.1c-0.6,0.7-1.2,1.4-2.6,1.4c-2.5,0-2.5-2.3-2.5-3.5c0-2.3,0-2.9,1.9-3.9
					l3.1-1.5c0-1.2,0-1.3,0-1.4c0-0.3-0.1-0.8-1-0.8c-1,0-1,0.6-1,2.2H585.5z M590.3,153.3l-1.4,0.9c-0.6,0.4-0.7,0.8-0.7,2.1
					c0,1,0.2,1.4,0.7,1.4c0.3,0,0.7-0.1,1.4-0.7V153.3z"/>
				<path class="st0" d="M595.4,142.2h3v17.5h-3V142.2z"/>
				<path class="st0" d="M69.3,177.2h3.2v6.9h2.9v-6.9h3.2v17.5h-3.2v-8h-2.9v8h-3.2V177.2z"/>
				<path class="st0" d="M81.1,177.1H84v3h-2.9V177.1z M81.1,182h3v12.7h-3V182z"/>
				<path class="st0" d="M86.2,182h2.9v1c0.5-0.4,1.4-1.2,2.7-1.2c0.8,0,1.5,0.3,2,0.8c0.5,0.6,0.7,1.4,0.7,2.5v6.7
					c0,1-0.2,1.6-0.4,1.9c-0.4,0.8-1.3,1.2-2.2,1.2c-1.2,0-2-0.7-2.8-1.3v5.4h-2.9V182z M89.2,191.1c0,0.8,0.3,1.4,1.2,1.4
					c1.1,0,1.2-0.8,1.2-1.3v-5.9c0-0.9-0.4-1.4-1.2-1.4c-1.2,0-1.2,1.1-1.2,1.5V191.1z"/>
				<path class="st0" d="M99.3,191c0,0.5,0,1.6,1.1,1.6c0.3,0,0.6-0.1,0.8-0.4c0.2-0.3,0.2-0.4,0.2-1.8h2.9v1c0,2.8-2,3.4-3.9,3.4
					c-2.9,0-4.1-1.5-4.1-4.1v-5.4c0-1.6,0.5-2.5,1.4-3c0.7-0.5,1.8-0.7,2.7-0.7c1.2,0,2.3,0.4,3.1,1.1c0.7,0.7,0.9,1.8,0.9,2.5v3.6
					h-5.1V191z M99.3,186.9h2.1v-1.6c0-0.3,0-1.3-1-1.3c-0.8,0-1.1,0.5-1.1,1.3V186.9z"/>
				<path class="st0" d="M106.4,182h2.9l0,1.6c0.5-0.9,1.2-1.9,2.9-1.8v2.9c-0.2-0.1-0.5-0.2-1-0.2c-1.9,0-1.9,1.7-1.9,2.7v7.5h-2.9
					V182z"/>
				<path class="st0" d="M113,190.2h2.7c0,1.8,0,2.6,1.2,2.6c0.6,0,1.1-0.3,1.1-1.4c0-0.7,0-1.1-0.9-1.7l-2.5-1.7
					c-0.2-0.1-0.6-0.5-0.8-0.8c-0.3-0.4-0.7-0.9-0.7-2.3c0-2.7,1.7-3.3,3.8-3.3c2.6,0,3.6,1.1,3.6,2.9v1.4H118c0-1.4,0-2.3-1.1-2.3
					c-0.4,0-1,0.1-1,1.1c0,0.3,0,0.8,0.8,1.4l2.7,1.9c0.2,0.1,0.7,0.7,0.8,0.8c0.3,0.5,0.4,1.2,0.4,2c0,1.6,0,3.9-3.9,3.9
					c-3.2,0-3.8-1.6-3.8-3.4V190.2z"/>
				<path class="st0" d="M125.4,191c0,0.5,0,1.6,1.1,1.6c0.3,0,0.6-0.1,0.8-0.4c0.2-0.3,0.2-0.4,0.2-1.8h2.9v1c0,2.8-2,3.4-3.9,3.4
					c-2.9,0-4.1-1.5-4.1-4.1v-5.4c0-1.6,0.5-2.5,1.4-3c0.7-0.5,1.8-0.7,2.7-0.7c1.2,0,2.3,0.4,3.1,1.1c0.7,0.7,0.9,1.8,0.9,2.5v3.6
					h-5.1V191z M125.5,186.9h2.1v-1.6c0-0.3,0-1.3-1-1.3c-0.8,0-1.1,0.5-1.1,1.3V186.9z"/>
				<path class="st0" d="M137.6,186.8v-1.5c0-0.4,0-1.4-1.1-1.4c-1.2,0-1.2,1.1-1.2,1.7v5.5c0,0.6,0,1.7,1.2,1.7
					c1.1,0,1.1-1.1,1.1-1.6v-1.5h2.9v1.4c0,2.6-1.4,3.8-4,3.8c-0.6,0-2-0.1-3-0.9c-1-0.8-1.1-1.8-1.1-2.8v-5.6
					c0-0.9,0.2-1.8,0.7-2.5c0.8-1,2.1-1.4,3.4-1.4c1.1,0,2.3,0.3,3,0.9c0.8,0.6,1,1.4,1,2.7v1.5H137.6z"/>
				<path class="st0" d="M142.3,182h2.9l0,1.6c0.5-0.9,1.2-1.9,2.9-1.8v2.9c-0.2-0.1-0.5-0.2-1-0.2c-1.9,0-1.9,1.7-1.9,2.7v7.5h-2.9
					V182z"/>
				<path class="st0" d="M151.8,191c0,0.5,0,1.6,1.1,1.6c0.3,0,0.6-0.1,0.8-0.4c0.2-0.3,0.2-0.4,0.2-1.8h2.9v1c0,2.8-2,3.4-3.9,3.4
					c-2.9,0-4.1-1.5-4.1-4.1v-5.4c0-1.6,0.5-2.5,1.4-3c0.7-0.5,1.8-0.7,2.7-0.7c1.2,0,2.3,0.4,3.1,1.1c0.7,0.7,0.9,1.8,0.9,2.5v3.6
					h-5.1V191z M151.9,186.9h2.1v-1.6c0-0.3,0-1.3-1-1.3c-0.8,0-1.1,0.5-1.1,1.3V186.9z"/>
				<path class="st0" d="M163.9,186.8v-1.5c0-0.4,0-1.4-1.1-1.4c-1.2,0-1.2,1.1-1.2,1.7v5.5c0,0.6,0,1.7,1.2,1.7
					c1.1,0,1.1-1.1,1.1-1.6v-1.5h2.9v1.4c0,2.6-1.4,3.8-4,3.8c-0.6,0-2-0.1-3-0.9c-1-0.8-1.1-1.8-1.1-2.8v-5.6
					c0-0.9,0.2-1.8,0.7-2.5c0.8-1,2.1-1.4,3.4-1.4c1.1,0,2.3,0.3,3,0.9c0.8,0.6,1,1.4,1,2.7v1.5H163.9z"/>
				<path class="st0" d="M168.7,177.1h2.9v3h-2.9V177.1z M168.7,182h3v12.7h-3V182z"/>
				<path class="st0" d="M173.7,185.4c0-1.5,0.5-3.7,4-3.7c0.9,0,1.9,0.2,2.7,0.7c1.1,0.7,1.2,1.8,1.2,2.8v6.1
					c0,2.3-1.4,3.5-4.1,3.5c-3.9,0-3.9-2.9-3.9-3.8V185.4z M177.7,176.7h3.9c-1.3,1.4-1.7,1.7-3.1,3.3h-2.3L177.7,176.7z
					 M176.6,191.6c0,0.3,0,1.3,1,1.3c1,0,1-0.9,1-1.3v-6.4c0-0.7-0.1-1.5-1-1.5c-1.1,0-1.1,1-1.1,1.6V191.6z"/>
				<path class="st0" d="M183.7,182h3l0,0.9c0.6-0.6,1.2-1.2,2.6-1.2c0.9,0,1.6,0.3,2,0.8c0.6,0.7,0.6,1.4,0.6,2.2v9.9h-2.9v-9.3
					c0-0.7,0-1.5-1-1.5c-1.2,0-1.2,1.1-1.2,1.7v9.1h-2.9V182z"/>
				<path class="st0" d="M205.4,177.1h2.9v17.5h-3l0-1.2c-0.5,0.7-1,1.5-2.5,1.5c-1.2,0-2.1-0.6-2.5-1.3c-0.3-0.6-0.4-1.5-0.4-2.7
					v-5.8c0-0.9,0.1-1.4,0.3-1.9c0.5-1.1,1.7-1.5,2.4-1.5c1.2,0,2,0.7,2.6,1.3V177.1z M203,191c0,0.6,0,1.4,1.1,1.4
					c1.2,0,1.2-1.1,1.2-1.5v-5.5c0-0.4,0-1.5-1.2-1.5c-1.1,0-1.1,1-1.1,1.6V191z"/>
				<path class="st0" d="M213.3,191c0,0.5,0,1.6,1.1,1.6c0.3,0,0.6-0.1,0.8-0.4c0.2-0.3,0.2-0.4,0.2-1.8h2.9v1c0,2.8-2,3.4-3.9,3.4
					c-2.9,0-4.1-1.5-4.1-4.1v-5.4c0-1.6,0.5-2.5,1.4-3c0.7-0.5,1.8-0.7,2.7-0.7c1.2,0,2.3,0.4,3.1,1.1c0.7,0.7,0.9,1.8,0.9,2.5v3.6
					h-5.1V191z M213.3,186.9h2.1v-1.6c0-0.3,0-1.3-1-1.3c-0.8,0-1.1,0.5-1.1,1.3V186.9z"/>
				<path class="st0" d="M226.7,177.2h5.2l2.1,12.2l2.1-12.2h5.2v17.5H238l0.3-15.2l-2.8,15.2h-3l-2.9-15.2l0.2,15.2h-3.2V177.2z"/>
				<path class="st0" d="M243.4,185.4c0-1.5,0.5-3.7,4-3.7c0.9,0,1.9,0.2,2.7,0.7c1.1,0.7,1.2,1.8,1.2,2.8v6.1
					c0,2.3-1.4,3.5-4.1,3.5c-3.9,0-3.9-2.9-3.9-3.8V185.4z M246.4,191.6c0,0.3,0,1.3,1,1.3c1,0,1-0.9,1-1.3v-6.4
					c0-0.7-0.1-1.5-1-1.5c-1.1,0-1.1,1-1.1,1.6V191.6z"/>
				<path class="st0" d="M258.5,186.8v-1.5c0-0.4,0-1.4-1.1-1.4c-1.2,0-1.2,1.1-1.2,1.7v5.5c0,0.6,0,1.7,1.2,1.7
					c1.1,0,1.1-1.1,1.1-1.6v-1.5h2.9v1.4c0,2.6-1.4,3.8-4,3.8c-0.6,0-2-0.1-3-0.9c-1-0.8-1.1-1.8-1.1-2.8v-5.6
					c0-0.9,0.2-1.8,0.7-2.5c0.8-1,2.1-1.4,3.4-1.4c1.1,0,2.3,0.3,3,0.9c0.8,0.6,1,1.4,1,2.7v1.5H258.5z"/>
				<path class="st0" d="M263.1,185.4c0-1.5,0.5-3.7,4-3.7c0.9,0,1.9,0.2,2.7,0.7c1.1,0.7,1.2,1.8,1.2,2.8v6.1
					c0,2.3-1.4,3.5-4.1,3.5c-3.9,0-3.9-2.9-3.9-3.8V185.4z M266,191.6c0,0.3,0,1.3,1,1.3c1,0,1-0.9,1-1.3v-6.4c0-0.7-0.1-1.5-1-1.5
					c-1.1,0-1.1,1-1.1,1.6V191.6z"/>
				<path class="st0" d="M278.2,182h2.9l1.6,8.2l1.3-8.2h2.9l-2.9,13.6c-0.5,2.6-1.2,3.5-3.5,3.5c-0.6,0-0.8,0-2-0.2l0.4-2.3
					c0.5,0.2,1.1,0.2,1.2,0.2c1.3,0,1.4-1.9,1.3-2L278.2,182z"/>
				<path class="st0" d="M297,191c0,0.5,0,1.6,1.1,1.6c0.3,0,0.6-0.1,0.8-0.4c0.2-0.3,0.2-0.4,0.2-1.8h2.9v1c0,2.8-2,3.4-3.9,3.4
					c-2.9,0-4.1-1.5-4.1-4.1v-5.4c0-1.6,0.5-2.5,1.4-3c0.7-0.5,1.8-0.7,2.7-0.7c1.2,0,2.3,0.4,3.1,1.1c0.7,0.7,0.9,1.8,0.9,2.5v3.6
					H297V191z M297,186.9h2.1v-1.6c0-0.3,0-1.3-1-1.3c-0.8,0-1.1,0.5-1.1,1.3V186.9z"/>
				<path class="st0" d="M304,177.2h3v17.5h-3V177.2z"/>
				<path class="st0" d="M315.5,177.2h5.2c1,0,2.3,0,3.4,1.1c0.9,0.9,1,2.1,1,3.5v8.2c0,2.4-0.4,4.7-4.4,4.7h-5.2V177.2z
					 M318.7,192.1c1.5,0,1.8,0,2,0c1.2-0.2,1.2-1.2,1.2-1.8v-8.7c0-1.6-0.5-1.8-1.9-1.8h-1.3V192.1z"/>
				<path class="st0" d="M327.2,185.9c0-1.9,0-2.5,0.7-3.2c0.6-0.6,1.8-1,3.2-1c0.6,0,1.5,0.1,2.3,0.5c1.3,0.7,1.5,1.8,1.5,2.3v7.1
					c0,1.8,0,2.7,0.6,3.1h-3.1c-0.2-0.2-0.3-0.6-0.3-1.1c-0.6,0.7-1.2,1.4-2.6,1.4c-2.5,0-2.5-2.3-2.5-3.5c0-2.3,0-2.9,1.9-3.9
					l3.1-1.5c0-1.2,0-1.3,0-1.4c0-0.3-0.1-0.8-1-0.8c-1,0-1,0.6-1,2.2H327.2z M331.9,188.3l-1.4,0.9c-0.6,0.4-0.7,0.8-0.7,2.1
					c0,1,0.2,1.4,0.7,1.4c0.3,0,0.7-0.1,1.4-0.7V188.3z"/>
				<path class="st0" d="M337.1,182h3l0,0.9c0.6-0.6,1.2-1.2,2.6-1.2c0.9,0,1.6,0.3,2,0.8c0.6,0.7,0.6,1.4,0.6,2.2v9.9h-2.9v-9.3
					c0-0.7,0-1.5-1-1.5c-1.2,0-1.2,1.1-1.2,1.7v9.1h-2.9V182z M337.1,180.4c0-0.7,0-1.7,0.8-2.4c0.3-0.4,0.9-0.7,1.6-0.7
					c0.6,0,1,0.1,2.2,0.7c0.9,0.4,1,0.4,1.2,0.4c0.6,0,0.7-0.6,0.8-1h1.6c0,1.1-0.1,3.1-2.1,3.1c-0.6,0-1.1-0.2-2.3-0.7
					c-0.8-0.3-0.9-0.4-1.2-0.4c-0.8,0-1,0.7-1.1,1H337.1z"/>
				<path class="st0" d="M347.2,185.4c0-1.5,0.5-3.7,4-3.7c0.9,0,1.9,0.2,2.7,0.7c1.1,0.7,1.2,1.8,1.2,2.8v6.1
					c0,2.3-1.4,3.5-4.1,3.5c-3.9,0-3.9-2.9-3.9-3.8V185.4z M350.2,191.6c0,0.3,0,1.3,1,1.3c1,0,1-0.9,1-1.3v-6.4
					c0-0.7-0.1-1.5-1-1.5c-1.1,0-1.1,1-1.1,1.6V191.6z"/>
				<path class="st0" d="M363.5,177.1h8.5v2.7h-5.3v4.1h4.9v2.7h-4.9v5.4h5.5v2.7h-8.7V177.1z"/>
				<path class="st0" d="M373.7,182h2.9v1c0.5-0.4,1.4-1.2,2.7-1.2c0.8,0,1.5,0.3,2,0.8c0.5,0.6,0.7,1.4,0.7,2.5v6.7
					c0,1-0.2,1.6-0.4,1.9c-0.4,0.8-1.3,1.2-2.2,1.2c-1.2,0-2-0.7-2.8-1.3v5.4h-2.9V182z M376.7,191.1c0,0.8,0.3,1.4,1.2,1.4
					c1.1,0,1.2-0.8,1.2-1.3v-5.9c0-0.9-0.4-1.4-1.2-1.4c-1.2,0-1.2,1.1-1.2,1.5V191.1z"/>
				<path class="st0" d="M384.1,177.1h2.9v3h-2.9V177.1z M384.1,182h3v12.7h-3V182z"/>
				<path class="st0" d="M389.9,177.4h2.9v4.6h1.8v2h-1.8v7.2c0,0.8,0.1,1.4,1.3,1.4c0.2,0,0.3,0,0.5,0v2.1c-0.2,0-0.6,0.1-1.6,0.1
					c-2.8,0-3.2-1-3.2-2.7v-8.2h-1.6v-2h1.6V177.4z"/>
				<path class="st0" d="M398.7,191c0,0.5,0,1.6,1.1,1.6c0.3,0,0.6-0.1,0.8-0.4c0.2-0.3,0.2-0.4,0.2-1.8h2.9v1c0,2.8-2,3.4-3.9,3.4
					c-2.9,0-4.1-1.5-4.1-4.1v-5.4c0-1.6,0.5-2.5,1.4-3c0.7-0.5,1.8-0.7,2.7-0.7c1.2,0,2.3,0.4,3.1,1.1c0.7,0.7,0.9,1.8,0.9,2.5v3.6
					h-5.1V191z M398.7,186.9h2.1v-1.6c0-0.3,0-1.3-1-1.3c-0.8,0-1.1,0.5-1.1,1.3V186.9z"/>
				<path class="st0" d="M405.8,177.2h3v17.5h-3V177.2z"/>
				<path class="st0" d="M410.9,177.1h2.9v3h-2.9V177.1z M410.9,182h3v12.7h-3V182z"/>
				<path class="st0" d="M416,185.9c0-1.9,0-2.5,0.7-3.2c0.6-0.6,1.8-1,3.2-1c0.6,0,1.5,0.1,2.3,0.5c1.3,0.7,1.5,1.8,1.5,2.3v7.1
					c0,1.8,0,2.7,0.6,3.1h-3.1c-0.2-0.2-0.3-0.6-0.3-1.1c-0.6,0.7-1.2,1.4-2.6,1.4c-2.5,0-2.5-2.3-2.5-3.5c0-2.3,0-2.9,1.9-3.9
					l3.1-1.5c0-1.2,0-1.3,0-1.4c0-0.3-0.1-0.8-1-0.8c-1,0-1,0.6-1,2.2H416z M420.8,188.3l-1.4,0.9c-0.6,0.4-0.7,0.8-0.7,2.1
					c0,1,0.2,1.4,0.7,1.4c0.3,0,0.7-0.1,1.4-0.7V188.3z"/>
				<path class="st0" d="M425.9,177.2h3v17.5h-3V177.2z"/>
			</g>
			<path class="st1" d="M31.9,38.6c-3.5,0-5.9-2.6-5.9-5.7c0-3.1,2.5-5.7,5.8-5.7c3.2,0,5.7,2.4,5.7,5.7
				C37.6,36.5,34.9,38.6,31.9,38.6z"/>
		</g>
		<g>
			<polygon class="st2" points="60.3,69 60.3,52.9 52.1,52.9 52.1,69 47.8,69 56.2,79.2 64.6,69 			"/>
			<path class="st3" d="M64.6,69h-4.3V53h-3.5v14.3c0,3-3.2,5.1-5.9,3.8c-1.7-0.8-3.1-2.1-3.1-2.1l8.4,10.2L64.6,69z"/>
		</g>
		<g>
			<polygon class="st2" points="60.3,121.1 60.3,105 52.1,105 52.1,121.1 47.8,121.1 56.2,131.3 64.6,121.1 			"/>
			<path class="st3" d="M64.6,121.1h-4.3v-15.9h-3.5v14.3c0,3-3.2,5.1-5.9,3.8c-1.7-0.8-3.1-2.1-3.1-2.1l8.4,10.2L64.6,121.1z"/>
		</g>
		<g>
			<polygon class="st2" points="60.3,155.3 60.3,139.2 52.1,139.2 52.1,155.3 47.8,155.3 56.2,165.5 64.6,155.3 			"/>
			<path class="st3" d="M64.6,155.3h-4.3v-15.9h-3.5v14.3c0,3-3.2,5.1-5.9,3.8c-1.7-0.8-3.1-2.1-3.1-2.1l8.4,10.2L64.6,155.3z"/>
		</g>
		<g>
			<polygon class="st2" points="60.3,193.1 60.3,176.9 52.1,176.9 52.1,193.1 47.8,193.1 56.2,203.2 64.6,193.1 			"/>
			<path class="st3" d="M64.6,193.1h-4.3v-15.9h-3.5v14.3c0,3-3.2,5.1-5.9,3.8c-1.7-0.8-3.1-2.1-3.1-2.1l8.4,10.2L64.6,193.1z"/>
		</g>
	</g>
</g>
</svg>
