<?xml version="1.0" encoding="utf-8"?>
<!-- Generator: Adobe Illustrator 22.0.0, SVG Export Plug-In . SVG Version: 6.00 Build 0)  -->
<svg version="1.1" id="Capa_1" xmlns="http://www.w3.org/2000/svg" xmlns:xlink="http://www.w3.org/1999/xlink" x="0px" y="0px"
	 viewBox="0 0 557.8 193.1" style="enable-background:new 0 0 557.8 193.1;" xml:space="preserve">
<style type="text/css">
	.st0{fill:#FFFFFF;}
	.st1{fill:#FFBE3A;}
</style>
<g>
	<g>
		
			<image style="overflow:visible;" width="582" height="245" xlink:href="8FE047153EAC4C4B.png"  transform="matrix(1 0 0 1 -0.9136 -23.4597)">
		</image>
	</g>
	<g>
		
			<image style="overflow:visible;" width="85" height="236" xlink:href="8FE047153EAC4C49.png"  transform="matrix(1 0 0 1 -20.9136 -20.4597)">
		</image>
	</g>
</g>
<g>
	<g>
		<path class="st0" d="M36,11.6h6.4c3.1,0,3.1,2.1,3.1,3.7v1.9c0,2.2-0.7,2.6-2.3,3c0.8,0.2,2.4,0.7,2.4,3v3.6
			c0,0.9,0.1,1.8,0.7,2.4h-3.5c-0.4-0.7-0.5-1.4-0.5-1.9v-3.7c0-1.2,0-2-1.7-2h-1.5v7.7H36V11.6z M39.2,18.9h1.7
			c1.5,0,1.5-0.8,1.5-1.7v-1.7c0-1.4-0.8-1.4-1.5-1.4h-1.7V18.9z"/>
		<path class="st0" d="M50.7,25.5c0,0.5,0,1.6,1.1,1.6c0.3,0,0.6-0.1,0.8-0.4c0.2-0.3,0.2-0.4,0.2-1.8h2.9v1c0,2.8-2,3.4-3.9,3.4
			c-2.9,0-4.1-1.5-4.1-4.1V20c0-1.6,0.5-2.5,1.4-3c0.7-0.5,1.8-0.7,2.7-0.7c1.2,0,2.3,0.4,3.1,1.1c0.7,0.7,0.9,1.8,0.9,2.5v3.6h-5.1
			V25.5z M50.7,21.4h2.1v-1.6c0-0.3,0-1.3-1-1.3c-0.8,0-1.1,0.5-1.1,1.3V21.4z"/>
		<path class="st0" d="M63,11.6h2.9v17.5h-3l0-1.2c-0.5,0.7-1,1.5-2.5,1.5c-1.2,0-2.1-0.6-2.5-1.3c-0.3-0.6-0.4-1.5-0.4-2.7v-5.8
			c0-0.9,0.1-1.4,0.3-1.9c0.5-1.1,1.7-1.5,2.4-1.5c1.2,0,2,0.7,2.6,1.3V11.6z M60.6,25.5c0,0.6,0,1.4,1.1,1.4c1.2,0,1.2-1.1,1.2-1.5
			v-5.5c0-0.4,0-1.5-1.2-1.5c-1.1,0-1.1,1-1.1,1.6V25.5z"/>
		<path class="st0" d="M68.1,16.5H71v9.1c0,0.6,0,1.5,1.1,1.5c1.1,0,1.1-1,1.1-1.7v-9h3v12.7h-3v-1c-0.6,0.5-1.4,1.2-2.7,1.2
			c-0.8,0-2.1-0.4-2.4-2c-0.1-0.4-0.1-0.7-0.1-1.4V16.5z"/>
		<path class="st0" d="M83.5,21.3v-1.5c0-0.4,0-1.4-1.1-1.4c-1.2,0-1.2,1.1-1.2,1.7v5.5c0,0.6,0,1.7,1.2,1.7c1.1,0,1.1-1.1,1.1-1.6
			v-1.5h2.9v1.4c0,2.6-1.4,3.8-4,3.8c-0.6,0-2-0.1-3-0.9c-1-0.8-1.1-1.8-1.1-2.8v-5.6c0-0.9,0.2-1.8,0.7-2.5c0.8-1,2.1-1.4,3.4-1.4
			c1.1,0,2.3,0.3,3,0.9c0.8,0.6,1,1.4,1,2.7v1.5H83.5z"/>
		<path class="st0" d="M91,25.5c0,0.5,0,1.6,1.1,1.6c0.3,0,0.6-0.1,0.8-0.4c0.2-0.3,0.2-0.4,0.2-1.8H96v1c0,2.8-2,3.4-3.9,3.4
			c-2.9,0-4.1-1.5-4.1-4.1V20c0-1.6,0.5-2.5,1.4-3c0.7-0.5,1.8-0.7,2.7-0.7c1.2,0,2.3,0.4,3.1,1.1c0.7,0.7,0.9,1.8,0.9,2.5v3.6H91
			V25.5z M91,21.4h2.1v-1.6c0-0.3,0-1.3-1-1.3c-0.8,0-1.1,0.5-1.1,1.3V21.4z"/>
		<path class="st0" d="M104.3,11.6h3v17.5h-3V11.6z"/>
		<path class="st0" d="M109.3,19.9c0-1.5,0.5-3.7,4-3.7c0.9,0,1.9,0.2,2.7,0.7c1.1,0.7,1.2,1.8,1.2,2.8v6.1c0,2.3-1.4,3.5-4.1,3.5
			c-3.9,0-3.9-2.9-3.9-3.8V19.9z M112.2,26c0,0.3,0,1.3,1,1.3c1,0,1-0.9,1-1.3v-6.4c0-0.7-0.1-1.5-1-1.5c-1.1,0-1.1,1-1.1,1.6V26z"
			/>
		<path class="st0" d="M118.8,24.7h2.7c0,1.8,0,2.6,1.2,2.6c0.6,0,1.1-0.3,1.1-1.4c0-0.7,0-1.1-0.9-1.7l-2.5-1.7
			c-0.2-0.1-0.6-0.5-0.8-0.8c-0.3-0.4-0.7-0.9-0.7-2.3c0-2.7,1.7-3.3,3.8-3.3c2.6,0,3.6,1.1,3.6,2.9v1.4h-2.6c0-1.4,0-2.3-1.1-2.3
			c-0.4,0-1,0.1-1,1.1c0,0.3,0,0.8,0.8,1.4l2.7,1.9c0.2,0.1,0.7,0.7,0.8,0.8c0.3,0.5,0.4,1.2,0.4,2c0,1.6,0,3.9-3.9,3.9
			c-3.2,0-3.8-1.6-3.8-3.4V24.7z"/>
		<path class="st0" d="M139.9,11.6h2.9v17.5h-3l0-1.2c-0.5,0.7-1,1.5-2.5,1.5c-1.2,0-2.1-0.6-2.5-1.3c-0.3-0.6-0.4-1.5-0.4-2.7v-5.8
			c0-0.9,0.1-1.4,0.3-1.9c0.5-1.1,1.7-1.5,2.4-1.5c1.2,0,2,0.7,2.6,1.3V11.6z M137.5,25.5c0,0.6,0,1.4,1.1,1.4
			c1.2,0,1.2-1.1,1.2-1.5v-5.5c0-0.4,0-1.5-1.2-1.5c-1.1,0-1.1,1-1.1,1.6V25.5z"/>
		<path class="st0" d="M146.6,11.2h3.9c-1.3,1.4-1.7,1.7-3.1,3.3H145L146.6,11.2z M145,16.5h3v12.7h-3V16.5z"/>
		<path class="st0" d="M150.2,20.4c0-1.9,0-2.5,0.7-3.2c0.6-0.6,1.8-1,3.2-1c0.6,0,1.5,0.1,2.3,0.5c1.3,0.7,1.5,1.8,1.5,2.3V26
			c0,1.8,0,2.7,0.6,3.1h-3.1c-0.2-0.2-0.3-0.6-0.3-1.1c-0.6,0.7-1.2,1.4-2.6,1.4c-2.5,0-2.5-2.3-2.5-3.5c0-2.3,0-2.9,1.9-3.9
			l3.1-1.5c0-1.2,0-1.3,0-1.4c0-0.3-0.1-0.8-1-0.8c-1,0-1,0.6-1,2.2H150.2z M154.9,22.7l-1.4,0.9c-0.6,0.4-0.7,0.8-0.7,2.1
			c0,1,0.2,1.4,0.7,1.4c0.3,0,0.7-0.1,1.4-0.7V22.7z"/>
		<path class="st0" d="M159.6,24.7h2.7c0,1.8,0,2.6,1.2,2.6c0.6,0,1.1-0.3,1.1-1.4c0-0.7,0-1.1-0.9-1.7l-2.5-1.7
			c-0.2-0.1-0.6-0.5-0.8-0.8c-0.3-0.4-0.7-0.9-0.7-2.3c0-2.7,1.7-3.3,3.8-3.3c2.6,0,3.6,1.1,3.6,2.9v1.4h-2.6c0-1.4,0-2.3-1.1-2.3
			c-0.4,0-1,0.1-1,1.1c0,0.3,0,0.8,0.8,1.4l2.7,1.9c0.2,0.1,0.7,0.7,0.8,0.8c0.3,0.5,0.4,1.2,0.4,2c0,1.6,0,3.9-3.9,3.9
			c-3.2,0-3.8-1.6-3.8-3.4V24.7z"/>
		<path class="st0" d="M180.7,11.6h2.9v17.5h-3l0-1.2c-0.5,0.7-1,1.5-2.5,1.5c-1.2,0-2.1-0.6-2.5-1.3c-0.3-0.6-0.4-1.5-0.4-2.7v-5.8
			c0-0.9,0.1-1.4,0.3-1.9c0.5-1.1,1.7-1.5,2.4-1.5c1.2,0,2,0.7,2.6,1.3V11.6z M178.3,25.5c0,0.6,0,1.4,1.1,1.4
			c1.2,0,1.2-1.1,1.2-1.5v-5.5c0-0.4,0-1.5-1.2-1.5c-1.1,0-1.1,1-1.1,1.6V25.5z"/>
		<path class="st0" d="M188.6,25.5c0,0.5,0,1.6,1.1,1.6c0.3,0,0.6-0.1,0.8-0.4c0.2-0.3,0.2-0.4,0.2-1.8h2.9v1c0,2.8-2,3.4-3.9,3.4
			c-2.9,0-4.1-1.5-4.1-4.1V20c0-1.6,0.5-2.5,1.4-3c0.7-0.5,1.8-0.7,2.7-0.7c1.2,0,2.3,0.4,3.1,1.1c0.7,0.7,0.9,1.8,0.9,2.5v3.6h-5.1
			V25.5z M188.6,21.4h2.1v-1.6c0-0.3,0-1.3-1-1.3c-0.8,0-1.1,0.5-1.1,1.3V21.4z"/>
		<path class="st0" d="M204.6,25.5c0,0.5,0,1.6,1.1,1.6c0.3,0,0.6-0.1,0.8-0.4c0.2-0.3,0.2-0.4,0.2-1.8h2.9v1c0,2.8-2,3.4-3.9,3.4
			c-2.9,0-4.1-1.5-4.1-4.1V20c0-1.6,0.5-2.5,1.4-3c0.7-0.5,1.8-0.7,2.7-0.7c1.2,0,2.3,0.4,3.1,1.1c0.7,0.7,0.9,1.8,0.9,2.5v3.6h-5.1
			V25.5z M204.7,21.4h2.1v-1.6c0-0.3,0-1.3-1-1.3c-0.8,0-1.1,0.5-1.1,1.3V21.4z"/>
		<path class="st0" d="M211.2,16.5h3l1.1,4.2l1.1-4.2h2.9l-2.3,5.8l2.7,6.9h-3.2l-1.4-5.1l-1.4,5.1h-3l2.8-6.9L211.2,16.5z"/>
		<path class="st0" d="M220.9,20.4c0-1.9,0-2.5,0.7-3.2c0.6-0.6,1.8-1,3.2-1c0.6,0,1.5,0.1,2.3,0.5c1.3,0.7,1.5,1.8,1.5,2.3V26
			c0,1.8,0,2.7,0.6,3.1h-3.1c-0.2-0.2-0.3-0.6-0.3-1.1c-0.6,0.7-1.2,1.4-2.6,1.4c-2.5,0-2.5-2.3-2.5-3.5c0-2.3,0-2.9,1.9-3.9
			l3.1-1.5c0-1.2,0-1.3,0-1.4c0-0.3-0.1-0.8-1-0.8c-1,0-1,0.6-1,2.2H220.9z M225.7,22.7l-1.4,0.9c-0.6,0.4-0.7,0.8-0.7,2.1
			c0,1,0.2,1.4,0.7,1.4c0.3,0,0.7-0.1,1.4-0.7V22.7z"/>
		<path class="st0" d="M235.9,21.3v-1.5c0-0.4,0-1.4-1.1-1.4c-1.2,0-1.2,1.1-1.2,1.7v5.5c0,0.6,0,1.7,1.2,1.7c1.1,0,1.1-1.1,1.1-1.6
			v-1.5h2.9v1.4c0,2.6-1.4,3.8-4,3.8c-0.6,0-2-0.1-3-0.9c-1-0.8-1.1-1.8-1.1-2.8v-5.6c0-0.9,0.2-1.8,0.7-2.5c0.8-1,2.1-1.4,3.4-1.4
			c1.1,0,2.3,0.3,3,0.9c0.8,0.6,1,1.4,1,2.7v1.5H235.9z"/>
		<path class="st0" d="M243.4,25.5c0,0.5,0,1.6,1.1,1.6c0.3,0,0.6-0.1,0.8-0.4c0.2-0.3,0.2-0.4,0.2-1.8h2.9v1c0,2.8-2,3.4-3.9,3.4
			c-2.9,0-4.1-1.5-4.1-4.1V20c0-1.6,0.5-2.5,1.4-3c0.7-0.5,1.8-0.7,2.7-0.7c1.2,0,2.3,0.4,3.1,1.1c0.7,0.7,0.9,1.8,0.9,2.5v3.6h-5.1
			V25.5z M243.4,21.4h2.1v-1.6c0-0.3,0-1.3-1-1.3c-0.8,0-1.1,0.5-1.1,1.3V21.4z"/>
		<path class="st0" d="M250.4,16.5h2.9l0,1.6c0.5-0.9,1.2-1.9,2.9-1.8v2.9c-0.2-0.1-0.5-0.2-1-0.2c-1.9,0-1.9,1.7-1.9,2.7v7.5h-2.9
			V16.5z"/>
		<path class="st0" d="M257.6,11.6h2.9v5.8c1.3-1.2,2.4-1.3,2.7-1.3c1,0,2.7,0.7,2.7,3v7.2c0,2.7-1.9,3.1-2.7,3.1
			c-1.6,0-2.2-0.9-2.6-1.4v1.2h-2.9V11.6z M263,19.9c0-0.4,0-1.4-1.1-1.4c-1.3,0-1.3,1-1.3,1.6v5.1c0,0.8,0.1,1.7,1.2,1.7
			c1.2,0,1.2-1.1,1.2-1.7V19.9z"/>
		<path class="st0" d="M267.9,20.4c0-1.9,0-2.5,0.7-3.2c0.6-0.6,1.8-1,3.2-1c0.6,0,1.5,0.1,2.3,0.5c1.3,0.7,1.5,1.8,1.5,2.3V26
			c0,1.8,0,2.7,0.6,3.1h-3.1c-0.2-0.2-0.3-0.6-0.3-1.1c-0.6,0.7-1.2,1.4-2.6,1.4c-2.5,0-2.5-2.3-2.5-3.5c0-2.3,0-2.9,1.9-3.9
			l3.1-1.5c0-1.2,0-1.3,0-1.4c0-0.3-0.1-0.8-1-0.8c-1,0-1,0.6-1,2.2H267.9z M272.7,22.7l-1.4,0.9c-0.6,0.4-0.7,0.8-0.7,2.1
			c0,1,0.2,1.4,0.7,1.4c0.3,0,0.7-0.1,1.4-0.7V22.7z"/>
		<path class="st0" d="M282.9,21.3v-1.5c0-0.4,0-1.4-1.1-1.4c-1.2,0-1.2,1.1-1.2,1.7v5.5c0,0.6,0,1.7,1.2,1.7c1.1,0,1.1-1.1,1.1-1.6
			v-1.5h2.9v1.4c0,2.6-1.4,3.8-4,3.8c-0.6,0-2-0.1-3-0.9c-1-0.8-1.1-1.8-1.1-2.8v-5.6c0-0.9,0.2-1.8,0.7-2.5c0.8-1,2.1-1.4,3.4-1.4
			c1.1,0,2.3,0.3,3,0.9c0.8,0.6,1,1.4,1,2.7v1.5H282.9z"/>
		<path class="st0" d="M287.6,11.6h2.9v3h-2.9V11.6z M287.6,16.5h3v12.7h-3V16.5z"/>
		<path class="st0" d="M292.6,19.9c0-1.5,0.5-3.7,4-3.7c0.9,0,1.9,0.2,2.7,0.7c1.1,0.7,1.2,1.8,1.2,2.8v6.1c0,2.3-1.4,3.5-4.1,3.5
			c-3.9,0-3.9-2.9-3.9-3.8V19.9z M296.6,11.2h3.9c-1.3,1.4-1.7,1.7-3.1,3.3H295L296.6,11.2z M295.6,26c0,0.3,0,1.3,1,1.3
			c1,0,1-0.9,1-1.3v-6.4c0-0.7-0.1-1.5-1-1.5c-1.1,0-1.1,1-1.1,1.6V26z"/>
		<path class="st0" d="M302.6,16.5h3l0,0.9c0.6-0.6,1.2-1.2,2.6-1.2c0.9,0,1.6,0.3,2,0.8c0.6,0.7,0.6,1.4,0.6,2.2v9.9h-2.9v-9.3
			c0-0.7,0-1.5-1-1.5c-1.2,0-1.2,1.1-1.2,1.7v9.1h-2.9V16.5z"/>
		<path class="st0" d="M324.3,11.6h2.9v17.5h-3l0-1.2c-0.5,0.7-1,1.5-2.5,1.5c-1.2,0-2.1-0.6-2.5-1.3c-0.3-0.6-0.4-1.5-0.4-2.7v-5.8
			c0-0.9,0.1-1.4,0.3-1.9c0.5-1.1,1.7-1.5,2.4-1.5c1.2,0,2,0.7,2.6,1.3V11.6z M321.9,25.5c0,0.6,0,1.4,1.1,1.4
			c1.2,0,1.2-1.1,1.2-1.5v-5.5c0-0.4,0-1.5-1.2-1.5c-1.1,0-1.1,1-1.1,1.6V25.5z"/>
		<path class="st0" d="M332.2,25.5c0,0.5,0,1.6,1.1,1.6c0.3,0,0.6-0.1,0.8-0.4c0.2-0.3,0.2-0.4,0.2-1.8h2.9v1c0,2.8-2,3.4-3.9,3.4
			c-2.9,0-4.1-1.5-4.1-4.1V20c0-1.6,0.5-2.5,1.4-3c0.7-0.5,1.8-0.7,2.7-0.7c1.2,0,2.3,0.4,3.1,1.1c0.7,0.7,0.9,1.8,0.9,2.5v3.6h-5.1
			V25.5z M332.3,21.4h2.1v-1.6c0-0.3,0-1.3-1-1.3c-0.8,0-1.1,0.5-1.1,1.3V21.4z"/>
		<path class="st0" d="M339.3,11.6h3v17.5h-3V11.6z"/>
		<path class="st0" d="M350.6,20.4c0-1.9,0-2.5,0.7-3.2c0.6-0.6,1.8-1,3.2-1c0.6,0,1.5,0.1,2.3,0.5c1.3,0.7,1.5,1.8,1.5,2.3V26
			c0,1.8,0,2.7,0.6,3.1h-3.1c-0.2-0.2-0.3-0.6-0.3-1.1c-0.6,0.7-1.2,1.4-2.6,1.4c-2.5,0-2.5-2.3-2.5-3.5c0-2.3,0-2.9,1.9-3.9
			l3.1-1.5c0-1.2,0-1.3,0-1.4c0-0.3-0.1-0.8-1-0.8c-1,0-1,0.6-1,2.2H350.6z M355.3,22.7l-1.4,0.9c-0.6,0.4-0.7,0.8-0.7,2.1
			c0,1,0.2,1.4,0.7,1.4c0.3,0,0.7-0.1,1.4-0.7V22.7z"/>
		<path class="st0" d="M360,24.7h2.7c0,1.8,0,2.6,1.2,2.6c0.6,0,1.1-0.3,1.1-1.4c0-0.7,0-1.1-0.9-1.7l-2.5-1.7
			c-0.2-0.1-0.6-0.5-0.8-0.8c-0.3-0.4-0.7-0.9-0.7-2.3c0-2.7,1.7-3.3,3.8-3.3c2.6,0,3.6,1.1,3.6,2.9v1.4h-2.6c0-1.4,0-2.3-1.1-2.3
			c-0.4,0-1,0.1-1,1.1c0,0.3,0,0.8,0.8,1.4l2.7,1.9c0.2,0.1,0.7,0.7,0.8,0.8c0.3,0.5,0.4,1.2,0.4,2c0,1.6,0,3.9-3.9,3.9
			c-3.2,0-3.8-1.6-3.8-3.4V24.7z"/>
		<path class="st0" d="M369.7,16.5h3v0.8c0.6-0.5,1.3-1.1,2.5-1.1c1.3,0,2,0.7,2.4,1.3c0.7-0.7,1.5-1.3,2.9-1.3
			c0.8,0,1.5,0.3,1.8,0.7c0.6,0.6,0.7,1.3,0.7,2.2v10.1h-2.9v-9.4c0-0.6,0-1.5-1.1-1.5c-0.8,0-1.2,0.6-1.2,1.6v9.2h-2.9v-9.3
			c0-0.6,0-1.6-1.1-1.6c-0.8,0-1.1,0.6-1.1,1.5v9.4h-2.9V16.5z"/>
		<path class="st0" d="M385.2,20.4c0-1.9,0-2.5,0.7-3.2c0.6-0.6,1.8-1,3.2-1c0.6,0,1.5,0.1,2.3,0.5c1.3,0.7,1.5,1.8,1.5,2.3V26
			c0,1.8,0,2.7,0.6,3.1h-3.1c-0.2-0.2-0.3-0.6-0.3-1.1c-0.6,0.7-1.2,1.4-2.6,1.4c-2.5,0-2.5-2.3-2.5-3.5c0-2.3,0-2.9,1.9-3.9
			l3.1-1.5c0-1.2,0-1.3,0-1.4c0-0.3-0.1-0.8-1-0.8c-1,0-1,0.6-1,2.2H385.2z M389.9,22.7l-1.4,0.9c-0.6,0.4-0.7,0.8-0.7,2.1
			c0,1,0.2,1.4,0.7,1.4c0.3,0,0.7-0.1,1.4-0.7V22.7z"/>
		<path class="st0" d="M36,48.9h3.2v17.5H36V48.9z"/>
		<path class="st0" d="M41.5,53.7h3l0,0.9c0.6-0.6,1.2-1.2,2.6-1.2c0.9,0,1.6,0.3,2,0.8c0.6,0.7,0.6,1.4,0.6,2.2v9.9h-2.9v-9.3
			c0-0.7,0-1.5-1-1.5c-1.2,0-1.2,1.1-1.2,1.7v9.1h-2.9V53.7z"/>
		<path class="st0" d="M56.9,58.5V57c0-0.4,0-1.4-1.1-1.4c-1.2,0-1.2,1.1-1.2,1.7v5.5c0,0.6,0,1.7,1.2,1.7c1.1,0,1.1-1.1,1.1-1.6
			v-1.5h2.9v1.4c0,2.6-1.4,3.8-4,3.8c-0.6,0-2-0.1-3-0.9c-1-0.8-1.1-1.8-1.1-2.8v-5.6c0-0.9,0.2-1.8,0.7-2.5c0.8-1,2.1-1.4,3.4-1.4
			c1.1,0,2.3,0.3,3,0.9c0.8,0.6,1,1.4,1,2.7v1.5H56.9z"/>
		<path class="st0" d="M61.7,53.7h2.9l0,1.6c0.5-0.9,1.2-1.9,2.9-1.8v2.9c-0.2-0.1-0.5-0.2-1-0.2c-1.9,0-1.9,1.7-1.9,2.7v7.5h-2.9
			V53.7z"/>
		<path class="st0" d="M71.2,62.8c0,0.5,0,1.6,1.1,1.6c0.3,0,0.6-0.1,0.8-0.4c0.2-0.3,0.2-0.4,0.2-1.8h2.9v1c0,2.8-2,3.4-3.9,3.4
			c-2.9,0-4.1-1.5-4.1-4.1v-5.4c0-1.6,0.5-2.5,1.4-3c0.7-0.5,1.8-0.7,2.7-0.7c1.2,0,2.3,0.4,3.1,1.1c0.7,0.7,0.9,1.8,0.9,2.5v3.6
			h-5.1V62.8z M71.2,58.6h2.1v-1.6c0-0.3,0-1.3-1-1.3c-0.8,0-1.1,0.5-1.1,1.3V58.6z"/>
		<path class="st0" d="M78.2,53.7h3v0.8c0.6-0.5,1.3-1.1,2.5-1.1c1.3,0,2,0.7,2.4,1.3c0.7-0.7,1.5-1.3,2.9-1.3
			c0.8,0,1.5,0.3,1.8,0.7c0.6,0.6,0.7,1.3,0.7,2.2v10.1h-2.9V57c0-0.6,0-1.5-1.1-1.5c-0.8,0-1.2,0.6-1.2,1.6v9.2h-2.9v-9.3
			c0-0.6,0-1.6-1.1-1.6c-0.8,0-1.1,0.6-1.1,1.5v9.4h-2.9V53.7z"/>
		<path class="st0" d="M96.5,62.8c0,0.5,0,1.6,1.1,1.6c0.3,0,0.6-0.1,0.8-0.4c0.2-0.3,0.2-0.4,0.2-1.8h2.9v1c0,2.8-2,3.4-3.9,3.4
			c-2.9,0-4.1-1.5-4.1-4.1v-5.4c0-1.6,0.5-2.5,1.4-3c0.7-0.5,1.8-0.7,2.7-0.7c1.2,0,2.3,0.4,3.1,1.1c0.7,0.7,0.9,1.8,0.9,2.5v3.6
			h-5.1V62.8z M96.5,58.6h2.1v-1.6c0-0.3,0-1.3-1-1.3c-0.8,0-1.1,0.5-1.1,1.3V58.6z"/>
		<path class="st0" d="M103.5,53.7h3l0,0.9c0.6-0.6,1.2-1.2,2.6-1.2c0.9,0,1.6,0.3,2,0.8c0.6,0.7,0.6,1.4,0.6,2.2v9.9h-2.9v-9.3
			c0-0.7,0-1.5-1-1.5c-1.2,0-1.2,1.1-1.2,1.7v9.1h-2.9V53.7z"/>
		<path class="st0" d="M114.5,49.1h2.9v4.6h1.8v2h-1.8v7.2c0,0.8,0.1,1.4,1.3,1.4c0.2,0,0.3,0,0.5,0v2.1c-0.2,0-0.6,0.1-1.6,0.1
			c-2.8,0-3.2-1-3.2-2.7v-8.2h-1.6v-2h1.6V49.1z"/>
		<path class="st0" d="M120.8,57.6c0-1.9,0-2.5,0.7-3.2c0.6-0.6,1.8-1,3.2-1c0.6,0,1.5,0.1,2.3,0.5c1.3,0.7,1.5,1.8,1.5,2.3v7.1
			c0,1.8,0,2.7,0.6,3.1h-3.1c-0.2-0.2-0.3-0.6-0.3-1.1c-0.6,0.7-1.2,1.4-2.6,1.4c-2.5,0-2.5-2.3-2.5-3.5c0-2.3,0-2.9,1.9-3.9
			l3.1-1.5c0-1.2,0-1.3,0-1.4c0-0.3-0.1-0.8-1-0.8c-1,0-1,0.6-1,2.2H120.8z M125.5,60l-1.4,0.9c-0.6,0.4-0.7,0.8-0.7,2.1
			c0,1,0.2,1.4,0.7,1.4c0.3,0,0.7-0.1,1.4-0.7V60z"/>
		<path class="st0" d="M136.4,61.9h2.7c0,1.8,0,2.6,1.2,2.6c0.6,0,1.1-0.3,1.1-1.4c0-0.7,0-1.1-0.9-1.7l-2.5-1.7
			c-0.2-0.1-0.6-0.5-0.8-0.8c-0.3-0.4-0.7-0.9-0.7-2.3c0-2.7,1.7-3.3,3.8-3.3c2.6,0,3.6,1.1,3.6,2.9v1.4h-2.6c0-1.4,0-2.3-1.1-2.3
			c-0.4,0-1,0.1-1,1.1c0,0.3,0,0.8,0.8,1.4l2.7,1.9c0.2,0.1,0.7,0.7,0.8,0.8c0.3,0.5,0.4,1.2,0.4,2c0,1.6,0,3.9-3.9,3.9
			c-3.2,0-3.8-1.6-3.8-3.4V61.9z"/>
		<path class="st0" d="M146.1,48.9h2.9v3h-2.9V48.9z M146.1,53.7h3v12.7h-3V53.7z"/>
		<path class="st0" d="M156.5,53.7h2.9v13.1c0,1.3,0,4.1-4.3,4.1c-3.9,0-3.9-2.3-3.9-3.5h2.9c0,0.2,0,0.5,0.1,0.8
			c0.1,0.3,0.4,0.5,1,0.5c1,0,1.2-0.7,1.2-1.5v-2c-0.4,0.5-1.1,1.2-2.6,1.2c-2.4,0-2.8-1.7-2.8-3.2v-6.7c0-0.5,0-3.2,2.7-3.2
			c1.3,0,2,0.7,2.7,1.3V53.7z M154.1,62.9c0,0.4,0,1.4,1.2,1.4c1.1,0,1.2-0.8,1.2-1.4v-5.6c0-0.5,0-1.6-1.2-1.6s-1.2,1.1-1.2,1.5
			V62.9z"/>
		<path class="st0" d="M161.6,53.7h3l0,0.9c0.6-0.6,1.2-1.2,2.6-1.2c0.9,0,1.6,0.3,2,0.8c0.6,0.7,0.6,1.4,0.6,2.2v9.9h-2.9v-9.3
			c0-0.7,0-1.5-1-1.5c-1.2,0-1.2,1.1-1.2,1.7v9.1h-2.9V53.7z"/>
		<path class="st0" d="M171.9,48.9h2.9v3h-2.9V48.9z M171.9,53.7h3v12.7h-3V53.7z"/>
		<path class="st0" d="M180.6,53.7h1.3v2h-1.3v10.7h-2.9V55.7h-1.3v-2h1.3v-2.2c0-2.6,2.2-2.6,3.3-2.6c0.4,0,0.6,0,1,0v2.4
			c-0.2,0-0.6,0-0.6,0c-0.8,0-0.8,0.6-0.8,0.9V53.7z"/>
		<path class="st0" d="M183.3,48.9h2.9v3h-2.9V48.9z M183.3,53.7h3v12.7h-3V53.7z"/>
		<path class="st0" d="M193.5,58.5V57c0-0.4,0-1.4-1.1-1.4c-1.2,0-1.2,1.1-1.2,1.7v5.5c0,0.6,0,1.7,1.2,1.7c1.1,0,1.1-1.1,1.1-1.6
			v-1.5h2.9v1.4c0,2.6-1.4,3.8-4,3.8c-0.6,0-2-0.1-3-0.9c-1-0.8-1.1-1.8-1.1-2.8v-5.6c0-0.9,0.2-1.8,0.7-2.5c0.8-1,2.1-1.4,3.4-1.4
			c1.1,0,2.3,0.3,3,0.9c0.8,0.6,1,1.4,1,2.7v1.5H193.5z"/>
		<path class="st0" d="M198.2,57.6c0-1.9,0-2.5,0.7-3.2c0.6-0.6,1.8-1,3.2-1c0.6,0,1.5,0.1,2.3,0.5c1.3,0.7,1.5,1.8,1.5,2.3v7.1
			c0,1.8,0,2.7,0.6,3.1h-3.1c-0.2-0.2-0.3-0.6-0.3-1.1c-0.6,0.7-1.2,1.4-2.6,1.4c-2.5,0-2.5-2.3-2.5-3.5c0-2.3,0-2.9,1.9-3.9
			l3.1-1.5c0-1.2,0-1.3,0-1.4c0-0.3-0.1-0.8-1-0.8c-1,0-1,0.6-1,2.2H198.2z M203,60l-1.4,0.9c-0.6,0.4-0.7,0.8-0.7,2.1
			c0,1,0.2,1.4,0.7,1.4c0.3,0,0.7-0.1,1.4-0.7V60z"/>
		<path class="st0" d="M208.8,49.1h2.9v4.6h1.8v2h-1.8v7.2c0,0.8,0.1,1.4,1.3,1.4c0.2,0,0.3,0,0.5,0v2.1c-0.2,0-0.6,0.1-1.6,0.1
			c-2.8,0-3.2-1-3.2-2.7v-8.2h-1.6v-2h1.6V49.1z"/>
		<path class="st0" d="M214.8,48.9h2.9v3h-2.9V48.9z M214.8,53.7h3v12.7h-3V53.7z"/>
		<path class="st0" d="M218.9,53.7h2.9l1.3,8.8l1.5-8.8h2.9l-3,12.7h-2.9L218.9,53.7z"/>
		<path class="st0" d="M228.7,57.6c0-1.9,0-2.5,0.7-3.2c0.6-0.6,1.8-1,3.2-1c0.6,0,1.5,0.1,2.3,0.5c1.3,0.7,1.5,1.8,1.5,2.3v7.1
			c0,1.8,0,2.7,0.6,3.1h-3.1c-0.2-0.2-0.3-0.6-0.3-1.1c-0.6,0.7-1.2,1.4-2.6,1.4c-2.5,0-2.5-2.3-2.5-3.5c0-2.3,0-2.9,1.9-3.9
			l3.1-1.5c0-1.2,0-1.3,0-1.4c0-0.3-0.1-0.8-1-0.8c-1,0-1,0.6-1,2.2H228.7z M233.4,60l-1.4,0.9c-0.6,0.4-0.7,0.8-0.7,2.1
			c0,1,0.2,1.4,0.7,1.4c0.3,0,0.7-0.1,1.4-0.7V60z"/>
		<path class="st0" d="M238.5,53.7h3v0.8c0.6-0.5,1.3-1.1,2.5-1.1c1.3,0,2,0.7,2.4,1.3c0.7-0.7,1.5-1.3,2.9-1.3
			c0.8,0,1.5,0.3,1.8,0.7c0.6,0.6,0.7,1.3,0.7,2.2v10.1h-2.9V57c0-0.6,0-1.5-1.1-1.5c-0.8,0-1.2,0.6-1.2,1.6v9.2h-2.9v-9.3
			c0-0.6,0-1.6-1.1-1.6c-0.8,0-1.1,0.6-1.1,1.5v9.4h-2.9V53.7z"/>
		<path class="st0" d="M256.8,62.8c0,0.5,0,1.6,1.1,1.6c0.3,0,0.6-0.1,0.8-0.4c0.2-0.3,0.2-0.4,0.2-1.8h2.9v1c0,2.8-2,3.4-3.9,3.4
			c-2.9,0-4.1-1.5-4.1-4.1v-5.4c0-1.6,0.5-2.5,1.4-3c0.7-0.5,1.8-0.7,2.7-0.7c1.2,0,2.3,0.4,3.1,1.1c0.7,0.7,0.9,1.8,0.9,2.5v3.6
			h-5.1V62.8z M256.8,58.6h2.1v-1.6c0-0.3,0-1.3-1-1.3c-0.8,0-1.1,0.5-1.1,1.3V58.6z"/>
		<path class="st0" d="M263.9,53.7h3l0,0.9c0.6-0.6,1.2-1.2,2.6-1.2c0.9,0,1.6,0.3,2,0.8c0.6,0.7,0.6,1.4,0.6,2.2v9.9h-2.9v-9.3
			c0-0.7,0-1.5-1-1.5c-1.2,0-1.2,1.1-1.2,1.7v9.1h-2.9V53.7z"/>
		<path class="st0" d="M274.9,49.1h2.9v4.6h1.8v2h-1.8v7.2c0,0.8,0.1,1.4,1.3,1.4c0.2,0,0.3,0,0.5,0v2.1c-0.2,0-0.6,0.1-1.6,0.1
			c-2.8,0-3.2-1-3.2-2.7v-8.2h-1.6v-2h1.6V49.1z"/>
		<path class="st0" d="M283.7,62.8c0,0.5,0,1.6,1.1,1.6c0.3,0,0.6-0.1,0.8-0.4c0.2-0.3,0.2-0.4,0.2-1.8h2.9v1c0,2.8-2,3.4-3.9,3.4
			c-2.9,0-4.1-1.5-4.1-4.1v-5.4c0-1.6,0.5-2.5,1.4-3c0.7-0.5,1.8-0.7,2.7-0.7c1.2,0,2.3,0.4,3.1,1.1c0.7,0.7,0.9,1.8,0.9,2.5v3.6
			h-5.1V62.8z M283.7,58.6h2.1v-1.6c0-0.3,0-1.3-1-1.3c-0.8,0-1.1,0.5-1.1,1.3V58.6z"/>
		<path class="st0" d="M296.9,48.9h3v17.5h-3V48.9z"/>
		<path class="st0" d="M301.9,57.1c0-1.5,0.5-3.7,4-3.7c0.9,0,1.9,0.2,2.7,0.7c1.1,0.7,1.2,1.8,1.2,2.8v6.1c0,2.3-1.4,3.5-4.1,3.5
			c-3.9,0-3.9-2.9-3.9-3.8V57.1z M304.9,63.3c0,0.3,0,1.3,1,1.3c1,0,1-0.9,1-1.3v-6.4c0-0.7-0.1-1.5-1-1.5c-1.1,0-1.1,1-1.1,1.6
			V63.3z"/>
		<path class="st0" d="M311.5,61.9h2.7c0,1.8,0,2.6,1.2,2.6c0.6,0,1.1-0.3,1.1-1.4c0-0.7,0-1.1-0.9-1.7l-2.5-1.7
			c-0.2-0.1-0.6-0.5-0.8-0.8c-0.3-0.4-0.7-0.9-0.7-2.3c0-2.7,1.7-3.3,3.8-3.3c2.6,0,3.6,1.1,3.6,2.9v1.4h-2.6c0-1.4,0-2.3-1.1-2.3
			c-0.4,0-1,0.1-1,1.1c0,0.3,0,0.8,0.8,1.4l2.7,1.9c0.2,0.1,0.7,0.7,0.8,0.8c0.3,0.5,0.4,1.2,0.4,2c0,1.6,0,3.9-3.9,3.9
			c-3.2,0-3.8-1.6-3.8-3.4V61.9z"/>
		<path class="st0" d="M332.6,48.9h2.9v17.5h-3l0-1.2c-0.5,0.7-1,1.5-2.5,1.5c-1.2,0-2.1-0.6-2.5-1.3c-0.3-0.6-0.4-1.5-0.4-2.7v-5.8
			c0-0.9,0.1-1.4,0.3-1.9c0.5-1.1,1.7-1.5,2.4-1.5c1.2,0,2,0.7,2.6,1.3V48.9z M330.2,62.7c0,0.6,0,1.4,1.1,1.4
			c1.2,0,1.2-1.1,1.2-1.5v-5.5c0-0.4,0-1.5-1.2-1.5c-1.1,0-1.1,1-1.1,1.6V62.7z"/>
		<path class="st0" d="M339.2,48.4h3.9c-1.3,1.4-1.7,1.7-3.1,3.3h-2.3L339.2,48.4z M337.7,53.7h3v12.7h-3V53.7z"/>
		<path class="st0" d="M342.8,57.6c0-1.9,0-2.5,0.7-3.2c0.6-0.6,1.8-1,3.2-1c0.6,0,1.5,0.1,2.3,0.5c1.3,0.7,1.5,1.8,1.5,2.3v7.1
			c0,1.8,0,2.7,0.6,3.1H348c-0.2-0.2-0.3-0.6-0.3-1.1c-0.6,0.7-1.2,1.4-2.6,1.4c-2.5,0-2.5-2.3-2.5-3.5c0-2.3,0-2.9,1.9-3.9l3.1-1.5
			c0-1.2,0-1.3,0-1.4c0-0.3-0.1-0.8-1-0.8c-1,0-1,0.6-1,2.2H342.8z M347.6,60l-1.4,0.9c-0.6,0.4-0.7,0.8-0.7,2.1
			c0,1,0.2,1.4,0.7,1.4c0.3,0,0.7-0.1,1.4-0.7V60z"/>
		<path class="st0" d="M352.3,61.9h2.7c0,1.8,0,2.6,1.2,2.6c0.6,0,1.1-0.3,1.1-1.4c0-0.7,0-1.1-0.9-1.7l-2.5-1.7
			c-0.2-0.1-0.6-0.5-0.8-0.8c-0.3-0.4-0.7-0.9-0.7-2.3c0-2.7,1.7-3.3,3.8-3.3c2.6,0,3.6,1.1,3.6,2.9v1.4h-2.6c0-1.4,0-2.3-1.1-2.3
			c-0.4,0-1,0.1-1,1.1c0,0.3,0,0.8,0.8,1.4l2.7,1.9c0.2,0.1,0.7,0.7,0.8,0.8c0.3,0.5,0.4,1.2,0.4,2c0,1.6,0,3.9-3.9,3.9
			c-3.2,0-3.8-1.6-3.8-3.4V61.9z"/>
		<path class="st0" d="M368.2,48.9h3v17.5h-3V48.9z"/>
		<path class="st0" d="M373.3,48.9h2.9v3h-2.9V48.9z M373.3,53.7h3v12.7h-3V53.7z"/>
		<path class="st0" d="M378.5,48.9h2.9v5.8c1.3-1.2,2.4-1.3,2.7-1.3c1,0,2.7,0.7,2.7,3v7.2c0,2.7-1.9,3.1-2.7,3.1
			c-1.6,0-2.2-0.9-2.6-1.4v1.2h-2.9V48.9z M383.8,57.2c0-0.4,0-1.4-1.1-1.4c-1.3,0-1.3,1-1.3,1.6v5.1c0,0.8,0.1,1.7,1.2,1.7
			c1.2,0,1.2-1.1,1.2-1.7V57.2z"/>
		<path class="st0" d="M388.8,53.7h2.9l0,1.6c0.5-0.9,1.2-1.9,2.9-1.8v2.9c-0.2-0.1-0.5-0.2-1-0.2c-1.9,0-1.9,1.7-1.9,2.7v7.5h-2.9
			V53.7z"/>
		<path class="st0" d="M398.3,62.8c0,0.5,0,1.6,1.1,1.6c0.3,0,0.6-0.1,0.8-0.4c0.2-0.3,0.2-0.4,0.2-1.8h2.9v1c0,2.8-2,3.4-3.9,3.4
			c-2.9,0-4.1-1.5-4.1-4.1v-5.4c0-1.6,0.5-2.5,1.4-3c0.7-0.5,1.8-0.7,2.7-0.7c1.2,0,2.3,0.4,3.1,1.1c0.7,0.7,0.9,1.8,0.9,2.5v3.6
			h-5.1V62.8z M398.4,58.6h2.1v-1.6c0-0.3,0-1.3-1-1.3c-0.8,0-1.1,0.5-1.1,1.3V58.6z"/>
		<path class="st0" d="M405,61.9h2.7c0,1.8,0,2.6,1.2,2.6c0.6,0,1.1-0.3,1.1-1.4c0-0.7,0-1.1-0.9-1.7l-2.5-1.7
			c-0.2-0.1-0.6-0.5-0.8-0.8c-0.3-0.4-0.7-0.9-0.7-2.3c0-2.7,1.7-3.3,3.8-3.3c2.6,0,3.6,1.1,3.6,2.9v1.4H410c0-1.4,0-2.3-1.1-2.3
			c-0.4,0-1,0.1-1,1.1c0,0.3,0,0.8,0.8,1.4l2.7,1.9c0.2,0.1,0.7,0.7,0.8,0.8c0.3,0.5,0.4,1.2,0.4,2c0,1.6,0,3.9-3.9,3.9
			c-3.2,0-3.8-1.6-3.8-3.4V61.9z"/>
		<path class="st0" d="M426.1,48.9h2.9v17.5h-3l0-1.2c-0.5,0.7-1,1.5-2.5,1.5c-1.2,0-2.1-0.6-2.5-1.3c-0.3-0.6-0.4-1.5-0.4-2.7v-5.8
			c0-0.9,0.1-1.4,0.3-1.9c0.5-1.1,1.7-1.5,2.4-1.5c1.2,0,2,0.7,2.6,1.3V48.9z M423.7,62.7c0,0.6,0,1.4,1.1,1.4
			c1.2,0,1.2-1.1,1.2-1.5v-5.5c0-0.4,0-1.5-1.2-1.5c-1.1,0-1.1,1-1.1,1.6V62.7z"/>
		<path class="st0" d="M434,62.8c0,0.5,0,1.6,1.1,1.6c0.3,0,0.6-0.1,0.8-0.4c0.2-0.3,0.2-0.4,0.2-1.8h2.9v1c0,2.8-2,3.4-3.9,3.4
			c-2.9,0-4.1-1.5-4.1-4.1v-5.4c0-1.6,0.5-2.5,1.4-3c0.7-0.5,1.8-0.7,2.7-0.7c1.2,0,2.3,0.4,3.1,1.1c0.7,0.7,0.9,1.8,0.9,2.5v3.6
			H434V62.8z M434,58.6h2.1v-1.6c0-0.3,0-1.3-1-1.3c-0.8,0-1.1,0.5-1.1,1.3V58.6z"/>
		<path class="st0" d="M446.8,61.9h2.7c0,1.8,0,2.6,1.2,2.6c0.6,0,1.1-0.3,1.1-1.4c0-0.7,0-1.1-0.9-1.7l-2.5-1.7
			c-0.2-0.1-0.6-0.5-0.8-0.8c-0.3-0.4-0.7-0.9-0.7-2.3c0-2.7,1.7-3.3,3.8-3.3c2.6,0,3.6,1.1,3.6,2.9v1.4h-2.6c0-1.4,0-2.3-1.1-2.3
			c-0.4,0-1,0.1-1,1.1c0,0.3,0,0.8,0.8,1.4l2.7,1.9c0.2,0.1,0.7,0.7,0.8,0.8c0.3,0.5,0.4,1.2,0.4,2c0,1.6,0,3.9-3.9,3.9
			c-3.2,0-3.8-1.6-3.8-3.4V61.9z"/>
		<path class="st0" d="M456.5,48.9h2.9v3h-2.9V48.9z M456.5,53.7h3v12.7h-3V53.7z"/>
		<path class="st0" d="M461.7,53.7h3l0,0.9c0.6-0.6,1.2-1.2,2.6-1.2c0.9,0,1.6,0.3,2,0.8c0.6,0.7,0.6,1.4,0.6,2.2v9.9h-2.9v-9.3
			c0-0.7,0-1.5-1-1.5c-1.2,0-1.2,1.1-1.2,1.7v9.1h-2.9V53.7z"/>
		<path class="st0" d="M472.7,49.1h2.9v4.6h1.8v2h-1.8v7.2c0,0.8,0.1,1.4,1.3,1.4c0.2,0,0.3,0,0.5,0v2.1c-0.2,0-0.6,0.1-1.6,0.1
			c-2.8,0-3.2-1-3.2-2.7v-8.2h-1.6v-2h1.6V49.1z"/>
		<path class="st0" d="M478.6,57.1c0-1.5,0.5-3.7,4-3.7c0.9,0,1.9,0.2,2.7,0.7c1.1,0.7,1.2,1.8,1.2,2.8v6.1c0,2.3-1.4,3.5-4.1,3.5
			c-3.9,0-3.9-2.9-3.9-3.8V57.1z M481.5,63.3c0,0.3,0,1.3,1,1.3c1,0,1-0.9,1-1.3v-6.4c0-0.7-0.1-1.5-1-1.5c-1.1,0-1.1,1-1.1,1.6
			V63.3z"/>
		<path class="st0" d="M488.5,53.7h3v0.8c0.6-0.5,1.3-1.1,2.5-1.1c1.3,0,2,0.7,2.4,1.3c0.7-0.7,1.5-1.3,2.9-1.3
			c0.8,0,1.5,0.3,1.8,0.7c0.6,0.6,0.7,1.3,0.7,2.2v10.1h-2.9V57c0-0.6,0-1.5-1.1-1.5c-0.8,0-1.2,0.6-1.2,1.6v9.2h-2.9v-9.3
			c0-0.6,0-1.6-1.1-1.6c-0.8,0-1.1,0.6-1.1,1.5v9.4h-2.9V53.7z"/>
		<path class="st0" d="M504,57.6c0-1.9,0-2.5,0.7-3.2c0.6-0.6,1.8-1,3.2-1c0.6,0,1.5,0.1,2.3,0.5c1.3,0.7,1.5,1.8,1.5,2.3v7.1
			c0,1.8,0,2.7,0.6,3.1h-3.1c-0.2-0.2-0.3-0.6-0.3-1.1c-0.6,0.7-1.2,1.4-2.6,1.4c-2.5,0-2.5-2.3-2.5-3.5c0-2.3,0-2.9,1.9-3.9
			l3.1-1.5c0-1.2,0-1.3,0-1.4c0-0.3-0.1-0.8-1-0.8c-1,0-1,0.6-1,2.2H504z M508.7,60l-1.4,0.9c-0.6,0.4-0.7,0.8-0.7,2.1
			c0,1,0.2,1.4,0.7,1.4c0.3,0,0.7-0.1,1.4-0.7V60z"/>
		<path class="st0" d="M513.4,61.9h2.7c0,1.8,0,2.6,1.2,2.6c0.6,0,1.1-0.3,1.1-1.4c0-0.7,0-1.1-0.9-1.7l-2.5-1.7
			c-0.2-0.1-0.6-0.5-0.8-0.8c-0.3-0.4-0.7-0.9-0.7-2.3c0-2.7,1.7-3.3,3.8-3.3c2.6,0,3.6,1.1,3.6,2.9v1.4h-2.6c0-1.4,0-2.3-1.1-2.3
			c-0.4,0-1,0.1-1,1.1c0,0.3,0,0.8,0.8,1.4l2.7,1.9c0.2,0.1,0.7,0.7,0.8,0.8c0.3,0.5,0.4,1.2,0.4,2c0,1.6,0,3.9-3.9,3.9
			c-3.2,0-3.8-1.6-3.8-3.4V61.9z"/>
		<path class="st0" d="M36,86.1h6.4c3.1,0,3.1,2.1,3.1,3.7v1.9c0,2.2-0.7,2.6-2.3,3c0.8,0.2,2.4,0.7,2.4,3v3.6
			c0,0.9,0.1,1.8,0.7,2.4h-3.5c-0.4-0.7-0.5-1.4-0.5-1.9V98c0-1.2,0-2-1.7-2h-1.5v7.7H36V86.1z M39.2,93.4h1.7
			c1.5,0,1.5-0.8,1.5-1.7v-1.7c0-1.4-0.8-1.4-1.5-1.4h-1.7V93.4z"/>
		<path class="st0" d="M50.7,100c0,0.5,0,1.6,1.1,1.6c0.3,0,0.6-0.1,0.8-0.4c0.2-0.3,0.2-0.4,0.2-1.8h2.9v1c0,2.8-2,3.4-3.9,3.4
			c-2.9,0-4.1-1.5-4.1-4.1v-5.4c0-1.6,0.5-2.5,1.4-3c0.7-0.5,1.8-0.7,2.7-0.7c1.2,0,2.3,0.4,3.1,1.1c0.7,0.7,0.9,1.8,0.9,2.5V98
			h-5.1V100z M50.7,95.9h2.1v-1.6c0-0.3,0-1.3-1-1.3c-0.8,0-1.1,0.5-1.1,1.3V95.9z"/>
		<path class="st0" d="M63,86.1h2.9v17.5h-3l0-1.2c-0.5,0.7-1,1.5-2.5,1.5c-1.2,0-2.1-0.6-2.5-1.3c-0.3-0.6-0.4-1.5-0.4-2.7v-5.8
			c0-0.9,0.1-1.4,0.3-1.9c0.5-1.1,1.7-1.5,2.4-1.5c1.2,0,2,0.7,2.6,1.3V86.1z M60.6,100c0,0.6,0,1.4,1.1,1.4c1.2,0,1.2-1.1,1.2-1.5
			v-5.5c0-0.4,0-1.5-1.2-1.5c-1.1,0-1.1,1-1.1,1.6V100z"/>
		<path class="st0" d="M68.1,91H71v9.1c0,0.6,0,1.5,1.1,1.5c1.1,0,1.1-1,1.1-1.7v-9h3v12.7h-3v-1c-0.6,0.5-1.4,1.2-2.7,1.2
			c-0.8,0-2.1-0.4-2.4-2c-0.1-0.4-0.1-0.7-0.1-1.4V91z"/>
		<path class="st0" d="M83.5,95.8v-1.5c0-0.4,0-1.4-1.1-1.4c-1.2,0-1.2,1.1-1.2,1.7v5.5c0,0.6,0,1.7,1.2,1.7c1.1,0,1.1-1.1,1.1-1.6
			v-1.5h2.9v1.4c0,2.6-1.4,3.8-4,3.8c-0.6,0-2-0.1-3-0.9c-1-0.8-1.1-1.8-1.1-2.8v-5.6c0-0.9,0.2-1.8,0.7-2.5c0.8-1,2.1-1.4,3.4-1.4
			c1.1,0,2.3,0.3,3,0.9c0.8,0.6,1,1.4,1,2.7v1.5H83.5z"/>
		<path class="st0" d="M91,100c0,0.5,0,1.6,1.1,1.6c0.3,0,0.6-0.1,0.8-0.4c0.2-0.3,0.2-0.4,0.2-1.8H96v1c0,2.8-2,3.4-3.9,3.4
			c-2.9,0-4.1-1.5-4.1-4.1v-5.4c0-1.6,0.5-2.5,1.4-3c0.7-0.5,1.8-0.7,2.7-0.7c1.2,0,2.3,0.4,3.1,1.1c0.7,0.7,0.9,1.8,0.9,2.5V98H91
			V100z M91,95.9h2.1v-1.6c0-0.3,0-1.3-1-1.3c-0.8,0-1.1,0.5-1.1,1.3V95.9z"/>
		<path class="st0" d="M104.3,86.2h3v17.5h-3V86.2z"/>
		<path class="st0" d="M109.3,94.4c0-1.5,0.5-3.7,4-3.7c0.9,0,1.9,0.2,2.7,0.7c1.1,0.7,1.2,1.8,1.2,2.8v6.1c0,2.3-1.4,3.5-4.1,3.5
			c-3.9,0-3.9-2.9-3.9-3.8V94.4z M112.2,100.6c0,0.3,0,1.3,1,1.3c1,0,1-0.9,1-1.3v-6.4c0-0.7-0.1-1.5-1-1.5c-1.1,0-1.1,1-1.1,1.6
			V100.6z"/>
		<path class="st0" d="M118.8,99.2h2.7c0,1.8,0,2.6,1.2,2.6c0.6,0,1.1-0.3,1.1-1.4c0-0.7,0-1.1-0.9-1.7l-2.5-1.7
			c-0.2-0.1-0.6-0.5-0.8-0.8c-0.3-0.4-0.7-0.9-0.7-2.3c0-2.7,1.7-3.3,3.8-3.3c2.6,0,3.6,1.1,3.6,2.9V95h-2.6c0-1.4,0-2.3-1.1-2.3
			c-0.4,0-1,0.1-1,1.1c0,0.3,0,0.8,0.8,1.4l2.7,1.9c0.2,0.1,0.7,0.7,0.8,0.8c0.3,0.5,0.4,1.2,0.4,2c0,1.6,0,3.9-3.9,3.9
			c-3.2,0-3.8-1.6-3.8-3.4V99.2z"/>
		<path class="st0" d="M134.3,99.2h2.7c0,1.8,0,2.6,1.2,2.6c0.6,0,1.1-0.3,1.1-1.4c0-0.7,0-1.1-0.9-1.7L136,97
			c-0.2-0.1-0.6-0.5-0.8-0.8c-0.3-0.4-0.7-0.9-0.7-2.3c0-2.7,1.7-3.3,3.8-3.3c2.6,0,3.6,1.1,3.6,2.9V95h-2.6c0-1.4,0-2.3-1.1-2.3
			c-0.4,0-1,0.1-1,1.1c0,0.3,0,0.8,0.8,1.4l2.7,1.9c0.2,0.1,0.7,0.7,0.8,0.8c0.3,0.5,0.4,1.2,0.4,2c0,1.6,0,3.9-3.9,3.9
			c-3.2,0-3.8-1.6-3.8-3.4V99.2z"/>
		<path class="st0" d="M144,86.1h2.9v3H144V86.1z M144,91h3v12.7h-3V91z"/>
		<path class="st0" d="M149.2,91h3l0,0.9c0.6-0.6,1.2-1.2,2.6-1.2c0.9,0,1.6,0.3,2,0.8c0.6,0.7,0.6,1.4,0.6,2.2v9.9h-2.9v-9.3
			c0-0.7,0-1.5-1-1.5c-1.2,0-1.2,1.1-1.2,1.7v9.1h-2.9V91z"/>
		<path class="st0" d="M160.2,86.4h2.9V91h1.8v2h-1.8v7.2c0,0.8,0.1,1.4,1.3,1.4c0.2,0,0.3,0,0.5,0v2.1c-0.2,0-0.6,0.1-1.6,0.1
			c-2.8,0-3.2-1-3.2-2.7v-8.2h-1.6v-2h1.6V86.4z"/>
		<path class="st0" d="M166.1,94.4c0-1.5,0.5-3.7,4-3.7c0.9,0,1.9,0.2,2.7,0.7c1.1,0.7,1.2,1.8,1.2,2.8v6.1c0,2.3-1.4,3.5-4.1,3.5
			c-3.9,0-3.9-2.9-3.9-3.8V94.4z M169,100.6c0,0.3,0,1.3,1,1.3c1,0,1-0.9,1-1.3v-6.4c0-0.7-0.1-1.5-1-1.5c-1.1,0-1.1,1-1.1,1.6
			V100.6z"/>
		<path class="st0" d="M176,91h3v0.8c0.6-0.5,1.3-1.1,2.5-1.1c1.3,0,2,0.7,2.4,1.3c0.7-0.7,1.5-1.3,2.9-1.3c0.8,0,1.5,0.3,1.8,0.7
			c0.6,0.6,0.7,1.3,0.7,2.2v10.1h-2.9v-9.4c0-0.6,0-1.5-1.1-1.5c-0.8,0-1.2,0.6-1.2,1.6v9.2h-2.9v-9.3c0-0.6,0-1.6-1.1-1.6
			c-0.8,0-1.1,0.6-1.1,1.5v9.4H176V91z"/>
		<path class="st0" d="M191.5,94.9c0-1.9,0-2.5,0.7-3.2c0.6-0.6,1.8-1,3.2-1c0.6,0,1.5,0.1,2.3,0.5c1.3,0.7,1.5,1.8,1.5,2.3v7.1
			c0,1.8,0,2.7,0.6,3.1h-3.1c-0.2-0.2-0.3-0.6-0.3-1.1c-0.6,0.7-1.2,1.4-2.6,1.4c-2.5,0-2.5-2.3-2.5-3.5c0-2.3,0-2.9,1.9-3.9
			l3.1-1.5c0-1.2,0-1.3,0-1.4c0-0.3-0.1-0.8-1-0.8c-1,0-1,0.6-1,2.2H191.5z M196.2,97.3l-1.4,0.9c-0.6,0.4-0.7,0.8-0.7,2.1
			c0,1,0.2,1.4,0.7,1.4c0.3,0,0.7-0.1,1.4-0.7V97.3z"/>
		<path class="st0" d="M200.9,99.2h2.7c0,1.8,0,2.6,1.2,2.6c0.6,0,1.1-0.3,1.1-1.4c0-0.7,0-1.1-0.9-1.7l-2.5-1.7
			c-0.2-0.1-0.6-0.5-0.8-0.8c-0.3-0.4-0.7-0.9-0.7-2.3c0-2.7,1.7-3.3,3.8-3.3c2.6,0,3.6,1.1,3.6,2.9V95H206c0-1.4,0-2.3-1.1-2.3
			c-0.4,0-1,0.1-1,1.1c0,0.3,0,0.8,0.8,1.4l2.7,1.9c0.2,0.1,0.7,0.7,0.8,0.8c0.3,0.5,0.4,1.2,0.4,2c0,1.6,0,3.9-3.9,3.9
			c-3.2,0-3.8-1.6-3.8-3.4V99.2z"/>
		<path class="st0" d="M217.1,91.3c0-3.3,2.4-5.5,5.4-6.8v2.3c-2.2,1.3-2.5,3.3-2.5,5v9.7c0,2,0.6,3.1,2.5,4.6v2.2
			c-1.2-0.4-2.9-1.4-4-2.7c-0.9-1.1-1.4-2.4-1.4-4.3V91.3z"/>
		<path class="st0" d="M224.2,89.8c0.3-0.1,1-0.2,2.1-1.1c0.6-0.5,0.9-0.9,1.4-1.6h1.9v16.5h-2.9V91.1c-0.3,0.3-0.9,0.8-2.5,1V89.8z
			"/>
		<path class="st0" d="M239,91.6c0-1.7,0-2.4-1.3-2.4c-1.4,0-1.4,1-1.4,1.6V94c0.5-0.4,1.3-1,2.6-1c2.9,0,2.9,2.7,2.9,3.2v3.8
			c0,0.9,0,3.8-4.2,3.8c-0.9,0-2-0.2-2.8-0.8c-1.3-0.9-1.3-2.3-1.3-3.1v-9.5c0-3,2.4-3.6,4.3-3.6c0.8,0,1.7,0.1,2.5,0.5
			c1.5,0.7,1.5,1.9,1.5,4.1H239z M236.4,99.7c0,0.7,0,1.9,1.4,1.9c1.3,0,1.3-1.1,1.3-1.5v-3c0-0.7,0-1.8-1.3-1.8
			c-1.4,0-1.4,1.2-1.4,1.6V99.7z"/>
		<path class="st0" d="M243.2,90c0-0.8,0-2.9,2.9-2.9c3,0,3,2.1,3,2.7v5.8c0,1.8-1.1,2.7-2.9,2.7c-3,0-3-1.9-3-2.7V90z M245.2,95.7
			c0,0.4,0.1,0.9,1,0.9c1,0,1-0.6,1-1.1v-5.9c0-0.6,0-1.2-1-1.2c-1,0-1,0.6-1,1.2V95.7z M253.9,86l1.6,0.5l-6.6,18.3l-1.6-0.5
			L253.9,86z M253.6,95.5c0-0.7,0-2.9,2.9-2.9c3,0,3,2.1,3,2.7v5.8c0,1.8-1.1,2.7-2.9,2.7c-3,0-3-1.9-3-2.7V95.5z M255.6,101.3
			c0,0.4,0.1,0.9,1,0.9c1,0,1-0.6,1-1.1v-5.9c0-0.6,0-1.2-1-1.2c-1,0-1,0.6-1,1.2V101.3z"/>
		<path class="st0" d="M266.1,101.4c0,3.1-2.2,5.4-5.4,6.8v-2.3c2.2-1.3,2.5-3.3,2.5-5v-9.7c0-2-0.6-3.1-2.5-4.6v-2.2
			c1.2,0.4,3,1.5,4,2.7c0.9,1.1,1.4,2.4,1.4,4.3V101.4z"/>
		<path class="st0" d="M273.6,91h2.9l1.6,8.2l1.3-8.2h2.9l-2.9,13.6c-0.5,2.6-1.2,3.5-3.5,3.5c-0.6,0-0.8,0-2-0.2l0.4-2.3
			c0.5,0.2,1.1,0.2,1.2,0.2c1.3,0,1.4-1.9,1.3-2L273.6,91z"/>
		<path class="st0" d="M294.9,86.1h2.9v17.5h-3l0-1.2c-0.5,0.7-1,1.5-2.5,1.5c-1.2,0-2.1-0.6-2.5-1.3c-0.3-0.6-0.4-1.5-0.4-2.7v-5.8
			c0-0.9,0.1-1.4,0.3-1.9c0.5-1.1,1.7-1.5,2.4-1.5c1.2,0,2,0.7,2.6,1.3V86.1z M292.4,100c0,0.6,0,1.4,1.1,1.4c1.2,0,1.2-1.1,1.2-1.5
			v-5.5c0-0.4,0-1.5-1.2-1.5c-1.1,0-1.1,1-1.1,1.6V100z"/>
		<path class="st0" d="M302.8,100c0,0.5,0,1.6,1.1,1.6c0.3,0,0.6-0.1,0.8-0.4c0.2-0.3,0.2-0.4,0.2-1.8h2.9v1c0,2.8-2,3.4-3.9,3.4
			c-2.9,0-4.1-1.5-4.1-4.1v-5.4c0-1.6,0.5-2.5,1.4-3c0.7-0.5,1.8-0.7,2.7-0.7c1.2,0,2.3,0.4,3.1,1.1c0.7,0.7,0.9,1.8,0.9,2.5V98
			h-5.1V100z M302.8,95.9h2.1v-1.6c0-0.3,0-1.3-1-1.3c-0.8,0-1.1,0.5-1.1,1.3V95.9z"/>
		<path class="st0" d="M309.4,99.2h2.7c0,1.8,0,2.6,1.2,2.6c0.6,0,1.1-0.3,1.1-1.4c0-0.7,0-1.1-0.9-1.7l-2.5-1.7
			c-0.2-0.1-0.6-0.5-0.8-0.8c-0.3-0.4-0.7-0.9-0.7-2.3c0-2.7,1.7-3.3,3.8-3.3c2.6,0,3.6,1.1,3.6,2.9V95h-2.6c0-1.4,0-2.3-1.1-2.3
			c-0.4,0-1,0.1-1,1.1c0,0.3,0,0.8,0.8,1.4l2.7,1.9c0.2,0.1,0.7,0.7,0.8,0.8c0.3,0.5,0.4,1.2,0.4,2c0,1.6,0,3.9-3.9,3.9
			c-3.2,0-3.8-1.6-3.8-3.4V99.2z"/>
		<path class="st0" d="M319.1,91h2.9v1c0.5-0.4,1.4-1.2,2.7-1.2c0.8,0,1.5,0.3,2,0.8c0.5,0.6,0.7,1.4,0.7,2.5v6.7
			c0,1-0.2,1.6-0.4,1.9c-0.4,0.8-1.3,1.2-2.2,1.2c-1.2,0-2-0.7-2.8-1.3v5.4h-2.9V91z M322,100.1c0,0.8,0.3,1.4,1.2,1.4
			c1.1,0,1.2-0.8,1.2-1.3v-5.9c0-0.9-0.4-1.4-1.2-1.4c-1.2,0-1.2,1.1-1.2,1.5V100.1z"/>
		<path class="st0" d="M332.2,100c0,0.5,0,1.6,1.1,1.6c0.3,0,0.6-0.1,0.8-0.4c0.2-0.3,0.2-0.4,0.2-1.8h2.9v1c0,2.8-2,3.4-3.9,3.4
			c-2.9,0-4.1-1.5-4.1-4.1v-5.4c0-1.6,0.5-2.5,1.4-3c0.7-0.5,1.8-0.7,2.7-0.7c1.2,0,2.3,0.4,3.1,1.1c0.7,0.7,0.9,1.8,0.9,2.5V98
			h-5.1V100z M332.2,95.9h2.1v-1.6c0-0.3,0-1.3-1-1.3c-0.8,0-1.1,0.5-1.1,1.3V95.9z"/>
		<path class="st0" d="M339.2,91h2.9l0,1.6c0.5-0.9,1.2-1.9,2.9-1.8v2.9c-0.2-0.1-0.5-0.2-1-0.2c-1.9,0-1.9,1.7-1.9,2.7v7.5h-2.9V91
			z"/>
		<path class="st0" d="M347.1,86.4h2.9V91h1.8v2h-1.8v7.2c0,0.8,0.1,1.4,1.3,1.4c0.2,0,0.3,0,0.5,0v2.1c-0.2,0-0.6,0.1-1.6,0.1
			c-2.8,0-3.2-1-3.2-2.7v-8.2h-1.6v-2h1.6V86.4z"/>
		<path class="st0" d="M353.4,94.9c0-1.9,0-2.5,0.7-3.2c0.6-0.6,1.8-1,3.2-1c0.6,0,1.5,0.1,2.3,0.5c1.3,0.7,1.5,1.8,1.5,2.3v7.1
			c0,1.8,0,2.7,0.6,3.1h-3.1c-0.2-0.2-0.3-0.6-0.3-1.1c-0.6,0.7-1.2,1.4-2.6,1.4c-2.5,0-2.5-2.3-2.5-3.5c0-2.3,0-2.9,1.9-3.9
			l3.1-1.5c0-1.2,0-1.3,0-1.4c0-0.3-0.1-0.8-1-0.8c-1,0-1,0.6-1,2.2H353.4z M358.1,97.3l-1.4,0.9c-0.6,0.4-0.7,0.8-0.7,2.1
			c0,1,0.2,1.4,0.7,1.4c0.3,0,0.7-0.1,1.4-0.7V97.3z"/>
		<path class="st0" d="M363.3,91h2.9l0,1.6c0.5-0.9,1.2-1.9,2.9-1.8v2.9c-0.2-0.1-0.5-0.2-1-0.2c-1.9,0-1.9,1.7-1.9,2.7v7.5h-2.9V91
			z"/>
		<path class="st0" d="M372.8,100c0,0.5,0,1.6,1.1,1.6c0.3,0,0.6-0.1,0.8-0.4c0.2-0.3,0.2-0.4,0.2-1.8h2.9v1c0,2.8-2,3.4-3.9,3.4
			c-2.9,0-4.1-1.5-4.1-4.1v-5.4c0-1.6,0.5-2.5,1.4-3c0.7-0.5,1.8-0.7,2.7-0.7c1.2,0,2.3,0.4,3.1,1.1c0.7,0.7,0.9,1.8,0.9,2.5V98
			h-5.1V100z M372.8,95.9h2.1v-1.6c0-0.3,0-1.3-1-1.3c-0.8,0-1.1,0.5-1.1,1.3V95.9z"/>
		<path class="st0" d="M379.4,99.2h2.7c0,1.8,0,2.6,1.2,2.6c0.6,0,1.1-0.3,1.1-1.4c0-0.7,0-1.1-0.9-1.7l-2.5-1.7
			c-0.2-0.1-0.6-0.5-0.8-0.8c-0.3-0.4-0.7-0.9-0.7-2.3c0-2.7,1.7-3.3,3.8-3.3c2.6,0,3.6,1.1,3.6,2.9V95h-2.6c0-1.4,0-2.3-1.1-2.3
			c-0.4,0-1,0.1-1,1.1c0,0.3,0,0.8,0.8,1.4l2.7,1.9c0.2,0.1,0.7,0.7,0.8,0.8c0.3,0.5,0.4,1.2,0.4,2c0,1.6,0,3.9-3.9,3.9
			c-3.2,0-3.8-1.6-3.8-3.4V99.2z"/>
		<path class="st0" d="M395.3,91h3l0,0.9c0.6-0.6,1.2-1.2,2.6-1.2c0.9,0,1.6,0.3,2,0.8c0.6,0.7,0.6,1.4,0.6,2.2v9.9h-2.9v-9.3
			c0-0.7,0-1.5-1-1.5c-1.2,0-1.2,1.1-1.2,1.7v9.1h-2.9V91z"/>
		<path class="st0" d="M405.5,94.4c0-1.5,0.5-3.7,4-3.7c0.9,0,1.9,0.2,2.7,0.7c1.1,0.7,1.2,1.8,1.2,2.8v6.1c0,2.3-1.4,3.5-4.1,3.5
			c-3.9,0-3.9-2.9-3.9-3.8V94.4z M408.4,100.6c0,0.3,0,1.3,1,1.3c1,0,1-0.9,1-1.3v-6.4c0-0.7-0.1-1.5-1-1.5c-1.1,0-1.1,1-1.1,1.6
			V100.6z"/>
		<path class="st0" d="M420.5,95.8v-1.5c0-0.4,0-1.4-1.1-1.4c-1.2,0-1.2,1.1-1.2,1.7v5.5c0,0.6,0,1.7,1.2,1.7c1.1,0,1.1-1.1,1.1-1.6
			v-1.5h2.9v1.4c0,2.6-1.4,3.8-4,3.8c-0.6,0-2-0.1-3-0.9c-1-0.8-1.1-1.8-1.1-2.8v-5.6c0-0.9,0.2-1.8,0.7-2.5c0.8-1,2.1-1.4,3.4-1.4
			c1.1,0,2.3,0.3,3,0.9c0.8,0.6,1,1.4,1,2.7v1.5H420.5z"/>
		<path class="st0" d="M425.9,86.4h2.9V91h1.8v2h-1.8v7.2c0,0.8,0.1,1.4,1.3,1.4c0.2,0,0.3,0,0.5,0v2.1c-0.2,0-0.6,0.1-1.6,0.1
			c-2.8,0-3.2-1-3.2-2.7v-8.2h-1.6v-2h1.6V86.4z"/>
		<path class="st0" d="M432,91h2.9v9.1c0,0.6,0,1.5,1.1,1.5c1.1,0,1.1-1,1.1-1.7v-9h3v12.7h-3v-1c-0.6,0.5-1.4,1.2-2.7,1.2
			c-0.8,0-2.1-0.4-2.4-2c-0.1-0.4-0.1-0.7-0.1-1.4V91z"/>
		<path class="st0" d="M442.3,91h2.9l0,1.6c0.5-0.9,1.2-1.9,2.9-1.8v2.9c-0.2-0.1-0.5-0.2-1-0.2c-1.9,0-1.9,1.7-1.9,2.7v7.5h-2.9V91
			z"/>
		<path class="st0" d="M449.6,91h3l0,0.9c0.6-0.6,1.2-1.2,2.6-1.2c0.9,0,1.6,0.3,2,0.8c0.6,0.7,0.6,1.4,0.6,2.2v9.9h-2.9v-9.3
			c0-0.7,0-1.5-1-1.5c-1.2,0-1.2,1.1-1.2,1.7v9.1h-2.9V91z"/>
		<path class="st0" d="M459.7,94.4c0-1.5,0.5-3.7,4-3.7c0.9,0,1.9,0.2,2.7,0.7c1.1,0.7,1.2,1.8,1.2,2.8v6.1c0,2.3-1.4,3.5-4.1,3.5
			c-3.9,0-3.9-2.9-3.9-3.8V94.4z M462.7,100.6c0,0.3,0,1.3,1,1.3c1,0,1-0.9,1-1.3v-6.4c0-0.7-0.1-1.5-1-1.5c-1.1,0-1.1,1-1.1,1.6
			V100.6z"/>
		<path class="st0" d="M469.3,99.2h2.7c0,1.8,0,2.6,1.2,2.6c0.6,0,1.1-0.3,1.1-1.4c0-0.7,0-1.1-0.9-1.7L471,97
			c-0.2-0.1-0.6-0.5-0.8-0.8c-0.3-0.4-0.7-0.9-0.7-2.3c0-2.7,1.7-3.3,3.8-3.3c2.6,0,3.6,1.1,3.6,2.9V95h-2.6c0-1.4,0-2.3-1.1-2.3
			c-0.4,0-1,0.1-1,1.1c0,0.3,0,0.8,0.8,1.4l2.7,1.9c0.2,0.1,0.7,0.7,0.8,0.8c0.3,0.5,0.4,1.2,0.4,2c0,1.6,0,3.9-3.9,3.9
			c-3.2,0-3.8-1.6-3.8-3.4V99.2z"/>
		<path class="st0" d="M485.5,91.3c0-3.3,2.4-5.5,5.4-6.8v2.3c-2.2,1.3-2.5,3.3-2.5,5v9.7c0,2,0.6,3.1,2.5,4.6v2.2
			c-1.2-0.4-2.9-1.4-4-2.7c-0.9-1.1-1.4-2.4-1.4-4.3V91.3z"/>
		<path class="st0" d="M494.9,92.1h-2.7v-2c0-1,0.4-1.9,1.3-2.4c0.8-0.5,2-0.7,2.9-0.7c3.9,0,4,2.8,4,3.3v1.9c0,1.7-0.6,2.3-2.4,2.6
			c1.9,0.3,2.5,0.6,2.5,2.8v2.5c0,2.9-2.2,3.8-4.2,3.8c-2.8,0-4.2-1.5-4.2-3.4v-2h2.8v1.8c0,0.5,0,1.4,1.4,1.4
			c0.8,0,1.2-0.4,1.2-1.3v-2.5c0-2-0.7-2.1-2.7-2.1v-1.9c1.9,0,2.6-0.2,2.6-2v-1.2c0-0.6,0-1.4-1.2-1.4c-1.3,0-1.3,0.9-1.3,1.2V92.1
			z"/>
		<path class="st0" d="M508.5,91.6c0-1.7,0-2.4-1.3-2.4c-1.4,0-1.4,1-1.4,1.6V94c0.5-0.4,1.3-1,2.6-1c2.9,0,2.9,2.7,2.9,3.2v3.8
			c0,0.9,0,3.8-4.2,3.8c-0.9,0-2-0.2-2.8-0.8c-1.3-0.9-1.3-2.3-1.3-3.1v-9.5c0-3,2.4-3.6,4.3-3.6c0.8,0,1.7,0.1,2.5,0.5
			c1.5,0.7,1.5,1.9,1.5,4.1H508.5z M505.8,99.7c0,0.7,0,1.9,1.4,1.9c1.3,0,1.3-1.1,1.3-1.5v-3c0-0.7,0-1.8-1.3-1.8
			c-1.4,0-1.4,1.2-1.4,1.6V99.7z"/>
		<path class="st0" d="M512.7,90c0-0.8,0-2.9,2.9-2.9c3,0,3,2.1,3,2.7v5.8c0,1.8-1.1,2.7-2.9,2.7c-3,0-3-1.9-3-2.7V90z M514.6,95.7
			c0,0.4,0.1,0.9,1,0.9c1,0,1-0.6,1-1.1v-5.9c0-0.6,0-1.2-1-1.2c-1,0-1,0.6-1,1.2V95.7z M523.3,86l1.6,0.5l-6.6,18.3l-1.6-0.5
			L523.3,86z M523,95.5c0-0.7,0-2.9,2.9-2.9c3,0,3,2.1,3,2.7v5.8c0,1.8-1.1,2.7-2.9,2.7c-3,0-3-1.9-3-2.7V95.5z M525,101.3
			c0,0.4,0.1,0.9,1,0.9c1,0,1-0.6,1-1.1v-5.9c0-0.6,0-1.2-1-1.2c-1,0-1,0.6-1,1.2V101.3z"/>
		<path class="st0" d="M535.5,101.4c0,3.1-2.2,5.4-5.4,6.8v-2.3c2.2-1.3,2.5-3.3,2.5-5v-9.7c0-2-0.6-3.1-2.5-4.6v-2.2
			c1.2,0.4,3,1.5,4,2.7c0.9,1.1,1.4,2.4,1.4,4.3V101.4z"/>
		<path class="st0" d="M36,123.4h5.2c1,0,2.3,0,3.4,1.1c0.9,0.9,1,2.1,1,3.5v8.2c0,2.4-0.4,4.7-4.4,4.7H36V123.4z M39.2,138.4
			c1.5,0,1.8,0,2,0c1.2-0.2,1.2-1.2,1.2-1.8v-8.7c0-1.6-0.5-1.8-1.9-1.8h-1.3V138.4z"/>
		<path class="st0" d="M47.4,123.4h2.9v3h-2.9V123.4z M47.4,128.2h3v12.7h-3V128.2z"/>
		<path class="st0" d="M51.8,136.5h2.7c0,1.8,0,2.6,1.2,2.6c0.6,0,1.1-0.3,1.1-1.4c0-0.7,0-1.1-0.9-1.7l-2.5-1.7
			c-0.2-0.1-0.6-0.5-0.8-0.8c-0.3-0.4-0.7-0.9-0.7-2.3c0-2.7,1.7-3.3,3.8-3.3c2.6,0,3.6,1.1,3.6,2.9v1.4h-2.6c0-1.4,0-2.3-1.1-2.3
			c-0.4,0-1,0.1-1,1.1c0,0.3,0,0.8,0.8,1.4l2.7,1.9c0.2,0.1,0.7,0.7,0.8,0.8c0.3,0.5,0.4,1.2,0.4,2c0,1.6,0,3.9-3.9,3.9
			c-3.2,0-3.8-1.6-3.8-3.4V136.5z"/>
		<path class="st0" d="M61.3,128.2h3v0.8c0.6-0.5,1.3-1.1,2.5-1.1c1.3,0,2,0.7,2.4,1.3c0.7-0.7,1.5-1.3,2.9-1.3
			c0.8,0,1.5,0.3,1.8,0.7c0.6,0.6,0.7,1.3,0.7,2.2v10.1h-2.9v-9.4c0-0.6,0-1.5-1.1-1.5c-0.8,0-1.2,0.6-1.2,1.6v9.2h-2.9v-9.3
			c0-0.6,0-1.6-1.1-1.6c-0.8,0-1.1,0.6-1.1,1.5v9.4h-2.9V128.2z"/>
		<path class="st0" d="M76.4,123.4h2.9v3h-2.9V123.4z M76.4,128.2h3v12.7h-3V128.2z"/>
		<path class="st0" d="M81.3,128.2h3l0,0.9c0.6-0.6,1.2-1.2,2.6-1.2c0.9,0,1.6,0.3,2,0.8c0.6,0.7,0.6,1.4,0.6,2.2v9.9h-2.9v-9.3
			c0-0.7,0-1.5-1-1.5c-1.2,0-1.2,1.1-1.2,1.7v9.1h-2.9V128.2z"/>
		<path class="st0" d="M91.3,128.2h2.9v9.1c0,0.6,0,1.5,1.1,1.5c1.1,0,1.1-1,1.1-1.7v-9h3v12.7h-3v-1c-0.6,0.5-1.4,1.2-2.7,1.2
			c-0.8,0-2.1-0.4-2.4-2c-0.1-0.4-0.1-0.7-0.1-1.4V128.2z"/>
		<path class="st0" d="M100.3,128.2h2.9l1.6,8.2l1.3-8.2h2.9l-2.9,13.6c-0.5,2.6-1.2,3.5-3.5,3.5c-0.6,0-0.8,0-2-0.2l0.4-2.3
			c0.5,0.2,1.1,0.2,1.2,0.2c1.3,0,1.4-1.9,1.3-2L100.3,128.2z"/>
		<path class="st0" d="M112.6,137.3c0,0.5,0,1.6,1.1,1.6c0.3,0,0.6-0.1,0.8-0.4c0.2-0.3,0.2-0.4,0.2-1.8h2.9v1c0,2.8-2,3.4-3.9,3.4
			c-2.9,0-4.1-1.5-4.1-4.1v-5.4c0-1.6,0.5-2.5,1.4-3c0.7-0.5,1.8-0.7,2.7-0.7c1.2,0,2.3,0.4,3.1,1.1c0.7,0.7,0.9,1.8,0.9,2.5v3.6
			h-5.1V137.3z M112.7,133.1h2.1v-1.6c0-0.3,0-1.3-1-1.3c-0.8,0-1.1,0.5-1.1,1.3V133.1z"/>
		<path class="st0" d="M128.1,137.3c0,0.5,0,1.6,1.1,1.6c0.3,0,0.6-0.1,0.8-0.4c0.2-0.3,0.2-0.4,0.2-1.8h2.9v1c0,2.8-2,3.4-3.9,3.4
			c-2.9,0-4.1-1.5-4.1-4.1v-5.4c0-1.6,0.5-2.5,1.4-3c0.7-0.5,1.8-0.7,2.7-0.7c1.2,0,2.3,0.4,3.1,1.1c0.7,0.7,0.9,1.8,0.9,2.5v3.6
			h-5.1V137.3z M128.1,133.1h2.1v-1.6c0-0.3,0-1.3-1-1.3c-0.8,0-1.1,0.5-1.1,1.3V133.1z"/>
		<path class="st0" d="M134.8,123.4h3v17.5h-3V123.4z"/>
		<path class="st0" d="M145.6,128.2h2.9v9.1c0,0.6,0,1.5,1.1,1.5c1.1,0,1.1-1,1.1-1.7v-9h3v12.7h-3v-1c-0.6,0.5-1.4,1.2-2.7,1.2
			c-0.8,0-2.1-0.4-2.4-2c-0.1-0.4-0.1-0.7-0.1-1.4V128.2z"/>
		<path class="st0" d="M155.2,136.5h2.7c0,1.8,0,2.6,1.2,2.6c0.6,0,1.1-0.3,1.1-1.4c0-0.7,0-1.1-0.9-1.7l-2.5-1.7
			c-0.2-0.1-0.6-0.5-0.8-0.8c-0.3-0.4-0.7-0.9-0.7-2.3c0-2.7,1.7-3.3,3.8-3.3c2.6,0,3.6,1.1,3.6,2.9v1.4h-2.6c0-1.4,0-2.3-1.1-2.3
			c-0.4,0-1,0.1-1,1.1c0,0.3,0,0.8,0.8,1.4l2.7,1.9c0.2,0.1,0.7,0.7,0.8,0.8c0.3,0.5,0.4,1.2,0.4,2c0,1.6,0,3.9-3.9,3.9
			c-3.2,0-3.8-1.6-3.8-3.4V136.5z"/>
		<path class="st0" d="M164.4,131.6c0-1.5,0.5-3.7,4-3.7c0.9,0,1.9,0.2,2.7,0.7c1.1,0.7,1.2,1.8,1.2,2.8v6.1c0,2.3-1.4,3.5-4.1,3.5
			c-3.9,0-3.9-2.9-3.9-3.8V131.6z M167.4,137.8c0,0.3,0,1.3,1,1.3c1,0,1-0.9,1-1.3v-6.4c0-0.7-0.1-1.5-1-1.5c-1.1,0-1.1,1-1.1,1.6
			V137.8z"/>
		<path class="st0" d="M185.2,123.4h2.9v17.5h-3l0-1.2c-0.5,0.7-1,1.5-2.5,1.5c-1.2,0-2.1-0.6-2.5-1.3c-0.3-0.6-0.4-1.5-0.4-2.7
			v-5.8c0-0.9,0.1-1.4,0.3-1.9c0.5-1.1,1.7-1.5,2.4-1.5c1.2,0,2,0.7,2.6,1.3V123.4z M182.8,137.2c0,0.6,0,1.4,1.1,1.4
			c1.2,0,1.2-1.1,1.2-1.5v-5.5c0-0.4,0-1.5-1.2-1.5c-1.1,0-1.1,1-1.1,1.6V137.2z"/>
		<path class="st0" d="M192.8,137.3c0,0.5,0,1.6,1.1,1.6c0.3,0,0.6-0.1,0.8-0.4c0.2-0.3,0.2-0.4,0.2-1.8h2.9v1c0,2.8-2,3.4-3.9,3.4
			c-2.9,0-4.1-1.5-4.1-4.1v-5.4c0-1.6,0.5-2.5,1.4-3c0.7-0.5,1.8-0.7,2.7-0.7c1.2,0,2.3,0.4,3.1,1.1c0.7,0.7,0.9,1.8,0.9,2.5v3.6
			h-5.1V137.3z M192.8,133.1h2.1v-1.6c0-0.3,0-1.3-1-1.3c-0.8,0-1.1,0.5-1.1,1.3V133.1z"/>
		<path class="st0" d="M205.5,128.2h3v0.8c0.6-0.5,1.3-1.1,2.5-1.1c1.3,0,2,0.7,2.4,1.3c0.7-0.7,1.5-1.3,2.9-1.3
			c0.8,0,1.5,0.3,1.8,0.7c0.6,0.6,0.7,1.3,0.7,2.2v10.1h-2.9v-9.4c0-0.6,0-1.5-1.1-1.5c-0.8,0-1.2,0.6-1.2,1.6v9.2h-2.9v-9.3
			c0-0.6,0-1.6-1.1-1.6c-0.8,0-1.1,0.6-1.1,1.5v9.4h-2.9V128.2z"/>
		<path class="st0" d="M223.4,137.3c0,0.5,0,1.6,1.1,1.6c0.3,0,0.6-0.1,0.8-0.4c0.2-0.3,0.2-0.4,0.2-1.8h2.9v1c0,2.8-2,3.4-3.9,3.4
			c-2.9,0-4.1-1.5-4.1-4.1v-5.4c0-1.6,0.5-2.5,1.4-3c0.7-0.5,1.8-0.7,2.7-0.7c1.2,0,2.3,0.4,3.1,1.1c0.7,0.7,0.9,1.8,0.9,2.5v3.6
			h-5.1V137.3z M223.5,133.1h2.1v-1.6c0-0.3,0-1.3-1-1.3c-0.8,0-1.1,0.5-1.1,1.3V133.1z"/>
		<path class="st0" d="M235.4,123.4h2.9v17.5h-3l0-1.2c-0.5,0.7-1,1.5-2.5,1.5c-1.2,0-2.1-0.6-2.5-1.3c-0.3-0.6-0.4-1.5-0.4-2.7
			v-5.8c0-0.9,0.1-1.4,0.3-1.9c0.5-1.1,1.7-1.5,2.4-1.5c1.2,0,2,0.7,2.6,1.3V123.4z M233,137.2c0,0.6,0,1.4,1.1,1.4
			c1.2,0,1.2-1.1,1.2-1.5v-5.5c0-0.4,0-1.5-1.2-1.5c-1.1,0-1.1,1-1.1,1.6V137.2z"/>
		<path class="st0" d="M240.2,123.4h2.9v3h-2.9V123.4z M240.2,128.2h3v12.7h-3V128.2z"/>
		<path class="st0" d="M250.1,133v-1.5c0-0.4,0-1.4-1.1-1.4c-1.2,0-1.2,1.1-1.2,1.7v5.5c0,0.6,0,1.7,1.2,1.7c1.1,0,1.1-1.1,1.1-1.6
			v-1.5h2.9v1.4c0,2.6-1.4,3.8-4,3.8c-0.6,0-2-0.1-3-0.9c-1-0.8-1.1-1.8-1.1-2.8v-5.6c0-0.9,0.2-1.8,0.7-2.5c0.8-1,2.1-1.4,3.4-1.4
			c1.1,0,2.3,0.3,3,0.9c0.8,0.6,1,1.4,1,2.7v1.5H250.1z"/>
		<path class="st0" d="M254.5,132.1c0-1.9,0-2.5,0.7-3.2c0.6-0.6,1.8-1,3.2-1c0.6,0,1.5,0.1,2.3,0.5c1.3,0.7,1.5,1.8,1.5,2.3v7.1
			c0,1.8,0,2.7,0.6,3.1h-3.1c-0.2-0.2-0.3-0.6-0.3-1.1c-0.6,0.7-1.2,1.4-2.6,1.4c-2.5,0-2.5-2.3-2.5-3.5c0-2.3,0-2.9,1.9-3.9
			l3.1-1.5c0-1.2,0-1.3,0-1.4c0-0.3-0.1-0.8-1-0.8c-1,0-1,0.6-1,2.2H254.5z M259.3,134.5l-1.4,0.9c-0.6,0.4-0.7,0.8-0.7,2.1
			c0,1,0.2,1.4,0.7,1.4c0.3,0,0.7-0.1,1.4-0.7V134.5z"/>
		<path class="st0" d="M269.2,133v-1.5c0-0.4,0-1.4-1.1-1.4c-1.2,0-1.2,1.1-1.2,1.7v5.5c0,0.6,0,1.7,1.2,1.7c1.1,0,1.1-1.1,1.1-1.6
			v-1.5h2.9v1.4c0,2.6-1.4,3.8-4,3.8c-0.6,0-2-0.1-3-0.9c-1-0.8-1.1-1.8-1.1-2.8v-5.6c0-0.9,0.2-1.8,0.7-2.5c0.8-1,2.1-1.4,3.4-1.4
			c1.1,0,2.3,0.3,3,0.9c0.8,0.6,1,1.4,1,2.7v1.5H269.2z"/>
		<path class="st0" d="M273.6,123.4h2.9v3h-2.9V123.4z M273.6,128.2h3v12.7h-3V128.2z"/>
		<path class="st0" d="M278.3,131.6c0-1.5,0.5-3.7,4-3.7c0.9,0,1.9,0.2,2.7,0.7c1.1,0.7,1.2,1.8,1.2,2.8v6.1c0,2.3-1.4,3.5-4.1,3.5
			c-3.9,0-3.9-2.9-3.9-3.8V131.6z M282.3,122.9h3.9c-1.3,1.4-1.7,1.7-3.1,3.3h-2.3L282.3,122.9z M281.3,137.8c0,0.3,0,1.3,1,1.3
			c1,0,1-0.9,1-1.3v-6.4c0-0.7-0.1-1.5-1-1.5c-1.1,0-1.1,1-1.1,1.6V137.8z"/>
		<path class="st0" d="M288,128.2h3l0,0.9c0.6-0.6,1.2-1.2,2.6-1.2c0.9,0,1.6,0.3,2,0.8c0.6,0.7,0.6,1.4,0.6,2.2v9.9h-2.9v-9.3
			c0-0.7,0-1.5-1-1.5c-1.2,0-1.2,1.1-1.2,1.7v9.1H288V128.2z"/>
		<path class="st0" d="M309.1,123.4h2.9v17.5h-3l0-1.2c-0.5,0.7-1,1.5-2.5,1.5c-1.2,0-2.1-0.6-2.5-1.3c-0.3-0.6-0.4-1.5-0.4-2.7
			v-5.8c0-0.9,0.1-1.4,0.3-1.9c0.5-1.1,1.7-1.5,2.4-1.5c1.2,0,2,0.7,2.6,1.3V123.4z M306.7,137.2c0,0.6,0,1.4,1.1,1.4
			c1.2,0,1.2-1.1,1.2-1.5v-5.5c0-0.4,0-1.5-1.2-1.5c-1.1,0-1.1,1-1.1,1.6V137.2z"/>
		<path class="st0" d="M316.7,137.3c0,0.5,0,1.6,1.1,1.6c0.3,0,0.6-0.1,0.8-0.4c0.2-0.3,0.2-0.4,0.2-1.8h2.9v1c0,2.8-2,3.4-3.9,3.4
			c-2.9,0-4.1-1.5-4.1-4.1v-5.4c0-1.6,0.5-2.5,1.4-3c0.7-0.5,1.8-0.7,2.7-0.7c1.2,0,2.3,0.4,3.1,1.1c0.7,0.7,0.9,1.8,0.9,2.5v3.6
			h-5.1V137.3z M316.8,133.1h2.1v-1.6c0-0.3,0-1.3-1-1.3c-0.8,0-1.1,0.5-1.1,1.3V133.1z"/>
		<path class="st0" d="M329.4,128.2h2.9l0,1.6c0.5-0.9,1.2-1.9,2.9-1.8v2.9c-0.2-0.1-0.5-0.2-1-0.2c-1.9,0-1.9,1.7-1.9,2.7v7.5h-2.9
			V128.2z"/>
		<path class="st0" d="M338.6,137.3c0,0.5,0,1.6,1.1,1.6c0.3,0,0.6-0.1,0.8-0.4c0.2-0.3,0.2-0.4,0.2-1.8h2.9v1c0,2.8-2,3.4-3.9,3.4
			c-2.9,0-4.1-1.5-4.1-4.1v-5.4c0-1.6,0.5-2.5,1.4-3c0.7-0.5,1.8-0.7,2.7-0.7c1.2,0,2.3,0.4,3.1,1.1c0.7,0.7,0.9,1.8,0.9,2.5v3.6
			h-5.1V137.3z M338.6,133.1h2.1v-1.6c0-0.3,0-1.3-1-1.3c-0.8,0-1.1,0.5-1.1,1.3V133.1z"/>
		<path class="st0" d="M344.9,136.5h2.7c0,1.8,0,2.6,1.2,2.6c0.6,0,1.1-0.3,1.1-1.4c0-0.7,0-1.1-0.9-1.7l-2.5-1.7
			c-0.2-0.1-0.6-0.5-0.8-0.8c-0.3-0.4-0.7-0.9-0.7-2.3c0-2.7,1.7-3.3,3.8-3.3c2.6,0,3.6,1.1,3.6,2.9v1.4H350c0-1.4,0-2.3-1.1-2.3
			c-0.4,0-1,0.1-1,1.1c0,0.3,0,0.8,0.8,1.4l2.7,1.9c0.2,0.1,0.7,0.7,0.8,0.8c0.3,0.5,0.4,1.2,0.4,2c0,1.6,0,3.9-3.9,3.9
			c-3.2,0-3.8-1.6-3.8-3.4V136.5z"/>
		<path class="st0" d="M359.4,133v-1.5c0-0.4,0-1.4-1.1-1.4c-1.2,0-1.2,1.1-1.2,1.7v5.5c0,0.6,0,1.7,1.2,1.7c1.1,0,1.1-1.1,1.1-1.6
			v-1.5h2.9v1.4c0,2.6-1.4,3.8-4,3.8c-0.6,0-2-0.1-3-0.9c-1-0.8-1.1-1.8-1.1-2.8v-5.6c0-0.9,0.2-1.8,0.7-2.5c0.8-1,2.1-1.4,3.4-1.4
			c1.1,0,2.3,0.3,3,0.9c0.8,0.6,1,1.4,1,2.7v1.5H359.4z"/>
		<path class="st0" d="M363.8,132.1c0-1.9,0-2.5,0.7-3.2c0.6-0.6,1.8-1,3.2-1c0.6,0,1.5,0.1,2.3,0.5c1.3,0.7,1.5,1.8,1.5,2.3v7.1
			c0,1.8,0,2.7,0.6,3.1H369c-0.2-0.2-0.3-0.6-0.3-1.1c-0.6,0.7-1.2,1.4-2.6,1.4c-2.5,0-2.5-2.3-2.5-3.5c0-2.3,0-2.9,1.9-3.9l3.1-1.5
			c0-1.2,0-1.3,0-1.4c0-0.3-0.1-0.8-1-0.8c-1,0-1,0.6-1,2.2H363.8z M368.5,134.5l-1.4,0.9c-0.6,0.4-0.7,0.8-0.7,2.1
			c0,1,0.2,1.4,0.7,1.4c0.3,0,0.7-0.1,1.4-0.7V134.5z"/>
		<path class="st0" d="M374.1,123.6h2.9v4.6h1.8v2H377v7.2c0,0.8,0.1,1.4,1.3,1.4c0.2,0,0.3,0,0.5,0v2.1c-0.2,0-0.6,0.1-1.6,0.1
			c-2.8,0-3.2-1-3.2-2.7v-8.2h-1.6v-2h1.6V123.6z"/>
		<path class="st0" d="M382.6,137.3c0,0.5,0,1.6,1.1,1.6c0.3,0,0.6-0.1,0.8-0.4c0.2-0.3,0.2-0.4,0.2-1.8h2.9v1c0,2.8-2,3.4-3.9,3.4
			c-2.9,0-4.1-1.5-4.1-4.1v-5.4c0-1.6,0.5-2.5,1.4-3c0.7-0.5,1.8-0.7,2.7-0.7c1.2,0,2.3,0.4,3.1,1.1c0.7,0.7,0.9,1.8,0.9,2.5v3.6
			h-5.1V137.3z M382.6,133.1h2.1v-1.6c0-0.3,0-1.3-1-1.3c-0.8,0-1.1,0.5-1.1,1.3V133.1z"/>
		<path class="st0" d="M395.5,128.5c0-3.3,2.4-5.5,5.4-6.8v2.3c-2.2,1.3-2.5,3.3-2.5,5v9.7c0,2,0.6,3.1,2.5,4.6v2.2
			c-1.2-0.4-2.9-1.4-4-2.7c-0.9-1.1-1.4-2.4-1.4-4.3V128.5z"/>
		<path class="st0" d="M404.7,123.4h3.7l3.3,17.5h-3.3l-0.4-2.8h-3l-0.5,2.8h-3.2L404.7,123.4z M405.4,135.4h2.2l-1.1-7.5
			L405.4,135.4z"/>
		<path class="st0" d="M417.9,128.2h2.9v13.1c0,1.3,0,4.1-4.3,4.1c-3.9,0-3.9-2.3-3.9-3.5h2.9c0,0.2,0,0.5,0.1,0.8
			c0.1,0.3,0.4,0.5,1,0.5c1,0,1.2-0.7,1.2-1.5v-2c-0.4,0.5-1.1,1.2-2.6,1.2c-2.4,0-2.8-1.7-2.8-3.2v-6.7c0-0.5,0-3.2,2.7-3.2
			c1.3,0,2,0.7,2.7,1.3V128.2z M415.5,137.4c0,0.4,0,1.4,1.2,1.4c1.1,0,1.2-0.8,1.2-1.4v-5.6c0-0.5,0-1.6-1.2-1.6s-1.2,1.1-1.2,1.5
			V137.4z"/>
		<path class="st0" d="M422.6,131.6c0-1.5,0.5-3.7,4-3.7c0.9,0,1.9,0.2,2.7,0.7c1.1,0.7,1.2,1.8,1.2,2.8v6.1c0,2.3-1.4,3.5-4.1,3.5
			c-3.9,0-3.9-2.9-3.9-3.8V131.6z M425.5,137.8c0,0.3,0,1.3,1,1.3c1,0,1-0.9,1-1.3v-6.4c0-0.7-0.1-1.5-1-1.5c-1.1,0-1.1,1-1.1,1.6
			V137.8z"/>
		<path class="st0" d="M432.2,128.2h3l0,0.9c0.6-0.6,1.2-1.2,2.6-1.2c0.9,0,1.6,0.3,2,0.8c0.6,0.7,0.6,1.4,0.6,2.2v9.9h-2.9v-9.3
			c0-0.7,0-1.5-1-1.5c-1.2,0-1.2,1.1-1.2,1.7v9.1h-2.9V128.2z"/>
		<path class="st0" d="M442.3,123.4h2.9v3h-2.9V123.4z M442.3,128.2h3v12.7h-3V128.2z"/>
		<path class="st0" d="M446.7,136.5h2.7c0,1.8,0,2.6,1.2,2.6c0.6,0,1.1-0.3,1.1-1.4c0-0.7,0-1.1-0.9-1.7l-2.5-1.7
			c-0.2-0.1-0.6-0.5-0.8-0.8c-0.3-0.4-0.7-0.9-0.7-2.3c0-2.7,1.7-3.3,3.8-3.3c2.6,0,3.6,1.1,3.6,2.9v1.4h-2.6c0-1.4,0-2.3-1.1-2.3
			c-0.4,0-1,0.1-1,1.1c0,0.3,0,0.8,0.8,1.4l2.7,1.9c0.2,0.1,0.7,0.7,0.8,0.8c0.3,0.5,0.4,1.2,0.4,2c0,1.6,0,3.9-3.9,3.9
			c-3.2,0-3.8-1.6-3.8-3.4V136.5z"/>
		<path class="st0" d="M456.8,123.6h2.9v4.6h1.8v2h-1.8v7.2c0,0.8,0.1,1.4,1.3,1.4c0.2,0,0.3,0,0.5,0v2.1c-0.2,0-0.6,0.1-1.6,0.1
			c-2.8,0-3.2-1-3.2-2.7v-8.2h-1.6v-2h1.6V123.6z"/>
		<path class="st0" d="M462.8,132.1c0-1.9,0-2.5,0.7-3.2c0.6-0.6,1.8-1,3.2-1c0.6,0,1.5,0.1,2.3,0.5c1.3,0.7,1.5,1.8,1.5,2.3v7.1
			c0,1.8,0,2.7,0.6,3.1h-3.1c-0.2-0.2-0.3-0.6-0.3-1.1c-0.6,0.7-1.2,1.4-2.6,1.4c-2.5,0-2.5-2.3-2.5-3.5c0-2.3,0-2.9,1.9-3.9
			l3.1-1.5c0-1.2,0-1.3,0-1.4c0-0.3-0.1-0.8-1-0.8c-1,0-1,0.6-1,2.2H462.8z M467.5,134.5l-1.4,0.9c-0.6,0.4-0.7,0.8-0.7,2.1
			c0,1,0.2,1.4,0.7,1.4c0.3,0,0.7-0.1,1.4-0.7V134.5z"/>
		<path class="st0" d="M471.9,136.5h2.7c0,1.8,0,2.6,1.2,2.6c0.6,0,1.1-0.3,1.1-1.4c0-0.7,0-1.1-0.9-1.7l-2.5-1.7
			c-0.2-0.1-0.6-0.5-0.8-0.8c-0.3-0.4-0.7-0.9-0.7-2.3c0-2.7,1.7-3.3,3.8-3.3c2.6,0,3.6,1.1,3.6,2.9v1.4H477c0-1.4,0-2.3-1.1-2.3
			c-0.4,0-1,0.1-1,1.1c0,0.3,0,0.8,0.8,1.4l2.7,1.9c0.2,0.1,0.7,0.7,0.8,0.8c0.3,0.5,0.4,1.2,0.4,2c0,1.6,0,3.9-3.9,3.9
			c-3.2,0-3.8-1.6-3.8-3.4V136.5z"/>
		<path class="st0" d="M487.4,123.4h5.4c1.2,0,2,0.1,2.7,0.5c1.1,0.7,1.3,1.9,1.3,3v1.6c0,2.3-0.8,2.7-2.1,2.9
			c2.1,0.4,2.2,1.3,2.2,3.2v2.5c0,0.9,0,2.4-1.2,3.2c-0.7,0.4-1.6,0.5-2.8,0.5h-5.5V123.4z M490.6,130.3c1.4,0,1.8,0,2.1,0
			c0.6-0.1,0.9-0.7,0.9-1.6c0-1.6,0-1.8-0.1-2.1c-0.2-0.6-0.7-0.7-1.5-0.7h-1.3V130.3z M490.6,138.4h1.3c1.3,0,1.8-0.1,1.8-1.8v-2.1
			c0-1.4-0.4-1.7-1.8-1.7h-1.4V138.4z"/>
		<path class="st0" d="M501.6,137.3c0,0.5,0,1.6,1.1,1.6c0.3,0,0.6-0.1,0.8-0.4c0.2-0.3,0.2-0.4,0.2-1.8h2.9v1c0,2.8-2,3.4-3.9,3.4
			c-2.9,0-4.1-1.5-4.1-4.1v-5.4c0-1.6,0.5-2.5,1.4-3c0.7-0.5,1.8-0.7,2.7-0.7c1.2,0,2.3,0.4,3.1,1.1c0.7,0.7,0.9,1.8,0.9,2.5v3.6
			h-5.1V137.3z M501.6,133.1h2.1v-1.6c0-0.3,0-1.3-1-1.3c-0.8,0-1.1,0.5-1.1,1.3V133.1z"/>
		<path class="st0" d="M509,123.6h2.9v4.6h1.8v2h-1.8v7.2c0,0.8,0.1,1.4,1.3,1.4c0.2,0,0.3,0,0.5,0v2.1c-0.2,0-0.6,0.1-1.6,0.1
			c-2.8,0-3.2-1-3.2-2.7v-8.2h-1.6v-2h1.6V123.6z"/>
		<path class="st0" d="M514.9,132.1c0-1.9,0-2.5,0.7-3.2c0.6-0.6,1.8-1,3.2-1c0.6,0,1.5,0.1,2.3,0.5c1.3,0.7,1.5,1.8,1.5,2.3v7.1
			c0,1.8,0,2.7,0.6,3.1h-3.1c-0.2-0.2-0.3-0.6-0.3-1.1c-0.6,0.7-1.2,1.4-2.6,1.4c-2.5,0-2.5-2.3-2.5-3.5c0-2.3,0-2.9,1.9-3.9
			l3.1-1.5c0-1.2,0-1.3,0-1.4c0-0.3-0.1-0.8-1-0.8c-1,0-1,0.6-1,2.2H514.9z M519.7,134.5l-1.4,0.9c-0.6,0.4-0.7,0.8-0.7,2.1
			c0,1,0.2,1.4,0.7,1.4c0.3,0,0.7-0.1,1.4-0.7V134.5z"/>
		<path class="st0" d="M532.9,130h-2.7v-2c0-0.7,0-2,1.1-2.9c1-0.8,2.3-0.9,2.9-0.9c1.8,0,3.5,0.6,3.9,2.4c0,0.1,0.2,1,0.2,1.7v1.7
			c0,1.8-0.4,2.4-2.4,4.3c-2.6,2.6-2.8,2.8-2.9,4.1h5.5v2.5h-8.7c0-4.3,1.4-5.7,3-7.3c2.5-2.5,2.6-2.6,2.6-3.8v-1.9
			c0-0.5-0.1-1.4-1.2-1.4c-1.3,0-1.4,0.9-1.4,1.6V130z"/>
		<path class="st0" d="M544.7,138.7c0,3.1-2.2,5.4-5.4,6.8v-2.3c2.2-1.3,2.5-3.3,2.5-5v-9.7c0-2-0.6-3.1-2.5-4.6v-2.2
			c1.2,0.4,3,1.5,4,2.7c0.9,1.1,1.4,2.4,1.4,4.3V138.7z"/>
		<path class="st0" d="M36,160.7h5.2l2.1,12.2l2.1-12.2h5.2v17.5h-3.2l0.3-15.2l-2.8,15.2h-3L38.9,163l0.2,15.2H36V160.7z"/>
		<path class="st0" d="M55.7,174.6c0,0.5,0,1.6,1.1,1.6c0.3,0,0.6-0.1,0.8-0.4c0.2-0.3,0.2-0.4,0.2-1.8h2.9v1c0,2.8-2,3.4-3.9,3.4
			c-2.9,0-4.1-1.5-4.1-4.1V169c0-1.6,0.5-2.5,1.4-3c0.7-0.5,1.8-0.7,2.7-0.7c1.2,0,2.3,0.4,3.1,1.1c0.7,0.7,0.9,1.8,0.9,2.5v3.6
			h-5.1V174.6z M55.7,170.4h2.1v-1.6c0-0.3,0-1.3-1-1.3c-0.8,0-1.1,0.5-1.1,1.3V170.4z"/>
		<path class="st0" d="M62.7,165.5h2.9v13.9c0,2.9-1.5,3.2-3,3.2c-0.6,0-0.8,0-1.2-0.1V180c1.3,0,1.3-0.5,1.3-1.5V165.5z
			 M62.7,160.7h2.9v3h-2.9V160.7z"/>
		<path class="st0" d="M67.7,168.9c0-1.5,0.5-3.7,4-3.7c0.9,0,1.9,0.2,2.7,0.7c1.1,0.7,1.2,1.8,1.2,2.8v6.1c0,2.3-1.4,3.5-4.1,3.5
			c-3.9,0-3.9-2.9-3.9-3.8V168.9z M70.6,175.1c0,0.3,0,1.3,1,1.3c1,0,1-0.9,1-1.3v-6.4c0-0.7-0.1-1.5-1-1.5c-1.1,0-1.1,1-1.1,1.6
			V175.1z"/>
		<path class="st0" d="M77.7,165.5h2.9l0,1.6c0.5-0.9,1.2-1.9,2.9-1.8v2.9c-0.2-0.1-0.5-0.2-1-0.2c-1.9,0-1.9,1.7-1.9,2.7v7.5h-2.9
			V165.5z"/>
		<path class="st0" d="M84.4,169.4c0-1.9,0-2.5,0.7-3.2c0.6-0.6,1.8-1,3.2-1c0.6,0,1.5,0.1,2.3,0.5c1.3,0.7,1.5,1.8,1.5,2.3v7.1
			c0,1.8,0,2.7,0.6,3.1h-3.1c-0.2-0.2-0.3-0.6-0.3-1.1c-0.6,0.7-1.2,1.4-2.6,1.4c-2.5,0-2.5-2.3-2.5-3.5c0-2.3,0-2.9,1.9-3.9
			l3.1-1.5c0-1.2,0-1.3,0-1.4c0-0.3-0.1-0.8-1-0.8c-1,0-1,0.6-1,2.2H84.4z M89.1,171.8l-1.4,0.9c-0.6,0.4-0.7,0.8-0.7,2.1
			c0,1,0.2,1.4,0.7,1.4c0.3,0,0.7-0.1,1.4-0.7V171.8z"/>
		<path class="st0" d="M100.4,160.7h3v17.5h-3V160.7z"/>
		<path class="st0" d="M105.5,169.4c0-1.9,0-2.5,0.7-3.2c0.6-0.6,1.8-1,3.2-1c0.6,0,1.5,0.1,2.3,0.5c1.3,0.7,1.5,1.8,1.5,2.3v7.1
			c0,1.8,0,2.7,0.6,3.1h-3.1c-0.2-0.2-0.3-0.6-0.3-1.1c-0.6,0.7-1.2,1.4-2.6,1.4c-2.5,0-2.5-2.3-2.5-3.5c0-2.3,0-2.9,1.9-3.9
			l3.1-1.5c0-1.2,0-1.3,0-1.4c0-0.3-0.1-0.8-1-0.8c-1,0-1,0.6-1,2.2H105.5z M110.3,171.8l-1.4,0.9c-0.6,0.4-0.7,0.8-0.7,2.1
			c0,1,0.2,1.4,0.7,1.4c0.3,0,0.7-0.1,1.4-0.7V171.8z"/>
		<path class="st0" d="M125.1,165.5h1.3v2H125v10.7h-2.9v-10.7h-1.3v-2h1.3v-2.2c0-2.6,2.2-2.6,3.3-2.6c0.4,0,0.6,0,1,0v2.4
			c-0.2,0-0.6,0-0.6,0c-0.8,0-0.8,0.6-0.8,0.9V165.5z"/>
		<path class="st0" d="M127.8,165.5h2.9v9.1c0,0.6,0,1.5,1.1,1.5c1.1,0,1.1-1,1.1-1.7v-9h3v12.7h-3v-1c-0.6,0.5-1.4,1.2-2.7,1.2
			c-0.8,0-2.1-0.4-2.4-2c-0.1-0.4-0.1-0.7-0.1-1.4V165.5z"/>
		<path class="st0" d="M138.1,165.5h3l0,0.9c0.6-0.6,1.2-1.2,2.6-1.2c0.9,0,1.6,0.3,2,0.8c0.6,0.7,0.6,1.4,0.6,2.2v9.9h-2.9v-9.3
			c0-0.7,0-1.5-1-1.5c-1.2,0-1.2,1.1-1.2,1.7v9.1h-2.9V165.5z"/>
		<path class="st0" d="M153.5,170.3v-1.5c0-0.4,0-1.4-1.1-1.4c-1.2,0-1.2,1.1-1.2,1.7v5.5c0,0.6,0,1.7,1.2,1.7
			c1.1,0,1.1-1.1,1.1-1.6v-1.5h2.9v1.4c0,2.6-1.4,3.8-4,3.8c-0.6,0-2-0.1-3-0.9c-1-0.8-1.1-1.8-1.1-2.8v-5.6c0-0.9,0.2-1.8,0.7-2.5
			c0.8-1,2.1-1.4,3.4-1.4c1.1,0,2.3,0.3,3,0.9c0.8,0.6,1,1.4,1,2.7v1.5H153.5z"/>
		<path class="st0" d="M158.3,160.7h2.9v3h-2.9V160.7z M158.3,165.5h3v12.7h-3V165.5z"/>
		<path class="st0" d="M163.3,168.9c0-1.5,0.5-3.7,4-3.7c0.9,0,1.9,0.2,2.7,0.7c1.1,0.7,1.2,1.8,1.2,2.8v6.1c0,2.3-1.4,3.5-4.1,3.5
			c-3.9,0-3.9-2.9-3.9-3.8V168.9z M167.3,160.2h3.9c-1.3,1.4-1.7,1.7-3.1,3.3h-2.3L167.3,160.2z M166.2,175.1c0,0.3,0,1.3,1,1.3
			c1,0,1-0.9,1-1.3v-6.4c0-0.7-0.1-1.5-1-1.5c-1.1,0-1.1,1-1.1,1.6V175.1z"/>
		<path class="st0" d="M173.2,165.5h3l0,0.9c0.6-0.6,1.2-1.2,2.6-1.2c0.9,0,1.6,0.3,2,0.8c0.6,0.7,0.6,1.4,0.6,2.2v9.9h-2.9v-9.3
			c0-0.7,0-1.5-1-1.5c-1.2,0-1.2,1.1-1.2,1.7v9.1h-2.9V165.5z"/>
		<path class="st0" d="M189.8,165.5h2.9v1c0.5-0.4,1.4-1.2,2.7-1.2c0.8,0,1.5,0.3,2,0.8c0.5,0.6,0.7,1.4,0.7,2.5v6.7
			c0,1-0.2,1.6-0.4,1.9c-0.4,0.8-1.3,1.2-2.2,1.2c-1.2,0-2-0.7-2.8-1.3v5.4h-2.9V165.5z M192.7,174.6c0,0.8,0.3,1.4,1.2,1.4
			c1.1,0,1.2-0.8,1.2-1.3v-5.9c0-0.9-0.4-1.4-1.2-1.4c-1.2,0-1.2,1.1-1.2,1.5V174.6z"/>
		<path class="st0" d="M200.1,165.5h2.9v9.1c0,0.6,0,1.5,1.1,1.5c1.1,0,1.1-1,1.1-1.7v-9h3v12.7h-3v-1c-0.6,0.5-1.4,1.2-2.7,1.2
			c-0.8,0-2.1-0.4-2.4-2c-0.1-0.4-0.1-0.7-0.1-1.4V165.5z"/>
		<path class="st0" d="M210.4,160.7h3v17.5h-3V160.7z"/>
		<path class="st0" d="M215.6,165.5h3v0.8c0.6-0.5,1.3-1.1,2.5-1.1c1.3,0,2,0.7,2.4,1.3c0.7-0.7,1.5-1.3,2.9-1.3
			c0.8,0,1.5,0.3,1.8,0.7c0.6,0.6,0.7,1.3,0.7,2.2v10.1H226v-9.4c0-0.6,0-1.5-1.1-1.5c-0.8,0-1.2,0.6-1.2,1.6v9.2h-2.9v-9.3
			c0-0.6,0-1.6-1.1-1.6c-0.8,0-1.1,0.6-1.1,1.5v9.4h-2.9V165.5z"/>
		<path class="st0" d="M230.9,168.9c0-1.5,0.5-3.7,4-3.7c0.9,0,1.9,0.2,2.7,0.7c1.1,0.7,1.2,1.8,1.2,2.8v6.1c0,2.3-1.4,3.5-4.1,3.5
			c-3.9,0-3.9-2.9-3.9-3.8V168.9z M233.9,175.1c0,0.3,0,1.3,1,1.3c1,0,1-0.9,1-1.3v-6.4c0-0.7-0.1-1.5-1-1.5c-1.1,0-1.1,1-1.1,1.6
			V175.1z"/>
		<path class="st0" d="M240.9,165.5h3l0,0.9c0.6-0.6,1.2-1.2,2.6-1.2c0.9,0,1.6,0.3,2,0.8c0.6,0.7,0.6,1.4,0.6,2.2v9.9h-2.9v-9.3
			c0-0.7,0-1.5-1-1.5c-1.2,0-1.2,1.1-1.2,1.7v9.1h-2.9V165.5z"/>
		<path class="st0" d="M251.2,169.4c0-1.9,0-2.5,0.7-3.2c0.6-0.6,1.8-1,3.2-1c0.6,0,1.5,0.1,2.3,0.5c1.3,0.7,1.5,1.8,1.5,2.3v7.1
			c0,1.8,0,2.7,0.6,3.1h-3.1c-0.2-0.2-0.3-0.6-0.3-1.1c-0.6,0.7-1.2,1.4-2.6,1.4c-2.5,0-2.5-2.3-2.5-3.5c0-2.3,0-2.9,1.9-3.9
			l3.1-1.5c0-1.2,0-1.3,0-1.4c0-0.3-0.1-0.8-1-0.8c-1,0-1,0.6-1,2.2H251.2z M255.9,171.8l-1.4,0.9c-0.6,0.4-0.7,0.8-0.7,2.1
			c0,1,0.2,1.4,0.7,1.4c0.3,0,0.7-0.1,1.4-0.7V171.8z"/>
		<path class="st0" d="M261.1,165.5h2.9l0,1.6c0.5-0.9,1.2-1.9,2.9-1.8v2.9c-0.2-0.1-0.5-0.2-1-0.2c-1.9,0-1.9,1.7-1.9,2.7v7.5h-2.9
			V165.5z"/>
		<path class="st0" d="M279.7,160.7h2.9v17.5h-3l0-1.2c-0.5,0.7-1,1.5-2.5,1.5c-1.2,0-2.1-0.6-2.5-1.3c-0.3-0.6-0.4-1.5-0.4-2.7
			v-5.8c0-0.9,0.1-1.4,0.3-1.9c0.5-1.1,1.7-1.5,2.4-1.5c1.2,0,2,0.7,2.6,1.3V160.7z M277.3,174.5c0,0.6,0,1.4,1.1,1.4
			c1.2,0,1.2-1.1,1.2-1.5V169c0-0.4,0-1.5-1.2-1.5c-1.1,0-1.1,1-1.1,1.6V174.5z"/>
		<path class="st0" d="M287.6,174.6c0,0.5,0,1.6,1.1,1.6c0.3,0,0.6-0.1,0.8-0.4c0.2-0.3,0.2-0.4,0.2-1.8h2.9v1c0,2.8-2,3.4-3.9,3.4
			c-2.9,0-4.1-1.5-4.1-4.1V169c0-1.6,0.5-2.5,1.4-3c0.7-0.5,1.8-0.7,2.7-0.7c1.2,0,2.3,0.4,3.1,1.1c0.7,0.7,0.9,1.8,0.9,2.5v3.6
			h-5.1V174.6z M287.6,170.4h2.1v-1.6c0-0.3,0-1.3-1-1.3c-0.8,0-1.1,0.5-1.1,1.3V170.4z"/>
		<path class="st0" d="M294.6,160.7h3v17.5h-3V160.7z"/>
		<path class="st0" d="M306,165.5h2.9v1c0.5-0.4,1.4-1.2,2.7-1.2c0.8,0,1.5,0.3,2,0.8c0.5,0.6,0.7,1.4,0.7,2.5v6.7
			c0,1-0.2,1.6-0.4,1.9c-0.4,0.8-1.3,1.2-2.2,1.2c-1.2,0-2-0.7-2.8-1.3v5.4H306V165.5z M308.9,174.6c0,0.8,0.3,1.4,1.2,1.4
			c1.1,0,1.2-0.8,1.2-1.3v-5.9c0-0.9-0.4-1.4-1.2-1.4c-1.2,0-1.2,1.1-1.2,1.5V174.6z"/>
		<path class="st0" d="M316.3,169.4c0-1.9,0-2.5,0.7-3.2c0.6-0.6,1.8-1,3.2-1c0.6,0,1.5,0.1,2.3,0.5c1.3,0.7,1.5,1.8,1.5,2.3v7.1
			c0,1.8,0,2.7,0.6,3.1h-3.1c-0.2-0.2-0.3-0.6-0.3-1.1c-0.6,0.7-1.2,1.4-2.6,1.4c-2.5,0-2.5-2.3-2.5-3.5c0-2.3,0-2.9,1.9-3.9
			l3.1-1.5c0-1.2,0-1.3,0-1.4c0-0.3-0.1-0.8-1-0.8c-1,0-1,0.6-1,2.2H316.3z M321,171.8l-1.4,0.9c-0.6,0.4-0.7,0.8-0.7,2.1
			c0,1,0.2,1.4,0.7,1.4c0.3,0,0.7-0.1,1.4-0.7V171.8z"/>
		<path class="st0" d="M331.2,170.3v-1.5c0-0.4,0-1.4-1.1-1.4c-1.2,0-1.2,1.1-1.2,1.7v5.5c0,0.6,0,1.7,1.2,1.7
			c1.1,0,1.1-1.1,1.1-1.6v-1.5h2.9v1.4c0,2.6-1.4,3.8-4,3.8c-0.6,0-2-0.1-3-0.9c-1-0.8-1.1-1.8-1.1-2.8v-5.6c0-0.9,0.2-1.8,0.7-2.5
			c0.8-1,2.1-1.4,3.4-1.4c1.1,0,2.3,0.3,3,0.9c0.8,0.6,1,1.4,1,2.7v1.5H331.2z"/>
		<path class="st0" d="M336,160.7h2.9v3H336V160.7z M336,165.5h3v12.7h-3V165.5z"/>
		<path class="st0" d="M343.9,174.6c0,0.5,0,1.6,1.1,1.6c0.3,0,0.6-0.1,0.8-0.4c0.2-0.3,0.2-0.4,0.2-1.8h2.9v1c0,2.8-2,3.4-3.9,3.4
			c-2.9,0-4.1-1.5-4.1-4.1V169c0-1.6,0.5-2.5,1.4-3c0.7-0.5,1.8-0.7,2.7-0.7c1.2,0,2.3,0.4,3.1,1.1c0.7,0.7,0.9,1.8,0.9,2.5v3.6
			h-5.1V174.6z M343.9,170.4h2.1v-1.6c0-0.3,0-1.3-1-1.3c-0.8,0-1.1,0.5-1.1,1.3V170.4z"/>
		<path class="st0" d="M350.9,165.5h3l0,0.9c0.6-0.6,1.2-1.2,2.6-1.2c0.9,0,1.6,0.3,2,0.8c0.6,0.7,0.6,1.4,0.6,2.2v9.9h-2.9v-9.3
			c0-0.7,0-1.5-1-1.5c-1.2,0-1.2,1.1-1.2,1.7v9.1h-2.9V165.5z"/>
		<path class="st0" d="M361.9,160.9h2.9v4.6h1.8v2h-1.8v7.2c0,0.8,0.1,1.4,1.3,1.4c0.2,0,0.3,0,0.5,0v2.1c-0.2,0-0.6,0.1-1.6,0.1
			c-2.8,0-3.2-1-3.2-2.7v-8.2h-1.6v-2h1.6V160.9z"/>
		<path class="st0" d="M370.8,174.6c0,0.5,0,1.6,1.1,1.6c0.3,0,0.6-0.1,0.8-0.4c0.2-0.3,0.2-0.4,0.2-1.8h2.9v1c0,2.8-2,3.4-3.9,3.4
			c-2.9,0-4.1-1.5-4.1-4.1V169c0-1.6,0.5-2.5,1.4-3c0.7-0.5,1.8-0.7,2.7-0.7c1.2,0,2.3,0.4,3.1,1.1c0.7,0.7,0.9,1.8,0.9,2.5v3.6
			h-5.1V174.6z M370.8,170.4h2.1v-1.6c0-0.3,0-1.3-1-1.3c-0.8,0-1.1,0.5-1.1,1.3V170.4z"/>
		<path class="st0" d="M384.2,165.8c0-3.3,2.4-5.5,5.4-6.8v2.3c-2.2,1.3-2.5,3.3-2.5,5v9.7c0,2,0.6,3.1,2.5,4.6v2.2
			c-1.2-0.4-2.9-1.4-4-2.7c-0.9-1.1-1.4-2.4-1.4-4.3V165.8z"/>
		<path class="st0" d="M391.4,160.7h6.5c2.9,0,2.9,2.3,2.9,4v2.3c0,2.8-0.3,4-3.5,4h-2.7v7.3h-3.2V160.7z M394.6,168.4h1.6
			c1.2,0,1.5-0.2,1.5-1.6V165c0-1.2,0-1.8-1.4-1.8h-1.6V168.4z"/>
		<path class="st0" d="M403.2,160.7h8.5v2.7h-5.3v4.1h4.9v2.7h-4.9v5.4h5.5v2.7h-8.7V160.7z"/>
		<path class="st0" d="M414.6,160.7h8.5v2.7h-5.3v4.4h5v2.6h-5v7.8h-3.2V160.7z"/>
		<path class="st0" d="M425,160.7h6.4c3.1,0,3.1,2.1,3.1,3.7v1.9c0,2.2-0.7,2.6-2.3,3c0.8,0.2,2.4,0.7,2.4,3v3.6
			c0,0.9,0.1,1.8,0.7,2.4h-3.5c-0.4-0.7-0.5-1.4-0.5-1.9v-3.7c0-1.2,0-2-1.7-2h-1.5v7.7H425V160.7z M428.2,168h1.7
			c1.5,0,1.5-0.8,1.5-1.7v-1.7c0-1.4-0.8-1.4-1.5-1.4h-1.7V168z"/>
		<path class="st0" d="M436.4,170.3h6.6v2.5h-6.6V170.3z"/>
		<path class="st0" d="M445.1,160.7h8.5v2.7h-5.3v4.4h5v2.6h-5v7.8h-3.2V160.7z"/>
		<path class="st0" d="M455.4,160.7h8.5v2.7h-5.3v4.1h4.9v2.7h-4.9v5.4h5.5v2.7h-8.7V160.7z"/>
		<path class="st0" d="M465.2,160.7h3.4l1.7,11.6l1.6-11.6h3.3l-3.3,17.5h-3.2L465.2,160.7z"/>
		<path class="st0" d="M476.6,164.3c0.3-0.1,1-0.2,2.1-1.1c0.6-0.5,0.9-0.9,1.4-1.6h1.9v16.5H479v-12.6c-0.3,0.3-0.9,0.8-2.5,1
			V164.3z"/>
		<path class="st0" d="M491.1,175.9c0,3.1-2.2,5.4-5.4,6.8v-2.3c2.2-1.3,2.5-3.3,2.5-5v-9.7c0-2-0.6-3.1-2.5-4.6V159
			c1.2,0.4,3,1.5,4,2.7c0.9,1.1,1.4,2.4,1.4,4.3V175.9z"/>
	</g>
	<path class="st1" d="M21.9,25.7c-3.5,0-5.9-2.6-5.9-5.7s2.5-5.7,5.8-5.7c3.2,0,5.7,2.4,5.7,5.7C27.6,23.6,24.9,25.7,21.9,25.7z"/>
	<path class="st1" d="M21.9,64.7c-3.5,0-5.9-2.6-5.9-5.7c0-3.1,2.5-5.7,5.8-5.7c3.2,0,5.7,2.4,5.7,5.7
		C27.6,62.6,24.9,64.7,21.9,64.7z"/>
	<path class="st1" d="M21.9,100.8c-3.5,0-5.9-2.6-5.9-5.7c0-3.1,2.5-5.7,5.8-5.7c3.2,0,5.7,2.4,5.7,5.7
		C27.6,98.7,24.9,100.8,21.9,100.8z"/>
	<path class="st1" d="M21.9,136.9c-3.5,0-5.9-2.6-5.9-5.7c0-3.1,2.5-5.7,5.8-5.7c3.2,0,5.7,2.4,5.7,5.7
		C27.6,134.7,24.9,136.9,21.9,136.9z"/>
	<path class="st1" d="M21.9,176.8c-3.5,0-5.9-2.6-5.9-5.7s2.5-5.7,5.8-5.7c3.2,0,5.7,2.4,5.7,5.7C27.6,174.7,24.9,176.8,21.9,176.8z
		"/>
</g>
</svg>
