<?xml version="1.0" encoding="utf-8"?>
<!-- Generator: Adobe Illustrator 22.0.0, SVG Export Plug-In . SVG Version: 6.00 Build 0)  -->
<svg version="1.1" id="Capa_1" xmlns="http://www.w3.org/2000/svg" xmlns:xlink="http://www.w3.org/1999/xlink" x="0px" y="0px"
	 viewBox="0 0 839.4 35.9" style="enable-background:new 0 0 839.4 35.9;" xml:space="preserve">
<style type="text/css">
	.st0{fill:#FFCC03;}
	.st1{opacity:0.6;fill:#FFCC03;}
	.st2{fill:#FFFFFF;}
</style>
<g>
	<g>
		<polygon class="st0" points="0,24.1 4.5,29.2 20.3,10.6 6,30.6 11.3,35.9 25.3,4.2 		"/>
		<polygon class="st1" points="23.5,6.8 17.5,31 12.6,31.6 		"/>
	</g>
	<g>
		<path class="st2" d="M37.2,0.6h11.2v3.5h-7v5.5H48v3.5h-6.5v7.1h7.3v3.6H37.2V0.6z"/>
		<path class="st2" d="M50.7,0.6h3.9v23.2h-3.9V0.6z"/>
		<path class="st2" d="M65.8,7h3.9v1.1c0.8-0.7,1.7-1.4,3.3-1.4c1.7,0,2.6,1,3.2,1.7c1-0.9,1.9-1.7,3.8-1.7c1.1,0,1.9,0.5,2.4,1
			c0.8,0.8,1,1.7,1,2.9v13.3h-3.9V11.4c0-0.8,0-2-1.4-2c-1.1,0-1.5,0.8-1.5,2.1v12.3h-3.9V11.5c0-0.9,0-2.1-1.4-2.1
			c-1.1,0-1.5,0.8-1.5,2v12.5h-3.9V7z"/>
		<path class="st2" d="M86.3,12.2c0-2.5,0-3.4,0.9-4.3c0.8-0.8,2.3-1.3,4.3-1.3c0.8,0,2,0.1,3,0.6c1.7,0.9,2,2.3,2,3.1v9.4
			c0,2.4,0,3.5,0.8,4.1h-4.1c-0.3-0.3-0.4-0.8-0.5-1.5c-0.8,1-1.6,1.8-3.4,1.8c-3.3,0-3.3-3-3.3-4.6c0-3,0-3.9,2.6-5.2l4.1-2
			c0-1.5,0-1.7,0-1.9c0-0.4-0.2-1.1-1.3-1.1c-1.3,0-1.3,0.8-1.3,2.9H86.3z M92.5,15.3l-1.9,1.2c-0.8,0.5-0.9,1.1-0.9,2.8
			c0,1.3,0.2,1.8,0.9,1.8c0.4,0,0.9-0.1,1.9-1V15.3z"/>
		<path class="st2" d="M97.9,7h3.9l2.2,10.8L105.7,7h3.8l-3.8,18c-0.7,3.4-1.6,4.6-4.6,4.6c-0.8,0-1.1,0-2.6-0.3l0.6-3.1
			c0.7,0.2,1.5,0.2,1.5,0.2c1.7,0,1.8-2.6,1.8-2.7L97.9,7z"/>
		<path class="st2" d="M110.8,11.5c0-2,0.7-4.9,5.3-4.9c1.2,0,2.6,0.3,3.5,0.9c1.4,1,1.6,2.4,1.6,3.8v8.1c0,3-1.9,4.7-5.4,4.7
			c-5.1,0-5.1-3.8-5.1-5.1V11.5z M114.7,19.7c0,0.4,0,1.7,1.3,1.7c1.4,0,1.4-1.2,1.4-1.8v-8.5c0-1-0.1-2-1.3-2
			c-1.4,0-1.4,1.3-1.4,2.1V19.7z"/>
		<path class="st2" d="M124,7h3.9l0,2.1c0.7-1.2,1.5-2.5,3.8-2.4v3.9c-0.3-0.1-0.7-0.3-1.3-0.3c-2.5,0-2.5,2.3-2.5,3.6v9.9H124V7z"
			/>
		<path class="st2" d="M148.5,13.4v-2c0-0.6,0-1.9-1.4-1.9c-1.6,0-1.6,1.5-1.6,2.3v7.3c0,0.8,0,2.2,1.5,2.2c1.5,0,1.5-1.5,1.5-2.2
			v-1.9h3.9v1.9c0,3.4-1.8,5.1-5.4,5.1c-0.9,0-2.7-0.1-4-1.2c-1.3-1-1.5-2.4-1.5-3.7v-7.5c0-1.2,0.2-2.4,1-3.3
			c1.1-1.3,2.8-1.9,4.5-1.9c1.4,0,3,0.4,4,1.2c1,0.9,1.4,1.9,1.4,3.5v2H148.5z"/>
		<path class="st2" d="M154.6,11.5c0-2,0.7-4.9,5.3-4.9c1.2,0,2.6,0.3,3.5,0.9c1.4,1,1.6,2.4,1.6,3.8v8.1c0,3-1.9,4.7-5.4,4.7
			c-5.1,0-5.1-3.8-5.1-5.1V11.5z M158.5,19.7c0,0.4,0,1.7,1.3,1.7c1.4,0,1.4-1.2,1.4-1.8v-8.5c0-1-0.1-2-1.3-2
			c-1.4,0-1.4,1.3-1.4,2.1V19.7z"/>
		<path class="st2" d="M167.8,7h4l-0.1,1.2c0.8-0.8,1.6-1.6,3.4-1.6c1.2,0,2.1,0.5,2.7,1.1c0.8,0.9,0.8,1.9,0.8,2.9v13.1h-3.8V11.5
			c0-0.9-0.1-2-1.4-2c-1.6,0-1.6,1.5-1.6,2.3v12.1h-3.9V7z"/>
		<path class="st2" d="M182.4,0.9h3.9V7h2.3v2.6h-2.4v9.6c0,1.1,0.2,1.8,1.8,1.8c0.3,0,0.4,0,0.7,0v2.8c-0.3,0.1-0.8,0.2-2.1,0.2
			c-3.7,0-4.2-1.4-4.2-3.5V9.6h-2.1V7h2.1V0.9z"/>
		<path class="st2" d="M190.7,12.2c0-2.5,0-3.4,0.9-4.3c0.8-0.8,2.3-1.3,4.3-1.3c0.8,0,2,0.1,3,0.6c1.7,0.9,2,2.3,2,3.1v9.4
			c0,2.4,0,3.5,0.8,4.1h-4.1c-0.3-0.3-0.4-0.8-0.5-1.5c-0.8,1-1.6,1.8-3.4,1.8c-3.3,0-3.3-3-3.3-4.6c0-3,0-3.9,2.6-5.2l4.1-2
			c0-1.5,0-1.7,0-1.9c0-0.4-0.2-1.1-1.3-1.1c-1.3,0-1.3,0.8-1.3,2.9H190.7z M197,15.3l-1.9,1.2c-0.8,0.5-0.9,1.1-0.9,2.8
			c0,1.3,0.2,1.8,0.9,1.8c0.4,0,0.9-0.1,1.9-1V15.3z"/>
		<path class="st2" d="M210.5,13.4v-2c0-0.6,0-1.9-1.4-1.9c-1.6,0-1.6,1.5-1.6,2.3v7.3c0,0.8,0,2.2,1.5,2.2c1.5,0,1.5-1.5,1.5-2.2
			v-1.9h3.9v1.9c0,3.4-1.8,5.1-5.4,5.1c-0.9,0-2.7-0.1-4-1.2c-1.3-1-1.5-2.4-1.5-3.7v-7.5c0-1.2,0.2-2.4,1-3.3
			c1.1-1.3,2.8-1.9,4.5-1.9c1.4,0,3,0.4,4,1.2c1,0.9,1.4,1.9,1.4,3.5v2H210.5z"/>
		<path class="st2" d="M217.7,0.9h3.9V7h2.3v2.6h-2.4v9.6c0,1.1,0.2,1.8,1.8,1.8c0.3,0,0.4,0,0.7,0v2.8c-0.3,0.1-0.8,0.2-2.1,0.2
			c-3.7,0-4.2-1.4-4.2-3.5V9.6h-2.1V7h2.1V0.9z"/>
		<path class="st2" d="M225.5,11.5c0-2,0.7-4.9,5.3-4.9c1.2,0,2.6,0.3,3.5,0.9c1.4,1,1.6,2.4,1.6,3.8v8.1c0,3-1.9,4.7-5.4,4.7
			c-5.1,0-5.1-3.8-5.1-5.1V11.5z M229.4,19.7c0,0.4,0,1.7,1.3,1.7c1.4,0,1.4-1.2,1.4-1.8v-8.5c0-1-0.1-2-1.3-2
			c-1.4,0-1.4,1.3-1.4,2.1V19.7z"/>
		<path class="st2" d="M253.7,13.4v-2c0-0.6,0-1.9-1.4-1.9c-1.6,0-1.6,1.5-1.6,2.3v7.3c0,0.8,0,2.2,1.5,2.2c1.5,0,1.5-1.5,1.5-2.2
			v-1.9h3.9v1.9c0,3.4-1.8,5.1-5.4,5.1c-0.9,0-2.7-0.1-4-1.2c-1.3-1-1.5-2.4-1.5-3.7v-7.5c0-1.2,0.2-2.4,1-3.3
			c1.1-1.3,2.8-1.9,4.5-1.9c1.4,0,3,0.4,4,1.2c1,0.9,1.4,1.9,1.4,3.5v2H253.7z"/>
		<path class="st2" d="M259.8,11.5c0-2,0.7-4.9,5.3-4.9c1.2,0,2.6,0.3,3.5,0.9c1.4,1,1.6,2.4,1.6,3.8v8.1c0,3-1.9,4.7-5.4,4.7
			c-5.1,0-5.1-3.8-5.1-5.1V11.5z M263.7,19.7c0,0.4,0,1.7,1.3,1.7c1.4,0,1.4-1.2,1.4-1.8v-8.5c0-1-0.1-2-1.3-2
			c-1.4,0-1.4,1.3-1.4,2.1V19.7z"/>
		<path class="st2" d="M273,7h4l-0.1,1.2c0.8-0.8,1.6-1.6,3.4-1.6c1.2,0,2.1,0.5,2.7,1.1c0.8,0.9,0.8,1.9,0.8,2.9v13.1h-3.8V11.5
			c0-0.9-0.1-2-1.4-2c-1.6,0-1.6,1.5-1.6,2.3v12.1H273V7z"/>
		<path class="st2" d="M294.8,12.2c0-2.5,0-3.4,0.9-4.3c0.8-0.8,2.3-1.3,4.3-1.3c0.8,0,2,0.1,3,0.6c1.7,0.9,2,2.3,2,3.1v9.4
			c0,2.4,0,3.5,0.8,4.1h-4.1c-0.3-0.3-0.4-0.8-0.5-1.5c-0.8,1-1.6,1.8-3.4,1.8c-3.3,0-3.3-3-3.3-4.6c0-3,0-3.9,2.6-5.2l4.1-2
			c0-1.5,0-1.7,0-1.9c0-0.4-0.2-1.1-1.3-1.1c-1.3,0-1.3,0.8-1.3,2.9H294.8z M301.1,15.3l-1.9,1.2c-0.8,0.5-0.9,1.1-0.9,2.8
			c0,1.3,0.2,1.8,0.9,1.8c0.4,0,0.9-0.1,1.9-1V15.3z"/>
		<path class="st2" d="M307.9,0.6h3.9v23.2h-3.9V0.6z"/>
		<path class="st2" d="M318.4,19c0,0.7,0,2.1,1.4,2.1c0.5,0,0.8-0.2,1.1-0.5c0.3-0.4,0.3-0.6,0.3-2.3h3.8v1.3c0,3.6-2.7,4.5-5.1,4.5
			c-3.8,0-5.4-2-5.4-5.4v-7.1c0-2.1,0.7-3.3,1.8-4c1-0.7,2.4-1,3.5-1c1.5,0,3.1,0.5,4.1,1.5c1,1,1.2,2.4,1.2,3.4v4.8h-6.7V19z
			 M318.5,13.5h2.8v-2.1c0-0.5,0-1.7-1.3-1.7c-1,0-1.4,0.6-1.4,1.7V13.5z"/>
		<path class="st2" d="M327.8,7h3.9l0,2.1c0.7-1.2,1.5-2.5,3.8-2.4v3.9c-0.3-0.1-0.7-0.3-1.3-0.3c-2.5,0-2.5,2.3-2.5,3.6v9.9h-3.9V7
			z"/>
		<path class="st2" d="M343.6,7h3.9v17.4c0,1.7,0,5.4-5.7,5.4c-5.1,0-5.2-3.1-5.2-4.6h3.9c0,0.2,0,0.7,0.2,1.1
			c0.2,0.4,0.6,0.7,1.3,0.7c1.4,0,1.6-1,1.6-2v-2.6c-0.6,0.6-1.4,1.6-3.4,1.6c-3.2,0-3.6-2.3-3.6-4.2v-8.9c0-0.6,0-4.2,3.5-4.2
			c1.7,0,2.7,0.9,3.5,1.7V7z M340.4,19.2c0,0.5,0,1.9,1.5,1.9c1.4,0,1.6-1.1,1.6-1.9v-7.4c0-0.7,0-2.1-1.6-2.1c-1.6,0-1.6,1.5-1.6,2
			V19.2z"/>
		<path class="st2" d="M354.1,19c0,0.7,0,2.1,1.4,2.1c0.5,0,0.8-0.2,1.1-0.5c0.3-0.4,0.3-0.6,0.3-2.3h3.8v1.3c0,3.6-2.7,4.5-5.1,4.5
			c-3.8,0-5.4-2-5.4-5.4v-7.1c0-2.1,0.7-3.3,1.8-4c1-0.7,2.4-1,3.5-1c1.5,0,3.1,0.5,4.1,1.5c1,1,1.2,2.4,1.2,3.4v4.8h-6.7V19z
			 M355.6,0h5.1c-1.8,1.8-2.2,2.3-4.2,4.4h-3.1L355.6,0z M354.2,13.5h2.8v-2.1c0-0.5,0-1.7-1.3-1.7c-1,0-1.4,0.6-1.4,1.7V13.5z"/>
		<path class="st2" d="M363.5,7h4l-0.1,1.2c0.8-0.8,1.6-1.6,3.4-1.6c1.2,0,2.1,0.5,2.7,1.1c0.8,0.9,0.8,1.9,0.8,2.9v13.1h-3.8V11.5
			c0-0.9-0.1-2-1.4-2c-1.6,0-1.6,1.5-1.6,2.3v12.1h-3.9V7z"/>
		<path class="st2" d="M377,11.5c0-2,0.7-4.9,5.3-4.9c1.2,0,2.6,0.3,3.5,0.9c1.4,1,1.6,2.4,1.6,3.8v8.1c0,3-1.9,4.7-5.4,4.7
			c-5.1,0-5.1-3.8-5.1-5.1V11.5z M380.9,19.7c0,0.4,0,1.7,1.3,1.7c1.4,0,1.4-1.2,1.4-1.8v-8.5c0-1-0.1-2-1.3-2
			c-1.4,0-1.4,1.3-1.4,2.1V19.7z"/>
		<path class="st2" d="M389.6,17.9h3.6c0,2.4,0,3.5,1.5,3.5c0.9,0,1.5-0.4,1.5-1.8c0-1-0.1-1.4-1.2-2.2l-3.3-2.3
			c-0.2-0.2-0.8-0.7-1.1-1.1c-0.4-0.5-0.9-1.2-0.9-3c0-3.5,2.3-4.3,5.1-4.3c3.4,0,4.8,1.5,4.8,3.9v1.8h-3.4c0-1.9,0-3-1.4-3
			c-0.6,0-1.4,0.1-1.4,1.5c0,0.5,0,1.1,1.1,1.8l3.6,2.5c0.2,0.2,1,0.9,1.1,1.1c0.5,0.7,0.6,1.5,0.6,2.6c0,2.1,0,5.2-5.2,5.2
			c-4.2,0-5.1-2.1-5.1-4.5V17.9z"/>
		<path class="st2" d="M410.7,12.2c0-2.5,0-3.4,0.9-4.3c0.8-0.8,2.3-1.3,4.3-1.3c0.8,0,2,0.1,3,0.6c1.7,0.9,2,2.3,2,3.1v9.4
			c0,2.4,0,3.5,0.8,4.1h-4.1c-0.3-0.3-0.4-0.8-0.5-1.5c-0.8,1-1.6,1.8-3.4,1.8c-3.3,0-3.3-3-3.3-4.6c0-3,0-3.9,2.6-5.2l4.1-2
			c0-1.5,0-1.7,0-1.9c0-0.4-0.2-1.1-1.3-1.1c-1.3,0-1.3,0.8-1.3,2.9H410.7z M416.9,15.3l-1.9,1.2c-0.8,0.5-0.9,1.1-0.9,2.8
			c0,1.3,0.2,1.8,0.9,1.8c0.4,0,0.9-0.1,1.9-1V15.3z"/>
		<path class="st2" d="M423.7,7h3.9v12.1c0,0.8,0,2,1.4,2c1.5,0,1.5-1.3,1.5-2.2V7h3.9v16.8h-3.9v-1.3c-0.9,0.7-1.9,1.6-3.6,1.6
			c-1.1,0-2.8-0.5-3.2-2.6c-0.1-0.5-0.1-0.9-0.1-1.8V7z"/>
		<path class="st2" d="M437.4,7h3.9v1.1c0.8-0.7,1.7-1.4,3.3-1.4c1.7,0,2.6,1,3.2,1.7c1-0.9,1.9-1.7,3.8-1.7c1.1,0,1.9,0.5,2.4,1
			c0.8,0.8,1,1.7,1,2.9v13.3h-3.9V11.4c0-0.8,0-2-1.4-2c-1.1,0-1.5,0.8-1.5,2.1v12.3h-3.9V11.5c0-0.9,0-2.1-1.4-2.1
			c-1.1,0-1.5,0.8-1.5,2v12.5h-3.9V7z"/>
		<path class="st2" d="M461.7,19c0,0.7,0,2.1,1.4,2.1c0.5,0,0.8-0.2,1.1-0.5c0.3-0.4,0.3-0.6,0.3-2.3h3.8v1.3c0,3.6-2.7,4.5-5.1,4.5
			c-3.8,0-5.4-2-5.4-5.4v-7.1c0-2.1,0.7-3.3,1.8-4c1-0.7,2.4-1,3.5-1c1.5,0,3.1,0.5,4.1,1.5c1,1,1.2,2.4,1.2,3.4v4.8h-6.7V19z
			 M461.7,13.5h2.8v-2.1c0-0.5,0-1.7-1.3-1.7c-1,0-1.4,0.6-1.4,1.7V13.5z"/>
		<path class="st2" d="M471,7h4l-0.1,1.2c0.8-0.8,1.6-1.6,3.4-1.6c1.2,0,2.1,0.5,2.7,1.1c0.8,0.9,0.8,1.9,0.8,2.9v13.1h-3.8V11.5
			c0-0.9-0.1-2-1.4-2c-1.6,0-1.6,1.5-1.6,2.3v12.1H471V7z"/>
		<path class="st2" d="M485.6,0.9h3.9V7h2.3v2.6h-2.4v9.6c0,1.1,0.2,1.8,1.8,1.8c0.3,0,0.4,0,0.7,0v2.8c-0.3,0.1-0.8,0.2-2.1,0.2
			c-3.7,0-4.2-1.4-4.2-3.5V9.6h-2.1V7h2.1V0.9z"/>
		<path class="st2" d="M493.9,12.2c0-2.5,0-3.4,0.9-4.3c0.8-0.8,2.3-1.3,4.3-1.3c0.8,0,2,0.1,3,0.6c1.7,0.9,2,2.3,2,3.1v9.4
			c0,2.4,0,3.5,0.8,4.1h-4.1c-0.3-0.3-0.4-0.8-0.5-1.5c-0.8,1-1.6,1.8-3.4,1.8c-3.3,0-3.3-3-3.3-4.6c0-3,0-3.9,2.6-5.2l4.1-2
			c0-1.5,0-1.7,0-1.9c0-0.4-0.2-1.1-1.3-1.1c-1.3,0-1.3,0.8-1.3,2.9H493.9z M500.2,15.3l-1.9,1.2c-0.8,0.5-0.9,1.1-0.9,2.8
			c0,1.3,0.2,1.8,0.9,1.8c0.4,0,0.9-0.1,1.9-1V15.3z"/>
		<path class="st2" d="M518.9,19c0,0.7,0,2.1,1.4,2.1c0.5,0,0.8-0.2,1.1-0.5c0.3-0.4,0.3-0.6,0.3-2.3h3.8v1.3c0,3.6-2.7,4.5-5.1,4.5
			c-3.8,0-5.4-2-5.4-5.4v-7.1c0-2.1,0.7-3.3,1.8-4c1-0.7,2.4-1,3.5-1c1.5,0,3.1,0.5,4.1,1.5c1,1,1.2,2.4,1.2,3.4v4.8h-6.7V19z
			 M518.9,13.5h2.8v-2.1c0-0.5,0-1.7-1.3-1.7c-1,0-1.4,0.6-1.4,1.7V13.5z"/>
		<path class="st2" d="M528.2,0.6h3.9v23.2h-3.9V0.6z"/>
		<path class="st2" d="M543.2,7h4l-0.1,1.2c0.8-0.8,1.6-1.6,3.4-1.6c1.2,0,2.1,0.5,2.7,1.1c0.8,0.9,0.8,1.9,0.8,2.9v13.1h-3.8V11.5
			c0-0.9-0.1-2-1.4-2c-1.6,0-1.6,1.5-1.6,2.3v12.1h-3.9V7z"/>
		<path class="st2" d="M557,7h3.9v12.1c0,0.8,0,2,1.4,2c1.5,0,1.5-1.3,1.5-2.2V7h3.9v16.8h-3.9v-1.3c-0.9,0.7-1.9,1.6-3.6,1.6
			c-1.1,0-2.8-0.5-3.2-2.6c-0.1-0.5-0.1-0.9-0.1-1.8V7z M562.4,0h5.1c-1.8,1.8-2.2,2.3-4.2,4.4h-3.1L562.4,0z"/>
		<path class="st2" d="M570.7,7h3.9v1.1c0.8-0.7,1.7-1.4,3.3-1.4c1.7,0,2.6,1,3.2,1.7c1-0.9,1.9-1.7,3.8-1.7c1.1,0,1.9,0.5,2.4,1
			c0.8,0.8,1,1.7,1,2.9v13.3h-3.9V11.4c0-0.8,0-2-1.4-2c-1.1,0-1.5,0.8-1.5,2.1v12.3h-3.9V11.5c0-0.9,0-2.1-1.4-2.1
			c-1.1,0-1.5,0.8-1.5,2v12.5h-3.9V7z"/>
		<path class="st2" d="M594.9,19c0,0.7,0,2.1,1.4,2.1c0.5,0,0.8-0.2,1.1-0.5c0.3-0.4,0.3-0.6,0.3-2.3h3.8v1.3c0,3.6-2.7,4.5-5.1,4.5
			c-3.8,0-5.4-2-5.4-5.4v-7.1c0-2.1,0.7-3.3,1.8-4c1-0.7,2.4-1,3.5-1c1.5,0,3.1,0.5,4.1,1.5c1,1,1.2,2.4,1.2,3.4v4.8h-6.7V19z
			 M594.9,13.5h2.8v-2.1c0-0.5,0-1.7-1.3-1.7c-1,0-1.4,0.6-1.4,1.7V13.5z"/>
		<path class="st2" d="M604.2,7h3.9l0,2.1c0.7-1.2,1.5-2.5,3.8-2.4v3.9c-0.3-0.1-0.7-0.3-1.3-0.3c-2.5,0-2.5,2.3-2.5,3.6v9.9h-3.9V7
			z"/>
		<path class="st2" d="M613,11.5c0-2,0.7-4.9,5.3-4.9c1.2,0,2.6,0.3,3.5,0.9c1.4,1,1.6,2.4,1.6,3.8v8.1c0,3-1.9,4.7-5.4,4.7
			c-5.1,0-5.1-3.8-5.1-5.1V11.5z M616.9,19.7c0,0.4,0,1.7,1.3,1.7c1.4,0,1.4-1.2,1.4-1.8v-8.5c0-1-0.1-2-1.3-2
			c-1.4,0-1.4,1.3-1.4,2.1V19.7z"/>
		<path class="st2" d="M641.3,0.6h3.9v23.2h-3.9l0-1.6c-0.6,0.9-1.4,2-3.3,2c-1.6,0-2.8-0.9-3.3-1.8c-0.4-0.8-0.5-1.9-0.5-3.6v-7.7
			c0-1.2,0.1-1.8,0.5-2.5c0.7-1.5,2.3-2,3.2-2c1.5,0,2.6,1,3.4,1.7V0.6z M638.1,19c0,0.8,0,1.9,1.5,1.9c1.6,0,1.6-1.5,1.6-2v-7.2
			c0-0.5,0-1.9-1.6-1.9c-1.5,0-1.5,1.3-1.5,2.1V19z"/>
		<path class="st2" d="M651.8,19c0,0.7,0,2.1,1.4,2.1c0.5,0,0.8-0.2,1.1-0.5c0.3-0.4,0.3-0.6,0.3-2.3h3.8v1.3c0,3.6-2.7,4.5-5.1,4.5
			c-3.8,0-5.4-2-5.4-5.4v-7.1c0-2.1,0.7-3.3,1.8-4c1-0.7,2.4-1,3.5-1c1.5,0,3.1,0.5,4.1,1.5c1,1,1.2,2.4,1.2,3.4v4.8h-6.7V19z
			 M651.8,13.5h2.8v-2.1c0-0.5,0-1.7-1.3-1.7c-1,0-1.4,0.6-1.4,1.7V13.5z"/>
		<path class="st2" d="M673,19c0,0.7,0,2.1,1.4,2.1c0.5,0,0.8-0.2,1.1-0.5c0.3-0.4,0.3-0.6,0.3-2.3h3.8v1.3c0,3.6-2.7,4.5-5.1,4.5
			c-3.8,0-5.4-2-5.4-5.4v-7.1c0-2.1,0.7-3.3,1.8-4c1-0.7,2.4-1,3.5-1c1.5,0,3.1,0.5,4.1,1.5c1,1,1.2,2.4,1.2,3.4v4.8H673V19z
			 M673.1,13.5h2.8v-2.1c0-0.5,0-1.7-1.3-1.7c-1,0-1.4,0.6-1.4,1.7V13.5z"/>
		<path class="st2" d="M681.7,7h4l1.4,5.6l1.5-5.6h3.8l-3,7.7l3.6,9.1h-4.2L687,17l-1.9,6.8h-4l3.6-9.1L681.7,7z"/>
		<path class="st2" d="M694.6,12.2c0-2.5,0-3.4,0.9-4.3c0.8-0.8,2.3-1.3,4.3-1.3c0.8,0,2,0.1,3,0.6c1.7,0.9,2,2.3,2,3.1v9.4
			c0,2.4,0,3.5,0.8,4.1h-4.1c-0.3-0.3-0.4-0.8-0.5-1.5c-0.8,1-1.6,1.8-3.4,1.8c-3.3,0-3.3-3-3.3-4.6c0-3,0-3.9,2.6-5.2l4.1-2
			c0-1.5,0-1.7,0-1.9c0-0.4-0.2-1.1-1.3-1.1c-1.3,0-1.3,0.8-1.3,2.9H694.6z M700.9,15.3l-1.9,1.2c-0.8,0.5-0.9,1.1-0.9,2.8
			c0,1.3,0.2,1.8,0.9,1.8c0.4,0,0.9-0.1,1.9-1V15.3z"/>
		<path class="st2" d="M714.4,13.4v-2c0-0.6,0-1.9-1.4-1.9c-1.6,0-1.6,1.5-1.6,2.3v7.3c0,0.8,0,2.2,1.5,2.2c1.5,0,1.5-1.5,1.5-2.2
			v-1.9h3.9v1.9c0,3.4-1.8,5.1-5.4,5.1c-0.9,0-2.7-0.1-4-1.2c-1.3-1-1.5-2.4-1.5-3.7v-7.5c0-1.2,0.2-2.4,1-3.3
			c1.1-1.3,2.8-1.9,4.5-1.9c1.4,0,3,0.4,4,1.2c1,0.9,1.4,1.9,1.4,3.5v2H714.4z"/>
		<path class="st2" d="M724.4,19c0,0.7,0,2.1,1.4,2.1c0.5,0,0.8-0.2,1.1-0.5c0.3-0.4,0.3-0.6,0.3-2.3h3.8v1.3c0,3.6-2.7,4.5-5.1,4.5
			c-3.8,0-5.4-2-5.4-5.4v-7.1c0-2.1,0.7-3.3,1.8-4c1-0.7,2.4-1,3.5-1c1.5,0,3.1,0.5,4.1,1.5c1,1,1.2,2.4,1.2,3.4v4.8h-6.7V19z
			 M724.4,13.5h2.8v-2.1c0-0.5,0-1.7-1.3-1.7c-1,0-1.4,0.6-1.4,1.7V13.5z"/>
		<path class="st2" d="M733.7,7h3.9l0,2.1c0.7-1.2,1.5-2.5,3.8-2.4v3.9c-0.3-0.1-0.7-0.3-1.3-0.3c-2.5,0-2.5,2.3-2.5,3.6v9.9h-3.9V7
			z"/>
		<path class="st2" d="M743.3,0.6h3.9v7.7c1.8-1.6,3.1-1.7,3.5-1.7c1.3,0,3.5,1,3.5,3.9v9.5c0,3.6-2.5,4.1-3.6,4.1
			c-2.1,0-3-1.2-3.5-1.9v1.5h-3.9V0.6z M750.4,11.6c0-0.6,0-1.9-1.4-1.9c-1.7,0-1.7,1.3-1.7,2.2v6.8c0,1.1,0.1,2.2,1.6,2.2
			c1.5,0,1.5-1.5,1.5-2.2V11.6z"/>
		<path class="st2" d="M757,12.2c0-2.5,0-3.4,0.9-4.3c0.8-0.8,2.3-1.3,4.3-1.3c0.8,0,2,0.1,3,0.6c1.7,0.9,2,2.3,2,3.1v9.4
			c0,2.4,0,3.5,0.8,4.1h-4.1c-0.3-0.3-0.4-0.8-0.5-1.5c-0.8,1-1.6,1.8-3.4,1.8c-3.3,0-3.3-3-3.3-4.6c0-3,0-3.9,2.6-5.2l4.1-2
			c0-1.5,0-1.7,0-1.9c0-0.4-0.2-1.1-1.3-1.1c-1.3,0-1.3,0.8-1.3,2.9H757z M763.3,15.3l-1.9,1.2c-0.8,0.5-0.9,1.1-0.9,2.8
			c0,1.3,0.2,1.8,0.9,1.8c0.4,0,0.9-0.1,1.9-1V15.3z"/>
		<path class="st2" d="M776.8,13.4v-2c0-0.6,0-1.9-1.4-1.9c-1.6,0-1.6,1.5-1.6,2.3v7.3c0,0.8,0,2.2,1.5,2.2c1.5,0,1.5-1.5,1.5-2.2
			v-1.9h3.9v1.9c0,3.4-1.8,5.1-5.4,5.1c-0.9,0-2.7-0.1-4-1.2c-1.3-1-1.5-2.4-1.5-3.7v-7.5c0-1.2,0.2-2.4,1-3.3
			c1.1-1.3,2.8-1.9,4.5-1.9c1.4,0,3,0.4,4,1.2c1,0.9,1.4,1.9,1.4,3.5v2H776.8z"/>
		<path class="st2" d="M783.1,0.6h3.9v4h-3.9V0.6z M783.1,7h3.9v16.8h-3.9V7z"/>
		<path class="st2" d="M789.7,11.5c0-2,0.7-4.9,5.3-4.9c1.2,0,2.6,0.3,3.5,0.9c1.4,1,1.6,2.4,1.6,3.8v8.1c0,3-1.9,4.7-5.4,4.7
			c-5.1,0-5.1-3.8-5.1-5.1V11.5z M793.6,19.7c0,0.4,0,1.7,1.3,1.7c1.4,0,1.4-1.2,1.4-1.8v-8.5c0-1-0.1-2-1.3-2
			c-1.4,0-1.4,1.3-1.4,2.1V19.7z"/>
		<path class="st2" d="M802.9,7h4l-0.1,1.2c0.8-0.8,1.6-1.6,3.4-1.6c1.2,0,2.1,0.5,2.7,1.1c0.8,0.9,0.8,1.9,0.8,2.9v13.1h-3.8V11.5
			c0-0.9-0.1-2-1.4-2c-1.6,0-1.6,1.5-1.6,2.3v12.1h-3.9V7z"/>
		<path class="st2" d="M820.3,19c0,0.7,0,2.1,1.4,2.1c0.5,0,0.8-0.2,1.1-0.5c0.3-0.4,0.3-0.6,0.3-2.3h3.8v1.3c0,3.6-2.7,4.5-5.1,4.5
			c-3.8,0-5.4-2-5.4-5.4v-7.1c0-2.1,0.7-3.3,1.8-4c1-0.7,2.4-1,3.5-1c1.5,0,3.1,0.5,4.1,1.5c1,1,1.2,2.4,1.2,3.4v4.8h-6.7V19z
			 M820.4,13.5h2.8v-2.1c0-0.5,0-1.7-1.3-1.7c-1,0-1.4,0.6-1.4,1.7V13.5z"/>
		<path class="st2" d="M829.1,17.9h3.6c0,2.4,0,3.5,1.5,3.5c0.9,0,1.5-0.4,1.5-1.8c0-1-0.1-1.4-1.2-2.2l-3.3-2.3
			c-0.2-0.2-0.8-0.7-1.1-1.1c-0.4-0.5-0.9-1.2-0.9-3c0-3.5,2.3-4.3,5.1-4.3c3.4,0,4.8,1.5,4.8,3.9v1.8h-3.4c0-1.9,0-3-1.4-3
			c-0.6,0-1.4,0.1-1.4,1.5c0,0.5,0,1.1,1.1,1.8l3.6,2.5c0.2,0.2,1,0.9,1.1,1.1c0.5,0.7,0.6,1.5,0.6,2.6c0,2.1,0,5.2-5.2,5.2
			c-4.2,0-5.1-2.1-5.1-4.5V17.9z"/>
	</g>
</g>
</svg>
